<svg xmlns="http://www.w3.org/2000/svg" width="40" height="40" viewBox="0 0 40 40" fill="none">
  <path d="M37.5 20C37.5004 18.6179 36.9769 17.2871 36.035 16.2756C35.7171 15.9545 35.4759 15.5656 35.3294 15.1381C35.183 14.7106 35.1351 14.2555 35.1894 13.8069C35.1924 13.7824 35.1938 13.7578 35.1937 13.7331C35.1904 12.3852 34.6917 11.0856 33.7927 10.0813C32.8936 9.07701 31.6568 8.43818 30.3175 8.28627C30.1504 6.95688 29.5191 5.72925 28.535 4.82002C27.9862 4.31474 27.3386 3.9288 26.6331 3.68659C25.9275 3.44438 25.1794 3.35117 24.436 3.41284C23.6926 3.47452 22.9701 3.68974 22.3141 4.04491C21.6581 4.40008 21.083 4.88746 20.625 5.47627V14.375H23.3262C23.8234 14.3745 24.3 14.1768 24.6515 13.8253C25.003 13.4738 25.2007 12.9971 25.2012 12.5V10.8875C24.7842 10.7401 24.4328 10.45 24.209 10.0685C23.9852 9.68696 23.9034 9.23862 23.9782 8.80268C24.053 8.36675 24.2795 7.97129 24.6177 7.6862C24.9559 7.40111 25.3839 7.24475 25.8262 7.24475C26.2685 7.24475 26.6966 7.40111 27.0348 7.6862C27.3729 7.97129 27.5994 8.36675 27.6742 8.80268C27.749 9.23862 27.6673 9.68696 27.4435 10.0685C27.2197 10.45 26.8682 10.7401 26.4512 10.8875V12.5C26.4502 13.3285 26.1207 14.1228 25.5349 14.7086C24.949 15.2945 24.1547 15.624 23.3262 15.625H20.625V17.7475H27.6975C28.1946 17.747 28.6712 17.5493 29.0228 17.1978C29.3743 16.8463 29.572 16.3696 29.5725 15.8725V14.26C29.1555 14.1126 28.804 13.8225 28.5802 13.441C28.3564 13.0595 28.2747 12.6111 28.3495 12.1752C28.4243 11.7392 28.6508 11.3438 28.989 11.0587C29.3271 10.7736 29.7552 10.6172 30.1975 10.6172C30.6398 10.6172 31.0679 10.7736 31.406 11.0587C31.7442 11.3438 31.9707 11.7392 32.0455 12.1752C32.1203 12.6111 32.0386 13.0595 31.8148 13.441C31.591 13.8225 31.2395 14.1126 30.8225 14.26V15.8725C30.8215 16.701 30.4919 17.4953 29.9061 18.0811C29.3203 18.667 28.526 18.9965 27.6975 18.9975H20.625V21.0025H27.6975C28.526 21.0035 29.3203 21.3331 29.9061 21.9189C30.4919 22.5047 30.8215 23.299 30.8225 24.1275V25.74C31.2395 25.8875 31.591 26.1776 31.8148 26.5591C32.0386 26.9406 32.1203 27.3889 32.0455 27.8249C31.9707 28.2608 31.7442 28.6562 31.406 28.9413C31.0679 29.2264 30.6398 29.3828 30.1975 29.3828C29.7552 29.3828 29.3271 29.2264 28.989 28.9413C28.6508 28.6562 28.4243 28.2608 28.3495 27.8249C28.2747 27.3889 28.3564 26.9406 28.5802 26.5591C28.804 26.1776 29.1555 25.8875 29.5725 25.74V24.1275C29.572 23.6304 29.3743 23.1538 29.0228 22.8022C28.6712 22.4507 28.1946 22.253 27.6975 22.2525H20.625V24.375H23.3262C24.1547 24.376 24.949 24.7056 25.5349 25.2914C26.1207 25.8772 26.4502 26.6715 26.4512 27.5V29.1125C26.8682 29.26 27.2197 29.5501 27.4435 29.9316C27.6673 30.3131 27.749 30.7614 27.6742 31.1973C27.5994 31.6333 27.3729 32.0287 27.0348 32.3138C26.6966 32.5989 26.2685 32.7553 25.8262 32.7553C25.3839 32.7553 24.9559 32.5989 24.6177 32.3138C24.2795 32.0287 24.053 31.6333 23.9782 31.1973C23.9034 30.7614 23.9852 30.3131 24.209 29.9316C24.4328 29.5501 24.7842 29.26 25.2012 29.1125V27.5C25.2007 27.0029 25.003 26.5263 24.6515 26.1747C24.3 25.8232 23.8234 25.6255 23.3262 25.625H20.625V34.5231C21.0907 35.124 21.6785 35.6193 22.3497 35.9762C23.0209 36.3331 23.7602 36.5436 24.5187 36.5938C24.6333 36.6008 24.7475 36.6044 24.8612 36.6044C26.2513 36.6081 27.5899 36.0786 28.6012 35.125C29.5528 34.2312 30.1559 33.0285 30.3031 31.7313C31.6471 31.579 32.8882 30.9377 33.79 29.9296C34.6918 28.9215 35.1915 27.617 35.1937 26.2644C35.1935 26.2406 35.1921 26.2168 35.1894 26.1931C35.1355 25.7426 35.1843 25.2857 35.3322 24.8568C35.48 24.4278 35.7231 24.0379 36.0431 23.7163C36.9809 22.7061 37.5014 21.3784 37.5 20ZM15.4831 3.40627C14.7521 3.35752 14.0188 3.45787 13.3277 3.70122C12.6367 3.94458 12.0023 4.32585 11.4631 4.82189C10.8317 5.40469 10.3421 6.12433 10.0319 6.92564C10.3062 7.8465 10.8217 8.67727 11.525 9.33189C12.0499 9.75424 12.6598 10.0584 13.313 10.2235C13.9662 10.3886 14.6474 10.4109 15.31 10.2888C15.4747 10.2694 15.6403 10.3162 15.7705 10.4189C15.9006 10.5217 15.9847 10.6719 16.0041 10.8366C16.0234 11.0013 15.9766 11.1669 15.8739 11.2971C15.7712 11.4272 15.6209 11.5112 15.4562 11.5306C15.1277 11.5701 14.7971 11.5901 14.4662 11.5906C13.0894 11.6343 11.7457 11.1632 10.6975 10.2694C10.0976 9.73173 9.61068 9.08013 9.26499 8.35252C8.0128 8.59272 6.88315 9.26099 6.06967 10.2428C5.25618 11.2246 4.80952 12.4588 4.80624 13.7338C4.86972 14.1957 4.82607 14.6661 4.67868 15.1085C4.53128 15.5509 4.2841 15.9534 3.95624 16.285C3.01858 17.2974 2.49838 18.6268 2.5 20.0067C2.50163 21.3866 3.02495 22.7149 3.96499 23.725C4.29038 24.0557 4.53545 24.4567 4.68131 24.8971C4.82717 25.3375 4.86991 25.8055 4.80624 26.265C4.80389 27.5276 5.23762 28.7524 6.03411 29.7321C6.8306 30.7118 7.94097 31.3864 9.17749 31.6419C9.45541 31.1667 9.80781 30.7392 10.2212 30.3756C11.4756 29.2844 13.2106 28.8856 15.3762 29.1869C15.5372 29.2135 15.6814 29.3019 15.7781 29.4334C15.8747 29.5648 15.9161 29.7289 15.8934 29.8905C15.8707 30.052 15.7858 30.1983 15.6567 30.2981C15.5276 30.3979 15.3646 30.4432 15.2025 30.4244C13.4137 30.175 12.0181 30.4731 11.0487 31.3125C10.5689 31.7406 10.195 32.2742 9.95624 32.8713C10.2437 33.7293 10.7385 34.503 11.3969 35.1238C12.4088 36.0786 13.7487 36.6086 15.14 36.6044C15.9576 36.6026 16.764 36.4144 17.4979 36.0539C18.2318 35.6935 18.8738 35.1704 19.375 34.5244V18.3388C18.8585 18.4432 18.3331 18.497 17.8062 18.4994C17.2404 18.5019 16.6765 18.4313 16.1287 18.2894C15.7912 18.2806 13.4381 18.2581 12.6275 19.6531C12.5877 19.7268 12.5335 19.7918 12.4681 19.8441C12.4028 19.8964 12.3275 19.9351 12.2469 19.9578C12.1663 19.9804 12.082 19.9867 11.9989 19.9762C11.9158 19.9656 11.8357 19.9385 11.7633 19.8964C11.691 19.8543 11.6278 19.7981 11.5775 19.7311C11.5273 19.6641 11.491 19.5877 11.4709 19.5064C11.4508 19.4251 11.4472 19.3406 11.4603 19.2579C11.4735 19.1752 11.5031 19.096 11.5475 19.025C11.8447 18.5673 12.2314 18.1745 12.6843 17.8701C13.1373 17.5657 13.6471 17.356 14.1831 17.2538C13.6072 16.7165 13.1793 16.04 12.9406 15.2894C12.8877 15.1322 12.8995 14.9604 12.9733 14.8118C13.0471 14.6632 13.1768 14.5501 13.3341 14.4972C13.4913 14.4443 13.6631 14.4561 13.8116 14.5299C13.9602 14.6036 14.0734 14.7334 14.1262 14.8906C15.0887 17.7563 18.2187 17.3275 19.375 17.0606V5.47627C18.9094 4.8758 18.3219 4.38089 17.651 4.02418C16.9801 3.66747 16.2413 3.45708 15.4831 3.40689V3.40627Z" fill="url(#paint0_linear_38_47)"/>
  <defs>
    <linearGradient id="paint0_linear_38_47" x1="20" y1="3.39429" x2="20" y2="36.6044" gradientUnits="userSpaceOnUse">
      <stop stop-color="#C90407"/>
      <stop offset="1" stop-color="#BF5A5B"/>
    </linearGradient>
  </defs>
</svg>