<svg xmlns="http://www.w3.org/2000/svg" width="40" height="40" viewBox="0 0 40 40" fill="none">
  <path d="M25.7812 11.7188C24.2735 11.7188 23.0469 10.4921 23.0469 8.98438V0H9.0625C6.6932 0 4.76562 1.92758 4.76562 4.29688V35.7031C4.76562 38.0724 6.6932 40 9.0625 40H30.9375C33.3068 40 35.2344 38.0724 35.2344 35.7031V11.7188H25.7812ZM11.1719 28.125H16.8531C17.5003 28.125 18.025 28.6497 18.025 29.2969C18.025 29.9441 17.5003 30.4688 16.8531 30.4688H11.1719C10.5247 30.4688 10 29.9441 10 29.2969C10 28.6497 10.5247 28.125 11.1719 28.125ZM10 23.0469C10 22.3997 10.5247 21.875 11.1719 21.875H28.3594C29.0066 21.875 29.5312 22.3997 29.5312 23.0469C29.5312 23.6941 29.0066 24.2188 28.3594 24.2188H11.1719C10.5247 24.2188 10 23.6941 10 23.0469ZM28.3594 15.625C29.0066 15.625 29.5312 16.1497 29.5312 16.7969C29.5312 17.4441 29.0066 17.9688 28.3594 17.9688H11.1719C10.5247 17.9688 10 17.4441 10 16.7969C10 16.1497 10.5247 15.625 11.1719 15.625H28.3594Z" fill="url(#paint0_linear_38_31)"/>
  <path d="M25.3906 8.98432C25.3906 9.19971 25.5659 9.37495 25.7812 9.37495H34.712C34.4966 8.97616 34.2194 8.61406 33.8905 8.30213L26.3575 1.17541C26.0686 0.902067 25.7433 0.670046 25.3907 0.485962V8.98432H25.3906Z" fill="url(#paint1_linear_38_31)"/>
  <defs>
    <linearGradient id="paint0_linear_38_31" x1="20" y1="0" x2="20" y2="40" gradientUnits="userSpaceOnUse">
      <stop stop-color="#B70B0E"/>
      <stop offset="1" stop-color="#FD8183"/>
    </linearGradient>
    <linearGradient id="paint1_linear_38_31" x1="30.0513" y1="0.485962" x2="30.0513" y2="9.37495" gradientUnits="userSpaceOnUse">
      <stop stop-color="#B70B0E"/>
      <stop offset="1" stop-color="#FD8183"/>
    </linearGradient>
  </defs>
</svg>