<svg xmlns="http://www.w3.org/2000/svg" width="40" height="40" viewBox="0 0 40 40" fill="none">
  <g clip-path="url(#clip0_38_82)">
    <path d="M20.7149 39.9762C23.7736 39.5417 26.4552 36.3491 28.1425 31.6346C25.7034 31.0882 23.2143 30.7951 20.715 30.7601L20.7149 39.9762ZM25.6017 39.2265C25.7825 39.1741 25.9627 39.1214 26.1414 39.0635C26.2921 39.015 26.4409 38.9626 26.5896 38.9106C26.7658 38.8501 26.941 38.787 27.1152 38.7211C27.2639 38.6645 27.4113 38.6045 27.5589 38.5444C27.7292 38.4729 27.8993 38.4017 28.0675 38.3301C28.3814 38.191 28.6919 38.0444 28.9988 37.8903C29.1419 37.8174 29.2847 37.7431 29.4277 37.6666C29.588 37.5808 29.7472 37.4931 29.9053 37.403C30.0465 37.3228 30.1866 37.2408 30.3255 37.157C30.4806 37.0617 30.6348 36.9663 30.7881 36.871C30.9257 36.7839 31.0621 36.6948 31.1971 36.6037C31.3478 36.5014 31.4969 36.397 31.6447 36.2906C31.777 36.1962 31.9087 36.1008 32.0398 36.0047C32.1851 35.8929 32.3295 35.7799 32.4729 35.6657C32.6004 35.5642 32.7274 35.4633 32.8527 35.359C32.9955 35.2403 33.1324 35.1174 33.2709 34.9945C33.3924 34.8867 33.5146 34.7798 33.6333 34.6693C33.7697 34.5418 33.9027 34.4099 34.0357 34.279C34.1509 34.1652 34.2674 34.0532 34.3802 33.9365C34.4012 33.9149 34.421 33.8915 34.4428 33.8692C32.8837 33.0639 31.2411 32.4318 29.5444 31.9842C28.6619 34.7986 27.0915 37.3485 24.9755 39.4032C25.0335 39.3882 25.0914 39.3759 25.1493 39.3609C25.3022 39.318 25.4523 39.2708 25.6017 39.2265ZM40.0001 20.7313H31.4285C31.396 24.0781 30.9105 27.4051 29.9852 30.6216C31.8721 31.1256 33.6931 31.8503 35.4105 32.7805C38.2304 29.3819 39.8443 25.1446 40 20.7313H40.0001ZM20.7149 19.3016H29.9988C29.9624 16.0731 29.489 12.8645 28.5914 9.76311C26.0063 10.3527 23.3661 10.6675 20.7149 10.7025V19.3016ZM20.7149 0.0564766V9.27271C23.2142 9.23753 25.7033 8.94452 28.1425 8.39833C26.4552 3.68356 23.7738 0.491119 20.715 0.0564766H20.7149ZM20.7149 29.3303C23.3661 29.3656 26.0063 29.6805 28.5914 30.27C29.489 27.1686 29.9624 23.9598 29.9988 20.7313H20.7149V29.3303ZM35.4106 7.25239C33.6932 8.18263 31.8722 8.90727 29.9853 9.4113C30.9106 12.6278 31.3961 15.9548 31.4286 19.3016H40.0001C39.844 14.8883 38.23 10.6512 35.4106 7.25239ZM34.4448 6.16784C34.4238 6.14657 34.404 6.12351 34.3833 6.10153C34.2703 5.98492 34.153 5.8725 34.0378 5.75911C33.9052 5.6282 33.7728 5.49594 33.636 5.36888C33.5177 5.25852 33.3952 5.15415 33.2737 5.04423C33.1352 4.92137 32.9966 4.79742 32.8541 4.67876C32.7305 4.57438 32.6039 4.47457 32.4782 4.3744C32.3346 4.25783 32.1889 4.14388 32.0412 4.0326C31.9119 3.93571 31.7813 3.84042 31.6496 3.74674C31.5007 3.63868 31.3501 3.53302 31.1979 3.42978C31.064 3.33988 30.9289 3.2518 30.7926 3.16555C30.6387 3.06603 30.4833 2.969 30.3263 2.87451C30.1883 2.7916 30.0494 2.71037 29.9095 2.63082C29.7502 2.53971 29.5896 2.45081 29.4278 2.36418C29.2847 2.2926 29.1419 2.21477 28.9988 2.14319C28.8344 2.06009 28.6686 1.9802 28.4986 1.90165C28.3544 1.83309 28.2092 1.76675 28.063 1.70265C27.8936 1.62759 27.7226 1.55994 27.5519 1.48837C27.4051 1.42797 27.2575 1.36932 27.1093 1.31242C26.9353 1.2465 26.7601 1.18344 26.584 1.12325C26.4352 1.07028 26.2858 1.01919 26.1358 0.969995C25.957 0.91209 25.7783 0.859368 25.5948 0.806289C25.4461 0.762682 25.2967 0.71836 25.1462 0.678505C25.0886 0.662868 25.03 0.650625 24.972 0.635613C27.088 2.69033 28.6583 5.24018 29.5409 8.05447C31.2397 7.60703 32.8842 6.97436 34.4448 6.16784ZM0 19.3016H8.57151C8.60402 15.9548 9.08942 12.6278 10.0145 9.4113C8.12754 8.90751 6.30662 8.18286 4.58948 7.25239C1.76971 10.651 0.155746 14.8883 0 19.3016ZM19.2851 39.9762V30.7602C16.7858 30.7954 14.2968 31.0884 11.8576 31.6346C13.5445 36.3493 16.2264 39.5418 19.2851 39.9764V39.9762ZM19.2851 20.7313H10.0013C10.0375 23.9599 10.5109 27.1686 11.4087 30.27C13.9937 29.6802 16.6339 29.3652 19.2851 29.3303V20.7313ZM19.2851 0.0564766C16.2264 0.491119 13.5445 3.68356 11.8576 8.39833C14.2967 8.94485 16.7858 9.23787 19.2851 9.27271V0.0564766ZM19.2851 10.7025C16.6339 10.6675 13.9938 10.3527 11.4087 9.76311C10.5109 12.8645 10.0375 16.0731 10.0013 19.3016H19.2851V10.7025ZM15.0224 0.634988C14.9645 0.649911 14.9065 0.662153 14.8486 0.677165C14.6972 0.717645 14.5478 0.762682 14.3969 0.806289C14.2175 0.858653 14.0395 0.911375 13.8594 0.968565C13.7075 1.0178 13.5582 1.07017 13.4088 1.12226C13.2339 1.18392 13.0587 1.2454 12.8855 1.31099C12.7361 1.36827 12.5888 1.4276 12.4408 1.48837C12.2708 1.55985 12.1005 1.63143 11.9326 1.70265C11.7853 1.76726 11.6397 1.8349 11.4938 1.90299C11.3285 1.98057 11.1644 2.06041 11.0013 2.14248C10.6953 2.29739 10.3932 2.45998 10.0954 2.63011C9.95342 2.70944 9.81286 2.79137 9.67384 2.87585C9.51853 2.96941 9.36492 3.06618 9.21203 3.1618C9.07442 3.24972 8.93797 3.33837 8.80295 3.42987C8.65234 3.53215 8.50316 3.6365 8.35544 3.7429C8.22296 3.83741 8.09112 3.93282 7.95993 4.02911C7.81365 4.13903 7.67398 4.25358 7.52672 4.36779C7.39974 4.4693 7.2716 4.57018 7.1473 4.67518C7.00424 4.79322 6.8685 4.91538 6.73053 5.03762C6.60838 5.14646 6.48515 5.25226 6.36577 5.36503C6.22994 5.49174 6.09769 5.62328 5.96508 5.75383C5.84981 5.86768 5.73257 5.98 5.61953 6.09697C5.59897 6.1186 5.57905 6.14237 5.55733 6.16435C7.1163 6.96997 8.75892 7.60218 10.4557 8.04965C11.338 5.23692 12.9076 2.68859 15.0224 0.634988ZM5.96195 34.2737C6.09492 34.4046 6.22726 34.5369 6.36371 34.6643C6.48238 34.7742 6.60453 34.8787 6.72633 34.9887C6.86493 35.1118 7.00352 35.2354 7.14596 35.3541C7.26954 35.4578 7.39554 35.5579 7.52189 35.6584C7.66496 35.7743 7.80775 35.8895 7.95922 36.0009C8.08807 36.0976 8.21898 36.1911 8.34981 36.2871C8.49921 36.3943 8.65005 36.5014 8.80223 36.6044C8.93619 36.6943 9.07129 36.7825 9.20747 36.8689C9.36207 36.9681 9.51639 37.0655 9.67384 37.1597C9.81172 37.2428 9.95094 37.3241 10.0906 37.4037C10.2498 37.4948 10.4104 37.5836 10.5723 37.6701C10.7151 37.7416 10.8582 37.8195 11.0013 37.891C11.1657 37.9741 11.3315 38.054 11.5015 38.1329C11.6446 38.2003 11.7898 38.2666 11.9371 38.3316C12.1064 38.4066 12.2771 38.4743 12.4482 38.5459C12.5954 38.6059 12.7421 38.6652 12.8908 38.7218C13.0642 38.7885 13.2402 38.8506 13.4161 38.9113C13.5648 38.9633 13.7135 39.0157 13.8642 39.0642C14.043 39.1221 14.2217 39.1752 14.4053 39.2279C14.554 39.2715 14.7034 39.3159 14.8535 39.356C14.9114 39.3717 14.9701 39.384 15.0281 39.3989C12.9121 37.344 11.3418 34.794 10.4591 31.9797C8.76232 32.4274 7.11973 33.0598 5.56082 33.8657C5.58182 33.8869 5.60174 33.91 5.62265 33.932C5.72989 34.0479 5.84534 34.1603 5.96195 34.2737ZM4.58948 32.7804C6.30676 31.8502 8.12764 31.1256 10.0145 30.6215C9.08942 27.405 8.60402 24.078 8.57151 20.7312H0C0.155967 25.1445 1.7699 29.3817 4.58948 32.7804Z" fill="#C32022"/>
  </g>
  <defs>
    <clipPath id="clip0_38_82">
      <rect width="40" height="40" fill="white"/>
    </clipPath>
  </defs>
</svg>