<svg xmlns="http://www.w3.org/2000/svg" width="50" height="50" viewBox="0 0 50 50" fill="none">
  <path d="M44.282 28.4872C43.1282 27.5641 41.6667 27 40.0769 27H9.92307C8.33333 27 6.87179 27.5641 5.71795 28.4872L10.6923 8.48718C10.8974 7.64102 11.6667 7.05128 12.5128 7.05128H37.4615C38.3333 7.05128 39.0769 7.64102 39.282 8.48718L44.282 28.4872ZM40.0769 29.3077H9.92307C7.48718 29.3077 5.51282 31.2821 5.51282 33.7179V38.5385C5.51282 40.9744 7.48718 42.9487 9.92307 42.9487H40.0769C42.5128 42.9487 44.4872 40.9744 44.4872 38.5385V33.7179C44.4872 31.2821 42.5128 29.3077 40.0769 29.3077ZM32.5385 37.2564C32.5385 37.718 32.1795 38.0769 31.7179 38.0769H29.4615C29 38.0769 28.641 37.718 28.641 37.2564V35C28.641 34.5385 29 34.1795 29.4615 34.1795H31.7179C32.1795 34.1795 32.5385 34.5385 32.5385 35V37.2564ZM38.3846 37.2564C38.3846 37.718 38.0256 38.0769 37.5641 38.0769H35.3077C34.8461 38.0769 34.4872 37.718 34.4872 37.2564V35C34.4872 34.5385 34.8461 34.1795 35.3077 34.1795H37.5641C38.0256 34.1795 38.3846 34.5385 38.3846 35V37.2564Z" fill="#C32022"/>
</svg>