<svg xmlns="http://www.w3.org/2000/svg" width="40" height="40" viewBox="0 0 40 40" fill="none">
  <g clip-path="url(#clip0_38_73)">
    <path d="M9.48999 12.9778C9.64812 14.8695 10.0112 17.4606 10.8329 20.1813C12.5779 25.9591 15.6605 30.0675 20 32.4022C24.3394 30.0675 27.4221 25.9591 29.167 20.1813C29.9887 17.4609 30.3517 14.8696 30.51 12.9778L20 7.72281L9.48999 12.9778Z" fill="#C32022"/>
    <path d="M37.6448 9.3482C37.634 9.1412 37.5686 8.94077 37.455 8.76734C37.3415 8.59391 37.184 8.4537 36.9986 8.36102L20.524 0.123673C20.3613 0.042329 20.1819 -1.90735e-05 19.9999 -1.90735e-05C19.818 -1.90735e-05 19.6386 0.042329 19.4759 0.123673L3.00127 8.36102C2.81587 8.4537 2.65837 8.59391 2.54485 8.76734C2.43134 8.94077 2.36586 9.1412 2.3551 9.3482C2.3426 9.58805 2.07166 15.2988 4.01705 21.9291C5.16815 25.852 6.86127 29.2784 9.0494 32.113C11.8068 35.685 15.3509 38.3127 19.5831 39.9234C19.8516 40.0254 20.1482 40.0254 20.4167 39.9234C24.649 38.3128 28.1931 35.685 30.9505 32.113C33.1386 29.2784 34.8317 25.852 35.9828 21.9291C37.9282 15.2988 37.6573 9.58805 37.6448 9.3482ZM20.5193 34.7712C20.3578 34.8511 20.1801 34.8926 19.9999 34.8926C19.8198 34.8926 19.6421 34.8511 19.4806 34.7712C14.2624 32.1912 10.5981 27.5104 8.58932 20.859C7.58463 17.5322 7.2219 14.3973 7.09455 12.3534C7.08023 12.1238 7.13381 11.8951 7.24861 11.6958C7.3634 11.4964 7.53434 11.3353 7.7401 11.2324L19.476 5.36453C19.6387 5.28321 19.8181 5.24087 20 5.24087C20.1819 5.24087 20.3614 5.28321 20.5241 5.36453L32.26 11.2324C32.4658 11.3353 32.6367 11.4965 32.7515 11.6958C32.8663 11.8952 32.9199 12.1239 32.9056 12.3535C32.7781 14.3976 32.4154 17.5325 31.4107 20.859C29.4018 27.5103 25.7374 32.1911 20.5193 34.7712Z" fill="#C32022"/>
  </g>
  <defs>
    <clipPath id="clip0_38_73">
      <rect width="40" height="40" fill="white"/>
    </clipPath>
  </defs>
</svg>