<svg xmlns="http://www.w3.org/2000/svg" width="20" height="20" viewBox="0 0 20 20" fill="none">
  <path d="M18.3333 4.83326C17.7069 5.10501 17.0445 5.28465 16.3666 5.3666C17.0818 4.93936 17.6177 4.26725 17.875 3.47493C17.2029 3.87498 16.4673 4.15684 15.7 4.30826C15.1871 3.75207 14.5041 3.38184 13.7581 3.25564C13.0122 3.12944 12.2454 3.2544 11.5781 3.61092C10.9108 3.96745 10.3807 4.53537 10.071 5.22563C9.76125 5.91588 9.68937 6.68942 9.86662 7.42493C8.50781 7.3562 7.17866 7.00239 5.9655 6.38648C4.75235 5.77057 3.68233 4.90634 2.82496 3.84993C2.52424 4.37507 2.36623 4.96978 2.36663 5.57493C2.36556 6.13692 2.50347 6.69044 2.76809 7.18623C3.0327 7.68202 3.41581 8.10469 3.88329 8.4166C3.33994 8.40181 2.8082 8.25601 2.33329 7.9916V8.03326C2.33736 8.82067 2.61329 9.58251 3.11439 10.1899C3.61549 10.7973 4.31101 11.213 5.08329 11.3666C4.78601 11.4571 4.47735 11.5048 4.16663 11.5083C3.95153 11.5058 3.73698 11.4862 3.52496 11.4499C3.74488 12.1273 4.17048 12.7192 4.74252 13.1434C5.31456 13.5676 6.00461 13.8029 6.71663 13.8166C5.51429 14.7627 4.02986 15.279 2.49996 15.2833C2.22141 15.2842 1.94307 15.2675 1.66663 15.2333C3.22865 16.2418 5.04897 16.7772 6.90829 16.7749C8.19137 16.7883 9.46424 16.5458 10.6526 16.0617C11.8409 15.5775 12.9208 14.8615 13.8293 13.9553C14.7378 13.0492 15.4566 11.9711 15.9438 10.784C16.4309 9.59695 16.6767 8.3247 16.6666 7.0416V6.59993C17.3205 6.11227 17.8845 5.51445 18.3333 4.83326Z" fill="white"/>
</svg>