<svg width="20" height="20" viewBox="0 0 20 20" fill="none" xmlns="http://www.w3.org/2000/svg">
<g id="vuesax/bold/whatsapp">
<g id="whatsapp">
<path id="Vector" d="M18.3166 9.50829C18.0333 4.67496 13.6416 0.949968 8.58329 1.7833C5.09995 2.3583 2.30829 5.18328 1.76663 8.66662C1.44996 10.6833 1.86664 12.5916 2.77498 14.1666L2.0333 16.925C1.86663 17.55 2.44162 18.1166 3.05828 17.9416L5.77496 17.1916C7.00829 17.9166 8.44996 18.3333 9.99162 18.3333C14.6916 18.3333 18.5916 14.1916 18.3166 9.50829ZM14.0666 13.1C13.9916 13.25 13.8999 13.3916 13.7833 13.525C13.5749 13.75 13.3499 13.9166 13.0999 14.0166C12.8499 14.125 12.575 14.175 12.2833 14.175C11.8583 14.175 11.4 14.075 10.925 13.8666C10.4416 13.6583 9.96664 13.3833 9.49164 13.0416C9.00831 12.6916 8.5583 12.3 8.12496 11.875C7.69163 11.4416 7.30828 10.9833 6.95828 10.5083C6.61661 10.0333 6.34163 9.55828 6.14163 9.08328C5.94163 8.60828 5.84164 8.14996 5.84164 7.71663C5.84164 7.4333 5.89163 7.1583 5.99163 6.9083C6.09163 6.64996 6.24998 6.41663 6.47498 6.2083C6.74165 5.94163 7.0333 5.81663 7.34163 5.81663C7.4583 5.81663 7.57494 5.84163 7.68327 5.89163C7.79161 5.94163 7.89163 6.01663 7.96663 6.12496L8.93327 7.49161C9.00827 7.59995 9.06662 7.69162 9.09995 7.78329C9.14162 7.87495 9.15829 7.95828 9.15829 8.04162C9.15829 8.14162 9.12497 8.24163 9.06663 8.34163C9.0083 8.44163 8.93328 8.54162 8.83328 8.64162L8.51661 8.97495C8.46661 9.02495 8.44998 9.07496 8.44998 9.14162C8.44998 9.17496 8.45827 9.20829 8.46661 9.24162C8.48327 9.27495 8.49164 9.29996 8.49997 9.32496C8.57497 9.46663 8.70828 9.64161 8.89162 9.85828C9.08328 10.0749 9.28332 10.3 9.49998 10.5166C9.72498 10.7416 9.94164 10.9416 10.1666 11.1333C10.3833 11.3166 10.5666 11.4416 10.7083 11.5166C10.7333 11.525 10.7583 11.5416 10.7833 11.5499C10.8166 11.5666 10.85 11.5666 10.8916 11.5666C10.9666 11.5666 11.0167 11.5416 11.0667 11.4916L11.3833 11.175C11.4916 11.0666 11.5916 10.9916 11.6833 10.9416C11.7833 10.8833 11.875 10.8499 11.9833 10.8499C12.0666 10.8499 12.15 10.8666 12.2416 10.9083C12.3333 10.95 12.4333 11 12.5333 11.075L13.9166 12.0583C14.025 12.1333 14.0999 12.225 14.1499 12.325C14.1916 12.4333 14.2166 12.5333 14.2166 12.65C14.1666 12.7916 14.1333 12.95 14.0666 13.1Z" fill="white"/>
</g>
</g>
</svg>
