<svg xmlns="http://www.w3.org/2000/svg" width="20" height="20" viewBox="0 0 20 20" fill="none">
  <path d="M5.71429 17.5001H2.5V6.66675H5.71429V17.5001ZM17.5 17.5001H14.2857V11.7129C14.2857 10.2049 13.7543 9.45416 12.7011 9.45416C11.8664 9.45416 11.3371 9.8745 11.0714 10.7162V17.5001H7.85714C7.85714 17.5001 7.9 7.75008 7.85714 6.66675H10.3943L10.5904 8.83341H10.6568C11.3157 7.75008 12.3689 7.01558 13.8132 7.01558C14.9114 7.01558 15.7996 7.32433 16.4779 8.1C17.1604 8.87675 17.5 9.91891 17.5 11.3825V17.5001Z" fill="white"/>
  <path d="M4.16667 5.83333C5.08714 5.83333 5.83333 5.08714 5.83333 4.16667C5.83333 3.24619 5.08714 2.5 4.16667 2.5C3.24619 2.5 2.5 3.24619 2.5 4.16667C2.5 5.08714 3.24619 5.83333 4.16667 5.83333Z" fill="white"/>
</svg>