<?xml version="1.0" encoding="utf-8"?>
<!-- Generator: Adobe Illustrator 23.0.1, SVG Export Plug-In . SVG Version: 6.00 Build 0)  -->
<svg version="1.1" id="Layer_1" xmlns="http://www.w3.org/2000/svg" xmlns:xlink="http://www.w3.org/1999/xlink" x="0px" y="0px"
	 viewBox="0 0 270 110" style="enable-background:new 0 0 270 110;" xml:space="preserve">
<style type="text/css">
	.st0{fill:#859096;}
	.st1{fill:#FFF77D;}
	.st2{fill:#FFFFFF;}
	.st3{opacity:0.1;fill:#FFFFFF;}
	.st4{fill:#33B3BF;}
	.st5{fill-rule:evenodd;clip-rule:evenodd;fill:#FFFFFF;}
	.st6{fill-rule:evenodd;clip-rule:evenodd;fill:#007580;}
	.st7{fill:#231F20;}
	.st8{fill-rule:evenodd;clip-rule:evenodd;fill:#231F20;}
	.st9{fill:#C49958;}
	.st10{fill:none;stroke:#FFFFFF;stroke-width:0.9789;stroke-miterlimit:10;}
	.st11{opacity:0.3;}
	.st12{fill:none;stroke:#FFFFFF;stroke-width:1.0001;stroke-miterlimit:10;}
	.st13{fill:none;stroke:#FFF77D;stroke-width:1.0001;stroke-miterlimit:10;}
	.st14{fill:none;stroke:#FFF77D;stroke-width:0.5;stroke-miterlimit:10;}
	.st15{fill:#024A6C;}
	.st16{fill:#1C869D;}
	.st17{fill:#1B2D4C;}
	.st18{opacity:0.5;fill:#1B2D4C;}
	.st19{opacity:0.2;fill:#1B2D4C;}
	.st20{fill:url(#SVGID_1_);}
	.st21{fill:url(#SVGID_2_);}
	.st22{fill:url(#SVGID_3_);}
	.st23{opacity:0.7;fill:url(#SVGID_4_);}
	.st24{opacity:0.5;fill:#FFFFFF;}
	.st25{opacity:0.5;}
	.st26{fill:none;stroke:#FFFFFF;stroke-width:1.0014;stroke-miterlimit:10;}
	.st27{fill:none;stroke:#FFF77D;stroke-width:1.0014;stroke-miterlimit:10;}
	.st28{opacity:0.15;}
	.st29{clip-path:url(#SVGID_6_);}
	.st30{fill:none;stroke:#FFFFFF;stroke-width:0.9738;stroke-miterlimit:10;}
	.st31{opacity:0.05;fill:#FFFFFF;}
	.st32{fill:none;stroke:#FFFFFF;stroke-width:0.5;stroke-miterlimit:10;}
	.st33{fill:none;stroke:#FFFFFF;stroke-width:2;stroke-miterlimit:10;}
	.st34{fill-rule:evenodd;clip-rule:evenodd;fill:#1C869D;}
	.st35{fill:#C1272D;}
	.st36{fill:#0B698E;}
	.st37{opacity:0.1;}
	.st38{clip-path:url(#SVGID_8_);}
	.st39{fill:none;stroke:#FFFFFF;stroke-width:1.0005;stroke-miterlimit:10;stroke-opacity:0.3;}
	.st40{opacity:0.3;fill:#FFFFFF;}
</style>
<g>
	<g>
		<path class="st2" d="M20.53,43.63c0-0.81-0.66-1.46-1.46-1.46H0.56v2.92h18.5C19.87,45.09,20.53,44.44,20.53,43.63z"/>
		<path class="st2" d="M30.98,45.09h23.77c0.81,0,1.46-0.65,1.46-1.46c0-0.81-0.66-1.46-1.46-1.46H30.98
			c-0.81,0-1.46,0.65-1.46,1.46C29.51,44.44,30.17,45.09,30.98,45.09z"/>
		<path class="st2" d="M158.88,43.63c0,0.81,0.66,1.46,1.46,1.46h54.52c0.81,0,1.46-0.65,1.46-1.46c0-0.81-0.66-1.46-1.46-1.46
			h-54.52C159.54,42.17,158.88,42.83,158.88,43.63z"/>
		<path class="st2" d="M153.18,42.17h-2.56c-0.81,0-1.46,0.65-1.46,1.46c0,0.81,0.66,1.46,1.46,1.46h2.56
			c0.81,0,1.46-0.65,1.46-1.46C154.64,42.83,153.99,42.17,153.18,42.17z"/>
		<path class="st2" d="M116.81,45.09h24.78c0.81,0,1.46-0.65,1.46-1.46c0-0.81-0.66-1.46-1.46-1.46h-24.78
			c-0.81,0-1.46,0.65-1.46,1.46C115.35,44.44,116,45.09,116.81,45.09z"/>
		<path class="st2" d="M68.27,45.09h36.6c0.81,0,1.46-0.65,1.46-1.46c0-0.81-0.66-1.46-1.46-1.46h-36.6c-0.81,0-1.46,0.65-1.46,1.46
			C66.8,44.44,67.46,45.09,68.27,45.09z"/>
		<path class="st2" d="M238.91,42.17h-10.2c-0.81,0-1.46,0.65-1.46,1.46c0,0.81,0.66,1.46,1.46,1.46h10.2
			c0.81,0,1.46-0.65,1.46-1.46C240.37,42.83,239.72,42.17,238.91,42.17z"/>
		<path class="st2" d="M242.16,43.63c0,0.81,0.66,1.46,1.46,1.46h25.7v-2.92h-25.7C242.81,42.17,242.16,42.83,242.16,43.63z"/>
		<path class="st2" d="M26.01,35.7H0.56v3.42h25.45c0.95,0,1.72-0.77,1.72-1.71C27.73,36.46,26.96,35.7,26.01,35.7z"/>
		<path class="st2" d="M26.01,72.24H0.56v3.42h25.45c0.95,0,1.72-0.77,1.72-1.71C27.73,73.01,26.96,72.24,26.01,72.24z"/>
		<path class="st2" d="M31.23,39.12h40.95c0.95,0,1.72-0.77,1.72-1.71c0-0.94-0.77-1.71-1.72-1.71H31.23
			c-0.95,0-1.72,0.77-1.72,1.71C29.51,38.35,30.28,39.12,31.23,39.12z"/>
		<path class="st2" d="M99.13,39.12c0.95,0,1.72-0.77,1.72-1.71c0-0.94-0.77-1.71-1.72-1.71H91.4c-0.95,0-1.72,0.77-1.72,1.71
			c0,0.94,0.77,1.71,1.72,1.71H99.13z"/>
		<path class="st2" d="M186.75,39.12c0.95,0,1.72-0.77,1.72-1.71c0-0.94-0.77-1.71-1.72-1.71h-18.77c-0.95,0-1.72,0.77-1.72,1.71
			c0,0.94,0.77,1.71,1.72,1.71H186.75z"/>
		<path class="st2" d="M152.93,35.7h-35.86c-0.95,0-1.72,0.77-1.72,1.71c0,0.94,0.77,1.71,1.72,1.71h35.86
			c0.95,0,1.72-0.77,1.72-1.71C154.64,36.46,153.87,35.7,152.93,35.7z"/>
		<path class="st2" d="M238.66,35.7h-31.52c-0.95,0-1.72,0.77-1.72,1.71c0,0.94,0.77,1.71,1.72,1.71h31.52
			c0.95,0,1.72-0.77,1.72-1.71C240.37,36.46,239.6,35.7,238.66,35.7z"/>
		<path class="st2" d="M251.82,37.41c0,0.94,0.77,1.71,1.72,1.71h15.78V35.7h-15.78C252.59,35.7,251.82,36.46,251.82,37.41z"/>
		<path class="st2" d="M121.2,32.45c0.7,0,1.27-0.57,1.27-1.27c0-0.7-0.57-1.27-1.27-1.27h-4.58c-0.7,0-1.27,0.57-1.27,1.27
			c0,0.7,0.57,1.27,1.27,1.27H121.2z"/>
		<path class="st2" d="M244.57,31.19c0,0.7,0.57,1.27,1.27,1.27h23.48v-2.53h-23.48C245.14,29.92,244.57,30.49,244.57,31.19z"/>
		<path class="st2" d="M239.1,29.92h-78.95c-0.7,0-1.27,0.57-1.27,1.27c0,0.7,0.57,1.27,1.27,1.27h78.95c0.7,0,1.27-0.57,1.27-1.27
			C240.37,30.49,239.8,29.92,239.1,29.92z"/>
		<path class="st2" d="M153.37,29.92h-23.4c-0.7,0-1.27,0.57-1.27,1.27c0,0.7,0.57,1.27,1.27,1.27h23.4c0.7,0,1.27-0.57,1.27-1.27
			C154.64,30.49,154.07,29.92,153.37,29.92z"/>
		<path class="st2" d="M47.41,31.19c0,0.7,0.57,1.27,1.27,1.27h61.13c0.7,0,1.27-0.57,1.27-1.27c0-0.7-0.57-1.27-1.27-1.27H48.68
			C47.98,29.92,47.41,30.49,47.41,31.19z"/>
		<path class="st2" d="M0.56,56.89h21.28c0.45,0,0.81-0.36,0.81-0.81c0-0.45-0.36-0.81-0.81-0.81H0.56V56.89z"/>
		<path class="st2" d="M26.92,61.5H0.56v1.62h26.36c0.45,0,0.81-0.36,0.81-0.81C27.73,61.86,27.37,61.5,26.92,61.5z"/>
		<path class="st2" d="M30.33,67.72c-0.45,0-0.81,0.36-0.81,0.81c0,0.45,0.36,0.81,0.81,0.81h40.76c0.45,0,0.81-0.36,0.81-0.81
			c0-0.45-0.36-0.81-0.81-0.81H30.33z"/>
		<path class="st2" d="M50.11,73.95H30.33c-0.45,0-0.81,0.36-0.81,0.81c0,0.45,0.36,0.81,0.81,0.81h19.78
			c0.45,0,0.81-0.36,0.81-0.81C50.92,74.31,50.56,73.95,50.11,73.95z"/>
		<path class="st2" d="M13.2,68.53c0-0.45-0.36-0.81-0.81-0.81H0.56v1.62h11.83C12.84,69.34,13.2,68.98,13.2,68.53z"/>
		<path class="st2" d="M30.33,56.89h10.05c0.45,0,0.81-0.36,0.81-0.81c0-0.45-0.36-0.81-0.81-0.81H30.33
			c-0.45,0-0.81,0.36-0.81,0.81C29.51,56.53,29.88,56.89,30.33,56.89z"/>
		<path class="st2" d="M246.92,56.08c0,0.45,0.36,0.81,0.81,0.81h5.97c0.45,0,0.81-0.36,0.81-0.81c0-0.45-0.36-0.81-0.81-0.81h-5.97
			C247.29,55.27,246.92,55.64,246.92,56.08z"/>
		<path class="st2" d="M26.92,49.05H12.68c-0.45,0-0.81,0.36-0.81,0.81c0,0.45,0.36,0.81,0.81,0.81h14.24
			c0.45,0,0.81-0.36,0.81-0.81C27.73,49.41,27.37,49.05,26.92,49.05z"/>
		<path class="st2" d="M0.56,50.67h5.51c0.45,0,0.81-0.36,0.81-0.81c0-0.45-0.36-0.81-0.81-0.81H0.56V50.67z"/>
		<path class="st2" d="M0.56,32.45h10.67c0.7,0,1.27-0.57,1.27-1.27c0-0.7-0.57-1.27-1.27-1.27H0.56V32.45z"/>
		<path class="st2" d="M37.35,32.45c0.7,0,1.27-0.57,1.27-1.27c0-0.7-0.57-1.27-1.27-1.27h-6.57c-0.7,0-1.27,0.57-1.27,1.27
			c0,0.7,0.57,1.27,1.27,1.27H37.35z"/>
		<path class="st2" d="M22.65,24.96c0-0.45-0.36-0.81-0.81-0.81H0.56v1.62h21.28C22.29,25.77,22.65,25.41,22.65,24.96z"/>
		<path class="st2" d="M56.67,24.15H30.32c-0.45,0-0.81,0.36-0.81,0.81c0,0.45,0.36,0.81,0.81,0.81h26.35
			c0.45,0,0.81-0.36,0.81-0.81C57.49,24.51,57.12,24.15,56.67,24.15z"/>
		<path class="st2" d="M170.16,25.77c0.45,0,0.81-0.36,0.81-0.81c0-0.45-0.36-0.81-0.81-0.81h-6.08c-0.45,0-0.81,0.36-0.81,0.81
			c0,0.45,0.36,0.81,0.81,0.81H170.16z"/>
		<path class="st2" d="M101.92,25.77c0.45,0,0.81-0.36,0.81-0.81c0-0.45-0.36-0.81-0.81-0.81c0,0,0,0,0,0H68c0,0,0,0,0,0
			c-0.45,0-0.81,0.36-0.81,0.81c0,0.45,0.36,0.81,0.81,0.81H101.92z"/>
		<path class="st2" d="M153.83,24.15L153.83,24.15l-37.67,0c0,0,0,0,0,0c-0.45,0-0.81,0.36-0.81,0.81c0,0.45,0.36,0.81,0.81,0.81
			h37.67c0.45,0,0.81-0.36,0.81-0.81C154.64,24.51,154.28,24.15,153.83,24.15z"/>
		<path class="st2" d="M239.56,24.15h-61.82c-0.45,0-0.81,0.36-0.81,0.81c0,0.45,0.36,0.81,0.81,0.81h61.82
			c0.45,0,0.81-0.36,0.81-0.81C240.37,24.51,240.01,24.15,239.56,24.15z"/>
		<path class="st2" d="M247.33,24.96c0,0.45,0.36,0.81,0.81,0.81h21.18v-1.62h-21.18C247.69,24.15,247.33,24.51,247.33,24.96z"/>
		<path class="st2" d="M167,49.05c-0.45,0-0.81,0.36-0.81,0.81c0,0.45,0.36,0.81,0.81,0.81h15.4c0.45,0,0.81-0.36,0.81-0.81
			c0-0.45-0.36-0.81-0.81-0.81H167z"/>
		<path class="st2" d="M191.97,49.05c-0.45,0-0.81,0.36-0.81,0.81c0,0.45,0.36,0.81,0.81,0.81h8.42c0.45,0,0.81-0.36,0.81-0.81
			c0-0.45-0.36-0.81-0.81-0.81H191.97z"/>
		<path class="st2" d="M239.56,49.05h-31.8c-0.45,0-0.81,0.36-0.81,0.81c0,0.45,0.36,0.81,0.81,0.81h31.8
			c0.45,0,0.81-0.36,0.81-0.81C240.37,49.41,240.01,49.05,239.56,49.05z"/>
		<path class="st2" d="M269.32,49.05h-19.83c-0.45,0-0.81,0.36-0.81,0.81c0,0.45,0.36,0.81,0.81,0.81h19.83V49.05z"/>
		<path class="st2" d="M259.2,56.08c0,0.45,0.36,0.81,0.81,0.81h9.3v-1.62h-9.3C259.57,55.27,259.2,55.64,259.2,56.08z"/>
		<path class="st2" d="M269.32,61.5h-26.36c-0.45,0-0.81,0.36-0.81,0.81c0,0.45,0.36,0.81,0.81,0.81h26.36V61.5z"/>
		<path class="st2" d="M239.56,61.5h-22.07c-0.45,0-0.81,0.36-0.81,0.81c0,0.45,0.36,0.81,0.81,0.81h22.07
			c0.45,0,0.81-0.36,0.81-0.81C240.37,61.86,240.01,61.5,239.56,61.5z"/>
		<path class="st2" d="M269.32,67.72h-17.1c0,0,0,0,0,0c-0.45,0-0.81,0.36-0.81,0.81c0,0.45,0.36,0.81,0.81,0.81c0,0,0,0,0,0v0h17.1
			V67.72z"/>
		<path class="st2" d="M239.56,67.72h-43.33c-0.45,0-0.81,0.36-0.81,0.81c0,0.45,0.36,0.81,0.81,0.81h43.33
			c0.45,0,0.81-0.36,0.81-0.81C240.37,68.09,240.01,67.72,239.56,67.72z"/>
		<path class="st2" d="M255.98,73.95h-13.01c-0.45,0-0.81,0.36-0.81,0.81c0,0.45,0.36,0.81,0.81,0.81h13.01
			c0.45,0,0.81-0.36,0.81-0.81C256.79,74.31,256.43,73.95,255.98,73.95z"/>
		<path class="st2" d="M262.34,74.76c0,0.45,0.36,0.81,0.81,0.81h6.18v-1.62h-6.18C262.7,73.95,262.34,74.31,262.34,74.76z"/>
		<path class="st2" d="M239.56,55.27H161.2c-0.45,0-0.81,0.36-0.81,0.81c0,0.45,0.36,0.81,0.81,0.81h78.36
			c0.45,0,0.81-0.36,0.81-0.81C240.37,55.64,240.01,55.27,239.56,55.27z"/>
		<path class="st2" d="M202.46,63.12c0.45,0,0.81-0.36,0.81-0.81c0-0.45-0.36-0.81-0.81-0.81h-24.65c-0.45,0-0.81,0.36-0.81,0.81
			c0,0.45,0.36,0.81,0.81,0.81H202.46z"/>
		<path class="st2" d="M163.07,67.72c-0.45,0-0.81,0.36-0.81,0.81c0,0.45,0.36,0.81,0.81,0.81c0,0,0,0,0,0h19.77c0,0,0,0,0,0
			c0.45,0,0.81-0.36,0.81-0.81c0-0.45-0.36-0.81-0.81-0.81c0,0,0,0,0,0L163.07,67.72C163.07,67.72,163.07,67.72,163.07,67.72z"/>
		<path class="st2" d="M239.56,73.95h-82.33c-0.45,0-0.81,0.36-0.81,0.81c0,0.45,0.36,0.81,0.81,0.81h82.33
			c0.45,0,0.81-0.36,0.81-0.81C240.37,74.31,240.01,73.95,239.56,73.95z"/>
		<path class="st2" d="M153.83,67.72C153.83,67.72,153.83,67.72,153.83,67.72l-22.79,0c0,0,0,0,0,0c-0.45,0-0.81,0.36-0.81,0.81
			c0,0.45,0.36,0.81,0.81,0.81c0,0,0,0,0,0h22.79c0,0,0,0,0,0c0.45,0,0.81-0.36,0.81-0.81C154.64,68.09,154.28,67.72,153.83,67.72z"
			/>
		<path class="st2" d="M116.16,69.34h5.63c0.45,0,0.81-0.36,0.81-0.81c0-0.45-0.36-0.81-0.81-0.81c0,0,0,0,0,0h-5.63c0,0,0,0,0,0
			c-0.45,0-0.81,0.36-0.81,0.81C115.35,68.98,115.71,69.34,116.16,69.34z"/>
		<path class="st2" d="M153.83,61.5h-37.67c-0.45,0-0.81,0.36-0.81,0.81c0,0.45,0.36,0.81,0.81,0.81h37.67
			c0.45,0,0.81-0.36,0.81-0.81C154.64,61.86,154.28,61.5,153.83,61.5z"/>
		<path class="st2" d="M153.83,49.05h-37.67c-0.45,0-0.81,0.36-0.81,0.81c0,0.45,0.36,0.81,0.81,0.81h37.67
			c0.45,0,0.81-0.36,0.81-0.81C154.64,49.41,154.28,49.05,153.83,49.05z"/>
		<path class="st2" d="M153.83,73.95h-37.67c-0.45,0-0.81,0.36-0.81,0.81c0,0.45,0.36,0.81,0.81,0.81c0,0,0,0,0,0h37.67c0,0,0,0,0,0
			c0.45,0,0.81-0.36,0.81-0.81C154.64,74.31,154.28,73.95,153.83,73.95z"/>
		<path class="st2" d="M83.86,69.34h22.52c0.45,0,0.81-0.36,0.81-0.81c0-0.45-0.36-0.81-0.81-0.81c0,0,0,0,0,0H83.86
			c-0.45,0-0.81,0.36-0.81,0.81C83.05,68.98,83.41,69.34,83.86,69.34z"/>
		<path class="st2" d="M97.07,62.31c0-0.45-0.36-0.81-0.81-0.81H30.33c-0.45,0-0.81,0.36-0.81,0.81c0,0.45,0.36,0.81,0.81,0.81
			h65.93C96.71,63.12,97.07,62.75,97.07,62.31z"/>
		<path class="st2" d="M105.18,56.89L105.18,56.89c0.45,0,0.81-0.36,0.81-0.81c0-0.45-0.36-0.81-0.81-0.81c0,0,0,0,0,0H51.72
			c0,0,0,0,0,0c-0.45,0-0.81,0.36-0.81,0.81c0,0.45,0.36,0.81,0.81,0.81v0H105.18z"/>
		<path class="st2" d="M109.78,49.86c0-0.45-0.36-0.81-0.81-0.81h-9.49c-0.45,0-0.81,0.36-0.81,0.81c0,0.45,0.36,0.81,0.81,0.81
			h9.49C109.41,50.67,109.78,50.31,109.78,49.86z"/>
		<path class="st2" d="M29.51,49.86c0,0.45,0.36,0.81,0.81,0.81h57.81c0.45,0,0.81-0.36,0.81-0.81c0-0.45-0.36-0.81-0.81-0.81H30.33
			C29.88,49.05,29.51,49.41,29.51,49.86z"/>
		<path class="st2" d="M112.73,73.95H62.98c-0.45,0-0.81,0.36-0.81,0.81c0,0.45,0.36,0.81,0.81,0.81h49.75
			c0.45,0,0.81-0.36,0.81-0.81C113.55,74.31,113.18,73.95,112.73,73.95z"/>
		<path class="st2" d="M153.83,55.27h-15.02c-0.45,0-0.81,0.36-0.81,0.81c0,0.45,0.36,0.81,0.81,0.81h15.02
			c0.45,0,0.81-0.36,0.81-0.81C154.64,55.64,154.28,55.27,153.83,55.27z"/>
		<path class="st2" d="M116.16,56.89h13.57c0.45,0,0.81-0.36,0.81-0.81c0-0.45-0.36-0.81-0.81-0.81h-13.57
			c-0.45,0-0.81,0.36-0.81,0.81C115.35,56.53,115.71,56.89,116.16,56.89z"/>
		<path class="st2" d="M14.44,9.6c-0.06-0.11-0.21-0.11-0.27,0l-0.65,1.2h1.58L14.44,9.6z"/>
		<path class="st2" d="M115.8,10.8h38.03c0.9,0,1.62-0.72,1.62-1.62h-41.28C114.18,10.07,114.91,10.8,115.8,10.8z"/>
		<path class="st2" d="M137.14,3.67l-1.92-3.59c-0.06-0.11-0.21-0.11-0.27,0l-1.92,3.58l-1.53,0.49h7.16L137.14,3.67z"/>
		<path class="st2" d="M116.69,12.91c-0.66,0-1.19,0.53-1.19,1.19c0,0.66,0.53,1.19,1.19,1.19h36.85c0.66,0,1.19-0.53,1.19-1.19
			c0-0.66-0.53-1.19-1.19-1.19H116.69z"/>
		<path class="st2" d="M5.84,15.29h16.95c0.17,0,0.21-0.24,0.05-0.3l-6.36-2.08h-4.36l-6.33,2.08C5.63,15.05,5.67,15.29,5.84,15.29z
			"/>
		<path class="st2" d="M255.82,9.6c-0.06-0.11-0.21-0.11-0.27,0l-0.66,1.2h1.58L255.82,9.6z"/>
		<path class="st2" d="M268.5,15.29h1.4v-1.53c0-0.21-0.26-0.3-0.39-0.14l-1.13,1.42C268.3,15.14,268.37,15.29,268.5,15.29z"/>
		<path class="st2" d="M242.43,15.04l-1.13-1.42c-0.13-0.16-0.39-0.07-0.39,0.14v1.53h1.4C242.44,15.29,242.51,15.14,242.43,15.04z"
			/>
		<path class="st2" d="M154.06,7.92h1.4V6.39c0-0.21-0.26-0.3-0.39-0.14l-1.13,1.42C153.86,7.77,153.93,7.92,154.06,7.92z"/>
		<path class="st2" d="M115.7,7.67l-1.13-1.42c-0.13-0.16-0.39-0.07-0.39,0.14v1.53h1.4C115.71,7.92,115.78,7.77,115.7,7.67z"/>
		<path class="st2" d="M27.65,15.29h1.4v-1.53c0-0.21-0.26-0.3-0.39-0.14l-1.13,1.42C27.45,15.14,27.52,15.29,27.65,15.29z"/>
		<path class="st2" d="M1.52,15.04l-1.13-1.42C0.26,13.46,0,13.55,0,13.76v1.53h1.4C1.53,15.29,1.6,15.14,1.52,15.04z"/>
		<path class="st2" d="M247.2,15.29h16.95c0.17,0,0.21-0.24,0.05-0.3l-6.33-2.08h-4.36l-6.36,2.08
			C246.98,15.05,247.02,15.29,247.2,15.29z"/>
		<path class="st2" d="M120.79,7.92h28.58c0.17,0,0.21-0.24,0.05-0.3l-5.71-1.84h-17.27l-5.7,1.84
			C120.58,7.68,120.62,7.92,120.79,7.92z"/>
		<path class="st2" d="M269.69,17.23h-28.46c-0.25,0-0.4,0.28-0.25,0.49l0.47,0.64h-86.73c0-0.62-0.5-1.12-1.13-1.12h-36.98
			c-0.62,0-1.13,0.5-1.13,1.12l-86.96,0l0.47-0.64c0.15-0.2,0-0.49-0.25-0.49H0.31c-0.26,0-0.4,0.29-0.25,0.5l0.48,0.63v1.89h268.91
			v-1.89l0.48-0.64C270.09,17.52,269.95,17.23,269.69,17.23z"/>
	</g>
	<g>
		<polygon class="st2" points="9.61,91.93 9.56,91.93 2.89,83.64 0.88,83.64 0.88,95.56 2.93,95.56 2.93,87 2.96,87 9.87,95.56 
			11.63,95.56 11.63,83.64 9.61,83.64 		"/>
		<path class="st2" d="M29.47,89.24v-0.03c0.92-0.37,1.88-1.14,1.88-2.57c0-2.01-1.62-3-3.93-3h-4.73v11.92h4.97
			c2.67,0,4.36-1.28,4.36-3.34C32.01,90.59,30.85,89.62,29.47,89.24z M24.75,85.39h2.51c1.37,0,1.98,0.6,1.98,1.55
			c0,1.09-0.82,1.65-2.2,1.65h-2.29V85.39z M27.59,93.81h-2.84v-3.47h2.63c1.67,0,2.53,0.65,2.53,1.67
			C29.91,93.13,29.04,93.81,27.59,93.81z"/>
		<path class="st2" d="M48.06,90.57h2.56v2.64c-0.63,0.36-1.5,0.65-2.75,0.65c-2.36,0-3.98-1.75-3.98-4.26
			c0-2.44,1.69-4.26,3.93-4.26c1.5,0,2.31,0.48,3.11,1.24l1.38-1.46c-1.21-1.07-2.48-1.65-4.46-1.65c-3.71,0-6.12,2.74-6.12,6.13
			c0,3.46,2.34,6.13,6.12,6.13c1.93,0,3.3-0.48,4.78-1.35V88.8h-4.58V90.57z"/>
		<polygon class="st2" points="75.54,85.53 79.18,85.53 79.18,95.56 81.25,95.56 81.25,85.53 84.89,85.53 84.89,83.64 75.54,83.64 
					"/>
		<polygon class="st2" points="97.02,90.32 102.63,90.32 102.63,88.48 97.02,88.48 97.02,85.51 103.28,85.51 103.28,83.64 
			94.96,83.64 94.96,95.56 103.43,95.56 103.43,93.67 97.02,93.67 		"/>
		<path class="st2" d="M119.19,93.86c-2.24,0-3.96-1.79-3.96-4.26c0-2.49,1.71-4.26,4-4.26c1.23,0,2.03,0.46,2.72,1.18l1.57-1.24
			c-1.06-1.24-2.48-1.81-4.32-1.81c-3.66,0-6.12,2.71-6.12,6.13c0,3.47,2.48,6.13,6.12,6.13c1.9,0,3.43-0.75,4.53-2.11l-1.57-1.19
			C121.38,93.33,120.49,93.86,119.19,93.86z"/>
		<polygon class="st2" points="141.56,88.46 135.9,88.46 135.9,83.64 133.84,83.64 133.84,95.56 135.9,95.56 135.9,90.33 
			141.56,90.33 141.56,95.56 143.63,95.56 143.63,83.64 141.56,83.64 		"/>
		<polygon class="st2" points="163.57,91.93 163.52,91.93 156.86,83.64 154.84,83.64 154.84,95.56 156.89,95.56 156.89,87 
			156.92,87 163.83,95.56 165.59,95.56 165.59,83.64 163.57,83.64 		"/>
		<path class="st2" d="M182.37,83.47c-3.78,0-6.32,2.73-6.32,6.13c0,3.42,2.65,6.13,6.29,6.13c3.78,0,6.32-2.73,6.32-6.13
			C188.66,86.18,185.98,83.47,182.37,83.47z M182.37,93.84c-2.41,0-4.17-1.82-4.17-4.24c0-2.44,1.73-4.24,4.14-4.24
			c2.41,0,4.17,1.82,4.17,4.24C186.51,92.04,184.78,93.84,182.37,93.84z"/>
		<polygon class="st2" points="201.19,83.64 199.14,83.64 199.14,95.56 207,95.56 207,93.64 201.19,93.64 		"/>
		<path class="st2" d="M222.14,83.47c-3.78,0-6.32,2.73-6.32,6.13c0,3.42,2.65,6.13,6.29,6.13c3.78,0,6.32-2.73,6.32-6.13
			C228.43,86.18,225.75,83.47,222.14,83.47z M222.14,93.84c-2.41,0-4.17-1.82-4.17-4.24c0-2.44,1.73-4.24,4.14-4.24
			c2.41,0,4.17,1.82,4.17,4.24C226.28,92.04,224.55,93.84,222.14,93.84z"/>
		<path class="st2" d="M244.63,90.57h2.56v2.64c-0.63,0.36-1.5,0.65-2.75,0.65c-2.36,0-3.98-1.75-3.98-4.26
			c0-2.44,1.69-4.26,3.93-4.26c1.5,0,2.31,0.48,3.11,1.24l1.38-1.46c-1.21-1.07-2.48-1.65-4.46-1.65c-3.71,0-6.12,2.74-6.12,6.13
			c0,3.46,2.34,6.13,6.12,6.13c1.93,0,3.3-0.48,4.79-1.35V88.8h-4.58V90.57z"/>
		<polygon class="st2" points="263.82,88.58 263.79,88.58 260.73,83.64 258.25,83.64 262.75,90.62 262.75,95.56 264.81,95.56 
			264.81,90.62 269.32,83.64 266.92,83.64 		"/>
	</g>
	<g>
		<path class="st2" d="M243.03,102.01h1.78v3.03h3.21v-3.03h1.78v7.87h-1.78v-3.24h-3.21v3.24h-1.78V102.01z"/>
		<path class="st2" d="M260.04,106.77c0,1.88-1.26,3.23-3.38,3.23c-2.12,0-3.37-1.35-3.37-3.23v-4.76h1.77v4.74
			c0,0.98,0.68,1.63,1.61,1.63c0.93,0,1.61-0.65,1.61-1.63v-4.74h1.75V106.77z"/>
		<path class="st2" d="M268.34,105.71c0.91,0.22,1.66,0.89,1.66,1.97c0,1.37-1.15,2.2-2.93,2.2h-3.53v-7.87h3.43
			c1.46,0,2.6,0.57,2.6,2.02c0,0.89-0.62,1.42-1.22,1.65V105.71z M266.62,105.2c0.76,0,1.15-0.33,1.15-0.87
			c0-0.52-0.23-0.83-0.95-0.83h-1.51v1.7H266.62z M267.01,108.4c0.76,0,1.21-0.31,1.21-0.91c0-0.53-0.44-0.84-1.32-0.84h-1.58v1.75
			H267.01z"/>
	</g>
	<path class="st2" d="M238.35,102.79h-31.39c-0.45,0-0.81,0.36-0.81,0.81c0,0.45,0.36,0.81,0.81,0.81h31.39
		c0.45,0,0.81-0.36,0.81-0.81C239.16,103.15,238.79,102.79,238.35,102.79z"/>
	<path class="st2" d="M238.35,107.49h-9.24c-0.45,0-0.81,0.36-0.81,0.81c0,0.45,0.36,0.81,0.81,0.81h9.24
		c0.45,0,0.81-0.36,0.81-0.81C239.16,107.85,238.79,107.49,238.35,107.49z"/>
	<path class="st2" d="M218.77,108.3c0,0.45,0.36,0.81,0.81,0.81h4.09c0.45,0,0.81-0.36,0.81-0.81c0-0.45-0.36-0.81-0.81-0.81h-4.09
		C219.13,107.49,218.77,107.85,218.77,108.3z"/>
</g>
</svg>
