<?xml version="1.0" encoding="UTF-8" standalone="no"?>
<svg
   xmlns:dc="http://purl.org/dc/elements/1.1/"
   xmlns:cc="http://creativecommons.org/ns#"
   xmlns:rdf="http://www.w3.org/1999/02/22-rdf-syntax-ns#"
   xmlns:svg="http://www.w3.org/2000/svg"
   xmlns="http://www.w3.org/2000/svg"
   xmlns:sodipodi="http://sodipodi.sourceforge.net/DTD/sodipodi-0.dtd"
   xmlns:inkscape="http://www.inkscape.org/namespaces/inkscape"
   inkscape:version="1.0 (4035a4f, 2020-05-01)"
   sodipodi:docname="Marianne.svg"
   viewBox="0 0 89.17067 32.426666"
   height="32.426666"
   width="89.17067"
   xml:space="preserve"
   id="svg10"
   version="1.1"><metadata
     id="metadata16"><rdf:RDF><cc:Work
         rdf:about=""><dc:format>image/svg+xml</dc:format><dc:type
           rdf:resource="http://purl.org/dc/dcmitype/StillImage" /><dc:title></dc:title></cc:Work></rdf:RDF></metadata><defs
     id="defs14"><clipPath
       id="clipPath28"
       clipPathUnits="userSpaceOnUse"><path
         id="path26"
         d="M 0,24.32 H 66.878 V 0 H 0 Z" /></clipPath></defs><sodipodi:namedview
     inkscape:current-layer="g18"
     inkscape:window-maximized="0"
     inkscape:window-y="23"
     inkscape:window-x="0"
     inkscape:cy="16.213333"
     inkscape:cx="44.585335"
     inkscape:zoom="7.9622594"
     showgrid="false"
     id="namedview12"
     inkscape:window-height="723"
     inkscape:window-width="1366"
     inkscape:pageshadow="2"
     inkscape:pageopacity="0"
     guidetolerance="10"
     gridtolerance="10"
     objecttolerance="10"
     borderopacity="1"
     bordercolor="#666666"
     pagecolor="#ffffff" /><g
     transform="matrix(1.3333333,0,0,-1.3333333,0,32.426667)"
     inkscape:label="Marianne"
     inkscape:groupmode="layer"
     id="g18"><path
       id="path20"
       style="fill:#ffffff;fill-opacity:1;fill-rule:nonzero;stroke:none"
       d="M 0,0 H 66.878 V 24.32 H 0 Z" /><g
       id="g22"><g
         clip-path="url(#clipPath28)"
         id="g24"><g
           transform="translate(19.6167,6.8952)"
           id="g30"><path
             id="path32"
             style="fill:#000091;fill-opacity:1;fill-rule:nonzero;stroke:none"
             d="M 0,0 C -0.046,0.046 0.138,0 0.184,0.092 H -0.184 C -0.23,0.092 -0.23,0.138 -0.23,0.185 -0.46,0.138 -0.735,0.046 -0.965,0 -1.287,-0.092 -1.562,-0.322 -1.93,-0.414 c -0.507,-0.183 -0.919,-0.597 -1.471,-0.781 -0.046,0 -0.046,0.047 -0.046,0.092 0.046,0.138 0.23,0.184 0.322,0.322 0,0.046 0,0.093 -0.046,0.093 0.368,0.504 0.873,0.78 1.333,1.194 v 0.138 c 0.138,0.183 0.367,0.275 0.459,0.505 0.046,0.138 0.23,0.321 0.46,0.413 -0.046,0.047 -0.138,0.047 -0.138,0.138 -0.184,0 -0.368,-0.091 -0.552,0.046 0.086,0.086 0.185,0.133 0.289,0.164 -0.04,0.008 -0.075,0.027 -0.105,0.067 -0.046,0.091 0.089,0.194 0.23,0.229 0.184,0.046 0.414,0.046 0.552,0.185 -0.322,0.046 -0.69,-0.093 -1.012,0.091 0.23,0.597 0.598,1.102 1.15,1.378 0.045,0 0.137,0 0.137,-0.046 0,-0.23 -0.137,-0.413 -0.367,-0.459 C -0.368,3.264 0,3.264 0.368,3.079 0.322,2.987 0.23,3.033 0.184,3.033 0.414,2.896 0.689,2.987 0.919,2.804 0.781,2.666 0.643,2.804 0.505,2.804 1.93,2.391 3.447,2.068 4.642,1.149 3.631,0.644 2.574,0.414 1.471,0.185 c -0.138,0 -0.23,0 -0.368,0.045 0,-0.045 0,-0.138 -0.046,-0.138 C 0.873,0.092 0.735,0.092 0.598,0 0.414,-0.092 0.138,-0.138 0,0 m -0.941,-3.197 c -0.004,-0.002 -0.008,-0.005 -0.012,-0.008 -0.172,-0.121 -0.343,-0.245 -0.524,-0.35 -0.197,-0.114 -0.402,-0.201 -0.607,-0.298 -10e-4,0.004 -0.003,0.008 -0.005,0.012 -0.016,0.021 -0.048,0.035 -0.078,0.018 -0.174,-0.094 -0.322,-0.218 -0.463,-0.352 -0.021,-0.02 -0.042,-0.041 -0.063,-0.062 -0.002,-0.001 -0.003,-0.002 -0.004,-0.003 -0.002,-10e-4 -0.003,-0.003 -0.004,-0.004 -0.022,-0.022 -0.043,-0.043 -0.065,-0.065 -0.004,-0.003 -0.005,-0.005 -0.008,-0.008 -10e-4,-10e-4 -10e-4,-0.002 -0.003,-0.004 -0.032,-0.032 -0.064,-0.065 -0.1,-0.107 -0.023,-0.027 -0.03,-0.044 -0.061,-0.065 -0.029,-0.019 -0.107,-0.018 -0.1,0.035 v 0.009 c -0.027,-0.015 -0.054,-0.029 -0.081,-0.042 -0.027,-0.012 -0.049,-0.026 -0.072,-0.04 -0.01,0.005 -0.021,0.006 -0.032,0.005 -0.012,0 -0.023,-0.003 -0.033,-0.011 -0.057,-0.044 -0.112,-0.091 -0.166,-0.14 C -3.519,-4.764 -3.608,-4.859 -3.689,-4.96 -3.69,-4.962 -3.691,-4.963 -3.693,-4.965 L -3.702,-4.977 C -3.707,-4.983 -3.711,-4.989 -3.716,-4.995 -3.72,-5.001 -3.725,-5.008 -3.73,-5.014 -3.732,-5.016 -3.733,-5.018 -3.734,-5.02 -3.745,-5.035 -3.755,-5.05 -3.766,-5.066 l -0.003,-0.002 c -0.006,-0.009 -0.019,-0.015 -0.036,-0.018 -0.007,0.009 -0.013,0.018 -0.019,0.027 -0.004,0.007 -0.009,0.015 -0.013,0.022 -0.013,0.024 -0.027,0.049 -0.039,0.074 l -10e-4,0.003 c -0.004,0.007 -0.007,0.015 -0.011,0.023 0.05,0.053 0.097,0.108 0.144,0.165 0.003,0.004 0.007,0.007 0.01,0.011 0.015,0.02 0.031,0.039 0.046,0.059 0.027,0.033 0.053,0.066 0.078,0.098 0.01,0.013 0.019,0.025 0.027,0.037 0.052,0.066 0.1,0.13 0.145,0.194 0,0.002 0.001,0.003 0.002,0.005 0.008,0.009 0.015,0.019 0.02,0.029 0.022,0.032 0.045,0.065 0.063,0.099 0.019,0.03 0.036,0.06 0.052,0.091 0.001,0.003 0.002,0.005 0.003,0.007 0.002,0.003 0.004,0.007 0.005,0.01 0.002,0.005 0.005,0.011 0.007,0.017 0.016,0.034 0.031,0.07 0.044,0.107 0.002,0.004 0.003,0.008 0.004,0.012 0.004,0.01 0.007,0.02 0.01,0.03 0.006,0.016 0.011,0.034 0.015,0.051 10e-4,0.003 0.002,0.007 0.003,0.011 0.005,0.022 0.011,0.044 0.016,0.067 0.002,0.013 -10e-4,0.022 -0.006,0.031 0.05,0.087 0.112,0.17 0.182,0.248 -0.007,-0.004 -0.014,-0.007 -0.021,-0.012 -0.066,-0.042 -0.109,-0.101 -0.17,-0.147 -0.05,-0.037 -0.144,0.025 -0.084,0.069 0.041,0.03 0.072,0.063 0.105,0.095 0.001,0.002 0.002,0.005 0.005,0.007 0.076,0.075 0.148,0.17 0.234,0.233 0.053,0.039 0.099,0.071 0.142,0.108 0.007,0.006 0.013,0.012 0.02,0.019 0.032,0.042 0.067,0.08 0.103,0.116 0.002,10e-4 0.003,0.003 0.005,0.004 0.439,0.425 1.18,0.406 1.76,0.676 0.23,0.092 0.505,-0.046 0.735,0 0.138,0 0.276,0 0.414,-0.091 -0.413,-0.226 -0.795,-0.479 -1.171,-0.716 m 0.824,-0.379 c -0.022,-0.051 -0.068,-0.094 -0.114,-0.135 0.058,-0.011 0.098,-0.037 0.061,-0.071 -0.107,-0.098 -0.208,-0.196 -0.349,-0.243 -0.009,-0.003 -0.037,-0.007 -0.07,-0.009 -0.057,-0.055 -0.113,-0.109 -0.172,-0.161 -0.054,-0.048 -0.307,-0.013 -0.23,0.055 0.117,0.103 0.225,0.216 0.34,0.321 0.065,0.059 0.134,0.116 0.191,0.183 0.032,0.037 0.059,0.073 0.099,0.102 0.038,0.026 0.281,0.048 0.244,-0.042 M -2.252,3.31 C -2.298,3.217 -2.349,3.207 -2.39,3.125 -2.437,3.033 -2.482,2.987 -2.574,2.941 c -0.045,0 -0.093,0 -0.093,0.046 0.048,0.184 0.185,0.368 0.369,0.414 0.046,0 0.046,-0.046 0.046,-0.091 M -6.066,0.276 c 0,0 -0.046,0.046 -0.046,0.092 0.597,0.781 1.057,1.516 1.469,2.343 0.599,0.322 1.095,0.791 1.564,1.287 0.781,0.827 1.608,1.563 2.574,2.022 C -0.138,6.158 0.322,6.112 0.689,5.974 0.551,5.79 0.322,5.837 0.138,5.698 0.092,5.698 0.046,5.698 0,5.745 0.046,5.79 0.046,5.837 0.046,5.882 -0.414,5.377 -1.057,5.147 -1.425,4.55 -1.7,4.09 -1.884,3.493 -2.482,3.355 -2.667,3.31 -2.437,3.493 -2.528,3.447 -3.952,2.574 -4.963,1.518 -6.066,0.276 m 7.031,-1.011 c -0.092,0 -0.276,-0.046 -0.23,0.047 0.046,0.229 0.368,0.229 0.552,0.32 0.092,0.046 0.229,0.139 0.321,0.093 C 1.7,-0.414 1.838,-0.368 1.93,-0.459 1.654,-0.735 1.287,-0.597 0.965,-0.735 m 7.067,-3.292 c 0.261,0.261 0.525,0.541 0.787,0.822 H 8.813 c 0.488,0.553 0.967,1.08 1.533,1.564 0.172,0.155 0.34,0.291 0.5,0.4 0.046,0.046 0.046,0.138 0.091,0.184 -0.229,-0.091 -0.367,-0.276 -0.597,-0.368 -0.046,0 -0.092,0.046 -0.046,0.092 0.164,0.123 0.327,0.246 0.491,0.369 -0.01,-0.001 -0.021,-0.001 -0.031,-0.001 -0.046,0 -0.046,0.046 -0.046,0.092 C 10.11,-0.781 9.651,-1.195 9.237,-1.562 9.145,-1.607 9.053,-1.516 9.008,-1.516 8.318,-1.746 7.813,-2.344 7.123,-2.62 v 0.092 C 6.847,-2.62 6.58,-2.786 6.296,-2.849 5.882,-2.94 5.515,-2.895 5.147,-2.895 4.59,-2.951 4.033,-3.074 3.476,-3.193 L 3.428,-3.205 C 3.129,-3.286 2.847,-3.398 2.572,-3.549 2.561,-3.556 2.55,-3.562 2.54,-3.568 2.517,-3.596 2.495,-3.624 2.474,-3.647 2.375,-3.756 2.29,-3.855 2.159,-3.922 1.876,-4.066 1.646,-4.316 1.396,-4.519 1.379,-4.534 1.351,-4.541 1.323,-4.543 1.076,-4.779 0.833,-5.019 0.583,-5.251 0.565,-5.268 0.494,-5.277 0.442,-5.268 c 0.002,10e-4 0.003,0.002 0.004,0.004 0.009,0.015 0.018,0.029 0.027,0.044 0.039,0.065 0.078,0.129 0.118,0.194 0.044,0.072 0.09,0.143 0.136,0.213 0.063,0.095 0.127,0.189 0.195,0.28 0.018,0.024 0.014,0.045 -0.001,0.06 -0.015,0.016 -0.039,0.025 -0.064,0.024 0.23,0.223 0.502,0.412 0.772,0.576 v 0.008 c -0.031,-0.011 -0.076,0.014 -0.052,0.046 0.029,0.041 0.052,0.084 0.079,0.125 0.005,0.014 0.01,0.027 0.015,0.041 C 1.659,-3.641 1.647,-3.629 1.636,-3.616 1.562,-3.665 1.483,-3.711 1.42,-3.768 1.31,-3.866 1.224,-4.069 1.057,-4.067 c -0.011,0 -0.043,0.002 -0.07,0.01 -0.02,0.003 -0.037,0.009 -0.048,0.016 0.002,0.004 0.004,0.007 0.006,0.011 l 0.007,0.013 c 0.002,0.003 0.004,0.007 0.006,0.011 0.008,0.013 0.015,0.027 0.022,0.04 0.008,0.013 0.015,0.026 0.022,0.039 0.006,0.011 0.012,0.022 0.018,0.032 0.011,0.02 0.021,0.039 0.032,0.059 0.008,0.014 0.017,0.027 0.024,0.041 0.02,0.034 0.04,0.068 0.06,0.101 0.009,0.017 0.018,0.033 0.028,0.049 0.017,0.028 0.032,0.056 0.049,0.084 0.023,0.038 -0.001,0.069 -0.035,0.082 0.086,0.11 0.19,0.203 0.315,0.274 H 1.48 c 0.175,0.089 0.351,0.196 0.527,0.295 0.026,0.022 0.05,0.044 0.076,0.066 -0.262,-0.088 -0.498,-0.207 -0.731,-0.361 0,0 -0.06,-0.025 -0.078,-0.042 0,0 -0.052,-0.019 -0.114,0.042 -0.006,0.009 -0.011,0.019 -0.011,0.034 0.046,0.092 0.184,0.138 0.276,0.231 0.046,0 0.091,0 0.091,-0.047 1.471,1.149 3.493,0.873 5.194,1.471 0.137,0.091 0.275,0.183 0.413,0.275 0.23,0.093 0.414,0.322 0.69,0.46 0.367,0.276 0.643,0.597 0.781,1.057 0,0.046 -0.046,0.092 -0.046,0.092 C 7.951,-0.275 7.261,-0.781 6.526,-1.148 5.561,-1.654 4.504,-1.562 3.493,-1.7 c 0.046,0.093 0.138,0.093 0.229,0.093 0,0.136 0.092,0.182 0.184,0.274 h 0.138 c 0.046,0 0.046,0.092 0.092,0.092 0.092,0 0.23,0.046 0.184,0.046 -0.138,0.184 -0.414,-0.138 -0.644,0 0.092,0.092 0.046,0.23 0.138,0.276 h 0.184 c 0,0.092 0.092,0.184 0.092,0.184 0.689,0.413 1.333,0.735 1.976,1.103 -0.138,0 -0.23,-0.138 -0.367,-0.046 0.091,0 0,0.138 0.091,0.138 0.506,0.138 0.92,0.413 1.425,0.597 -0.184,0 -0.322,-0.138 -0.505,0 0.092,0.047 0.137,0.138 0.275,0.138 v 0.138 c 0,0.046 0.046,0.046 0.092,0.046 -0.046,0 -0.092,0.046 -0.092,0.046 0.046,0.093 0.184,0.045 0.276,0.137 -0.046,0 -0.138,0 -0.138,0.047 0.138,0.183 0.368,0.229 0.598,0.275 -0.047,0.093 -0.184,0 -0.184,0.093 0,0.045 0.046,0.045 0.092,0.045 H 7.537 C 7.445,2.068 7.491,2.16 7.491,2.206 7.767,2.527 7.767,2.941 7.904,3.31 7.858,3.31 7.813,3.31 7.813,3.355 7.353,2.85 6.618,2.666 5.928,2.482 H 5.699 C 5.469,2.391 5.147,2.391 4.917,2.527 4.733,2.619 4.642,2.757 4.458,2.896 4.09,3.125 3.722,3.31 3.309,3.447 2.16,3.814 0.965,3.998 -0.23,3.952 c 0.506,0.277 1.063,0.299 1.609,0.46 0.781,0.229 1.516,0.505 2.343,0.459 -0.137,0.046 -0.321,0 -0.459,0 C 2.619,4.917 1.976,4.733 1.287,4.596 0.827,4.504 0.414,4.32 -0.046,4.229 -0.322,4.137 -0.46,3.86 -0.781,3.906 v 0.138 c 0.459,0.552 1.011,1.103 1.746,1.149 0.827,0.138 1.609,0 2.436,-0.092 C 3.998,5.055 4.55,4.917 5.147,4.78 c 0.23,0 0.276,-0.368 0.46,-0.414 0.275,-0.092 0.551,0 0.827,-0.183 0,0.091 -0.046,0.183 0,0.275 C 6.618,4.641 6.847,4.412 7.031,4.504 7.399,4.733 6.71,5.147 6.526,5.469 6.526,5.515 6.572,5.561 6.572,5.561 6.939,5.239 7.215,4.871 7.674,4.641 7.904,4.55 8.456,4.412 8.364,4.688 8.134,5.193 7.674,5.607 7.307,6.066 V 6.25 C 7.215,6.25 7.215,6.296 7.169,6.342 V 6.526 C 6.985,6.618 7.031,6.802 6.939,6.939 6.802,7.169 6.893,7.491 6.802,7.768 6.71,8.042 6.664,8.272 6.618,8.548 6.48,9.33 6.296,10.019 6.204,10.754 c -0.092,0.873 0.506,1.562 0.919,2.345 0.322,0.55 0.69,1.102 1.287,1.469 0.138,0.553 0.506,1.012 0.873,1.472 0.367,0.447 0.977,0.72 1.419,0.918 0.642,0.288 1.221,0.466 1.221,0.466 h -31.54 V -6.895 H 2.719 c 0.875,0.629 1.749,0.929 2.97,1.53 0.577,0.285 1.896,0.891 2.343,1.338" /></g><g
           transform="translate(66.8799,24.32)"
           id="g34"><path
             id="path36"
             style="fill:#e1000f;fill-opacity:1;fill-rule:nonzero;stroke:none"
             d="m 0,0 h -26.161 c 0,0 0.049,-0.008 0.249,-0.115 0.212,-0.114 0.486,-0.261 0.658,-0.351 0.339,-0.177 0.666,-0.398 0.877,-0.736 0.093,-0.137 0.231,-0.413 0.139,-0.597 -0.092,-0.23 -0.139,-0.597 -0.368,-0.69 -0.277,-0.137 -0.643,-0.137 -0.965,-0.091 -0.185,0 -0.368,0.046 -0.552,0.091 0.689,-0.275 1.333,-0.597 1.793,-1.24 0.046,-0.092 0.228,-0.138 0.413,-0.138 0.046,0 0.046,-0.092 0.046,-0.138 -0.093,-0.092 -0.185,-0.138 -0.139,-0.276 h 0.139 c 0.229,0.092 0.184,0.552 0.506,0.414 0.229,-0.138 0.32,-0.46 0.183,-0.689 -0.183,-0.184 -0.368,-0.322 -0.551,-0.46 -0.046,-0.092 -0.046,-0.23 0,-0.322 0.137,-0.184 0.183,-0.367 0.229,-0.551 0.139,-0.322 0.185,-0.69 0.322,-1.011 0.185,-0.69 0.368,-1.379 0.322,-2.068 0,-0.368 -0.185,-0.689 -0.046,-1.057 0.092,-0.369 0.322,-0.644 0.506,-0.965 0.183,-0.277 0.367,-0.46 0.504,-0.737 0.277,-0.459 0.783,-0.919 0.552,-1.469 -0.137,-0.323 -0.643,-0.277 -0.965,-0.46 -0.275,-0.23 -0.045,-0.597 0.092,-0.827 0.23,-0.414 -0.275,-0.69 -0.597,-0.828 0.091,-0.137 0.276,-0.091 0.322,-0.183 0.046,-0.231 0.275,-0.368 0.138,-0.598 -0.184,-0.275 -0.737,-0.414 -0.46,-0.827 0.183,-0.321 0.065,-0.68 -0.046,-1.012 -0.137,-0.413 -0.505,-0.596 -0.827,-0.688 -0.277,-0.093 -0.597,-0.093 -0.874,-0.046 -0.091,0.046 -0.183,0.092 -0.276,0.092 -0.78,0.092 -1.561,0.321 -2.344,0.321 -0.228,-0.046 -0.459,-0.092 -0.642,-0.184 -0.208,-0.153 -0.393,-0.318 -0.557,-0.492 l -0.006,-0.006 c -0.034,-0.037 -0.066,-0.074 -0.099,-0.111 -0.021,-0.023 -0.04,-0.047 -0.06,-0.07 -0.013,-0.017 -0.025,-0.031 -0.039,-0.047 -0.134,-0.168 -0.255,-0.347 -0.361,-0.53 -0.007,-0.012 -0.015,-0.024 -0.021,-0.036 -0.013,-0.021 -0.023,-0.043 -0.036,-0.063 -0.15,-0.28 -0.265,-0.565 -0.348,-0.845 -0.311,-1.051 -0.174,-1.955 0.043,-2.174 0.063,-0.061 1.518,-0.51 2.532,-0.961 0.475,-0.211 0.808,-0.375 1.085,-0.549 l 25.69,0 z" /></g><g
           transform="translate(42.2744,15.4474)"
           id="g38"><path
             id="path40"
             style="fill:#9c9b9b;fill-opacity:1;fill-rule:nonzero;stroke:none"
             d="M 0,0 C 0.185,-0.046 0.459,-0.046 0.459,-0.138 0.368,-0.505 -0.184,-0.597 -0.46,-0.965 h -0.138 c -0.137,-0.092 -0.09,-0.322 -0.229,-0.322 -0.138,0.046 -0.276,0 -0.414,-0.046 0.184,-0.183 0.414,-0.322 0.689,-0.275 0.047,0 0.138,-0.092 0.138,-0.184 0,0 0.046,0 0.092,0.046 0.046,0 0.093,0 0.093,-0.046 v -0.184 c -0.139,-0.184 -0.369,-0.092 -0.553,-0.138 0.368,-0.092 0.736,-0.092 1.057,0 0.276,0.092 0,0.552 0.184,0.781 -0.091,0 0,0.138 -0.091,0.138 0.091,0.092 0.183,0.23 0.276,0.276 0.091,0 0.229,0.046 0.275,0.138 0,0.092 -0.184,0.138 -0.138,0.23 0.276,0.183 0.506,0.459 0.414,0.735 -0.046,0.138 -0.414,0.138 -0.644,0.23 -0.229,0.091 -0.505,0 -0.78,-0.046 -0.231,0 -0.459,-0.138 -0.69,-0.184 -0.322,-0.092 -0.598,-0.276 -0.874,-0.46 0.322,0.138 0.644,0.184 1.011,0.276 0.277,0 0.511,0.068 0.782,0" /></g></g></g></g></svg>
