<svg width="24.000000000000004" height="24.000000000000004" xmlns="http://www.w3.org/2000/svg" fill="none">

 <g>
  <title>Layer 1</title>
  <path id="svg_1" fill="currentColor" d="m7.39241,6c-0.82843,0 -1.5,0.67157 -1.5,1.5l0,9c0,0.8284 0.67157,1.5 1.5,1.5c0.82843,0 1.5,-0.6716 1.5,-1.5l0,-9c0,-0.82843 -0.67157,-1.5 -1.5,-1.5z"/>
  <path id="svg_2" fill="currentColor" d="m3.74051,8.49367c-0.82843,0 -1.5,0.67157 -1.5,1.5l0,3c0,0.8284 0.67157,1.5 1.5,1.5c0.82843,0 1.5,-0.6716 1.5,-1.5l0,-3c0,-0.82843 -0.67157,-1.5 -1.5,-1.5z"/>
  <path id="svg_3" fill="currentColor" d="m11.52532,4c-0.82843,0 -1.5,0.67157 -1.5,1.5l0,13c0,0.8284 0.67157,1.5 1.5,1.5c0.8284,0 1.5,-0.6716 1.5,-1.5l0,-13c0,-0.82843 -0.6716,-1.5 -1.5,-1.5z"/>
  <path id="svg_4" fill="currentColor" d="m14.39241,8.5c0,-0.82843 0.6716,-1.5 1.5,-1.5c0.8284,0 1.5,0.67157 1.5,1.5l0,7c0,0.8284 -0.6716,1.5 -1.5,1.5c-0.8284,0 -1.5,-0.6716 -1.5,-1.5l0,-7z"/>
  <path id="svg_6" fill="currentColor" d="m20.25949,9c-0.8284,0 -1.5,0.67157 -1.5,1.5l0,3c0,0.8284 0.6716,1.5 1.5,1.5c0.8284,0 1.5,-0.6716 1.5,-1.5l0,-3c0,-0.82843 -0.6716,-1.5 -1.5,-1.5z"/>
 </g>
</svg>