<svg xmlns="http://www.w3.org/2000/svg" viewBox="0 0 24 24" width="24" height="24"><path d="M9 15.998A3 3 0 0 1 11.83 18H22v2H11.83a3.001 3.001 0 0 1-5.66 0H2v-2h4.17A3.001 3.001 0 0 1 9 15.998ZM9 18a1 1 0 1 0 0 2 1 1 0 0 0 0-2Zm6-9.002A3 3 0 0 1 17.83 11H22v2h-4.17a3.001 3.001 0 0 1-5.66 0H2v-2h10.17A3.001 3.001 0 0 1 15 8.998ZM15 11a1 1 0 1 0 0 2 1 1 0 0 0 0-2ZM9 1.998A3 3 0 0 1 11.83 4H22v2H11.83a3.001 3.001 0 0 1-5.66 0H2V4h4.17A3.001 3.001 0 0 1 9 1.998ZM9 4a1 1 0 1 0 0 2 1 1 0 0 0 0-2Z"/></svg>