<svg xmlns="http://www.w3.org/2000/svg" viewBox="0 0 24 24" width="24" height="24"><path d="M6.907 15.333h-3.24a.833.833 0 0 1-.834-.833v-5c0-.46.373-.833.834-.833h3.24l4.412-3.61a.417.417 0 0 1 .681.322v13.242a.417.417 0 0 1-.68.322l-4.412-3.61ZM17.93 5.01A9.147 9.147 0 0 1 21.167 12a9.144 9.144 0 0 1-2.995 6.778l-1.18-1.18A7.482 7.482 0 0 0 19.5 12a7.485 7.485 0 0 0-2.753-5.807L17.93 5.01Zm-2.964 2.964A4.993 4.993 0 0 1 17 12a4.99 4.99 0 0 1-1.78 3.826l-1.186-1.185c.82-.63 1.3-1.607 1.3-2.641a3.329 3.329 0 0 0-1.567-2.827l1.199-1.199Z"/></svg>