<svg xmlns="http://www.w3.org/2000/svg" viewBox="0 0 24 24" width="24" height="24"><path d="M22 17h.001v.642c-.013 3.156-.202 3.346-3.359 3.357l-.641.001c-4 0-5-3-5-6 0-.378-.018-.918-.026-1.55l2.023 1.169L15 15c0 2.776.816 4 3 4l.608-.001c.715-.003 1.073-.012 1.355-.037.024-.28.033-.638.036-1.354L20 17c0-3.205-.703-6.033-1.835-7.9-.838-1.382-1.613-1.843-2.032-1.703-.293.098-.605.65-.831 1.623l-1.79-1.033c.369-1.197.982-2.151 1.988-2.487 3-1 6.503 4 6.5 11.5ZM8.5 5.5c1.007.336 1.62 1.29 1.989 2.487L8.699 9.02c-.226-.973-.539-1.525-.831-1.623-.42-.14-1.195.32-2.032 1.702C4.703 10.967 4 13.795 4 17l.001.608c.003.715.012 1.072.037 1.354.28.025.638.034 1.354.037L6 19c2.184 0 3-1.224 3-4l.004-.382 2.023-1.168c-.01.633-.027 1.172-.027 1.55 0 3-1 6-5 6h-.642c-3.156-.012-3.346-.202-3.357-3.358L2 17C2 9.5 5.5 4.5 8.5 5.5ZM13 2v7.422l4.696 2.712-1 1.732L12 11.155l-4.696 2.711-1-1.732L11 9.422V2h2Z"/></svg>