<svg xmlns="http://www.w3.org/2000/svg" viewBox="0 0 24 24" width="24" height="24"><path d="M20.818 16.796a.72.72 0 0 0-.888-.366l-.09.032-.085-.058a.689.689 0 0 0-.06-.95l-.051-.048a.706.706 0 0 0 .28-.52l.02-.365a.696.696 0 0 0-.166-.483l-.27-.316a.694.694 0 0 0 .016-.801l-.229-.335-.097-.12-.076-.255a.709.709 0 0 0-.512-.483l.7-.884a.726.726 0 0 0 .242-.13l.408-.333a.69.69 0 0 0 .256-.55l-.018-1.044.223-.63a.693.693 0 0 0 .034-.16l.016-.174.31-.579a.698.698 0 0 0-.249-.92l-.288-.178a.727.727 0 0 0-.371-.11l-.33-.006-.228-.12a.735.735 0 0 0-.41-.08l-.372.038-.28-.336a.712.712 0 0 0-.348-.227l-.388-.114a.735.735 0 0 0-.476.024l-.099.04-.078-.034a.727.727 0 0 0-.327-.058l-.485-.322v-.25c0-.217-.1-.418-.273-.552a.724.724 0 0 0-.609-.13l-.236.055a.717.717 0 0 0-.294-.267l-.286-.14a.712.712 0 0 0-.186-.063.716.716 0 0 0-.412-.254l-.039-.125a.708.708 0 0 0-.684-.499h-.112l-.217-.31a.729.729 0 0 0-.77-.285l-1.153.295a.71.71 0 0 0-.47.387l-.253.545a.7.7 0 0 0-.062.332l.047.71-.326.292-1.213.408a.702.702 0 0 0-.482.606l-.006.08-.64-.125-.492-.519a.707.707 0 0 0-.558-.22l-.574.028a.713.713 0 0 0-.536.284.691.691 0 0 0-.119.583l.19.757.253.596-.188-.034a.727.727 0 0 0-.393.037l-.054.02-.26-.258a.738.738 0 0 0-.573-.207L2.67 6.74a.734.734 0 0 0-.242.064l-1.017.465a.695.695 0 0 0-.372.865l.155.438a.71.71 0 0 0 .275.35.69.69 0 0 0 .083.496l.165.274a.72.72 0 0 0 .616.348h.386l1.343.524.24.312c.046.059.1.11.162.151l.075.05.001.009.166.737a.693.693 0 0 0 .126.265l.559.728a.71.71 0 0 0 .247.205l.328.165a.687.687 0 0 0 .074.214.694.694 0 0 0-.137.86.688.688 0 0 0-.02.1l-.212 1.822a.687.687 0 0 0 .04.328.7.7 0 0 0-.024.093l-.257 1.38-.464.553a.693.693 0 0 0 .208 1.059l.297.16.143.246a.714.714 0 0 0 .338.298l.697.294.208.217c.135.14.324.22.52.22h.31l.205.12c.084.048.175.08.271.092l1.216.161a.72.72 0 0 0 .652-.25l.118.026.282.113a.709.709 0 0 0 .372.427l.344.164a.74.74 0 0 0 .45.054l.292-.058.644.112.102.008a.71.71 0 0 0 .183-.023l.769-.2a.696.696 0 0 0 .5-.868l-.186-.644.191-.38.609-.36a.726.726 0 0 0 .528.095l.222.12c.131.07.28.097.429.078a.65.65 0 0 0 .05.017l.645.184.97.222a.73.73 0 0 0 .273.014l.473-.066a.764.764 0 0 0 .148-.037l.631-.228a.71.71 0 0 0 .402-.37.692.692 0 0 0 .063-.316l.312-.197.72-.586a.691.691 0 0 0 .249-.642l.039-.055a.687.687 0 0 0 .079-.713l-.117-.25Z"/></svg>