<svg xmlns="http://www.w3.org/2000/svg" viewBox="0 0 24 24" width="24" height="24"><path d="M15 18.472A5.978 5.978 0 0 0 19 20h2v2h-2a7.963 7.963 0 0 1-4-1.07A7.963 7.963 0 0 1 11 22a7.963 7.963 0 0 1-4-1.07A7.963 7.963 0 0 1 3 22H1v-2h2a5.978 5.978 0 0 0 4-1.528A5.978 5.978 0 0 0 11 20a5.978 5.978 0 0 0 4-1.528ZM9 1v3h5.446a1 1 0 0 1 .848.47L18.75 10h4.408a.5.5 0 0 1 .439.74L19.637 18H19a6.01 6.01 0 0 1-1.535-.198L20.63 12H3.4l1.048 5.824A6.04 6.04 0 0 1 3 18h-.545l-1.24-6.821A1 1 0 0 1 2.197 10H3V5a1 1 0 0 1 1-1h1V1h4Zm4.892 5H5v4h11.392l-2.5-4Z"/></svg>