<?xml version="1.0" encoding="UTF-8"?>
<svg version="1.1" xmlns="http://www.w3.org/2000/svg" width="512" height="512">
<path d="M0 0 C2.51992713 2.59303082 4.29962878 4.66161482 5.92211914 7.90966797 C8.55094205 11.02071648 8.80767764 11.24530768 12.57348633 11.63647461 C14.28382252 11.69626715 15.99565856 11.72018481 17.70703125 11.71484375 C19.07198982 11.73412682 19.07198982 11.73412682 20.46452332 11.75379944 C22.38846358 11.77101233 24.31259906 11.77254194 26.23657227 11.75952148 C29.16960399 11.75005774 32.09348788 11.82029583 35.02539062 11.89648438 C44.56553171 12.28619783 44.56553171 12.28619783 53.13183594 8.88549805 C54.90437015 6.59601387 56.10749785 4.40503169 57.375 1.8125 C68.69342105 -11.76539039 85.53126335 -18.98858072 102.83789062 -20.85717773 C115.7426968 -21.89427498 127.64315724 -19.699859 139.375 -14.1875 C140.17164063 -13.81753906 140.96828125 -13.44757812 141.7890625 -13.06640625 C159.03662112 -4.25979063 170.35845102 11.10882195 176.5078125 29.1328125 C178.24797275 35.87382161 178.66603631 42.51736927 178.97143555 49.43408203 C179.88730156 68.04062306 186.94229441 81.99472964 197.57421875 96.89453125 C229.06858464 141.4703266 241.21404808 196.05513742 232.59765625 249.89453125 C228.93385251 270.81419635 220.94367567 289.51064701 210.375 307.8125 C211.02082031 307.94785156 211.66664063 308.08320313 212.33203125 308.22265625 C235.13777274 313.43272305 268.4279632 324.19574345 281.73960876 344.93893433 C285.33194861 351.56948126 286.1013479 356.97098655 286.00390625 364.4453125 C286.00631821 365.52199188 286.00873016 366.59867126 286.01121521 367.70797729 C286.01024173 369.96860462 285.99696856 372.22925729 285.97192383 374.48974609 C285.93752099 377.93539823 285.95131755 381.37849417 285.97070312 384.82421875 C285.96380606 387.03126083 285.95413494 389.23829635 285.94140625 391.4453125 C285.94636612 392.46634064 285.95132599 393.48736877 285.95643616 394.53933716 C285.80709949 403.66905436 282.80296643 410.02382765 276.59375 416.74609375 C215.06181039 474.05312906 85.89308242 470.36276889 -3.1875 468.25 C-159.25419718 462.40013856 -159.25419718 462.40013856 -212.625 420.8125 C-213.26824219 420.33296875 -213.91148437 419.8534375 -214.57421875 419.359375 C-220.03467803 415.04786268 -224.41202809 409.45141573 -226.625 402.8125 C-226.73650788 401.22453533 -226.79382912 399.63246486 -226.81787109 398.04077148 C-226.83393402 397.0722374 -226.84999695 396.10370331 -226.86654663 395.1058197 C-226.91122485 390.6616192 -226.95209398 386.21756645 -226.97509766 381.77319336 C-226.99161136 379.43682869 -227.01884008 377.10051357 -227.05712891 374.7644043 C-227.11222736 371.38303606 -227.1338265 368.00285204 -227.1484375 364.62109375 C-227.17110687 363.5884288 -227.19377625 362.55576385 -227.21713257 361.49180603 C-227.1907819 352.33299314 -224.30655356 345.55325856 -218.1875 338.75 C-203.03873087 324.7275334 -172.25568311 307.8125 -151.625 307.8125 C-152.20507812 306.83152344 -152.78515625 305.85054688 -153.3828125 304.83984375 C-178.70479803 261.38103364 -182.1791124 209.9971148 -169.625 161.8125 C-162.69109794 136.93389784 -151.7895599 113.01635712 -135.875 92.5625 C-126.07001089 79.85818615 -121.61083299 66.34110824 -120.625 50.4375 C-118.98239831 29.32146744 -113.10439985 10.49910143 -96.62109375 -3.87109375 C-67.68379536 -27.87594823 -26.86427382 -26.15524607 0 0 Z " fill="#9ED884" transform="translate(226.625,32.1875)"/>
<path d="M0 0 C1.23161865 0.00749268 2.4632373 0.01498535 3.73217773 0.02270508 C12.36483389 0.12484305 20.65236397 0.47167749 29.125 2.25 C29.84913086 2.40065918 30.57326172 2.55131836 31.31933594 2.70654297 C56.70836061 8.17405945 78.20902842 21.33270556 92.62158203 43.34106445 C99.07433105 53.66312022 103.10474874 64.50233824 106.125 76.25 C105.12871582 76.26401855 105.12871582 76.26401855 104.11230469 76.27832031 C85.80729595 76.6021342 71.7516716 77.10368947 58.4375 90.875 C51.06164108 99.84106703 48.73912704 109.89594689 49.82958984 121.28369141 C51.05485224 129.43928094 54.5172456 136.32180249 60.125 142.25 C60.125 142.91 60.125 143.57 60.125 144.25 C60.68703125 144.518125 61.2490625 144.78625 61.828125 145.0625 C65.1196714 146.76425188 68.18477334 148.80469248 71.296875 150.8125 C77.26669482 153.84688355 83.28703354 154.50392017 89.90625 154.6640625 C90.60520386 154.68342865 91.30415771 154.7027948 92.02429199 154.7227478 C94.22440964 154.7818215 96.42458172 154.82863473 98.625 154.875 C100.13022929 154.91324657 101.63543825 154.95230201 103.140625 154.9921875 C106.8018957 155.08746125 110.46332122 155.17175356 114.125 155.25 C114.29500643 162.2589872 113.85196675 168.99813541 112.875 175.9375 C112.74295166 176.88850586 112.61090332 177.83951172 112.47485352 178.81933594 C109.37237718 200.00262282 109.37237718 200.00262282 105.125 204.25 C104.52171875 203.97285156 103.9184375 203.69570313 103.296875 203.41015625 C102.49765625 203.04792969 101.6984375 202.68570313 100.875 202.3125 C100.08609375 201.95285156 99.2971875 201.59320313 98.484375 201.22265625 C89.47412434 197.5081655 78.24044428 198.05642924 69.1875 201.3125 C58.25465425 206.15650839 51.94882342 212.51427333 47.1640625 223.4453125 C44.16732982 231.9607806 43.74644393 241.30956295 43.125 250.25 C43.06618652 251.05695313 43.00737305 251.86390625 42.94677734 252.6953125 C42.29444607 262.86753866 42.44012085 270.92348018 49.125 279.25 C54.39807465 285.21359633 61.1631784 289.07043467 69.16088867 289.63452148 C73.12902585 289.80512177 77.09166678 289.81209722 81.06274414 289.77148438 C83.55389089 289.75007399 86.04214511 289.77133324 88.53320312 289.796875 C100.29089176 289.81833868 109.55366735 288.55420097 118.4375 280.171875 C125.10010988 272.58390264 126.64399961 263.03684973 126.125 253.25 C125.86183671 250.23477314 125.51248592 247.25301586 125.125 244.25 C125.91261719 243.78851563 126.70023437 243.32703125 127.51171875 242.8515625 C149.20536592 229.86104715 167.12074783 213.37225269 181.125 192.25 C204.36160428 194.61249598 235.6157994 207.62116155 251.57423401 225.29226685 C257.39424223 232.63961849 258.8737125 239.69299495 258.75390625 248.8828125 C258.75631821 249.95949188 258.75873016 251.03617126 258.76121521 252.14547729 C258.76024173 254.40610462 258.74696856 256.66675729 258.72192383 258.92724609 C258.68752099 262.37289823 258.70131755 265.81599417 258.72070312 269.26171875 C258.71380606 271.46876083 258.70413494 273.67579635 258.69140625 275.8828125 C258.69636612 276.90384064 258.70132599 277.92486877 258.70643616 278.97683716 C258.55709949 288.10655436 255.55296643 294.46132765 249.34375 301.18359375 C187.81181039 358.49062906 58.64308242 354.80026889 -30.4375 352.6875 C-186.50419718 346.83763856 -186.50419718 346.83763856 -239.875 305.25 C-240.51824219 304.77046875 -241.16148437 304.2909375 -241.82421875 303.796875 C-247.28467803 299.48536268 -251.66202809 293.88891573 -253.875 287.25 C-253.98650788 285.66203533 -254.04382912 284.06996486 -254.06787109 282.47827148 C-254.08393402 281.5097374 -254.09999695 280.54120331 -254.11654663 279.5433197 C-254.16122485 275.0991192 -254.20209398 270.65506645 -254.22509766 266.21069336 C-254.24161136 263.87432869 -254.26884008 261.53801357 -254.30712891 259.2019043 C-254.36222736 255.82053606 -254.3838265 252.44035204 -254.3984375 249.05859375 C-254.42110687 248.0259288 -254.44377625 246.99326385 -254.46713257 245.92930603 C-254.4407819 236.77049314 -251.55655356 229.99075856 -245.4375 223.1875 C-229.43052067 208.37063065 -198.60486627 192.25 -176.875 192.25 C-175.19062784 194.28528303 -173.79594204 196.22910003 -172.375 198.4375 C-159.21262044 217.83169141 -141.16975553 232.74652106 -120.875 244.25 C-121.04 245.52875 -121.205 246.8075 -121.375 248.125 C-122.56454472 259.50556968 -122.25993143 270.16362085 -114.875 279.625 C-106.16367308 288.1370131 -96.8703995 290.06647937 -85.15625 289.97265625 C-83.94582031 289.94776123 -83.94582031 289.94776123 -82.7109375 289.92236328 C-80.2460725 289.87492441 -77.7855229 289.88130902 -75.3203125 289.89453125 C-64.56137927 289.85581786 -54.63695333 288.95196817 -46.48046875 281.10546875 C-38.91600342 272.36308181 -37.86677101 263.98673192 -38.65380859 252.83740234 C-39.05630056 248.12922364 -39.53990644 243.43910126 -40.125 238.75 C-40.23384521 237.85498779 -40.34269043 236.95997559 -40.45483398 236.0378418 C-42.16293069 223.99626275 -46.85841659 214.08827762 -56.2109375 206.15234375 C-65.88810499 199.24210832 -76.37769038 197.93467959 -87.875 199.25 C-91.72973451 200.2551927 -95.25592539 201.60256019 -98.875 203.25 C-99.865 203.58 -100.855 203.91 -101.875 204.25 C-105.02285394 194.86864873 -107.35656793 185.63074151 -108.6875 175.8125 C-108.87276245 174.46551025 -108.87276245 174.46551025 -109.06176758 173.09130859 C-109.81162597 167.11994911 -110.01326046 161.26473408 -109.875 155.25 C-108.95799316 155.23541748 -108.04098633 155.22083496 -107.09619141 155.20581055 C-103.64787775 155.14424129 -100.20029547 155.06999915 -96.75244141 154.98754883 C-95.26881957 154.95458303 -93.78508085 154.92646583 -92.30126953 154.90356445 C-76.76690915 154.66538664 -76.76690915 154.66538664 -62.9375 148.125 C-60.46102004 146.31820337 -58.81726727 145.23075576 -55.875 144.25 C-54.78683042 142.39719198 -54.78683042 142.39719198 -53.875 140.25 C-53.07442416 138.9923297 -52.26151467 137.74243957 -51.4375 136.5 C-45.16682073 126.31478426 -43.92884767 115.47648932 -46.68359375 103.83203125 C-50.85915086 92.66349961 -58.18518376 85.39267857 -68.8828125 80.40625 C-76.29756146 77.54102064 -82.93480405 76.8597172 -90.8125 76.625 C-91.87791016 76.58632812 -92.94332031 76.54765625 -94.04101562 76.5078125 C-96.65217734 76.41413854 -99.26334304 76.32841665 -101.875 76.25 C-100.21007666 69.74193494 -98.4231542 63.45463839 -95.6875 57.3125 C-95.38634277 56.63429199 -95.08518555 55.95608398 -94.77490234 55.25732422 C-89.88483219 44.59059183 -83.08086027 35.59331187 -74.875 27.25 C-74.11574219 26.47785156 -73.35648438 25.70570313 -72.57421875 24.91015625 C-53.35025775 6.50423615 -25.95108303 -0.20947063 0 0 Z " fill="#FC9DAF" transform="translate(253.875,147.75)"/>
<path d="M0 0 C1.23161865 0.00749268 2.4632373 0.01498535 3.73217773 0.02270508 C12.36483389 0.12484305 20.65236397 0.47167749 29.125 2.25 C29.84913086 2.40065918 30.57326172 2.55131836 31.31933594 2.70654297 C56.70836061 8.17405945 78.20902842 21.33270556 92.62158203 43.34106445 C99.07433105 53.66312022 103.10474874 64.50233824 106.125 76.25 C105.12871582 76.26401855 105.12871582 76.26401855 104.11230469 76.27832031 C85.80729595 76.6021342 71.7516716 77.10368947 58.4375 90.875 C51.06164108 99.84106703 48.73912704 109.89594689 49.82958984 121.28369141 C51.05485224 129.43928094 54.5172456 136.32180249 60.125 142.25 C60.125 142.91 60.125 143.57 60.125 144.25 C60.68703125 144.518125 61.2490625 144.78625 61.828125 145.0625 C65.1196714 146.76425188 68.18477334 148.80469248 71.296875 150.8125 C77.26669482 153.84688355 83.28703354 154.50392017 89.90625 154.6640625 C90.60520386 154.68342865 91.30415771 154.7027948 92.02429199 154.7227478 C94.22440964 154.7818215 96.42458172 154.82863473 98.625 154.875 C100.13022929 154.91324657 101.63543825 154.95230201 103.140625 154.9921875 C106.8018957 155.08746125 110.46332122 155.17175356 114.125 155.25 C114.29500643 162.2589872 113.85196675 168.99813541 112.875 175.9375 C112.74295166 176.88850586 112.61090332 177.83951172 112.47485352 178.81933594 C109.37237718 200.00262282 109.37237718 200.00262282 105.125 204.25 C104.52171875 203.97285156 103.9184375 203.69570313 103.296875 203.41015625 C102.49765625 203.04792969 101.6984375 202.68570313 100.875 202.3125 C99.69164062 201.77302734 99.69164062 201.77302734 98.484375 201.22265625 C89.47412434 197.5081655 78.24044428 198.05642924 69.1875 201.3125 C58.25465425 206.15650839 51.94882342 212.51427333 47.1640625 223.4453125 C41.90784805 238.38128821 42.84605753 255.67571203 43.125 271.25 C29.69458874 274.02220914 16.29225023 274.45296825 2.625 274.4375 C1.88530975 274.43789276 1.14561951 274.43828552 0.3835144 274.43869019 C-29.36550406 274.41983198 -29.36550406 274.41983198 -38.875 271.25 C-38.84019531 269.98929687 -38.80539063 268.72859375 -38.76953125 267.4296875 C-38.58577229 257.7139015 -38.85664071 248.20535745 -40.125 238.5625 C-40.23432861 237.67997559 -40.34365723 236.79745117 -40.45629883 235.88818359 C-42.17631638 223.91921049 -46.9203759 214.03570303 -56.2109375 206.15234375 C-65.88810499 199.24210832 -76.37769038 197.93467959 -87.875 199.25 C-91.72973451 200.2551927 -95.25592539 201.60256019 -98.875 203.25 C-99.865 203.58 -100.855 203.91 -101.875 204.25 C-105.02285394 194.86864873 -107.35656793 185.63074151 -108.6875 175.8125 C-108.8110083 174.91450684 -108.9345166 174.01651367 -109.06176758 173.09130859 C-109.81162597 167.11994911 -110.01326046 161.26473408 -109.875 155.25 C-108.49948975 155.22812622 -108.49948975 155.22812622 -107.09619141 155.20581055 C-103.64787775 155.14424129 -100.20029547 155.06999915 -96.75244141 154.98754883 C-95.26881957 154.95458303 -93.78508085 154.92646583 -92.30126953 154.90356445 C-76.76690915 154.66538664 -76.76690915 154.66538664 -62.9375 148.125 C-60.46102004 146.31820337 -58.81726727 145.23075576 -55.875 144.25 C-54.78683042 142.39719198 -54.78683042 142.39719198 -53.875 140.25 C-53.07442416 138.9923297 -52.26151467 137.74243957 -51.4375 136.5 C-45.16682073 126.31478426 -43.92884767 115.47648932 -46.68359375 103.83203125 C-50.85915086 92.66349961 -58.18518376 85.39267857 -68.8828125 80.40625 C-76.29756146 77.54102064 -82.93480405 76.8597172 -90.8125 76.625 C-92.41061523 76.56699219 -92.41061523 76.56699219 -94.04101562 76.5078125 C-96.65217734 76.41413854 -99.26334304 76.32841665 -101.875 76.25 C-100.21007666 69.74193494 -98.4231542 63.45463839 -95.6875 57.3125 C-95.38634277 56.63429199 -95.08518555 55.95608398 -94.77490234 55.25732422 C-89.88483219 44.59059183 -83.08086027 35.59331187 -74.875 27.25 C-74.11574219 26.47785156 -73.35648438 25.70570313 -72.57421875 24.91015625 C-53.35025775 6.50423615 -25.95108303 -0.20947063 0 0 Z " fill="#FCEECC" transform="translate(253.875,147.75)"/>
<path d="M0 0 C1.11375 0.45375 2.2275 0.9075 3.375 1.375 C6.78250094 3.48440535 8.55159597 5.82369207 11 9 C11.515625 9.495 12.03125 9.99 12.5625 10.5 C16.69657596 14.81381839 18.63643348 19.25354109 20 25 C20.185625 25.72574219 20.37125 26.45148438 20.5625 27.19921875 C21.71781114 31.92476224 22.20683378 36.13940611 22 41 C22.66 41.33 23.32 41.66 24 42 C23.34 42 22.68 42 22 42 C22.144375 42.53367187 22.28875 43.06734375 22.4375 43.6171875 C25.0331251 54.03573826 24.81065198 63.19813538 20 73 C14.65718328 80.64159248 8.36408127 86.23116205 -1 88 C-6.14847167 88.29361948 -11.29466122 88.35582492 -16.45068359 88.4050293 C-18.13611482 88.42649667 -19.82143802 88.46046442 -21.50634766 88.50756836 C-33.22957403 88.8316119 -43.06131306 88.32362539 -52.22265625 79.97436523 C-57.6428134 74.33457259 -61.48008687 67.79661663 -61.45410156 59.86181641 C-61.42799805 59.14429199 -61.40189453 58.42676758 -61.375 57.6875 C-61.35920898 56.91841309 -61.34341797 56.14932617 -61.32714844 55.35693359 C-60.83574444 38.23738745 -60.06725059 20.33870419 -48 7 C-34.30960788 -5.17183327 -16.53557499 -7.78312409 0 0 Z " fill="#99D67E" transform="translate(357,350)"/>
<path d="M0 0 C6.83498336 4.89334104 13.45132605 10.78090353 16 19 C16.26941406 19.85722656 16.53882813 20.71445312 16.81640625 21.59765625 C20.71229219 35.58144007 25.39206293 57.51574473 18.5 71.1875 C13.18019429 79.29150309 6.42783615 84.58236818 -3 87 C-8.27891283 87.66693907 -13.59021183 87.65984466 -18.90332031 87.63134766 C-21.3644363 87.62502713 -23.82072603 87.67205043 -26.28125 87.72265625 C-38.38792106 87.82023897 -47.54933172 85.64742339 -56.5 76.875 C-62.31688135 69.66449082 -64.52851068 61.32138995 -64.23828125 52.15625 C-64 50 -64 50 -63.51196289 48.14331055 C-62.9819686 45.92451231 -62.74822826 43.82390824 -62.5703125 41.55078125 C-62.49683594 40.70193359 -62.42335937 39.85308594 -62.34765625 38.97851562 C-62.20089185 37.22120507 -62.06012356 35.46338194 -61.92578125 33.70507812 C-61.25872146 26.20348203 -59.8808356 16.90816543 -54.3359375 11.32421875 C-53.68882812 10.78410156 -53.04171875 10.24398438 -52.375 9.6875 C-50.21678109 7.88188059 -48.09877241 6.09615726 -46.08203125 4.1328125 C-33.71038961 -7.75416689 -14.5512082 -8.47146876 0 0 Z " fill="#99D67E" transform="translate(195,351)"/>
<path d="M0 0 C5.89104774 4.35209426 12.47953598 9.86632304 15 17 C14.61328125 19.23046875 14.61328125 19.23046875 14 21 C13.5153125 20.52949219 13.030625 20.05898437 12.53125 19.57421875 C6.87572721 14.32110816 1.82742542 11.05171409 -6 10.5625 C-11.86948586 10.81619094 -16.30283478 13.61141028 -20.75 17.25 C-24.82710551 22.23312895 -27.78647711 27.1804719 -27.37890625 33.859375 C-26.11190522 41.01727771 -23.53387586 46.34624251 -17.78125 50.84375 C-11.71094601 54.78412277 -6.13409851 54.68268885 1 54 C7.02781861 52.31067504 10.3870276 48.95493357 14 44 C14.598125 43.21625 15.19625 42.4325 15.8125 41.625 C16.204375 41.08875 16.59625 40.5525 17 40 C16.35424728 48.39478531 11.15363236 56.40944511 5 62 C1.79898081 64.28644228 -1.50705827 66.19613338 -5 68 C-5.64839844 68.34289062 -6.29679687 68.68578125 -6.96484375 69.0390625 C-15.19129285 72.76096548 -25.30353501 71.95337611 -33.6640625 69.03125 C-43.7769991 64.56667598 -51.6260382 56.84026806 -56.30859375 46.82421875 C-59.43941008 38.56381634 -59.50868646 26.82107783 -56.4375 18.5 C-51.98013535 9.35230739 -45.72169424 3.14106258 -37 -2 C-36.39929688 -2.36222656 -35.79859375 -2.72445312 -35.1796875 -3.09765625 C-24.62668721 -8.18486491 -9.59134371 -5.92568649 0 0 Z " fill="#FCFDFC" transform="translate(356,48)"/>
<path d="M0 0 C0.97646484 0.61681641 0.97646484 0.61681641 1.97265625 1.24609375 C2.71644531 1.64699219 3.46023437 2.04789063 4.2265625 2.4609375 C11.95203695 6.97073223 18.34206612 14.60683326 20.97265625 23.24609375 C20.47765625 24.73109375 20.47765625 24.73109375 19.97265625 26.24609375 C19.63234375 25.715 19.29203125 25.18390625 18.94140625 24.63671875 C14.55741577 18.24728581 10.21129284 15.65897261 2.97265625 13.24609375 C-4.15433667 12.49588397 -9.03210667 14.36995468 -15.02734375 18.24609375 C-17.51944896 20.54677394 -17.51944896 20.54677394 -19.02734375 23.24609375 C-19.89359375 24.57640625 -19.89359375 24.57640625 -20.77734375 25.93359375 C-23.25857513 32.50885692 -22.71852217 39.09208601 -19.93359375 45.5 C-17.66029897 49.88001193 -14.75815386 53.17970935 -10.34375 55.515625 C-3.77227878 57.58791019 4.28029524 57.49271918 10.53515625 54.49609375 C13.55442357 52.67804031 16.31954093 50.56756966 18.97265625 48.24609375 C18.54290712 55.12207988 13.11617866 60.35718636 8.41015625 64.93359375 C0.33937997 71.61074453 -9.25650989 74.1520197 -19.60546875 73.7265625 C-29.78311291 72.29750972 -39.32703096 67.05963852 -45.80859375 59.04296875 C-52.5117252 49.38257343 -55.04813854 40.0067999 -54.02734375 28.24609375 C-51.49675593 17.34287538 -45.16071476 8.63480148 -36.02734375 2.24609375 C-25.75105483 -3.91035165 -10.87583642 -6.05610159 0 0 Z " fill="#FCFDFC" transform="translate(192.02734375,45.75390625)"/>
<path d="M0 0 C0.9425061 -0.0038269 1.88501221 -0.00765381 2.8560791 -0.01159668 C4.85328232 -0.014318 6.85052105 -0.00694143 8.84765625 0.00976562 C11.86802406 0.03098149 14.88596088 0.01007118 17.90625 -0.015625 C33.4283147 -0.03789874 46.08842568 1.87382926 58.03125 12.59375 C66.51988767 21.41336666 68.97114727 32.30673914 68.75 44.0859375 C68.28325008 53.21478801 63.81966426 62.06206692 57.40625 68.53125 C47.20307983 76.91001226 38.22198382 79.66796003 25.21484375 79.76953125 C24.23258316 79.777603 23.25032257 79.78567474 22.23829651 79.79399109 C20.16645046 79.80779002 18.09458208 79.81853081 16.02270508 79.82641602 C13.90154372 79.83798214 11.7804125 79.85850612 9.65942383 79.88793945 C6.59436267 79.93046685 3.53016268 79.94676009 0.46484375 79.95703125 C-0.4831459 79.97453934 -1.43113556 79.99204742 -2.40785217 80.01008606 C-8.94803257 79.98845363 -8.94803257 79.98845363 -12.19116211 77.69213867 C-14.11602846 74.7266048 -14.17180914 72.99960485 -13.59375 69.53125 C-12.15283203 67.37304688 -12.15283203 67.37304688 -9.59375 65.53125 C-6.44636939 64.95655278 -3.33994083 65.02184252 -0.1484375 65.0625 C0.77661591 65.05545044 1.70166931 65.04840088 2.65475464 65.0411377 C6.6033167 65.01171826 10.55138369 65.02818792 14.5 65.04052734 C17.3883134 65.04292787 20.27584648 65.02187451 23.1640625 65 C24.47867966 65.01697937 24.47867966 65.01697937 25.81985474 65.03430176 C33.48524578 64.97270674 40.56735156 62.90398063 46.78125 58.28125 C52.22923353 52.57383868 53.6742006 48.0465838 53.96875 40.09375 C53.72781273 32.27494684 52.16064736 27.22961158 46.57421875 21.7265625 C39.38057606 15.79570916 31.56773317 15.2474493 22.578125 15.2578125 C20.70832712 15.23754475 18.83853547 15.21669442 16.96875 15.1953125 C14.0500759 15.17263361 11.13164914 15.15620103 8.21289062 15.15039062 C5.37586025 15.14088952 2.53991315 15.1071723 -0.296875 15.0703125 C-1.16983215 15.07535797 -2.04278931 15.08040344 -2.94219971 15.08560181 C-8.96350353 14.98758127 -8.96350353 14.98758127 -12.14355469 12.68505859 C-14.13298687 9.73038339 -14.17562261 8.02248566 -13.59375 4.53125 C-10.13934286 -0.66685515 -5.67425351 -0.05081421 0 0 Z " fill="#6FC649" transform="translate(140.59375,223.46875)"/>
<path d="M0 0 C1.4259272 -0.00786278 1.4259272 -0.00786278 2.88066101 -0.0158844 C4.87135853 -0.02225838 6.86209395 -0.02102824 8.8527832 -0.01245117 C11.89667033 -0.00387822 14.93871647 -0.03286773 17.98242188 -0.06445312 C19.92578069 -0.06606389 21.86914282 -0.06548999 23.8125 -0.0625 C25.17040398 -0.07935097 25.17040398 -0.07935097 26.55574036 -0.09654236 C30.71934406 -0.05049677 33.01082529 0.09582607 36.64916992 2.27709961 C38.57421875 4.43359375 38.57421875 4.43359375 39.13671875 7.43359375 C38.42140241 11.24861421 37.73860678 12.17951322 34.57421875 14.43359375 C31.28059271 15.00098477 28.02560221 14.9188887 24.69140625 14.8671875 C22.69921801 14.87680045 20.70703052 14.88657116 18.71484375 14.89648438 C15.58812384 14.88791869 12.46161226 14.87118216 9.33496094 14.84887695 C6.30754147 14.83424363 3.28128598 14.84969533 0.25390625 14.8671875 C-0.66625275 14.85070663 -1.58641174 14.83422577 -2.53445435 14.81724548 C-9.908767 14.87319963 -16.44087602 16.88902756 -22.04788208 21.87644958 C-28.02794585 28.67139641 -29.03875489 34.94471416 -28.83203125 43.73046875 C-28.04375801 50.91588256 -25.09220381 55.36464505 -19.55078125 59.87109375 C-13.13288017 64.58382027 -6.12274735 64.71557857 1.5234375 64.70703125 C3.44206331 64.72730312 5.36068307 64.74815355 7.27929688 64.76953125 C10.28138379 64.79219781 13.28323156 64.80863544 16.28540039 64.81445312 C19.19850957 64.82395523 22.11056408 64.85768035 25.0234375 64.89453125 C25.92140549 64.88948578 26.81937347 64.88444031 27.74455261 64.87924194 C33.94010332 64.97730097 33.94010332 64.97730097 37.13989258 67.27978516 C39.10892413 70.23651646 39.15465856 71.9509549 38.57421875 75.43359375 C37.16064453 77.59008789 37.16064453 77.59008789 34.57421875 79.43359375 C31.28163535 80.02682398 28.02916154 79.96990641 24.69140625 79.9296875 C23.72196075 79.93114273 22.75251526 79.93259796 21.75369263 79.93409729 C19.70099893 79.93243785 17.64829286 79.9208716 15.59570312 79.90014648 C12.48122056 79.87138924 9.36846232 79.87949798 6.25390625 79.89257812 C4.25389809 79.88633405 2.25389527 79.87793791 0.25390625 79.8671875 C-1.12633224 79.87159096 -1.12633224 79.87159096 -2.53445435 79.87608337 C-14.42811472 79.70605437 -23.4854974 75.84585237 -32.23828125 67.87109375 C-40.2872604 58.90223127 -44.23837751 49.40689607 -44.01245117 37.32055664 C-43.35381318 25.63008493 -37.88373382 17.19940618 -29.42578125 9.43359375 C-20.66236977 2.17423538 -11.21465578 -0.03677846 0 0 Z " fill="#6FC649" transform="translate(346.42578125,223.56640625)"/>
<path d="M0 0 C5.18580332 4.48863271 8.40627567 9.12769085 9.24609375 16.01953125 C9.64463985 22.91558653 7.95078334 29.60869688 3.3515625 34.89453125 C-3.0382237 40.62859704 -9.00136826 41.57955823 -17.48046875 41.4375 C-23.74441406 40.65885197 -27.74020495 37.842441 -31.62109375 32.9609375 C-35.80182463 26.63654575 -36.95205435 20.538942 -36 13 C-33.25019628 4.96903118 -27.7210444 0.59657442 -20.5 -3.375 C-13.03037903 -5.24240524 -6.58939977 -3.83578068 0 0 Z " fill="#3A3A44" transform="translate(205,62)"/>
<path d="M0 0 C5.09264579 2.98106095 9.24988211 7.89433889 11.40234375 13.40625 C12.26590765 20.99757917 12.23751891 28.19969475 7.40234375 34.40625 C3.03327805 39.0341466 -1.2043943 41.99349727 -7.6484375 42.77734375 C-15.03264781 42.92768097 -20.0095351 42.43688638 -25.59765625 37.40625 C-30.92077616 32.08313009 -33.14945536 26.87980687 -34.09765625 19.53125 C-33.82468592 14.18733077 -31.73498404 9.68190027 -28.59765625 5.40625 C-19.56386304 -2.53428161 -11.18445678 -4.82534345 0 0 Z " fill="#3A3A44" transform="translate(361.59765625,60.59375)"/>
<path d="M0 0 C2.0703125 1.8359375 2.0703125 1.8359375 4.125 4.375 C15.33806678 17.49077827 29.04990752 27.52598445 44 36 C43.835 37.27875 43.67 38.5575 43.5 39.875 C42.70702469 47.06841891 42.70000051 53.8706377 44 61 C-4.7755849 37.47747745 -4.7755849 37.47747745 -14 19 C-14.88879599 14.39587662 -14.43737083 10.85854275 -12.3125 6.6875 C-5.83351479 -0.84213146 -5.83351479 -0.84213146 0 0 Z " fill="#FC748D" transform="translate(89,356)"/>
<path d="M0 0 C5.58309741 2.52819506 8.33194863 6.66389726 11 12 C11.8125 14.4375 11.8125 14.4375 12 17 C12.061875 17.63292969 12.12375 18.26585938 12.1875 18.91796875 C12.59201537 26.06019333 11.03950941 33.4700243 6.28125 38.99609375 C2.56301709 42.281058 -0.25506212 43.83538322 -5.3125 44.3125 C-10.70686722 43.85535024 -13.48766629 41.55554324 -17.1875 37.75 C-21.93829373 30.54189916 -23.17210501 23.52240839 -22 15 C-20.02929344 9.07977041 -17.41071071 4.36341476 -12 1 C-8.28055101 -0.8597245 -4.05935482 -0.4315801 0 0 Z " fill="#393A43" transform="translate(261,88)"/>
<path d="M0 0 C1.37978481 1.6284193 2.70984954 3.2996861 4 5 C5.87868594 6.16761906 7.79805061 7.27197671 9.75 8.3125 C14.70597293 11.37100538 14.70597293 11.37100538 15.92578125 13.98046875 C16.19614037 17.97405916 14.87803228 20.66607846 12.5 23.8125 C7.58941263 28.82610668 2.38124276 30.12881263 -4.5 30.5 C-11.5030983 30.29602626 -15.3466168 27.25537572 -20.5 22.875 C-22.86008925 18.35149559 -22.72993793 13.98916336 -22 9 C-17.74057907 0.99228864 -8.60932919 -2.12266769 0 0 Z " fill="#F64A6E" transform="translate(147,104)"/>
<path d="M0 0 C7.47370415 0.20231365 12.43723263 1.93454504 18.203125 6.69140625 C20.55394283 11.29509118 20.65797593 15.57977029 19.703125 20.62890625 C17.10288897 25.56223078 12.99372956 28.93191988 7.703125 30.62890625 C1.07711603 31.35155853 -5.49555597 31.19311532 -11.296875 27.62890625 C-14.98760506 24.64154873 -17.62505267 21.41594425 -18.359375 16.62890625 C-18.22265625 14.609375 -18.22265625 14.609375 -17.296875 12.62890625 C-14.69285153 10.52213349 -12.04807443 8.94204563 -9.09375 7.3671875 C-6.15445184 5.76641051 -6.15445184 5.76641051 -4.234375 2.95703125 C-2.296875 0.62890625 -2.296875 0.62890625 0 0 Z " fill="#F64A6E" transform="translate(367.296875,103.37109375)"/>
</svg>
