<svg version="1.1" id="Layer_1" xmlns="http://www.w3.org/2000/svg" xmlns:xlink="http://www.w3.org/1999/xlink" x="0px" y="0px"
	 width="100%" viewBox="0 0 775 767" enable-background="new 0 0 775 767" xml:space="preserve">
<path fill="#000000" opacity="1.000000" stroke="none" 
	d="
M0.999999,168.000000 
	C1.000000,112.340958 1.000000,56.681923 1.000000,1.017163 
	C259.290314,1.011442 517.580627,1.011442 775.935425,1.011442 
	C775.935425,256.588593 775.935425,512.177185 775.935425,767.882935 
	C517.780151,767.882935 259.560272,767.882935 1.000000,767.882935 
	C1.000000,578.306580 1.000000,388.613007 1.290357,198.126343 
	C2.026615,197.800491 2.752119,198.202911 2.877648,198.744400 
	C6.275289,213.400742 16.272591,222.540649 28.520487,229.954926 
	C29.804464,230.732178 30.850897,232.962753 30.896368,234.550842 
	C31.167665,244.025742 31.112574,253.509979 31.089956,263.454712 
	C31.064222,291.609467 31.115555,319.300598 31.090914,347.455444 
	C31.065601,371.277374 31.116264,394.635590 31.092243,418.457214 
	C31.010578,423.586060 30.771364,428.265289 31.048553,432.913727 
	C31.518040,440.786957 34.164581,447.755402 41.292797,452.010071 
	C60.376617,463.400787 79.480965,474.760559 98.707970,485.906982 
	C119.315704,497.853790 140.116592,509.467010 160.753067,521.364807 
	C185.513016,535.639954 210.183594,550.070068 234.901749,564.417786 
	C255.657532,576.465576 276.514557,588.342163 297.153412,600.586670 
	C308.279053,607.187317 319.110779,610.557007 331.427643,603.271301 
	C352.923737,590.555847 374.702911,578.319214 396.352539,565.862915 
	C404.605133,561.114685 408.639893,553.600464 408.880096,544.420654 
	C409.132477,534.775391 404.251678,527.313293 396.001251,522.736816 
	C387.830475,518.204468 379.170135,518.989502 371.148865,523.547729 
	C354.246063,533.153076 337.396271,542.860962 320.746826,552.895264 
	C317.266418,554.992859 314.927948,554.229126 312.030884,552.542297 
	C288.893036,539.070251 265.757507,525.593811 242.567123,512.212524 
	C226.430664,502.901459 210.174850,493.797363 194.033264,484.495087 
	C173.378967,472.592133 152.771393,460.607880 132.171021,448.611694 
	C114.704536,438.440430 97.276924,428.202423 79.900108,417.529999 
	C79.922897,393.707977 79.877686,370.349854 79.900574,346.528015 
	C79.923271,318.373657 79.877876,290.683014 79.900818,262.528656 
	C79.977409,255.569687 80.292328,249.056458 79.912163,242.584061 
	C79.487473,235.353607 79.475792,228.728882 88.189766,226.204987 
	C89.356133,225.867157 90.319717,224.754608 91.320808,223.932159 
	C103.274544,214.111450 109.699219,201.586090 109.903427,185.539459 
	C109.367592,179.587631 109.459190,173.901001 108.024811,168.629608 
	C103.724953,152.827469 93.703911,141.160446 79.563965,133.318344 
	C58.870811,121.841820 38.567398,126.339088 22.352482,139.288879 
	C13.140716,146.645706 6.449806,156.081802 2.819582,167.490311 
	C2.714730,167.819824 1.628593,167.837112 0.999999,168.000000 
M414.016144,292.921783 
	C414.011993,307.367310 413.873993,321.814941 414.102081,336.256805 
	C414.156067,339.675079 413.065613,341.726685 410.235016,343.310028 
	C407.734467,344.708740 405.373108,346.356201 402.221588,347.991302 
	C401.911865,348.077881 401.567596,348.104279 401.297363,348.259552 
	C374.047577,363.916138 346.724365,379.448608 319.658112,395.416504 
	C316.246216,397.429352 314.449768,395.806335 312.323547,394.623352 
	C304.920959,390.504822 297.710663,386.042603 290.378082,381.795929 
	C266.682526,368.072632 242.951172,354.410919 219.298538,340.614166 
	C218.160049,339.950104 217.641006,338.224121 216.969772,336.065002 
	C216.924286,312.708099 216.878799,289.351166 216.972015,265.066772 
	C216.925568,244.042221 216.879120,223.017654 216.972565,201.065918 
	C216.983276,184.441116 216.898407,167.815536 217.034058,151.191757 
	C217.148407,137.176483 206.977737,126.190018 193.050934,126.218086 
	C178.934464,126.246536 169.097321,134.427719 168.238159,149.649536 
	C167.256378,167.043457 168.111404,184.541031 168.014984,202.920624 
	C168.065567,224.278427 168.116150,245.636246 168.015060,267.921234 
	C168.065948,290.945038 168.116821,313.968811 168.015671,337.919342 
	C168.008469,342.396759 167.945145,346.874969 168.005417,351.351471 
	C168.142044,361.498352 171.643997,369.859955 180.825363,375.152985 
	C185.474136,377.833008 190.085556,380.578918 194.761780,383.209900 
	C204.787262,388.850525 214.843857,394.435852 225.184372,400.677948 
	C232.950790,405.162750 240.725677,409.632996 248.481918,414.135345 
	C265.554077,424.045410 282.668762,433.883667 299.664886,443.922607 
	C310.827789,450.516113 321.569611,451.804718 333.033508,444.132965 
	C341.950470,438.165619 351.649384,433.372040 360.959747,427.985992 
	C377.017700,418.696472 393.043854,409.352020 409.736481,399.765717 
	C421.582642,392.944763 433.243927,385.773285 445.326904,379.401459 
	C457.414062,373.027496 463.851990,364.023041 461.971710,349.067200 
	C461.925507,330.042999 461.879303,311.018768 461.972290,291.067047 
	C461.925964,272.376099 461.879669,253.685120 461.973145,234.214890 
	C463.021088,232.613922 463.693451,230.290619 465.173645,229.521057 
	C485.315582,219.049301 493.014862,201.751221 492.974823,179.164246 
	C492.648193,177.248856 492.383057,175.320618 491.985413,173.420090 
	C487.836853,153.592789 475.965332,139.492722 458.023285,131.247864 
	C442.247101,123.998276 426.310333,125.286964 411.301086,134.913193 
	C395.068390,145.324081 385.376648,159.726089 383.014923,179.892670 
	C383.340454,183.301666 383.693329,186.708328 383.986908,190.120071 
	C385.525299,207.997726 394.531982,220.873016 410.368408,228.955933 
	C413.149445,230.375381 414.361755,232.057419 414.015350,235.921402 
	C414.065857,254.612442 414.116364,273.303467 414.016144,292.921783 
M599.970398,275.066833 
	C599.924072,250.375931 599.877747,225.685028 599.970825,200.066742 
	C599.981445,184.434509 600.211365,168.798325 599.929077,153.171387 
	C599.725647,141.913391 595.224243,133.128677 584.117126,128.527176 
	C569.949158,122.657623 551.358154,133.308121 551.092224,148.130569 
	C550.752258,167.078232 551.110046,186.038406 551.013428,205.920227 
	C551.064575,229.611298 551.115723,253.302368 551.014648,277.920654 
	C551.065186,301.278107 551.115723,324.635590 551.015198,348.909760 
	C551.007690,350.241669 551.048218,351.575867 550.985046,352.905121 
	C550.468384,363.765076 554.825684,371.792419 564.428650,377.159027 
	C573.685730,382.332367 582.681152,387.971619 591.881104,393.250092 
	C605.864197,401.272827 619.924622,409.160828 634.265259,417.726959 
	C657.560730,431.131134 680.856201,444.535309 704.253418,457.998016 
	C689.354675,483.740112 674.816345,508.859558 660.235901,534.051636 
	C656.939331,532.288940 653.741516,530.700317 650.659485,528.912170 
	C621.994324,512.280945 593.374329,495.571686 564.655701,479.033539 
	C562.040588,477.527557 560.757935,476.079071 560.944641,472.955170 
	C561.671936,460.780243 557.326111,450.267365 550.233459,440.582245 
	C531.140808,414.511017 492.470367,411.618042 469.005371,433.603119 
	C456.705719,445.127106 451.302795,459.652863 451.964508,476.546661 
	C452.642334,493.850647 460.435699,507.519318 473.782715,517.792908 
	C484.703033,526.198608 497.311829,529.666443 511.428467,528.185242 
	C519.791077,527.307617 527.290527,524.869934 534.616333,521.071167 
	C535.954834,520.377136 538.393127,520.585022 539.765747,521.362122 
	C555.666870,530.365295 571.462219,539.555542 587.282654,548.701172 
	C610.187561,561.942261 633.057190,575.244812 656.008118,588.405640 
	C666.755127,594.568481 681.383606,592.953369 688.288513,582.180115 
	C694.624268,572.295105 700.516052,562.121643 706.467773,551.995422 
	C715.899170,535.948914 725.269287,519.865845 734.568359,503.742249 
	C742.963867,489.185211 751.562256,474.729889 759.439941,459.894562 
	C765.089050,449.256317 762.397400,437.390472 754.185547,431.210297 
	C744.622864,424.013580 733.491577,418.901123 722.710876,412.266083 
	C721.660400,411.822144 720.544312,411.490082 719.569397,410.917511 
	C705.530457,402.672363 691.533081,394.356323 677.480164,386.135406 
	C661.586243,376.837585 645.677856,367.563690 629.713013,358.388580 
	C622.233215,354.089844 614.606018,350.047485 606.712891,345.262848 
	C601.228333,343.347961 599.669983,339.746063 599.807007,333.803680 
	C600.251099,314.544006 599.885437,295.265625 599.970398,275.066833 
z"/>
<path fill="#DBDC40" opacity="1.000000" stroke="none" 
	d="
M109.833275,185.994476 
	C109.699219,201.586090 103.274544,214.111450 91.320808,223.932159 
	C90.319717,224.754608 89.356133,225.867157 88.189766,226.204987 
	C79.475792,228.728882 79.487473,235.353607 79.912163,242.584061 
	C80.292328,249.056458 79.977409,255.569687 79.502914,262.617249 
	C63.080112,263.110077 47.123569,263.050568 31.167023,262.991089 
	C31.112574,253.509979 31.167665,244.025742 30.896368,234.550842 
	C30.850897,232.962753 29.804464,230.732178 28.520487,229.954926 
	C16.272591,222.540649 6.275289,213.400742 2.877648,198.744400 
	C2.752119,198.202911 2.026615,197.800491 1.290357,197.666626 
	C1.000000,194.638718 1.000000,191.277420 1.468657,187.458069 
	C7.404548,187.000000 12.887813,187.259323 18.334232,186.922623 
	C23.188200,186.622574 28.001404,185.663162 32.909492,185.382202 
	C35.692936,202.399170 55.586029,210.504410 69.339172,199.600388 
	C73.353714,196.417480 75.282135,190.603363 78.564880,186.083801 
	C89.253090,186.113022 99.543182,186.053757 109.833275,185.994476 
z"/>
<path fill="#E6E03C" opacity="1.000000" stroke="none" 
	d="
M109.903427,185.539459 
	C99.543182,186.053757 89.253090,186.113022 78.494843,185.634613 
	C78.019966,184.099579 77.895927,183.086823 78.024445,182.107208 
	C79.510078,170.783279 67.164589,158.217743 54.822487,158.870438 
	C43.118580,159.489349 34.414501,167.640915 32.494003,181.182877 
	C32.293125,181.493668 32.336212,181.694778 32.722073,182.224213 
	C32.881607,183.387665 32.857101,184.191193 32.832596,184.994720 
	C28.001404,185.663162 23.188200,186.622574 18.334232,186.922623 
	C12.887813,187.259323 7.404548,187.000000 1.468657,187.000000 
	C1.000000,180.978851 1.000000,174.957703 0.999999,168.468277 
	C1.628593,167.837112 2.714730,167.819824 2.819582,167.490311 
	C6.449806,156.081802 13.140716,146.645706 22.352482,139.288879 
	C38.567398,126.339088 58.870811,121.841820 79.563965,133.318344 
	C93.703911,141.160446 103.724953,152.827469 108.024811,168.629608 
	C109.459190,173.901001 109.367592,179.587631 109.903427,185.539459 
z"/>
<path fill="#B2CD4D" opacity="1.000000" stroke="none" 
	d="
M723.041016,412.884155 
	C733.491577,418.901123 744.622864,424.013580 754.185547,431.210297 
	C762.397400,437.390472 765.089050,449.256317 759.439941,459.894562 
	C751.562256,474.729889 742.963867,489.185211 734.568359,503.742249 
	C725.269287,519.865845 715.899170,535.948914 706.467773,551.995422 
	C700.516052,562.121643 694.624268,572.295105 688.288513,582.180115 
	C681.383606,592.953369 666.755127,594.568481 656.008118,588.405640 
	C633.057190,575.244812 610.187561,561.942261 587.282654,548.701172 
	C571.462219,539.555542 555.666870,530.365295 539.765747,521.362122 
	C538.393127,520.585022 535.954834,520.377136 534.616333,521.071167 
	C527.290527,524.869934 519.791077,527.307617 511.428467,528.185242 
	C497.311829,529.666443 484.703033,526.198608 473.782715,517.792908 
	C460.435699,507.519318 452.642334,493.850647 451.964508,476.546661 
	C451.302795,459.652863 456.705719,445.127106 469.005371,433.603119 
	C492.470367,411.618042 531.140808,414.511017 550.233459,440.582245 
	C557.326111,450.267365 561.671936,460.780243 560.944641,472.955170 
	C560.757935,476.079071 562.040588,477.527557 564.655701,479.033539 
	C593.374329,495.571686 621.994324,512.280945 650.659485,528.912170 
	C653.741516,530.700317 656.939331,532.288940 660.235901,534.051636 
	C674.816345,508.859558 689.354675,483.740112 704.253418,457.998016 
	C680.856201,444.535309 657.560730,431.131134 634.442261,417.162354 
	C636.579102,416.398499 638.538635,416.028839 640.498779,416.025818 
	C665.900269,415.986664 691.301758,416.012726 716.703308,415.979370 
	C719.251099,415.976044 722.290771,416.694000 723.041016,412.884155 
M529.013062,475.833099 
	C529.187561,475.203094 529.513245,474.573273 529.513977,473.943054 
	C529.524475,464.620911 522.679199,455.090088 513.818909,452.026093 
	C504.518494,448.809845 494.108856,452.208282 487.750000,460.830505 
	C483.126526,467.099670 482.126343,478.127533 487.546692,486.128357 
	C493.013855,494.198425 502.123352,498.112213 511.598694,495.981232 
	C521.209595,493.819763 527.970154,486.313751 529.013062,475.833099 
z"/>
<path fill="#B2CD4D" opacity="1.000000" stroke="none" 
	d="
M79.832108,417.993958 
	C97.276924,428.202423 114.704536,438.440430 132.171021,448.611694 
	C152.771393,460.607880 173.378967,472.592133 194.033264,484.495087 
	C210.174850,493.797363 226.430664,502.901459 242.567123,512.212524 
	C265.757507,525.593811 288.893036,539.070251 312.030884,552.542297 
	C314.927948,554.229126 317.266418,554.992859 320.746826,552.895264 
	C337.396271,542.860962 354.246063,533.153076 371.148865,523.547729 
	C379.170135,518.989502 387.830475,518.204468 396.001251,522.736816 
	C404.251678,527.313293 409.132477,534.775391 408.880096,544.420654 
	C408.639893,553.600464 404.605133,561.114685 396.352539,565.862915 
	C374.702911,578.319214 352.923737,590.555847 331.427643,603.271301 
	C319.110779,610.557007 308.279053,607.187317 297.153412,600.586670 
	C276.514557,588.342163 255.657532,576.465576 234.901749,564.417786 
	C210.183594,550.070068 185.513016,535.639954 160.753067,521.364807 
	C140.116592,509.467010 119.315704,497.853790 98.707970,485.906982 
	C79.480965,474.760559 60.376617,463.400787 41.292797,452.010071 
	C34.164581,447.755402 31.518040,440.786957 31.048553,432.913727 
	C30.771364,428.265289 31.010578,423.586060 31.508476,418.466675 
	C36.422684,418.341797 40.850143,418.994080 45.268463,418.937103 
	C56.791817,418.788605 68.311157,418.329315 79.832108,417.993958 
z"/>
<path fill="#BFD249" opacity="1.000000" stroke="none" 
	d="
M461.833496,349.994843 
	C463.851990,364.023041 457.414062,373.027496 445.326904,379.401459 
	C433.243927,385.773285 421.582642,392.944763 408.935883,399.889771 
	C347.052765,400.023804 285.970245,400.033813 224.887726,400.043823 
	C214.843857,394.435852 204.787262,388.850525 194.761780,383.209900 
	C190.085556,380.578918 185.474136,377.833008 180.825363,375.152985 
	C171.643997,369.859955 168.142044,361.498352 168.005417,351.351471 
	C167.945145,346.874969 168.008469,342.396759 168.549652,337.457703 
	C185.000244,336.994904 200.916855,336.993774 216.833481,336.992645 
	C217.641006,338.224121 218.160049,339.950104 219.298538,340.614166 
	C242.951172,354.410919 266.682526,368.072632 290.378082,381.795929 
	C297.710663,386.042603 304.920959,390.504822 312.323547,394.623352 
	C314.449768,395.806335 316.246216,397.429352 319.658112,395.416504 
	C346.724365,379.448608 374.047577,363.916138 401.297363,348.259552 
	C401.567596,348.104279 401.911865,348.077881 402.857178,348.224426 
	C405.860992,348.971649 408.226013,349.913696 410.597931,349.931244 
	C427.675690,350.057587 444.754791,349.996490 461.833496,349.994843 
z"/>
<path fill="#BED149" opacity="1.000000" stroke="none" 
	d="
M722.875977,412.575134 
	C722.290771,416.694000 719.251099,415.976044 716.703308,415.979370 
	C691.301758,416.012726 665.900269,415.986664 640.498779,416.025818 
	C638.538635,416.028839 636.579102,416.398499 634.285767,416.851868 
	C619.924622,409.160828 605.864197,401.272827 591.881104,393.250092 
	C582.681152,387.971619 573.685730,382.332367 564.428650,377.159027 
	C554.825684,371.792419 550.468384,363.765076 550.985046,352.905121 
	C551.048218,351.575867 551.007690,350.241669 551.548706,348.453125 
	C568.338867,347.997559 584.596191,348.073700 600.851013,347.906342 
	C602.922607,347.885010 604.981079,346.592499 607.045654,345.888916 
	C614.606018,350.047485 622.233215,354.089844 629.713013,358.388580 
	C645.677856,367.563690 661.586243,376.837585 677.480164,386.135406 
	C691.533081,394.356323 705.530457,402.672363 719.569397,410.917511 
	C720.544312,411.490082 721.660400,411.822144 722.875977,412.575134 
z"/>
<path fill="#B7CF4B" opacity="1.000000" stroke="none" 
	d="
M225.036041,400.360901 
	C285.970245,400.033813 347.052765,400.023804 408.609314,400.022217 
	C393.043854,409.352020 377.017700,418.696472 360.959747,427.985992 
	C351.649384,433.372040 341.950470,438.165619 333.033508,444.132965 
	C321.569611,451.804718 310.827789,450.516113 299.664886,443.922607 
	C282.668762,433.883667 265.554077,424.045410 248.481918,414.135345 
	C240.725677,409.632996 232.950790,405.162750 225.036041,400.360901 
z"/>
<path fill="#CCD645" opacity="1.000000" stroke="none" 
	d="
M31.089956,263.454712 
	C47.123569,263.050568 63.080112,263.110077 79.434570,263.080994 
	C79.877876,290.683014 79.923271,318.373657 79.442612,346.529907 
	C62.999996,346.994263 47.083443,346.992981 31.166887,346.991699 
	C31.115555,319.300598 31.064222,291.609467 31.089956,263.454712 
z"/>
<path fill="#DDDD3F" opacity="1.000000" stroke="none" 
	d="
M492.833496,179.995468 
	C493.014862,201.751221 485.315582,219.049301 465.173645,229.521057 
	C463.693451,230.290619 463.021088,232.613922 461.445190,234.605896 
	C445.333710,234.995956 429.750183,234.995010 414.166656,234.994080 
	C414.361755,232.057419 413.149445,230.375381 410.368408,228.955933 
	C394.531982,220.873016 385.525299,207.997726 383.986908,190.120071 
	C383.693329,186.708328 383.340454,183.301666 383.455597,179.536743 
	C394.127441,182.552094 404.483765,181.166168 414.909912,180.417114 
	C415.662781,184.154938 415.986450,187.593475 417.088409,190.761246 
	C419.677338,198.203506 431.949860,206.087585 438.926941,204.937729 
	C452.081451,202.769821 460.944153,193.899017 461.575562,180.026031 
	C472.268127,180.036667 482.550812,180.016068 492.833496,179.995468 
z"/>
<path fill="#E6E03C" opacity="1.000000" stroke="none" 
	d="
M492.904175,179.579865 
	C482.550812,180.016068 472.268127,180.036667 461.501648,179.644043 
	C460.677246,177.969360 460.355286,176.702560 459.993256,175.447296 
	C456.096680,161.937042 440.861176,155.274078 428.216919,161.255539 
	C420.131775,165.080292 416.691925,171.892151 414.834442,179.994766 
	C404.483765,181.166168 394.127441,182.552094 383.531494,179.088226 
	C385.376648,159.726089 395.068390,145.324081 411.301086,134.913193 
	C426.310333,125.286964 442.247101,123.998276 458.023285,131.247864 
	C475.965332,139.492722 487.836853,153.592789 491.985413,173.420090 
	C492.383057,175.320618 492.648193,177.248856 492.904175,179.579865 
z"/>
<path fill="#E4DF3D" opacity="1.000000" stroke="none" 
	d="
M551.167114,204.993195 
	C551.110046,186.038406 550.752258,167.078232 551.092224,148.130569 
	C551.358154,133.308121 569.949158,122.657623 584.117126,128.527176 
	C595.224243,133.128677 599.725647,141.913391 599.929077,153.171387 
	C600.211365,168.798325 599.981445,184.434509 599.575439,200.649597 
	C597.074219,206.063919 593.048462,206.241959 588.511719,206.074829 
	C581.028320,205.799179 573.524780,206.121628 566.034851,205.957047 
	C561.074280,205.848038 556.122742,205.328781 551.167114,204.993195 
z"/>
<path fill="#BED149" opacity="1.000000" stroke="none" 
	d="
M31.090914,347.455444 
	C47.083443,346.992981 62.999996,346.994263 79.374512,346.993652 
	C79.877686,370.349854 79.922897,393.707977 79.900101,417.530029 
	C68.311157,418.329315 56.791817,418.788605 45.268463,418.937103 
	C40.850143,418.994080 36.422684,418.341797 31.583158,418.003235 
	C31.116264,394.635590 31.065601,371.277374 31.090914,347.455444 
z"/>
<path fill="#CBD645" opacity="1.000000" stroke="none" 
	d="
M606.879272,345.575867 
	C604.981079,346.592499 602.922607,347.885010 600.851013,347.906342 
	C584.596191,348.073700 568.338867,347.997559 551.624268,347.994751 
	C551.115723,324.635590 551.065186,301.278107 551.548828,277.458618 
	C554.076843,276.997742 556.071655,277.039673 558.064453,276.993469 
	C571.987061,276.670654 585.909363,276.329651 599.831726,275.994446 
	C599.885437,295.265625 600.251099,314.544006 599.807007,333.803680 
	C599.669983,339.746063 601.228333,343.347961 606.879272,345.575867 
z"/>
<path fill="#E4DF3D" opacity="1.000000" stroke="none" 
	d="
M168.168274,201.993576 
	C168.111404,184.541031 167.256378,167.043457 168.238159,149.649536 
	C169.097321,134.427719 178.934464,126.246536 193.050934,126.218086 
	C206.977737,126.190018 217.148407,137.176483 217.034058,151.191757 
	C216.898407,167.815536 216.983276,184.441116 216.493011,201.561035 
	C214.231033,202.366013 212.443466,202.970154 210.667007,202.939148 
	C196.499573,202.691925 182.334244,202.324295 168.168274,201.993576 
z"/>
<path fill="#D7DB41" opacity="1.000000" stroke="none" 
	d="
M599.901062,275.530640 
	C585.909363,276.329651 571.987061,276.670654 558.064453,276.993469 
	C556.071655,277.039673 554.076843,276.997742 551.624939,276.995026 
	C551.115723,253.302368 551.064575,229.611298 551.090271,205.456696 
	C556.122742,205.328781 561.074280,205.848038 566.034851,205.957047 
	C573.524780,206.121628 581.028320,205.799179 588.511719,206.074829 
	C593.048462,206.241959 597.074219,206.063919 599.505737,201.113281 
	C599.877747,225.685028 599.924072,250.375931 599.901062,275.530640 
z"/>
<path fill="#CDD744" opacity="1.000000" stroke="none" 
	d="
M216.901627,336.528809 
	C200.916855,336.993774 185.000244,336.994904 168.625656,336.994324 
	C168.116821,313.968811 168.065948,290.945038 168.548935,267.459106 
	C181.216629,266.997986 193.351257,267.077118 205.483810,266.953735 
	C209.269852,266.915222 213.050308,266.329498 216.833328,265.994263 
	C216.878799,289.351166 216.924286,312.708099 216.901627,336.528809 
z"/>
<path fill="#D8DB41" opacity="1.000000" stroke="none" 
	d="
M216.902679,265.530518 
	C213.050308,266.329498 209.269852,266.915222 205.483810,266.953735 
	C193.351257,267.077118 181.216629,266.997986 168.624771,266.995514 
	C168.116150,245.636246 168.065567,224.278427 168.091614,202.457092 
	C182.334244,202.324295 196.499573,202.691925 210.667007,202.939148 
	C212.443466,202.970154 214.231033,202.366013 216.423065,202.024628 
	C216.879120,223.017654 216.925568,244.042221 216.902679,265.530518 
z"/>
<path fill="#C9D546" opacity="1.000000" stroke="none" 
	d="
M461.902588,349.531006 
	C444.754791,349.996490 427.675690,350.057587 410.597931,349.931244 
	C408.226013,349.913696 405.860992,348.971649 403.221527,348.175690 
	C405.373108,346.356201 407.734467,344.708740 410.235016,343.310028 
	C413.065613,341.726685 414.156067,339.675079 414.102081,336.256805 
	C413.873993,321.814941 414.011993,307.367310 414.549500,292.459503 
	C430.666290,291.996338 446.249725,291.995453 461.833130,291.994568 
	C461.879303,311.018768 461.925507,330.042999 461.902588,349.531006 
z"/>
<path fill="#D4D942" opacity="1.000000" stroke="none" 
	d="
M461.902710,291.530823 
	C446.249725,291.995453 430.666290,291.996338 414.624878,291.995850 
	C414.116364,273.303467 414.065857,254.612442 414.091003,235.457733 
	C429.750183,234.995010 445.333710,234.995956 461.375305,234.995514 
	C461.879669,253.685120 461.925964,272.376099 461.902710,291.530823 
z"/>
<path fill="#000000" opacity="1.000000" stroke="none" 
	d="
M32.909492,185.382202 
	C32.857101,184.191193 32.881607,183.387665 32.751072,182.036163 
	C32.596031,181.488190 32.579247,181.104797 32.579247,181.104797 
	C34.414501,167.640915 43.118580,159.489349 54.822487,158.870438 
	C67.164589,158.217743 79.510078,170.783279 78.024445,182.107208 
	C77.895927,183.086823 78.019966,184.099579 78.096725,185.546112 
	C75.282135,190.603363 73.353714,196.417480 69.339172,199.600388 
	C55.586029,210.504410 35.692936,202.399170 32.909492,185.382202 
z"/>
<path fill="#DBDC40" opacity="1.000000" stroke="none" 
	d="
M32.494003,181.182877 
	C32.579247,181.104797 32.596031,181.488190 32.567032,181.676239 
	C32.336212,181.694778 32.293125,181.493668 32.494003,181.182877 
z"/>
<path fill="#000000" opacity="1.000000" stroke="none" 
	d="
M529.007935,476.245605 
	C527.970154,486.313751 521.209595,493.819763 511.598694,495.981232 
	C502.123352,498.112213 493.013855,494.198425 487.546692,486.128357 
	C482.126343,478.127533 483.126526,467.099670 487.750000,460.830505 
	C494.108856,452.208282 504.518494,448.809845 513.818909,452.026093 
	C522.679199,455.090088 529.524475,464.620911 529.513977,473.943054 
	C529.513245,474.573273 529.187561,475.203094 529.007935,476.245605 
z"/>
<path fill="#000000" opacity="1.000000" stroke="none" 
	d="
M414.909912,180.417114 
	C416.691925,171.892151 420.131775,165.080292 428.216919,161.255539 
	C440.861176,155.274078 456.096680,161.937042 459.993256,175.447296 
	C460.355286,176.702560 460.677246,177.969360 461.091797,179.612793 
	C460.944153,193.899017 452.081451,202.769821 438.926941,204.937729 
	C431.949860,206.087585 419.677338,198.203506 417.088409,190.761246 
	C415.986450,187.593475 415.662781,184.154938 414.909912,180.417114 
z"/>
</svg>