<?xml version="1.0" encoding="UTF-8" standalone="no"?><!DOCTYPE svg PUBLIC "-//W3C//DTD SVG 1.1//EN" "http://www.w3.org/Graphics/SVG/1.1/DTD/svg11.dtd"><svg width="100%" height="100%" viewBox="0 0 2084 2084" version="1.1" xmlns="http://www.w3.org/2000/svg" xmlns:xlink="http://www.w3.org/1999/xlink" xml:space="preserve" xmlns:serif="http://www.serif.com/" style="fill-rule:evenodd;clip-rule:evenodd;stroke-linejoin:round;stroke-miterlimit:2;"><path d="M474.513,0l1134.34,0c260.975,0 474.476,213.538 474.476,474.513l0,1134.34c0,260.975 -213.501,474.513 -474.476,474.513l-1134.34,0c-260.975,0 -474.513,-213.538 -474.513,-474.513l0,-1134.34c0,-260.975 213.538,-474.513 474.513,-474.513Zm802.58,878.822l-673.74,0c-84.66,0 -153.876,69.179 -153.876,153.84l0,16.654c0,68.556 45.388,126.974 107.612,146.739c12.334,3.404 25.365,5.234 38.797,5.234l691.31,0c19.911,-2.379 39.347,-6.113 58.27,-11.237c6.589,-2.891 12.958,-6.259 18.997,-10.065c157.098,-56.661 269.389,-207.023 269.389,-383.666c-0,-179.571 -116.098,-332.057 -277.295,-386.448c-7.869,-4.283 -16.142,-7.87 -24.707,-10.725c-14.567,-3.403 -29.392,-6.002 -44.471,-7.759c-1.318,-0.074 -2.563,-0.074 -3.844,-0.074l-680.182,0c-84.075,0 -152.888,68.227 -153.876,152.01l0,18.521c0.988,83.783 69.801,152.009 153.876,152.009l690.285,0c38.102,7.687 66.762,41.325 66.762,81.66c0,45.973 -37.298,83.307 -83.307,83.307Zm-654.267,492.558c88.578,0 160.355,71.777 160.355,160.355c0,88.541 -71.777,160.282 -160.355,160.282c-88.541,0 -160.318,-71.741 -160.318,-160.282c-0,-88.578 71.777,-160.355 160.318,-160.355Z" style="fill:#fff;"/><rect x="285.834" y="223.111" width="1554.47" height="1661.49" style="fill:#fff;"/><path d="M1596.71,1231.79l135.071,-0c95.344,-0 143.017,33.212 143.017,99.636c-0,45.52 -16.837,80.967 -50.51,106.34c-33.673,25.373 -80.4,38.06 -140.179,38.06l-230.416,-0c-49.942,-0 -90.425,-13.242 -121.45,-39.727c-31.025,-26.484 -46.537,-61.293 -46.537,-104.425c-0,-29.511 10.215,-69.616 30.646,-120.315l106.695,-259.927c6.054,-15.134 9.08,-29.133 9.08,-41.997c0,-49.185 -24.971,-73.778 -74.913,-73.778c-38.592,-0 -76.805,17.404 -114.64,52.212c-37.835,34.808 -68.103,80.967 -90.804,138.476l-127.126,313.275c-41.619,101.398 -102.155,152.097 -181.608,152.097c-31.025,-0 -57.51,-10.216 -79.454,-30.647c-21.944,-20.431 -32.917,-44.645 -32.917,-72.643c0,-21.944 5.676,-47.672 17.026,-77.184l12.486,-30.646l128.261,-316.679c11.35,-27.998 17.025,-49.943 17.025,-65.833c0,-16.648 -7.567,-31.214 -22.701,-43.7c-15.134,-12.485 -32.916,-18.728 -53.347,-18.728c-81.724,-0 -146.422,59.022 -194.094,177.068l-132.801,325.76c-41.618,102.154 -101.776,153.232 -180.473,153.232c-31.025,-0 -57.699,-10.027 -80.021,-30.079c-22.323,-20.053 -33.484,-44.456 -33.484,-73.211c-0,-22.701 5.675,-48.429 17.025,-77.184l12.486,-30.646l225.875,-556.175c31.782,-77.941 79.454,-116.911 143.017,-116.911c65.833,0 106.695,31.197 122.585,93.589c51.456,-44.102 93.264,-73.371 125.424,-87.807c32.159,-14.448 71.697,-21.672 118.613,-21.672c101.398,-0 177.446,44.479 228.145,133.439c84.75,-88.96 180.095,-133.439 286.033,-133.439c72.643,-0 133.369,21.11 182.176,63.332c48.807,42.222 73.211,94.144 73.211,155.768c-0,38.793 -8.324,78.732 -24.971,119.819l-121.451,301.25Z" style="fill:#191919;fill-rule:nonzero;"/></svg>