<?xml version="1.0" encoding="UTF-8"?>
<svg version="1.1" xmlns="http://www.w3.org/2000/svg" width="500" height="500">
<path d="M0 0 C0.90045044 -0.00705963 1.80090088 -0.01411926 2.7286377 -0.02139282 C40.56271231 -0.2507174 40.56271231 -0.2507174 57.20703125 3.203125 C58.69759033 3.50911621 58.69759033 3.50911621 60.21826172 3.82128906 C82.220508 8.47437301 102.98300327 15.38050853 123.20703125 25.203125 C123.92810059 25.55068848 124.64916992 25.89825195 125.39208984 26.25634766 C183.08785103 54.41594201 228.273258 107.04791745 249.3125 167.4375 C256.90979679 190.17968485 262.28374061 213.92910166 262.41015625 237.99609375 C262.41721588 238.89654419 262.42427551 239.79699463 262.43154907 240.72473145 C262.66087365 278.55880606 262.66087365 278.55880606 259.20703125 295.203125 C258.90104004 296.69368408 258.90104004 296.69368408 258.58886719 298.21435547 C253.93578324 320.21660175 247.02964772 340.97909702 237.20703125 361.203125 C236.85946777 361.92419434 236.5119043 362.64526367 236.15380859 363.38818359 C207.99421424 421.08394478 155.3622388 466.26935175 94.97265625 487.30859375 C72.2304714 494.90589054 48.48105459 500.27983436 24.4140625 500.40625 C23.06338684 500.41683945 23.06338684 500.41683945 21.6854248 500.42764282 C-16.14864981 500.6569674 -16.14864981 500.6569674 -32.79296875 497.203125 C-34.28352783 496.89713379 -34.28352783 496.89713379 -35.80419922 496.58496094 C-57.8064455 491.93187699 -78.56894077 485.02574147 -98.79296875 475.203125 C-99.51403809 474.85556152 -100.23510742 474.50799805 -100.97802734 474.14990234 C-158.67378853 445.99030799 -203.8591955 393.35833255 -224.8984375 332.96875 C-232.49573429 310.22656515 -237.86967811 286.47714834 -237.99609375 262.41015625 C-238.00315338 261.50970581 -238.01021301 260.60925537 -238.01748657 259.68151855 C-238.24681115 221.84744394 -238.24681115 221.84744394 -234.79296875 205.203125 C-234.48697754 203.71256592 -234.48697754 203.71256592 -234.17480469 202.19189453 C-229.52172074 180.18964825 -222.61558522 159.42715298 -212.79296875 139.203125 C-212.44540527 138.48205566 -212.0978418 137.76098633 -211.73974609 137.01806641 C-183.58015174 79.32230522 -130.9481763 34.13689825 -70.55859375 13.09765625 C-47.8164089 5.50035946 -24.06699209 0.12641564 0 0 Z " fill="#FEFEFE" transform="translate(237.79296875,-0.203125)"/>
<path d="M0 0 C64.02 0 128.04 0 194 0 C191.7810219 16.64233577 191.7810219 16.64233577 190.125 24.375 C187.7619509 36.19024552 185.90366444 48.10209727 184 60 C142.75 60 101.5 60 59 60 C58.34 64.95 57.68 69.9 57 75 C56.38621691 78.42923346 55.75547159 81.83801942 55.0625 85.25 C53.06746785 95.11843064 51.5369305 105.05205503 50 115 C57.81103038 115.11091099 65.61961579 115.14323654 73.43139648 115.12207031 C76.08752245 115.11842901 78.73889107 115.14362456 81.39526367 115.18164062 C85.22204826 115.23328608 89.04413425 115.22034322 92.87109375 115.1953125 C94.04957382 115.22505157 95.22805389 115.25479065 96.44224548 115.28543091 C101.41892971 115.19986238 104.70168787 115.05992805 108.64187622 111.84320068 C111.02018072 109.25238072 111.02018072 109.25238072 113.01063538 106.56051636 C118.65907819 99.29039099 127.04735184 94.40551462 135 90 C135.70898438 89.58105469 136.41796875 89.16210938 137.1484375 88.73046875 C166.22964987 72.65927244 208.46590667 71.31086911 239.9375 80.25 C256.05197465 85.18659253 270.8717023 95.37371533 279.7890625 109.91796875 C285.29477255 120.40051523 287.57101531 130.4443782 287.5 142.25 C287.49427979 143.37317627 287.48855957 144.49635254 287.48266602 145.65356445 C287.0507677 166.35414549 281.16679005 183.20811742 271 201 C249.88 201 228.76 201 207 201 C208.98 197.7 210.96 194.4 213 191 C214.4601928 187.21033562 214.4601928 187.21033562 215.3125 183.625 C215.61800781 182.46226562 215.92351562 181.29953125 216.23828125 180.1015625 C216.48964844 179.07804688 216.74101562 178.05453125 217 177 C217.26369385 176.05060547 217.26369385 176.05060547 217.53271484 175.08203125 C219.55266006 166.08198275 219.55055693 153.26713107 215.390625 144.9765625 C211.14639326 138.94403087 205.34277453 134.3339574 198 133 C185.14432168 131.89630815 173.32307455 133.89656264 163 142 C153.46339236 151.86545618 149.23159347 164.27036387 147.5 177.625 C146.67391616 183.54065102 145.78402526 189.39988442 144.5625 195.25 C142.99083131 202.80388405 141.73460415 210.39910465 140.48510742 218.01220703 C139.4923356 224.05844001 138.46099738 230.09487509 137.375 236.125 C132.30381019 258.15057389 132.30381019 258.15057389 137.41015625 279.09375 C141.8205972 284.63945252 146.43825127 287.46728572 153.54638672 288.29736328 C156.32932608 288.43799724 159.08876219 288.45857883 161.875 288.4375 C162.80441406 288.45748047 163.73382813 288.47746094 164.69140625 288.49804688 C174.76792897 288.49102001 183.69723736 285.03462665 191 278 C197.50351791 270.40487506 201.06022766 260.69886168 203 251 C224.45 251 245.9 251 268 251 C268 258.059299 267.68487127 262.88231813 266 269.4375 C265.78069824 270.29714355 265.56139648 271.15678711 265.33544922 272.04248047 C258.6442528 296.8649542 244.0589911 317.71217432 221.82421875 331.01171875 C210.80772474 337.00232223 198.27206051 340.71373873 186 343 C185.22274567 343.15917404 184.44549133 343.31834808 183.64468384 343.48234558 C177.2225667 344.74650089 171.06179568 345.34195631 164.5234375 345.40625 C163.56255722 345.42009735 162.60167694 345.4339447 161.61167908 345.44821167 C158.53261765 345.48254169 155.45424368 345.49538124 152.375 345.5 C151.32597504 345.50267883 150.27695007 345.50535767 149.19613647 345.50811768 C133.14903009 345.49921788 118.17637181 344.74484121 103 339 C102.33661621 338.74911621 101.67323242 338.49823242 100.98974609 338.23974609 C97.42186513 336.8139325 94.20912623 335.10399667 91 333 C90.20078125 332.48953125 89.4015625 331.9790625 88.578125 331.453125 C76.92175821 323.23890679 70.74336175 310.75860117 67.890625 297.05859375 C66.66618465 289.92147507 66.60588589 282.78678347 66.625 275.5625 C66.62481873 274.50361572 66.62481873 274.50361572 66.62463379 273.42333984 C66.65144812 262.3808228 67.81945122 252.14085712 70.44873047 241.41259766 C71.44758455 237.04117338 72.10986241 232.61441837 72.8125 228.1875 C75.63973903 210.75088776 78.8614721 193.38261606 82 176 C67.81 176 53.62 176 39 176 C38.34 180.62 37.68 185.24 37 190 C36.22851727 194.4425859 35.4407128 198.87823802 34.625 203.3125 C32.71875606 213.79719559 30.94633867 224.29373974 29.34423828 234.8293457 C28.60102246 239.63039081 27.71659959 244.28980119 26.4753418 248.98486328 C25.33789836 253.80687568 24.814131 258.76174935 24.14453125 263.66601562 C24.02464844 264.50970703 23.90476562 265.35339844 23.78125 266.22265625 C23.6275293 267.34812866 23.6275293 267.34812866 23.47070312 268.49633789 C22.8659198 271.71317038 21.89921451 274.85274923 21 278 C-1.77 278 -24.54 278 -48 278 C-45.74270356 259.94162849 -45.74270356 259.94162849 -44.125 252.5625 C-42.52438088 244.92571151 -41.19757735 237.27242036 -40 229.5625 C-38.65783126 220.94205063 -37.16812517 212.37133787 -35.5 203.80834961 C-33.6961981 194.52246901 -32.09571463 185.20364172 -30.49560547 175.88085938 C-29.69221558 171.21090829 -28.87662583 166.54308917 -28.0625 161.875 C-26.94441076 155.46283896 -25.83619865 149.04912982 -24.7421875 142.6328125 C-21.03246849 120.91419509 -21.03246849 120.91419509 -19.375 113 C-17.94530177 106.15037232 -16.98918694 99.25255456 -16.08935547 92.31640625 C-15.42764849 87.36913474 -14.37494543 82.80693814 -13 78 C-12.42445179 74.69999924 -11.99530968 71.38384384 -11.5625 68.0625 C-10.53238289 60.53407164 -9.33427505 53.09270579 -7.88671875 45.6328125 C-6.67476287 39.3708014 -5.56136942 33.09079468 -4.4375 26.8125 C-4.22754395 25.648396 -4.01758789 24.48429199 -3.80126953 23.28491211 C-3.59743652 22.14546143 -3.39360352 21.00601074 -3.18359375 19.83203125 C-3.00368896 18.82889893 -2.82378418 17.8257666 -2.63842773 16.79223633 C-1.69777247 11.20478003 -0.86156868 5.60019639 0 0 Z " fill="#3893D0" transform="translate(131,80)"/>
<path d="M0 0 C64.02 0 128.04 0 194 0 C191.7810219 16.64233577 191.7810219 16.64233577 190.125 24.375 C187.7619509 36.19024552 185.90366444 48.10209727 184 60 C142.75 60 101.5 60 59 60 C58.34 64.95 57.68 69.9 57 75 C56.3869574 78.49210909 55.75593903 81.96272626 55.0625 85.4375 C54.71327696 87.22651085 54.36432172 89.01557399 54.015625 90.8046875 C53.84482422 91.67448242 53.67402344 92.54427734 53.49804688 93.44042969 C52.50005914 98.56930389 51.56242294 103.70956519 50.61328125 108.84765625 C50.14655504 111.2466884 49.59275968 113.62896129 49 116 C67.15 116 85.3 116 104 116 C101.36 120.62 98.72 125.24 96 130 C93.87342407 134.66210877 91.8605476 139.24033047 90 144 C89.61972656 144.95003906 89.23945313 145.90007812 88.84765625 146.87890625 C85.3789376 156.29025988 84.63625727 164.6370373 83 175 C68.48 175 53.96 175 39 175 C38.01 182.425 38.01 182.425 37 190 C36.23572411 194.46607475 35.45057972 198.92067938 34.625 203.375 C32.71535682 213.83868168 30.94319903 224.3137969 29.34423828 234.82958984 C28.60097458 239.63054074 27.71657818 244.28988216 26.4753418 248.98486328 C25.33789836 253.80687568 24.814131 258.76174935 24.14453125 263.66601562 C24.02464844 264.50970703 23.90476562 265.35339844 23.78125 266.22265625 C23.6275293 267.34812866 23.6275293 267.34812866 23.47070312 268.49633789 C22.8659198 271.71317038 21.89921451 274.85274923 21 278 C-1.77 278 -24.54 278 -48 278 C-45.74270356 259.94162849 -45.74270356 259.94162849 -44.125 252.5625 C-42.52438088 244.92571151 -41.19757735 237.27242036 -40 229.5625 C-38.65783126 220.94205063 -37.16812517 212.37133787 -35.5 203.80834961 C-33.6961981 194.52246901 -32.09571463 185.20364172 -30.49560547 175.88085938 C-29.69221558 171.21090829 -28.87662583 166.54308917 -28.0625 161.875 C-26.94441076 155.46283896 -25.83619865 149.04912982 -24.7421875 142.6328125 C-21.03246849 120.91419509 -21.03246849 120.91419509 -19.375 113 C-17.94530177 106.15037232 -16.98918694 99.25255456 -16.08935547 92.31640625 C-15.42764849 87.36913474 -14.37494543 82.80693814 -13 78 C-12.42445179 74.69999924 -11.99530968 71.38384384 -11.5625 68.0625 C-10.53238289 60.53407164 -9.33427505 53.09270579 -7.88671875 45.6328125 C-6.67476287 39.3708014 -5.56136942 33.09079468 -4.4375 26.8125 C-4.22754395 25.648396 -4.01758789 24.48429199 -3.80126953 23.28491211 C-3.59743652 22.14546143 -3.39360352 21.00601074 -3.18359375 19.83203125 C-3.00368896 18.82889893 -2.82378418 17.8257666 -2.63842773 16.79223633 C-1.69777247 11.20478003 -0.86156868 5.60019639 0 0 Z " fill="#010101" transform="translate(131,80)"/>
</svg>
