<svg width="48" height="48" viewBox="0 0 48 48" fill="none" xmlns="http://www.w3.org/2000/svg">
<rect width="48" height="48" rx="8" fill="#222814"/>
<path d="M13.4085 35C13.041 35 12.6654 34.9521 12.2897 34.8482C10.5339 34.3529 9.3498 32.8189 9.3498 31.0293V18.8458L5.46257 23.7512L2 20.9869L7.25102 14.6994C8.30449 13.2853 10.1093 12.6701 11.7997 13.1814C13.4412 13.6767 14.5028 15.0908 14.5028 16.7845V30.0307L21.8444 14.939C22.8571 13.3572 24.6945 12.6621 26.4503 13.1574C28.1489 13.6368 29.2841 15.1228 29.2841 16.8564V30.0227L36.5277 14.947C37.4587 13.3971 39.2716 12.6781 41.0438 13.1494C42.8159 13.6208 44 15.1388 44 16.9363V34.4168H38.8551V18.8538L31.6115 33.1145C30.705 34.6165 28.9411 35.3116 27.218 34.8562C25.405 34.3768 24.1392 32.763 24.1392 30.9335V18.8458L16.7976 33.1305C16.0299 34.3369 14.756 35 13.4167 35H13.4085Z" fill="#FFC778"/>
</svg>
