<svg version="1.1" id="Layer_1" xmlns="http://www.w3.org/2000/svg" xmlns:xlink="http://www.w3.org/1999/xlink" x="0px" y="0px" width="500" viewBox="0 0 500 475" enable-background="new 0 0 320 304" xml:space="preserve" height="475"><path fill="#fcfcfc" opacity="1.000000" stroke="none" d="M290.778 256.317c-4.188 7.435 -9.847 12.646 -16.125 17.474 -66.442 51.083 -132.794 102.284 -199.19 153.427 -1.727 1.328 -2.997 3.729 -5.896 2.964 -0.919 -2.771 1.185 -4.383 2.403 -6.195Q144.323 316.419 216.758 208.906c6.138 -9.112 15.933 -14.094 24.239 -20.675C303.224 138.927 365.635 89.854 428.023 40.752c1.776 -1.396 3.255 -3.433 8.255 -3.784 -48.956 73.8 -97.075 146.336 -145.5 219.349m-57.776 -36.536c-7.284 9.599 -8.297 20.813 -2.68 29.656 5.563 8.755 15.531 12.911 26.333 10.977 9.305 -1.667 17.206 -9.667 19.067 -19.308 1.911 -9.898 -2.597 -20.231 -11.125 -25.503 -10.284 -6.356 -19.606 -5.339 -31.597 4.177" stroke-width="1.5624999999999998"/><path fill="#fcfcfc" opacity="1.000000" stroke="none" d="M209.198 29.677c-25.823 -11.958 -53.969 -0.227 -63.979 26.729 -2.56 6.894 -6.106 9.433 -13.461 10.13 -37.214 3.531 -62.026 38.974 -53.219 75.188 3.075 12.646 3.075 12.646 -7.769 20.128 -33.641 23.216 -37.653 69.083 -8.086 97.391 5.065 4.849 3.167 7.323 -0.112 11.411 -4.359 5.43 -7.164 1.567 -10.138 -1.133 -34.177 -31.031 -31.544 -87.354 5.633 -116.708 4.481 -3.536 5.896 -6.852 4.938 -12.555 -6.817 -40.528 19.513 -79.019 59.933 -87.183 6.075 -1.229 8.763 -4.133 11.339 -9.005 14.56 -27.552 45.236 -40.552 73.239 -31.297 21.344 7.058 35.727 25.698 36.208 49.675 0.7 34.88 0.239 69.781 0.281 104.672 0.011 8.68 -7.516 10.099 -12.516 14.141 -3.394 -3.005 -2.172 -6.339 -2.183 -9.231 -0.13 -35.675 -0.13 -71.349 -0.156 -107.021 -0.013 -15.276 -6.177 -27.128 -19.953 -35.325" stroke-width="1.5624999999999998"/><path fill="#fcfcfc" opacity="1.000000" stroke="none" d="M47.797 305.737c18.703 -32.25 42.856 -58.192 76.44 -74.146 19.909 -9.456 40.82 -15.464 63.175 -14.82 2.469 0.073 5.19 -0.784 7.722 1.472 -1.481 3.573 -5.177 3.063 -7.813 3.859 -22.083 6.672 -42.888 15.781 -61.089 30.31 -3.641 2.903 -6.464 5.388 -2.945 10.125 0.422 0.567 0.489 1.484 0.516 2.247 0.167 4.989 -19.591 23.489 -24.255 21.745 -6.3 -2.359 -9.344 1.425 -12.653 4.753 -18.622 18.731 -33.927 40 -47.219 62.758 -4.128 7.067 -8.153 14.192 -13.169 20.894 1.75 -24.565 9.289 -47.261 21.292 -69.19" stroke-width="1.5624999999999998"/><path fill="#fcfcfc" opacity="1.000000" stroke="none" d="M440.099 262.003c31.844 -31 27.5 -77.745 -9.364 -101.271 -6.849 -4.37 -8.063 -8.69 -5.729 -16.106 5.177 -16.445 3.151 -32.398 -5.722 -47.278 -5.841 -9.794 -5.836 -10.489 3.487 -19.403 10.625 10.044 15.331 22.914 18.372 36.692a59.863 59.863 0 0 1 -0.25 27.06c-1.258 5.239 0.552 7.891 4.466 10.981 33.521 26.474 40.474 72.497 16.438 107.531 -4.753 6.925 -10.786 12.711 -17.427 17.75 -3.317 2.516 -4.653 4.781 -3.636 9.122 2.661 11.359 1.661 22.722 -1.523 33.878 -0.753 2.638 -0.942 5.739 -4.651 7.692 -2.617 -6.516 -6.521 -12.739 -7.386 -19.356 -0.878 -6.727 1.567 -13.872 -1.878 -20.375 -0.719 -0.229 -1.208 -0.531 -1.692 -0.516 -3.781 0.12 -8.961 3.839 -10.594 -2.271 -1.521 -5.7 2.661 -10.081 7.297 -12.294 6.847 -3.269 13.578 -6.516 19.784 -11.839" stroke-width="1.5624999999999998"/><path fill="#fcfcfc" opacity="1.000000" stroke="none" d="M360.067 277.641c3.442 -4 3.073 -7.013 -0.2 -10.558 -10.474 -11.341 -21.862 -21.539 -34.859 -29.922 -2.661 -1.719 -6.773 -2.911 -4.565 -7.565 2.261 -4.766 5.927 -4.016 9.922 -2.417 35.146 14.075 61.914 37.872 81.013 70.323 18.058 30.677 26.039 63.849 23.32 99.458 -0.128 1.688 0.448 3.727 -2.942 5.344 -2.872 -10.237 -5.909 -20.216 -9.386 -30.026 -7.786 -21.966 -17.805 -42.729 -31.253 -61.8 -2.531 -3.589 -4.55 -7.979 -10.328 -5.969 -0.422 0.146 -1.192 0.021 -1.484 -0.284 -7.523 -7.911 -17.167 -14.258 -19.237 -26.589" stroke-width="1.5624999999999998"/><path fill="#fcfcfc" opacity="1.000000" stroke="none" d="M339.406 331.628c-16.567 14.695 -32.661 29.094 -48.856 43.378 -2.992 2.641 -4.156 5.625 -4.094 9.583 0.18 11.708 0.347 23.433 -0.031 35.133 -0.188 5.766 1.458 9.489 6.38 12.935 8.555 5.984 11.052 16.656 7.177 25.729 -3.909 9.151 -12.903 14.698 -22.352 13.786 -10.013 -0.966 -17.683 -7.979 -19.403 -18.448 -1.425 -8.669 1.456 -16.222 8.739 -21.114 4.792 -3.219 6.146 -6.969 6.034 -12.375 -0.273 -13.271 0.073 -26.552 -0.167 -39.823 -0.091 -5.019 1.227 -8.864 4.901 -12.477 25.231 -24.808 51.776 -48.263 76.25 -73.847 3.073 -3.211 5.372 -2.755 8.375 0.388 8.802 9.208 8.901 9.849 -0.597 18.005a8138.672 8138.672 0 0 1 -22.354 19.146m-59.153 111.073c-4.575 0.052 -7.38 2.3 -8.023 6.839 -0.484 3.419 0.859 6.125 3.989 7.763 2.859 1.497 5.62 0.95 8.055 -0.886 4.808 -3.625 3.542 -9.386 -4.021 -13.716" stroke-width="1.5624999999999998"/><path fill="#fcfcfc" opacity="1.000000" stroke="none" d="M271.567 150.406c-3.688 2.945 -6.375 6.219 -10.153 7.839 -3.57 -2.198 -2.242 -5.37 -2.253 -7.987 -0.112 -27.594 -0.028 -55.19 -0.133 -82.784 -0.091 -24.044 9.253 -42.731 31.716 -52.729 23.315 -10.378 44.739 -5.081 63.974 10.716 5.888 4.839 10.886 10.69 13.903 17.669 2.724 6.302 6.255 10.37 13.599 10.497 2.383 0.042 5.206 0.516 7.815 3.698 -6.164 3.617 -9.648 10.7 -18.308 9.841 -6.922 -0.688 -10.833 -3.461 -13.253 -10.646 -10.683 -31.75 -52.063 -42.456 -74.052 -19.563 -6.995 7.284 -10.43 16.039 -10.435 26.125 -0.016 25.771 0.023 51.544 -0.052 77.317 -0.011 3.276 0.942 6.854 -2.372 10.011" stroke-width="1.5624999999999998"/><path fill="#fcfcfc" opacity="1.000000" stroke="none" d="M188.938 128.231c-0.094 11.675 -0.06 22.594 -0.336 33.503 -0.128 5.016 1.245 9.036 5.039 12.474 4.422 4.011 8.508 8.394 12.729 12.625 8.844 8.875 8.823 9.13 -1.823 18.464 -10.125 -9.011 -19.828 -18.583 -28.815 -28.886 -1.839 -2.106 -1.271 -4.95 -1.273 -7.526 -0.028 -16.114 -0.144 -32.231 0.05 -48.344 0.055 -4.565 -1.073 -7.586 -5.239 -10.219 -9.317 -5.891 -12.836 -16.828 -9.63 -27.31 2.641 -8.638 12.034 -15.578 21.245 -15.698 9.677 -0.125 19.313 6.487 22.362 15.349 3.497 10.161 0.8 20.653 -8.653 26.766 -7.586 4.903 -5.044 11.667 -5.653 18.802m-4.078 -44.945c-6.31 -2.667 -10.237 0.411 -11.958 5.979 -1.425 4.604 1.391 8.021 5.776 9.614 4 1.456 7.063 -0.503 9.425 -3.604 3.521 -4.622 1.255 -8.183 -3.239 -11.989" stroke-width="1.5624999999999998"/><path fill="#fcfcfc" opacity="1.000000" stroke="none" d="M226.141 471.953c-12.328 -0.724 -19.714 -5.82 -22.742 -15.177 -2.966 -9.167 -0.25 -17.675 8.8 -24.614 3.841 -2.948 4.875 -6.224 4.817 -10.656 -0.156 -11.958 -0.239 -23.922 0.005 -35.875 0.102 -4.875 -1.716 -8.302 -5.156 -11.555 -7.31 -6.909 -15.297 -13.175 -21.552 -21.016 7.784 -10.394 9.558 -10.558 18.086 -2.138 5.737 5.661 11.317 11.495 17.297 16.886 4.253 3.836 5.703 8.31 5.62 13.847 -0.195 13.255 -0.083 26.516 -0.128 39.773 -0.013 4.016 0.477 7.401 4.442 10.011 8.156 5.362 11.636 13.458 9.719 22.938 -1.987 9.823 -8.427 15.859 -19.208 17.578m5.945 -21.239c-0.469 -1.448 -0.622 -3.114 -1.461 -4.3 -3.028 -4.281 -7.003 -5.216 -11.234 -1.927 -3.489 2.708 -4.534 6.458 -1.552 10.104 3.292 4.023 7.442 4.278 11.5 0.974 1.13 -0.922 1.755 -2.469 2.747 -4.852" stroke-width="1.5624999999999998"/><path fill="#fcfcfc" opacity="1.000000" stroke="none" d="M405.583 351c4.942 7.44 1.909 10.75 -5.013 13.563 -19.229 7.817 -19.034 8.12 -31.794 24.208 -16.036 20.222 -36.755 28.984 -62.495 24.573 -11.956 -2.05 -12.8 -3.531 -10.656 -16.453 3.422 -1.82 6.479 0.544 9.544 1.31 25.112 6.276 50.622 -6.808 58.823 -31.141 2.552 -7.57 6.633 -10.94 14.364 -11.567 6.734 -0.547 13.237 -2.675 19.192 -6.05 2.948 -1.672 5.695 -2.995 8.031 1.56" stroke-width="1.5624999999999998"/><path fill="#fcfcfc" opacity="1.000000" stroke="none" d="M395.047 223.57c-9.112 -2.688 -15.192 -0.021 -20.753 7.005 -7.419 9.372 -9.138 8.964 -18.192 -0.591 2.771 -5.333 7.62 -8.964 11.769 -13.125 3.339 -3.349 4.8 -6.356 3.648 -11.521 -2.966 -13.313 5.669 -25.427 18.722 -27.563 12.886 -2.106 24.052 6.011 26.55 19.302 2.417 12.856 -5.922 23.315 -21.742 26.495m6.521 -27.422c-1.398 -1.981 -3.234 -3.313 -5.667 -3.677 -5.503 -0.831 -9.231 1.636 -10.411 6.839 -1.073 4.737 1.703 8.073 6.141 9.286 5.261 1.438 9.151 -0.745 10.698 -6.07 0.469 -1.617 -0.114 -3.542 -0.761 -6.375" stroke-width="1.5624999999999998"/><path fill="#fcfcfc" opacity="1.000000" stroke="none" d="M132.8 207.854c-3.511 -4.542 -7.138 -5.464 -12.513 -4.489 -11.167 2.019 -20.354 -3.37 -24.784 -13.144a23.076 23.076 0 0 1 5.331 -26.401c7.146 -6.644 17.672 -7.773 26.781 -2.878 8.794 4.724 13.354 14.375 11.011 25.172 -0.966 4.453 0.07 7.388 3.026 10.422 4.651 4.771 9.856 9.086 13.547 14.831 -11.981 6.636 -12.12 6.614 -22.396 -3.513m-23.258 -31.612c-2.487 5.109 -2.219 9.583 3.38 12.354 4.019 1.989 7.714 0.825 10.247 -2.667 2.544 -3.505 2.5 -7.472 -0.683 -10.567 -3.859 -3.753 -8.144 -4.177 -12.945 0.88" stroke-width="1.5624999999999998"/><path fill="#fcfcfc" opacity="1.000000" stroke="none" d="M305.216 103.323c-9.078 -6.354 -16.067 -13.063 -15.211 -25.008 0.771 -10.755 7.552 -19.058 18.333 -21.25 10.411 -2.117 21.245 3.133 25.294 12.255 4.776 10.761 2.391 22.706 -6.438 28.688 -4.183 2.831 -6.641 5.497 -7.034 10.969 -0.519 7.261 -7.622 8.719 -13.122 12.567 -2.289 -6.383 -0.581 -12.167 -1.823 -18.222m15.776 -26.45c-2.026 -4.13 -5.133 -6.781 -9.886 -5.45 -3.979 1.114 -6.886 4.063 -7.097 8.333 -0.203 4.109 2.737 6.575 6.313 7.969 5.919 2.305 10.203 -1.565 10.672 -10.854" stroke-width="1.5624999999999998"/><path fill="#fcfcfc" opacity="1.000000" stroke="none" d="M259.065 312.638c-0.052 -15.438 1.773 -18.474 13.349 -22.761 2.427 1.938 1.508 4.737 1.519 7.156 0.083 18.995 -0.052 37.989 0.104 56.984 0.039 4.739 -0.737 8.953 -4.919 11.563 -5.479 3.422 -1.891 9.747 -5.604 14.036 -7.469 -21.659 -3.136 -44.161 -4.448 -66.979" stroke-width="1.5624999999999998"/><path fill="#fcfcfc" opacity="1.000000" stroke="none" d="M157.8 408.099c-5.727 -2.714 -10.542 -5.825 -14.661 -9.784 -2.281 -2.192 -7.138 -4.386 -2.8 -8.581 3.406 -3.292 6.859 -7.45 12.542 -2.7 10.253 8.567 21.813 13.672 35.651 12.786 6.552 -0.419 12.37 -3.458 18.667 -4.5 4.028 13.188 2.536 15.935 -10.234 18.234 -13.396 2.411 -26.328 0.802 -39.161 -5.458" stroke-width="1.5624999999999998"/><path fill="#fcfcfc" opacity="1.000000" stroke="none" d="M312.972 310.151c14.237 -6.839 12.438 -19.245 12.227 -31.099 -0.097 -5.464 -0.128 -10.948 0.25 -16.391 0.313 -4.519 3.102 -8.216 7.195 -9.344 3.987 -1.099 5.977 3.388 8.698 5.614 1.028 0.839 1.823 2.224 1.073 3.466 -5.43 8.997 -2.081 18.844 -2.614 28.266 -0.289 5.083 -1.667 8.836 -5.341 12.286 -7.888 7.409 -15.484 15.128 -24.094 23.599 -2.474 -6.938 -0.122 -11.435 2.609 -16.401" stroke-width="1.5624999999999998"/><path fill="#fcfcfc" opacity="1.000000" stroke="none" d="M243.979 326.698c-0.531 16.558 1.469 32.453 -1.789 48.136 -0.396 1.909 -0.511 4.164 -2.575 5.433 -2.81 -1.38 -1.781 -4.003 -1.992 -6.169 -0.224 -2.317 0.305 -5.242 -1.62 -6.622 -8.484 -6.078 -6.813 -14.906 -6.844 -23.325 -0.013 -4.156 0.521 -8.388 -0.091 -12.448 -1.544 -10.258 4.638 -14.995 12.614 -19.177 3.729 4.172 1.683 9.042 2.297 14.177" stroke-width="1.5624999999999998"/><path fill="#fcfcfc" opacity="1.000000" stroke="none" d="M79.914 351.276c-2.987 -3.964 -5.844 -7.367 -8.161 -11.104 -7.144 -11.523 -6.653 -14.208 3.688 -23.823 1.964 0.094 2.438 1.792 2.859 3.141 4.099 13.161 11.755 23.7 23.315 31.185 4.813 3.114 3.403 5.883 0.828 9.55 -2.544 3.625 -4.761 6.097 -9.333 2.797 -4.667 -3.362 -8.984 -7.06 -13.195 -11.745" stroke-width="1.5624999999999998"/><path fill="#fcfcfc" opacity="1.000000" stroke="none" d="M143.417 296.021c-0.203 6.156 -4.198 9.508 -8.255 14.026 -8.776 -6.602 -16.294 -14.125 -23.669 -21.25 0.474 -1.417 0.505 -2.016 0.817 -2.367 11.227 -12.63 11.245 -12.641 22.641 -0.247 2.802 3.047 5.481 6.208 8.469 9.841" stroke-width="1.5624999999999998"/><path fill="#fcfcfc" opacity="1.000000" stroke="none" d="M402.253 255.456c9.331 10.336 9.989 14.419 3.122 22.216 -5.544 -6.375 -11.114 -12.599 -16.461 -19.013 -2.417 -2.896 -0.375 -4.747 2.229 -5.945 4.094 -1.886 7.503 -0.208 11.109 2.742" stroke-width="1.5624999999999998"/><path fill="#fcfcfc" opacity="1.000000" stroke="none" d="M89.323 234.261c3.644 0.112 6.531 1.07 7.305 4.203 0.761 3.081 -2.442 4.242 -4.227 5.927 -3.388 3.198 -6.935 6.229 -10.466 9.271 -1.914 1.651 -3.833 4.063 -6.628 1.555 -2.38 -2.138 -3.021 -4.94 -1.388 -7.747 3.474 -5.969 8.359 -10.453 15.401 -13.208" stroke-width="1.5624999999999998"/><path fill="#fcfcfc" opacity="1.000000" stroke="none" d="M170.891 236.144c4.911 -2.583 9 -1.896 10.638 2.813 1.417 4.073 -1.969 8.5 -4.914 9.472 -6.203 2.047 -7.823 -4.817 -11.331 -7.667 0.323 -3.612 3.2 -3.372 5.606 -4.614" stroke-width="1.5624999999999998"/><path fill="#fcfcfc" opacity="1.000000" stroke="none" d="M347.661 333.935c2.028 -1.203 2.849 -3.844 6.075 -2.479 -2.883 6.003 -6.505 10.578 -14.406 11.677 1.55 -4.781 5.117 -6.505 8.331 -9.2" stroke-width="1.5624999999999998"/></svg>