<svg xmlns="http://www.w3.org/2000/svg" width="287" height="269" viewBox="0 0 287 269">
<rect width="100%" height="100%" fill="#FFFFFF"/>
  <g id="blue" fill="#00467F" fill-rule="evenodd">
    <path id="layer-b01" d="M 157.0 261.5 L 130.0 261.5 L 113.0 258.5 L 95.0 252.5 L 81.0 245.5 L 66.0 235.5 L 49.5 220.0 L 32.5 196.0 L 23.5 175.0 L 18.5 153.0 L 17.5 131.0 L 21.5 104.0 L 29.5 82.0 L 44.5 58.0 L 58.0 43.5 L 81.0 26.5 L 93.0 20.5 L 110.0 14.5 L 132.0 10.5 L 155.0 10.5 L 177.0 14.5 L 204.0 25.5 L 222.0 37.5 L 242.5 58.0 L 255.5 78.0 L 263.5 97.0 L 268.5 119.0 L 269.5 142.0 L 265.5 168.0 L 257.5 190.0 L 242.5 214.0 L 227.0 230.5 L 206.0 245.5 L 181.0 256.5 Z M 140.5 41.0 L 145.5 38.0 L 146.5 34.0 L 145.5 20.0 L 141.5 20.0 L 142.5 36.0 L 139.0 37.5 L 137.5 36.0 L 137.5 20.0 L 134.0 19.5 L 134.5 38.0 L 137.0 40.5 Z M 165.5 43.0 L 168.5 22.0 L 165.5 22.0 L 164.0 35.5 L 162.5 34.0 L 160.5 21.0 L 157.0 20.5 L 153.5 41.0 L 156.5 41.0 L 159.0 27.5 L 161.5 42.0 Z M 115.5 45.0 L 119.5 43.0 L 117.5 34.0 L 116.0 32.5 L 111.5 34.0 L 115.5 38.0 L 116.5 41.0 L 115.0 42.5 L 113.0 42.5 L 108.5 37.0 L 108.5 29.0 L 113.5 26.0 L 113.5 24.0 L 111.0 23.5 L 107.0 25.5 L 104.5 29.0 L 104.5 37.0 L 110.0 44.5 Z M 175.5 46.0 L 182.5 27.0 L 182.0 25.5 L 178.5 26.0 L 172.5 43.0 L 172.5 45.0 Z M 189.5 51.0 L 202.5 36.0 L 199.0 33.5 L 190.0 46.5 L 189.5 44.0 L 193.5 34.0 L 193.5 31.0 L 192.0 29.5 L 189.5 31.0 L 185.5 47.0 L 185.5 50.0 L 187.0 51.5 Z M 93.5 55.0 L 94.5 54.0 L 88.5 44.0 L 89.0 42.5 L 100.0 51.5 L 102.5 49.0 L 94.5 34.0 L 91.0 31.5 L 89.5 33.0 L 97.0 45.5 L 85.0 35.5 L 81.5 37.0 L 90.5 54.0 L 92.0 55.5 Z M 205.5 62.0 L 206.5 60.0 L 202.5 56.0 L 206.0 52.5 L 209.0 54.5 L 211.5 53.0 L 208.5 50.0 L 208.5 48.0 L 211.0 45.5 L 214.0 47.5 L 217.5 46.0 L 211.0 40.5 L 208.5 42.0 L 197.5 57.0 L 202.0 61.5 Z M 77.5 67.0 L 79.5 65.0 L 77.5 61.0 L 80.0 58.5 L 84.0 60.5 L 87.5 59.0 L 70.0 45.5 L 66.5 48.0 Z M 150.5 223.0 L 167.0 220.5 L 188.0 211.5 L 198.0 204.5 L 212.5 190.0 L 217.5 183.0 L 227.5 161.0 L 230.5 146.0 L 230.5 126.0 L 226.5 108.0 L 218.5 91.0 L 211.5 81.0 L 199.0 68.5 L 186.0 59.5 L 170.0 52.5 L 157.0 49.5 L 138.0 48.5 L 117.0 52.5 L 101.0 59.5 L 88.0 68.5 L 75.5 81.0 L 68.5 91.0 L 59.5 111.0 L 56.5 125.0 L 56.5 146.0 L 61.5 167.0 L 69.5 183.0 L 74.5 190.0 L 89.0 204.5 L 99.0 211.5 L 120.0 220.5 L 136.0 223.5 Z M 218.5 76.0 L 222.5 71.0 L 223.5 69.0 L 222.5 68.0 L 229.0 66.5 L 231.5 63.0 L 230.5 58.0 L 226.0 53.5 L 210.5 68.0 L 213.0 70.5 L 219.0 64.5 L 220.5 68.0 L 216.5 73.0 L 216.5 75.0 Z M 70.5 75.0 L 72.5 73.0 L 65.5 67.0 L 59.0 55.5 L 56.5 58.0 L 62.5 66.0 L 61.0 66.5 L 54.0 62.5 L 50.5 65.0 L 60.0 68.5 Z M 230.5 87.0 L 234.5 84.0 L 234.5 78.0 L 237.0 74.5 L 241.0 78.5 L 243.5 78.0 L 241.0 72.5 L 235.0 71.5 L 231.5 75.0 L 231.5 81.0 L 230.0 83.5 L 226.0 83.5 L 224.0 79.5 L 221.5 81.0 L 225.0 86.5 Z M 58.5 93.0 L 59.0 90.5 L 48.5 85.0 L 55.0 84.5 L 62.0 86.5 L 63.5 83.0 L 46.0 72.5 L 44.5 74.0 L 46.0 76.5 L 56.5 82.0 L 52.0 82.5 L 41.0 80.5 L 39.5 83.0 L 53.0 91.5 Z M 233.5 97.0 L 250.0 89.5 L 249.5 87.0 L 247.0 86.5 L 230.0 94.5 L 229.5 96.0 L 231.0 97.5 Z M 51.5 111.0 L 52.5 109.0 L 48.5 106.0 L 48.5 103.0 L 50.0 101.5 L 54.0 102.5 L 55.5 100.0 L 54.0 98.5 L 39.0 96.5 L 33.5 97.0 L 32.5 100.0 L 35.0 102.5 L 50.0 111.5 Z M 237.5 110.0 L 251.0 105.5 L 253.5 107.0 L 254.0 109.5 L 256.0 108.5 L 254.5 99.0 L 251.0 97.5 L 251.0 102.5 L 236.0 106.5 L 234.5 109.0 L 236.0 110.5 Z M 48.5 129.0 L 48.0 125.5 L 43.0 125.5 L 40.0 124.5 L 39.5 123.0 L 41.0 119.5 L 49.0 120.5 L 50.0 117.5 L 33.0 114.5 L 28.5 115.0 L 29.0 118.5 L 35.0 118.5 L 36.5 120.0 L 36.5 124.0 L 28.0 123.5 L 28.0 126.5 L 45.0 129.5 Z M 259.5 127.0 L 258.0 123.5 L 249.5 123.0 L 257.0 119.5 L 258.5 118.0 L 258.0 114.5 L 245.0 121.5 L 237.5 122.0 L 239.0 125.5 L 247.0 124.5 L 257.0 127.5 Z M 41.5 159.0 L 42.5 153.0 L 41.0 149.5 L 38.5 153.0 L 38.5 156.0 L 39.5 159.0 Z M 247.5 160.0 L 249.5 154.0 L 247.0 149.5 L 245.5 152.0 L 245.5 158.0 Z M 45.5 171.0 L 49.5 163.0 L 49.0 156.5 L 46.5 158.0 L 44.5 162.0 L 43.5 167.0 Z M 243.5 171.0 L 243.5 163.0 L 239.0 156.5 L 238.5 164.0 L 240.5 169.0 Z M 42.5 172.0 L 39.5 165.0 L 34.0 159.5 L 29.0 157.5 L 28.5 159.0 L 31.5 165.0 L 37.0 170.5 Z M 247.5 172.0 L 251.0 170.5 L 256.5 165.0 L 259.0 157.5 L 254.0 159.5 L 247.5 166.0 L 245.5 171.0 L 246.0 172.5 Z M 52.5 186.0 L 54.5 182.0 L 54.5 173.0 L 53.0 171.5 L 50.5 176.0 L 50.5 184.0 Z M 236.5 186.0 L 237.5 176.0 L 234.0 171.5 L 232.5 179.0 L 234.5 185.0 Z M 49.5 188.0 L 44.0 179.5 L 41.0 177.5 L 33.5 176.0 L 35.5 180.0 L 41.0 185.5 L 48.0 188.5 Z M 240.5 188.0 L 248.0 184.5 L 253.5 178.0 L 253.5 176.0 L 252.0 175.5 L 245.0 178.5 L 237.5 188.0 Z M 62.5 197.0 L 63.5 189.0 L 61.0 186.5 L 57.5 191.0 L 57.5 196.0 Z M 226.5 197.0 L 230.5 196.0 L 230.5 191.0 L 227.0 186.5 L 224.5 188.0 L 223.5 192.0 L 224.5 196.0 Z M 55.5 202.0 L 56.0 196.5 L 50.0 195.5 L 46.5 197.0 L 47.0 200.5 L 51.0 202.5 Z M 237.5 202.0 L 241.5 199.0 L 240.0 196.5 L 235.0 195.5 L 231.5 197.0 L 232.0 202.5 Z M 70.5 204.0 L 73.5 202.0 L 70.0 198.5 L 63.5 198.0 L 63.0 203.5 Z M 223.5 204.0 L 225.5 203.0 L 224.0 197.5 L 218.0 198.5 L 214.5 202.0 L 218.0 204.5 Z M 59.5 213.0 L 61.5 210.0 L 61.5 204.0 L 56.0 203.5 L 55.5 212.0 L 57.0 213.5 Z M 231.5 213.0 L 232.5 205.0 L 231.0 203.5 L 229.0 204.5 L 227.0 203.5 L 225.5 205.0 L 226.5 210.0 L 229.0 213.5 Z M 85.5 223.0 L 83.5 213.0 L 79.0 208.5 L 79.5 217.0 Z M 203.5 223.0 L 208.5 216.0 L 209.0 208.5 L 206.5 210.0 L 203.5 215.0 L 202.5 218.0 L 202.5 223.0 Z M 99.5 230.0 L 96.5 222.0 L 91.0 217.5 L 90.5 221.0 L 92.5 225.0 L 98.0 230.5 Z M 189.5 230.0 L 195.5 225.0 L 197.5 221.0 L 197.0 217.5 L 190.5 223.0 L 188.5 228.0 Z M 82.5 226.0 L 81.0 223.5 L 75.0 220.5 L 66.0 220.5 L 64.5 222.0 L 73.0 226.5 Z M 215.5 226.0 L 223.0 222.5 L 222.0 220.5 L 213.0 220.5 L 205.5 225.0 L 206.0 226.5 Z M 108.5 236.0 L 112.0 234.5 L 112.5 232.0 L 108.0 226.5 L 106.0 226.5 L 104.5 230.0 L 106.5 235.0 Z M 180.5 236.0 L 183.5 229.0 L 182.0 226.5 L 180.0 226.5 L 175.5 232.0 L 176.0 234.5 Z M 89.5 236.0 L 96.0 234.5 L 97.5 233.0 L 95.0 231.5 L 86.0 230.5 L 80.5 233.0 L 83.0 235.5 Z M 200.5 236.0 L 207.0 234.5 L 207.5 233.0 L 205.0 231.5 L 196.0 230.5 L 190.5 233.0 L 191.0 234.5 L 194.0 235.5 Z M 119.5 238.0 L 123.5 234.0 L 123.0 231.5 L 118.0 231.5 L 113.5 234.0 L 116.0 238.5 Z M 172.5 239.0 L 173.5 234.0 L 172.0 232.5 L 165.0 231.5 L 163.5 233.0 L 167.0 237.5 Z M 103.5 245.0 L 109.5 242.0 L 107.0 237.5 L 102.0 239.5 L 99.5 243.0 L 100.0 244.5 Z M 186.5 245.0 L 188.5 243.0 L 184.0 238.5 L 180.0 237.5 L 178.5 242.0 L 181.0 244.5 Z M 144.5 248.0 L 147.5 246.0 L 147.5 242.0 L 143.0 239.5 L 139.5 242.0 L 139.5 246.0 Z M 117.5 250.0 L 118.5 249.0 L 117.5 242.0 L 116.0 240.5 L 112.0 241.5 L 110.5 243.0 L 112.5 247.0 Z M 171.5 250.0 L 175.5 247.0 L 176.0 241.5 L 172.0 240.5 L 170.5 242.0 L 169.5 250.0 Z"/>
    <path id="layer-b02" d="M 202.0 150.5 L 151.0 150.5 L 150.0 147.5 L 142.0 147.5 L 141.0 150.5 L 100.0 150.5 L 97.0 149.5 L 87.5 142.0 L 84.5 136.0 L 85.5 122.0 L 88.5 117.0 L 93.5 113.0 L 85.5 112.0 L 85.5 102.0 L 117.0 101.5 L 118.0 97.5 L 130.0 97.5 L 131.0 101.5 L 181.0 101.5 L 182.0 97.5 L 193.0 97.5 L 194.0 101.5 L 202.5 102.0 L 202.5 112.0 L 193.5 113.0 L 193.5 139.0 L 202.5 140.0 Z M 119.5 111.0 L 119.0 108.5 L 110.5 109.0 L 111.0 111.5 Z M 131.5 131.0 L 131.5 120.0 L 135.0 119.5 L 135.5 118.0 L 131.5 117.0 L 131.5 109.0 L 128.0 108.5 L 127.5 131.0 Z M 168.5 143.0 L 173.0 141.5 L 176.5 138.0 L 176.5 123.0 L 181.5 122.0 L 180.0 119.5 L 176.5 119.0 L 176.5 116.0 L 181.0 115.5 L 181.5 114.0 L 178.0 113.5 L 176.0 108.5 L 172.5 109.0 L 172.5 129.0 L 165.0 127.5 L 160.0 129.5 L 156.5 133.0 L 156.5 138.0 L 160.0 141.5 L 165.0 143.5 Z M 165.5 124.0 L 170.5 119.0 L 170.5 115.0 L 168.0 111.5 L 164.0 109.5 L 158.0 109.5 L 152.5 113.0 L 151.5 119.0 L 155.0 123.5 L 157.0 124.5 Z M 118.5 127.0 L 123.5 123.0 L 123.5 119.0 L 120.5 116.0 L 123.0 115.5 L 123.5 113.0 L 107.0 112.5 L 105.5 114.0 L 108.5 116.0 L 106.5 118.0 L 107.5 125.0 L 112.0 127.5 Z M 131.5 142.0 L 131.0 139.5 L 115.0 139.5 L 114.5 131.0 L 109.5 131.0 L 109.5 138.0 L 112.0 141.5 L 114.0 142.5 Z"/>
    <path id="layer-b03" d="M 126.5 268.0 L 111.0 265.5 L 107.0 263.5 L 98.0 261.5 L 75.0 250.5 L 57.0 237.5 L 38.5 218.0 L 26.5 200.0 L 21.5 190.0 L 14.5 170.0 L 13.5 162.0 L 12.5 161.0 L 12.5 156.0 L 11.5 155.0 L 11.5 147.0 L 10.5 146.0 L 11.5 117.0 L 12.5 116.0 L 12.5 111.0 L 13.5 110.0 L 14.5 102.0 L 19.5 87.0 L 29.5 67.0 L 43.5 48.0 L 56.0 35.5 L 65.0 28.5 L 77.0 20.5 L 91.0 13.5 L 116.0 5.5 L 128.0 4.5 L 129.0 3.5 L 158.0 3.5 L 159.0 4.5 L 166.0 4.5 L 191.0 11.5 L 210.0 20.5 L 231.0 35.5 L 243.5 48.0 L 251.5 58.0 L 260.5 72.0 L 265.5 82.0 L 273.5 106.0 L 274.5 116.0 L 275.5 117.0 L 275.5 124.0 L 276.5 125.0 L 275.5 155.0 L 274.5 156.0 L 274.5 161.0 L 273.5 162.0 L 273.5 166.0 L 270.5 174.0 L 270.5 177.0 L 260.5 200.0 L 254.5 210.0 L 244.5 223.0 L 225.0 241.5 L 203.0 255.5 L 201.0 255.5 L 189.0 261.5 L 180.0 263.5 L 176.0 265.5 L 160.5 268.0 Z M 154.5 267.0 L 163.0 266.5 L 164.0 265.5 L 168.0 265.5 L 169.0 264.5 L 173.0 264.5 L 181.0 261.5 L 184.0 261.5 L 207.0 251.5 L 225.0 239.5 L 232.0 233.5 L 246.5 218.0 L 257.5 202.0 L 264.5 188.0 L 270.5 171.0 L 272.5 159.0 L 273.5 158.0 L 273.5 152.0 L 274.5 151.0 L 274.5 121.0 L 273.5 120.0 L 273.5 114.0 L 272.5 113.0 L 270.5 101.0 L 264.5 84.0 L 258.5 72.0 L 245.5 53.0 L 237.5 44.0 L 226.0 33.5 L 210.0 22.5 L 194.0 14.5 L 180.0 9.5 L 168.0 7.5 L 167.0 6.5 L 162.0 6.5 L 161.0 5.5 L 135.0 4.5 L 134.0 5.5 L 126.0 5.5 L 125.0 6.5 L 120.0 6.5 L 119.0 7.5 L 107.0 9.5 L 93.0 14.5 L 77.0 22.5 L 61.0 33.5 L 52.0 41.5 L 41.5 53.0 L 28.5 72.0 L 22.5 84.0 L 16.5 101.0 L 14.5 113.0 L 13.5 114.0 L 13.5 121.0 L 12.5 122.0 L 12.5 151.0 L 13.5 152.0 L 13.5 158.0 L 14.5 159.0 L 16.5 171.0 L 22.5 188.0 L 29.5 202.0 L 44.5 223.0 L 61.0 238.5 L 80.0 251.5 L 103.0 261.5 L 106.0 261.5 L 114.0 264.5 L 124.0 265.5 L 125.0 266.5 L 132.0 266.5 L 133.0 267.5 Z"/>
    <path id="layer-b04" d="M 206.0 155.5 L 148.0 155.5 L 147.0 151.5 L 145.5 152.0 L 145.0 155.5 L 101.0 155.5 L 94.0 153.5 L 89.0 150.5 L 84.5 146.0 L 79.5 136.0 L 79.5 125.0 L 80.5 124.0 L 80.5 121.0 L 83.5 117.0 L 83.0 115.5 L 80.5 115.0 L 80.5 98.0 L 113.0 97.5 L 114.0 92.5 L 134.0 92.5 L 135.0 97.5 L 176.0 97.5 L 177.0 92.5 L 198.0 92.5 L 199.0 97.5 L 206.5 98.0 L 206.5 116.0 L 197.5 117.0 L 197.5 135.0 L 206.5 136.0 Z M 204.5 153.0 L 204.5 138.0 L 196.5 137.0 L 196.5 115.0 L 204.5 114.0 L 204.5 99.0 L 197.0 98.5 L 196.0 94.5 L 179.0 94.5 L 178.0 98.5 L 133.0 98.5 L 132.0 94.5 L 116.0 94.5 L 115.0 98.5 L 82.5 99.0 L 82.5 114.0 L 86.5 115.0 L 81.5 123.0 L 81.5 127.0 L 80.5 128.0 L 81.5 137.0 L 84.5 143.0 L 92.0 150.5 L 96.0 152.5 L 99.0 153.5 L 143.0 153.5 L 145.0 149.5 L 148.0 149.5 L 149.0 153.5 Z"/>
    <path id="layer-b05" d="M 133.0 191.5 L 127.0 191.5 L 124.5 190.0 L 126.0 185.5 L 127.0 187.5 L 132.0 188.5 L 134.0 187.5 L 135.5 185.0 L 128.0 185.5 L 124.5 183.0 L 123.5 179.0 L 124.5 177.0 L 129.0 173.5 L 134.0 173.5 L 136.0 174.5 L 139.5 179.0 L 138.5 187.0 Z M 132.5 182.0 L 134.5 181.0 L 134.5 178.0 L 133.0 176.5 L 131.0 176.5 L 127.5 179.0 L 129.0 181.5 L 131.0 182.5 Z"/>
    <path id="layer-b06" d="M 166.0 191.5 L 160.0 191.5 L 156.5 190.0 L 156.5 188.0 L 158.0 186.5 L 161.0 188.5 L 165.0 188.5 L 167.5 186.0 L 167.0 184.5 L 165.0 185.5 L 160.0 185.5 L 156.5 182.0 L 156.5 177.0 L 161.0 173.5 L 167.0 173.5 L 171.5 179.0 L 171.5 186.0 L 169.5 189.0 Z M 164.5 182.0 L 166.0 181.5 L 167.5 179.0 L 165.0 176.5 L 163.0 176.5 L 160.5 178.0 L 160.5 181.0 L 163.0 182.5 Z"/>
    <path id="layer-b07" d="M 151.0 191.5 L 144.0 191.5 L 139.5 189.0 L 142.0 184.5 L 144.0 187.5 L 147.0 188.5 L 149.0 188.5 L 151.5 186.0 L 151.5 185.0 L 149.0 183.5 L 145.5 184.0 L 146.0 179.5 L 147.0 180.5 L 150.5 180.0 L 150.5 178.0 L 149.0 176.5 L 146.0 176.5 L 144.0 177.5 L 143.0 179.5 L 141.5 179.0 L 140.5 176.0 L 145.0 173.5 L 151.0 173.5 L 153.0 174.5 L 154.5 177.0 L 154.5 180.0 L 152.5 182.0 L 154.5 183.0 L 155.5 187.0 L 154.5 189.0 Z"/>
    <path id="layer-b08" d="M 169.0 140.5 L 164.0 140.5 L 161.5 139.0 L 160.5 134.0 L 162.0 131.5 L 164.0 130.5 L 170.0 130.5 L 171.5 132.0 L 172.5 137.0 L 171.5 139.0 Z"/>
    <path id="layer-b09" d="M 164.0 122.5 L 159.0 122.5 L 156.5 120.0 L 156.5 114.0 L 159.0 111.5 L 163.0 111.5 L 166.5 116.0 L 166.5 118.0 Z"/>
    <path id="layer-b10" d="M 122.0 191.5 L 117.5 191.0 L 117.5 180.0 L 115.5 179.0 L 115.5 176.0 L 117.0 175.5 L 118.0 173.5 L 122.5 174.0 L 121.5 175.0 Z"/>
    <path id="layer-b11" d="M 116.0 126.5 L 112.0 125.5 L 110.5 123.0 L 110.5 118.0 L 113.0 115.5 L 118.0 116.5 L 119.5 119.0 L 119.5 123.0 Z"/>
    <path id="layer-b12" d="M 225.0 64.5 L 223.0 64.5 L 221.5 62.0 L 225.0 58.5 L 227.0 58.5 L 227.5 62.0 Z"/>
    <path id="layer-b13" d="M 76.0 58.5 L 72.5 54.0 L 71.5 52.0 L 72.0 50.5 L 78.5 56.0 Z"/>
    <path id="layer-b14" d="M 45.0 104.5 L 36.5 100.0 L 45.0 100.5 L 46.5 102.0 Z"/>
  </g>
  <g id="white" fill="#FFFFFF" fill-rule="evenodd">
    <path id="layer-w01" d="M 150.0 223.5 L 136.0 223.5 L 120.0 220.5 L 99.0 211.5 L 89.0 204.5 L 74.5 190.0 L 69.5 183.0 L 61.5 167.0 L 56.5 146.0 L 56.5 125.0 L 59.5 111.0 L 68.5 91.0 L 75.5 81.0 L 88.0 68.5 L 101.0 59.5 L 117.0 52.5 L 138.0 48.5 L 157.0 49.5 L 170.0 52.5 L 186.0 59.5 L 199.0 68.5 L 211.5 81.0 L 218.5 91.0 L 226.5 108.0 L 230.5 126.0 L 230.5 146.0 L 227.5 161.0 L 217.5 183.0 L 212.5 190.0 L 198.0 204.5 L 188.0 211.5 L 167.0 220.5 Z M 206.5 155.0 L 206.5 136.0 L 197.5 135.0 L 197.5 117.0 L 206.5 116.0 L 206.5 98.0 L 199.0 97.5 L 198.0 92.5 L 177.0 92.5 L 176.0 97.5 L 135.0 97.5 L 134.0 92.5 L 114.0 92.5 L 113.0 97.5 L 80.5 98.0 L 80.5 115.0 L 83.0 115.5 L 83.5 117.0 L 79.5 125.0 L 79.5 136.0 L 84.5 146.0 L 94.0 153.5 L 101.0 155.5 L 145.0 155.5 L 145.5 152.0 L 147.0 151.5 L 148.0 155.5 Z M 122.5 191.0 L 121.5 190.0 L 121.5 175.0 L 122.5 174.0 L 118.0 173.5 L 115.5 176.0 L 115.5 179.0 L 117.5 180.0 L 117.5 191.0 Z M 133.5 191.0 L 138.5 187.0 L 139.5 179.0 L 136.0 174.5 L 129.0 173.5 L 123.5 179.0 L 124.5 183.0 L 128.0 185.5 L 135.5 185.0 L 132.0 188.5 L 129.0 188.5 L 126.0 185.5 L 124.5 190.0 L 127.0 191.5 Z M 151.5 191.0 L 155.5 187.0 L 154.5 183.0 L 152.5 182.0 L 154.5 180.0 L 153.5 175.0 L 151.0 173.5 L 145.0 173.5 L 141.0 175.5 L 142.0 179.5 L 146.0 176.5 L 149.0 176.5 L 150.5 180.0 L 146.0 179.5 L 145.5 184.0 L 149.0 183.5 L 151.5 186.0 L 149.0 188.5 L 147.0 188.5 L 144.0 187.5 L 142.0 184.5 L 139.5 189.0 L 144.0 191.5 Z M 166.5 191.0 L 171.5 186.0 L 171.5 179.0 L 167.0 173.5 L 161.0 173.5 L 156.5 177.0 L 156.5 182.0 L 160.0 185.5 L 167.0 184.5 L 167.5 186.0 L 165.0 188.5 L 161.0 188.5 L 158.0 186.5 L 156.5 190.0 L 160.0 191.5 Z"/>
    <path id="layer-w02" d="M 154.0 267.5 L 133.0 267.5 L 103.0 261.5 L 80.0 251.5 L 61.0 238.5 L 44.5 223.0 L 29.5 202.0 L 20.5 183.0 L 16.5 171.0 L 12.5 151.0 L 12.5 122.0 L 16.5 101.0 L 22.5 84.0 L 28.5 72.0 L 41.5 53.0 L 61.0 33.5 L 77.0 22.5 L 93.0 14.5 L 107.0 9.5 L 135.0 4.5 L 152.0 4.5 L 180.0 9.5 L 194.0 14.5 L 210.0 22.5 L 226.0 33.5 L 245.5 53.0 L 258.5 72.0 L 264.5 84.0 L 270.5 101.0 L 274.5 121.0 L 274.5 151.0 L 270.5 171.0 L 264.5 188.0 L 257.5 202.0 L 246.5 218.0 L 225.0 239.5 L 207.0 251.5 L 184.0 261.5 Z M 157.5 261.0 L 181.0 256.5 L 206.0 245.5 L 227.0 230.5 L 242.5 214.0 L 254.5 196.0 L 265.5 168.0 L 269.5 142.0 L 268.5 119.0 L 263.5 97.0 L 255.5 78.0 L 242.5 58.0 L 222.0 37.5 L 204.0 25.5 L 177.0 14.5 L 155.0 10.5 L 132.0 10.5 L 110.0 14.5 L 93.0 20.5 L 81.0 26.5 L 58.0 43.5 L 44.5 58.0 L 31.5 78.0 L 21.5 104.0 L 17.5 131.0 L 18.5 153.0 L 23.5 175.0 L 32.5 196.0 L 49.5 220.0 L 66.0 235.5 L 81.0 245.5 L 95.0 252.5 L 113.0 258.5 L 130.0 261.5 Z"/>
    <path id="layer-w03" d="M 204.0 153.5 L 149.0 153.5 L 148.0 149.5 L 145.0 149.5 L 143.0 153.5 L 99.0 153.5 L 96.0 152.5 L 92.0 150.5 L 84.5 143.0 L 81.5 137.0 L 81.5 134.0 L 80.5 133.0 L 81.5 123.0 L 86.5 115.0 L 82.5 114.0 L 82.5 99.0 L 115.0 98.5 L 116.0 94.5 L 132.0 94.5 L 133.0 98.5 L 178.0 98.5 L 179.0 94.5 L 196.0 94.5 L 197.0 98.5 L 204.5 99.0 L 204.5 114.0 L 196.5 115.0 L 196.5 137.0 L 204.5 138.0 Z M 202.5 150.0 L 202.5 140.0 L 193.5 139.0 L 193.5 113.0 L 202.5 112.0 L 202.5 102.0 L 194.0 101.5 L 193.0 97.5 L 182.0 97.5 L 181.0 101.5 L 131.0 101.5 L 130.0 97.5 L 118.0 97.5 L 117.0 101.5 L 85.5 102.0 L 85.5 112.0 L 93.5 113.0 L 88.5 117.0 L 85.5 122.0 L 84.5 125.0 L 84.5 136.0 L 87.5 142.0 L 92.0 146.5 L 97.0 149.5 L 100.0 150.5 L 141.0 150.5 L 142.0 147.5 L 150.0 147.5 L 151.0 150.5 Z"/>
    <path id="layer-w04" d="M 168.0 143.5 L 165.0 143.5 L 160.0 141.5 L 156.5 138.0 L 156.5 133.0 L 160.0 129.5 L 165.0 127.5 L 172.5 129.0 L 172.5 109.0 L 176.0 108.5 L 176.5 112.0 L 178.0 113.5 L 181.5 114.0 L 181.0 115.5 L 177.0 115.5 L 176.5 119.0 L 180.0 119.5 L 181.5 122.0 L 176.5 123.0 L 176.5 138.0 L 173.0 141.5 Z M 169.5 140.0 L 171.0 139.5 L 172.5 137.0 L 171.5 132.0 L 170.0 130.5 L 164.0 130.5 L 162.0 131.5 L 160.5 134.0 L 161.5 139.0 L 164.0 140.5 Z"/>
    <path id="layer-w05" d="M 48.0 129.5 L 28.0 126.5 L 28.0 123.5 L 36.5 124.0 L 36.5 120.0 L 35.0 118.5 L 29.0 118.5 L 28.5 115.0 L 33.0 114.5 L 34.0 115.5 L 41.0 115.5 L 42.0 116.5 L 48.0 116.5 L 50.0 117.5 L 49.0 120.5 L 41.0 119.5 L 39.5 123.0 L 40.0 124.5 L 43.0 125.5 L 48.0 125.5 Z"/>
    <path id="layer-w06" d="M 93.0 55.5 L 90.5 54.0 L 81.5 37.0 L 85.0 35.5 L 97.0 45.5 L 89.5 33.0 L 91.0 31.5 L 94.5 34.0 L 102.5 49.0 L 102.5 50.0 L 100.0 51.5 L 88.0 41.5 L 88.5 44.0 L 94.5 54.0 Z"/>
    <path id="layer-w07" d="M 165.0 43.5 L 161.5 42.0 L 161.5 37.0 L 160.5 36.0 L 159.0 27.5 L 157.5 31.0 L 156.5 41.0 L 153.5 41.0 L 155.5 25.0 L 157.0 20.5 L 160.5 21.0 L 162.5 34.0 L 164.0 35.5 L 165.5 22.0 L 168.5 22.0 L 168.5 28.0 L 167.5 29.0 L 166.5 39.0 Z"/>
    <path id="layer-w08" d="M 218.0 76.5 L 216.5 75.0 L 216.5 73.0 L 220.5 68.0 L 220.5 66.0 L 219.0 64.5 L 213.0 70.5 L 210.5 68.0 L 226.0 53.5 L 230.5 58.0 L 231.5 63.0 L 229.0 66.5 L 223.0 67.5 L 223.5 69.0 L 222.5 71.0 Z M 225.5 64.0 L 227.5 62.0 L 227.0 58.5 L 225.0 58.5 L 221.5 62.0 L 223.0 64.5 Z"/>
    <path id="layer-w09" d="M 58.0 93.5 L 53.0 91.5 L 39.5 83.0 L 41.0 80.5 L 51.0 81.5 L 52.0 82.5 L 56.5 82.0 L 46.0 76.5 L 44.5 75.0 L 46.0 72.5 L 63.5 83.0 L 63.5 85.0 L 62.0 86.5 L 55.0 84.5 L 46.5 84.0 L 59.0 90.5 L 59.5 92.0 Z"/>
    <path id="layer-w10" d="M 140.0 41.5 L 137.0 40.5 L 134.5 38.0 L 134.5 35.0 L 133.5 34.0 L 134.0 19.5 L 137.5 20.0 L 137.5 36.0 L 139.0 37.5 L 141.0 37.5 L 142.5 36.0 L 142.5 24.0 L 141.5 23.0 L 141.5 20.0 L 145.5 20.0 L 145.5 30.0 L 146.5 31.0 L 145.5 38.0 L 143.0 40.5 Z"/>
    <path id="layer-w11" d="M 115.0 45.5 L 110.0 44.5 L 106.5 41.0 L 104.5 37.0 L 104.5 29.0 L 107.0 25.5 L 111.0 23.5 L 113.0 23.5 L 113.5 26.0 L 108.5 29.0 L 108.5 37.0 L 109.5 39.0 L 113.0 42.5 L 115.0 42.5 L 116.5 41.0 L 115.5 38.0 L 113.0 36.5 L 111.5 34.0 L 116.0 32.5 L 117.5 34.0 L 119.5 40.0 L 119.5 43.0 Z"/>
    <path id="layer-w12" d="M 118.0 127.5 L 112.0 127.5 L 107.5 125.0 L 106.5 123.0 L 106.5 118.0 L 108.5 116.0 L 105.5 114.0 L 107.0 112.5 L 123.5 113.0 L 123.5 115.0 L 120.5 116.0 L 123.5 119.0 L 123.5 123.0 Z M 116.5 126.0 L 119.5 123.0 L 119.5 119.0 L 118.0 116.5 L 113.0 115.5 L 110.5 118.0 L 110.5 123.0 L 112.0 125.5 L 114.0 126.5 Z"/>
    <path id="layer-w13" d="M 51.0 111.5 L 35.0 102.5 L 32.5 100.0 L 33.5 97.0 L 39.0 96.5 L 40.0 97.5 L 54.0 98.5 L 55.5 100.0 L 54.0 102.5 L 51.0 102.5 L 50.0 101.5 L 48.5 103.0 L 48.5 106.0 L 52.5 109.0 Z M 45.5 104.0 L 46.5 102.0 L 45.0 100.5 L 36.5 100.0 L 44.0 104.5 Z"/>
    <path id="layer-w14" d="M 77.0 67.5 L 66.5 48.0 L 70.0 45.5 L 87.5 59.0 L 86.0 60.5 L 84.0 60.5 L 80.0 58.5 L 77.5 61.0 L 79.5 65.0 Z M 76.5 58.0 L 78.5 56.0 L 71.0 49.5 L 72.5 54.0 L 74.5 57.0 Z"/>
    <path id="layer-w15" d="M 165.0 124.5 L 157.0 124.5 L 152.5 121.0 L 151.5 115.0 L 154.0 111.5 L 158.0 109.5 L 164.0 109.5 L 169.5 113.0 L 170.5 119.0 L 169.5 121.0 Z M 164.5 122.0 L 166.5 118.0 L 165.5 114.0 L 163.0 111.5 L 159.0 111.5 L 156.5 114.0 L 156.5 120.0 L 159.0 122.5 Z"/>
    <path id="layer-w16" d="M 189.0 51.5 L 187.0 51.5 L 185.5 50.0 L 185.5 47.0 L 186.5 46.0 L 189.5 31.0 L 192.0 29.5 L 193.5 31.0 L 193.5 34.0 L 189.0 47.5 L 199.0 33.5 L 202.5 36.0 Z"/>
    <path id="layer-w17" d="M 205.0 62.5 L 202.0 61.5 L 197.5 57.0 L 208.5 42.0 L 211.0 40.5 L 217.5 46.0 L 216.0 47.5 L 214.0 47.5 L 211.0 45.5 L 208.5 48.0 L 208.5 50.0 L 211.0 51.5 L 211.5 53.0 L 209.0 54.5 L 206.0 52.5 L 202.5 56.0 L 202.5 57.0 L 206.5 60.0 Z"/>
    <path id="layer-w18" d="M 230.0 87.5 L 225.0 86.5 L 222.5 84.0 L 221.5 81.0 L 224.0 79.5 L 226.0 83.5 L 230.0 83.5 L 231.5 81.0 L 231.5 75.0 L 235.0 71.5 L 241.0 72.5 L 243.5 76.0 L 243.5 78.0 L 241.0 78.5 L 240.5 77.0 L 237.0 74.5 L 234.5 78.0 L 234.5 84.0 Z"/>
    <path id="layer-w19" d="M 70.0 75.5 L 64.0 70.5 L 50.5 65.0 L 54.0 62.5 L 61.0 66.5 L 62.5 66.0 L 56.5 58.0 L 59.0 55.5 L 65.5 67.0 L 72.5 73.0 Z"/>
    <path id="layer-w20" d="M 259.0 127.5 L 252.0 125.5 L 248.0 125.5 L 247.0 124.5 L 239.0 125.5 L 237.5 124.0 L 237.5 122.0 L 245.0 121.5 L 258.0 114.5 L 258.5 118.0 L 249.5 123.0 L 258.0 123.5 L 259.5 125.0 Z"/>
    <path id="layer-w21" d="M 131.0 142.5 L 114.0 142.5 L 112.0 141.5 L 109.5 138.0 L 109.5 131.0 L 114.5 131.0 L 115.0 139.5 L 131.0 139.5 Z"/>
    <path id="layer-w22" d="M 237.0 110.5 L 234.5 109.0 L 236.0 106.5 L 251.0 102.5 L 251.0 97.5 L 253.0 97.5 L 254.5 99.0 L 254.5 102.0 L 256.5 106.0 L 256.0 108.5 L 254.0 109.5 L 253.5 107.0 L 251.0 105.5 Z"/>
    <path id="layer-w23" d="M 131.0 131.5 L 127.5 131.0 L 128.0 108.5 L 131.5 109.0 L 131.5 117.0 L 135.5 118.0 L 135.0 119.5 L 131.5 120.0 Z"/>
    <path id="layer-w24" d="M 240.0 188.5 L 237.5 188.0 L 240.5 183.0 L 245.0 178.5 L 252.0 175.5 L 253.5 176.0 L 253.5 178.0 L 248.0 184.5 Z"/>
    <path id="layer-w25" d="M 49.0 188.5 L 41.0 185.5 L 35.5 180.0 L 33.5 176.0 L 35.0 175.5 L 44.0 179.5 L 48.5 185.0 L 49.5 187.0 Z"/>
    <path id="layer-w26" d="M 247.0 172.5 L 246.0 172.5 L 245.5 171.0 L 247.5 166.0 L 254.0 159.5 L 259.0 157.5 L 256.5 165.0 L 251.0 170.5 Z"/>
    <path id="layer-w27" d="M 42.0 172.5 L 37.0 170.5 L 31.5 165.0 L 28.5 159.0 L 29.0 157.5 L 34.0 159.5 L 39.5 165.0 L 42.5 171.0 Z"/>
    <path id="layer-w28" d="M 175.0 46.5 L 172.5 45.0 L 172.5 43.0 L 175.5 37.0 L 178.5 26.0 L 182.0 25.5 L 182.5 27.0 L 176.5 45.0 Z"/>
    <path id="layer-w29" d="M 233.0 97.5 L 231.0 97.5 L 229.5 96.0 L 230.0 94.5 L 247.0 86.5 L 249.5 87.0 L 250.0 89.5 Z"/>
    <path id="layer-w30" d="M 82.0 226.5 L 73.0 226.5 L 64.5 222.0 L 66.0 220.5 L 75.0 220.5 L 81.0 223.5 L 82.5 225.0 Z"/>
    <path id="layer-w31" d="M 215.0 226.5 L 206.0 226.5 L 205.5 225.0 L 213.0 220.5 L 222.0 220.5 L 223.0 222.5 Z"/>
    <path id="layer-w32" d="M 89.0 236.5 L 83.0 235.5 L 81.0 234.5 L 80.5 233.0 L 86.0 230.5 L 95.0 231.5 L 97.5 233.0 L 96.0 234.5 Z"/>
    <path id="layer-w33" d="M 200.0 236.5 L 191.0 234.5 L 190.5 233.0 L 196.0 230.5 L 205.0 231.5 L 207.0 232.5 L 207.5 234.0 Z"/>
    <path id="layer-w34" d="M 226.0 197.5 L 224.5 196.0 L 223.5 192.0 L 224.5 191.0 L 224.5 188.0 L 227.0 186.5 L 230.5 191.0 L 230.5 196.0 Z"/>
    <path id="layer-w35" d="M 70.0 204.5 L 65.0 204.5 L 62.5 203.0 L 64.0 197.5 L 70.0 198.5 L 73.5 202.0 Z"/>
    <path id="layer-w36" d="M 144.0 248.5 L 139.5 246.0 L 139.5 242.0 L 143.0 239.5 L 147.5 242.0 L 147.5 246.0 Z"/>
    <path id="layer-w37" d="M 55.0 202.5 L 51.0 202.5 L 47.0 200.5 L 46.5 197.0 L 50.0 195.5 L 56.0 196.5 L 56.5 198.0 Z"/>
    <path id="layer-w38" d="M 223.0 204.5 L 218.0 204.5 L 214.5 202.0 L 218.0 198.5 L 224.0 197.5 L 224.5 202.0 L 225.5 203.0 Z"/>
    <path id="layer-w39" d="M 231.0 213.5 L 229.0 213.5 L 226.5 210.0 L 225.5 205.0 L 227.0 203.5 L 228.0 204.5 L 231.0 203.5 L 232.5 205.0 L 232.5 211.0 Z"/>
    <path id="layer-w40" d="M 85.0 223.5 L 79.5 217.0 L 78.5 214.0 L 79.0 208.5 L 80.0 208.5 L 83.5 213.0 L 85.5 220.0 Z"/>
    <path id="layer-w41" d="M 203.0 223.5 L 202.5 218.0 L 203.5 215.0 L 206.5 210.0 L 209.0 208.5 L 209.5 213.0 L 208.5 216.0 L 206.5 220.0 Z"/>
    <path id="layer-w42" d="M 189.0 230.5 L 188.5 228.0 L 190.5 223.0 L 197.0 217.5 L 197.5 221.0 L 195.5 225.0 Z"/>
    <path id="layer-w43" d="M 62.0 197.5 L 57.5 196.0 L 57.5 191.0 L 61.0 186.5 L 62.0 186.5 L 63.5 189.0 L 63.5 196.0 Z"/>
    <path id="layer-w44" d="M 237.0 202.5 L 231.5 202.0 L 232.5 201.0 L 232.0 196.5 L 237.0 195.5 L 241.5 198.0 L 241.5 199.0 Z"/>
    <path id="layer-w45" d="M 59.0 213.5 L 57.0 213.5 L 55.5 212.0 L 56.0 203.5 L 59.0 204.5 L 61.5 204.0 L 61.5 210.0 Z"/>
    <path id="layer-w46" d="M 99.0 230.5 L 92.5 225.0 L 90.5 221.0 L 91.0 217.5 L 96.5 222.0 L 99.5 228.0 Z"/>
    <path id="layer-w47" d="M 236.0 186.5 L 233.5 183.0 L 233.5 180.0 L 232.5 179.0 L 234.0 171.5 L 235.5 172.0 L 237.5 176.0 L 237.5 183.0 Z"/>
    <path id="layer-w48" d="M 108.0 236.5 L 104.5 230.0 L 104.5 228.0 L 106.0 226.5 L 108.0 226.5 L 112.5 232.0 L 112.5 234.0 L 110.0 234.5 Z"/>
    <path id="layer-w49" d="M 172.0 239.5 L 167.0 237.5 L 163.5 233.0 L 165.0 231.5 L 170.0 231.5 L 172.0 232.5 L 173.5 234.0 Z"/>
    <path id="layer-w50" d="M 103.0 245.5 L 100.0 244.5 L 99.5 243.0 L 102.0 239.5 L 105.0 237.5 L 107.0 237.5 L 109.5 242.0 Z"/>
    <path id="layer-w51" d="M 117.0 250.5 L 112.5 247.0 L 110.5 243.0 L 112.0 241.5 L 116.0 240.5 L 117.5 242.0 L 118.5 244.0 L 118.5 249.0 Z"/>
    <path id="layer-w52" d="M 171.0 250.5 L 169.5 250.0 L 169.5 244.0 L 170.5 242.0 L 172.0 240.5 L 176.0 241.5 L 176.5 245.0 L 175.5 247.0 Z"/>
    <path id="layer-w53" d="M 45.0 171.5 L 43.5 167.0 L 44.5 166.0 L 44.5 162.0 L 46.5 158.0 L 49.0 156.5 L 49.5 163.0 Z"/>
    <path id="layer-w54" d="M 186.0 245.5 L 181.0 244.5 L 178.5 242.0 L 180.0 237.5 L 184.0 238.5 L 188.5 243.0 L 188.5 244.0 Z"/>
    <path id="layer-w55" d="M 243.0 171.5 L 240.5 169.0 L 238.5 164.0 L 239.0 156.5 L 242.5 160.0 L 243.5 163.0 Z"/>
    <path id="layer-w56" d="M 119.0 238.5 L 116.0 238.5 L 113.5 234.0 L 118.0 231.5 L 123.0 231.5 L 123.5 234.0 Z"/>
    <path id="layer-w57" d="M 180.0 236.5 L 178.0 234.5 L 176.0 234.5 L 175.5 232.0 L 180.0 226.5 L 182.0 226.5 L 183.5 229.0 L 182.5 230.0 L 182.5 233.0 Z"/>
    <path id="layer-w58" d="M 52.0 186.5 L 50.5 184.0 L 50.5 176.0 L 53.0 171.5 L 54.5 173.0 L 54.5 182.0 Z"/>
    <path id="layer-w59" d="M 132.0 182.5 L 127.5 180.0 L 127.5 179.0 L 131.0 176.5 L 133.0 176.5 L 134.5 178.0 L 134.5 181.0 Z"/>
    <path id="layer-w60" d="M 164.0 182.5 L 160.5 181.0 L 160.5 178.0 L 163.0 176.5 L 165.0 176.5 L 167.5 179.0 L 166.5 181.0 Z"/>
    <path id="layer-w61" d="M 41.0 159.5 L 39.5 159.0 L 38.5 156.0 L 38.5 153.0 L 41.0 149.5 L 42.5 153.0 L 42.5 157.0 Z"/>
    <path id="layer-w62" d="M 247.0 160.5 L 245.5 158.0 L 245.5 152.0 L 247.0 149.5 L 249.5 154.0 Z"/>
    <path id="layer-w63" d="M 119.0 111.5 L 111.0 111.5 L 110.5 109.0 L 119.0 108.5 Z"/>
  </g>
</svg>