<svg width="500" height="500" viewBox="0 0 500 500" fill="none" xmlns="http://www.w3.org/2000/svg">
<circle cx="250" cy="250" r="250" fill="white"/>
<g clip-path="url(#clip0_1374_146)">
<mask id="mask0_1374_146" style="mask-type:luminance" maskUnits="userSpaceOnUse" x="150" y="150" width="200" height="200">
<path d="M350 150H150V350H350V150Z" fill="white"/>
</mask>
<g mask="url(#mask0_1374_146)">
<path d="M164.216 349.896C156.432 349.896 150.118 343.606 150.118 335.853L150 164.876C150 152.356 165.192 146.078 174.093 154.932L345.849 326.015C354.738 334.869 348.436 350.013 335.866 350.013L164.228 349.896H164.216Z" fill="#2F3E42"/>
<path d="M150.118 164.16C150.118 156.407 156.432 150.117 164.216 150.117L335.855 150C348.424 150 354.739 165.132 345.837 173.999L174.093 345.069C165.192 353.935 150 347.646 150 335.125L150.118 164.16Z" fill="url(#paint0_linear_1374_146)"/>
</g>
</g>
<defs>
<linearGradient id="paint0_linear_1374_146" x1="341.016" y1="164.453" x2="165.625" y2="339.844" gradientUnits="userSpaceOnUse">
<stop stop-color="#5CC9D3"/>
<stop offset="1" stop-color="#5CC9D3" stop-opacity="0.5"/>
</linearGradient>
<clipPath id="clip0_1374_146">
<rect width="200" height="200" fill="white" transform="translate(150 150)"/>
</clipPath>
</defs>
</svg>
