<?xml version="1.0" encoding="UTF-8"?>
<svg version="1.1" xmlns="http://www.w3.org/2000/svg" width="481" height="481">
<path d="M0 0 C0.69000924 -0.00367669 1.38001847 -0.00735338 2.09093708 -0.01114148 C4.39672754 -0.02213017 6.70247286 -0.02601397 9.00828552 -0.02983093 C10.6644098 -0.03609933 12.32053269 -0.04274647 13.97665405 -0.04974365 C19.41093473 -0.0707456 24.84521556 -0.08114398 30.27952576 -0.09111023 C32.15424552 -0.09515954 34.02896514 -0.09927652 35.90368462 -0.10346031 C44.71470098 -0.12250527 53.52570901 -0.13673649 62.33674198 -0.14507228 C72.48763135 -0.15483561 82.63830214 -0.18113445 92.78911453 -0.22157317 C100.6475138 -0.25179848 108.50585063 -0.26654732 116.36430687 -0.26985329 C121.05176278 -0.27219688 125.738985 -0.28106661 130.42637825 -0.30631447 C134.84154829 -0.32971209 139.25633271 -0.33378181 143.67154884 -0.32355309 C145.28392067 -0.32306041 146.89631225 -0.32930095 148.50862503 -0.34310913 C163.71412022 -0.4659499 174.75470576 2.307027 185.95921326 12.99092102 C192.32846447 19.67521047 197.13067918 28.77865492 197.1626339 38.16774559 C197.16770844 38.96274039 197.17278298 39.75773518 197.1780113 40.57682073 C197.17850906 41.44432191 197.17900681 42.31182309 197.17951965 43.20561218 C197.18609303 44.59483822 197.18609303 44.59483822 197.19279921 46.01212943 C197.20617877 49.1227378 197.21236412 52.23331785 197.2184906 55.34394836 C197.22639202 57.57122933 197.234661 59.79850902 197.24327087 62.02578735 C197.26947919 69.34488199 197.2847941 76.66398232 197.29905701 83.98310852 C197.30441656 86.50152719 197.30979407 89.01994582 197.31518936 91.53836441 C197.33681343 102.01097002 197.35570299 112.48357551 197.36681175 122.95619774 C197.36974136 125.67219929 197.37270304 128.38820081 197.37571716 131.10420227 C197.37646321 131.77923596 197.37720926 132.45426964 197.37797792 133.14975889 C197.39063748 144.09012662 197.42387126 155.03033207 197.465519 165.9706239 C197.50793693 177.20535967 197.53109869 188.4400155 197.53673232 199.67484057 C197.54039055 205.98187011 197.55246301 212.28862419 197.58483505 218.59557724 C197.61484282 224.52670294 197.62125335 230.45738543 197.60945129 236.38857079 C197.60922997 238.56624819 197.61758318 240.74394574 197.63510513 242.92155266 C197.65771623 245.89315964 197.64953883 248.86314838 197.63362122 251.83476257 C197.6475033 252.69780231 197.66138539 253.56084204 197.67568815 254.4500345 C197.62074454 258.60882038 197.29995249 261.35190279 194.69904518 264.69159889 C192.02561951 267.14717102 192.02561951 267.14717102 188.64280701 267.74873352 C184.5801708 267.07308992 181.59262173 265.66854429 178.15061951 263.52217102 C177.01882263 262.8492804 175.88702576 262.17638977 174.72093201 261.48310852 C171.21282038 259.29915584 167.78638861 256.99775432 164.35520935 254.69551086 C160.53580336 252.15697882 156.65674571 249.71488317 152.77561951 247.27217102 C151.64059998 246.55480774 151.64059998 246.55480774 150.48265076 245.82295227 C148.92927106 244.84336674 147.37029985 243.87258721 145.80564022 242.91112137 C143.89369763 241.69797509 142.01598837 240.42970012 140.170228 239.11805344 C132.16555784 233.66017043 125.91816072 232.00443902 116.16404724 232.21064758 C114.18575424 232.20390266 114.18575424 232.20390266 112.16749573 232.19702148 C109.32639705 232.18763366 106.48695983 232.2029258 103.64607048 232.23839569 C99.14260356 232.29433206 94.64021342 232.29246226 90.13647461 232.28358459 C83.00750401 232.27611556 75.87926631 232.30566728 68.75045878 232.35180354 C55.99489285 232.43405374 43.23930862 232.47117107 30.48348194 232.46719527 C26.01817515 232.46750625 21.55370738 232.48984197 17.08859432 232.53073072 C14.97536495 232.54734113 12.86232726 232.55482195 10.7490387 232.5585022 C8.18876684 232.56338646 5.62846001 232.58244089 3.06845093 232.6194458 C-8.48594495 232.59582845 -18.29471216 229.95524086 -26.97438049 222.14717102 C-27.99145081 221.28478821 -27.99145081 221.28478821 -29.02906799 220.40498352 C-35.80171641 214.24570704 -40.51878498 206.24862021 -41.97438049 197.14717102 C-42.07030067 194.91023494 -42.11346424 192.67078554 -42.12155151 190.43180847 C-42.1252282 189.76967854 -42.12890489 189.1075486 -42.13269299 188.42535412 C-42.14367683 186.2139661 -42.14756463 184.00262514 -42.15138245 181.79121399 C-42.15765117 180.20243177 -42.16429833 178.61365101 -42.17129517 177.02487183 C-42.19229159 171.81304435 -42.20269429 166.60121674 -42.21266174 161.38935852 C-42.21671113 159.59138601 -42.2208281 157.79341364 -42.22501183 155.99544144 C-42.24405479 147.54590191 -42.25828699 139.09637107 -42.2666238 130.64681423 C-42.27638936 120.91134442 -42.30269485 111.17610239 -42.34312469 101.44071281 C-42.37334276 93.9041948 -42.38809811 86.36774187 -42.39140481 78.83116448 C-42.39374902 74.33544362 -42.40262713 69.83996633 -42.42786598 65.34431076 C-42.45125126 61.11053042 -42.45533826 56.87715224 -42.4451046 52.6433239 C-42.44461164 51.09664632 -42.4508607 49.54994823 -42.46466064 48.00333214 C-42.58341897 33.89464967 -39.7390273 22.53359618 -29.97438049 11.98701477 C-21.35940043 3.75663203 -11.81634613 0.0409398 0 0 Z " fill="#149ACB" transform="translate(162.97438049316406,110.85282897949219)"/>
<path d="M0 0 C0.69000924 -0.00367669 1.38001847 -0.00735338 2.09093708 -0.01114148 C4.39672754 -0.02213017 6.70247286 -0.02601397 9.00828552 -0.02983093 C10.6644098 -0.03609933 12.32053269 -0.04274647 13.97665405 -0.04974365 C19.41093473 -0.0707456 24.84521556 -0.08114398 30.27952576 -0.09111023 C32.15424552 -0.09515954 34.02896514 -0.09927652 35.90368462 -0.10346031 C44.71470098 -0.12250527 53.52570901 -0.13673649 62.33674198 -0.14507228 C72.48763135 -0.15483561 82.63830214 -0.18113445 92.78911453 -0.22157317 C100.6475138 -0.25179848 108.50585063 -0.26654732 116.36430687 -0.26985329 C121.05176278 -0.27219688 125.738985 -0.28106661 130.42637825 -0.30631447 C134.84154829 -0.32971209 139.25633271 -0.33378181 143.67154884 -0.32355309 C145.28392067 -0.32306041 146.89631225 -0.32930095 148.50862503 -0.34310913 C163.71412022 -0.4659499 174.75470576 2.307027 185.95921326 12.99092102 C192.32846447 19.67521047 197.13067918 28.77865492 197.1626339 38.16774559 C197.16770844 38.96274039 197.17278298 39.75773518 197.1780113 40.57682073 C197.17850906 41.44432191 197.17900681 42.31182309 197.17951965 43.20561218 C197.18609303 44.59483822 197.18609303 44.59483822 197.19279921 46.01212943 C197.20617877 49.1227378 197.21236412 52.23331785 197.2184906 55.34394836 C197.22639202 57.57122933 197.234661 59.79850902 197.24327087 62.02578735 C197.26947919 69.34488199 197.2847941 76.66398232 197.29905701 83.98310852 C197.30441656 86.50152719 197.30979407 89.01994582 197.31518936 91.53836441 C197.33681343 102.01097002 197.35570299 112.48357551 197.36681175 122.95619774 C197.36974136 125.67219929 197.37270304 128.38820081 197.37571716 131.10420227 C197.37646321 131.77923596 197.37720926 132.45426964 197.37797792 133.14975889 C197.39063748 144.09012662 197.42387126 155.03033207 197.465519 165.9706239 C197.50793693 177.20535967 197.53109869 188.4400155 197.53673232 199.67484057 C197.54039055 205.98187011 197.55246301 212.28862419 197.58483505 218.59557724 C197.61484282 224.52670294 197.62125335 230.45738543 197.60945129 236.38857079 C197.60922997 238.56624819 197.61758318 240.74394574 197.63510513 242.92155266 C197.65771623 245.89315964 197.64953883 248.86314838 197.63362122 251.83476257 C197.6475033 252.69780231 197.66138539 253.56084204 197.67568815 254.4500345 C197.62074454 258.60882038 197.29995249 261.35190279 194.69904518 264.69159889 C192.02561951 267.14717102 192.02561951 267.14717102 188.64280701 267.74873352 C184.5801708 267.07308992 181.59262173 265.66854429 178.15061951 263.52217102 C177.01882263 262.8492804 175.88702576 262.17638977 174.72093201 261.48310852 C171.21282038 259.29915584 167.78638861 256.99775432 164.35520935 254.69551086 C160.53580336 252.15697882 156.65674571 249.71488317 152.77561951 247.27217102 C151.64059998 246.55480774 151.64059998 246.55480774 150.48265076 245.82295227 C148.92927106 244.84336674 147.37029985 243.87258721 145.80564022 242.91112137 C143.89369763 241.69797509 142.01598837 240.42970012 140.170228 239.11805344 C132.16555784 233.66017043 125.91816072 232.00443902 116.16404724 232.21064758 C114.18575424 232.20390266 114.18575424 232.20390266 112.16749573 232.19702148 C109.32639705 232.18763366 106.48695983 232.2029258 103.64607048 232.23839569 C99.14260356 232.29433206 94.64021342 232.29246226 90.13647461 232.28358459 C83.00750401 232.27611556 75.87926631 232.30566728 68.75045878 232.35180354 C55.99489285 232.43405374 43.23930862 232.47117107 30.48348194 232.46719527 C26.01817515 232.46750625 21.55370738 232.48984197 17.08859432 232.53073072 C14.97536495 232.54734113 12.86232726 232.55482195 10.7490387 232.5585022 C8.18876684 232.56338646 5.62846001 232.58244089 3.06845093 232.6194458 C-8.48594495 232.59582845 -18.29471216 229.95524086 -26.97438049 222.14717102 C-27.99145081 221.28478821 -27.99145081 221.28478821 -29.02906799 220.40498352 C-35.80171641 214.24570704 -40.51878498 206.24862021 -41.97438049 197.14717102 C-42.07030067 194.91023494 -42.11346424 192.67078554 -42.12155151 190.43180847 C-42.1252282 189.76967854 -42.12890489 189.1075486 -42.13269299 188.42535412 C-42.14367683 186.2139661 -42.14756463 184.00262514 -42.15138245 181.79121399 C-42.15765117 180.20243177 -42.16429833 178.61365101 -42.17129517 177.02487183 C-42.19229159 171.81304435 -42.20269429 166.60121674 -42.21266174 161.38935852 C-42.21671113 159.59138601 -42.2208281 157.79341364 -42.22501183 155.99544144 C-42.24405479 147.54590191 -42.25828699 139.09637107 -42.2666238 130.64681423 C-42.27638936 120.91134442 -42.30269485 111.17610239 -42.34312469 101.44071281 C-42.37334276 93.9041948 -42.38809811 86.36774187 -42.39140481 78.83116448 C-42.39374902 74.33544362 -42.40262713 69.83996633 -42.42786598 65.34431076 C-42.45125126 61.11053042 -42.45533826 56.87715224 -42.4451046 52.6433239 C-42.44461164 51.09664632 -42.4508607 49.54994823 -42.46466064 48.00333214 C-42.58341897 33.89464967 -39.7390273 22.53359618 -29.97438049 11.98701477 C-21.35940043 3.75663203 -11.81634613 0.0409398 0 0 Z M53.02561951 24.14717102 C51.77136169 24.51068665 50.51710388 24.87420227 49.22483826 25.24873352 C25.41273894 32.49641418 5.00351426 49.29648835 -6.97438049 71.14717102 C-9.35501972 76.01075198 -11.2187751 81.02568643 -12.97438049 86.14717102 C-13.46551331 87.55676086 -13.46551331 87.55676086 -13.96656799 88.99482727 C-21.42865256 111.98515448 -17.52539417 138.5661515 -7.15406799 159.91230774 C-4.05331873 165.78653347 -0.11838574 170.97919102 4.02561951 176.14717102 C4.86673279 177.26092102 4.86673279 177.26092102 5.72483826 178.39717102 C19.30066844 195.35840974 42.20496828 206.87609301 63.47874451 209.86592102 C90.31863475 211.99419426 116.34372591 207.31797484 137.49827576 189.42060852 C155.97521445 172.79993105 170.55468873 152.04057422 172.20140076 126.41133118 C173.44407923 98.90819358 168.16211715 74.9187449 149.46311951 53.83467102 C147.99272743 52.26391088 146.51419872 50.70070641 145.02561951 49.14717102 C144.44038513 48.51037415 143.85515076 47.87357727 143.25218201 47.21748352 C128.41844682 31.54804494 104.60249782 21.7444251 83.17015076 20.92842102 C72.75601644 20.67857265 63.08765317 21.19815764 53.02561951 24.14717102 Z " fill="#0E294A" transform="translate(162.97438049316406,110.85282897949219)"/>
<path d="M0 0 C0.99386719 0.44085938 1.98773438 0.88171875 3.01171875 1.3359375 C10.64936939 4.87605214 16.77703435 9.35820212 23 15 C24.37671875 16.23556641 24.37671875 16.23556641 25.78125 17.49609375 C43.37127942 34.12262437 53.19504799 56.02083443 54.3828125 80.17578125 C55.16072714 107.89399709 47.08174479 131.21397319 28.01489258 151.50170898 C21.05806681 158.6394565 13.65366936 164.10149868 5 169 C4.17371094 169.48855469 3.34742188 169.97710937 2.49609375 170.48046875 C-18.01431534 181.75945852 -44.72519855 183.20811272 -67 177 C-80.46951037 172.63232802 -92.20893682 166.15942476 -103 157 C-103.62648437 156.50757813 -104.25296875 156.01515625 -104.8984375 155.5078125 C-121.29284815 142.37744741 -132.43889735 120.02705746 -134.80957031 99.28125 C-137.06308136 72.28534326 -131.93231178 47.63872488 -114.8125 26.26953125 C-85.93557294 -6.99050081 -40.60083074 -19.4202575 0 0 Z M-95.609375 41.78515625 C-107.99678251 57.69656762 -111.59499725 75.21300584 -110 95 C-107.73934407 112.76875557 -98.16793515 128.52308956 -84.60546875 140.0546875 C-67.04126631 153.16858977 -48.62638921 156.63673614 -27.171875 154.64453125 C-11.67118778 151.95894707 1.38566394 143.27371148 12 132 C12.74765625 131.20980469 13.4953125 130.41960937 14.265625 129.60546875 C28.77798266 112.9051793 30.39643166 93.26416314 29 72 C28.38320192 67.36314135 26.99469523 63.23023601 25 59 C24.55269531 58.04480469 24.10539063 57.08960938 23.64453125 56.10546875 C20.45336828 49.85147376 16.56794856 44.31912233 12 39 C11.50242187 38.40703125 11.00484375 37.8140625 10.4921875 37.203125 C-1.03006916 24.58075339 -18.80959692 16.78331132 -35.68359375 15.78125 C-59.25390521 15.0199907 -80.05801325 23.90109024 -95.609375 41.78515625 Z " fill="#0562B1" transform="translate(281,141)"/>
<path d="M0 0 C8.91486924 9.79239552 12.14676921 20.06157222 12.0234375 33.1484375 C11.11707152 45.46735536 5.66228507 55.83254798 -3.203125 64.28515625 C-14.48651069 73.26888048 -26.37102691 74.89322648 -40.25390625 73.91796875 C-50.98946752 72.47800635 -60.03720166 65.27023336 -66.7578125 57.05078125 C-74.23300996 46.39423343 -76.19811756 35.7533413 -75.25390625 22.91796875 C-73.27112108 12.66325168 -67.11002681 2.24718671 -58.70703125 -3.96484375 C-39.82816201 -16.42906957 -17.13746144 -16.13985454 0 0 Z " fill="#50CAC9" transform="translate(272.25390625,196.08203125)"/>
</svg>
