<?xml version="1.0" encoding="UTF-8"?>
<svg xmlns="http://www.w3.org/2000/svg" xmlns:xlink="http://www.w3.org/1999/xlink" viewBox="0 0 256 256">
  <defs>
    <style>
      .cls-1 {
        fill: url(#linear-gradient);
      }

      .cls-2 {
        fill: #fff;
      }

      .cls-3 {
        fill: url(#linear-gradient-3);
      }

      .cls-3, .cls-4 {
        mix-blend-mode: multiply;
        opacity: .15;
      }

      .cls-5 {
        fill: url(#linear-gradient-4);
      }

      .cls-6 {
        fill: url(#linear-gradient-2);
      }

      .cls-7 {
        fill: url(#Degradado_sin_nombre_15);
      }

      .cls-8 {
        isolation: isolate;
      }

      .cls-9 {
        fill: url(#Degradado_sin_nombre_15-2);
      }

      .cls-10 {
        fill: url(#Degradado_sin_nombre_15-3);
      }
    </style>
    <linearGradient id="Degradado_sin_nombre_15" data-name="Degradado sin nombre 15" x1="97.88" y1="124.09" x2="71.51" y2="110.91" gradientTransform="matrix(1, 0, 0, 1, 0, 0)" gradientUnits="userSpaceOnUse">
      <stop offset="0" stop-color="#00b0ca"/>
      <stop offset="1" stop-color="#005681"/>
    </linearGradient>
    <linearGradient id="Degradado_sin_nombre_15-2" data-name="Degradado sin nombre 15" x1="86.48" y1="84.54" x2="71.7" y2="170.03" xlink:href="#Degradado_sin_nombre_15"/>
    <linearGradient id="linear-gradient" x1="71.76" y1="169.61" x2="164.76" y2="169.61" gradientTransform="matrix(1, 0, 0, 1, 0, 0)" gradientUnits="userSpaceOnUse">
      <stop offset="0" stop-color="#f3925e"/>
      <stop offset=".55" stop-color="#df472d"/>
      <stop offset="1" stop-color="#be1e2d"/>
    </linearGradient>
    <linearGradient id="Degradado_sin_nombre_15-3" data-name="Degradado sin nombre 15" x1="139.31" y1="169.95" x2="139.31" y2="89.51" xlink:href="#Degradado_sin_nombre_15"/>
    <linearGradient id="linear-gradient-2" x1="217.27" y1="176.77" x2="193.41" y2="125.28" xlink:href="#linear-gradient"/>
    <linearGradient id="linear-gradient-3" x1="180.59" y1="119.72" x2="209.38" y2="119.72" xlink:href="#linear-gradient"/>
    <linearGradient id="linear-gradient-4" x1="194.99" y1="133.61" x2="194.99" y2="55.76" xlink:href="#linear-gradient"/>
  </defs>
  <g class="cls-8">
    <g id="Layer_1" data-name="Layer 1">
      <g>
        <circle class="cls-2" cx="128" cy="128" r="128"/>
        <g>
          <path class="cls-7" d="M105.69,57.91h0c-32.49,0-59.07,26.58-59.07,59.07v22.04c0,32.49,26.58,59.07,59.07,59.07h58.46c.34,0,.61-.28,.61-.61V116.98c0-32.49-26.58-59.07-59.07-59.07Zm34.58,110.76c0,.2-.16,.36-.36,.36h-34.23c-19.02,0-34.58-15.56-34.58-34.58v-12.9c0-19.02,15.56-34.58,34.58-34.58h0c19.02,0,34.58,15.56,34.58,34.58v47.13Z"/>
          <path class="cls-4" d="M71.11,120.36s.01-.08,.04-.21c.31-7.66,3.14-14.69,7.68-20.3,5.92-11.29,16.22-26.1,33.99-41.49-2.34-.28-4.71-.45-7.12-.45h0c-25.64,0-47.59,16.57-55.71,39.52l21.13,22.93Z"/>
          <g>
            <path class="cls-9" d="M101.99,197.96l-.38-29.17c-17.12-2.04-30.51-16.69-30.51-34.33v-12.9c0-.39,.02-.77,.03-1.15l-.03-.04s.01-.17,.04-.48c.11-2.36,.47-4.65,1.03-6.86,2.34-12.2,9.52-37.09,30.71-55.03-31.2,1.47-56.27,27.45-56.27,59v22.04c0,31.25,24.59,57.01,55.37,58.94Z"/>
            <path class="cls-4" d="M75.34,150.97h0c-2.7-4.92-4.23-10.55-4.23-16.52v-6.43h0s-12.48,42.13,20.39,68.31c3.4,.85,6.9,1.41,10.5,1.63,0,0-24.11-24.6-26.65-46.99Z"/>
          </g>
          <path class="cls-1" d="M140.28,168.68c0,.2-.16,.36-.36,.36h-34.23c-16.74,0-30.79-12.05-33.93-27.91h0s4.1,39.91,30.23,56.83h0c1.22,.08,2.45,.13,3.7,.13h58.46c.34,0,.61-.28,.61-.61v-38.66c-4.11,4.59-11.63,9.86-24.48,9.86Z"/>
          <path class="cls-4" d="M164.76,155.75c-4,10.19-24.48,12.92-24.48,12.92,0,.2-.16,.36-.36,.36h-3.61c11.17,6.1,22.49,2.87,28.45,.26v-13.54Z"/>
          <g>
            <path class="cls-10" d="M158.7,91.01c-7.95-2.91-21.95-5.57-44.83-3.06,15.11,3.7,26.41,17.39,26.41,33.59v47.13c0,.2-.16,.36-.36,.36,0,0,17.61,1.25,24.84-9.17h0v-42.88c0-9.31-2.19-18.12-6.06-25.97Z"/>
            <path class="cls-4" d="M161.41,97.48c-.78-2.22-1.69-4.38-2.72-6.47-7.95-2.91-21.95-5.57-44.83-3.06,3.05,.75,5.94,1.92,8.62,3.42,16.62,.36,29.38,2.92,38.92,6.1Z"/>
          </g>
          <g>
            <g>
              <path class="cls-6" d="M180.59,197.47h0V60.67c0-1.48,.88-2.68,1.97-2.68h24.85c1.09,0,1.97,1.2,1.97,2.68v97.63c0,21.64-12.89,39.18-28.78,39.18Z"/>
              <path class="cls-3" d="M180.59,60.67v120.78c7.25-65.23,28.78-85.61,28.78-85.61V60.67c0-1.48-.88-2.68-1.97-2.68h-24.85c-1.09,0-1.97,1.2-1.97,2.68Z"/>
            </g>
            <path class="cls-5" d="M180.59,60.67v102.54c.64-16.91,4.97-52.14,28.78-73.25v-29.28c0-1.48-.88-2.68-1.97-2.68h-24.85c-1.09,0-1.97,1.2-1.97,2.68Z"/>
          </g>
        </g>
      </g>
    </g>
  </g>
</svg>