<svg xmlns="http://www.w3.org/2000/svg" viewBox="0 0 512 512">
  <path d="M256 41 C168 41 89 85 89 85 L89 243 C89 357 256 471 256 471 C256 471 423 357 423 243 L423 85 C423 85 344 41 256 41Z" fill="#3a3a3a"/>
  <path d="M256 67 C178 67 109 106 109 106 L109 235 C109 337 256 436 256 436 C256 436 403 337 403 235 L403 106 C403 106 334 67 256 67Z" fill="#222222"/>
  <path d="M164 262 L226 324 L348 184" fill="none" stroke="#f5f0eb" stroke-width="36" stroke-linecap="round" stroke-linejoin="round"/>
</svg>
