<?xml version="1.0" encoding="UTF-8"?>
<svg id="_图层_1" data-name="图层_1" xmlns="http://www.w3.org/2000/svg" version="1.1" viewBox="0 0 73.34 69.32">
  <!-- Generator: Adobe Illustrator 29.5.0, SVG Export Plug-In . SVG Version: 2.1.0 Build 137)  -->
  <defs>
    <style>
      .st0 {
        stroke-linejoin: round;
        stroke-width: 2.4px;
      }

      .st0, .st1 {
        fill: none;
        stroke: #040000;
        stroke-linecap: round;
      }

      .st2 {
        fill: #040000;
      }

      .st1 {
        stroke-width: 2px;
      }
    </style>
  </defs>
  <path class="st0" d="M36.67,58.4l-20-20.5c-5.5-5.5-5.5-14.5,0-20s14.5-4.5,20,1.5c5.5-6,14.5-7,20-1.5s5.5,14.5,0,20l-20,20.5Z"/>
  <line class="st1" x1="36.67" y1="28.91" x2="36.67" y2="45.74"/>
  <circle class="st2" cx="36.67" cy="28.63" r="2"/>
  <circle class="st2" cx="36.67" cy="46.25" r="2"/>
  <g>
    <polyline class="st1" points="24.45 24.17 29.26 28.42 29.26 42.52"/>
    <circle class="st2" cx="23.8" cy="23.68" r="2"/>
    <circle class="st2" cx="29.26" cy="42.68" r="2"/>
  </g>
  <g>
    <polyline class="st1" points="44.08 42.52 44.08 28.42 48.89 24.17"/>
    <circle class="st2" cx="49.53" cy="23.68" r="2"/>
    <circle class="st2" cx="44.08" cy="42.68" r="2"/>
  </g>
</svg>