<?xml version="1.0" encoding="UTF-8"?>
<svg version="1.1" xmlns="http://www.w3.org/2000/svg" width="198" height="198">
<path d="M0 0 C65.34 0 130.68 0 198 0 C198 65.34 198 130.68 198 198 C132.66 198 67.32 198 0 198 C0 132.66 0 67.32 0 0 Z " fill="#F1F1F1" transform="translate(0,0)"/>
<path d="M0 0 C15.88955445 -0.02254723 31.77909629 -0.04097929 47.66866207 -0.05181217 C55.04595956 -0.05697508 62.42324643 -0.06401767 69.80053711 -0.07543945 C76.2283218 -0.08538646 82.6560988 -0.09185347 89.08389097 -0.09408849 C92.48939278 -0.09539557 95.89487258 -0.09848125 99.30036736 -0.10573006 C103.09601041 -0.11293606 106.89160712 -0.11399113 110.68725586 -0.11352539 C112.3930481 -0.1189183 112.3930481 -0.1189183 114.13330078 -0.12442017 C115.67515297 -0.12235817 115.67515297 -0.12235817 117.24815369 -0.12025452 C118.14690185 -0.12117631 119.04565001 -0.1220981 119.97163296 -0.12304783 C122 0 122 0 123 1 C123.09794531 2.37079883 123.12798081 3.7465568 123.12939453 5.12084961 C123.13254669 5.99523178 123.13569885 6.86961395 123.13894653 7.77049255 C123.13591019 9.1970089 123.13591019 9.1970089 123.1328125 10.65234375 C123.13376923 11.62281143 123.13472595 12.59327911 123.13571167 13.59315491 C123.13639365 15.65023869 123.13453814 17.70732462 123.13037109 19.7644043 C123.12502884 22.92045922 123.13031253 26.07637145 123.13671875 29.23242188 C123.13605786 31.22656282 123.13477647 33.22070367 123.1328125 35.21484375 C123.13483673 36.16383041 123.13686096 37.11281708 123.13894653 38.09056091 C123.13421829 39.40686241 123.13421829 39.40686241 123.12939453 40.74975586 C123.12859894 41.5239537 123.12780334 42.29815155 123.12698364 43.09580994 C123 45 123 45 122 47 C117.38 47 112.76 47 108 47 C103.67436581 38.34873163 107 27.67241209 107 18 C77.3 17.67 47.6 17.34 17 17 C17 21.62 17 26.24 17 31 C29.21 31 41.42 31 54 31 C55.60344035 34.20688071 55.12922745 37.69182847 55.11352539 41.21337891 C55.11367142 42.0622316 55.11381744 42.91108429 55.1139679 43.78565979 C55.11326966 46.59931977 55.1054814 49.41291404 55.09765625 52.2265625 C55.09579175 54.17426518 55.094368 56.12196832 55.09336853 58.06967163 C55.08954583 63.20220224 55.07971765 68.33470467 55.06866455 73.46722412 C55.05844512 78.70210387 55.05386977 83.93698816 55.04882812 89.171875 C55.03809517 99.44792907 55.0210217 109.72396219 55 120 C51.6015625 119.64453125 51.6015625 119.64453125 48 119 C46.375 116.6875 46.375 116.6875 45 114 C44.175 113.34 43.35 112.68 42.5 112 C40 110 40 110 38.5769043 107.62255859 C37.01717611 105.02856569 35.40965326 103.16556337 33.26953125 101.0390625 C32.54830078 100.31976563 31.82707031 99.60046875 31.08398438 98.859375 C30.33439453 98.12203125 29.58480469 97.3846875 28.8125 96.625 C28.08224609 95.89539063 27.35199219 95.16578125 26.59960938 94.4140625 C21.89261835 89.74459399 17.0338751 85.31301283 12 81 C10.1618805 79.40131975 8.32773097 77.79804689 6.5 76.1875 C5.6440625 75.43855469 4.788125 74.68960938 3.90625 73.91796875 C2 72 2 72 2 70 C1.34 70 0.68 70 0 70 C-0.02684679 67.35409986 -0.04676357 64.70846904 -0.0625 62.0625 C-0.07087891 61.30775391 -0.07925781 60.55300781 -0.08789062 59.77539062 C-0.09652441 57.85005687 -0.05224333 55.92464419 0 54 C1 53 1 53 4.59765625 52.90234375 C6.08596867 52.9090178 7.57426432 52.92097817 9.0625 52.9375 C10.20041992 52.94426758 10.20041992 52.94426758 11.36132812 52.95117188 C13.24091871 52.9629932 15.12046899 52.98092922 17 53 C17.12375 54.2375 17.2475 55.475 17.375 56.75 C17.77657653 59.86359338 18.10794943 62.41087817 20 65 C20.59039062 65.26039062 21.18078125 65.52078125 21.7890625 65.7890625 C24.70498729 67.38612378 26.4014229 69.48422836 28.5625 72 C30.99072202 74.81722892 32.89468133 76.92978755 36 79 C36.33 69.1 36.66 59.2 37 49 C24.79 49 12.58 49 0 49 C0 32.83 0 16.66 0 0 Z " fill="#4B338E" transform="translate(37,33)"/>
<path d="M0 0 C5.94 0 11.88 0 18 0 C18 15.18 18 30.36 18 46 C25.50234115 43.49921962 31.17989363 39.36684839 35.53125 32.62890625 C36.74895819 30.26440012 36.74895819 30.26440012 38 27 C38.66 27 39.32 27 40 27 C40.33 25.68 40.66 24.36 41 23 C43.31243792 22.97314588 45.6249627 22.95367159 47.9375 22.9375 C49.22527344 22.92589844 50.51304687 22.91429688 51.83984375 22.90234375 C55 23 55 23 56 24 C56.5271416 30.0418537 56.78582356 35.0027129 53 40 C52.85111328 40.93199219 52.85111328 40.93199219 52.69921875 41.8828125 C51.68634022 44.9497408 49.81055845 46.02465678 47.25 47.9375 C41.00329904 52.76045146 36.68718135 57.03532412 33 64 C32.34 64 31.68 64 31 64 C30.95875 64.598125 30.9175 65.19625 30.875 65.8125 C30 68 30 68 27.0625 69.75 C24 71 24 71 22 71 C21.7525 71.78375 21.505 72.5675 21.25 73.375 C20 76 20 76 18.0625 77.3125 C16 78 16 78 13 78 C12.896875 78.556875 12.79375 79.11375 12.6875 79.6875 C11.85821592 82.4769101 10.65700944 84.6139064 9 87 C8.34 87 7.68 87 7 87 C6.67 87.99 6.34 88.98 6 90 C3.4375 91.1875 3.4375 91.1875 1 92 C-0.844719 90.155281 -0.1200219 87.55483588 -0.12442017 85.1006012 C-0.12082489 84.25327927 -0.11722961 83.40595734 -0.11352539 82.53295898 C-0.11367142 81.64523804 -0.11381744 80.75751709 -0.1139679 79.84289551 C-0.11326843 76.89393716 -0.10547448 73.94504113 -0.09765625 70.99609375 C-0.09579219 68.95728083 -0.09436823 66.91846746 -0.09336853 64.87965393 C-0.08954241 59.50215426 -0.07971132 54.12468142 -0.06866455 48.74719238 C-0.05845245 43.26440799 -0.05387134 37.78161928 -0.04882812 32.29882812 C-0.03808914 21.53253838 -0.02049158 10.76627561 0 0 Z " fill="#4A318D" transform="translate(104,64)"/>
<path d="M0 0 C15.88955445 -0.02254723 31.77909629 -0.04097929 47.66866207 -0.05181217 C55.04595956 -0.05697508 62.42324643 -0.06401767 69.80053711 -0.07543945 C76.2283218 -0.08538646 82.6560988 -0.09185347 89.08389097 -0.09408849 C92.48939278 -0.09539557 95.89487258 -0.09848125 99.30036736 -0.10573006 C103.09601041 -0.11293606 106.89160712 -0.11399113 110.68725586 -0.11352539 C112.3930481 -0.1189183 112.3930481 -0.1189183 114.13330078 -0.12442017 C115.67515297 -0.12235817 115.67515297 -0.12235817 117.24815369 -0.12025452 C118.14690185 -0.12117631 119.04565001 -0.1220981 119.97163296 -0.12304783 C122 0 122 0 123 1 C123.09794531 2.37079883 123.12798081 3.7465568 123.12939453 5.12084961 C123.13254669 5.99523178 123.13569885 6.86961395 123.13894653 7.77049255 C123.13591019 9.1970089 123.13591019 9.1970089 123.1328125 10.65234375 C123.13376923 11.62281143 123.13472595 12.59327911 123.13571167 13.59315491 C123.13639365 15.65023869 123.13453814 17.70732462 123.13037109 19.7644043 C123.12502884 22.92045922 123.13031253 26.07637145 123.13671875 29.23242188 C123.13605786 31.22656282 123.13477647 33.22070367 123.1328125 35.21484375 C123.13483673 36.16383041 123.13686096 37.11281708 123.13894653 38.09056091 C123.13421829 39.40686241 123.13421829 39.40686241 123.12939453 40.74975586 C123.12859894 41.5239537 123.12780334 42.29815155 123.12698364 43.09580994 C123 45 123 45 122 47 C117.38 47 112.76 47 108 47 C103.67436581 38.34873163 107 27.67241209 107 18 C77.3 17.67 47.6 17.34 17 17 C17 21.62 17 26.24 17 31 C29.21 31 41.42 31 54 31 C55.60344035 34.20688071 55.12922745 37.69182847 55.11352539 41.21337891 C55.11367142 42.0622316 55.11381744 42.91108429 55.1139679 43.78565979 C55.11326966 46.59931977 55.1054814 49.41291404 55.09765625 52.2265625 C55.09579175 54.17426518 55.094368 56.12196832 55.09336853 58.06967163 C55.08954583 63.20220224 55.07971765 68.33470467 55.06866455 73.46722412 C55.05844512 78.70210387 55.05386977 83.93698816 55.04882812 89.171875 C55.03809517 99.44792907 55.0210217 109.72396219 55 120 C51.6015625 119.64453125 51.6015625 119.64453125 48 119 C46.375 116.6875 46.375 116.6875 45 114 C42.42816686 111.72462308 42.42816686 111.72462308 40 110 C40.33 109.34 40.66 108.68 41 108 C41.433125 108.474375 41.86625 108.94875 42.3125 109.4375 C44.02309613 111.23686957 44.02309613 111.23686957 47 112 C47.66666667 113.66666667 48.33333333 115.33333333 49 117 C49.99 117.33 50.98 117.66 52 118 C52.33 89.62 52.66 61.24 53 32 C40.79 32 28.58 32 16 32 C16 16 16 16 17 15 C19.78914774 14.89415639 22.55366478 14.85322187 25.34350586 14.85473633 C26.65563805 14.84969841 26.65563805 14.84969841 27.99427795 14.84455872 C30.90114746 14.83501872 33.80795955 14.83310409 36.71484375 14.83203125 C38.72644576 14.82882082 40.73804754 14.82545691 42.74964905 14.82194519 C46.97234641 14.8159463 51.19502328 14.81410607 55.41772461 14.81469727 C60.83984397 14.81479894 66.26183253 14.80114479 71.68392086 14.78392506 C75.84022124 14.77282955 79.99648975 14.7707773 84.15280342 14.77130699 C86.15236423 14.77012324 88.15192577 14.76567953 90.15147209 14.75797462 C92.94344224 14.74822386 95.73512525 14.7510332 98.52709961 14.75708008 C99.35990448 14.75146057 100.19270935 14.74584106 101.05075073 14.74005127 C106.77168466 14.77168466 106.77168466 14.77168466 109 17 C109.22705078 19.88916016 109.22705078 19.88916016 109.1953125 23.5390625 C109.18886719 24.84101562 109.18242187 26.14296875 109.17578125 27.484375 C109.15906929 28.86458595 109.14213939 30.24479429 109.125 31.625 C109.11497006 33.01301452 109.10584423 34.40103589 109.09765625 35.7890625 C109.07401863 39.19288026 109.04106867 42.59635506 109 46 C112.96 46 116.92 46 121 46 C121 31.48 121 16.96 121 2 C82.06 2.33 43.12 2.66 3 3 C3 16.86 3 30.72 3 45 C5.98537677 46.49268839 9.06700019 46.19759385 12.34375 46.24609375 C13.83203738 46.27902092 15.32031849 46.31223275 16.80859375 46.34570312 C19.15897459 46.39320297 21.50932795 46.43765537 23.85986328 46.47680664 C26.1255912 46.51642722 28.3908039 46.5679826 30.65625 46.62109375 C31.36148804 46.6295079 32.06672607 46.63792206 32.79333496 46.64659119 C37.77329855 46.77329855 37.77329855 46.77329855 40 49 C40.17502995 51.58103306 40.23162279 54.05308163 40.1953125 56.6328125 C40.1924826 57.38464813 40.18965271 58.13648376 40.18673706 58.91110229 C40.17552874 61.31589578 40.15042352 63.72031881 40.125 66.125 C40.11497102 67.75390088 40.10584503 69.38280758 40.09765625 71.01171875 C40.07558735 75.00795556 40.04105351 79.00391494 40 83 C35.23486328 83.20117188 35.23486328 83.20117188 33.12109375 81.390625 C32.28771484 80.33101562 32.28771484 80.33101562 31.4375 79.25 C30.54611328 78.15751953 30.54611328 78.15751953 29.63671875 77.04296875 C29.09660156 76.36878906 28.55648437 75.69460937 28 75 C25.00455767 71.72548038 25.00455767 71.72548038 21 70 C21 69.01 21 68.02 21 67 C19.515 66.505 19.515 66.505 18 66 C17.12109375 63.96875 17.12109375 63.96875 16.4375 61.5 C15.79615283 59.08504595 15.79615283 59.08504595 15 57 C12.29816945 55.64908472 9.88191794 55.66141942 6.875 55.4375 C4.93625 55.293125 2.9975 55.14875 1 55 C1.33 59.95 1.66 64.9 2 70 C1.34 70 0.68 70 0 70 C-0.02684679 67.35409986 -0.04676357 64.70846904 -0.0625 62.0625 C-0.07087891 61.30775391 -0.07925781 60.55300781 -0.08789062 59.77539062 C-0.09652441 57.85005687 -0.05224333 55.92464419 0 54 C1 53 1 53 4.59765625 52.90234375 C6.08596867 52.9090178 7.57426432 52.92097817 9.0625 52.9375 C10.20041992 52.94426758 10.20041992 52.94426758 11.36132812 52.95117188 C13.24091871 52.9629932 15.12046899 52.98092922 17 53 C17.12375 54.2375 17.2475 55.475 17.375 56.75 C17.77657653 59.86359338 18.10794943 62.41087817 20 65 C20.59039062 65.26039062 21.18078125 65.52078125 21.7890625 65.7890625 C24.70498729 67.38612378 26.4014229 69.48422836 28.5625 72 C30.99072202 74.81722892 32.89468133 76.92978755 36 79 C36.33 69.1 36.66 59.2 37 49 C24.79 49 12.58 49 0 49 C0 32.83 0 16.66 0 0 Z " fill="#8676B1" transform="translate(37,33)"/>
<path d="M0 0 C15.88955127 -0.02332924 31.77909794 -0.0409793 47.66866207 -0.05181217 C55.04595956 -0.05697508 62.42324643 -0.06401767 69.80053711 -0.07543945 C76.2283218 -0.08538646 82.6560988 -0.09185347 89.08389097 -0.09408849 C92.48939278 -0.09539557 95.89487258 -0.09848125 99.30036736 -0.10573006 C103.09601041 -0.11293606 106.89160712 -0.11399113 110.68725586 -0.11352539 C112.3930481 -0.1189183 112.3930481 -0.1189183 114.13330078 -0.12442017 C115.67515297 -0.12235817 115.67515297 -0.12235817 117.24815369 -0.12025452 C118.14690185 -0.12117631 119.04565001 -0.1220981 119.97163296 -0.12304783 C122 0 122 0 123 1 C123.09822116 2.46275405 123.12798364 3.93019289 123.12939453 5.39624023 C123.13254669 6.33068466 123.13569885 7.26512909 123.13894653 8.22789001 C123.13591019 9.75283836 123.13591019 9.75283836 123.1328125 11.30859375 C123.13376923 12.34564957 123.13472595 13.38270538 123.13571167 14.45118713 C123.13639369 16.64950623 123.13453791 18.84782732 123.13037109 21.04614258 C123.12502854 24.41947949 123.1303126 27.79268292 123.13671875 31.16601562 C123.13605787 33.2968753 123.13477649 35.42773488 123.1328125 37.55859375 C123.13483673 38.57320175 123.13686096 39.58780975 123.13894653 40.63316345 C123.13421829 42.03955833 123.13421829 42.03955833 123.12939453 43.47436523 C123.12859894 44.30185776 123.12780334 45.12935028 123.12698364 45.98191833 C123 48 123 48 122 50 C119.37493198 50.02690844 116.75013827 50.04679404 114.125 50.0625 C113.37863281 50.07087891 112.63226563 50.07925781 111.86328125 50.08789062 C106.2265625 50.11328125 106.2265625 50.11328125 104 49 C104 39.43 104 29.86 104 20 C75.29 20 46.58 20 17 20 C17 22.97 17 25.94 17 29 C18.07483643 28.99476318 19.14967285 28.98952637 20.25708008 28.98413086 C24.24339974 28.96603599 28.22971576 28.95455154 32.21606445 28.94506836 C33.9416566 28.94003842 35.66724448 28.93321374 37.39282227 28.92456055 C39.8725693 28.91243639 42.35226 28.90675831 44.83203125 28.90234375 C45.60400345 28.89718246 46.37597565 28.89202118 47.17134094 28.88670349 C50.3830228 28.88636682 52.93020266 28.97673422 56 30 C56 60.69 56 91.38 56 123 C54.02 123 52.04 123 50 123 C50 122.01 50 121.02 50 120 C51.32 120.33 52.64 120.66 54 121 C53.67 91.63 53.34 62.26 53 32 C40.79 32 28.58 32 16 32 C16 27.38 16 22.76 16 18 C27.43922943 17.97686575 38.87845332 17.95907937 50.31770134 17.94818783 C55.62896422 17.94296138 60.94021115 17.93586802 66.25146484 17.92456055 C71.37372114 17.91372325 76.49596204 17.90772136 81.61822891 17.90512276 C83.5759213 17.90327004 85.53361281 17.89965233 87.49129868 17.89426994 C90.22582595 17.88704836 92.960289 17.88600954 95.69482422 17.88647461 C96.51049866 17.88287933 97.3261731 17.87928406 98.16656494 17.87557983 C103.77189568 17.88594784 103.77189568 17.88594784 106 19 C106.495 33.355 106.495 33.355 107 48 C111.62 48 116.24 48 121 48 C121 32.82 121 17.64 121 2 C81.07 1.67 41.14 1.34 0 1 C0 0.67 0 0.34 0 0 Z " fill="#C7C1D8" transform="translate(38,32)"/>
<path d="M0 0 C5.94 0 11.88 0 18 0 C18 15.18 18 30.36 18 46 C19.65 46 21.3 46 23 46 C22.67 47.32 22.34 48.64 22 50 C20.33388095 50.042721 18.66617115 50.04063832 17 50 C16 49 16 49 15.87974548 47.09544373 C15.8830764 45.84634972 15.8830764 45.84634972 15.88647461 44.57202148 C15.88655014 43.63112167 15.88662567 42.69022186 15.88670349 41.72080994 C15.89186478 40.69790359 15.89702606 39.67499725 15.90234375 38.62109375 C15.9037587 37.57929459 15.90517365 36.53749542 15.90663147 35.46412659 C15.9122492 32.12188906 15.9248047 28.77971743 15.9375 25.4375 C15.94251272 23.17773534 15.94707602 20.91796963 15.95117188 18.65820312 C15.96222439 13.10544318 15.9795009 7.55273278 16 2 C11.71 2 7.42 2 3 2 C3.33 29.72 3.66 57.44 4 86 C4.99 86 5.98 86 7 86 C7 85.34 7 84.68 7 84 C8.98 83.505 8.98 83.505 11 83 C10.34 84.32 9.68 85.64 9 87 C8.34 87 7.68 87 7 87 C6.67 87.99 6.34 88.98 6 90 C3.4375 91.1875 3.4375 91.1875 1 92 C-0.844719 90.155281 -0.1200219 87.55483588 -0.12442017 85.1006012 C-0.12082489 84.25327927 -0.11722961 83.40595734 -0.11352539 82.53295898 C-0.11367142 81.64523804 -0.11381744 80.75751709 -0.1139679 79.84289551 C-0.11326843 76.89393716 -0.10547448 73.94504113 -0.09765625 70.99609375 C-0.09579219 68.95728083 -0.09436823 66.91846746 -0.09336853 64.87965393 C-0.08954241 59.50215426 -0.07971132 54.12468142 -0.06866455 48.74719238 C-0.05845245 43.26440799 -0.05387134 37.78161928 -0.04882812 32.29882812 C-0.03808914 21.53253838 -0.02049158 10.76627561 0 0 Z " fill="#67539F" transform="translate(104,64)"/>
<path d="M0 0 C13.2 0 26.4 0 40 0 C40 30.69 40 61.38 40 93 C38.02 93 36.04 93 34 93 C34 92.01 34 91.02 34 90 C35.32 90.33 36.64 90.66 38 91 C37.67 61.63 37.34 32.26 37 2 C24.79 2 12.58 2 0 2 C0 1.34 0 0.68 0 0 Z " fill="#BDB5D2" transform="translate(54,62)"/>
<path d="M0 0 C5.53604375 0.11793339 11.07189613 0.24215781 16.60766602 0.37231445 C18.49239218 0.41572933 20.37715936 0.45739943 22.26196289 0.49731445 C24.96513249 0.55485893 27.66809436 0.61859804 30.37109375 0.68359375 C31.21900986 0.70030624 32.06692596 0.71701874 32.9405365 0.73423767 C38.88612829 0.88612829 38.88612829 0.88612829 40 2 C40.08847743 4.52094076 40.11527301 7.01430893 40.09765625 9.53515625 C40.0962413 10.28840683 40.09482635 11.04165741 40.09336853 11.81773376 C40.08775376 14.2326956 40.07519883 16.64756601 40.0625 19.0625 C40.0574869 20.69596221 40.05292366 22.32942586 40.04882812 23.96289062 C40.03777954 27.97529585 40.02050506 31.98763241 40 36 C35.23486328 36.20117188 35.23486328 36.20117188 33.12109375 34.390625 C32.28771484 33.33101562 32.28771484 33.33101562 31.4375 32.25 C30.84324219 31.52167969 30.24898437 30.79335937 29.63671875 30.04296875 C29.09660156 29.36878906 28.55648437 28.69460937 28 28 C25.00455767 24.72548038 25.00455767 24.72548038 21 23 C21 22.01 21 21.02 21 20 C20.01 19.67 19.02 19.34 18 19 C17.12109375 16.96875 17.12109375 16.96875 16.4375 14.5 C15.79615283 12.08504595 15.79615283 12.08504595 15 10 C12.29816945 8.64908472 9.88191794 8.66141942 6.875 8.4375 C4.93625 8.293125 2.9975 8.14875 1 8 C1.33 12.95 1.66 17.9 2 23 C1.34 23 0.68 23 0 23 C-0.02684679 20.35409986 -0.04676357 17.70846904 -0.0625 15.0625 C-0.07087891 14.30775391 -0.07925781 13.55300781 -0.08789062 12.77539062 C-0.09652441 10.85005687 -0.05224333 8.92464419 0 7 C1 6 1 6 4.59765625 5.90234375 C6.08596867 5.9090178 7.57426432 5.92097817 9.0625 5.9375 C9.82111328 5.94201172 10.57972656 5.94652344 11.36132812 5.95117188 C13.24091871 5.9629932 15.12046899 5.98092922 17 6 C17.12375 7.2375 17.2475 8.475 17.375 9.75 C17.77657653 12.86359338 18.10794943 15.41087817 20 18 C20.59039062 18.26039062 21.18078125 18.52078125 21.7890625 18.7890625 C24.70498729 20.38612378 26.4014229 22.48422836 28.5625 25 C30.99072202 27.81722892 32.89468133 29.92978755 36 32 C36.33 22.1 36.66 12.2 37 2 C24.79 2 12.58 2 0 2 C0 1.34 0 0.68 0 0 Z " fill="#B7AFCF" transform="translate(37,80)"/>
<path d="M0 0 C2.31243792 -0.02685412 4.6249627 -0.04632841 6.9375 -0.0625 C8.22527344 -0.07410156 9.51304687 -0.08570312 10.83984375 -0.09765625 C14 0 14 0 15 1 C15.5271416 7.0418537 15.78582356 12.0027129 12 17 C11.90074219 17.62132813 11.80148438 18.24265625 11.69921875 18.8828125 C10.68634022 21.9497408 8.81055845 23.02465678 6.25 24.9375 C0.00329904 29.76045146 -4.31281865 34.03532412 -8 41 C-8.66 41 -9.32 41 -10 41 C-10.04125 41.598125 -10.0825 42.19625 -10.125 42.8125 C-11 45 -11 45 -13.9375 46.75 C-17 48 -17 48 -19 48 C-19.4021875 49.2065625 -19.4021875 49.2065625 -19.8125 50.4375 C-20.4003125 51.7059375 -20.4003125 51.7059375 -21 53 C-22.485 53.495 -22.485 53.495 -24 54 C-23.44397475 50.43217129 -22.31393174 49.07770886 -19.5 46.875 C-16.8119616 44.80112319 -16.8119616 44.80112319 -15 42 C-14.34 42 -13.68 42 -13 42 C-12.773125 41.071875 -12.54625 40.14375 -12.3125 39.1875 C-10.73726464 35.36192841 -9.56181736 34.90515812 -6 33 C-4.31237149 31.3545622 -2.6459651 29.68711423 -1 28 C-0.0925 27.319375 0.815 26.63875 1.75 25.9375 C4.10171348 23.91241339 4.67587628 23.02515469 5 20 C5.66 20 6.32 20 7 20 C7 19.34 7 18.68 7 18 C7.99 18 8.98 18 10 18 C10 16.68 10 15.36 10 14 C10.66 14 11.32 14 12 14 C12.33 10.37 12.66 6.74 13 3 C9.04 3 5.08 3 1 3 C1 3.99 1 4.98 1 6 C-0.66666667 7.66666667 -2.33333333 9.33333333 -4 11 C-4.33 11.825 -4.66 12.65 -5 13.5 C-6.37235419 16.93088548 -8.15388036 18.65985718 -11 21 C-13.33967526 21.94169502 -15.51874771 22.46482794 -18 23 C-17.34 22.360625 -16.68 21.72125 -16 21.0625 C-13.54596188 18.59439862 -11.16415742 16.06583387 -8.8125 13.5 C-7.80123047 12.40171875 -7.80123047 12.40171875 -6.76953125 11.28125 C-4.94565632 8.92994105 -3.96193538 6.80194509 -3 4 C-2.34 4 -1.68 4 -1 4 C-0.67 2.68 -0.34 1.36 0 0 Z " fill="#7F6EAD" transform="translate(145,87)"/>
<path d="M0 0 C0.33 0.66 0.66 1.32 1 2 C13.21 2 25.42 2 38 2 C39.60344035 5.20688071 39.12922745 8.69182847 39.11352539 12.21337891 C39.11367142 13.0622316 39.11381744 13.91108429 39.1139679 14.78565979 C39.11326966 17.59931977 39.1054814 20.41291404 39.09765625 23.2265625 C39.09579175 25.17426518 39.094368 27.12196832 39.09336853 29.06967163 C39.08954583 34.20220224 39.07971765 39.33470467 39.06866455 44.46722412 C39.05844512 49.70210387 39.05386977 54.93698816 39.04882812 60.171875 C39.03809517 70.44792907 39.0210217 80.72396219 39 91 C35.6015625 90.64453125 35.6015625 90.64453125 32 90 C30.375 87.6875 30.375 87.6875 29 85 C26.42816686 82.72462308 26.42816686 82.72462308 24 81 C24.33 80.34 24.66 79.68 25 79 C25.433125 79.474375 25.86625 79.94875 26.3125 80.4375 C28.02309613 82.23686957 28.02309613 82.23686957 31 83 C31.66666667 84.66666667 32.33333333 86.33333333 33 88 C33.99 88.33 34.98 88.66 36 89 C36.33 60.62 36.66 32.24 37 3 C24.79 3 12.58 3 0 3 C0 2.01 0 1.02 0 0 Z " fill="#7B69AB" transform="translate(53,62)"/>
<path d="M0 0 C0.83640015 0.00202423 1.67280029 0.00404846 2.5345459 0.00613403 C3.84908752 0.00350555 3.84908752 0.00350555 5.19018555 0.00082397 C8.10186717 -0.00359576 11.0134886 -0.00065613 13.9251709 0.00271606 C15.93916841 0.00204306 17.95316585 0.00107306 19.96716309 -0.00018311 C24.19405895 -0.00166024 28.42093373 0.00049499 32.64782715 0.00515747 C38.07897622 0.01085476 43.51007589 0.00757584 48.94122314 0.00158501 C53.10176977 -0.00202018 57.26230459 -0.00088222 61.42285156 0.0017128 C63.42602545 0.00238219 65.42920039 0.00155324 67.43237305 -0.00076675 C70.22687642 -0.00329258 73.02129861 0.00054632 75.8157959 0.00613403 C77.07039612 0.00309769 77.07039612 0.00309769 78.3503418 0 C84.06090848 0.02126614 84.06090848 0.02126614 85.1751709 1.13552856 C85.26292695 3.28111683 85.28212309 5.42957278 85.27282715 7.57693481 C85.26799316 9.53469849 85.26799316 9.53469849 85.26306152 11.53201294 C85.25470491 12.92068546 85.24623995 14.30935734 85.2376709 15.69802856 C85.23265756 17.09060512 85.22809436 18.48318338 85.22399902 19.87576294 C85.21216524 23.29572727 85.1956797 26.715607 85.1751709 30.13552856 C84.8451709 30.13552856 84.5151709 30.13552856 84.1751709 30.13552856 C84.1751709 21.22552856 84.1751709 12.31552856 84.1751709 3.13552856 C54.4751709 2.80552856 24.7751709 2.47552856 -5.8248291 2.13552856 C-5.8248291 6.09552856 -5.8248291 10.05552856 -5.8248291 14.13552856 C-6.1548291 14.13552856 -6.4848291 14.13552856 -6.8248291 14.13552856 C-6.85168849 11.9897622 -6.87115998 9.84390211 -6.8873291 7.69802856 C-6.89893066 6.50306763 -6.91053223 5.30810669 -6.92248535 4.07693481 C-6.75176313 -1.06521837 -4.58389496 0.01707042 0 0 Z " fill="#9F92C1" transform="translate(59.8248291015625,47.864471435546875)"/>
<path d="M0 0 C5.94 0 11.88 0 18 0 C18 15.18 18 30.36 18 46 C19.485 46.495 19.485 46.495 21 47 C19.02 47.495 19.02 47.495 17 48 C17 32.49 17 16.98 17 1 C11.72 1 6.44 1 1 1 C1 30.04 1 59.08 1 89 C3.97 88.01 3.97 88.01 7 87 C6.67 87.99 6.34 88.98 6 90 C3.4375 91.1875 3.4375 91.1875 1 92 C-0.844719 90.155281 -0.1200219 87.55483588 -0.12442017 85.1006012 C-0.12082489 84.25327927 -0.11722961 83.40595734 -0.11352539 82.53295898 C-0.11367142 81.64523804 -0.11381744 80.75751709 -0.1139679 79.84289551 C-0.11326843 76.89393716 -0.10547448 73.94504113 -0.09765625 70.99609375 C-0.09579219 68.95728083 -0.09436823 66.91846746 -0.09336853 64.87965393 C-0.08954241 59.50215426 -0.07971132 54.12468142 -0.06866455 48.74719238 C-0.05845245 43.26440799 -0.05387134 37.78161928 -0.04882812 32.29882812 C-0.03808914 21.53253838 -0.02049158 10.76627561 0 0 Z " fill="#B3AACC" transform="translate(104,64)"/>
<path d="M0 0 C0.33 0 0.66 0 1 0 C1 27.06 1 54.12 1 82 C2.98 81.505 2.98 81.505 5 81 C5 80.34 5 79.68 5 79 C5.99 79 6.98 79 8 79 C8 78.01 8 77.02 8 76 C8.66 76 9.32 76 10 76 C9.8125 77.875 9.8125 77.875 9 80 C6.4375 81.25 6.4375 81.25 4 82 C4 82.66 4 83.32 4 84 C2.515 84.495 2.515 84.495 1 85 C-0.76582363 83.23417637 -0.11985561 80.89628001 -0.12442017 78.54483032 C-0.12082489 77.76296356 -0.11722961 76.9810968 -0.11352539 76.17553711 C-0.11367142 75.35609116 -0.11381744 74.5366452 -0.1139679 73.69236755 C-0.11326852 70.97066647 -0.10547501 68.24903295 -0.09765625 65.52734375 C-0.09579216 63.64547259 -0.09436821 61.76360094 -0.09336853 59.88172913 C-0.08954267 54.91851471 -0.07971181 49.95532936 -0.06866455 44.99212646 C-0.0584519 39.93160394 -0.05387122 34.87107673 -0.04882812 29.81054688 C-0.0380896 19.87368512 -0.02101236 9.93684497 0 0 Z " fill="#5A4398" transform="translate(107,66)"/>
<path d="M0 0 C0.33 0 0.66 0 1 0 C1.33 28.05 1.66 56.1 2 85 C3.32 85 4.64 85 6 85 C6 84.34 6 83.68 6 83 C7.98 82.505 7.98 82.505 10 82 C9.01958581 84.45103548 8.3486182 85.76758786 6.125 87.25 C4 88 4 88 0 88 C0 58.96 0 29.92 0 0 Z " fill="#8373AF" transform="translate(105,65)"/>
<path d="M0 0 C0.495 0.99 0.495 0.99 1 2 C0.33613281 2.51949219 -0.32773438 3.03898437 -1.01171875 3.57421875 C-8.09055993 9.16495317 -13.7553213 13.98227356 -18 22 C-18.66 22 -19.32 22 -20 22 C-20.04125 22.598125 -20.0825 23.19625 -20.125 23.8125 C-21 26 -21 26 -23.9375 27.75 C-27 29 -27 29 -29 29 C-29.4021875 30.2065625 -29.4021875 30.2065625 -29.8125 31.4375 C-30.4003125 32.7059375 -30.4003125 32.7059375 -31 34 C-32.485 34.495 -32.485 34.495 -34 35 C-33.44397475 31.43217129 -32.31393174 30.07770886 -29.5 27.875 C-26.8119616 25.80112319 -26.8119616 25.80112319 -25 23 C-24.34 23 -23.68 23 -23 23 C-22.773125 22.071875 -22.54625 21.14375 -22.3125 20.1875 C-20.73726464 16.36192841 -19.56181736 15.90515812 -16 14 C-14.32767407 12.33901188 -12.66184277 10.67147664 -11 9 C-9.08232976 7.37218005 -7.14477957 5.76747267 -5.1875 4.1875 C-4.21167969 3.39730469 -3.23585937 2.60710937 -2.23046875 1.79296875 C-1.12638672 0.90544922 -1.12638672 0.90544922 0 0 Z " fill="#8D7EB5" transform="translate(155,106)"/>
<path d="M0 0 C1.93719378 -0.05406122 3.87481921 -0.09282025 5.8125 -0.125 C6.89144531 -0.14820312 7.97039063 -0.17140625 9.08203125 -0.1953125 C12 0 12 0 15 2 C16.1875 5.625 16.1875 5.625 17 9 C16.01 8.67 15.02 8.34 14 8 C13.67 6.02 13.34 4.04 13 2 C9.37 2 5.74 2 2 2 C2.33 6.62 2.66 11.24 3 16 C3.99 16 4.98 16 6 16 C6.66 17.98 7.32 19.96 8 22 C6.8450079 21.26418258 5.70125815 20.51069961 4.5625 19.75 C3.92441406 19.33234375 3.28632812 18.9146875 2.62890625 18.484375 C0.59192667 16.62813462 0.34030218 15.72241743 0 13 C-0.06790675 10.75092848 -0.08499984 8.49998395 -0.0625 6.25 C-0.05347656 5.07953125 -0.04445312 3.9090625 -0.03515625 2.703125 C-0.02355469 1.81109375 -0.01195312 0.9190625 0 0 Z " fill="#65509E" transform="translate(38,88)"/>
<path d="M0 0 C0.99 0.495 0.99 0.495 2 1 C2 14.86 2 28.72 2 43 C4.9996617 44.49983085 8.11946961 44.23902055 11.4140625 44.31640625 C12.50852188 44.3475779 12.50852188 44.3475779 13.62509155 44.37937927 C15.95829763 44.44481917 18.29161721 44.50373368 20.625 44.5625 C22.20574095 44.60569053 23.78647039 44.64930499 25.3671875 44.69335938 C29.24467504 44.80049481 33.12227685 44.90177782 37 45 C37 45.33 37 45.66 37 46 C24.79 46 12.58 46 0 46 C0 30.82 0 15.64 0 0 Z " fill="#7A68A9" transform="translate(38,35)"/>
<path d="M0 0 C6.22681776 4.37425464 11.63687681 9.30113971 17 14.6875 C17.77472656 15.44611328 18.54945312 16.20472656 19.34765625 16.98632812 C20.44400391 18.08170898 20.44400391 18.08170898 21.5625 19.19921875 C22.22378906 19.85752686 22.88507813 20.51583496 23.56640625 21.1940918 C25 23 25 23 25 26 C22.625 25.3125 22.625 25.3125 20 24 C19.29788106 22.34795544 18.63028587 20.68076231 18 19 C15.98264795 17.65589738 15.98264795 17.65589738 14 17 C14 16.34 14 15.68 14 15 C13.01 14.67 12.02 14.34 11 14 C11 13.34 11 12.68 11 12 C10.34 12 9.68 12 9 12 C9 11.34 9 10.68 9 10 C8.01 9.67 7.02 9.34 6 9 C6 8.34 6 7.68 6 7 C5.34 7 4.68 7 4 7 C0 2.52941176 0 2.52941176 0 0 Z " fill="#B6AECE" transform="translate(52,117)"/>
<path d="M0 0 C0.66 0 1.32 0 2 0 C2.03758423 1.21115479 2.03758423 1.21115479 2.07592773 2.44677734 C2.19165487 6.08968917 2.31448635 9.73232726 2.4375 13.375 C2.47681641 14.64601563 2.51613281 15.91703125 2.55664062 17.2265625 C2.59853516 18.43828125 2.64042969 19.65 2.68359375 20.8984375 C2.72025146 22.01911621 2.75690918 23.13979492 2.79467773 24.29443359 C2.82596013 26.96712771 2.82596013 26.96712771 4 29 C7.27555608 29.47001033 7.27555608 29.47001033 11.0625 29.625 C12.35285156 29.69976562 13.64320313 29.77453125 14.97265625 29.8515625 C16.47119141 29.92503906 16.47119141 29.92503906 18 30 C18 30.33 18 30.66 18 31 C15.37493198 31.02690844 12.75013827 31.04679404 10.125 31.0625 C9.37863281 31.07087891 8.63226563 31.07925781 7.86328125 31.08789062 C2.2265625 31.11328125 2.2265625 31.11328125 0 30 C0 20.1 0 10.2 0 0 Z " fill="#D3CFDF" transform="translate(142,51)"/>
<path d="M0 0 C0.66 0.33 1.32 0.66 2 1 C2 12.22 2 23.44 2 35 C0.35 35 -1.3 35 -3 35 C-3 34.34 -3 33.68 -3 33 C-2.01 33 -1.02 33 0 33 C0 22.11 0 11.22 0 0 Z " fill="#8575B0" transform="translate(75,81)"/>
<path d="M0 0 C0.33 0 0.66 0 1 0 C1 15.51 1 31.02 1 47 C2.98 46.34 4.96 45.68 7 45 C6.67 46.32 6.34 47.64 6 49 C4.33388095 49.042721 2.66617115 49.04063832 1 49 C0 48 0 48 -0.12025452 46.05747986 C-0.11803391 45.20698563 -0.11581329 44.35649139 -0.11352539 43.48022461 C-0.11344986 42.51930405 -0.11337433 41.55838348 -0.11329651 40.56834412 C-0.10813522 39.523564 -0.10297394 38.47878387 -0.09765625 37.40234375 C-0.0962413 36.33834854 -0.09482635 35.27435333 -0.09336853 34.17811584 C-0.08775064 30.76454917 -0.07519511 27.351047 -0.0625 23.9375 C-0.05748731 21.62955824 -0.052924 19.32161545 -0.04882812 17.01367188 C-0.0377754 11.34242574 -0.02101987 5.67121747 0 0 Z " fill="#8575B0" transform="translate(120,65)"/>
<path d="M0 0 C0.75 1.6875 0.75 1.6875 1 4 C-0.27358732 5.71275535 -1.61423077 7.37667033 -3 9 C-3.309375 9.825 -3.61875 10.65 -3.9375 11.5 C-5.37902507 14.89182369 -7.15822613 16.66343037 -10 19 C-12.33967526 19.94169502 -14.51874771 20.46482794 -17 21 C-16.34 20.360625 -15.68 19.72125 -15 19.0625 C-12.54596188 16.59439862 -10.16415742 14.06583387 -7.8125 11.5 C-7.13832031 10.7678125 -6.46414062 10.035625 -5.76953125 9.28125 C-3.94565632 6.92994105 -2.96193538 4.80194509 -2 2 C-1.34 2 -0.68 2 0 2 C0 1.34 0 0.68 0 0 Z " fill="#7C6AAB" transform="translate(144,89)"/>
<path d="M0 0 C5.28 0 10.56 0 16 0 C16.44117647 14.41176471 16.44117647 14.41176471 13 19 C12.01 19.33 11.02 19.66 10 20 C11.875 15.25 11.875 15.25 13 13 C13.07033769 11.12620395 13.0843022 9.24998898 13.0625 7.375 C13.041875 5.60125 13.02125 3.8275 13 2 C8.71 1.67 4.42 1.34 0 1 C0 0.67 0 0.34 0 0 Z " fill="#C0B9D3" transform="translate(146,86)"/>
<path d="M0 0 C4 4.75 4 4.75 4 7 C4.84691406 7.34417969 4.84691406 7.34417969 5.7109375 7.6953125 C8.60844637 9.34679367 10.41421533 11.38324604 12.625 13.875 C13.40101562 14.73867187 14.17703125 15.60234375 14.9765625 16.4921875 C16.70271221 18.63154679 17.91574957 20.49339953 19 23 C14.94771699 21.649239 13.45431203 19.16180298 10.81640625 15.91015625 C8.97678277 13.97558446 7.44243304 13.02528508 5 12 C5 11.01 5 10.02 5 9 C4.01 8.67 3.02 8.34 2 8 C0.04457812 5.01540871 0 3.73585209 0 0 Z " fill="#9183B8" transform="translate(53,91)"/>
<path d="M0 0 C5.28 0 10.56 0 16 0 C16.33 0.99 16.66 1.98 17 3 C11.06 3 5.12 3 -1 3 C-0.67 2.01 -0.34 1.02 0 0 Z " fill="#DCD9E5" transform="translate(105,61)"/>
<path d="M0 0 C0 3 0 3 -2 6 C-2.66 6 -3.32 6 -4 6 C-4.04125 6.598125 -4.0825 7.19625 -4.125 7.8125 C-5 10 -5 10 -7.9375 11.75 C-11 13 -11 13 -13 13 C-13.4021875 14.2065625 -13.4021875 14.2065625 -13.8125 15.4375 C-14.204375 16.283125 -14.59625 17.12875 -15 18 C-15.99 18.33 -16.98 18.66 -18 19 C-17.44397475 15.43217129 -16.31393174 14.07770886 -13.5 11.875 C-10.8119616 9.80112319 -10.8119616 9.80112319 -9 7 C-8.05125 6.54625 -7.1025 6.0925 -6.125 5.625 C-3.0427468 4.02222834 -1.79742705 2.8958547 0 0 Z " fill="#AFA5C9" transform="translate(139,122)"/>
<path d="M0 0 C0.67578125 1.796875 0.67578125 1.796875 1 4 C-0.14453125 5.703125 -0.14453125 5.703125 -1.8125 7.25 C-2.62654297 8.03117188 -2.62654297 8.03117188 -3.45703125 8.828125 C-5 10 -5 10 -7 10 C-4.39090909 3.29090909 -4.39090909 3.29090909 -3 1 C-2.01 0.67 -1.02 0.34 0 0 Z " fill="#C4BDD6" transform="translate(120,141)"/>
<path d="M0 0 C6.6969697 3.34848485 6.6969697 3.34848485 8.25 6.6875 C8.4975 7.450625 8.745 8.21375 9 9 C9.99 9.33 10.98 9.66 12 10 C11.67 10.66 11.34 11.32 11 12 C7.43898382 10.57559353 6.6693238 9.3386476 5 6 C3.34106818 4.65705519 1.67523395 3.32255312 0 2 C0 1.34 0 0.68 0 0 Z " fill="#8A7BB4" transform="translate(77,141)"/>
<path d="M0 0 C1.32176485 0.90325616 2.63215066 1.82317903 3.9375 2.75 C4.66839844 3.26046875 5.39929687 3.7709375 6.15234375 4.296875 C8.20805399 6.19177915 8.62669176 7.27425729 9 10 C8.01 9.67 7.02 9.34 6 9 C6 8.34 6 7.68 6 7 C5.34 7 4.68 7 4 7 C0 2.52941176 0 2.52941176 0 0 Z " fill="#C3BCD6" transform="translate(52,117)"/>
<path d="M0 0 C0.66 0 1.32 0 2 0 C2.33 1.65 2.66 3.3 3 5 C3.99 5 4.98 5 6 5 C6.66 6.98 7.32 8.96 8 11 C1.29540481 7.04376368 1.29540481 7.04376368 0.0625 2.6875 C0.041875 1.800625 0.02125 0.91375 0 0 Z " fill="#8676B1" transform="translate(38,99)"/>
<path d="M0 0 C5.28 0 10.56 0 16 0 C16 1.65 16 3.3 16 5 C14.68 4.34 13.36 3.68 12 3 C12 2.34 12 1.68 12 1 C8.04 1 4.08 1 0 1 C0 0.67 0 0.34 0 0 Z " fill="#B8AFCE" transform="translate(38,86)"/>
<path d="M0 0 C1.32 0 2.64 0 4 0 C4.33 0.66 4.66 1.32 5 2 C5.99 2.33 6.98 2.66 8 3 C8.33 4.65 8.66 6.3 9 8 C7.68388323 7.04663979 6.37221039 6.08714226 5.0625 5.125 C4.33160156 4.59132813 3.60070313 4.05765625 2.84765625 3.5078125 C1 2 1 2 0 0 Z " fill="#7361A6" transform="translate(51,115)"/>
<path d="M0 0 C0.8125 1.6875 0.8125 1.6875 1 4 C-1.46026571 6.87030999 -3.85489214 8.90326143 -7 11 C-7 10.01 -7 9.02 -7 8 C-6.34 8 -5.68 8 -5 8 C-5 7.34 -5 6.68 -5 6 C-4.01 6 -3.02 6 -2 6 C-2 4.68 -2 3.36 -2 2 C-1.34 2 -0.68 2 0 2 C0 1.34 0 0.68 0 0 Z " fill="#6954A0" transform="translate(157,99)"/>
<path d="M0 0 C0.75 1.75 0.75 1.75 1 4 C-0.6875 6.3125 -0.6875 6.3125 -3 8 C-5.25 7.75 -5.25 7.75 -7 7 C-4.66666667 4.66666667 -2.33333333 2.33333333 0 0 Z " fill="#CEC9DC" transform="translate(147,114)"/>
<path d="M0 0 C0.65234375 1.765625 0.65234375 1.765625 1 4 C0.00390625 5.921875 0.00390625 5.921875 -1.4375 7.75 C-1.91058594 8.36359375 -2.38367188 8.9771875 -2.87109375 9.609375 C-3.24363281 10.06828125 -3.61617187 10.5271875 -4 11 C-4.66 10.67 -5.32 10.34 -6 10 C-4.68 7.36 -3.36 4.72 -2 2 C-1.34 2 -0.68 2 0 2 C0 1.34 0 0.68 0 0 Z " fill="#A397C2" transform="translate(144,89)"/>
<path d="M0 0 C2.4375 0.75 2.4375 0.75 5 2 C5.8125 4.125 5.8125 4.125 6 6 C3.5625 5.25 3.5625 5.25 1 4 C0.1875 1.875 0.1875 1.875 0 0 Z " fill="#C5BFD7" transform="translate(71,137)"/>
</svg>
