<svg width="159" height="159" viewBox="0 0 159 159" fill="none" xmlns="http://www.w3.org/2000/svg">
<mask id="path-1-inside-1_1606_1583" fill="white">
<path fill-rule="evenodd" clip-rule="evenodd" d="M80 41C60.67 41 45 56.67 45 76V114C45 114.552 45.4477 115 46 115H59C59.5523 115 60 114.552 60 114V76C60 64.9543 68.9543 56 80 56C91.0457 56 100 64.9543 100 76V114C100 114.552 100.448 115 101 115H114C114.552 115 115 114.552 115 114V76C115 56.67 99.33 41 80 41Z"/>
</mask>
<path fill-rule="evenodd" clip-rule="evenodd" d="M80 41C60.67 41 45 56.67 45 76V114C45 114.552 45.4477 115 46 115H59C59.5523 115 60 114.552 60 114V76C60 64.9543 68.9543 56 80 56C91.0457 56 100 64.9543 100 76V114C100 114.552 100.448 115 101 115H114C114.552 115 115 114.552 115 114V76C115 56.67 99.33 41 80 41Z" fill="#D9D9D9"/>
<path d="M65 76C65 67.7157 71.7157 61 80 61V21C49.6243 21 25 45.6243 25 76H65ZM65 114V76H25V114H65ZM59 95H46V135H59V95ZM80 114V76H40V114H80ZM80 76C80 75.9856 80.0007 75.9779 80.0009 75.9758C80.0011 75.9737 80.0011 75.9749 80.0003 75.9788C79.9995 75.9826 79.9983 75.9874 79.9967 75.9926C79.9951 75.9977 79.9934 76.0023 79.9918 76.0061C79.9885 76.0138 79.9867 76.0162 79.9881 76.0139C79.9899 76.0114 79.9939 76.0061 80 76C80.0061 75.9939 80.0114 75.9899 80.0139 75.9881C80.0162 75.9867 80.0138 75.9885 80.0061 75.9918C80.0023 75.9934 79.9977 75.9951 79.9926 75.9967C79.9874 75.9983 79.9826 75.9995 79.9788 76.0003C79.9749 76.0011 79.9737 76.0011 79.9758 76.0009C79.9779 76.0007 79.9856 76 80 76V36C57.9086 36 40 53.9086 40 76H80ZM80 76C80.0144 76 80.0221 76.0007 80.0242 76.0009C80.0263 76.0011 80.0251 76.0011 80.0212 76.0003C80.0174 75.9995 80.0126 75.9983 80.0074 75.9967C80.0023 75.9951 79.9977 75.9934 79.9939 75.9918C79.9862 75.9885 79.9838 75.9867 79.9861 75.9881C79.9886 75.9899 79.9939 75.9939 80 76C80.0061 76.0061 80.0101 76.0114 80.0119 76.0139C80.0133 76.0162 80.0115 76.0138 80.0082 76.0061C80.0066 76.0023 80.0049 75.9977 80.0033 75.9926C80.0017 75.9874 80.0005 75.9826 79.9997 75.9788C79.9989 75.9749 79.9989 75.9737 79.9991 75.9758C79.9993 75.9779 80 75.9856 80 76H120C120 53.9086 102.091 36 80 36V76ZM80 76V114H120V76H80ZM114 95H101V135H114V95ZM95 76V114H135V76H95ZM80 61C88.2843 61 95 67.7157 95 76H135C135 45.6243 110.376 21 80 21V61ZM114 135C125.598 135 135 125.598 135 114H95C95 103.507 103.507 95 114 95V135ZM59 135C70.598 135 80 125.598 80 114H40C40 103.507 48.5066 95 59 95V135ZM80 114C80 125.598 89.402 135 101 135V95C111.493 95 120 103.507 120 114H80ZM25 114C25 125.598 34.402 135 46 135V95C56.4934 95 65 103.507 65 114H25Z" fill="#3640E8" mask="url(#path-1-inside-1_1606_1583)"/>
<path d="M73 75.5C73 71.3579 76.3579 68 80.5 68V68C84.6421 68 88 71.3579 88 75.5V82C88 82.5523 87.5523 83 87 83H74C73.4477 83 73 82.5523 73 82V75.5Z" fill="#263E6E"/>
<path d="M73 96C73 95.4477 73.4477 95 74 95H87C87.5523 95 88 95.4477 88 96V114C88 114.552 87.5523 115 87 115H74C73.4477 115 73 114.552 73 114V96Z" fill="#F3D329"/>
<path d="M150.817 45.3117C155.69 55.5877 158.416 67.0797 158.416 79.2084C158.416 120.781 126.389 154.873 85.6618 158.157C84.85 158.223 84.1586 157.576 84.1586 156.762V139.712C84.1586 138.977 84.726 138.366 85.4571 138.29C115.329 135.167 138.614 109.907 138.614 79.2084C138.614 70.6141 136.789 62.4462 133.506 55.0708C133.207 54.3994 133.453 53.6062 134.09 53.2387L148.859 44.7116C149.565 44.3044 150.468 44.5758 150.817 45.3117Z" fill="#2F57E4"/>
<path d="M127.253 44.2608C116.451 29.4363 98.955 19.802 79.2086 19.802C59.3929 19.802 41.8432 29.5041 31.0507 44.417C30.6193 45.0132 29.8077 45.1973 29.1704 44.8294L14.4057 36.305C13.7007 35.898 13.4839 34.9799 13.9459 34.3096C28.2312 13.5846 52.1335 0 79.2086 0C106.212 0 130.059 13.5124 144.357 34.1444C144.821 34.8146 144.605 35.7349 143.899 36.1426L129.13 44.6693C128.495 45.0364 127.685 44.854 127.253 44.2608Z" fill="#263E6E"/>
<path fill-rule="evenodd" clip-rule="evenodd" d="M24.2461 53.4196C24.881 53.7862 25.1283 54.5767 24.8323 55.2474C21.598 62.5764 19.802 70.6827 19.802 79.2084C19.802 109.907 43.0873 135.167 72.9591 138.29C73.6903 138.366 74.2576 138.977 74.2576 139.712V156.762C74.2576 157.576 73.5662 158.223 72.7545 158.157C32.0274 154.873 0 120.781 0 79.2084C0 67.1511 2.69404 55.7231 7.51301 45.4934C7.8607 44.7553 8.766 44.4822 9.47256 44.8901L24.2461 53.4196Z" fill="#F3D329"/>
</svg>
