<svg xmlns="http://www.w3.org/2000/svg" viewBox="0 0 24 24" width="24" height="24"><path d="M19 13.5v1.145c.532.158 1.012.44 1.405.812l.992-.573 1 1.732-.992.573a3.51 3.51 0 0 1 0 1.622l.992.573-1 1.732-.992-.573c-.398.377-.88.655-1.405.812V22.5h-2v-1.145a3.496 3.496 0 0 1-1.405-.812l-.992.573-1-1.732.992-.572a3.51 3.51 0 0 1 0-1.623l-.992-.573 1-1.732.992.573c.398-.377.88-.655 1.405-.812V13.5h2Zm-7 .5v8H4a8 8 0 0 1 8-8Zm6 3a1 1 0 1 0 0 2 1 1 0 0 0 0-2ZM12 1c3.315 0 6 2.685 6 6s-2.685 6-6 6-6-2.685-6-6 2.685-6 6-6Z"/></svg>