<svg xmlns="http://www.w3.org/2000/svg" viewBox="0 0 24 24" width="24" height="24"><path d="M6.056 8.3a7.01 7.01 0 0 1 .199-.3h11.49c.069.098.135.199.199.3l2.02-1.166 1 1.732-2.213 1.278c.162.59.249 1.213.249 1.856v1h3v2h-3a6.96 6.96 0 0 1-.536 2.69l2.5 1.444-1 1.732-2.526-1.458A6.992 6.992 0 0 1 13 21.929V14h-2v7.93a6.992 6.992 0 0 1-4.438-2.522l-2.526 1.458-1-1.732 2.5-1.443A6.979 6.979 0 0 1 5 15H2v-2h3v-1c0-.643.087-1.265.249-1.856L3.036 8.866l1-1.732L6.056 8.3ZM8 6a4 4 0 1 1 8 0H8Z"/></svg>