<svg width="124" height="50" viewBox="0 0 124 50" fill="none" xmlns="http://www.w3.org/2000/svg">
<path d="M72.4898 2.93829e-07C70.9117 2.93829e-07 69.3682 0.146971 67.8712 0.426264C79.4721 2.59322 88.2528 11.889 88.2528 24.1178C88.2528 32.8237 81.1952 40.763 72.4898 40.763C70.8829 40.763 69.3321 40.5223 67.8712 40.075C61.4191 38.101 56.7268 32.0986 56.7268 25.0001C56.7268 17.9011 61.4191 11.8987 67.8712 9.92465C66.4108 9.47788 64.86 9.23667 63.2526 9.23667C54.5472 9.23667 47.4896 17.1765 47.4896 25.8819C47.4896 38.1112 56.2708 47.407 67.8712 49.5734C69.3682 49.8532 70.9117 49.9997 72.4898 49.9997C83.1957 49.9997 92.3284 43.2693 95.8913 33.8095V16.1902C92.3284 6.73036 83.1957 2.93829e-07 72.4898 2.93829e-07Z" fill="#C1BFBC"/>
<path d="M67.8712 0.426421C66.3746 0.14664 64.8307 0.000157073 63.2526 0.000157073C51.2581 0.000157073 41.2368 8.44731 38.812 19.7167C38.73 20.0985 38.3901 20.37 37.9995 20.37H25.8332C25.3732 20.37 24.9997 20.7431 24.9997 21.2035V28.7659C24.9997 29.2263 25.3727 29.5994 25.8332 29.5994H36.5205C36.9805 29.5994 37.3535 29.9724 37.3535 30.4329V34.1858C37.3535 34.5852 37.2109 34.9724 36.9502 35.2751C34.0596 38.6344 29.7789 40.7618 24.9997 40.7618C16.2947 40.7618 9.23767 33.7053 9.23767 24.9998C9.23767 16.2949 16.2947 9.23783 24.9997 9.23783C27.4474 9.23783 29.7643 9.79593 31.8311 10.7915C32.2227 10.98 32.6929 10.8438 32.9151 10.4702L36.793 3.94444C37.0371 3.53331 36.8877 2.99865 36.4629 2.77893C33.0289 1.00405 29.1319 0.000157073 24.9997 0.000157073C11.1927 0.000157073 0 11.1929 0 24.9998C0 38.8073 11.1927 50 24.9997 50C32.3365 50 38.9346 46.8389 43.5073 41.8048C43.8403 41.4381 44.4125 41.4381 44.7455 41.8048C49.3187 46.8384 55.9158 50 63.2526 50C64.8307 50 66.3746 49.853 67.8712 49.5737C56.2708 47.4068 47.4896 38.111 47.4896 25.8821C47.4896 17.1762 54.5471 9.23685 63.2526 9.23685C64.8595 9.23685 66.4103 9.47757 67.8712 9.92483C74.3233 11.8989 79.0156 17.9013 79.0156 25.0003C79.0156 32.0989 74.3233 38.1012 67.8712 40.0753C69.3321 40.5221 70.8829 40.7628 72.4898 40.7628C81.1952 40.7628 88.2528 32.8235 88.2528 24.118C88.2528 11.8887 79.4716 2.5929 67.8712 0.426421ZM122.35 40.0534H105.954C105.494 40.0534 105.121 39.6803 105.121 39.2199V1.55043C105.121 1.08999 104.748 0.716942 104.287 0.716942H96.7248C96.2644 0.716942 95.8913 1.08999 95.8913 1.55043V47.6162C95.8913 48.5366 96.6374 49.2832 97.5578 49.2832H122.35C122.81 49.2832 123.183 48.9097 123.183 48.4497V40.8863C123.183 40.4264 122.81 40.0534 122.35 40.0534Z" fill="#FF7020"/>
</svg>
