<svg height="1em" style="flex:none;line-height:1" viewBox="0 0 24 24" width="1em" xmlns="http://www.w3.org/2000/svg"><title>New API</title><path d="M23.078 16.34c-.506 1.323-1.198 2.519-2.117 3.562-2.378 2.696-5.374 4.057-8.971 4.098a.037.037 0 01-.024-.01.041.041 0 01-.013-.023.041.041 0 01.003-.025.037.037 0 01.019-.019c1.886-.779 3.454-1.973 4.625-3.639a10.148 10.148 0 001.626-3.677c.217-.98.33-1.955.282-2.942-.048-1.018-.152-1.601-.484-2.565-.386-1.12-.915-2.16-1.627-3.089-.883-1.154-1.876-1.87-2.9-2.779-.995-.88-2.19-2.623-1.059-3.754.384-.384.997-.59 1.838-.621 2.478-.09 5.011 1.636 6.597 3.453.75.86 1.38 1.798 1.865 2.837.486 1.041.814 2.122.978 3.246.133.915.117 1.441.092 2.365a10.82 10.82 0 01-.73 3.582z" fill="url(#lobe-icons-new-api-fill-0)"></path><path d="M11.86.01a.041.041 0 01.009.049.038.038 0 01-.018.018C9.964.856 8.396 2.05 7.225 3.716a10.148 10.148 0 00-1.626 3.678c-.217.979-.33 1.955-.283 2.941.049 1.018.154 1.601.486 2.565.385 1.12.914 2.16 1.626 3.088.883 1.154 1.876 1.872 2.9 2.78.995.88 2.19 2.622 1.059 3.753-.385.385-.997.591-1.838.622-2.478.089-5.011-1.636-6.597-3.454-.75-.86-1.38-1.797-1.865-2.837a11.591 11.591 0 01-.978-3.246c-.133-.914-.117-1.44-.091-2.364.034-1.225.284-2.416.73-3.582.504-1.323 1.197-2.52 2.116-3.562C5.241 1.402 8.238.04 11.835 0c.009 0 .018.004.024.01z" fill="url(#lobe-icons-new-api-fill-1)"></path><path d="M8.721 11.903l2.455-.708.72-2.48a.066.066 0 01.127.002l.58 2.26c.776.437 1.65.755 2.622.956a.05.05 0 01.028.075.05.05 0 01-.024.019l-2.382.709a.163.163 0 00-.109.108l-.72 2.444a.034.034 0 01-.031.027.034.034 0 01-.034-.024l-.713-2.395a.183.183 0 00-.128-.128l-2.39-.705a.084.084 0 01-.044-.13.084.084 0 01.043-.03z" fill="url(#lobe-icons-new-api-fill-2)"></path><defs><linearGradient gradientUnits="userSpaceOnUse" id="lobe-icons-new-api-fill-0" x1="17.889" x2="17.889" y1=".854" y2="24"><stop stop-color="#F85EAD"></stop><stop offset="1" stop-color="#FD75FD"></stop></linearGradient><linearGradient gradientUnits="userSpaceOnUse" id="lobe-icons-new-api-fill-1" x1="5.936" x2="5.936" y1="0" y2="23.146"><stop offset=".332" stop-color="#11F5EF"></stop><stop offset="1" stop-color="#C738FB"></stop></linearGradient><linearGradient gradientUnits="userSpaceOnUse" id="lobe-icons-new-api-fill-2" x1="11.961" x2="11.961" y1="8.666" y2="15.315"><stop offset=".332" stop-color="#11F5EF"></stop><stop offset="1" stop-color="#C738FB"></stop></linearGradient></defs></svg>