<svg xmlns="http://www.w3.org/2000/svg" viewBox="0 0 24 24" width="24" height="24"><path d="m19.549 2.457 2.995 2.994a1 1 0 0 1 .082 1.321l-3.84 4.938a7.505 7.505 0 0 1-7.283 9.292C8 21.002 3.5 19.5 1 18c2.83-2.133 3.176-3.665 3.303-4.98l.021-.244c.037-.443.065-.863.176-1.276 1.058-3.95 4.842-6.257 8.789-5.284h.001l4.939-3.841a1 1 0 0 1 1.32.082Zm-13.117 9.56c-.043.16-.066.34-.104.791-.154 1.87-.594 3.265-1.8 4.68 2.26.888 4.938 1.514 6.974 1.514a5.505 5.505 0 0 0 5.31-4.078 5.497 5.497 0 0 0-1.356-5.246l-.142-.142a5.475 5.475 0 0 0-2.39-1.349c-2.907-.778-5.699.869-6.492 3.83ZM18.76 4.495 15.578 6.97l1.125 1.125c.065.063.13.128.193.194l1.135 1.134 2.475-3.182-1.746-1.746Z"/></svg>