<svg xmlns="http://www.w3.org/2000/svg" viewBox="0 0 24 24" width="24" height="24"><path d="m4.283 16.89 2.828 2.829-1.414 1.414-4.243-1.414 2.828-2.829h.001ZM15.95 2.393l5.657 5.657a1 1 0 0 1 0 1.414l-7.779 7.779-2.12.707-1.415 1.414a1 1 0 0 1-1.414 0l-4.243-4.243a1 1 0 0 1 0-1.414l1.414-1.414.707-2.121 7.779-7.779a1 1 0 0 1 1.414 0Zm-.707 2.122-6.738 6.737-.707 2.121-1.04 1.041 2.828 2.829 1.04-1.041 2.122-.707 6.737-6.738-4.242-4.242Zm0 2.828 1.414 1.414-4.95 4.95-1.414-1.414 4.95-4.95Z"/></svg>