<svg xmlns="http://www.w3.org/2000/svg" viewBox="0 0 24 24" width="24" height="24"><path d="m16.595 2.774 5.62 13.908a1 1 0 0 1-.553 1.302L12.39 21.73a1 1 0 0 1-1.302-.553L11 20.96V21H7a1 1 0 0 1-1-1v-.27l-3.35-1.353a1 1 0 0 1-.552-1.302L5.764 8l-.295-.73a1 1 0 0 1 .553-1.302l9.272-3.746a1 1 0 0 1 1.301.552Zm-1.479 1.677L7.698 7.447l4.87 12.054 7.418-2.997-4.87-12.053ZM8 13.533V19h2.209L8 13.533Zm-2-.777-1.673 4.141L6 17.608v-4.852Zm5.23-4.578a1 1 0 0 1-.553 1.302h-.001a1 1 0 1 1 .553-1.302Z"/></svg>