<svg xmlns="http://www.w3.org/2000/svg" viewBox="0 0 24 24" width="24" height="24"><path d="m14.121 4.222 5.657 5.657-.707 6.364c-6.128 1.414-9.782 2.475-13.081 5.303L4.595 20.15c3.722-3.331 7.995-4.328 12.643-5.52l.446-4.018-4.297-4.297-4.018.446c-1.192 4.648-2.189 8.92-5.52 12.643L2.454 18.01c2.828-3.3 3.89-6.953 5.303-13.081l6.364-.707Zm-1.414 7.07A2 2 0 0 1 9.88 14.12h-.001a2 2 0 1 1 2.828-2.828ZM16.596 1.04l6.347 6.346a.5.5 0 0 1-.277.848l-1.474.23-5.656-5.656.212-1.485a.5.5 0 0 1 .848-.283Z"/></svg>