<svg xmlns="http://www.w3.org/2000/svg" viewBox="0 0 24 24" width="24" height="24"><path d="M12 2c5.523 0 10 4.477 10 10s-4.477 10-10 10S2 17.523 2 12 6.477 2 12 2Zm0 2a8 8 0 1 0 0 16 8 8 0 0 0 0-16Zm4.596 3.404a.59.59 0 0 1 .063.76c-2.18 3.046-3.38 4.678-3.598 4.897a1.502 1.502 0 0 1-2.122 0 1.502 1.502 0 0 1 0-2.122c.374-.373 2.005-1.574 4.894-3.602a.595.595 0 0 1 .763.067ZM17.5 11a1 1 0 1 1 0 2 1 1 0 0 1 0-2Zm-11 0a1 1 0 1 1 0 2 1 1 0 0 1 0-2Zm2.318-3.596a1 1 0 1 1-1.416 1.414 1 1 0 0 1 1.416-1.414ZM12 5.5a1 1 0 1 1 0 2 1 1 0 0 1 0-2Z"/></svg>