<svg xmlns="http://www.w3.org/2000/svg" viewBox="0 0 24 24" width="24" height="24"><path d="M12 2c5.523 0 10 4.477 10 10s-4.477 10-10 10S2 17.523 2 12 6.477 2 12 2Zm3.833 5.337c-2.89 2.028-4.52 3.23-4.894 3.602a1.502 1.502 0 0 0 0 2.122 1.502 1.502 0 0 0 2.122 0c.219-.22 1.418-1.851 3.598-4.897a.59.59 0 0 0-.063-.76.595.595 0 0 0-.763-.067ZM17.5 11a1 1 0 1 0 0 2 1 1 0 0 0 0-2Zm-11 0a1 1 0 1 0 0 2 1 1 0 0 0 0-2Zm.904-3.596A1 1 0 1 0 8.82 8.818a1 1 0 0 0-1.416-1.414ZM12 5.5a1 1 0 1 0 0 2 1 1 0 0 0 0-2Z"/></svg>