<svg xmlns="http://www.w3.org/2000/svg" viewBox="0 0 24 24" width="24" height="24"><path d="M12 13c1.904 0 3.653.665 5.027 1.776l-1.885 2.334A4.98 4.98 0 0 0 12 16a4.98 4.98 0 0 0-3.142 1.11l-1.886-2.333.256-.198A7.967 7.967 0 0 1 12 13Zm0-5a12.95 12.95 0 0 1 8.169 2.886l-1.885 2.334A9.958 9.958 0 0 0 12 11c-2.38 0-4.566.832-6.284 2.22l-1.885-2.333.305-.24A12.946 12.946 0 0 1 12 8Zm0-5c4.285 0 8.22 1.497 11.31 3.997L21.425 9.33A14.937 14.937 0 0 0 12 6C8.43 6 5.15 7.248 2.575 9.33L.69 6.997A17.925 17.925 0 0 1 12 3Zm-1.885 15.667A2.987 2.987 0 0 1 12 18c.714 0 1.37.25 1.885.666L12 21l-1.885-2.334v.001Z"/></svg>