<svg width="40" height="40" viewBox="0 0 40 40" fill="none" xmlns="http://www.w3.org/2000/svg">
<path d="M27.7369 20.0429C25.8464 20.8697 25.5811 21.02 23.0606 22.2602C22.4278 22.5715 23.6332 23.4612 24.2545 23.801C25.2163 24.3272 25.7801 24.703 26.9077 24.3272C28.1457 23.9146 28.367 22.7863 28.367 21.3207C28.367 20.4064 28.4896 19.7136 27.7369 20.0429Z" stroke="#212121" stroke-width="1.9"/>
<path d="M10.7387 8.53301C8.68313 9.87407 6.79896 11.1571 6.28506 14.2375C2.28802 16.3481 0.860441 22.6229 2.97301 26.616C5.94238 33.6894 12.1093 31.1794 14.4502 31.1794C15.4783 32.4345 16.7917 33.4043 19.0756 33.4043C20.7888 33.1762 21.5309 33.0048 24.2147 31.1794C25.6993 31.9782 27.5836 32.1493 28.8969 31.9782C30.2102 32.6342 31.9803 33.5183 33.1223 32.9479C34.1502 32.4345 34.0878 29.6876 34.5497 27.4716C37.519 24.1632 38.2614 21.4821 37.8046 16.9756C37.3478 12.4692 32.6655 8.53301 30.1529 8.53301C28.8969 6.82182 26.9555 6.30842 25.2423 6.08021C23.4387 5.83996 21.7593 6.08021 20.0463 7.62045C16.6203 6.08021 12.7943 7.19194 10.7387 8.53301Z" stroke="#212121" stroke-width="1.9"/>
<circle cx="20.6032" cy="19.35" r="1.82722" transform="rotate(3.31741 20.6032 19.35)" fill="#212121"/>
<circle cx="26.4274" cy="16.3808" r="1.82722" transform="rotate(3.31741 26.4274 16.3808)" fill="#212121"/>
<line x1="21.5994" y1="18.9226" x2="26.51" y2="16.6386" stroke="#212121" stroke-width="1.9"/>
</svg>
