<?xml version="1.0" encoding="utf-8"?>
<!-- Generator: Adobe Illustrator 26.5.0, SVG Export Plug-In . SVG Version: 6.00 Build 0)  -->
<svg version="1.1" id="Layer_1" xmlns="http://www.w3.org/2000/svg" xmlns:xlink="http://www.w3.org/1999/xlink" x="0px" y="0px"
	 viewBox="0 0 2000 2000" style="enable-background:new 0 0 2000 2000;" xml:space="preserve">
<style type="text/css">
	.st0{fill:#2F3F47;}
	.st1{fill:#F2EEEB;}
</style>
<g>
	<path class="st0" d="M1000,0C447.7,0,0,447.7,0,1000s447.7,1000,1000,1000s1000-447.7,1000-1000S1552.3,0,1000,0z M989.5,714.3
		L891.4,630H685.8v264.1h261v33.3h-261V1188l33.3,37.3v4.4H597.9v-4.4l30.2-37.3V653.5l-30.2-37.3v-4.9h368.9l32.8,103H989.5z
		 M1458.7,1033.8c-15.1,26-37,46.3-65.7,60.8c-28.4,14.2-61.8,21.3-100.3,21.3H1152v235.7l33.3,37.3v4.4h-121.2v-4.4l30.2-37.3
		V817.2l-30.2-37.3V775h226.4c39.4,0,73.4,6.8,102.1,20.4c29,13.6,51.1,33.1,66.1,58.6c15.4,25.2,23.1,54.9,23.1,89.2
		C1481.8,977.6,1474.1,1007.7,1458.7,1033.8z"/>
	<path class="st0" d="M1284.7,793.6H1152v303.6h136.3c43.2,0,76.1-12.9,98.5-38.6c22.5-25.7,33.7-63,33.7-111.9
		c0-49.7-11.5-87.6-34.6-113.6C1362.8,806.8,1329.1,793.6,1284.7,793.6z"/>
</g>
<g>
	<polygon class="st1" points="597.9,611.4 597.9,616.2 628.1,653.5 628.1,1188 597.9,1225.3 597.9,1229.7 719.1,1229.7 
		719.1,1225.3 685.8,1188 685.8,927.4 946.8,927.4 946.8,894.1 685.8,894.1 685.8,630 891.4,630 989.5,714.3 999.7,714.3 
		966.8,611.4 	"/>
	<path class="st1" d="M1458.7,854c-15.1-25.4-37.1-45-66.1-58.6c-28.7-13.6-62.7-20.4-102.1-20.4h-226.4v4.9l30.2,37.3v534.4
		l-30.2,37.3v4.4h121.2v-4.4l-33.3-37.3v-235.7h140.7c38.5,0,71.9-7.1,100.3-21.3c28.7-14.5,50.6-34.8,65.7-60.8
		c15.4-26,23.1-56.2,23.1-90.5C1481.8,908.9,1474.1,879.2,1458.7,854z M1386.8,1058.6c-22.5,25.8-55.3,38.6-98.5,38.6H1152V793.6
		h132.7c44.4,0,78.1,13.2,101.2,39.5c23.1,26,34.6,63.9,34.6,113.6C1420.5,995.6,1409.3,1032.9,1386.8,1058.6z"/>
</g>
</svg>
