<?xml version="1.0" encoding="UTF-8"?>
<svg version="1.1" xmlns="http://www.w3.org/2000/svg" width="512" height="480">
<path d="M0 0 C3.52487005 3.12151083 6.95666205 6.33091852 10.3671875 9.57666016 C11.07230469 10.22892578 11.77742188 10.88119141 12.50390625 11.55322266 C47.65162418 45.06118904 65.26979291 95.31815182 66.49609375 142.97900391 C67.12515264 180.0546475 58.26249559 216.78014402 38.87231445 248.52392578 C38.41687256 249.27351563 37.96143066 250.02310547 37.4921875 250.79541016 C36.87730469 251.78444336 36.87730469 251.78444336 36.25 252.79345703 C35.1453493 254.69312591 35.1453493 254.69312591 35.3671875 257.57666016 C37.4466998 259.60784696 37.4466998 259.60784696 40.1796875 261.63916016 C44.21810942 264.82956518 48.08549423 268.07873031 51.8671875 271.57666016 C56.43669028 275.79163254 61.17213205 279.72241589 66.0546875 283.56884766 C68.20079263 285.43218893 69.77239989 287.23693885 71.3671875 289.57666016 C70.82191406 290.17091797 70.27664063 290.76517578 69.71484375 291.37744141 C65.7207835 295.76749396 61.82774753 300.19362324 58.1171875 304.82666016 C54.01896228 309.89928858 49.63609599 314.6357401 45.16943359 319.37988281 C41.11851553 323.70568037 37.34831266 328.19475143 33.64453125 332.82275391 C29.42546936 337.92470697 24.88411231 342.73890704 20.3671875 347.57666016 C17.00270296 346.09659213 14.62715105 344.18532811 11.9296875 341.70166016 C11.05441406 340.89986328 10.17914063 340.09806641 9.27734375 339.27197266 C8.31699219 338.38251953 7.35664063 337.49306641 6.3671875 336.57666016 C5.30356131 335.59469877 4.23975384 334.6129337 3.17578125 333.63134766 C1.518784 332.10205732 -0.13764969 330.57218164 -1.79223633 329.0402832 C-6.02650068 325.12269332 -10.30453755 321.25653333 -14.609375 317.41650391 C-16.6328125 315.57666016 -16.6328125 315.57666016 -18.09375 313.76806641 C-19.60931195 312.33495089 -19.60931195 312.33495089 -21.9140625 312.63916016 C-25.32164794 313.81418962 -28.13454143 315.62495156 -31.1328125 317.57666016 C-73.32846188 343.81067922 -128.6106654 349.43894944 -176.43481445 338.60083008 C-203.22168559 332.25180776 -228.78175129 321.51737054 -250.6328125 304.57666016 C-251.57253906 303.84833984 -252.51226562 303.12001953 -253.48046875 302.36962891 C-264.71319475 293.3996103 -274.80612291 283.94462314 -283.6328125 272.57666016 C-284.27347656 271.82513672 -284.91414063 271.07361328 -285.57421875 270.29931641 C-313.72711417 237.02771273 -325.8512775 192.58708574 -325.8828125 149.76416016 C-325.88348724 148.94029816 -325.88416199 148.11643616 -325.88485718 147.26760864 C-325.86824294 134.48163261 -325.31988418 122.11809114 -322.6328125 109.57666016 C-322.46652344 108.77131836 -322.30023438 107.96597656 -322.12890625 107.13623047 C-313.4765577 66.29394075 -291.65319322 25.93346855 -258.6328125 -0.42333984 C-257.68019531 -1.19033203 -256.72757812 -1.95732422 -255.74609375 -2.74755859 C-186.93513252 -57.3495169 -83.46004618 -62.41104158 0 0 Z M-209.94140625 64.87744141 C-232.4146626 88.6749451 -241.6195665 121.26906997 -240.72167969 153.44580078 C-239.34636689 186.42308129 -226.05718858 216.10569164 -202.37890625 239.13525391 C-182.64462071 256.67996011 -156.93373945 266.21570192 -130.65332031 265.96777344 C-128.63277769 265.95165988 -126.61423376 265.96775524 -124.59375 265.98681641 C-112.58495359 266.00690454 -101.10865688 264.20622285 -89.8203125 260.01416016 C-88.67949219 259.60037109 -87.53867187 259.18658203 -86.36328125 258.76025391 C-83.55101577 257.73989468 -83.55101577 257.73989468 -81.6328125 255.57666016 C-82.61507812 254.79355469 -82.61507812 254.79355469 -83.6171875 253.99462891 C-88.77748143 249.83286643 -93.782015 245.59196267 -98.6328125 241.07666016 C-102.36605954 237.60243267 -106.15652404 234.27597271 -110.1328125 231.07666016 C-114.64313402 227.44766583 -118.89994097 223.62508291 -123.13037109 219.68017578 C-127.40723654 215.717683 -131.87340575 212.06233737 -136.453125 208.45166016 C-138.6328125 206.57666016 -138.6328125 206.57666016 -140.6328125 203.57666016 C-139.87097656 202.76583984 -139.10914063 201.95501953 -138.32421875 201.11962891 C-133.43794049 195.88978421 -128.61368749 190.66331277 -124.1328125 185.07666016 C-120.78978695 180.90999063 -117.28160729 176.97252067 -113.6328125 173.07666016 C-109.12542532 168.26253207 -104.87805069 163.31067698 -100.74609375 158.16650391 C-97.50152819 154.19026182 -94.07829151 150.37889176 -90.6328125 146.57666016 C-86.96370252 147.14488515 -85.38803015 148.52045614 -82.8828125 151.20166016 C-79.69155045 154.59405217 -76.3024993 157.6344824 -72.78710938 160.68066406 C-69.19085408 163.84572737 -65.73113999 167.15301139 -62.2578125 170.45166016 C-56.96083428 175.46061626 -51.63535125 180.4224272 -46.19140625 185.27197266 C-40.60692561 190.30226819 -35.13019396 195.45157975 -29.6328125 200.57666016 C-16.22975496 180.47207384 -16.97027943 146.29652358 -21.15405273 123.82324219 C-27.70725684 92.94347689 -44.43111915 65.35433735 -71.0703125 47.88916016 C-116.91111839 19.71956109 -172.20541779 27.26915511 -209.94140625 64.87744141 Z " fill="#005388" transform="translate(384.6328125,91.42333984375)"/>
<path d="M0 0 C-2.98482261 4.06955083 -6.37263 7.05182834 -10.375 10.0625 C-15.37917772 13.90499361 -20.24113634 17.85767745 -25 22 C-29.56953927 25.96882169 -34.21512534 29.7936421 -39 33.5 C-44.45592126 37.72812887 -49.7273835 42.12953183 -54.94555664 46.64697266 C-59.3649193 50.47071198 -63.85701314 54.19346545 -68.40234375 57.8671875 C-70.88353695 59.83441203 -70.88353695 59.83441203 -72.53979492 61.53588867 C-77.2461979 66.06790474 -81.03376416 66.99402214 -87.4375 67.5625 C-113.79941486 70.78614969 -136.21163249 83.23514721 -154 103 C-154.33 103.66 -154.66 104.32 -155 105 C-157.16909471 106.19992473 -159.33115875 107.30154541 -161.5625 108.375 C-163.02619654 109.09343456 -164.48972769 109.81220614 -165.953125 110.53125 C-166.75814453 110.92441406 -167.56316406 111.31757813 -168.39257812 111.72265625 C-173.21097121 114.08312747 -178.0118568 116.47868434 -182.8125 118.875 C-184.36698853 119.65049194 -184.36698853 119.65049194 -185.95288086 120.44165039 C-192.80377206 123.87057904 -199.59256706 127.39963578 -206.35473633 130.99951172 C-214.48367943 135.3018229 -222.72387236 139.37997524 -230.95895386 143.47384644 C-239.87072459 147.9057525 -248.73517867 152.41238106 -257.50585938 157.11914062 C-260.31476232 158.62157708 -262.97116128 159.99038709 -266 161 C-263.12703245 120.67619609 -245.44057065 81.89354542 -218.11328125 52.30078125 C-216.20404395 50.22214766 -214.38023356 48.09579254 -212.5625 45.9375 C-180.91066736 9.99873743 -130.35819991 -8.80340544 -83.56738281 -11.85498047 C-55.55018117 -13.43754207 -26.34516338 -9.94891191 0 0 Z " fill="#005388" transform="translate(326,57)"/>
<path d="M0 0 C25.88156946 8.52198019 47.6812735 24.47605869 67.203125 43.0546875 C67.90824219 43.70695312 68.61335937 44.35921875 69.33984375 45.03125 C99.30089245 73.59452158 118.64107814 117.11773105 122.203125 158.0546875 C122.21347399 160.38799788 122.21464877 162.72138262 122.203125 165.0546875 C109.10362501 167.46401254 96.00368449 169.87092396 82.90307617 172.2742157 C76.98259148 173.36045808 71.06245455 174.44854664 65.14286804 175.53967285 C62.07347936 176.10496259 59.00370809 176.66815009 55.93380737 177.23065186 C54.53513608 177.48740298 53.13663564 177.74508663 51.73831177 178.00372314 C49.82338516 178.35777915 47.90780423 178.70829089 45.9921875 179.05859375 C44.93725098 179.25267822 43.88231445 179.4467627 42.79541016 179.64672852 C40.203125 180.0546875 40.203125 180.0546875 37.203125 180.0546875 C37.10608276 179.10553467 37.10608276 179.10553467 37.00708008 178.13720703 C33.87627872 148.42012431 26.48604802 124.34284293 7.203125 101.0546875 C6.44 100.0440625 5.676875 99.0334375 4.890625 97.9921875 C-13.32023089 78.0872985 -40.09267362 66.83537778 -66.69604492 65.49487305 C-71.06214188 65.31138822 -75.42827646 65.16304934 -79.796875 65.0546875 C-77.07543462 61.44293832 -74.27019967 58.61668355 -70.734375 55.8046875 C-69.75597656 55.01964844 -68.77757812 54.23460937 -67.76953125 53.42578125 C-66.78855469 52.64332031 -65.80757813 51.86085937 -64.796875 51.0546875 C-63.08622591 49.66169319 -61.37788709 48.26585695 -59.671875 46.8671875 C-58.77210938 46.13113281 -57.87234375 45.39507812 -56.9453125 44.63671875 C-52.30765815 40.83688327 -47.68314266 37.02105733 -43.05615234 33.20825195 C-39.14195568 29.98354204 -35.22410753 26.76352384 -31.296875 23.5546875 C-26.51720897 19.64872386 -21.74958572 15.72826117 -16.984375 11.8046875 C-15.90736328 10.91813477 -15.90736328 10.91813477 -14.80859375 10.01367188 C-14.11765625 9.44455078 -13.42671875 8.87542969 -12.71484375 8.2890625 C-12.04501465 7.74443359 -11.37518555 7.19980469 -10.68505859 6.63867188 C-9.47789242 5.62598838 -8.29946569 4.577341 -7.16259766 3.48632812 C-4.73676885 1.20004163 -3.39372033 0.06635766 0 0 Z " fill="#00A9C2" transform="translate(327.796875,57.9453125)"/>
<path d="M0 0 C6.45858649 39.11319976 -6.17819599 83.68671184 -26.49487305 116.94726562 C-26.95031494 117.69685547 -27.40575684 118.44644531 -27.875 119.21875 C-28.28492188 119.87810547 -28.69484375 120.53746094 -29.1171875 121.21679688 C-30.2218382 123.11646576 -30.2218382 123.11646576 -30 126 C-27.9204877 128.0311868 -27.9204877 128.0311868 -25.1875 130.0625 C-21.14907808 133.25290502 -17.28169327 136.50207015 -13.5 140 C-8.89724913 144.24512706 -4.12609118 148.20735117 0.78515625 152.08984375 C3 154 3 154 5 157 C-0.78865296 155.12367583 -6.48364664 153.09839733 -12.13671875 150.84765625 C-12.88509003 150.55190704 -13.6334613 150.25615784 -14.4045105 149.95144653 C-16.83314109 148.9908872 -19.26035047 148.02679488 -21.6875 147.0625 C-23.40415739 146.38242168 -25.1208737 145.70249206 -26.83764648 145.02270508 C-39.79873289 139.88723193 -52.74684215 134.71936681 -65.68663025 129.5304718 C-74.30380068 126.07533684 -82.92459721 122.62926266 -91.54486084 119.18185425 C-96.41671733 117.23344371 -101.28843032 115.28467446 -106.16015625 113.3359375 C-108.03271415 112.58691233 -109.90527273 111.83788885 -111.77783203 111.08886719 C-143.51855469 98.39257812 -175.25927734 85.69628906 -207 73 C-203.28580588 67.88014648 -199.41294775 63.08907094 -195.0625 58.5 C-194.00059743 57.3639395 -192.93939484 56.22722429 -191.87890625 55.08984375 C-191.37762207 54.55343262 -190.87633789 54.01702148 -190.35986328 53.46435547 C-186.52561291 49.33548047 -182.88555748 45.03739903 -179.2265625 40.75390625 C-178.19280064 39.54419195 -177.15894393 38.33455869 -176.125 37.125 C-175.60800537 36.51986572 -175.09101074 35.91473145 -174.55834961 35.29125977 C-170.74622669 30.84088915 -166.85236616 26.47210707 -162.9140625 22.1328125 C-160.53320932 19.47986181 -158.25306347 16.76181974 -156 14 C-152.33089002 14.568225 -150.75521765 15.94379598 -148.25 18.625 C-145.05873795 22.01739201 -141.6696868 25.05782225 -138.15429688 28.10400391 C-134.55804158 31.26906721 -131.09832749 34.57635123 -127.625 37.875 C-122.32802178 42.8839561 -117.00253875 47.84576704 -111.55859375 52.6953125 C-105.97411311 57.72560804 -100.49738146 62.87491959 -95 68 C-87.29831497 51.16218527 -86.09054628 33.24226799 -85 15 C-65.72146553 10.96165436 -46.34382691 7.49986006 -26.95556641 4.03540039 C-25.33822098 3.74636589 -25.33822098 3.74636589 -23.6882019 3.45149231 C-21.64252148 3.08624689 -19.5967302 2.72162165 -17.55081177 2.35771179 C-16.16972733 2.11151848 -16.16972733 2.11151848 -14.76074219 1.86035156 C-13.95900574 1.71776917 -13.15726929 1.57518677 -12.33123779 1.42828369 C-10.67605013 1.12420065 -9.02528831 0.79557263 -7.37823486 0.45013428 C-4.86779457 -0.02502284 -2.54890436 -0.07282584 0 0 Z " fill="#008ABE" transform="translate(450,223)"/>
<path d="M0 0 C0.99 0.495 0.99 0.495 2 1 C1.5875 1.54785156 1.175 2.09570312 0.75 2.66015625 C-14.31050791 23.33473743 -24.1572633 49.11793766 -22.75927734 75.00952148 C-21.83028861 93.50516687 -25.73529231 108.86641534 -31.89995956 126.02654648 C-33.13504042 129.49472162 -34.32007817 132.97991212 -35.5090332 136.46411133 C-37.18193754 141.35480407 -38.86775241 146.24058699 -40.57343006 151.11994839 C-44.31746254 161.83411732 -47.83377658 172.61772217 -51.30072021 183.42453003 C-52.68505443 187.73774729 -54.08088264 192.04718053 -55.48046875 196.35546875 C-55.70972549 197.06696075 -55.93898224 197.77845276 -56.17518616 198.51150513 C-57.32866436 202.06418638 -58.56328969 205.55164546 -60 209 C-89.6561719 186.88886123 -103.14520644 139.24994481 -108.34594727 104.7019043 C-109.31242212 96.7479963 -109.18608376 88.71217756 -109.18530273 80.7121582 C-109.1875102 78.17577838 -109.20578209 75.63982005 -109.22460938 73.10351562 C-109.22754038 71.47916814 -109.22952713 69.85481861 -109.23046875 68.23046875 C-109.23765427 67.47831589 -109.24483978 66.72616302 -109.25224304 65.95121765 C-109.23456551 61.88257997 -109.05538445 58.56223103 -107 55 C-105.23852539 53.6730957 -105.23852539 53.6730957 -103.09765625 52.67578125 C-101.90197021 52.10114136 -101.90197021 52.10114136 -100.68212891 51.51489258 C-99.3854126 50.91970825 -99.3854126 50.91970825 -98.0625 50.3125 C-96.21651538 49.42902921 -94.37148273 48.54356691 -92.52734375 47.65625 C-91.12718018 46.98916016 -91.12718018 46.98916016 -89.69873047 46.30859375 C-85.78548581 44.41109136 -81.95703971 42.3677315 -78.125 40.3125 C-69.82293734 35.89442241 -61.41930509 31.68837886 -53 27.5 C-44.56533447 23.30242284 -36.1417699 19.09198304 -27.8125 14.6875 C-27.08361572 14.30231201 -26.35473145 13.91712402 -25.60375977 13.52026367 C-21.62418328 11.40959104 -17.6579377 9.27512017 -13.6953125 7.1328125 C-12.81641357 6.66141846 -11.93751465 6.19002441 -11.03198242 5.7043457 C-9.33830466 4.79574902 -7.64817091 3.88050601 -5.9621582 2.95776367 C-4.8342688 2.35411987 -4.8342688 2.35411987 -3.68359375 1.73828125 C-3.01900146 1.37774658 -2.35440918 1.01721191 -1.66967773 0.64575195 C-0.84318726 0.32610474 -0.84318726 0.32610474 0 0 Z " fill="#008ABE" transform="translate(168,162)"/>
<path d="M0 0 C6.32829511 2.02940099 12.50651712 4.32136883 18.66796875 6.80859375 C19.57270935 7.17133896 20.47744995 7.53408417 21.40960693 7.90782166 C24.33654814 9.08196448 27.26202149 10.25971809 30.1875 11.4375 C32.22523621 12.25563414 34.26307889 13.07350313 36.30102539 13.89111328 C40.34765218 15.51491085 44.39377786 17.1399465 48.43945312 18.76611328 C55.60195622 21.64454079 62.76945231 24.5104157 69.9375 27.375 C72.3008147 28.32022888 74.66409641 29.26554024 77.02734375 30.2109375 C78.17058105 30.66823242 79.31381836 31.12552734 80.49169922 31.59667969 C94.74829102 37.29931641 94.74829102 37.29931641 96.63604736 38.05444336 C98.53442287 38.81377396 100.43282587 39.57303584 102.33123779 40.33227539 C108.47673687 42.79015622 114.62193865 45.2487705 120.76611328 47.70996094 C139.6908023 55.28868503 158.63355237 62.82143797 177.58215332 70.34014893 C181.48587595 71.88923036 185.38941284 73.43877975 189.29296875 74.98828125 C196.86180489 77.99262674 204.43083442 80.99648459 212 84 C207.63791039 90.60293318 207.63791039 90.60293318 205.30078125 93.04296875 C204.57773804 93.80855103 204.57773804 93.80855103 203.84008789 94.58959961 C203.33598389 95.11690674 202.83187988 95.64421387 202.3125 96.1875 C198.5734727 100.16216362 194.97102575 104.17053073 191.5625 108.4375 C186.98433073 114.1414486 182.01938389 119.43481285 177.01953125 124.765625 C173.58488596 128.43009391 170.26422107 132.1832415 167 136 C166.4225 136.67160156 165.845 137.34320313 165.25 138.03515625 C163.83063796 139.68779307 162.41489521 141.34353732 161 143 C157.63551546 141.51993197 155.25996355 139.60866795 152.5625 137.125 C151.68722656 136.32320312 150.81195313 135.52140625 149.91015625 134.6953125 C148.94980469 133.80585938 147.98945313 132.91640625 147 132 C145.93637381 131.01803861 144.87256634 130.03627354 143.80859375 129.0546875 C142.1515965 127.52539716 140.49516281 125.99552149 138.84057617 124.46362305 C134.60631182 120.54603317 130.32827495 116.67987317 126.0234375 112.83984375 C124 111 124 111 122.3671875 109.25 C121.03176094 107.73829093 121.03176094 107.73829093 118.75 108.0625 C115.16800744 109.28363383 112.23432068 111.03404037 109 113 C108.25169922 112.4884436 108.25169922 112.4884436 107.48828125 111.96655273 C100.79269027 107.4414692 93.91651203 103.23892684 87 99.0625 C85.7622094 98.31295598 84.52449922 97.56327915 83.28686523 96.81347656 C74.20946364 91.31800422 65.1063126 85.86578328 56.00024414 80.41796875 C45.93463615 74.38429304 35.95605599 68.21241382 26 62 C28.73641416 59.26358584 30.94906958 59.33018844 34.75 58.6875 C42.52622226 57.28426478 49.64370412 54.86770856 57 52 C53.11469455 47.0219524 48.81336926 43.06934689 44 39 C42.39957528 37.63150568 40.80135224 36.26046416 39.203125 34.8894043 C38.01092651 33.86683692 36.81820512 32.84487891 35.625 31.82348633 C30.636715 27.55279348 25.6678376 23.26012388 20.71044922 18.95361328 C17.38806131 16.06748975 14.05905381 13.18960143 10.71875 10.32421875 C10.02322021 9.72601318 9.32769043 9.12780762 8.61108398 8.51147461 C7.2661914 7.35506894 5.91940628 6.20085991 4.57055664 5.04907227 C3.02835947 3.72076402 1.51128671 2.36337354 0 1 C0 0.67 0 0.34 0 0 Z " fill="#005389" transform="translate(244,296)"/>
<path d="M0 0 C6.33495903 38.36451187 -5.95270204 81.39456713 -24.75 114.625 C-25.20979248 115.44935547 -25.66958496 116.27371094 -26.14331055 117.12304688 C-26.58586182 117.87908203 -27.02841309 118.63511719 -27.484375 119.4140625 C-27.87334961 120.0838916 -28.26232422 120.7537207 -28.66308594 121.44384766 C-30.3372441 123.39254819 -31.47081123 123.73781251 -34 124 C-35.640625 122.8125 -35.640625 122.8125 -37.25 121 C-39.67635198 118.39334586 -42.11245314 115.9486767 -44.8125 113.625 C-47.90959131 110.95323458 -50.964993 108.24219622 -54 105.5 C-56.98062721 102.81016569 -59.97245233 100.13689636 -63 97.5 C-66.02754767 94.86310364 -69.01937279 92.18983431 -72 89.5 C-75.0025731 86.79080809 -78.01559045 84.0967312 -81.0625 81.4375 C-81.6915625 80.880625 -82.320625 80.32375 -82.96875 79.75 C-84.46018772 78.46506904 -85.98660846 77.22045751 -87.53125 76 C-88.3665625 75.319375 -89.201875 74.63875 -90.0625 73.9375 C-90.83722656 73.32777344 -91.61195313 72.71804688 -92.41015625 72.08984375 C-94 70 -94 70 -93.8984375 67.3203125 C-93.60195313 66.22460938 -93.30546875 65.12890625 -93 64 C-92.82364014 63.32300049 -92.64728027 62.64600098 -92.46557617 61.94848633 C-91.85031035 59.60596987 -91.20611947 57.27237207 -90.5625 54.9375 C-87.0073349 41.65254284 -85.62329113 28.69600241 -85 15 C-65.72146553 10.96165436 -46.34382691 7.49986006 -26.95556641 4.03540039 C-25.87733612 3.84271072 -24.79910583 3.65002106 -23.6882019 3.45149231 C-21.64252148 3.08624689 -19.5967302 2.72162165 -17.55081177 2.35771179 C-16.16972733 2.11151848 -16.16972733 2.11151848 -14.76074219 1.86035156 C-13.95900574 1.71776917 -13.15726929 1.57518677 -12.33123779 1.42828369 C-10.67605013 1.12420065 -9.02528831 0.79557263 -7.37823486 0.45013428 C-4.86779457 -0.02502284 -2.54890436 -0.07282584 0 0 Z " fill="#005389" transform="translate(450,223)"/>
<path d="M0 0 C-2.98482261 4.06955083 -6.37263 7.05182834 -10.375 10.0625 C-15.37917772 13.90499361 -20.24113634 17.85767745 -25 22 C-29.56953927 25.96882169 -34.21512534 29.7936421 -39 33.5 C-44.45511209 37.7275018 -49.725536 42.1285142 -54.94335938 46.64477539 C-59.45294538 50.54597586 -64.01803951 54.35943248 -68.68359375 58.07421875 C-70.96745285 59.8923815 -70.96745285 59.8923815 -72.66015625 61.76953125 C-74.0625 63.25 -74.0625 63.25 -77 65 C-85.8463434 63.9612158 -95.00934909 58.79789522 -103.16430664 55.36468506 C-107.71585389 53.44883488 -112.27430897 51.54953946 -116.83203125 49.6484375 C-117.76121368 49.26039948 -118.69039612 48.87236145 -119.6477356 48.4725647 C-131.25473527 43.63134919 -142.91650231 38.92622587 -154.57844543 34.21936035 C-156.65067744 33.38206582 -158.72189913 32.54231343 -160.79296875 31.70214844 C-163.79124893 30.48602923 -166.79493869 29.28421016 -169.80078125 28.08691406 C-171.36727993 27.45660987 -172.93368879 26.82608241 -174.5 26.1953125 C-175.60541138 25.75939285 -175.60541138 25.75939285 -176.7331543 25.31466675 C-181.88666006 23.22667987 -181.88666006 23.22667987 -183 21 C-154.11668805 3.76552581 -125.51543341 -6.99849211 -92 -11 C-90.98808594 -11.13277344 -89.97617188 -11.26554687 -88.93359375 -11.40234375 C-59.62202542 -14.75092667 -27.55510308 -10.40583006 0 0 Z " fill="#1E2B5D" transform="translate(326,57)"/>
<path d="M0 0 C0.33 0 0.66 0 1 0 C1.21914062 1.1859375 1.43828125 2.371875 1.6640625 3.59375 C7.35741813 33.18012916 21.17497662 60.59699297 46.125 78.625 C57.78266799 86.39219624 71.12760509 93.46206629 85 96 C84 98 84 98 82.0118866 98.82965088 C80.69538872 99.23930084 80.69538872 99.23930084 79.35229492 99.65722656 C78.35170547 99.97273972 77.35111603 100.28825287 76.32020569 100.61332703 C75.2180925 100.95233536 74.11597931 101.29134369 72.98046875 101.640625 C71.83456772 101.99981522 70.68866669 102.35900543 69.50804138 102.7290802 C66.38474045 103.70679335 63.25946232 104.67785263 60.13324738 105.64619827 C56.89548191 106.65093733 53.66043977 107.66435726 50.42529297 108.67749023 C46.48219467 109.91187218 42.53893109 111.14570454 38.59454346 112.3759613 C27.21062702 115.92703091 15.84300617 119.52831518 4.48184204 123.15148926 C1.66161383 124.05082431 -1.15900601 124.94892085 -3.97973633 125.84667969 C-5.68181914 126.38862238 -7.38388713 126.93061166 -9.0859375 127.47265625 C-9.85200821 127.71659622 -10.61807892 127.96053619 -11.40736389 128.21186829 C-14.27675063 129.12666041 -17.14282891 130.04760964 -20 131 C-22.46297206 128.7341551 -24.91954381 126.46148543 -27.375 124.1875 C-28.07367188 123.54490234 -28.77234375 122.90230469 -29.4921875 122.24023438 C-30.1625 121.61826172 -30.8328125 120.99628906 -31.5234375 120.35546875 C-32.450354 119.49924927 -32.450354 119.49924927 -33.39599609 118.62573242 C-35 117 -35 117 -37 114 C-35.74200127 105.75943777 -32.78418976 97.89365306 -30.16015625 90.00390625 C-29.67329236 88.52893832 -29.18684647 87.05383236 -28.70079041 85.57859802 C-27.41827109 81.6893076 -26.13073828 77.80169635 -24.84191895 73.91448975 C-22.81863931 67.80900182 -20.80342239 61.70084456 -18.7870903 55.59305954 C-18.0363138 53.31991101 -17.2845086 51.04710448 -16.53262329 48.77432251 C-13.93486254 40.91471928 -11.36212824 33.04773105 -8.82763672 25.16748047 C-8.57184939 24.37287257 -8.31606207 23.57826468 -8.05252361 22.75957775 C-6.82578918 18.94686678 -5.60279937 15.13301398 -4.38551331 11.317276 C-3.95037735 9.96140691 -3.51515584 8.60556527 -3.07983398 7.24975586 C-2.70100571 6.06328964 -2.32217743 4.87682343 -1.93186951 3.65440369 C-1 1 -1 1 0 0 Z " fill="#1E2B5E" transform="translate(145,258)"/>
<path d="M0 0 C3.93563854 1.29069388 7.68629995 2.82258377 11.45703125 4.53125 C12.18470703 4.85222656 12.91238281 5.17320313 13.66210938 5.50390625 C18.99118304 7.87790179 18.99118304 7.87790179 20.14453125 9.03125 C20.37473101 11.87038035 20.53019034 14.68624016 20.64453125 17.53125 C20.68513672 18.46743164 20.72574219 19.40361328 20.76757812 20.36816406 C21.25963657 32.56742851 21.50133838 44.77621352 21.75195312 56.98242188 C21.92534614 65.07573776 22.17390728 73.14620125 22.671875 81.2265625 C23.19969933 89.87647293 23.2605336 98.49290705 23.20703125 107.15625 C23.2019913 108.61588383 23.19743293 110.0755194 23.19335938 111.53515625 C23.18258538 115.0338918 23.165468 118.53255867 23.14453125 122.03125 C20.56345629 119.54655071 18.85775034 117.05464919 17.01953125 113.96875 C13.31738732 108.04688842 8.96981687 103.05835365 4.14453125 98.03125 C3.31953125 97.165 2.49453125 96.29875 1.64453125 95.40625 C0.81953125 94.6225 -0.00546875 93.83875 -0.85546875 93.03125 C-1.46390625 92.43957031 -2.07234375 91.84789062 -2.69921875 91.23828125 C-23.6282425 71.63627894 -51.81855788 64.57412645 -79.85546875 65.03125 C-77.13402837 61.41950082 -74.32879342 58.59324605 -70.79296875 55.78125 C-69.81457031 54.99621094 -68.83617187 54.21117187 -67.828125 53.40234375 C-66.84714844 52.61988281 -65.86617188 51.83742187 -64.85546875 51.03125 C-63.14481966 49.63825569 -61.43648084 48.24241945 -59.73046875 46.84375 C-58.83070313 46.10769531 -57.9309375 45.37164062 -57.00390625 44.61328125 C-52.3662519 40.81344577 -47.74173641 36.99761983 -43.11474609 33.18481445 C-39.20054943 29.96010454 -35.28270128 26.74008634 -31.35546875 23.53125 C-26.57580272 19.62528636 -21.80817947 15.70482367 -17.04296875 11.78125 C-15.96595703 10.89469727 -15.96595703 10.89469727 -14.8671875 9.99023438 C-14.17625 9.42111328 -13.4853125 8.85199219 -12.7734375 8.265625 C-12.1036084 7.72099609 -11.4337793 7.17636719 -10.74365234 6.61523438 C-9.53648617 5.60255088 -8.35805944 4.5539035 -7.22119141 3.46289062 C-4.76014925 1.14341638 -3.44456441 0.03769701 0 0 Z " fill="#008ABE" transform="translate(327.85546875,57.96875)"/>
<path d="M0 0 C9.99936141 -2.18356939 16.31580137 0.68330101 24.625 5.9375 C27.68497933 7.9040501 30.72936933 9.89177876 33.76513672 11.89550781 C38.74767745 15.1369796 43.84029556 18.19348263 48.93377686 21.25604248 C51.27840328 22.66846509 53.61669453 24.09119855 55.95513916 25.51382446 C60.9235819 28.53610733 65.90022902 31.5442022 70.88813782 34.53425598 C73.47216617 36.08389844 76.05363825 37.63777099 78.63491821 39.19198608 C79.86653456 39.93192321 81.09940357 40.66977976 82.33358765 41.40542603 C84.04846179 42.42777348 85.75870743 43.45787258 87.46875 44.48828125 C88.44263672 45.07134033 89.41652344 45.65439941 90.41992188 46.25512695 C92.94201058 47.96078252 94.93235546 49.77459687 97 52 C76.8901838 63.41367946 56.66000933 70.52309846 34 75 C33.00613281 75.19980469 32.01226562 75.39960938 30.98828125 75.60546875 C27.2873367 76.09409019 23.733576 76.02414311 20 76 C15.72059429 61.23719759 11.67182575 46.42396172 7.75 31.5625 C6.70532394 27.60488282 5.65808336 23.64795658 4.609375 19.69140625 C4.37603455 18.80393204 4.14269409 17.91645782 3.90228271 17.00209045 C2.97407891 13.50049053 2.02398636 10.06920499 0.83691406 6.64428711 C0 4 0 4 0 0 Z " fill="#00A9C2" transform="translate(256,357)"/>
<path d="M0 0 C1.95703125 1.6015625 1.95703125 1.6015625 3.8125 3.625 C6.37278053 6.31877747 8.93001632 8.89118345 11.75 11.3125 C15.23078016 14.30679317 18.6242781 17.38839198 22 20.5 C25.27839637 23.5194289 28.56581444 26.5220256 31.9375 29.4375 C36.11241132 33.05459436 40.1493324 36.81648798 44.19604492 40.57543945 C47.92901198 44.03554322 51.72007877 47.41065476 55.609375 50.6953125 C57 52 57 52 58 54 C54.37 55.98 50.74 57.96 47 60 C45.783125 59.17371094 44.56625 58.34742188 43.3125 57.49609375 C37.3191949 53.50250492 31.16402882 49.78455171 25 46.0625 C23.7622094 45.31295598 22.52449922 44.56327915 21.28686523 43.81347656 C12.20946364 38.31800422 3.1063126 32.86578328 -5.99975586 27.41796875 C-16.06536385 21.38429304 -26.04394401 15.21241382 -36 9 C-33.26358584 6.26358584 -31.05093042 6.33018844 -27.25 5.6875 C-20.46477103 4.47720642 -14.42329235 2.48637032 -8.0234375 -0.109375 C-4.72982125 -1.07958754 -3.19882313 -1.18554046 0 0 Z " fill="#1E2B5E" transform="translate(306,349)"/>
</svg>
