<svg width="96" height="96" viewBox="0 0 96 96" fill="none" xmlns="http://www.w3.org/2000/svg">
<g clip-path="url(#clip0_20_56)">
<rect width="96" height="96" fill="white"/>
<g clip-path="url(#clip1_20_56)">
<path d="M96 0H0V96H96V0Z" fill="#0B2A63"/>
<path d="M65.2099 83.332C62.2219 84.792 58.6139 83.341 56.9999 80.03L28.2869 21.154L28.2409 21.035C26.7179 17.815 27.8259 14.116 30.7909 12.665C33.2269 11.479 36.1319 12.2 38.0249 14.467C38.1029 14.549 38.2069 14.681 38.3169 14.832L38.4769 15.069C38.6779 15.365 38.8559 15.667 39.0019 15.968C39.0019 15.968 67.3769 74.133 67.6919 74.808C69.3109 78.124 68.2209 81.864 65.2109 83.333" fill="white"/>
</g>
</g>
<defs>
<clipPath id="clip0_20_56">
<rect width="96" height="96" fill="white"/>
</clipPath>
<clipPath id="clip1_20_56">
<rect width="96" height="96" fill="white"/>
</clipPath>
</defs>
</svg>
