<?xml version="1.0" standalone="no"?>
<!DOCTYPE svg PUBLIC "-//W3C//DTD SVG 20010904//EN"
 "http://www.w3.org/TR/2001/REC-SVG-20010904/DTD/svg10.dtd">
<svg version="1.0" xmlns="http://www.w3.org/2000/svg"
 width="200.000000pt" height="200.000000pt" viewBox="0 0 200.000000 200.000000"
 preserveAspectRatio="xMidYMid meet">

<g transform="translate(0.000000,200.000000) scale(0.100000,-0.100000)"
fill="#E61F23" stroke="none">
<path d="M0 1000 l0 -1000 1000 0 1000 0 0 1000 0 1000 -1000 0 -1000 0 0
-1000z m1364 631 c130 -64 225 -194 246 -337 5 -38 10 -270 10 -516 l0 -448
-95 0 -95 0 0 245 0 245 -430 0 -430 0 0 -245 0 -245 -95 0 -95 0 0 458 c0
251 5 486 10 521 23 159 150 306 299 348 33 9 126 12 326 10 l281 -2 68 -34z"/>
<path d="M736 1475 c-59 -21 -108 -65 -138 -125 -27 -51 -28 -60 -28 -202 l0
-148 430 0 430 0 0 148 c0 142 -1 151 -27 203 -31 60 -92 112 -151 129 -58 16
-468 12 -516 -5z"/>
</g>
</svg>
