<?xml version="1.0" encoding="UTF-8"?><svg id="Layer_1" xmlns="http://www.w3.org/2000/svg" xmlns:xlink="http://www.w3.org/1999/xlink" viewBox="0 0 1193.08 1193.08"><defs><style>.cls-1,.cls-2{fill:none;}.cls-2,.cls-3,.cls-4,.cls-5,.cls-6{stroke-linecap:round;stroke-linejoin:round;}.cls-2,.cls-6{stroke:#00a1c9;stroke-width:53.6px;}.cls-3{fill:#44797c;stroke:#44797c;}.cls-3,.cls-4,.cls-5{stroke-width:14.07px;}.cls-7{fill:#4ab5d5;}.cls-8{fill:#77a741;}.cls-9{fill:#8bc540;}.cls-10{clip-path:url(#clippath-1);}.cls-11{clip-path:url(#clippath-3);}.cls-12{clip-path:url(#clippath-2);}.cls-13{fill:#fff;}.cls-4{fill:#009383;stroke:#009383;}.cls-5{fill:#868686;stroke:#868686;}.cls-6{fill:#80d0e4;}.cls-14{fill:#bfe8f2;}.cls-15{fill:#bcdd8e;}.cls-16{clip-path:url(#clippath);}</style><clipPath id="clippath"><polygon class="cls-1" points="953.55 531.59 192.17 522.12 192.17 118.53 953.55 128 953.55 531.59"/></clipPath><clipPath id="clippath-1"><path class="cls-1" d="M539.28,375.59s0,0,0,0c-25.96-36.94-60.28-72.02-103.23-108.2-7.88-6.64-19.65-5.64-26.3,2.24-6.64,7.88-5.63,19.67,2.26,26.31,45.69,38.48,80.83,75.54,105.71,115.51-32.13-1.61-57.5-9.52-78.15-21.98-41.74-25.2-64.06-68.1-84.73-110.75-19.82-40.85-38.39-81.49-65.79-111.22,35-.03,80.11,3.3,122.75,17.17,38.01,12.36,74.18,33.14,98.21,68.53,20.22,29.79,31.56,69.57,29.27,122.39h0s0,0,0,0Z"/></clipPath><clipPath id="clippath-2"><path class="cls-1" d="M902.66,857.83c33.3-37.32,52.47-80.75,52.47-127.17,0-138.84-170.89-251.4-381.7-251.4s-381.7,112.56-381.7,251.4,170.89,251.4,381.7,251.4c68.73,0,133.16-12.02,188.86-32.96l172.35,55.58-31.98-146.85Z"/></clipPath><clipPath id="clippath-3"><path class="cls-1" d="M582.61,450.71s104.64-61.64,103.35-115.01c-1.07-44.24,93.24-66.88,119.84-43.94,26.84,23.15-8.71,52.26-8.71,52.26l89.27-80.57-18.51-20.69-132.82-2.18-83.83,41.37-69.68,77.3-26.13,95.81,27.22-4.35Z"/></clipPath></defs><circle class="cls-13" cx="596.54" cy="596.54" r="596.54"/><g class="cls-16"><path class="cls-3" d="M902.12,229.54h-.06c-37.37-5.85-107.66-13.38-174.72,1.88-46.84,10.65-92,32.34-124.6,72.08-10.03,12.23-18.93,26.22-26.29,42.19-2.54-47.37-15.86-84.44-35.54-113.45-28.88-42.54-71.88-68.22-117.56-83.07-65.4-21.27-136.09-20.12-173.84-17.66-22.02,1.33-29.36,30.77-10.39,42.3,23.96,14.95,40.2,38.95,54.71,65.77,16.2,29.91,30.04,63.37,47.46,94.24,36.18,64.17,86.61,118.03,196.39,115.18,20.51,46.33,23.63,98.1,25.13,160.13-.53,10.68-.2,197.47-.14,198.03,4.01,41.65,40.17,23.6,39.63,7.18-.54-16.42-1.89-200.21-2.39-199.81-.37-34.71-1.01-64.19-2.81-93.79,101.94,8.41,154.76-39.39,195.24-97.98,20.14-29.17,36.97-61.22,55.83-89.56,16.91-25.42,35.29-47.85,60.66-60.63h.02c19.44-9.81,15.16-39.54-6.72-43.04ZM539.28,375.59s0,0,0,0c-25.96-36.94-60.28-72.02-103.23-108.2-7.88-6.64-19.65-5.64-26.3,2.24-6.64,7.88-5.63,19.67,2.26,26.31,45.69,38.48,80.83,75.54,105.71,115.51-32.13-1.61-57.5-9.52-78.15-21.98-41.74-25.2-64.06-68.1-84.73-110.75-19.82-40.85-38.39-81.49-65.79-111.22,35-.03,80.11,3.3,122.75,17.17,38.01,12.36,74.18,33.14,98.21,68.53,20.22,29.79,31.56,69.57,29.27,122.39h0s0,0,0,0ZM783.84,366.66c-24.49,40.6-50.6,81.31-94.45,102.63-21.77,10.57-47.85,16.15-80.12,14.78v-.02c28.54-37.56,67.02-71.22,116.09-105.45,8.45-5.9,10.52-17.54,4.63-25.99-5.89-8.45-17.54-10.53-25.99-4.63-46.17,32.23-83.47,64.17-112.63,98.77,2.45-52.99,17.37-91.68,40.25-119.55,27.13-33.07,65.05-50.5,104.02-59.37,43.75-9.95,88.98-9.19,123.86-5.99-29.97,27.09-52.19,65.92-75.64,104.84Z"/><path class="cls-9" d="M539.28,375.59s0,0,0,0c-25.96-36.94-60.28-72.02-103.23-108.2-7.88-6.64-19.65-5.64-26.3,2.24-6.64,7.88-5.63,19.67,2.26,26.31,45.69,38.48,80.83,75.54,105.71,115.51-32.13-1.61-57.5-9.52-78.15-21.98-41.74-25.2-64.06-68.1-84.73-110.75-19.82-40.85-38.39-81.49-65.79-111.22,35-.03,80.11,3.3,122.75,17.17,38.01,12.36,74.18,33.14,98.21,68.53,20.22,29.79,31.56,69.57,29.27,122.39h0s0,0,0,0Z"/><g class="cls-10"><path class="cls-8" d="M431.96,185.22s42.44,72.67,31.51,92.6c-10.93,19.93.64,36.65-.64,47.59-1.29,10.93-67.52,10.93-92.6-8.36-25.08-19.29,24.44,69.45,24.44,69.45l110.61,45.01,52.73-17.36-12.22-151.12-75.24-74.59-38.58-3.22Z"/></g></g><path class="cls-6" d="M902.66,901.33c33.3-37.32,52.47-80.75,52.47-127.17,0-138.84-170.89-251.4-381.7-251.4s-381.7,112.56-381.7,251.4,170.89,251.4,381.7,251.4c68.73,0,133.16-12.02,188.86-32.96l172.35,55.58-31.98-146.85Z"/><path class="cls-7" d="M667.95,553.39s153.18,86.48,193.53,175.8c30.88,68.38-18.11,140.74-25.85,153.64-7.74,12.91,69.43,138.13,69.43,138.13l32.13-7.17s-40.66-98.44-34.53-112.46c6.14-14.01,46.98-134.08,54.85-155.15,7.87-21.07-133.7-181.71-133.7-181.71l-155.86-11.08Z"/><path class="cls-14" d="M510.33,563.2s-231.45,75.61-243.43,195.48c-3.29,32.94-11.6,143.49,58.09,189.95,69.69,46.46-53.72-12.28-53.72-12.28,0,0-131.64-141.96-92.92-206.49,38.72-64.53,87.76-134.22,131.64-149.7,43.88-15.49,293.26-63.42,200.34-16.96Z"/><path class="cls-2" d="M902.66,901.33c33.3-37.32,52.47-80.75,52.47-127.17,0-138.84-170.89-251.4-381.7-251.4s-381.7,112.56-381.7,251.4,170.89,251.4,381.7,251.4c68.73,0,133.16-12.02,188.86-32.96l172.35,55.58-31.98-146.85Z"/><g class="cls-12"><path class="cls-5" d="M898.88,196.37h-.06c-37.37-5.85-107.66-13.38-174.72,1.88-46.84,10.65-92,32.34-124.6,72.08-10.03,12.23-18.93,26.22-26.29,42.19-2.54-47.37-15.86-84.44-35.54-113.45-28.88-42.54-71.88-68.22-117.56-83.07-65.4-21.27-136.09-20.12-173.84-17.66-22.02,1.33-29.36,30.77-10.39,42.3,23.96,14.95,40.2,38.95,54.71,65.77,16.2,29.91,30.04,63.37,47.46,94.24,36.18,64.17,86.61,118.03,196.39,115.18,20.51,46.33,23.63,98.1,25.13,160.13-.53,10.68-.2,197.47-.14,198.03,4.01,41.65,40.17,23.6,39.63,7.18-.54-16.42-1.89-200.21-2.39-199.81-.37-34.71-1.01-64.19-2.81-93.79,101.94,8.41,154.76-39.39,195.24-97.98,20.14-29.17,36.97-61.22,55.83-89.56,16.91-25.42,35.29-47.85,60.66-60.63h.02c19.44-9.81,15.16-39.54-6.72-43.04ZM536.04,342.42s0,0,0,0c-25.96-36.94-60.28-72.02-103.23-108.2-7.88-6.64-19.65-5.64-26.3,2.24-6.64,7.88-5.63,19.67,2.26,26.31,45.69,38.48,80.83,75.54,105.71,115.51-32.13-1.61-57.5-9.52-78.15-21.98-41.74-25.2-64.06-68.1-84.73-110.75-19.82-40.85-38.39-81.49-65.79-111.22,35-.03,80.11,3.3,122.75,17.17,38.01,12.36,74.18,33.14,98.21,68.53,20.22,29.79,31.56,69.57,29.27,122.39h0s0,0,0,0ZM780.6,333.49c-24.49,40.6-50.6,81.31-94.45,102.63-21.77,10.57-47.85,16.15-80.12,14.78v-.02c28.54-37.56,67.02-71.22,116.09-105.45,8.45-5.9,10.52-17.54,4.63-25.99-5.89-8.45-17.54-10.53-25.99-4.63-46.17,32.23-83.47,64.17-112.63,98.77,2.45-52.99,17.37-91.68,40.25-119.55,27.13-33.07,65.05-50.5,104.02-59.37,43.75-9.95,88.98-9.19,123.86-5.99-29.97,27.09-52.19,65.92-75.64,104.84Z"/></g><path class="cls-4" d="M902.12,229.54h-.06c-37.37-5.85-107.66-13.38-174.72,1.88-46.84,10.65-92,32.34-124.6,72.08-10.03,12.23-18.93,26.21-26.29,42.19-.11-1.98-4.22,11.71-7.02,16.96-21.31,27.6-32.39,86.38-31.76,86.36,1.6,54.96,46.44,70.8,59.42,71.75,101.94,8.41,154.76-39.39,195.24-97.99,20.14-29.17,36.97-61.22,55.83-89.56,16.91-25.42,35.29-47.85,60.66-60.63h.02c19.44-9.81,15.17-39.54-6.72-43.04ZM783.84,366.66c-24.49,40.61-50.6,81.31-94.45,102.63-21.77,10.57-47.85,16.15-80.12,14.78v-.02c28.54-37.56,67.02-71.22,116.09-105.45,8.45-5.89,10.52-17.54,4.63-25.99-5.89-8.45-17.54-10.53-25.99-4.63-46.17,32.23-83.47,64.17-112.63,98.77,2.45-52.99,17.37-91.68,40.25-119.55,27.13-33.07,65.05-50.5,104.02-59.37,43.75-9.95,88.98-9.19,123.86-5.99-29.97,27.09-52.19,65.92-75.64,104.84Z"/><path class="cls-9" d="M783.84,366.66c-24.49,40.6-50.6,81.31-94.45,102.63-21.77,10.57-47.85,16.15-80.12,14.78v-.02c28.54-37.56,67.02-71.22,116.09-105.45,8.45-5.9,10.52-17.54,4.63-25.99-5.89-8.45-17.54-10.53-25.99-4.63-46.17,32.23-83.47,64.17-112.63,98.77,2.45-52.99,17.37-91.68,40.25-119.55,27.13-33.07,65.05-50.5,104.02-59.37,43.75-9.95,88.98-9.19,123.86-5.99-29.97,27.09-52.19,65.92-75.64,104.84Z"/><g class="cls-11"><path class="cls-15" d="M783.84,366.66c-24.49,40.6-50.6,81.31-94.45,102.63-21.77,10.57-47.85,16.15-80.12,14.78v-.02c28.54-37.56,67.02-71.22,116.09-105.45,8.45-5.9,10.52-17.54,4.63-25.99-5.89-8.45-17.54-10.53-25.99-4.63-46.17,32.23-83.47,64.17-112.63,98.77,2.45-52.99,17.37-91.68,40.25-119.55,27.13-33.07,65.05-50.5,104.02-59.37,43.75-9.95,88.98-9.19,123.86-5.99-29.97,27.09-52.19,65.92-75.64,104.84Z"/></g><path class="cls-13" d="M637.77,772.45c0,32.13-26.05,58.18-58.18,58.18s-58.18-26.05-58.18-58.18,26.05-58.18,58.18-58.18,58.18,26.05,58.18,58.18"/><path class="cls-13" d="M445.16,772.45c0,32.13-26.05,58.18-58.18,58.18s-58.18-26.05-58.18-58.18,26.05-58.18,58.18-58.18,58.18,26.05,58.18,58.18"/><path class="cls-13" d="M828.27,772.45c0,32.13-26.05,58.18-58.18,58.18s-58.18-26.05-58.18-58.18,26.05-58.18,58.18-58.18,58.18,26.05,58.18,58.18"/></svg>