<svg width="270" height="270" viewBox="0 0 270 270" fill="none" xmlns="http://www.w3.org/2000/svg">
<path d="M270 135C270 209.558 209.558 270 135 270C60.4416 270 0 209.558 0 135C0 60.4416 60.4416 0 135 0C209.558 0 270 60.4416 270 135Z" fill="#6C16FF"/>
<path fill-rule="evenodd" clip-rule="evenodd" d="M125.342 99.4444C124.596 99.6857 124.567 100.761 125.298 101.045L131.654 103.513C131.895 103.606 132.079 103.809 132.152 104.063L133.77 109.643C134.003 110.449 135.113 110.449 135.346 109.643L136.963 104.063C137.037 103.809 137.221 103.606 137.462 103.513L143.818 101.045C144.549 100.761 144.52 99.6857 143.774 99.4444L137.497 97.414C137.244 97.332 137.045 97.1294 136.962 96.8706C136.96 96.8631 136.957 96.8556 136.955 96.848L135.346 91.297C135.113 90.4905 134.003 90.4905 133.77 91.297L132.161 96.848C132.159 96.8556 132.156 96.8631 132.154 96.8706C132.071 97.1294 131.872 97.332 131.619 97.414L125.342 99.4444ZM132.152 104.063L132.156 104.062L132.152 104.063Z" fill="#EBFF38"/>
<path d="M133.961 115.569L109.531 176.093C108.949 177.534 107.342 178.692 105.791 178.692H96.6111L122.284 115.569H133.961Z" fill="#EBFF38"/>
<path fill-rule="evenodd" clip-rule="evenodd" d="M138.847 178.692H128.442C127.292 178.692 126.527 178.192 125.788 177.622C125.049 177.051 124.515 176.318 124.186 175.421C124.186 175.421 117.24 157.351 112.789 145.772C100.374 145.772 93.4136 145.772 80.9988 145.772C76.5237 157.351 69.5396 175.421 69.5396 175.421C69.2521 176.195 68.7182 176.909 67.9378 177.561C67.1574 178.172 65.9013 178.692 64.7923 178.692H55L90.2401 90.6924H103.486L138.847 178.692ZM112.789 145.772C107.664 132.475 99.6662 111.722 99.6662 111.722C98.7215 109.399 97.7768 106.464 96.8322 102.919C96.3804 104.671 95.9081 106.301 95.4152 107.809C94.9634 109.317 94.5116 110.662 94.0598 111.844C94.0598 111.844 86.0994 132.522 80.9988 145.772C93.4136 145.772 100.374 145.772 112.789 145.772Z" fill="#EBFF38"/>
<path fill-rule="evenodd" clip-rule="evenodd" d="M134.724 168.432H157.205L162.601 138.692H145.97L149.575 129.837H183.443C186.558 129.837 189.289 129.43 191.635 128.615C194.022 127.801 196.004 126.661 197.582 125.196C199.16 123.689 200.353 121.878 201.162 119.761C201.971 117.603 202.376 115.201 202.376 112.554C202.376 108.483 201.162 105.471 198.735 103.516C196.348 101.522 192.626 100.524 187.569 100.524H161.65L165.694 90.6921H188.722C193.334 90.6921 197.279 91.1603 200.555 92.0967C203.873 92.9924 206.603 94.2952 208.747 96.0051C210.892 97.715 212.469 99.7913 213.481 102.234C214.492 104.636 214.998 107.343 214.998 110.356C214.998 112.921 214.634 115.384 213.905 117.745C213.177 120.107 212.065 122.285 210.568 124.28C209.112 126.274 207.271 128.045 205.046 129.592C202.821 131.099 200.211 132.341 197.218 133.318C202.396 134.498 206.259 136.554 208.808 139.485C211.357 142.376 212.631 146.081 212.631 150.6C212.631 154.63 211.903 158.355 210.447 161.775C208.99 165.154 206.887 168.086 204.136 170.569C201.425 173.012 198.088 174.925 194.123 176.309C190.199 177.694 186.05 178.692 181.074 178.692L138.847 178.692L134.724 168.432ZM189.936 167.21C187.63 168.025 184.92 168.432 181.805 168.432H157.205L162.601 138.692H185.385C187.933 138.692 190.138 138.977 191.999 139.547C193.901 140.117 195.458 140.931 196.672 141.989C197.885 143.048 198.796 144.33 199.402 145.837C200.009 147.302 200.313 148.971 200.313 150.844C200.313 153.531 199.928 155.953 199.16 158.111C198.391 160.269 197.238 162.121 195.701 163.668C194.164 165.175 192.242 166.355 189.936 167.21Z" fill="#EBFF38"/>
</svg>
