<?xml version="1.0" standalone="no"?>
<!DOCTYPE svg PUBLIC "-//W3C//DTD SVG 20010904//EN"
 "http://www.w3.org/TR/2001/REC-SVG-20010904/DTD/svg10.dtd">
<svg version="1.0" xmlns="http://www.w3.org/2000/svg"
 width="180.000000pt" height="180.000000pt" viewBox="0 0 180.000000 180.000000"
 preserveAspectRatio="xMidYMid meet">

<g transform="translate(0.000000,180.000000) scale(0.100000,-0.100000)"
fill="#000000" stroke="none">
<path d="M818 1595 c-70 -19 -136 -71 -172 -135 -28 -50 -31 -63 -31 -140 0
-84 1 -86 51 -175 28 -49 68 -121 89 -160 21 -38 41 -74 45 -80 4 -5 28 -48
53 -95 25 -47 61 -112 81 -144 58 -96 44 -147 -49 -180 -37 -13 -38 -14 -15
-19 14 -3 45 -9 70 -12 67 -8 133 -51 177 -115 47 -67 111 -117 169 -131 24
-6 44 -15 44 -20 0 -5 18 -9 40 -9 22 0 40 4 40 9 0 5 19 13 43 19 55 14 119
61 152 110 31 46 65 137 65 171 0 40 -40 141 -85 216 -43 71 -130 219 -322
549 -156 269 -184 304 -270 336 -61 23 -107 24 -175 5z"/>
<path d="M346 877 c-65 -37 -91 -81 -146 -242 -28 -82 -55 -158 -60 -167 -41
-72 43 -223 144 -259 20 -7 36 -17 36 -21 0 -4 20 -8 45 -8 25 0 45 3 45 8 0
4 20 15 45 26 44 18 125 96 125 121 0 19 70 78 115 97 22 9 57 19 78 23 46 7
41 20 -12 29 -26 4 -53 18 -76 41 -31 29 -36 39 -31 62 26 106 15 175 -35 236
-45 54 -95 77 -171 77 -47 0 -73 -6 -102 -23z"/>
</g>
</svg>
