<?xml version="1.0" encoding="UTF-8"?>
<svg version="1.1" xmlns="http://www.w3.org/2000/svg" width="500" height="500">
<path d="M0 0 C1.17711044 -0.00807175 2.35422089 -0.01614349 3.56700134 -0.02445984 C6.05905712 -0.03825402 8.55113142 -0.0489969 11.04321289 -0.05688477 C13.54750253 -0.06831841 16.05176951 -0.08863032 18.5559082 -0.1184082 C72.03251418 -0.75271424 123.25051748 18.24803567 163.77734375 53.23828125 C164.67582031 54.0065625 165.57429688 54.77484375 166.5 55.56640625 C168.97733568 57.74162782 171.38649917 59.96826037 173.77734375 62.23828125 C174.30537598 62.73908203 174.8334082 63.23988281 175.37744141 63.75585938 C184.01912312 72.01016376 191.67393315 80.63602113 198.77734375 90.23828125 C199.20499023 90.80514648 199.63263672 91.37201172 200.07324219 91.95605469 C206.84110237 100.93717422 212.51254112 110.30919632 217.77734375 120.23828125 C218.12007324 120.87459473 218.46280273 121.5109082 218.81591797 122.16650391 C234.09293057 150.68018133 243.78033005 184.14447325 243.98046875 216.65625 C243.98752838 217.42740143 243.99458801 218.19855286 244.00186157 218.99307251 C244.1192164 235.59096406 244.16083452 251.91489841 240.77734375 268.23828125 C240.47135254 269.72642334 240.47135254 269.72642334 240.15917969 271.24462891 C237.11426176 285.62931761 233.12582328 299.54256794 227.77734375 313.23828125 C227.51373047 313.92116211 227.25011719 314.60404297 226.97851562 315.30761719 C212.31489354 352.66494013 184.88712785 386.44554664 152.77734375 410.23828125 C151.65753464 411.0885187 150.53774285 411.93877895 149.41796875 412.7890625 C140.3831119 419.54525703 130.77676354 425.04093774 120.77734375 430.23828125 C120.04451172 430.62371094 119.31167969 431.00914062 118.55664062 431.40625 C97.66059457 442.2714523 74.93149865 449.18607952 51.77734375 453.23828125 C50.7095166 453.43309082 50.7095166 453.43309082 49.62011719 453.63183594 C-6.58519455 463.39597038 -68.77033696 447.50487884 -115.03173828 414.96582031 C-118.87028022 412.18382754 -122.55481799 409.24094322 -126.22265625 406.23828125 C-127.24230469 405.42230469 -128.26195312 404.60632813 -129.3125 403.765625 C-142.97004285 392.67112577 -155.58229625 380.12998888 -165.98730469 365.92236328 C-167.22785373 364.23119583 -168.49312813 362.5608224 -169.76171875 360.890625 C-176.52602069 351.85112898 -181.95307495 342.20596051 -187.22265625 332.23828125 C-187.55394531 331.62484863 -187.88523437 331.01141602 -188.2265625 330.37939453 C-203.10559435 302.79248663 -212.23260391 269.20124158 -212.42578125 237.8203125 C-212.43284088 237.04916107 -212.43990051 236.27800964 -212.44717407 235.48348999 C-212.5645289 218.88559844 -212.60614702 202.56166409 -209.22265625 186.23828125 C-209.01866211 185.24618652 -208.81466797 184.2540918 -208.60449219 183.23193359 C-197.10753014 128.91841055 -168.08131962 78.83157634 -122.93896484 45.50585938 C-121.23698036 44.24886031 -119.55220627 42.97101805 -117.8671875 41.69140625 C-108.83191698 34.93259527 -99.22370435 29.43647109 -89.22265625 24.23828125 C-88.48982422 23.85285156 -87.75699219 23.46742187 -87.00195312 23.0703125 C-60.42989969 9.25378782 -30.04143319 0.19965471 0 0 Z " fill="#002C49" transform="translate(234.22265625,22.76171875)"/>
<path d="M0 0 C10.28836645 8.70075166 17.43210951 20.57132769 19.26953125 33.99609375 C19.34990502 36.75300064 19.38654822 39.48263654 19.3671875 42.23828125 C19.36506508 43.39083908 19.36506508 43.39083908 19.36289978 44.56668091 C19.35733808 47.00152614 19.34479285 49.43627669 19.33203125 51.87109375 C19.32701129 53.52994658 19.32244926 55.18880087 19.31835938 56.84765625 C19.30823551 60.89720053 19.28865295 64.94654216 19.26953125 68.99609375 C27.51953125 68.99609375 35.76953125 68.99609375 44.26953125 68.99609375 C45.25953125 67.01609375 45.25953125 67.01609375 46.26953125 64.99609375 C47.17329311 63.82310144 48.11874799 62.68136384 49.09765625 61.5703125 C49.65066406 60.93802734 50.20367187 60.30574219 50.7734375 59.65429688 C51.34964844 59.00396484 51.92585937 58.35363281 52.51953125 57.68359375 C54.21163503 55.7561514 55.90293408 53.82866868 57.58007812 51.88818359 C58.71163104 50.62090974 59.88652222 49.39111995 61.09960938 48.20166016 C62.74770169 46.5230997 64.11790558 45.04878948 65.26953125 42.99609375 C64.77650974 39.44635904 64.77650974 39.44635904 63.26953125 35.99609375 C62.50480974 27.61083352 62.24403046 20.02476618 67.26953125 12.99609375 C67.80578125 12.12984375 68.34203125 11.26359375 68.89453125 10.37109375 C75.13669039 4.12893461 80.96929765 1.37516898 89.76953125 1.24609375 C98.28674386 1.38941223 103.8532584 3.86291531 110.09765625 9.70703125 C116.33800029 16.40176927 117.93087171 22.68103847 117.671875 31.71484375 C116.62287964 40.26975738 112.13978939 46.02261306 105.5859375 51.3671875 C97.94367224 56.74125936 89.99629378 56.88126079 80.93359375 55.48046875 C80.05445313 55.320625 79.1753125 55.16078125 78.26953125 54.99609375 C77.7590625 55.62773437 77.24859375 56.259375 76.72265625 56.91015625 C71.74441577 63.03586351 66.67441965 69.06916131 61.52050781 75.04736328 C61.0406543 75.60407715 60.56080078 76.16079102 60.06640625 76.734375 C59.64713867 77.21946533 59.22787109 77.70455566 58.79589844 78.2043457 C57.07648553 80.16233668 57.07648553 80.16233668 55.07641602 83.16333008 C52.26953125 85.99609375 52.26953125 85.99609375 48.67260742 86.67724609 C47.30220436 86.67630555 45.93154901 86.64294302 44.5625 86.58203125 C43.47440788 86.56929672 43.47440788 86.56929672 42.36433411 86.55630493 C40.06035168 86.52286776 37.75994473 86.44762489 35.45703125 86.37109375 C33.89002473 86.3409808 32.32296301 86.3136073 30.75585938 86.2890625 C26.92571769 86.22311075 23.09822934 86.11967169 19.26953125 85.99609375 C19.26953125 90.28609375 19.26953125 94.57609375 19.26953125 98.99609375 C26.8144923 99.1253771 34.35530157 99.18224187 41.90136719 99.1730957 C44.46594978 99.18005588 47.0305587 99.20653177 49.59472656 99.25317383 C53.29021156 99.31696323 56.97991928 99.30970618 60.67578125 99.2890625 C61.81567505 99.32396286 62.95556885 99.35886322 64.13000488 99.39482117 C69.12538818 99.30610344 72.07887189 99.15797259 75.74975586 95.57582092 C77.78886455 92.79360557 79.56344052 89.99140205 81.26953125 86.99609375 C82.01203125 85.91457031 82.75453125 84.83304687 83.51953125 83.71875 C84.09703125 82.84089844 84.67453125 81.96304688 85.26953125 81.05859375 C85.93984375 80.07503906 86.61015625 79.09148437 87.30078125 78.078125 C89.34007613 75.00256415 89.34007613 75.00256415 90.98828125 71.5703125 C92.84602768 68.10333397 94.30657203 65.59771648 97.26953125 62.99609375 C102.51056285 61.58422401 107.96198796 62.30044487 113.26953125 62.99609375 C113.70265625 61.60390625 113.70265625 61.60390625 114.14453125 60.18359375 C116.46063644 53.62129572 121.17992749 49.51870968 127.125 46.140625 C134.33889891 43.51494502 142.78645977 43.64932742 150.1171875 45.8515625 C156.82303697 49.22174071 161.42470295 54.90154305 165.20703125 61.24609375 C167.40261864 68.99522572 167.34253203 76.66860798 163.58984375 83.8984375 C159.23701406 90.81402786 154.4612425 96.13224934 146.26953125 97.99609375 C137.55583263 99.02229379 129.77370025 99.13754425 122.328125 93.8515625 C118.23128692 90.15896651 115.02204997 86.2536499 113.26953125 80.99609375 C110.49642175 80.39978376 110.49642175 80.39978376 107.26953125 80.99609375 C105.0280115 83.04843496 103.54120195 85.54230274 101.94140625 88.109375 C101.46632629 88.83472946 100.99124634 89.56008392 100.50177002 90.30741882 C98.9877064 92.62887393 97.50359697 94.96787416 96.01953125 97.30859375 C95.00583093 98.87429467 93.99022664 100.43876464 92.97265625 102.00195312 C91.11014656 104.86925599 89.25855111 107.74292441 87.42089844 110.6262207 C86.05712257 112.76242114 84.67536929 114.88733669 83.26953125 116.99609375 C80.59933472 117.3568573 80.59933472 117.3568573 77.16748047 117.33666992 C75.24571487 117.33633003 75.24571487 117.33633003 73.28512573 117.33598328 C71.88148655 117.32066216 70.47785091 117.30501415 69.07421875 117.2890625 C67.6421859 117.28346813 66.21014732 117.27919728 64.77810669 117.27619934 C61.00665469 117.26473788 57.2355486 117.23525999 53.4642334 117.2020874 C49.61682821 117.17141425 45.76936719 117.15769993 41.921875 117.14257812 C34.3709177 117.11039105 26.82031698 117.05761306 19.26953125 116.99609375 C19.26953125 121.28609375 19.26953125 125.57609375 19.26953125 129.99609375 C32.20450668 130.07391779 45.13860395 130.10340896 58.07380104 130.07125187 C64.08032106 130.05783713 70.08587203 130.06105022 76.09228516 130.10229492 C81.88938485 130.14149007 87.6849558 130.13696631 93.48206711 130.10217094 C95.69324753 130.09657345 97.90452574 130.10671116 100.11555862 130.13286018 C103.21499724 130.16682364 106.30937216 130.14475693 109.40869141 130.10961914 C110.3221936 130.13262589 111.2356958 130.15563263 112.17687988 130.17933655 C114.82504292 130.11455199 116.79820679 129.95991263 119.26953125 128.99609375 C121.2155333 126.87877965 122.55060203 124.79314125 123.90697289 122.26138973 C127.02345859 117.08013459 132.62621347 113.8382994 138.26953125 111.99609375 C148.37034905 110.87087311 155.94548344 112.52224219 164.01953125 118.62109375 C169.7081466 123.925164 172.53329065 130.24875407 172.83203125 137.99609375 C172.43608016 146.5530368 169.51970335 154.02370707 163.26953125 159.99609375 C155.11072467 165.37681207 148.05387649 167.03364454 138.26953125 165.99609375 C131.05187697 163.81140066 125.25455381 159.43062559 121.26953125 152.99609375 C120.93953125 151.34609375 120.60953125 149.69609375 120.26953125 147.99609375 C86.93953125 147.99609375 53.60953125 147.99609375 19.26953125 147.99609375 C19.26953125 152.28609375 19.26953125 156.57609375 19.26953125 160.99609375 C21.16638672 160.93848877 23.06324219 160.88088379 25.01757812 160.8215332 C31.30755016 160.6436584 37.59692469 160.51755006 43.88872528 160.42615986 C47.70134272 160.36890784 51.51122362 160.29137491 55.32226562 160.16625977 C59.00540166 160.0461102 62.68591963 159.98084892 66.37086487 159.95244408 C67.77137994 159.93222488 69.17176225 159.89273194 70.57115173 159.83306313 C81.49124961 159.3862572 81.49124961 159.3862572 85.81262207 163.29829407 C87.87812019 166.10754035 89.60028091 168.93779438 91.26953125 171.99609375 C92.04543521 173.14738284 92.8343932 174.29020406 93.64648438 175.41625977 C95.69227446 178.46055278 97.73411455 181.50735334 99.76953125 184.55859375 C100.4965625 185.63689453 101.22359375 186.71519531 101.97265625 187.82617188 C103.00132812 189.3662793 103.00132812 189.3662793 104.05078125 190.9375 C104.67017578 191.86248291 105.28957031 192.78746582 105.92773438 193.74047852 C107.26953125 195.99609375 107.26953125 195.99609375 107.26953125 197.99609375 C109.24953125 197.99609375 111.22953125 197.99609375 113.26953125 197.99609375 C113.57890625 196.72765625 113.57890625 196.72765625 113.89453125 195.43359375 C117.070281 187.49421938 122.4476954 183.64842226 130.109375 180.09765625 C136.70252048 177.79942754 143.78803818 177.93798442 150.2265625 180.765625 C156.88660186 184.77692977 162.97820447 190.1227047 165.71875 197.5390625 C167.4236148 205.14445227 167.08159015 212.18884571 163.26953125 218.99609375 C162.71265625 220.00671875 162.15578125 221.01734375 161.58203125 222.05859375 C158.63154952 225.80650298 155.25696236 228.41049389 151.26953125 230.99609375 C150.686875 231.37507812 150.10421875 231.7540625 149.50390625 232.14453125 C143.57898156 234.40263192 134.74428568 233.87398178 128.6875 232.34375 C122.77780488 229.62785461 117.34746465 224.81556331 115.01953125 218.7265625 C114.15328125 217.37498047 114.15328125 217.37498047 113.26953125 215.99609375 C110.24784852 215.99018887 110.24784852 215.99018887 108.12866211 216.38500977 C104.12408753 216.96923912 100.92313989 216.85066106 97.26953125 214.99609375 C91.28535056 208.70938685 87.25346058 200.68932984 83.08935547 193.14111328 C80.81469187 189.21004051 78.23938314 185.56745084 75.53930664 181.91967773 C74.26953125 179.99609375 74.26953125 179.99609375 74.26953125 177.99609375 C56.11953125 177.99609375 37.96953125 177.99609375 19.26953125 177.99609375 C19.26953125 182.28609375 19.26953125 186.57609375 19.26953125 190.99609375 C20.19588379 190.89135742 21.12223633 190.78662109 22.07666016 190.67871094 C47.49732933 188.17686359 47.49732933 188.17686359 54.96484375 192.58837891 C59.40389692 196.95573388 62.11070665 202.38199269 64.78710938 207.94824219 C71.75213798 223.49135723 71.75213798 223.49135723 83.32763672 235.01513672 C86.82369723 235.81151143 90.05324349 235.63223395 93.59765625 235.28125 C99.17683002 234.84797374 102.86706658 236.70642919 107.26953125 239.99609375 C112.60801613 244.8372673 116.6768314 250.19522493 117.58203125 257.52734375 C117.97921747 266.36473706 115.58119315 273.45238075 110.08203125 280.37109375 C104.02986809 286.65212023 97.97682958 288.39626676 89.33203125 288.62109375 C82.03134355 288.5668954 76.73550624 286.91131461 71.26953125 281.99609375 C64.23992879 274.45177144 62.80504375 267.7924647 62.99609375 257.609375 C63.31988609 253.33069053 64.34515353 250.76118059 66.26953125 246.99609375 C65.85005714 243.89245443 64.6431085 241.75967108 62.8984375 239.1953125 C62.4127832 238.47206787 61.92712891 237.74882324 61.42675781 237.00366211 C60.34441714 235.42903207 59.25632023 233.8583462 58.16308594 232.29125977 C55.50854839 228.45739742 53.05824724 224.74816696 51.09375 220.51171875 C48.15847418 214.45535797 48.15847418 214.45535797 43.26953125 209.99609375 C35.47359948 207.94770788 27.24394346 208.42567664 19.26953125 208.99609375 C19.29309692 210.58309082 19.29309692 210.58309082 19.31713867 212.20214844 C19.37204634 216.18302591 19.40609908 220.16387098 19.43432617 224.14501953 C19.44927585 225.85764217 19.46964311 227.57022746 19.49584961 229.28271484 C19.77357515 247.91755385 17.05690514 263.76472491 3.61328125 277.74609375 C-8.38391456 289.26340173 -23.12527176 294.94935884 -39.79296875 295.37109375 C-56.31067057 294.91480364 -70.51110533 288.22306658 -82.2109375 276.78515625 C-84.50046507 274.25070248 -85.96560325 271.99455324 -87.54296875 268.99609375 C-89.44600866 265.83738235 -90.33533535 265.11670834 -93.9296875 264.01953125 C-95.85284542 263.69142825 -97.77655185 263.36436571 -99.70703125 263.08251953 C-113.77366173 260.94030607 -125.22357387 252.38619712 -133.54296875 241.12109375 C-141.27810381 229.36368846 -146.24205891 215.84850419 -145.4621582 201.69116211 C-144.96294073 191.12762902 -147.50803793 185.06540441 -152.73046875 175.99609375 C-160.45148713 157.99930826 -160.4276417 134.29340976 -153.73046875 115.99609375 C-149.06519751 104.33830281 -143.10882983 93.41779743 -132.35546875 86.49609375 C-128.94107703 83.93400072 -127.49968692 82.10211557 -126.828125 77.953125 C-126.49341169 74.82186012 -126.31905738 71.68578928 -126.12890625 68.54296875 C-125.18466498 54.47905217 -116.38426656 41.78477318 -106.484375 32.29296875 C-98.8299405 25.90884465 -89.93904638 20.50997101 -79.73046875 20.99609375 C-79.62476563 20.44308594 -79.5190625 19.89007813 -79.41015625 19.3203125 C-76.20931396 8.3749035 -67.10350494 0.7889863 -57.671875 -4.82421875 C-38.72655222 -14.81576477 -17.32054446 -12.71164422 0 0 Z " fill="#FAFBFB" transform="translate(242.73046875,108.00390625)"/>
<path d="M0 0 C1.03125 0.5775 2.0625 1.155 3.125 1.75 C9.45547969 6.70428846 15.26502486 12.96653936 17 21 C17.44516573 27.32820211 17.23193946 33.66676429 17 40 C8.49638112 39.39350289 3.03149059 37.40336813 -2.86328125 30.96484375 C-5.41103392 27.71174667 -7.19850758 25.09854077 -8 21 C-8.97582031 21.3609375 -9.95164062 21.721875 -10.95703125 22.09375 C-12.24209569 22.56275162 -13.52725704 23.03148779 -14.8125 23.5 C-15.45509766 23.73847656 -16.09769531 23.97695312 -16.75976562 24.22265625 C-19.64933739 25.27068746 -21.90076061 26 -25 26 C-18.88869968 39.43142928 -11.82005824 48.92395066 2.421875 54.2890625 C7.25976848 55.81048149 12.02410543 57.00482109 17 58 C17 71.53 17 85.06 17 99 C13.37 98.01 9.74 97.02 6 96 C-4.33855931 94.83290017 -12.80344 95.95409982 -22 101 C-22.72960937 101.37640625 -23.45921875 101.7528125 -24.2109375 102.140625 C-30.54608667 105.86164198 -35.44883696 111.28516388 -40.42114258 116.61865234 C-45.38180834 121.81654723 -50.10679125 125.55353111 -57.40625 126.390625 C-58.4271875 126.34421875 -59.448125 126.2978125 -60.5 126.25 C-61.5415625 126.21390625 -62.583125 126.1778125 -63.65625 126.140625 C-64.4296875 126.09421875 -65.203125 126.0478125 -66 126 C-66.38671875 125.19175781 -66.7734375 124.38351563 -67.171875 123.55078125 C-67.95304687 121.94783203 -67.95304687 121.94783203 -68.75 120.3125 C-69.26046875 119.25675781 -69.7709375 118.20101562 -70.296875 117.11328125 C-74.32013393 109.75883774 -79.41047712 105.87327464 -87.0625 102.75 C-90.32142617 101.91793374 -93.67033405 101.47566656 -97 101 C-96.505 109.415 -96.505 109.415 -96 118 C-93.69 118.66 -91.38 119.32 -89 120 C-85.94304765 122.66670311 -84.36201 124.2248808 -83.5546875 128.18359375 C-83.28247832 133.56426193 -84.43125818 136.81947387 -88 141 C-91 143 -91 143 -96 144 C-96.33 149.61 -96.66 155.22 -97 161 C-87.61771811 159.43628635 -80.38097239 157.41572467 -74 150 C-73.57847656 149.071875 -73.57847656 149.071875 -73.1484375 148.125 C-71.97386358 145.75675339 -71.18590878 144.52882197 -69 143 C-66.40662014 142.79549347 -64.078794 142.75151353 -61.5 142.875 C-50.04015769 143.42370003 -41.27595481 139.83389044 -32.51953125 132.37890625 C-30.14516241 130.13706032 -27.89321745 127.82166121 -25.64233398 125.45825195 C-18.6656682 118.17849691 -11.29572458 111.97362341 -0.75 111.3125 C5.96235662 111.78656692 10.00323827 114.97422323 14.58740234 119.625 C18.68402437 125.48469548 17.61052879 132.93739053 17.48828125 139.77734375 C17.47894453 141.3143244 17.47183248 142.85132002 17.46684265 144.38832092 C17.44783994 148.41478254 17.39879936 152.44032845 17.34332275 156.46643066 C17.29198352 160.58231217 17.26929748 164.69834305 17.24414062 168.81445312 C17.19067218 176.87672021 17.10544335 184.93824588 17 193 C15.76880684 193.19202248 15.76880684 193.19202248 14.51274109 193.38792419 C13.43434464 193.56082474 12.35594818 193.73372528 11.24487305 193.91186523 C10.17657761 194.08113022 9.10828217 194.2503952 8.00761414 194.42478943 C-2.2827917 196.39284449 -11.7373598 202.69519451 -18 211 C-20.63092717 215.18090236 -22.86057874 219.54917827 -25 224 C-19.34428139 225.70695733 -13.68507992 227.39334698 -8 229 C-7.773125 228.13375 -7.54625 227.2675 -7.3125 226.375 C-4.56365052 219.30652992 -0.00774758 216.05550009 6.20703125 212.1015625 C9.98782572 210.61039601 12.95145714 210.81929989 17 211 C17.08802152 214.9790243 17.14073233 218.95779388 17.1875 222.9375 C17.21263672 224.05447266 17.23777344 225.17144531 17.26367188 226.32226562 C17.36942919 238.34334674 14.53346086 246.24173189 6.18359375 254.87890625 C-3.71923772 264.14155468 -13.80748679 266.42977787 -26.984375 266.2109375 C-38.37909866 265.78004459 -47.63682939 260.18157078 -55.4296875 252.0625 C-62.55387573 242.70535724 -63.84089001 232.40147925 -63 221 C-60.92166474 210.97343663 -53.65672304 203.34791652 -45.5 197.5625 C-35.19044529 191.34152084 -25.73961215 191.65806955 -14 192 C-14.10441406 190.19015625 -14.10441406 190.19015625 -14.2109375 188.34375 C-14.80347408 173.78558196 -14.80347408 173.78558196 -11.375 169.125 C-7.78078299 165.39483152 -3.94249319 162.64749773 1 161 C1.33 155.39 1.66 149.78 2 144 C-5.79861644 145.09839668 -10.79819693 147.19043843 -17 152 C-17.83660156 152.61617187 -18.67320312 153.23234375 -19.53515625 153.8671875 C-22.16169388 156.13991261 -23.78669907 158.31207613 -25.625 161.25 C-26.23730469 162.21679688 -26.84960938 163.18359375 -27.48046875 164.1796875 C-28.85574374 166.73225445 -29.4105398 168.57519127 -29.9375 171.375 C-30.5546875 173.296875 -30.5546875 173.296875 -32 175 C-35.90834868 176.60666528 -39.83265437 177.69813828 -43.90625 178.79296875 C-50.93107304 180.73123988 -56.47792072 184.49706996 -61.75 189.4375 C-64.12222474 191.53324167 -64.66211277 191.97124364 -67.9375 192.25 C-72.7295777 190.29404992 -77.41507437 187.50277814 -80.234375 183.05078125 C-81 181 -81 181 -81 177 C-86.94 177 -92.88 177 -99 177 C-96.47898715 189.32495171 -92.07437274 196.44422044 -82 204 C-80.0231369 205.18109194 -78.12467849 206.09701164 -76 207 C-76.19335938 207.6084375 -76.38671875 208.216875 -76.5859375 208.84375 C-79.05214754 217.1458432 -80.08491059 225.41969108 -81 234 C-90.51555302 233.07876386 -97.3961121 227.64712492 -103.3984375 220.37890625 C-110.0041319 210.56703335 -112.17519969 201.54592967 -112.125 190 C-112.13080078 188.66582031 -112.13080078 188.66582031 -112.13671875 187.3046875 C-112.12662384 180.54109605 -112.12662384 180.54109605 -111.328125 177.12890625 C-110.77873851 174.94334523 -110.77873851 174.94334523 -112.0390625 172.96484375 C-112.56242187 172.29582031 -113.08578125 171.62679687 -113.625 170.9375 C-124.57633073 155.63110519 -126.50719606 135.81559536 -123.61328125 117.56054688 C-120.70184317 104.80844806 -113.55072143 93.67817912 -103 86 C-96.38243626 82 -96.38243626 82 -93 82 C-93.33 81.01 -93.66 80.02 -94 79 C-94.96362742 64.62457462 -93.50508821 51.50615942 -84 40 C-80.17569121 35.7248886 -76.29238809 31.41937741 -71 29 C-70.01 29 -69.02 29 -68 29 C-67.85304688 30.57587891 -67.85304688 30.57587891 -67.703125 32.18359375 C-66.64884468 42.58541438 -66.64884468 42.58541438 -62.70703125 52.203125 C-62 54 -62 54 -62.15625 56.0625 C-63.23452207 58.53853216 -64.43296348 59.28991921 -66.6875 60.75 C-73.26582967 65.43028115 -77.33765549 71.43333666 -80 79 C-80.33 80.98 -80.66 82.96 -81 85 C-75.06 85 -69.12 85 -63 85 C-62.67 83.02 -62.34 81.04 -62 79 C-58.92167589 74.99817866 -55.22785072 72.43851811 -50.5 70.75 C-45.65226304 71.09626693 -42.91722817 73.29656084 -39 76 C-32.11236373 79.79522815 -24.71681479 80.11222485 -17 81 C-17 75.39 -17 69.78 -17 64 C-19.31 64 -21.62 64 -24 64 C-33.5383001 61.88530711 -40.42912296 55.39492559 -46.4375 48 C-51.19740525 38.86098191 -52.83206495 29.39820368 -49.875 19.3125 C-45.97160448 9.31908461 -39.19372606 1.69293842 -29.4375 -2.9375 C-19.99520043 -5.97117054 -8.40254219 -5.21537102 0 0 Z " fill="#022D4A" transform="translate(227,119)"/>
<path d="M0 0 C3.4375 2 3.4375 2 6 5 C6.74640732 7.82609184 6.68717509 10.16540277 6 13 C4.20636089 15.8100346 2.98119065 17.50940468 0 19 C-3.3125 19.375 -3.3125 19.375 -7 19 C-10.60521591 16.02177816 -12.79128467 13.87843794 -13.3125 9.1875 C-12.92835642 5.2692355 -11.70743683 3.78706733 -9 1 C-5.85088521 -0.57455739 -3.47991184 -0.34799118 0 0 Z " fill="#052F4C" transform="translate(336,360)"/>
<path d="M0 0 C3.4375 2 3.4375 2 6 5 C6.74640732 7.82609184 6.68717509 10.16540277 6 13 C4.20636089 15.8100346 2.98119065 17.50940468 0 19 C-3.3125 19.375 -3.3125 19.375 -7 19 C-10.60521591 16.02177816 -12.79128467 13.87843794 -13.3125 9.1875 C-12.92835642 5.2692355 -11.70743683 3.78706733 -9 1 C-5.85088521 -0.57455739 -3.47991184 -0.34799118 0 0 Z " fill="#052F4B" transform="translate(385,170)"/>
<path d="M0 0 C3.4375 2 3.4375 2 6 5 C6.74640732 7.82609184 6.68717509 10.16540277 6 13 C4.20636089 15.8100346 2.98119065 17.50940468 0 19 C-3.3125 19.375 -3.3125 19.375 -7 19 C-10.60521591 16.02177816 -12.79128467 13.87843794 -13.3125 9.1875 C-12.92835642 5.2692355 -11.70743683 3.78706733 -9 1 C-5.85088521 -0.57455739 -3.47991184 -0.34799118 0 0 Z " fill="#07314D" transform="translate(385,305)"/>
<path d="M0 0 C2.9375 1.5 2.9375 1.5 5 4 C5.72416916 7.14984145 5.67935457 9.84465065 5 13 C3.0625 16.0625 3.0625 16.0625 0 18 C-4.30197718 18.85733353 -7.70647163 18.77611702 -11.5 16.5 C-13.56991208 13.05014653 -14.48031004 10.03615374 -14 6 C-10.49012873 -0.42555173 -6.90485357 -1.52140841 0 0 Z " fill="#042E4B" transform="translate(392,238)"/>
<path d="M0 0 C4.89165814 0.4811467 6.63332387 1.6530377 9.8125 5.375 C10.55890732 8.20109184 10.49967509 10.54040277 9.8125 13.375 C8.01886089 16.1850346 6.79369065 17.88440468 3.8125 19.375 C0.5 19.75 0.5 19.75 -3.1875 19.375 C-6.7961524 16.39393932 -8.93967316 14.23370127 -9.5625 9.5625 C-9.06704982 5.3511735 -7.34397263 4.06954981 -4.1875 1.375 C-3.1875 0.375 -3.1875 0.375 0 0 Z " fill="#052F4B" transform="translate(332.1875,126.625)"/>
<path d="M0 0 C0.33 0.66 0.66 1.32 1 2 C-0.6396875 2.4021875 -0.6396875 2.4021875 -2.3125 2.8125 C-6.4028906 4.00905129 -6.4028906 4.00905129 -9 7 C-9.7269226 10.10839021 -9.7269226 10.10839021 -10 13 C-10.66 12.67 -11.32 12.34 -12 12 C-11.76404051 5.98303301 -11.76404051 5.98303301 -9.7734375 3.421875 C-6.5828951 0.57492947 -4.25504796 -0.62574235 0 0 Z " fill="#23455F" transform="translate(390,237)"/>
<path d="M0 0 C0.66 0 1.32 0 2 0 C0.125 3.875 0.125 3.875 -1 5 C-1.36760731 7.32817964 -1.70241581 9.6618385 -2 12 C-2.66 11.67 -3.32 11.34 -4 11 C-4.35858439 7.14521782 -4.2754818 5.42240542 -2.125 2.125 C-1.42375 1.42375 -0.7225 0.7225 0 0 Z " fill="#23465F" transform="translate(327,361)"/>
<path d="M0 0 C0.66 0 1.32 0 2 0 C0.125 3.875 0.125 3.875 -1 5 C-1.36760731 7.32817964 -1.70241581 9.6618385 -2 12 C-2.66 11.67 -3.32 11.34 -4 11 C-4.35858439 7.14521782 -4.2754818 5.42240542 -2.125 2.125 C-1.42375 1.42375 -0.7225 0.7225 0 0 Z " fill="#264861" transform="translate(376,171)"/>
<path d="M0 0 C0 0.99 0 1.98 0 3 C-0.66 3.66 -1.32 4.32 -2 5 C-2.40047444 7.32275177 -2.7397104 9.65739357 -3 12 C-3.66 11.67 -4.32 11.34 -5 11 C-5.3125 8.3125 -5.3125 8.3125 -5 5 C-2.5 2.125 -2.5 2.125 0 0 Z " fill="#1E415B" transform="translate(328,128)"/>
</svg>
