<?xml version="1.0" encoding="UTF-8"?>
<svg id="Capa_2" data-name="Capa 2" xmlns="http://www.w3.org/2000/svg" viewBox="0 0 938.34 813.55">
  <defs>
    <style>
      .cls-1 {
        fill: #006efa;
      }
    </style>
  </defs>
  <g id="Capa_1-2" data-name="Capa 1">
    <g>
      <g>
        <path class="cls-1" d="M718.9,586.66c-12.16-6.35-25.82-10.2-39.48-10.2-27.32,0-53.14,12.7-69.85,32.96-33.37,43.11-91.07,72.28-156.42,72.28s-127.54-29.16-160.92-72.28c-16.71-20.26-41.04-32.96-68.35-32.96-15.16,0-27.32,3.85-40.98,10.2-37.98,21.51-50.14,62.12-25.82,92.54,63.75,81.18,170.08,134.36,296.07,134.36s229.27-53.18,291.57-134.36c24.32-30.46,12.16-71.02-25.82-92.54Z"/>
        <path class="cls-1" d="M717.78,8.48c-124.35,0-223.44,99.09-223.44,222.48s99.12,223.47,223.44,223.47,220.56-99.12,220.56-223.47S839.25,8.48,717.78,8.48ZM717.78,352.39c-68,0-121.44-54.4-121.44-121.44s53.47-121.47,121.44-121.47,119.52,55.39,119.52,121.47-54.4,121.44-119.52,121.44Z"/>
      </g>
      <g>
        <path class="cls-1" d="M30.92,345.11l231.61-149.04c31.28-20.13,72.96-11.09,93.09,20.19h0c20.13,31.28,11.09,72.96-20.19,93.09l-231.61,149.04c-31.28,20.13-72.96,11.09-93.09-20.19h0c-20.13-31.28-11.09-72.96,20.19-93.09Z"/>
        <circle class="cls-1" cx="298.97" cy="252.72" r="67.36" transform="translate(-19.92 25.65) rotate(-4.76)"/>
        <path id="SVGID" class="cls-1" d="M30.92,345.11l231.61-149.04c31.28-20.13,72.96-11.09,93.09,20.19h0c20.13,31.28,11.09,72.96-20.19,93.09l-231.61,149.04c-31.28,20.13-72.96,11.09-93.09-20.19h0c-20.13-31.28-11.09-72.96,20.19-93.09Z"/>
        <path class="cls-1" d="M124.21,15.78l210.9,177.14c28.49,23.93,32.18,66.41,8.26,94.9h0c-23.93,28.49-66.41,32.18-94.9,8.26L37.56,118.94C9.08,95.01,5.38,52.52,29.31,24.04h0C53.23-4.45,95.72-8.14,124.21,15.78Z"/>
      </g>
    </g>
  </g>
</svg>