<?xml version="1.0" encoding="UTF-8"?>
<svg width="240px" height="240px" viewBox="0 0 240 240" version="1.1" xmlns="http://www.w3.org/2000/svg" xmlns:xlink="http://www.w3.org/1999/xlink">
    <title>deepseek</title>
    <defs>
        <linearGradient x1="50%" y1="0%" x2="50%" y2="100%" id="linearGradient-1">
            <stop stop-color="#EDC185" offset="0%"></stop>
            <stop stop-color="#96673D" offset="100%"></stop>
        </linearGradient>
        <path d="M169.501897,33.645424 C170.228995,41.2442166 175.973936,48.4695735 184.497569,52.2513291 C190.179992,54.7724994 194.229512,59.6406544 196.64613,66.8557941 C203.235889,61.1808342 208.762622,58.2148426 213.22633,57.9578194 C219.921891,57.5722846 225.962374,57.6226227 230.044564,52.2513291 C234.126754,46.8800355 237.885894,46.8829315 239.512208,50.4133654 C241.138522,53.9437993 238.874695,66.1127081 230.044564,79.4994275 C224.15781,88.4239071 214.398159,93.2827125 200.76561,94.0758437 C200.188351,111.523487 197.423419,125.701464 192.470814,136.609777 C189.511887,145.177498 172.219649,174.040191 145.378658,192.360519 C136.060018,199.555215 124.966649,204.563229 112.867318,206.615405 C107.976716,207.608381 102.915016,208.12836 97.6979248,208.076123 C34.874723,208.024275 2.56764103,157.142468 1.30700217,129.435777 C0.449654637,124.996114 0,120.418796 0,115.747981 C0,75.8181986 32.3694842,43.4487144 72.2992666,43.4487144 C79.040366,43.4487144 85.5659855,44.3712929 91.7567502,46.0970749 C99.1038657,41.5512624 108.808751,38.9881287 120.870114,38.40789 C130.452873,37.8467305 130.389286,40.0944957 129.785657,41.0950408 L129.737046,41.1713661 C129.555909,41.4411825 129.3496,41.5975437 129.339005,41.542062 C123.050986,41.9541488 120.534798,49.9872542 120.870114,55.2285647 C121.036769,57.833524 126.678113,63.1007181 132.880675,68.109997 C143.93839,73.5450075 153.430878,81.6771379 160.501151,91.6478371 C170.18739,100.392487 174.460659,101.627777 174.405332,101.533624 C176.174681,100.232304 178.182665,96.7995812 180.429285,91.235457 C167.726676,79.4366197 161.195517,69.9720948 160.835807,62.8418824 C156.230106,39.883964 167.620396,30.3096303 169.501897,33.645424 Z M18.5341477,100.507686 C16.9770512,103.264447 17.1125985,137.491762 42.9775548,162.99446 C60.7174066,181.90993 77.894049,184.831491 82.1838599,182.013751 C85.1799184,180.045806 83.8370907,176.639174 82.102639,173.333267 L81.8640661,172.883231 C81.824023,172.808377 81.7838702,172.733611 81.7436542,172.658952 L81.5019695,172.212415 C80.9379969,171.174145 80.3797878,170.163782 79.9544937,169.230915 C79.9345581,169.187187 79.9146789,169.143293 79.8948689,169.099243 L79.7769426,168.833168 C79.7574609,168.788541 79.738074,168.74378 79.7187947,168.698898 L79.6045135,168.428229 L79.4946313,168.158174 L79.3884714,167.88629 C77.8790139,163.933207 77.7309369,159.56582 87.0976423,161.85483 C88.3007561,162.553538 89.7997335,163.502873 91.6013489,164.698841 L92.2131055,165.106626 C96.0558995,167.678271 101.18132,171.290712 107.648251,175.909219 L109.41903,177.174962 C111.534758,178.688476 113.784471,180.301769 116.170016,182.013751 C137.06864,191.493255 146.425948,187.326355 145.804602,187.021745 C137.179773,185.091788 126.618709,170.980682 115.498793,155.297255 L114.756653,154.24948 C114.63283,154.074501 114.508941,153.899358 114.38499,153.724064 L113.640535,152.670611 L112.894652,151.614245 C112.770224,151.43798 112.64574,151.261623 112.521203,151.085188 L111.773346,150.025764 L110.967859,148.885316 C110.296073,147.934623 109.622955,146.983429 108.948801,146.033998 L107.8243,144.453631 C102.94774,137.615802 98.0255938,130.935399 93.1684736,125.26437 C76.7152202,109.335713 51.4485398,97.1928134 36.8498668,96.1537512 C22.2511937,95.114689 20.0912442,97.7509251 18.5341477,100.507686 Z M126.162135,107.185349 C126.284587,109.010244 127.546739,110.476288 132.790073,110.604664 C138.033407,110.733039 139.354486,117.448738 139.453644,124.793456 C139.552801,132.138174 146.590835,136.774599 153.996943,136.018107 C160.004525,135.404466 160.427835,134.013441 160.520692,132.606951 L160.530239,132.444639 L160.542983,132.201482 C160.54448,132.174512 160.546043,132.147564 160.547707,132.120642 L160.55945,131.956659 C160.568544,131.847619 160.580586,131.739206 160.598098,131.631784 C160.8739,129.9399 156.388289,124.365139 153.996943,118.714388 C151.605597,113.063637 139.98339,102.550418 133.473995,102.136922 C126.9646,101.723426 126.039683,105.360455 126.162135,107.185349 Z M128.668186,114.52257 C126.637858,114.52257 124.991952,116.168476 124.991952,118.198804 C124.991952,120.229132 126.637858,121.875038 128.668186,121.875038 C130.698514,121.875038 132.34442,120.229132 132.34442,118.198804 C132.34442,116.168476 130.698514,114.52257 128.668186,114.52257 Z" id="path-2"></path>
    </defs>
    <g id="首页问答交互修改" stroke="none" stroke-width="1" fill="none" fill-rule="evenodd">
        <g id="形状结合">
            <use fill="#F4CD69" xlink:href="#path-2"></use>
            <use fill="url(#linearGradient-1)" xlink:href="#path-2"></use>
        </g>
    </g>
</svg>