<svg xmlns="http://www.w3.org/2000/svg" xmlns:xlink="http://www.w3.org/1999/xlink" width="100" zoomAndPan="magnify" viewBox="0 0 75 74.999997" height="100" preserveAspectRatio="xMidYMid meet" version="1.0"><defs><clipPath id="e66d0a82ad"><path d="M 13.410156 9.53125 L 61.410156 9.53125 L 61.410156 65.78125 L 13.410156 65.78125 Z M 13.410156 9.53125 " clip-rule="nonzero"/></clipPath></defs><g clip-path="url(#e66d0a82ad)"><path fill="#0d161b" d="M 14.113281 65.238281 C 13.476562 64.890625 13.40625 64.476562 13.453125 61.304688 L 13.496094 58.386719 L 13.890625 58.046875 C 14.246094 57.738281 14.414062 57.707031 15.617188 57.707031 L 16.945312 57.707031 L 16.945312 55.207031 C 16.945312 52.980469 16.976562 52.664062 17.21875 52.285156 C 17.367188 52.054688 18.695312 50.597656 20.167969 49.046875 L 22.847656 46.234375 L 22.855469 26.242188 L 19.542969 23.722656 C 17.71875 22.335938 16.167969 21.089844 16.09375 20.949219 C 16.015625 20.804688 15.960938 18.628906 15.960938 15.757812 C 15.960938 10.347656 15.984375 10.179688 16.769531 9.855469 C 17.058594 9.734375 18.402344 9.699219 21.488281 9.730469 C 26.835938 9.78125 26.425781 9.582031 26.496094 12.167969 L 26.542969 13.921875 L 31.304688 13.921875 L 31.304688 12.441406 C 31.304688 10.71875 31.492188 10.113281 32.101562 9.859375 C 32.40625 9.734375 33.898438 9.699219 37.746094 9.730469 C 44.15625 9.78125 43.601562 9.550781 43.671875 12.167969 L 43.714844 13.921875 L 48.480469 13.921875 L 48.480469 12.367188 C 48.480469 10.621094 48.640625 10.125 49.292969 9.855469 C 49.578125 9.734375 50.921875 9.699219 54.011719 9.730469 C 58.289062 9.769531 58.332031 9.773438 58.648438 10.089844 C 58.96875 10.410156 58.96875 10.414062 59.007812 15.5625 C 59.042969 19.820312 59.015625 20.765625 58.851562 21.015625 C 58.742188 21.179688 57.1875 22.421875 55.398438 23.777344 L 52.144531 26.242188 L 52.140625 36.238281 L 52.140625 46.234375 L 54.972656 49.257812 C 56.53125 50.921875 57.859375 52.429688 57.929688 52.609375 C 57.996094 52.789062 58.054688 54.003906 58.054688 55.308594 L 58.054688 57.679688 L 59.457031 57.730469 C 61.585938 57.800781 61.503906 57.644531 61.503906 61.578125 C 61.503906 64.679688 61.496094 64.742188 61.183594 65.058594 L 60.863281 65.378906 L 37.671875 65.410156 C 17.828125 65.433594 14.429688 65.410156 14.113281 65.238281 Z M 14.113281 65.238281 " fill-opacity="1" fill-rule="nonzero"/></g><path fill="#009959" d="M 56.503906 15.683594 L 56.503906 12.234375 L 51.035156 12.234375 L 50.988281 13.988281 C 50.921875 16.5625 51.273438 16.375 46.339844 16.429688 C 43.515625 16.457031 42.257812 16.421875 41.972656 16.304688 C 41.320312 16.03125 41.160156 15.539062 41.160156 13.789062 L 41.160156 12.234375 L 33.839844 12.234375 L 33.839844 13.914062 C 33.839844 15.488281 33.816406 15.621094 33.5 15.992188 L 33.160156 16.386719 L 29.179688 16.429688 C 26.34375 16.457031 25.082031 16.421875 24.796875 16.304688 C 24.144531 16.03125 23.984375 15.539062 23.984375 13.789062 L 23.984375 12.234375 L 18.492188 12.234375 L 18.492188 19.132812 L 56.503906 19.132812 Z M 56.503906 15.683594 " fill-opacity="1" fill-rule="nonzero"/><path fill="#009959" d="M 52.320312 23.039062 L 54.027344 21.734375 L 45.765625 21.699219 C 41.21875 21.679688 33.785156 21.679688 29.242188 21.699219 L 20.988281 21.734375 L 22.660156 23.03125 L 24.335938 24.328125 L 37.472656 24.332031 L 50.613281 24.339844 Z M 52.320312 23.039062 " fill-opacity="1" fill-rule="nonzero"/><path fill="#009959" d="M 49.605469 36.167969 L 49.605469 26.875 L 25.390625 26.875 L 25.390625 45.457031 L 49.605469 45.457031 Z M 49.605469 36.167969 " fill-opacity="1" fill-rule="nonzero"/><path fill="#009959" d="M 53.59375 51.46875 C 53.453125 51.289062 52.671875 50.433594 51.859375 49.566406 L 50.382812 47.992188 L 24.597656 47.992188 L 22.800781 49.894531 L 21.003906 51.792969 L 53.851562 51.792969 Z M 53.59375 51.46875 " fill-opacity="1" fill-rule="nonzero"/><path fill="#009959" d="M 55.519531 56.015625 L 55.519531 54.328125 L 19.476562 54.328125 L 19.476562 57.707031 L 55.519531 57.707031 Z M 55.519531 56.015625 " fill-opacity="1" fill-rule="nonzero"/><path fill="#009959" d="M 59.039062 61.578125 L 59.039062 60.242188 L 15.957031 60.242188 L 15.957031 62.914062 L 59.039062 62.914062 Z M 59.039062 61.578125 " fill-opacity="1" fill-rule="nonzero"/></svg>