<svg xmlns="http://www.w3.org/2000/svg" viewBox="0 0 24 24" width="24" height="24"><path d="M12 2c5.523 0 10 4.477 10 10s-4.477 10-10 10S2 17.523 2 12 6.477 2 12 2Zm1.97 11h-3.94c.151 2.439.848 4.73 1.97 6.752A15.905 15.905 0 0 0 13.97 13Zm-5.943 0H4.062a8.008 8.008 0 0 0 5.648 6.667A17.9 17.9 0 0 1 8.027 13Zm11.911 0h-3.965a17.9 17.9 0 0 1-1.683 6.667A8.008 8.008 0 0 0 19.938 13ZM12 4.248A15.905 15.905 0 0 0 10.03 11h3.939A15.905 15.905 0 0 0 12 4.248Zm-2.29.085A8.008 8.008 0 0 0 4.062 11h3.965A17.9 17.9 0 0 1 9.71 4.333Zm4.58 0A17.9 17.9 0 0 1 15.973 11h3.965a8.008 8.008 0 0 0-5.648-6.667Z"/></svg>