<svg xmlns="http://www.w3.org/2000/svg" viewBox="0 0 24 24" width="24" height="24"><path d="M7.527 13a17.9 17.9 0 0 0 2.925 8.88A10.005 10.005 0 0 1 2.05 13h5.477Zm14.423 0a10.005 10.005 0 0 1-8.402 8.88A17.9 17.9 0 0 0 16.473 13h5.477Zm-7.48 0A15.908 15.908 0 0 1 12 20.592 15.908 15.908 0 0 1 9.53 13h4.94ZM10.452 2.12A17.9 17.9 0 0 0 7.527 11H2.05a10.005 10.005 0 0 1 8.402-8.88ZM12 3.408A15.908 15.908 0 0 1 14.47 11H9.53A15.908 15.908 0 0 1 12 3.408Zm1.548-1.288A10.005 10.005 0 0 1 21.95 11h-5.477a17.9 17.9 0 0 0-2.925-8.88Z"/></svg>