<svg xmlns="http://www.w3.org/2000/svg" viewBox="0 0 100 100" width="100" height="100">
  <!-- Background circle -->
  <circle cx="50" cy="50" r="48" fill="#f8fafc" stroke="#e2e8f0" stroke-width="2"/>
  
  <!-- Robot head -->
  <rect x="25" y="25" width="50" height="45" rx="12" fill="#3b82f6" stroke="#1d4ed8" stroke-width="1"/>
  
  <!-- Robot eyes -->
  <circle cx="38" cy="40" r="5" fill="#ffffff"/>
  <circle cx="62" cy="40" r="5" fill="#ffffff"/>
  <circle cx="38" cy="40" r="2.5" fill="#1d4ed8"/>
  <circle cx="62" cy="40" r="2.5" fill="#1d4ed8"/>
  
  <!-- Robot antenna -->
  <line x1="42" y1="25" x2="42" y2="18" stroke="#6366f1" stroke-width="2" stroke-linecap="round"/>
  <line x1="58" y1="25" x2="58" y2="18" stroke="#6366f1" stroke-width="2" stroke-linecap="round"/>
  <circle cx="42" cy="16" r="2" fill="#8b5cf6"/>
  <circle cx="58" cy="16" r="2" fill="#8b5cf6"/>
  
  <!-- Robot mouth -->
  <rect x="40" y="55" width="20" height="8" rx="4" fill="#1d4ed8"/>
  <rect x="42" y="57" width="4" height="4" rx="1" fill="#ffffff"/>
  <rect x="46" y="57" width="4" height="4" rx="1" fill="#ffffff"/>
  <rect x="50" y="57" width="4" height="4" rx="1" fill="#ffffff"/>
  <rect x="54" y="57" width="4" height="4" rx="1" fill="#ffffff"/>
  
  <!-- Robot body -->
  <rect x="35" y="70" width="30" height="20" rx="8" fill="#6366f1" stroke="#3b82f6" stroke-width="1"/>
  
  <!-- Robot arms -->
  <circle cx="20" cy="80" r="8" fill="#8b5cf6"/>
  <circle cx="80" cy="80" r="8" fill="#8b5cf6"/>
  <circle cx="20" cy="80" r="4" fill="#ffffff"/>
  <circle cx="80" cy="80" r="4" fill="#ffffff"/>
  
  <!-- Tech details -->
  <circle cx="30" cy="75" r="1.5" fill="#a855f7"/>
  <circle cx="70" cy="75" r="1.5" fill="#a855f7"/>
  <rect x="45" y="82" width="10" height="2" rx="1" fill="#3b82f6"/>
</svg>