<?xml version="1.0" standalone="no"?>
<!DOCTYPE svg PUBLIC "-//W3C//DTD SVG 20010904//EN"
 "http://www.w3.org/TR/2001/REC-SVG-20010904/DTD/svg10.dtd">
<svg version="1.0" xmlns="http://www.w3.org/2000/svg"
 width="256.000000pt" height="256.000000pt" viewBox="0 0 256.000000 256.000000"
 preserveAspectRatio="xMidYMid meet">

<g transform="translate(0.000000,256.000000) scale(0.100000,-0.100000)"
fill="#000000" stroke="none">
<path d="M940 1860 c-132 -17 -130 -16 -157 -78 l-24 -57 -94 0 c-51 0 -97 -3
-101 -7 -6 -7 12 -64 25 -80 4 -4 33 0 66 9 81 21 219 22 267 1 20 -9 79 -47
130 -84 166 -119 245 -142 336 -95 52 26 75 69 75 137 0 67 -27 112 -100 164
-65 46 -149 76 -253 90 -83 10 -91 10 -170 0z"/>
<path d="M1590 1590 c0 -21 4 -30 13 -27 6 2 12 14 12 27 0 13 -6 25 -12 28
-9 2 -13 -7 -13 -28z"/>
<path d="M1614 1508 c-11 -13 -39 -48 -61 -78 -72 -96 -138 -133 -233 -134
-60 0 -73 4 -171 57 -58 31 -109 57 -112 57 -4 0 -7 -42 -7 -93 l0 -94 73 -16
c153 -33 243 -41 330 -28 146 23 238 70 288 148 34 55 36 85 10 146 -27 62
-79 78 -117 35z"/>
<path d="M1890 1350 c0 -72 2 -80 19 -80 27 0 61 46 61 82 0 18 -10 38 -26 53
-46 43 -54 34 -54 -55z"/>
<path d="M581 1047 c-78 -27 -103 -128 -47 -186 16 -17 44 -34 62 -37 41 -8
104 12 104 33 0 11 -5 13 -17 8 -34 -15 -85 -17 -108 -5 -26 14 -45 50 -45 86
0 39 51 84 94 84 19 0 38 -4 41 -10 8 -13 35 -13 35 0 0 25 -74 42 -119 27z"/>
<path d="M760 940 l0 -110 80 0 c47 0 80 4 80 10 0 6 -28 10 -65 10 l-65 0 0
40 0 40 55 0 c30 0 55 5 55 10 0 6 -25 10 -55 10 l-55 0 0 40 0 40 65 0 c37 0
65 4 65 10 0 6 -33 10 -80 10 l-80 0 0 -110z"/>
<path d="M980 940 c0 -91 3 -110 15 -110 10 0 15 11 15 35 0 33 2 35 35 35 29
0 39 -6 57 -35 13 -19 29 -35 36 -35 17 0 15 11 -7 40 -19 24 -19 24 5 53 31
36 31 71 -1 102 -21 22 -33 25 -90 25 l-65 0 0 -110z m128 74 c12 -8 22 -26
22 -39 0 -36 -26 -55 -76 -55 l-44 0 0 55 0 55 38 0 c21 0 48 -7 60 -16z"/>
<path d="M1220 940 l0 -110 80 0 c47 0 80 4 80 10 0 6 -28 10 -65 10 l-65 0 0
40 0 40 55 0 c30 0 55 5 55 10 0 6 -25 10 -55 10 l-55 0 0 40 0 40 60 0 c33 0
60 4 60 10 0 6 -32 10 -75 10 l-75 0 0 -110z"/>
<path d="M1440 940 l0 -110 78 0 c64 0 82 4 95 18 23 25 21 57 -3 80 -18 17
-19 20 -5 32 21 17 19 46 -5 70 -16 16 -33 20 -90 20 l-70 0 0 -110z m131 80
c10 -6 19 -19 19 -30 0 -25 -29 -40 -79 -40 l-41 0 0 40 0 40 41 0 c22 0 49
-5 60 -10z m10 -100 c21 -12 25 -40 7 -58 -7 -7 -36 -12 -65 -12 l-53 0 0 40
0 40 46 0 c25 0 54 -5 65 -10z"/>
<path d="M1690 941 c0 -62 4 -111 9 -111 6 0 11 15 13 33 3 29 6 32 39 35 33
3 39 -1 59 -32 12 -20 28 -36 37 -36 12 0 10 7 -7 35 l-22 35 23 19 c16 13 23
29 23 55 0 54 -22 70 -104 74 l-70 4 0 -111z m130 69 c44 -44 12 -90 -62 -90
l-48 0 0 48 c0 27 3 52 7 55 15 15 83 7 103 -13z"/>
<path d="M1922 960 c4 -104 18 -128 86 -137 36 -5 45 -2 72 25 29 29 30 34 30
116 0 70 -3 86 -15 86 -12 0 -15 -16 -15 -84 0 -97 -11 -116 -65 -116 -50 0
-65 28 -65 122 0 65 -3 78 -16 78 -14 0 -15 -13 -12 -90z"/>
<path d="M2180 940 c0 -90 3 -110 15 -110 11 0 15 18 17 82 l3 83 43 -73 c24
-39 45 -72 47 -72 2 0 23 33 47 72 l43 73 3 -83 c2 -64 6 -82 17 -82 12 0 15
16 15 73 0 85 -9 147 -21 147 -5 0 -30 -36 -55 -80 -53 -90 -42 -92 -108 18
-56 92 -66 85 -66 -48z"/>
</g>
</svg>
