<svg xmlns="http://www.w3.org/2000/svg" xmlns:xlink="http://www.w3.org/1999/xlink" width="500" height="500" viewBox="0 0 500 500">
  <defs>
    <clipPath id="clip-_500X500">
      <rect width="500" height="500"/>
    </clipPath>
  </defs>
  <g id="_500X500" data-name="500X500" clip-path="url(#clip-_500X500)">
    <rect width="500" height="500" fill="#fff"/>
    <path id="Path_3" data-name="Path 3" d="M0,0H500V500H0Z" fill="#4410d4"/>
    <g id="Group_18964" data-name="Group 18964" transform="translate(131.287 128.357)">
      <g id="Group_11" data-name="Group 11" transform="translate(0 0)">
        <rect id="Rectangle_3" data-name="Rectangle 3" width="38.443" height="243.473" rx="19" fill="#fff"/>
        <path id="Union_1" data-name="Union 1" d="M142.564,227.865,60.333,145.634,35.915,170.051A19.982,19.982,0,0,1,7.657,141.793l38.431-38.431a20.469,20.469,0,0,1,28.657.167l63.516,63.515V66.107l-24.52,24.519A19.981,19.981,0,0,1,85.483,62.369L142,5.853a19.99,19.99,0,0,1,24.283-3.085,19.987,19.987,0,0,1,11.941,18.3V211.288a19.894,19.894,0,0,1-3.9,11.856,19.987,19.987,0,0,1-31.763,4.72Z" transform="translate(59.367 5.855)" fill="#fff"/>
      </g>
    </g>
  </g>
</svg>
