<?xml version="1.0" encoding="UTF-8"?>
<svg id="Laag_1" data-name="Laag 1" xmlns="http://www.w3.org/2000/svg" xmlns:xlink="http://www.w3.org/1999/xlink" viewBox="0 0 500 500">
  <defs>
    <style>
      .cls-1 {
        fill: none;
      }

      .cls-2 {
        clip-path: url(#clippath-1);
      }

      .cls-3 {
        fill: #ef7d00;
      }

      .cls-4 {
        clip-path: url(#clippath-2);
      }

      .cls-5 {
        clip-path: url(#clippath);
      }
    </style>
    <clipPath id="clippath">
      <rect class="cls-1" width="500" height="500"/>
    </clipPath>
    <clipPath id="clippath-1">
      <rect class="cls-1" x="-2042.51" y="0" width="2542.51" height="859.19"/>
    </clipPath>
    <clipPath id="clippath-2">
      <rect class="cls-1" x="-2042.51" y="0" width="2542.51" height="859.19"/>
    </clipPath>
  </defs>
  <g class="cls-5">
    <g id="Deltion_College_CMYK">
      <g class="cls-2">
        <g class="cls-4">
          <path class="cls-3" d="M90.09,500.34h84.71c30.97-69.02,77.24-141.76,117.56-221.42l-69.92-74.39c-54.27,107.79-115.03,204.76-132.35,295.81"/>
          <path class="cls-3" d="M500,0h-68.02c-26.48,86.09-87.95,176.83-139.62,278.92l69.97,74.42c-25.81,51.28-53.08,100.09-76.46,146.99h107.61c13.08-23.59,26.23-47.75,38.8-72.58l-69.93-74.38C428.2,222.57,500,107.93,500,0"/>
          <path class="cls-3" d="M222.42,204.46C258.94,131.9,298.42,64.25,325.61,0H-.35v489.53h.01c-.18-110.34,84.81-225.07,152.82-359.44l69.94,74.38Z"/>
          <path class="cls-3" d="M500,499.72v-196.33c-22.04,39.76-45.73,81.05-67.66,124.38l67.66,71.95Z"/>
        </g>
      </g>
    </g>
  </g>
</svg>