<svg width="500" height="500" viewBox="0 0 500 500" fill="none" xmlns="http://www.w3.org/2000/svg">
<rect width="500" height="500" fill="white"/>
<path d="M157.081 210.083C170.98 210.083 182.204 222.182 185.07 238.96H214.157C212.604 221.616 206.658 207.043 195.864 195.778C185.07 184.513 172.055 179 156.842 179C139.863 179 125.773 185.616 114.74 198.818C103.516 212.258 98 229.036 98 249.688C98 270.34 103.516 287.089 114.74 300.291C125.773 313.492 139.863 320.108 156.842 320.108C172.055 320.108 185.046 314.595 195.864 303.33C206.658 292.065 212.604 277.761 214.157 260.417H185.285C182.419 277.195 170.956 289.026 157.081 289.026C140.102 289.026 127.541 272.516 127.541 249.688C127.541 226.861 139.672 210.083 157.081 210.083Z" fill="#49BEA1"/>
<path d="M294.713 183.611H275.384L224.133 274.143V289.138H278.538V320.108H294.736V289.138H313.923V272.18H294.736V183.611H294.713ZM278.515 272.18H240.474L278.681 206.311L278.515 272.18Z" fill="#0F2639"/>
<path d="M342.914 303.171C343.082 300.806 343.394 298.678 344.017 296.52C345.289 292.412 349.582 287.505 351.501 285.14C352.46 283.958 354.523 282.214 357.546 279.849C360.568 277.484 362.463 275.918 363.278 275.356C364.07 274.765 366.469 272.991 370.115 270.449C379.493 263.592 384.267 259.483 391.271 251.443C398.107 243.403 401.441 233.619 401.441 222.061C401.441 210.504 397.939 201.104 391.103 193.655C384.267 186.414 375.368 182.689 364.718 182.689C354.068 182.689 345.001 186.414 337.997 194.069C330.993 201.725 327.179 212.1 326.699 225.224H342.434C343.226 208.967 352.293 199.567 364.382 199.567C376.471 199.567 385.202 209.174 385.202 223.096C385.202 238.171 375.655 248.576 358.001 261.316C353.876 264.242 350.685 266.607 348.623 268.38C346.56 270.154 343.681 272.696 340.035 276.42C336.39 280.145 333.679 283.869 331.928 287.209C328.114 294.274 324.612 305.624 324.612 318.157V320.108H403V303.26H342.89L342.914 303.171Z" fill="#0F2639"/>
</svg>
