<svg width="1080" height="1080" viewBox="0 0 1080 1080" fill="none" xmlns="http://www.w3.org/2000/svg">
<rect width="1080" height="1080" rx="540" fill="white"/>
<path fill-rule="evenodd" clip-rule="evenodd" d="M511.392 177.355C507.713 167.634 498.404 161.203 488.01 161.203H373.393L123 838C169.466 838 195.518 838 241.985 838C260.446 786.33 270.796 757.361 289.258 705.691L438.337 274.753L629.399 821.251C632.906 831.282 642.371 838 652.998 838H761.407L511.392 177.355ZM762.765 335.018C759.054 325.359 749.776 318.984 739.428 318.984H638.098L831.333 821.966C835.044 831.625 844.322 838 854.67 838H956L762.765 335.018ZM438.337 274.753L289.258 705.691L322.172 612.399L438.337 274.753Z" fill="black"/>
<path fill-rule="evenodd" clip-rule="evenodd" d="M511.392 177.355C507.713 167.634 498.404 161.203 488.01 161.203H373.393L123 838C169.466 838 195.518 838 241.985 838C260.446 786.33 270.796 757.361 289.258 705.691L438.337 274.753L629.399 821.251C632.906 831.282 642.371 838 652.998 838H761.407L511.392 177.355ZM762.765 335.018C759.054 325.359 749.776 318.984 739.428 318.984H638.098L831.333 821.966C835.044 831.625 844.322 838 854.67 838H956L762.765 335.018ZM438.337 274.753L289.258 705.691L322.172 612.399L438.337 274.753Z" fill="black"/>
<g clip-path="url(#clip0_20_2)">
<path d="M600.113 173.525C601.422 171.839 603.473 170.886 605.608 170.981L684.988 174.392C693.909 171.225 699.324 166.88 702.736 162.829C703.764 161.611 703.893 161.038 703.893 161.038C704.428 160.039 704.402 158.888 703.854 157.859C703.301 156.831 702.249 156.172 701.085 156.121L630.045 153.07C628.977 153.021 627.951 153.497 627.299 154.339C627.242 154.417 627.2 154.511 627.147 154.587L621.932 154.309C621.736 152.61 622.167 150.886 623.239 149.514C624.547 147.823 626.599 146.874 628.733 146.965L703.44 150.176C706.239 150.297 708.658 152.177 709.468 154.855L709.966 156.504L741.46 260.629C741.46 260.629 741.388 276.457 718.335 284.645L639.016 281.235C633.419 280.993 628.579 277.24 626.956 271.874L599.01 179.479C598.391 177.433 598.803 175.212 600.113 173.525Z" fill="black"/>
<path d="M695.05 160.799L692.612 163.018L620.834 159.929L623.278 157.708L695.05 160.799Z" fill="black"/>
<path d="M685.892 169.083L614.207 165.996L616.63 163.776L688.331 166.863L685.892 169.083Z" fill="black"/>
</g>
<defs>
<clipPath id="clip0_20_2">
<rect width="206" height="206" fill="white" transform="matrix(-0.957177 0.289505 0.289505 0.957177 693.179 101)"/>
</clipPath>
</defs>
</svg>
