<?xml version="1.0" encoding="UTF-8"?>
<svg version="1.1" xmlns="http://www.w3.org/2000/svg" width="16" height="16">
<path d="M0 0 C5.28 0 10.56 0 16 0 C16 5.28 16 10.56 16 16 C14.68 15.01 13.36 14.02 12 13 C9.3094472 14.22007944 9.3094472 14.22007944 7 16 C4.66702567 16.04092937 2.33294775 16.04241723 0 16 C-0.36923077 9.47692308 -0.36923077 9.47692308 1.5 7.0625 C1.995 6.711875 2.49 6.36125 3 6 C2.690625 5.38125 2.38125 4.7625 2.0625 4.125 C1.375 2.75 0.6875 1.375 0 0 Z M5 5 C5 6.98 5 8.96 5 11 C6.98 11 8.96 11 11 11 C11 9.02 11 7.04 11 5 C9.02 5 7.04 5 5 5 Z " fill="#000000" transform="translate(0,0)"/>
</svg>
