<?xml version="1.0" encoding="UTF-8" standalone="no"?>
<svg
   xmlns:dc="http://purl.org/dc/elements/1.1/"
   xmlns:cc="http://creativecommons.org/ns#"
   xmlns:rdf="http://www.w3.org/1999/02/22-rdf-syntax-ns#"
   xmlns:svg="http://www.w3.org/2000/svg"
   xmlns="http://www.w3.org/2000/svg"
   id="svg13"
   xml:space="preserve"
   enable-background="new 0 0 200 200"
   viewBox="0 0 200 200"
   y="0px"
   x="0px"
   version="1.1"><metadata
     id="metadata17"><rdf:RDF><cc:Work
         rdf:about=""><dc:format>image/svg+xml</dc:format><dc:type
           rdf:resource="http://purl.org/dc/dcmitype/StillImage" /></cc:Work></rdf:RDF></metadata><defs
     id="defs9"><linearGradient
       x1="42.77894"
       y1="157.22122"
       x2="157.22137"
       gradientUnits="userSpaceOnUse"
       y2="42.77878"
       id="b"><stop
         id="stop2"
         offset="0"
         stop-color="#1a237e" /><stop
         id="stop4"
         offset=".68524"
         stop-color="#1e88e5" /><stop
         id="stop6"
         offset="1"
         stop-color="#4dd0e1" /></linearGradient></defs><path
     id="path11"
     fill="url(#b)"
     d="m19.03901 100c0 44.64193 36.31906 80.96099 80.96222 80.96099 44.64069 0 80.95976-36.31906 80.95976-80.96099s-36.31906-80.96099-80.95976-80.96099c-44.64316 0-80.96222 36.31906-80.96222 80.96099zm56.23855 0.08151c-0.00042 0.10818-0.00167 0.21617-0.00375 0.32396-0.1893 9.8243-15.18454 9.59589-15.22736-0.23013-0.01195-2.74194 0.25629-5.52124 0.81848-8.30669 3.28344-16.26813 16.73348-28.98998 33.15571-31.38656 24.67295-3.60065 45.93574 15.52288 45.93574 39.51792 0 0.15213-0.00087 0.30415-0.00259 0.45605-0.11121 9.77114-14.9932 9.81318-15.22561 0.04417-0.00396-0.16627-0.00594-0.33302-0.00594-0.50022 0-17.32697-17.91852-30.54845-36.19548-22.1069-8.50835 3.92974-13.213 12.81645-13.2492 22.18841zm12.61321-0.08151c0-7.17084 6.26471-12.90548 13.6102-12.01846 6.14576 0.74215 10.52595 6.29684 10.61153 12.48665 0.25134 18.17868 15.11625 32.88977 33.35469 32.88977h2.13584c4.8315 0 9.41388-1.05468 13.56299-2.91045-0.03738 0.07478-0.07489 0.14949-0.11253 0.22411-5.82632 11.55013-19.32052 17.38312-31.72886 13.72462-8.29953-2.44704-17.10964-8.26768-23.51644-20.8395-0.86618-1.69968-2.32057-3.12048-4.16599-3.6038-2.98506-0.78181-5.96644 0.6507-7.2774 3.26657-6.47394 12.9101-15.54054 18.77636-24.03685 21.18703-12.33003 3.4984-25.659-2.35676-31.41769-13.80691l-0.07627-0.15212c4.14911 1.85577 8.73149 2.91045 13.56299 2.91045h2.13584c18.39479 0 33.35796-14.9644 33.35796-33.35796zm-23.50959 58.30761c12.03301-1.15445 25.47268-6.46956 35.62005-20.19267 10.14599 13.72327 23.58534 19.03838 35.61836 20.19267-10.3794 6.36409-22.5767 10.04037-35.61836 10.04037-13.04258 0-25.24018-3.67613-35.62005-10.04037zm103.9668-58.30761c0 11.20636-8.93812 20.34202-20.05549 20.71 2.79328-6.5022 4.27691-13.51387 4.27691-20.71 0-28.98652-23.58288-52.56817-52.56817-52.56817s-52.56817 23.58165-52.56817 52.56817c0 7.2009 1.48178 14.21058 4.27352 20.71-11.11691-0.3686-20.05456-9.50395-20.05456-20.71 0-37.68753 30.66045-68.34798 68.34921-68.34798 37.68629 0 68.34675 30.66045 68.34675 68.34798z" /></svg>