<?xml version="1.0" encoding="UTF-8" standalone="no"?>
<svg
   id="Layer_1"
   version="1.1"
   viewBox="0 0 234.19999 234.2"
   sodipodi:docname="Flexion_Logo_NoTag_Horizontalicon.svg"
   width="234.2"
   height="234.2"
   inkscape:version="1.4.3 (0d15f75, 2025-12-25)"
   xmlns:inkscape="http://www.inkscape.org/namespaces/inkscape"
   xmlns:sodipodi="http://sodipodi.sourceforge.net/DTD/sodipodi-0.dtd"
   xmlns="http://www.w3.org/2000/svg"
   xmlns:svg="http://www.w3.org/2000/svg">
  <sodipodi:namedview
     id="namedview10"
     pagecolor="#ffffff"
     bordercolor="#000000"
     borderopacity="0.25"
     inkscape:showpageshadow="2"
     inkscape:pageopacity="0.0"
     inkscape:pagecheckerboard="false"
     inkscape:deskcolor="#d1d1d1"
     inkscape:zoom="0.6883313"
     inkscape:cx="553.51253"
     inkscape:cy="176.51384"
     inkscape:window-width="1728"
     inkscape:window-height="978"
     inkscape:window-x="0"
     inkscape:window-y="34"
     inkscape:window-maximized="1"
     inkscape:current-layer="Layer_1" />
  <!-- Generator: Adobe Illustrator 29.5.1, SVG Export Plug-In . SVG Version: 2.1.0 Build 141)  -->
  <defs
     id="defs1">
    <style
       id="style1">.st0 { fill: #a02816; }
.st1 { 
    fill:light-dark(#40474f, #FFFFFF);
}
.st2 { fill: #de4829; }
.st3 { fill: #ed5338; }
</style>
  </defs>
  <g
     id="g10">
    <polygon
       class="st0"
       points="88.3,157.6 25.1,129.5 91,107.2 147.6,135.7 "
       id="polygon7" />
    <polyline
       class="st3"
       points="25.3 129.5 170.3 85.1 195.9 11.7 3.1 77.1"
       id="polyline7" />
    <polygon
       class="st2"
       points="25.1,129.5 3.1,77.1 21.7,70.9 93.8,108.6 "
       id="polygon8" />
    <polyline
       class="st3"
       points="82.7 158.5 82.3 198.6 137.7 178 147.5 135.7"
       id="polyline8" />
    <polygon
       class="st2"
       points="82.7,198.4 82.9,158.5 40.7,174.1 53.6,208.3 "
       id="polygon9" />
    <polygon
       class="st0"
       points="53.6,208.2 82.7,223 82.7,198.3 "
       id="polygon10" />
  </g>
  <path
     class="st1"
     d="m 228.11377,18.307772 c 0,2.2 -0.6,4.3 -1.7,6.2 -1.1,1.9 -2.6,3.4 -4.5,4.6 -1.9,1.1 -4,1.7 -6.2,1.7 -2.2,0 -4.3,-0.6 -6.3,-1.7 -1.9,-1.1 -3.4,-2.7 -4.5,-4.6 -1.1,-1.9 -1.6,-4 -1.6,-6.1 0,-2.1 0.6,-4.3 1.7,-6.2 1.1,-1.9 2.6,-3.4000001 4.6,-4.6000001 1.9,-1.1 4,-1.7 6.2,-1.7 2.2,0 4.3,0.6 6.2,1.7 1.9,1.1 3.5,2.6000001 4.6,4.5000001 1.1,1.9 1.6,4 1.6,6.2 z m -1.9,0 c 0,-1.9 -0.5,-3.6 -1.4,-5.2 -0.9,-1.6 -2.2,-2.9 -3.9,-3.8000001 -1.6,-0.9 -3.4,-1.4 -5.3,-1.4 -1.9,0 -3.5,0.4 -5.1,1.3 -1.6,0.9000001 -2.9,2.1000001 -3.9,3.8000001 -1,1.6 -1.5,3.4 -1.5,5.3 0,1.9 0.5,3.6 1.4,5.2 1,1.6 2.2,2.9 3.8,3.9 1.6,0.9 3.3,1.4 5.2,1.4 1.9,0 3.6,-0.5 5.3,-1.4 1.6,-0.9 2.9,-2.2 3.9,-3.9 0.9,-1.6 1.4,-3.4 1.4,-5.2 z m -7.6,7 -3.1,-5.4 h -2 v 5.4 h -3.1 v -14 h 5.7 c 1.7,0 3.1,0.4 3.9,1.1 0.9,0.7 1.3,1.8 1.3,3.1 0,1.3 -0.3,2 -0.8,2.6 -0.6,0.7 -1.3,1.2 -2.2,1.4 l 3.7,5.8 h -3.5 z m -0.3,-9.8 c 0,-0.7 -0.2,-1.1 -0.6,-1.5 -0.4,-0.3 -1,-0.5 -1.8,-0.5 h -2.3 v 4.2 h 2.5 c 0.8,0 1.3,-0.2 1.7,-0.6 0.4,-0.4 0.6,-0.9 0.6,-1.6 z"
     id="path10"
     style="" />
</svg>
