<svg version="1.1" id="Layer_1" xmlns="http://www.w3.org/2000/svg" xmlns:xlink="http://www.w3.org/1999/xlink" x="0px" y="0px"
	 width="100%" viewBox="0 0 1024 1024" enable-background="new 0 0 1024 1024" xml:space="preserve">
<path fill="#000000" opacity="1.000000" stroke="none" 
	d="
M544.999878,681.393066 
	C516.000183,681.391602 487.500458,681.404053 459.000763,681.383362 
	C438.956665,681.368835 425.159668,670.213989 421.079926,650.671448 
	C420.188141,646.399780 420.494446,642.024353 420.870605,637.724792 
	C421.174530,634.251282 423.293762,632.550171 426.985443,632.616394 
	C434.316193,632.747864 441.651245,632.619202 448.984344,632.645508 
	C455.716064,632.669678 457.257996,634.483582 456.303833,641.117676 
	C455.325775,647.917358 456.780762,649.767273 463.677521,649.773315 
	C538.176575,649.838074 612.675598,649.857788 687.174683,649.884277 
	C693.023010,649.886353 698.203735,647.698303 703.218079,644.950012 
	C709.911499,641.281494 710.306885,634.401245 711.462036,628.147888 
	C717.249207,596.819458 723.310242,565.529297 728.341919,534.076416 
	C735.894165,486.868225 745.629211,440.063690 753.640320,392.945435 
	C755.057739,384.608215 756.470337,376.269104 758.010864,367.954193 
	C759.350525,360.723511 755.757080,355.545563 748.415161,354.490784 
	C747.268982,354.326111 746.086304,354.391602 744.920471,354.392029 
	C679.087952,354.415924 613.255432,354.450867 547.422913,354.457031 
	C543.098877,354.457428 538.802551,354.873077 534.447754,354.656921 
	C528.959656,354.384491 527.150696,356.807953 528.054504,362.364349 
	C528.519043,365.220245 527.532654,366.458710 524.693481,366.441864 
	C516.360596,366.392395 508.027374,366.398468 499.694611,366.335052 
	C495.457214,366.302795 494.541992,363.746918 494.674316,360.004333 
	C495.292999,342.505585 507.510468,328.341980 525.665894,323.662598 
	C535.053955,321.242920 544.393738,321.537354 553.871399,322.460236 
	C558.001526,322.862427 562.195557,322.644989 566.360535,322.647461 
	C588.193665,322.660278 610.049194,323.284882 631.854736,322.509674 
	C667.168579,321.254242 702.473938,322.229248 737.780334,321.888031 
	C750.113281,321.768860 762.184387,323.793427 772.225952,331.559692 
	C784.207153,340.826050 791.266174,352.796875 789.468506,368.602417 
	C787.010071,390.216919 782.820740,411.550415 778.859741,432.922333 
	C772.293701,468.349731 765.834595,503.797028 759.355774,539.240540 
	C755.148621,562.256470 750.973816,585.278320 746.810120,608.302185 
	C745.009460,618.259033 743.540344,628.283936 741.456116,638.180054 
	C735.882446,664.644165 715.586487,681.254578 688.497559,681.337402 
	C640.832092,681.483093 593.165833,681.387390 544.999878,681.393066 
z"/>
<path fill="#000000" opacity="1.000000" stroke="none" 
	d="
M330.127289,473.641113 
	C363.060822,472.446960 395.529724,472.825226 427.993927,472.717773 
	C429.325348,472.713379 430.681763,472.601990 431.984070,472.808441 
	C436.941711,473.594238 437.841187,475.537079 435.399872,479.821014 
	C429.215546,490.672852 422.729065,501.370697 417.029510,512.472107 
	C414.577148,517.248718 411.643738,518.553589 406.563660,518.513733 
	C377.241089,518.283691 347.915436,518.468994 318.592041,518.299561 
	C313.865723,518.272278 311.660095,519.201172 310.880005,524.575256 
	C308.737122,539.338013 305.713196,553.972656 303.066101,568.663086 
	C302.926788,569.436401 303.048157,570.256714 303.048157,571.118164 
	C306.120392,572.375671 309.204254,572.666443 312.387939,572.663269 
	C345.210907,572.630676 378.033875,572.642151 410.856873,572.645325 
	C417.916565,572.645996 418.835083,574.262268 415.226105,580.491028 
	C408.715057,591.728577 402.139984,602.928955 395.639832,614.172729 
	C393.883881,617.210144 391.498383,618.484924 387.881134,618.476868 
	C342.897705,618.376587 297.914032,618.411011 252.930405,618.382874 
	C246.068802,618.378601 245.631378,617.802246 246.665955,611.412048 
	C253.429214,569.637329 262.055756,528.218445 270.269104,486.716888 
	C277.063416,452.385529 283.288696,417.941162 289.694855,383.533600 
	C291.046356,376.274780 291.554688,375.681488 299.089722,375.680237 
	C351.398254,375.671631 403.706757,375.668030 456.015289,375.674133 
	C464.186066,375.675079 465.503387,377.618011 461.459961,384.794800 
	C455.496185,395.380127 449.122620,405.734283 442.946503,416.200439 
	C440.690796,420.023010 437.459930,421.462372 432.977936,421.445435 
	C401.321442,421.325928 369.663483,421.508575 338.008148,421.284393 
	C332.687347,421.246674 330.224365,422.874512 329.381470,428.169006 
	C327.269257,441.436096 324.716705,454.632446 322.467987,467.878784 
	C321.572174,473.155670 322.248474,473.600464 330.127289,473.641113 
z"/>
<path fill="#000000" opacity="1.000000" stroke="none" 
	d="
M413.561707,616.176208 
	C413.449402,613.303040 414.776947,611.323975 415.934662,609.320251 
	C447.171234,555.258423 478.470520,501.232819 509.658020,447.142731 
	C522.048645,425.653015 534.302124,404.082214 546.380188,382.415741 
	C549.147339,377.451843 552.551636,375.389435 558.322815,375.528503 
	C573.140442,375.885620 587.972534,375.701050 602.798279,375.620422 
	C606.377991,375.600983 608.029724,376.619171 608.487183,380.637054 
	C610.925659,402.056549 613.618652,423.449005 616.435425,444.822937 
	C619.916870,471.240204 623.650635,497.624146 627.192078,524.033691 
	C630.315674,547.327087 633.307190,570.638184 636.396179,593.936279 
	C637.245300,600.340454 638.218262,606.728577 639.166931,613.119141 
	C639.657837,616.425964 638.455383,618.290527 634.944824,618.290283 
	C620.285400,618.289307 605.625916,618.271667 590.966492,618.288574 
	C587.123291,618.293030 586.317200,615.608948 585.983826,612.652466 
	C584.831604,602.434875 583.601257,592.220825 582.763184,581.975830 
	C582.487671,578.608276 581.488403,577.270752 578.026917,577.280090 
	C548.374817,577.360046 518.722229,577.366333 489.070282,577.258789 
	C485.905731,577.247314 484.252869,578.690247 482.743500,581.127625 
	C476.168884,591.744568 469.400696,602.242737 462.905212,612.907288 
	C460.487823,616.876221 457.538116,618.616272 452.726868,618.477173 
	C441.408722,618.149963 430.073975,618.425903 418.746674,618.351990 
	C416.924774,618.340088 414.591583,619.234009 413.561707,616.176208 
M570.705994,463.472900 
	C569.284119,454.441101 570.247070,445.108917 566.989502,435.940277 
	C548.683594,466.635986 530.531555,497.253632 512.798645,528.828857 
	C515.003662,529.310181 515.638550,529.568909 516.273804,529.570007 
	C535.075134,529.602844 553.876587,529.570129 572.677551,529.659363 
	C575.974915,529.674988 576.447388,528.219849 576.185425,525.307495 
	C575.204834,514.405273 574.548096,503.474213 573.598694,492.568848 
	C572.779480,483.160492 571.727539,473.772430 570.705994,463.472900 
z"/>
<path fill="#000000" opacity="1.000000" stroke="none" 
	d="
M675.799805,467.106628 
	C677.145630,460.522552 678.627380,454.387604 679.601501,448.173035 
	C680.316040,443.614258 682.283813,441.478882 687.127502,441.568787 
	C698.446533,441.778961 709.777649,441.836426 721.092712,441.536072 
	C725.903625,441.408386 726.959656,443.499146 726.133423,447.524536 
	C721.001038,472.528107 717.056580,497.774536 711.028687,522.592285 
	C706.561462,540.984619 704.472046,559.769958 701.387329,578.389893 
	C699.518372,589.671265 697.975159,601.006775 696.300903,612.320190 
	C695.802979,615.685486 694.168518,618.004761 690.533508,618.023987 
	C678.046204,618.090027 665.557861,618.098572 653.070862,618.007935 
	C650.197571,617.987061 648.363281,616.775696 648.966125,613.297852 
	C653.099426,589.452881 656.629333,565.503967 660.663818,541.650513 
	C664.700256,517.785400 670.327576,494.189423 675.248718,470.473633 
	C675.450928,469.499115 675.563599,468.506042 675.799805,467.106628 
z"/>
<path fill="#000000" opacity="1.000000" stroke="none" 
	d="
M718.965454,419.389984 
	C709.470886,419.389069 700.471069,419.419312 691.471680,419.375275 
	C685.736572,419.347198 685.434509,418.857330 686.359253,413.361938 
	C688.201904,402.410797 689.974670,391.447632 691.718079,380.480194 
	C692.788818,373.744415 693.908691,372.697632 700.800842,372.686096 
	C710.967041,372.669037 721.133850,372.648590 731.299377,372.742920 
	C736.829529,372.794220 738.112305,374.285370 737.308228,379.812012 
	C735.778687,390.324341 734.176636,400.827637 732.452271,411.309601 
	C731.125671,419.374390 731.021912,419.357758 722.960266,419.386322 
	C721.793640,419.390442 720.626953,419.388702 718.965454,419.389984 
z"/>
</svg>