<?xml version="1.0" encoding="UTF-8"?>
<!DOCTYPE svg PUBLIC "-//W3C//DTD SVG 1.0//EN" "http://www.w3.org/TR/2001/REC-SVG-20010904/DTD/svg10.dtd">
<!-- Creator: CorelDRAW 2019 (64-Bit) -->
<svg xmlns="http://www.w3.org/2000/svg" xml:space="preserve" width="130.861mm" height="133.87mm" version="1.0" style="shape-rendering:geometricPrecision; text-rendering:geometricPrecision; image-rendering:optimizeQuality; fill-rule:evenodd; clip-rule:evenodd"
viewBox="0 0 13059.79 13360.05"
 xmlns:xlink="http://www.w3.org/1999/xlink">
 <defs>
  <style type="text/css">
   <![CDATA[
    .fil0 {fill:#21295A}
    .fil1 {fill:#9ACC2E}
   ]]>
  </style>
 </defs>
 <g id="Capa_x0020_1">
  <metadata id="CorelCorpID_0Corel-Layer"/>
  <path class="fil0" d="M122.81 12960.26l0 39.5 -38.38 0 0 314.23 38.38 0 0 39.5 -122.81 0 0 -39.5 38.38 0 0 -314.23 -38.38 0 0 -39.5 122.81 0zm521.33 393.23l-56.53 0 -202.37 -313.48c-5.15,-7.86 -9.35,-16.1 -12.64,-24.61l-1.58 0c1.4,8.41 2.15,26.4 2.15,54l0 284.09 -46.05 0 0 -393.23 59.8 0 196.85 308.52c8.24,12.72 13.57,21.53 15.91,26.3l1.12 0c-1.87,-11.33 -2.79,-30.61 -2.79,-57.84l0 -276.97 46.14 0 0 393.23zm474.83 -351.58l-113.55 0 0 351.58 -46.05 0 0 -351.58 -113.26 0 0 -41.65 272.86 0 0 41.65zm409.39 351.58l-208.36 0 0 -393.23 199.66 0 0 41.65 -153.6 0 0 130.87 142.09 0 0 41.37 -142.09 0 0 137.7 162.3 0 0 41.65zm418.95 0l-203.96 0 0 -393.23 46.06 0 0 351.58 157.9 0 0 41.65zm284.06 -393.23l0 39.5 -38.38 0 0 314.23 38.38 0 0 39.5 -122.81 0 0 -39.5 38.38 0 0 -314.23 -38.38 0 0 -39.5 122.81 0zm498.22 366.35c-39.41,22.29 -83.3,33.43 -131.6,33.43 -56.07,0 -101.46,-18.06 -136.11,-54.29 -34.71,-36.13 -52.03,-84.06 -52.03,-143.69 0,-60.83 19.26,-110.83 57.73,-149.85 38.47,-39.03 87.25,-58.59 146.31,-58.59 42.77,0 78.72,7.02 107.74,20.87l0 51.02c-31.74,-20.13 -69.46,-30.14 -112.98,-30.14 -43.98,0 -80.12,15.17 -108.3,45.49 -28.17,30.32 -42.21,69.64 -42.21,117.93 0,49.71 13.11,88.83 39.22,117.19 26.12,28.45 61.6,42.67 106.44,42.67 30.69,0 57.28,-6.17 79.74,-18.34l0 -110.26 -86.11 0 0 -41.67 132.16 0 0 178.22zm438.97 26.88l-208.36 0 0 -393.23 199.66 0 0 41.65 -153.6 0 0 130.87 142.09 0 0 41.37 -142.09 0 0 137.7 162.3 0 0 41.65zm532.01 0l-56.52 0 -202.37 -313.48c-5.16,-7.86 -9.36,-16.1 -12.64,-24.61l-1.59 0c1.41,8.41 2.16,26.4 2.16,54l0 284.09 -46.06 0 0 -393.23 59.81 0 196.85 308.52c8.23,12.72 13.57,21.53 15.9,26.3l1.12 0c-1.87,-11.33 -2.79,-30.61 -2.79,-57.84l0 -276.97 46.14 0 0 393.23zm509.94 -16.48c-29.02,15.35 -65.25,23.03 -108.58,23.03 -55.99,0 -100.73,-17.98 -134.33,-54.02 -33.69,-36.03 -50.54,-83.3 -50.54,-141.81 0,-62.79 18.99,-113.62 56.82,-152.37 37.8,-38.84 85.83,-58.21 143.96,-58.21 37.25,0 68.14,5.42 92.67,16.2l0 49.13c-28.19,-15.72 -59.26,-23.58 -93.24,-23.58 -45.11,0 -81.72,15.07 -109.78,45.21 -28.09,30.14 -42.14,70.49 -42.14,120.94 0,47.91 13.11,86.11 39.31,114.47 26.31,28.45 60.66,42.67 103.34,42.67 39.4,0 73.66,-8.79 102.5,-26.3l0 44.65zm303.81 -376.75l0 39.5 -38.38 0 0 314.23 38.38 0 0 39.5 -122.81 0 0 -39.5 38.38 0 0 -314.23 -38.38 0 0 -39.5 122.81 0zm508.69 393.23l-51.02 0 -41.65 -110.26 -166.79 0 -39.22 110.26 -51.2 0 150.8 -393.23 47.73 0 151.34 393.23zm-107.83 -151.63l-61.68 -167.55c-1.97,-5.52 -4.02,-14.32 -5.99,-26.31l-1.13 0c-1.78,11.15 -3.93,19.86 -6.27,26.31l-61.22 167.55 136.28 0zm763.2 151.63l-51.02 0 -41.65 -110.26 -166.79 0 -39.22 110.26 -51.21 0 150.8 -393.23 47.73 0 151.35 393.23zm-107.83 -151.63l-61.69 -167.55c-1.97,-5.52 -4.01,-14.32 -5.99,-26.31l-1.12 0c-1.78,11.15 -3.94,19.86 -6.27,26.31l-61.23 167.55 136.29 0zm586.87 151.63l-54.86 0 -65.9 -110.26c-5.99,-10.21 -11.8,-18.91 -17.49,-26.22 -5.71,-7.22 -11.53,-13.1 -17.41,-17.59 -5.99,-4.59 -12.36,-7.96 -19.19,-10.01 -6.83,-2.17 -14.59,-3.19 -23.22,-3.19l-37.8 0 0 167.27 -46.06 0 0 -393.23 117.37 0c17.14,0 33.05,2.16 47.55,6.47 14.52,4.29 27.15,10.76 37.82,19.56 10.76,8.8 19.09,19.74 25.08,32.76 6.09,13.09 9.08,28.36 9.08,45.96 0,13.66 -2.06,26.3 -6.17,37.72 -4.14,11.41 -9.93,21.61 -17.51,30.51 -7.58,8.98 -16.77,16.65 -27.42,22.93 -10.77,6.27 -22.75,11.23 -36.13,14.69l0 1.03c6.64,2.99 12.36,6.27 17.22,10.03 4.77,3.82 9.46,8.23 13.75,13.37 4.41,5.06 8.8,10.86 13.12,17.41 4.29,6.46 9.08,13.95 14.32,22.55l73.85 118.22zm-235.88 -351.58l0 142.66 62.52 0c11.51,0 22.19,-1.79 31.92,-5.24 9.83,-3.46 18.26,-8.43 25.38,-14.99 7.11,-6.46 12.72,-14.4 16.75,-23.85 4.03,-9.36 5.99,-19.94 5.99,-31.64 0,-21.07 -6.74,-37.45 -20.4,-49.25 -13.57,-11.79 -33.32,-17.69 -59.07,-17.69l-63.08 0zm647.15 0l-113.54 0 0 351.58 -46.06 0 0 -351.58 -113.25 0 0 -41.65 272.85 0 0 41.65zm285.47 -41.65l0 39.5 -38.38 0 0 314.23 38.38 0 0 39.5 -122.81 0 0 -39.5 38.37 0 0 -314.23 -38.37 0 0 -39.5 122.81 0zm403.96 41.65l-153.6 0 0 136.01 142.09 0 0 41.47 -142.09 0 0 174.11 -46.06 0 0 -393.23 199.66 0 0 41.65zm298.29 -41.65l0 39.5 -38.37 0 0 314.23 38.37 0 0 39.5 -122.8 0 0 -39.5 38.37 0 0 -314.23 -38.37 0 0 -39.5 122.8 0zm471.92 376.75c-29.01,15.35 -65.24,23.03 -108.58,23.03 -55.98,0 -100.72,-17.98 -134.32,-54.02 -33.69,-36.03 -50.54,-83.3 -50.54,-141.81 0,-62.79 18.99,-113.62 56.82,-152.37 37.8,-38.84 85.83,-58.21 143.96,-58.21 37.25,0 68.14,5.42 92.66,16.2l0 49.13c-28.18,-15.72 -59.25,-23.58 -93.23,-23.58 -45.11,0 -81.72,15.07 -109.79,45.21 -28.08,30.14 -42.13,70.49 -42.13,120.94 0,47.91 13.11,86.11 39.31,114.47 26.31,28.45 60.66,42.67 103.34,42.67 39.4,0 73.66,-8.79 102.49,-26.3l0 44.65zm303.82 -376.75l0 39.5 -38.38 0 0 314.23 38.38 0 0 39.5 -122.81 0 0 -39.5 38.37 0 0 -314.23 -38.37 0 0 -39.5 122.81 0zm508.69 393.23l-51.02 0 -41.65 -110.26 -166.79 0 -39.22 110.26 -51.2 0 150.8 -393.23 47.73 0 151.34 393.23zm-107.83 -151.63l-61.68 -167.55c-1.98,-5.52 -4.02,-14.32 -5.99,-26.31l-1.13 0c-1.78,11.15 -3.94,19.86 -6.27,26.31l-61.22 167.55 136.28 0zm508.89 151.63l-203.96 0 0 -393.23 46.06 0 0 351.58 157.9 0 0 41.65zm657.89 0l-51.03 0 -41.65 -110.26 -166.79 0 -39.22 110.26 -51.2 0 150.8 -393.23 47.73 0 151.35 393.23zm-107.83 -151.63l-61.69 -167.55c-1.97,-5.52 -4.02,-14.32 -5.99,-26.31l-1.12 0c-1.78,11.15 -3.94,19.86 -6.27,26.31l-61.23 167.55 136.29 0zm350.98 2.99l0 148.64 -46.06 0 0 -393.23 108.01 0c42.04,0 74.6,10.21 97.82,30.7 23.11,20.51 34.64,49.33 34.64,86.68 0,37.25 -12.82,67.76 -38.57,91.55 -25.65,23.77 -60.38,35.67 -103.99,35.67l-51.86 0zm0 -202.94l0 161.28 48.3 0c31.72,0 56.07,-7.3 72.73,-21.81 16.75,-14.5 25.08,-35.11 25.08,-61.59 0,-51.95 -30.72,-77.89 -92.11,-77.89l-54 0zm611.67 351.58l-203.96 0 0 -393.23 46.05 0 0 351.58 157.91 0 0 41.65zm284.06 -393.23l0 39.5 -38.38 0 0 314.23 38.38 0 0 39.5 -122.81 0 0 -39.5 38.37 0 0 -314.23 -38.37 0 0 -39.5 122.81 0zm471.92 376.75c-29.02,15.35 -65.25,23.03 -108.58,23.03 -55.99,0 -100.73,-17.98 -134.33,-54.02 -33.69,-36.03 -50.53,-83.3 -50.53,-141.81 0,-62.79 18.99,-113.62 56.81,-152.37 37.8,-38.84 85.84,-58.21 143.97,-58.21 37.24,0 68.13,5.42 92.66,16.2l0 49.13c-28.19,-15.72 -59.26,-23.58 -93.23,-23.58 -45.12,0 -81.72,15.07 -109.79,45.21 -28.09,30.14 -42.14,70.49 -42.14,120.94 0,47.91 13.11,86.11 39.32,114.47 26.3,28.45 60.65,42.67 103.34,42.67 39.4,0 73.65,-8.79 102.49,-26.3l0 44.65zm523.77 16.48l-51.03 0 -41.65 -110.26 -166.79 0 -39.22 110.26 -51.2 0 150.8 -393.23 47.73 0 151.35 393.23zm-107.84 -151.63l-61.68 -167.55c-1.97,-5.52 -4.02,-14.32 -5.99,-26.31l-1.13 0c-1.77,11.15 -3.93,19.86 -6.26,26.31l-61.23 167.55 136.28 0zm304.94 151.63l0 -393.23 108.58 0c138.53,0 207.89,63.83 207.89,191.7 0,60.65 -19.29,109.42 -57.76,146.31 -38.47,36.78 -89.95,55.22 -154.54,55.22l-104.17 0zm46.06 -351.58l0 309.94 58.68 0c51.58,0 91.65,-13.87 120.37,-41.47 28.74,-27.62 43.06,-66.75 43.06,-117.39 0,-100.71 -53.54,-151.08 -160.71,-151.08l-61.41 0zm782.3 351.58l-51.02 0 -41.65 -110.26 -166.79 0 -39.22 110.26 -51.21 0 150.81 -393.23 47.72 0 151.35 393.23zm-107.83 -151.63l-61.68 -167.55c-1.98,-5.52 -4.02,-14.32 -6,-26.31l-1.12 0c-1.78,11.15 -3.94,19.86 -6.27,26.31l-61.23 167.55 136.29 0z"/>
  <g id="_2263170471840">
   <path class="fil1" d="M6379.03 0c1280.02,0 2438.9,518.85 3277.76,1357.69 838.85,838.86 1357.7,1997.75 1357.7,3277.78 0,1280.01 -518.85,2438.9 -1357.71,3277.76 -838.85,838.86 -1997.73,1357.71 -3277.75,1357.71 -1280.03,0 -2438.91,-518.85 -3277.77,-1357.71 -838.86,-838.86 -1357.71,-1997.75 -1357.71,-3277.76 0,-1280.03 518.85,-2438.92 1357.71,-3277.76 838.86,-838.86 1997.74,-1357.71 3277.77,-1357.71zm3215.25 5718.22l0 0 -27.99 -23.55 -1370.86 0 1536.01 -2021.56 0.51 0.13 0 -128.02 -173.1 0 0.05 0.09 -1633.13 2149.37 -832.45 0c-13.73,-39.42 -35.96,-74.86 -64.47,-104.16l2178.29 -2880.44c23.03,6.07 47.19,9.3 72.11,9.3 156.25,0 282.88,-126.63 282.88,-282.89 0,-156.24 -126.63,-282.89 -282.88,-282.89 -156.25,0 -282.89,126.65 -282.89,282.89 0,52.39 14.25,101.44 39.08,143.51l-2211.94 2924.97c-155.03,1.41 -280.26,127.47 -280.26,282.85 0,105.55 57.82,197.59 143.51,246.19l25.51 1953.32c-99.52,43.83 -169.02,143.3 -169.02,259.03 0,156.24 126.65,282.88 282.89,282.88 156.26,0 282.89,-126.64 282.89,-282.88 0,-120.67 -75.53,-223.65 -181.9,-264.31l-25.1 -1921.66c79.03,-21.96 144.15,-77.36 179.14,-150.01l2479.6 0 33.8 0.06c25.39,0.04 29.85,-54.44 33.04,-48.05l-33.33 -144.17zm-315.02 -3405.76c68.5,0 124.01,55.53 124.01,124.02 0,68.5 -55.51,124.02 -124.01,124.02 -68.49,0 -124,-55.52 -124,-124.02 0,-68.49 55.51,-124.02 124,-124.02zm-6444.43 3382.21l1724.33 0 -1689.87 -2224.09c-121.93,366.84 -188,759.16 -188,1166.93 0,366.76 53.59,721.72 153.54,1057.16zm1994 0l977.76 0 -2430.28 -3215.39c-167.23,232.21 -308.18,484.63 -418.51,752.89l1871.03 2462.5zm1245.25 0.26l-27.27 2854.49 -1.16 -1.39 -0.01 1.39c-1005.99,-85.36 -1897.77,-545.85 -2541.32,-1237.36 -654.47,-703.27 -1052.19,-1645.3 -1052.19,-2674.55 0,-1084.18 439.46,-2065.77 1149.97,-2776.26 710.5,-710.51 1692.07,-1149.97 2776.26,-1149.97 442.6,0 879.38,75.15 1292.72,219.28 412.98,144.03 801.72,356.88 1148.71,632.41l-117.55 147.85 -2290.14 3014.07 -2291.18 -3015.42c-125.6,96.93 -244.79,201.76 -356.8,313.79 -88.55,88.54 -172.61,181.57 -251.84,278.71l2563.5 3391.66 -1.72 1.31zm-241.92 2599.33l24.85 -2383.87 -2950.54 0c170.84,465.93 432.82,888.72 765.25,1245.92 555.88,597.32 1308.53,1011.52 2160.44,1137.96zm648.12 -7352.44l575.17 757.48 444.5 -585.02c-327.74,-104.29 -670.87,-162.89 -1019.67,-172.46zm440.32 934.95l-708.19 -932.67c-309.79,13.7 -609.66,65.55 -895.07,150.91l1098.63 1445.92 504.63 -664.15zm792.07 -687.54l-1161.86 1529.15 558.11 734.55 1397.31 -1839.02c-247.49,-174.22 -514.14,-316.54 -793.57,-424.67zm-738.59 2441.16l-1871.94 -2463.72c-287.65,105.8 -558.51,246.34 -807.48,416.53l2117.45 2786.79 561.97 -739.6zm2507.75 -2097.72c-794.06,-794.06 -1891.1,-1285.2 -3102.81,-1285.2 -1211.74,0 -2308.76,491.14 -3102.82,1285.22 -794.05,794.04 -1285.21,1891.06 -1285.21,3102.8 0,1211.72 491.16,2308.75 1285.21,3102.8 794.06,794.08 1891.08,1285.22 3102.82,1285.22 1211.73,0 2308.75,-491.14 3102.79,-1285.22 794.07,-794.05 1285.22,-1891.08 1285.22,-3102.8 0,-1211.72 -491.15,-2308.76 -1285.2,-3102.82z"/>
   <path class="fil1" d="M9825.45 5525.88c156.01,0 282.49,126.49 282.49,282.5 0,155.99 -126.49,282.48 -282.49,282.48 -156,0 -282.48,-126.5 -282.48,-282.48 0,-156.02 126.49,-282.5 282.48,-282.5zm0 158.48c68.48,0 124.02,55.52 124.02,124.02 0,68.48 -55.54,124 -124.02,124 -68.5,0 -124.02,-55.52 -124.02,-124 0,-68.5 55.52,-124.02 124.02,-124.02z"/>
   <path class="fil1" d="M9800.76 3117.54c156.01,0 282.49,126.5 282.49,282.5 0,156 -126.49,282.48 -282.49,282.48 -156,0 -282.48,-126.49 -282.48,-282.48 0,-156.01 126.49,-282.5 282.48,-282.5zm0 158.48c68.48,0 124.01,55.52 124.01,124.02 0,68.48 -55.53,124 -124.01,124 -68.5,0 -124.02,-55.52 -124.02,-124 0,-68.5 55.52,-124.02 124.02,-124.02z"/>
  </g>
  <path class="fil0" d="M5012.12 12174.8l-681.39 -1337.2 -681.42 1337.2 -148.83 290.68 325.58 0 148.82 -290.68 355.84 -697.67 355.81 697.67 148.82 290.68 325.57 0 -148.82 -290.68zm2922.21 -1020.83l1165.56 0 0 -285.12 -1165.56 0c-237.2,0 -428.82,193.87 -428.82,431.09l0 734.47c0,237.2 191.61,431.07 428.82,431.07l1165.56 0 0 -285.12 -1165.56 0c-79.83,0 -145.98,-66.13 -145.98,-145.96l0 -301.08 1026.4 0 0 -285.13 -1026.4 0 0 -148.26c0,-79.83 66.15,-145.98 145.98,-145.98zm-6193.87 1031.04l519.23 0 0 -1035.65 -519.23 0 0 -280.5 1294.87 0 0 280.5 -519.23 0 0 1035.65 519.23 0 0 280.47 -1294.87 0 0 -280.47zm9270.3 -1315.36l-1027.86 0c-237.08,0 -428.6,193.81 -428.6,430.88l0 9.12c0,91.18 27.34,175.53 75.24,243.94 15.96,25.07 34.18,47.85 54.71,68.38 77.51,75.24 182.38,120.84 298.65,120.84l574.5 0c120.83,0 221.12,98.02 221.12,218.85 0,120.84 -100.32,218.86 -221.12,218.86l-952.1 0 0 284.97 952.1 0c278.12,0 503.81,-225.68 503.81,-503.82 0,-120.83 -43.3,-232.54 -113.98,-319.17 -6.85,-6.85 -11.4,-13.68 -18.24,-20.52 -91.2,-100.31 -223.42,-164.15 -371.59,-164.15l-574.5 0c-79.81,0 -145.92,-66.12 -145.92,-145.9l0 -9.12c0,-79.8 66.11,-145.92 145.92,-145.92l1027.86 0 0 -287.24zm-4624.24 -0.8l-798.33 0 0 1596.63 798.33 0c218.95,0 417.4,-88.93 561.11,-234.93 15.96,-15.97 31.93,-31.93 45.61,-47.91 118.61,-139.12 189.32,-319.32 189.32,-515.47 0,-442.51 -358.1,-798.32 -798.31,-798.32l2.28 0zm-2.28 1313.79l-513.23 0 0 -1028.68 513.23 0c282.82,0 513.2,230.75 513.2,514.34 0,283.6 -230.38,514.33 -513.2,514.33z"/>
 </g>
</svg>
