<svg width="246" height="246" viewBox="0 0 246 246" fill="none" xmlns="http://www.w3.org/2000/svg">
<rect width="246" height="246" rx="48" fill="#FF0032"/>
<path d="M74.6 19.5L56.6 56.9L38.6 19.5H18.9V76.1H32.7V35.6L50.3 69.8H62.9L80.5 35.6V76.1H94.3V19.5H74.6Z" fill="white"/>
<path d="M219.5 19.5L209 61.3L196.8 19.5H188.8H188.6H180.6L168.4 61.3L157.9 19.5H143.5L158 76.1H176.2L188.8 33.4L201.4 76.1H219.6L234.1 19.5H219.5Z" fill="white"/>
<path d="M197.4 193C188 192.3 179.9 191.7 179.9 186.7C179.9 181.2 185.5 180.2 195.1 180.2C203.5 180.2 209.3 181.3 210.3 186.8H226.2C225.1 174.9 215.2 169.4 195.1 169.4C175 169.4 164.5 175.2 164.5 187.1C164.5 202 181 203.2 194.2 204.1C203.6 204.8 211.8 205.3 211.8 210.7C211.8 216.3 205.5 217.5 195.9 217.5C183.5 217.5 180.4 214.8 179.4 209.8H163.5C164.8 223 174.2 228.3 195.9 228.3C206.8 228.3 214.5 226.9 219.5 224C224.6 221 227.2 216.3 227.2 209.7C227.3 195.2 210.7 194 197.4 193Z" fill="white"/>
</svg>
