<svg xmlns="http://www.w3.org/2000/svg" viewBox="0 0 24 24" width="24" height="24"><path d="M18.79 2a1 1 0 0 1 .866.5l2.702 4.682A4.496 4.496 0 0 1 21 13.242V20h1v2H2v-2h1v-6.758A4.496 4.496 0 0 1 1 9.5c0-.827.224-1.624.633-2.303L4.345 2.5a1 1 0 0 1 .866-.5H18.79Zm-3.54 10.612a4.496 4.496 0 0 1-6.5.002A4.496 4.496 0 0 1 5 13.973V20h14v-6.028a4.496 4.496 0 0 1-3.75-1.36ZM18.21 4H5.789L3.356 8.213a2.5 2.5 0 0 0 4.466 2.216c.335-.837 1.52-.837 1.856 0a2.5 2.5 0 0 0 4.644 0c.335-.837 1.52-.837 1.856 0a2.5 2.5 0 1 0 4.457-2.232L18.21 4Z"/></svg>