<svg xmlns="http://www.w3.org/2000/svg" viewBox="0 0 24 24" width="24" height="24"><path d="M21.542 9A9.98 9.98 0 0 1 22 12c0 5.523-4.477 10-10 10l4.287-7.425A4.977 4.977 0 0 0 17 12a4.978 4.978 0 0 0-1-3h5.542ZM3.339 6.998l4.283 7.419a4.999 4.999 0 0 0 4.976 2.548l-2.77 4.798h-.001C5.35 20.771 2 16.777 2 12c0-1.822.487-3.53 1.339-5.002Zm10.603 2.717a3 3 0 0 1 .656 3.785l-.026.045a2.999 2.999 0 0 1-5.17-.045l-.029-.05a3 3 0 0 1 4.57-3.735ZM12 2a9.996 9.996 0 0 1 8.662 5H12a5.001 5.001 0 0 0-4.599 3.035L4.632 5.239A9.974 9.974 0 0 1 12 2Z"/></svg>