<svg xmlns="http://www.w3.org/2000/svg" viewBox="0 0 24 24" width="24" height="24"><path d="M12 2c5.523 0 10 4.477 10 10s-4.477 10-10 10S2 17.523 2 12 6.477 2 12 2Zm7.602 7.5h-3.86c.495.74.76 1.61.758 2.5a4.48 4.48 0 0 1-.642 2.318l-3.268 5.66v.001A8 8 0 0 0 19.602 9.5ZM4.794 8.52a8.003 8.003 0 0 0 5.57 11.313h.001l1.93-3.342a4.499 4.499 0 0 1-4.234-2.315L4.794 8.52Zm5.624 1.544a2.5 2.5 0 0 0-.607 3.144l.024.042a2.499 2.499 0 0 0 4.308.038l.022-.038a2.5 2.5 0 0 0-3.747-3.186ZM12 4a7.98 7.98 0 0 0-5.764 2.451l-.201.217 1.929 3.34A4.5 4.5 0 0 1 12 7.5h6.615A7.992 7.992 0 0 0 12 4Z"/></svg>