<svg xmlns="http://www.w3.org/2000/svg" viewBox="0 0 24 24" width="24" height="24"><path d="M16.634 4.734V18.84h-2.83v-1.274h-.037c-.561.932-1.552 1.398-2.974 1.398-.98 0-1.848-.233-2.607-.7a4.709 4.709 0 0 1-1.755-1.908c-.412-.806-.619-1.711-.619-2.714 0-.98.21-1.873.628-2.68a4.792 4.792 0 0 1 1.755-1.908c.753-.466 1.6-.699 2.545-.699a4.31 4.31 0 0 1 1.585.278c.472.185.917.487 1.335.905V5.379l2.974-.645Zm-5.339 6.398c-.705 0-1.299.236-1.783.708-.483.471-.725 1.066-.725 1.783 0 .752.236 1.368.707 1.845.472.478 1.066.717 1.783.717.729 0 1.335-.245 1.819-.735.483-.49.725-1.099.725-1.827a2.52 2.52 0 0 0-.322-1.255 2.352 2.352 0 0 0-.905-.905 2.579 2.579 0 0 0-1.299-.331Z"/></svg>