<svg xmlns="http://www.w3.org/2000/svg" viewBox="0 0 24 24" width="24" height="24"><path d="M19.666 3C20.4 3 21 3.58 21 4.297v15.406C21 20.42 20.4 21 19.666 21H4.328C3.594 21 3 20.42 3 19.703V4.297C3 3.58 3.593 3 4.329 3Zm-5.114 2h-2.009l-.02 9.774c0 1.2-1.061 2.144-2.263 2.144-1.2 0-2.174-.972-2.174-2.171 0-1.199.974-2.17 2.174-2.17.09 0 .176.015.264.026v-2.096c-.088-.006-.175-.014-.264-.014A4.257 4.257 0 0 0 6 14.747 4.257 4.257 0 0 0 10.26 19a4.257 4.257 0 0 0 4.261-4.253V8.992a3.745 3.745 0 0 0 3.477 1.672H18v-2.33A3.739 3.739 0 0 1 14.552 5Z"/></svg>