<svg xmlns="http://www.w3.org/2000/svg" viewBox="0 0 24 24" width="24" height="24"><path d="M19.666 3C20.4 3 21 3.58 21 4.297v15.406C21 20.42 20.4 21 19.666 21H4.328C3.594 21 3 20.42 3 19.703V4.297C3 3.58 3.593 3 4.329 3Zm-3.032 1.734-2.974.645v4.158c-.418-.418-.863-.72-1.335-.905a4.31 4.31 0 0 0-1.585-.278c-.944 0-1.792.233-2.545.7a4.792 4.792 0 0 0-1.755 1.908c-.418.806-.628 1.699-.628 2.679 0 1.003.207 1.908.619 2.714a4.709 4.709 0 0 0 1.755 1.909c.759.466 1.628.699 2.607.699 1.422 0 2.413-.466 2.974-1.398h.036v1.274h2.831V4.734ZM13.096 15.45c-.484.49-1.09.735-1.819.735-.717 0-1.31-.239-1.783-.717-.471-.477-.707-1.093-.707-1.845 0-.717.242-1.312.725-1.783.484-.472 1.078-.708 1.783-.708.478 0 .91.11 1.299.331.388.221.69.523.905.905.215.383.322.8.322 1.255 0 .728-.242 1.338-.725 1.827Z"/></svg>