<svg xmlns="http://www.w3.org/2000/svg" viewBox="0 0 24 24" width="24" height="24"><path d="M20.375 2.515c1.125 1.123 1.062 2.995.125 5.242-.01.021-.018.043-.027.064A8.96 8.96 0 0 1 21.5 12c0 .38-.023.753-.069 1.12h-.804a4.104 4.104 0 0 1-.142.003H8.689v.187c.062 1.997 1.812 3.744 3.937 3.744 1.5 0 2.937-.811 3.562-1.997h4.78A9.003 9.003 0 0 1 8.612 20.12c-2.744 1.49-5.113 1.799-6.422.49-1.344-1.34-.628-4.851 1.313-8.373A23.204 23.204 0 0 1 7.127 7.32l.111-.11c.263-.263.813-.807 1.008-.968l.028-.022-.024.016c-.137.084-.45.273-.498.273-1.95 1.095-3.663 3.08-4.037 3.525a9.004 9.004 0 0 1 9.468-7.009c3.095-1.402 5.974-1.726 7.192-.51ZM4.033 15.057c-1.161 2.282-1.46 4.19-.469 5.18.813.812 2.438.624 4.438-.436l.003-.002a9.03 9.03 0 0 1-3.972-4.742Zm8.78-7.986c-2.125 0-3.936 1.685-4.061 3.62v.062h7.811v-.062c-.125-2.06-1.75-3.62-3.75-3.62ZM15.79 3.62a9.032 9.032 0 0 1 4.382 3.672l.015-.034c.75-1.622.813-2.994.125-3.806-.869-.868-2.54-.75-4.522.168Z"/></svg>