<svg xmlns="http://www.w3.org/2000/svg" viewBox="0 0 24 24" width="24" height="24"><path d="M20.375 2.516c1.125 1.123 1.062 2.995.125 5.242-.01.021-.018.043-.027.064A8.96 8.96 0 0 1 21.445 13H6.583a6.002 6.002 0 0 0 11.08 2.057h3.304A9.003 9.003 0 0 1 8.612 20.12c-2.744 1.491-5.113 1.8-6.422.491-1.344-1.34-.628-4.851 1.313-8.373a23.624 23.624 0 0 1 2.499-3.665c.359-.433.735-.852 1.125-1.252-.275.055-1.88.851-3.412 2.714a9.004 9.004 0 0 1 9.468-7.009c3.095-1.402 5.974-1.726 7.192-.51ZM4.033 15.057c-1.161 2.282-1.46 4.19-.469 5.18.813.812 2.438.624 4.438-.436l.003-.002a9.03 9.03 0 0 1-3.972-4.742Zm8.466-9.06A6.002 6.002 0 0 0 6.84 10h11.319a6.002 6.002 0 0 0-5.66-4.003ZM15.79 3.62a9.032 9.032 0 0 1 4.382 3.672l.015-.034c.75-1.622.813-2.994.125-3.806-.869-.868-2.54-.75-4.522.168Z"/></svg>