<svg xmlns="http://www.w3.org/2000/svg" viewBox="0 0 24 24" width="24" height="24"><path d="m15.216 2.023.194.007c.224.008.445.018.712.03 1.065.05 1.79.217 2.428.465.66.254 1.216.598 1.772 1.153.508.5.902 1.105 1.153 1.772.247.637.415 1.363.465 2.428l.022.52.007.192c.02.576.029 1.173.03 2.615v1.823a78.775 78.775 0 0 1-.022 2.188l-.007.194-.007.193c-.006.161-.014.329-.023.519-.05 1.065-.218 1.79-.465 2.428a4.883 4.883 0 0 1-1.153 1.772c-.5.508-1.105.902-1.772 1.153-.637.247-1.363.415-2.428.465l-.52.022-.192.007-.194.006c-.525.016-1.139.023-2.42.025h-1.824a68.683 68.683 0 0 1-2.382-.03l-.193-.007a81.617 81.617 0 0 1-.519-.023c-1.065-.05-1.79-.218-2.428-.465a4.89 4.89 0 0 1-1.772-1.153 4.904 4.904 0 0 1-1.153-1.772c-.248-.637-.415-1.363-.465-2.428a77.357 77.357 0 0 1-.03-.712l-.005-.194A79.021 79.021 0 0 1 2 13.028v-2.274c.003-1.053.01-1.584.025-2.068l.007-.192c.007-.193.016-.388.027-.616.05-1.066.217-1.79.465-2.428a4.88 4.88 0 0 1 1.153-1.772A4.897 4.897 0 0 1 5.45 2.525c.638-.248 1.362-.415 2.428-.465.914-.04 1.293-.056 3.094-.06l2.274.001c.983.002 1.51.008 1.97.022ZM12.57 4h-1.646a57.223 57.223 0 0 0-2.952.058c-.784.037-1.31.142-1.798.332a2.886 2.886 0 0 0-1.08.703 2.89 2.89 0 0 0-.704 1.08c-.19.49-.295 1.015-.331 1.798a49.144 49.144 0 0 0-.057 2.741v.719L4 12v1.077c.004 1.552.016 1.993.058 2.952.037.783.142 1.31.331 1.797.17.435.37.748.702 1.08.337.336.65.537 1.08.703.494.191 1.02.297 1.8.333.22.01.413.019.6.026l.222.008c.519.016 1.065.022 2.142.023h2.143c1.551-.003 1.992-.014 2.951-.057.782-.037 1.309-.142 1.797-.331a2.92 2.92 0 0 0 1.08-.702c.337-.337.538-.65.704-1.08.19-.493.296-1.02.332-1.8.01-.22.019-.413.026-.6l.008-.222c.016-.519.022-1.065.023-2.142v-2.143c-.003-1.551-.014-1.992-.057-2.951-.037-.782-.142-1.31-.332-1.798a2.911 2.911 0 0 0-.703-1.08 2.884 2.884 0 0 0-1.08-.704c-.49-.19-1.016-.295-1.798-.331a49.144 49.144 0 0 0-2.741-.057h-.719ZM12 7a5 5 0 1 1 0 10 5 5 0 0 1 0-10Zm0 2a3 3 0 1 0 0 6 3 3 0 0 0 0-6Zm5.25-3.5a1.25 1.25 0 1 1 0 2.5 1.25 1.25 0 0 1 0-2.5Z"/></svg>