<svg xmlns="http://www.w3.org/2000/svg" viewBox="0 0 24 24" width="24" height="24"><path d="M12.361 2c2.557.02 5.018.298 6.451.956 0 0 2.843 1.272 2.843 5.61v.31c-.003.856-.045 3.308-.397 5.114-.274 1.41-2.456 2.955-4.962 3.254-1.306.156-2.593.3-3.965.236-2.243-.103-4.014-.535-4.014-.535 0 .218.014.426.04.62.292 2.215 2.196 2.347 4 2.41 1.82.062 3.44-.45 3.44-.45l.076 1.646s-1.274.684-3.542.81c-1.25.068-2.803-.032-4.612-.51-3.923-1.039-4.598-5.22-4.701-9.464-.031-1.26-.012-2.447-.012-3.44 0-4.34 2.843-5.611 2.843-5.611 1.433-.658 3.892-.935 6.45-.956h.062Zm2.89 3.39c-1.065 0-1.871.41-2.405 1.228l-.518.87-.519-.87C11.276 5.8 10.47 5.39 9.405 5.39c-.921 0-1.663.324-2.229.955-.549.631-.822 1.484-.822 2.558v5.253h2.081V9.057c0-1.075.452-1.62 1.357-1.62 1 0 1.501.647 1.501 1.927v2.79h2.07v-2.79c0-1.28.5-1.927 1.5-1.927.905 0 1.358.545 1.358 1.62v5.1h2.08V8.902l.001.001c0-1.074-.273-1.927-.822-2.558-.567-.631-1.308-.955-2.229-.955Z"/></svg>