<svg xmlns="http://www.w3.org/2000/svg" viewBox="0 0 24 24" width="24" height="24"><path d="M12.361 2c2.557.02 5.018.298 6.451.956 0 0 2.843 1.272 2.843 5.61v.416c-.007.938-.059 3.271-.396 5.008-.275 1.41-2.457 2.955-4.963 3.254-1.306.156-2.593.3-3.965.236-2.243-.103-4.014-.535-4.014-.535 0 .218.014.426.04.62.084.633.299 1.095.605 1.435.766.85 2.106.93 3.395.974 1.82.063 3.44-.449 3.44-.449l.076 1.646s-1.274.684-3.542.81c-1.25.068-2.803-.032-4.612-.51-1.532-.406-2.568-1.29-3.27-2.471-1.093-1.843-1.368-4.406-1.431-6.992-.032-1.26-.012-2.448-.012-3.442 0-4.338 2.843-5.61 2.843-5.61 1.433-.658 3.892-.935 6.45-.956h.062Zm0 2h-.046c-2.54.02-4.62.308-5.65.782.023-.01-.021.014-.112.078-.218.156-.415.34-.584.548-.594.72-.963 1.729-.963 3.158v.253l-.003.622a77.14 77.14 0 0 0 .014 2.518c.054 2.197.264 3.835.7 5.041.212.587.472 1.07.78 1.45a5.7 5.7 0 0 1-.18-1.505h.001v-2.548l2.474.605a21.66 21.66 0 0 0 3.631.48c1.019.047 1.901-.017 3.636-.224 1.663-.199 3.148-1.196 3.236-1.65.082-.422.151-.922.206-1.482a33.6 33.6 0 0 0 .137-2.245c.01-.34.016-.647.017-.905v-.41c0-1.43-.369-2.438-.963-3.158a3.008 3.008 0 0 0-.584-.548c-.09-.064-.135-.089-.13-.087-1.013-.465-3.093-.752-5.617-.773ZM8.084 6.37a1.144 1.144 0 1 1 0 2.287 1.144 1.144 0 0 1 0-2.287Z"/></svg>