<svg xmlns="http://www.w3.org/2000/svg" viewBox="0 0 24 24" width="24" height="24"><path d="M12 2c5.523 0 10 4.477 10 10s-4.477 10-10 10S2 17.523 2 12 6.477 2 12 2Zm.5 17h-1v2h1v-2Zm2.641-.724-.924.382.765 1.848.924-.382-.765-1.848Zm-6.281 0-.765 1.848.924.382.765-1.848-.924-.382Zm9.151-12.994-1.414 1.415.103.103-6.114 3.786L6.8 16.7l-.104-.104-1.415 1.414.708.708 1.414-1.415L7.3 17.2l6.114-3.785L17.2 7.3l.104.104 1.415-1.414-.708-.708Zm-.708 11.314-.707.707 1.414 1.415.708-.708-1.415-1.414Zm1.32-2.275-.397.918 1.835.794.397-.918-1.835-.794Zm-13.281-.104-1.848.765.382.924 1.848-.765-.382-.924Zm9.581-5.14-2.235 3.61-1.376-1.375 3.611-2.235ZM21 11.5h-2v1h2v-1Zm-16 0H3v1h2v-1Zm15.124-3.406-1.848.765.382.924 1.848-.765-.382-.924ZM3.94 7.967l-.397.918 1.835.794.397-.918h-.001L3.94 7.967Zm2.05-2.685-.708.708 1.415 1.414.707-.707L5.99 5.282Zm3.028-1.788-.924.382.765 1.848.924-.382-.765-1.848Zm5.964 0-.765 1.848.924.382.765-1.848-.924-.382ZM12.5 3h-1v2h1V3Z"/></svg>