<svg xmlns="http://www.w3.org/2000/svg" viewBox="0 0 24 24" width="24" height="24"><path d="M12 2c5.523 0 10 4.477 10 10s-4.477 10-10 10S2 17.523 2 12 6.477 2 12 2Zm5.812 4.503-4.398 6.911-6.911 4.398A7.973 7.973 0 0 0 11 19.938V18h2v1.938a7.96 7.96 0 0 0 3.906-1.618l-1.37-1.37 1.414-1.414 1.37 1.37A7.96 7.96 0 0 0 19.938 13H18v-2h1.938a7.973 7.973 0 0 0-2.126-4.497ZM13 4.062V6h-2V4.062A7.96 7.96 0 0 0 7.094 5.68l1.37 1.37L7.05 8.464l-1.37-1.37A7.96 7.96 0 0 0 4.062 11H6v2H4.062a7.973 7.973 0 0 0 2.126 4.497l4.398-6.911 6.911-4.398A7.973 7.973 0 0 0 13 4.062Z"/></svg>