<svg xmlns="http://www.w3.org/2000/svg" viewBox="0 0 24 24" width="24" height="24"><path d="M12.1835 1.41016L12.1822 1.41016C9.09012 1.43158 6.70036 2.47326 5.09369 4.51569C3.66581 6.33087 2.93472 8.86436 2.91016 12.0068V12.0082C2.93472 15.1508 3.66586 17.6696 5.09369 19.4847C6.70043 21.5271 9.10257 22.5688 12.1946 22.5902H12.1958C14.944 22.5711 16.8929 21.8504 18.4985 20.2463C20.6034 18.1434 20.5408 15.5048 19.8456 13.8832C19.3163 12.6493 18.2709 11.6618 16.8701 11.0477C16.6891 8.06345 15.0097 6.32178 12.2496 6.30415C10.6191 6.29409 9.14792 7.02378 8.24685 8.39104L9.90238 9.5267C10.4353 8.71818 11.2789 8.32815 12.2371 8.33701C13.6244 8.34586 14.5362 9.11128 14.7921 10.4541C14.02 10.3333 13.1902 10.2982 12.3076 10.3488C9.66843 10.5008 7.9399 12.061 8.05516 14.2244C8.17571 16.4862 10.367 17.7186 12.4476 17.605C14.9399 17.4684 16.4209 15.6292 16.7722 13.2836C17.3493 13.6575 17.7751 14.1344 18.0163 14.6969C18.4559 15.7222 18.4838 17.4132 17.1006 18.7952C15.8838 20.0108 14.4211 20.5407 12.1891 20.5572C9.71428 20.5388 7.85698 19.746 6.65154 18.2136C5.51973 16.7748 4.92843 14.6882 4.90627 12.0002C4.92843 9.31211 5.51973 7.22549 6.65154 5.78673C7.85698 4.25433 9.71424 3.46156 12.189 3.44303C14.6819 3.4617 16.5728 4.25837 17.8254 5.79937C18.5162 6.64934 18.949 7.66539 19.2379 8.71407L21.1776 8.19656C20.8148 6.85917 20.2414 5.58371 19.363 4.50305C17.7098 2.46918 15.2816 1.43166 12.1835 1.41016ZM12.4204 12.3782C13.3044 12.3272 14.1239 12.3834 14.8521 12.5345C14.7114 14.1116 14.0589 15.4806 12.3401 15.575C11.2282 15.6376 10.1031 15.1413 10.0484 14.114C10.0077 13.3503 10.5726 12.4847 12.4204 12.3782Z"></path></svg>