<svg xmlns="http://www.w3.org/2000/svg" viewBox="0 0 24 24" width="24" height="24"><path d="M17.993 3.005c2.433-.001 4.005 1.511 4.005 4.495 0 1.72-.998 3.94-1.832 5.235-.248.385-.501.77-.759 1.154l-.39.573c-2.558 3.703-5.539 7.013-8.494 7.013-3.706 0-4.67-6.831-5.092-8.432-.422-1.601-.533-2.21-1.17-3.233-.317.22-.76.529-1.33.93a.5.5 0 0 1-.693-.117L.925 8.807a.5.5 0 0 1 .027-.62C3.779 4.915 6.128 3.278 8 3.278c2.392 0 3.124 2.816 3.324 4.223.3 2.117.69 4.738 1.244 5.872.557-.792 2.18-2.888 1.967-3.99-.094-.486-1.317.183-1.887.078-.425-.08-.806-.402-.806-1.026 0-1.31 1.852-5.43 6.151-5.43Zm.123 2L18 5.004c-2.195 0-3.251 1.533-3.653 2.208 1.25.046 1.97.818 2.133 1.803.389 2.33-1.916 4.92-2.339 5.565-.396.603-3.061 3.328-4.25-3.36a160.44 160.44 0 0 1-.665-4.186c-.17-1.151-.873-1.763-1.23-1.763-.842 0-1.92.65-3.855 2.515 1.905-.115 2.545 2.276 2.916 3.633.816 2.984 1.571 8.056 3.62 8.056 1.727 0 4.439-2.646 7.37-7.04.209-.311 1.966-3.024 1.966-5.036 0-2.24-1.286-2.385-1.897-2.394Z"/></svg>