<svg xmlns="http://www.w3.org/2000/svg" viewBox="0 0 24 24" width="24" height="24"><path d="M19.605 4.476c.945.266 1.687 1.04 1.938 2.022.4 1.56.45 4.602.456 5.339v.12l.001.032v.174c-.007.737-.057 3.78-.457 5.339-.254.985-.997 1.76-1.938 2.022-.667.186-1.971.299-3.314.368l-.505.024c-1.51.066-2.976.08-3.541.083h-.49c-1.13-.006-5.857-.057-7.36-.475-.945-.266-1.687-1.04-1.938-2.022-.386-1.504-.446-4.387-.455-5.251v-.502c.01-.864.07-3.747.455-5.251.254-.985.997-1.76 1.938-2.022 1.461-.406 5.97-.466 7.258-.475h.694c1.289.01 5.8.069 7.258.475ZM12.38 6.001 12 6c-4.5 0-6.628.28-7.069.403-.244.068-.46.293-.537.592C4.285 7.419 4 9.196 4 12s.285 4.58.394 5.006c.076.297.292.522.538.59C5.372 17.72 7.5 18 12 18s6.629-.28 7.069-.403c.244-.068.46-.293.537-.592C19.715 16.581 20 14.8 20 12s-.285-4.58-.394-5.005c-.076-.298-.292-.523-.539-.592-.425-.12-2.447-.387-6.687-.402ZM10 8.5l6 3.5-6 3.5v-7Z"/></svg>