<svg width="128" height="128" viewBox="0 0 128 128" fill="none" xmlns="http://www.w3.org/2000/svg">
<path d="M86.6398 29C78.1121 29 71.4459 35.4229 65.4114 43.5819C57.1189 33.0233 50.1838 29 41.8845 29C24.9643 29 12 51.0202 12 74.3272C12 88.912 19.0559 98.1109 30.8745 98.1109C39.3807 98.1109 45.4983 94.1007 56.374 75.0898C56.374 75.0898 60.9075 67.0839 64.0263 61.5691C65.1192 63.3336 66.2702 65.235 67.4794 67.2732L72.5793 75.8524C82.5138 92.4769 88.049 98.1109 98.0789 98.1109C109.592 98.1109 116 88.7863 116 73.8983C116 49.495 102.743 29 86.6398 29ZM48.0807 69.9423C39.2631 83.7645 36.2127 86.8625 31.3034 86.8625C26.2512 86.8625 23.2484 82.4271 23.2484 74.5179C23.2484 57.5976 31.6847 40.2961 41.7415 40.2961C47.1876 40.2961 51.7387 43.4413 58.7098 53.4211C52.0904 63.5743 48.0807 69.9423 48.0807 69.9423ZM81.3596 68.2022L75.2619 58.0326C73.6118 55.3489 72.0259 52.8787 70.5044 50.6219C76.0001 42.1395 80.5333 37.9129 85.9249 37.9129C97.1256 37.9129 106.086 54.4042 106.086 74.6609C106.086 82.3823 103.557 86.8626 98.3172 86.8626C93.2948 86.8625 90.8956 83.5456 81.3596 68.2022Z" fill="white"/>
</svg>
