<svg width="128" height="128" viewBox="0 0 128 128" fill="none" xmlns="http://www.w3.org/2000/svg">
<g clip-path="url(#clip0_1_57)">
<path d="M46.8507 19.0306C45.8392 19.1949 44.6253 19.727 43.7694 20.3842C41.1783 22.3637 39.1707 26.5653 38.3225 31.7996C38.0035 33.7791 37.7857 36.5254 37.7857 38.6223C37.7857 41.0947 38.0736 44.2556 38.486 46.4385C38.5793 46.9237 38.626 47.354 38.5871 47.3853C38.556 47.4166 38.1747 47.7295 37.7467 48.0738C36.2839 49.2474 34.6109 51.0548 33.4593 52.7058C31.2494 55.8589 29.8177 59.4423 29.2185 63.3231C28.9851 64.8566 28.9228 67.9549 29.1096 69.4884C29.522 73.025 30.5802 76.0138 32.3932 78.7523L32.9846 79.6364L32.8134 79.9259C31.5996 81.9758 30.5647 84.9412 30.0822 87.7891C29.7009 90.0425 29.6542 90.6449 29.6542 93.665C29.6542 96.7087 29.6932 97.3111 30.0511 99.4158C30.4791 101.935 31.3506 104.603 32.3232 106.379C32.6422 106.958 33.4204 108.163 33.5137 108.226C33.5449 108.241 33.4515 108.531 33.3037 108.867C32.1831 111.332 31.2261 114.61 30.8292 117.372C30.5491 119.266 30.5102 119.876 30.5102 121.871C30.5102 124.414 30.6502 125.65 31.1794 127.677L31.2572 127.974H34.5876H37.9257L37.7078 127.559C36.3617 125.055 36.2372 120.408 37.3966 115.768C37.9257 113.624 38.5249 112.052 39.6454 109.884L40.3146 108.57V107.764C40.3146 107.013 40.299 106.927 40.0578 106.434C39.871 106.058 39.622 105.738 39.1785 105.3C38.4237 104.564 37.879 103.79 37.4433 102.835C35.5291 98.6568 35.1556 92.4524 36.5017 87.1632C37.062 84.9568 37.988 82.993 38.9606 81.9211C39.622 81.1855 39.9644 80.3641 39.9644 79.5112C39.9644 78.6271 39.6531 77.8994 38.9528 77.1405C36.9453 74.9811 35.7081 72.3521 35.2645 69.2929C34.6342 64.9348 35.7781 60.1855 38.377 56.4222C40.9215 52.7291 44.4931 50.3584 48.4849 49.7247C49.3797 49.576 51.0527 49.5995 51.9864 49.7717C53.0058 49.9517 53.6438 49.8968 54.2975 49.5838C55.1067 49.2005 55.5114 48.7232 55.986 47.6278C56.4062 46.6499 56.733 46.1178 57.6123 45.0146C58.6705 43.6923 59.6898 42.7925 61.3239 41.7049C63.1915 40.4766 65.3157 39.5847 67.4322 39.1543C68.2025 38.9978 68.5604 38.9743 70 38.9743C71.4396 38.9743 71.7975 38.9978 72.5678 39.1543C75.6725 39.7881 78.7539 41.3999 81.2128 43.6844C81.7419 44.1773 83.0102 45.7578 83.4149 46.4152C83.5705 46.6732 83.8429 47.221 84.014 47.6278C84.4886 48.7232 84.8933 49.2005 85.7025 49.5838C86.3329 49.889 86.9942 49.9517 87.9746 49.7873C89.5231 49.5213 90.7136 49.5448 92.231 49.8577C97.3978 50.9061 101.895 55.186 103.887 60.9211C105.623 65.9519 105.132 71.2176 102.549 75.2392C102.113 75.92 101.677 76.4676 101.047 77.1405C99.6854 78.6036 99.6854 80.4188 101.039 81.9211C103.265 84.37 104.658 90.3946 104.237 95.7072C103.957 99.2124 103.063 102.35 101.833 104.126C101.615 104.439 101.164 104.971 100.821 105.3C100.378 105.738 100.129 106.058 99.9422 106.434C99.701 106.927 99.6854 107.013 99.6854 107.764V108.57L100.355 109.884C101.475 112.052 102.074 113.624 102.603 115.768C103.747 120.345 103.646 124.899 102.339 127.489C102.23 127.708 102.137 127.911 102.137 127.935C102.137 127.958 103.623 127.974 105.444 127.974H108.743L108.828 127.637C108.875 127.458 108.953 127.184 108.992 127.027C109.077 126.683 109.249 125.666 109.389 124.688C109.521 123.702 109.521 120.071 109.389 118.976C108.891 115.001 108.058 111.848 106.696 108.867C106.549 108.531 106.455 108.241 106.486 108.226C106.525 108.202 106.743 107.889 106.976 107.537C108.673 104.955 109.715 101.708 110.245 97.4207C110.385 96.2391 110.385 91.1613 110.245 90.0268C109.871 87.1006 109.42 85.1132 108.673 83.1025C108.362 82.2653 107.537 80.4971 107.187 79.9259L107.015 79.6364L107.607 78.7523C109.42 76.0138 110.478 73.025 110.89 69.4884C111.077 67.9549 111.015 64.8566 110.782 63.3231C110.175 59.4344 108.751 55.8666 106.541 52.7058C105.389 51.0548 103.716 49.2474 102.253 48.0738C101.825 47.7295 101.444 47.4166 101.413 47.3853C101.374 47.354 101.421 46.9237 101.514 46.4385C102.456 41.5015 102.424 35.344 101.436 30.5321C100.58 26.3384 99.0241 23.0053 97.0165 21.0805C95.4135 19.547 93.7795 18.8898 91.8186 19.015C87.321 19.281 83.695 24.484 82.2632 32.6837C82.0298 34.006 81.8276 35.5552 81.8276 35.9777C81.8276 36.142 81.7963 36.275 81.7575 36.275C81.7185 36.275 81.4151 36.1185 81.0883 35.923C77.6179 33.8573 73.7583 32.7542 70 32.7542C66.2417 32.7542 62.3821 33.8573 58.9117 35.923C58.5849 36.1185 58.2815 36.275 58.2425 36.275C58.2037 36.275 58.1725 36.142 58.1725 35.9777C58.1725 35.5395 57.9624 33.9435 57.7368 32.6837C56.4373 25.3212 53.4571 20.4468 49.4964 19.2184C48.9518 19.0541 47.4033 18.9446 46.8507 19.0306ZM48.1737 25.3995C49.2941 26.2914 50.5391 28.8421 51.255 31.6979C51.3873 32.2143 51.5273 32.8089 51.5662 33.0279C51.5973 33.2393 51.6829 33.7165 51.753 34.0843C52.0565 35.743 52.1965 37.5347 52.2121 39.7177L52.2198 41.8693L51.6829 42.6673L51.1461 43.4732H49.8932C48.4304 43.4732 46.9753 43.6611 45.5824 44.0366C45.0844 44.1618 44.602 44.287 44.5087 44.3105C44.3608 44.3417 44.3374 44.2948 44.2519 43.6532C43.7927 40.1714 43.8161 36.3142 44.3219 33.1062C44.8821 29.5306 46.1894 26.2914 47.4655 25.3369C47.769 25.11 47.8234 25.1178 48.1737 25.3995ZM92.5423 25.3447C93.3126 25.9159 94.1608 27.4337 94.791 29.3741C96.0594 33.2549 96.4173 38.5831 95.7481 43.6532C95.6626 44.2948 95.6392 44.3417 95.4913 44.3105C95.398 44.287 94.9156 44.1618 94.4176 44.0366C93.0247 43.6611 91.5696 43.4732 90.1068 43.4732H88.8539L88.3171 42.6673L87.7802 41.8693L87.7879 39.7177C87.8035 36.6819 88.0837 34.3112 88.7527 31.6744C89.4609 28.8421 90.7136 26.2914 91.8263 25.3995C92.1766 25.1178 92.231 25.11 92.5423 25.3447Z" fill="black"/>
<path d="M68.7939 64.7235C67.1052 64.8879 66.6463 64.9504 65.8369 65.1148C64.5219 65.3886 62.7633 65.9989 61.5417 66.6013C57.2932 68.6903 54.3675 72.1721 53.4726 76.2015C53.2936 76.9996 53.2702 77.2656 53.2702 78.6114C53.2702 79.9415 53.2936 80.2309 53.4648 80.9899C54.6553 86.2556 59.4796 90.1442 65.7203 90.8561C67.0742 91.0048 72.9257 91.0048 74.2796 90.8561C79.2908 90.285 83.6016 87.5544 85.5391 83.7205C86.0526 82.6956 86.3016 82.0305 86.5351 80.9899C86.7063 80.2309 86.7297 79.9415 86.7297 78.6114C86.7297 77.2656 86.7063 76.9996 86.5273 76.2015C85.2278 70.3491 79.5786 65.7407 72.6533 64.8644C71.7507 64.7549 69.3853 64.6609 68.7939 64.7235ZM71.704 68.9798C74.0151 69.2302 76.3417 70.0596 78.2091 71.3114C79.2129 71.9843 80.6292 73.3927 81.236 74.316C81.983 75.4582 82.4109 76.624 82.6055 78.0402C82.6911 78.6896 82.6445 79.1825 82.4109 80.2309C82.0452 81.7957 80.9092 83.431 79.3763 84.5733C78.6604 85.0975 77.1742 85.8566 76.2639 86.1538C74.5364 86.7093 73.4081 86.811 69.3774 86.7797C66.7474 86.7563 66.2804 86.7328 65.5257 86.592C62.9502 86.1069 60.9115 85.074 59.433 83.5014C58.2347 82.2339 57.69 81.076 57.3943 79.206C57.2621 78.3375 57.511 76.8979 58.0168 75.6851C58.6316 74.2063 60.2189 72.3678 61.7907 71.3114C63.6115 70.0909 66.0082 69.2225 68.2102 68.9877C69.0584 68.8938 70.8558 68.8938 71.704 68.9798Z" fill="black"/>
<path d="M67.0277 74.6916C66.4363 75.0123 66.0239 75.826 66.1484 76.4284C66.2884 77.0779 66.8565 77.7352 67.7435 78.2751C68.2182 78.5645 68.2493 78.6036 68.2727 78.8931C68.2882 79.0652 68.226 79.5582 68.1404 79.9963C68.047 80.4266 67.9769 80.8805 67.9769 81.0057C67.9848 81.3421 68.296 81.8898 68.6228 82.1558C68.9108 82.3905 68.9652 82.3983 69.7744 82.4218C70.5137 82.4453 70.6693 82.4296 70.965 82.2888C71.7276 81.9132 71.922 81.2247 71.6419 79.9024C71.4085 78.7993 71.4552 78.6271 72.0388 78.2906C72.6534 77.9307 73.3072 77.297 73.5016 76.8666C73.8752 76.0452 73.5327 75.1141 72.7079 74.6837C72.5057 74.582 72.2566 74.5351 71.8909 74.5351C71.3229 74.5351 70.9572 74.6681 70.288 75.0984L69.9067 75.341L69.6655 75.1923C68.6773 74.6054 68.4984 74.5351 67.8991 74.5429C67.4712 74.5429 67.2378 74.582 67.0277 74.6916Z" fill="black"/>
<path d="M48.1347 65.6077C46.7574 66.0459 45.7303 67.063 45.2012 68.5105C44.9444 69.1991 44.8199 70.2867 44.9288 70.8734C45.1856 72.2739 46.3294 73.5493 47.629 73.9014C49.263 74.3317 50.4846 74.05 51.5662 72.9703C52.1965 72.3522 52.5389 71.8123 52.8813 70.9359C53.1302 70.3179 53.1458 70.2084 53.1458 69.3321L53.1536 68.3932L52.8268 67.7203C52.3054 66.6562 51.3639 65.8659 50.2746 65.5764C49.6598 65.42 48.6716 65.4279 48.1347 65.6077Z" fill="black"/>
<path d="M89.6943 65.5844C88.6283 65.8738 87.679 66.6718 87.1732 67.7203L86.8464 68.3932L86.8542 69.3321C86.8542 70.2084 86.8698 70.3179 87.1187 70.936C87.4612 71.8123 87.8035 72.3522 88.4338 72.9703C89.5154 74.05 90.737 74.3317 92.3712 73.9014C93.3126 73.651 94.2541 72.8529 94.7055 71.9218C95.0945 71.1316 95.1878 70.5604 95.0634 69.6606C94.7756 67.6029 93.5772 66.1086 91.7952 65.5844C91.2739 65.4279 90.2624 65.4279 89.6943 65.5844Z" fill="black"/>
</g>
<defs>
<clipPath id="clip0_1_57">
<rect width="82" height="109" fill="white" transform="translate(29 19)"/>
</clipPath>
</defs>
</svg>
