<svg width="128" height="128" viewBox="0 0 128 128" fill="none" xmlns="http://www.w3.org/2000/svg">
<g clip-path="url(#clip0_1_74)">
<path d="M40.8507 19.0306C39.8392 19.1949 38.6253 19.727 37.7694 20.3842C35.1783 22.3637 33.1707 26.5653 32.3225 31.7996C32.0035 33.7791 31.7857 36.5254 31.7857 38.6223C31.7857 41.0947 32.0736 44.2556 32.486 46.4385C32.5793 46.9237 32.626 47.354 32.5871 47.3853C32.556 47.4166 32.1747 47.7295 31.7467 48.0738C30.2839 49.2474 28.6109 51.0548 27.4593 52.7058C25.2494 55.8589 23.8177 59.4423 23.2185 63.3231C22.9851 64.8566 22.9228 67.9549 23.1096 69.4884C23.522 73.025 24.5802 76.0138 26.3932 78.7523L26.9846 79.6364L26.8134 79.9259C25.5996 81.9758 24.5647 84.9412 24.0822 87.7891C23.7009 90.0425 23.6542 90.6449 23.6542 93.665C23.6542 96.7087 23.6932 97.3111 24.0511 99.4158C24.4791 101.935 25.3506 104.603 26.3232 106.379C26.6422 106.958 27.4204 108.163 27.5137 108.226C27.5449 108.241 27.4515 108.531 27.3037 108.867C26.1831 111.332 25.2261 114.61 24.8292 117.372C24.5491 119.266 24.5102 119.876 24.5102 121.871C24.5102 124.414 24.6502 125.65 25.1794 127.677L25.2572 127.974H28.5876H31.9257L31.7078 127.559C30.3617 125.055 30.2372 120.408 31.3966 115.768C31.9257 113.624 32.5249 112.052 33.6454 109.884L34.3146 108.57V107.764C34.3146 107.013 34.299 106.927 34.0578 106.434C33.871 106.058 33.622 105.738 33.1785 105.3C32.4237 104.564 31.879 103.79 31.4433 102.835C29.5291 98.6568 29.1556 92.4524 30.5017 87.1632C31.062 84.9568 31.988 82.993 32.9606 81.9211C33.622 81.1855 33.9644 80.3641 33.9644 79.5112C33.9644 78.6271 33.6531 77.8994 32.9528 77.1405C30.9453 74.9811 29.7081 72.3521 29.2645 69.2929C28.6342 64.9348 29.7781 60.1855 32.377 56.4222C34.9215 52.7291 38.4931 50.3584 42.4849 49.7247C43.3797 49.576 45.0527 49.5995 45.9864 49.7717C47.0058 49.9517 47.6438 49.8968 48.2975 49.5838C49.1067 49.2005 49.5114 48.7232 49.986 47.6278C50.4062 46.6499 50.733 46.1178 51.6123 45.0146C52.6705 43.6923 53.6898 42.7925 55.3239 41.7049C57.1915 40.4766 59.3157 39.5847 61.4322 39.1543C62.2025 38.9978 62.5604 38.9743 64 38.9743C65.4396 38.9743 65.7975 38.9978 66.5678 39.1543C69.6725 39.7881 72.7539 41.3999 75.2128 43.6844C75.7419 44.1773 77.0102 45.7578 77.4149 46.4152C77.5705 46.6732 77.8429 47.221 78.014 47.6278C78.4886 48.7232 78.8933 49.2005 79.7025 49.5838C80.3329 49.889 80.9942 49.9517 81.9746 49.7873C83.5231 49.5213 84.7136 49.5448 86.231 49.8577C91.3978 50.9061 95.8953 55.186 97.8873 60.9211C99.6225 65.9519 99.1323 71.2176 96.5489 75.2392C96.1132 75.92 95.6774 76.4676 95.0472 77.1405C93.6854 78.6036 93.6854 80.4188 95.0394 81.9211C97.2648 84.37 98.6577 90.3946 98.2374 95.7072C97.9574 99.2124 97.0625 102.35 95.833 104.126C95.6152 104.439 95.1639 104.971 94.8215 105.3C94.378 105.738 94.129 106.058 93.9422 106.434C93.701 106.927 93.6854 107.013 93.6854 107.764V108.57L94.3546 109.884C95.4752 112.052 96.0743 113.624 96.6034 115.768C97.7473 120.345 97.6462 124.899 96.3389 127.489C96.2299 127.708 96.1365 127.911 96.1365 127.935C96.1365 127.958 97.6228 127.974 99.4436 127.974H102.743L102.828 127.637C102.875 127.458 102.953 127.184 102.992 127.027C103.077 126.683 103.249 125.666 103.389 124.688C103.521 123.702 103.521 120.071 103.389 118.976C102.891 115.001 102.058 111.848 100.696 108.867C100.549 108.531 100.455 108.241 100.486 108.226C100.525 108.202 100.743 107.889 100.976 107.537C102.673 104.955 103.715 101.708 104.245 97.4207C104.385 96.2391 104.385 91.1613 104.245 90.0268C103.871 87.1006 103.42 85.1132 102.673 83.1025C102.362 82.2653 101.537 80.4971 101.187 79.9259L101.015 79.6364L101.607 78.7523C103.42 76.0138 104.478 73.025 104.89 69.4884C105.077 67.9549 105.015 64.8566 104.782 63.3231C104.175 59.4344 102.751 55.8666 100.541 52.7058C99.3891 51.0548 97.7161 49.2474 96.2533 48.0738C95.8253 47.7295 95.444 47.4166 95.4129 47.3853C95.374 47.354 95.4207 46.9237 95.514 46.4385C96.4556 41.5015 96.4244 35.344 95.4362 30.5321C94.5803 26.3384 93.0241 23.0053 91.0165 21.0805C89.4135 19.547 87.7795 18.8898 85.8186 19.015C81.321 19.281 77.695 24.484 76.2632 32.6837C76.0298 34.006 75.8276 35.5552 75.8276 35.9777C75.8276 36.142 75.7963 36.275 75.7575 36.275C75.7185 36.275 75.4151 36.1185 75.0883 35.923C71.6179 33.8573 67.7583 32.7542 64 32.7542C60.2417 32.7542 56.3821 33.8573 52.9117 35.923C52.5849 36.1185 52.2815 36.275 52.2425 36.275C52.2037 36.275 52.1725 36.142 52.1725 35.9777C52.1725 35.5395 51.9624 33.9435 51.7368 32.6837C50.4373 25.3212 47.4571 20.4468 43.4964 19.2184C42.9518 19.0541 41.4033 18.9446 40.8507 19.0306ZM42.1737 25.3995C43.2941 26.2914 44.5391 28.8421 45.255 31.6979C45.3873 32.2143 45.5273 32.8089 45.5662 33.0279C45.5973 33.2393 45.6829 33.7165 45.753 34.0843C46.0565 35.743 46.1965 37.5347 46.2121 39.7177L46.2198 41.8693L45.6829 42.6673L45.1461 43.4732H43.8932C42.4304 43.4732 40.9753 43.6611 39.5824 44.0366C39.0844 44.1618 38.602 44.287 38.5087 44.3105C38.3608 44.3417 38.3374 44.2948 38.2519 43.6532C37.7927 40.1714 37.8161 36.3142 38.3219 33.1062C38.8821 29.5306 40.1894 26.2914 41.4655 25.3369C41.769 25.11 41.8234 25.1178 42.1737 25.3995ZM86.5423 25.3447C87.3126 25.9159 88.1608 27.4337 88.791 29.3741C90.0594 33.2549 90.4173 38.5831 89.7481 43.6532C89.6626 44.2948 89.6392 44.3417 89.4913 44.3105C89.398 44.287 88.9156 44.1618 88.4176 44.0366C87.0247 43.6611 85.5696 43.4732 84.1068 43.4732H82.8539L82.3171 42.6673L81.7802 41.8693L81.7879 39.7177C81.8035 36.6819 82.0837 34.3112 82.7527 31.6744C83.4609 28.8421 84.7136 26.2914 85.8263 25.3995C86.1766 25.1178 86.231 25.11 86.5423 25.3447Z" fill="white"/>
<path d="M62.7939 64.7235C61.1052 64.8879 60.6462 64.9504 59.8369 65.1148C58.5219 65.3886 56.7633 65.9989 55.5417 66.6013C51.2932 68.6903 48.3674 72.1721 47.4726 76.2015C47.2936 76.9996 47.2702 77.2656 47.2702 78.6114C47.2702 79.9415 47.2936 80.2309 47.4648 80.9899C48.6553 86.2556 53.4796 90.1442 59.7203 90.8561C61.0741 91.0048 66.9257 91.0048 68.2796 90.8561C73.2907 90.285 77.6016 87.5544 79.5391 83.7205C80.0526 82.6956 80.3016 82.0305 80.5351 80.9899C80.7063 80.2309 80.7296 79.9415 80.7296 78.6114C80.7296 77.2656 80.7063 76.9996 80.5273 76.2015C79.2277 70.3491 73.5786 65.7407 66.6533 64.8644C65.7507 64.7549 63.3852 64.6609 62.7939 64.7235ZM65.704 68.9798C68.0151 69.2302 70.3417 70.0596 72.2091 71.3114C73.2129 71.9843 74.6291 73.3927 75.236 74.316C75.983 75.4582 76.4109 76.624 76.6055 78.0402C76.6911 78.6896 76.6445 79.1825 76.4109 80.2309C76.0452 81.7957 74.9092 83.431 73.3763 84.5733C72.6604 85.0975 71.1742 85.8566 70.2639 86.1538C68.5364 86.7093 67.4081 86.811 63.3774 86.7797C60.7474 86.7563 60.2804 86.7328 59.5257 86.592C56.9502 86.1069 54.9115 85.074 53.433 83.5014C52.2346 82.2339 51.69 81.076 51.3943 79.206C51.2621 78.3375 51.511 76.8979 52.0168 75.6851C52.6316 74.2063 54.2189 72.3678 55.7907 71.3114C57.6115 70.0909 60.0081 69.2225 62.2102 68.9877C63.0584 68.8938 64.8558 68.8938 65.704 68.9798Z" fill="white"/>
<path d="M61.0277 74.6916C60.4363 75.0123 60.0239 75.826 60.1484 76.4284C60.2884 77.0779 60.8565 77.7352 61.7435 78.2751C62.2182 78.5645 62.2493 78.6036 62.2727 78.8931C62.2882 79.0652 62.226 79.5582 62.1404 79.9963C62.047 80.4266 61.9769 80.8805 61.9769 81.0057C61.9848 81.3421 62.296 81.8898 62.6228 82.1558C62.9108 82.3905 62.9652 82.3983 63.7744 82.4218C64.5137 82.4453 64.6693 82.4296 64.965 82.2888C65.7276 81.9132 65.922 81.2247 65.6419 79.9024C65.4085 78.7993 65.4552 78.6271 66.0388 78.2906C66.6534 77.9307 67.3072 77.297 67.5016 76.8666C67.8752 76.0452 67.5327 75.1141 66.7079 74.6837C66.5057 74.582 66.2566 74.5351 65.8909 74.5351C65.3229 74.5351 64.9572 74.6681 64.288 75.0984L63.9067 75.341L63.6655 75.1923C62.6773 74.6054 62.4984 74.5351 61.8991 74.5429C61.4712 74.5429 61.2378 74.582 61.0277 74.6916Z" fill="white"/>
<path d="M42.1347 65.6077C40.7574 66.0459 39.7303 67.063 39.2012 68.5105C38.9444 69.1991 38.8199 70.2867 38.9288 70.8734C39.1856 72.2739 40.3294 73.5493 41.629 73.9014C43.263 74.3317 44.4846 74.05 45.5662 72.9703C46.1965 72.3522 46.5389 71.8123 46.8813 70.9359C47.1302 70.3179 47.1458 70.2084 47.1458 69.3321L47.1536 68.3932L46.8268 67.7203C46.3054 66.6562 45.3639 65.8659 44.2746 65.5764C43.6598 65.42 42.6716 65.4279 42.1347 65.6077Z" fill="white"/>
<path d="M83.6943 65.5844C82.6283 65.8738 81.679 66.6718 81.1732 67.7203L80.8464 68.3932L80.8542 69.3321C80.8542 70.2084 80.8698 70.3179 81.1187 70.936C81.4612 71.8123 81.8035 72.3522 82.4338 72.9703C83.5154 74.05 84.737 74.3317 86.3712 73.9014C87.3126 73.651 88.2541 72.8529 88.7055 71.9218C89.0945 71.1316 89.1878 70.5604 89.0634 69.6606C88.7756 67.6029 87.5772 66.1086 85.7952 65.5844C85.2739 65.4279 84.2624 65.4279 83.6943 65.5844Z" fill="white"/>
</g>
<defs>
<clipPath id="clip0_1_74">
<rect width="82" height="109" fill="white" transform="translate(23 19)"/>
</clipPath>
</defs>
</svg>
