<svg width="128" height="128" viewBox="0 0 128 128" fill="none" xmlns="http://www.w3.org/2000/svg">
<mask id="mask0_1_180" style="mask-type:luminance" maskUnits="userSpaceOnUse" x="16" y="17" width="96" height="95">
<path d="M111.63 17H16V111.776H111.63V17Z" fill="white"/>
</mask>
<g mask="url(#mask0_1_180)">
<path d="M52.6782 51.4983V42.4945C52.6782 41.7362 52.9628 41.1674 53.6259 40.7887L71.7287 30.3633C74.1928 28.9418 77.131 28.2787 80.1634 28.2787C91.5363 28.2787 98.7398 37.093 98.7398 46.4755C98.7398 47.1387 98.7398 47.897 98.6448 48.6553L79.879 37.6611C78.7418 36.998 77.6041 36.998 76.4669 37.6611L52.6782 51.4983ZM94.9483 86.5657V65.0511C94.9483 63.7239 94.3793 62.7762 93.2423 62.1129L69.4536 48.2757L77.2252 43.8209C77.8885 43.4423 78.4574 43.4423 79.1207 43.8209L97.2232 54.2463C102.436 57.2795 105.943 63.7239 105.943 69.9787C105.943 77.1815 101.678 83.8162 94.9483 86.5649V86.5657ZM47.0865 67.6106L39.3148 63.0616C38.6518 62.683 38.3671 62.1139 38.3671 61.3556V40.5051C38.3671 30.3643 46.1387 22.6869 56.6591 22.6869C60.6402 22.6869 64.3357 24.0141 67.4641 26.3834L48.7933 37.1882C47.6563 37.8513 47.0875 38.799 47.0875 40.1264V67.6114L47.0865 67.6106ZM63.8147 77.2775L52.6782 71.0225V57.7543L63.8147 51.4993L74.9503 57.7543V71.0225L63.8147 77.2775ZM70.9702 106.09C66.9893 106.09 63.2938 104.763 60.1654 102.394L78.836 91.5886C79.9732 90.9255 80.542 89.9777 80.542 88.6504V61.1654L88.4089 65.7144C89.072 66.093 89.3566 66.6619 89.3566 67.4204V88.2709C89.3566 98.4117 81.4898 106.089 70.9702 106.089V106.09ZM48.5081 84.9549L30.4053 74.5297C25.1922 71.4963 21.686 65.0521 21.686 58.7971C21.686 51.4993 26.0457 44.9598 32.7744 42.2111V63.8199C32.7744 65.1471 33.3435 66.0948 34.4804 66.7581L58.1749 80.5001L50.4033 84.9549C49.7402 85.3335 49.1711 85.3335 48.5081 84.9549ZM47.4661 100.498C36.7563 100.498 28.8897 92.4421 28.8897 82.4906C28.8897 81.7323 28.9847 80.974 29.0789 80.2157L47.7498 91.0205C48.8867 91.6838 50.0246 91.6838 51.1616 91.0205L74.9503 77.2785V86.2823C74.9503 87.0406 74.6659 87.6094 74.0026 87.9881L55.9 98.4134C53.4357 99.835 50.4975 100.498 47.4651 100.498H47.4661ZM70.9702 111.776C82.4383 111.776 92.0101 103.626 94.1908 92.8207C104.806 90.072 111.629 80.1205 111.629 69.9797C111.629 63.3451 108.787 56.9008 103.668 52.2566C104.142 50.2662 104.427 48.2757 104.427 46.2862C104.427 32.7334 93.4325 22.5917 80.7323 22.5917C78.1739 22.5917 75.7096 22.9704 73.2453 23.8239C68.9797 19.6536 63.1036 17 56.6591 17C45.1912 17 35.6194 25.1503 33.4387 35.9551C22.8239 38.7038 16 48.6553 16 58.7961C16 65.4307 18.843 71.875 23.961 76.5192C23.4872 78.5096 23.2027 80.5001 23.2027 82.4898C23.2027 96.0426 34.197 106.184 46.897 106.184C49.4556 106.184 51.9199 105.805 54.3842 104.952C58.6488 109.122 64.5249 111.776 70.9702 111.776Z" fill="black"/>
</g>
</svg>
