<svg xmlns="http://www.w3.org/2000/svg" viewBox="0 0 24 24" width="24" height="24"><path d="M22 11.112c0-.6-.347-.868-.93-.75-2.123.434-3.937-.138-5.432-1.707-.327-.343-.606-.724-.74-1.192-.206-.721.075-1.41.744-1.823a1.36 1.36 0 0 1 1.709.256c.197.215.457.26.727.15.281-.112.416-.34.416-.638 0-.793-.226-1.521-.763-2.106-1.093-1.19-2.462-1.544-4.001-1.145-1.604.416-2.758 1.42-3.474 2.91a39.468 39.468 0 0 0-.964 2.19c-.79 1.93-2.183 3.115-4.255 3.433-.752.116-1.517.148-2.278.196-.5.03-.757.27-.759.765v1.72c.298.116.58.2.835.333.256.134.5.3.725.483.811.658 1.866.657 2.671-.02 1.311-1.1 3.071-1.104 4.392-.022.201.164.432.312.674.4.772.28 1.471.113 2.094-.414a3.234 3.234 0 0 1 2.014-.79c.903-.037 1.684.262 2.372.842.763.643 1.831.669 2.589.053.482-.391 1.001-.695 1.633-.833v-2.29l.001-.001Z"/><path d="M16.946 15.226c-.883-.729-1.879-.736-2.768-.019-1.329 1.073-3.043 1.075-4.363.005-.894-.725-1.878-.72-2.765.013a3.305 3.305 0 0 1-2.206.785c-.769-.009-1.45-.262-2.059-.732-.237-.183-.496-.336-.778-.524v7.247h19.986v-7.244c-.274.179-.528.317-.751.496-1.279 1.024-3.034 1.018-4.297-.026l.001-.001Z"/></svg>