<svg xmlns="http://www.w3.org/2000/svg" viewBox="0 0 24 24" width="24" height="24"><path d="M7.21 5.145a1.29 1.29 0 1 0-.001-2.581 1.29 1.29 0 0 0 .001 2.581ZM15.899 9.784a.874.874 0 1 0 0-1.748.874.874 0 0 0 0 1.748ZM18.233 16.334a1.29 1.29 0 1 0 0-2.58 1.29 1.29 0 0 0 0 2.58ZM13.825 13.477a.477.477 0 1 0 .954 0 .477.477 0 0 0-.954 0Z"/><path d="M21.5 19.5h-3.801c-.535-.25-1.076-.492-1.59-.779a1.527 1.527 0 0 1-.572-.553c-.221-.4-.536-.687-.895-.939-.543-.381-1.101-.741-1.639-1.128a16.182 16.182 0 0 1-1.005-.806c-.168-.144-.265-.339-.328-.557a7.48 7.48 0 0 0-.323-.95c-.878-1.986-2.283-3.464-4.262-4.379-.359-.166-.699-.351-1-.614a2.326 2.326 0 0 1-.632-.852 3.19 3.19 0 0 1-.231-1.369c.027-.701-.206-1.3-.63-1.84-.451-.576-1.077-1.874-1.658-2.125A.975.975 0 0 0 2.5 2.5a1 1 0 0 0-1 1v17a1 1 0 0 0 1 1h19.001a1 1 0 1 0-.001-2Z"/><path d="M11.21 10.145a1.29 1.29 0 1 0-.001-2.581 1.29 1.29 0 0 0 0 2.58Z"/></svg>