<?xml version="1.0" encoding="UTF-8" standalone="no"?><!DOCTYPE svg PUBLIC "-//W3C//DTD SVG 1.1//EN" "http://www.w3.org/Graphics/SVG/1.1/DTD/svg11.dtd"><svg width="100%" height="100%" viewBox="0 0 2134 2134" version="1.1" xmlns="http://www.w3.org/2000/svg" xmlns:xlink="http://www.w3.org/1999/xlink" xml:space="preserve" xmlns:serif="http://www.serif.com/" style="fill-rule:evenodd;clip-rule:evenodd;stroke-linejoin:round;stroke-miterlimit:2;"><path d="M485.902,0l1161.57,0c267.237,0 485.863,218.659 485.863,485.893l0,1161.55c0,267.234 -218.626,485.893 -485.863,485.893l-1161.57,0c-267.239,0 -485.902,-218.659 -485.902,-485.893l-0,-1161.55c-0,-267.234 218.663,-485.893 485.902,-485.893Zm821.841,899.899l-689.909,-0c-86.693,-0 -157.569,70.837 -157.569,157.529l-0,17.053c-0,70.2 46.476,130.019 110.194,150.258c12.63,3.486 25.974,5.36 39.729,5.36l707.9,-0c20.39,-2.436 40.292,-6.259 59.669,-11.506c6.747,-2.961 13.269,-6.41 19.453,-10.307c160.868,-58.02 275.854,-211.988 275.854,-392.868c0,-183.877 -118.884,-340.02 -283.95,-395.715c-8.058,-4.386 -16.529,-8.059 -25.299,-10.982c-14.918,-3.485 -30.098,-6.147 -45.539,-7.946c-1.35,-0.075 -2.625,-0.075 -3.936,-0.075l-696.506,0c-86.093,0 -156.557,69.863 -157.569,155.655l-0,18.966c1.012,85.792 71.476,155.654 157.569,155.654l706.851,0c39.017,7.872 68.365,42.316 68.365,83.619c-0,47.075 -38.194,85.305 -85.307,85.305Zm-669.969,504.37c90.703,0 164.204,73.499 164.204,164.201c-0,90.664 -73.501,164.126 -164.204,164.126c-90.666,-0 -164.166,-73.462 -164.166,-164.126c-0,-90.702 73.5,-164.201 164.166,-164.201Z" style="fill:#fff;"/><rect x="274.401" y="214.183" width="1492.3" height="1595.01" style="fill:#fff;"/><path d="M1532.84,1182.5l129.668,0c91.531,0 137.296,31.883 137.296,95.649c-0,43.699 -16.163,77.727 -48.49,102.085c-32.326,24.358 -77.183,36.537 -134.571,36.537l-221.199,-0c-47.945,-0 -86.809,-12.713 -116.593,-38.137c-29.783,-25.425 -44.675,-58.84 -44.675,-100.246c-0,-28.331 9.807,-66.831 29.42,-115.501l102.427,-249.526c5.812,-14.528 8.717,-27.967 8.717,-40.316c0,-47.218 -23.972,-70.826 -71.916,-70.826c-37.048,-0 -73.733,16.707 -110.055,50.123c-36.322,33.415 -65.379,77.727 -87.172,132.935l-122.041,300.738c-39.954,97.34 -98.068,146.011 -174.344,146.011c-29.783,-0 -55.209,-9.807 -76.275,-29.421c-21.067,-19.613 -31.6,-42.858 -31.6,-69.736c-0,-21.066 5.448,-45.764 16.345,-74.095l11.986,-29.42l123.13,-304.007c10.897,-26.877 16.345,-47.944 16.345,-63.198c0,-15.982 -7.264,-29.965 -21.793,-41.951c-14.529,-11.986 -31.6,-17.979 -51.213,-17.979c-78.455,-0 -140.565,56.661 -186.331,169.982l-127.489,312.724c-39.953,98.067 -97.705,147.101 -173.254,147.101c-29.784,-0 -55.39,-9.626 -76.82,-28.876c-21.43,-19.25 -32.145,-42.677 -32.145,-70.281c0,-21.793 5.448,-46.491 16.345,-74.095l11.986,-29.42l216.84,-533.919c30.511,-74.821 76.276,-112.232 137.296,-112.232c63.2,-0 102.427,29.948 117.682,89.843c49.398,-42.336 89.533,-70.434 120.407,-84.293c30.873,-13.87 68.829,-20.805 113.868,-20.805c97.342,0 170.349,42.7 219.02,128.1c81.36,-85.4 172.891,-128.1 274.591,-128.1c69.738,0 128.034,20.266 174.889,60.798c46.855,40.532 70.282,90.377 70.282,149.535c0,37.24 -7.99,75.582 -23.972,115.024l-116.592,289.195Z" style="fill:#191919;fill-rule:nonzero;"/></svg>