<svg xmlns="http://www.w3.org/2000/svg" width="500" height="500" viewBox="0 0 500 500" version="1.1"><path d="M 308.264 58.718 C 309.784 58.947, 312.034 58.941, 313.264 58.704 C 314.494 58.467, 313.250 58.279, 310.500 58.286 C 307.750 58.294, 306.744 58.488, 308.264 58.718 M 294.051 68.175 C 292.937 69.372, 291.771 71.959, 291.460 73.925 C 291.149 75.891, 290.468 79.387, 289.947 81.693 C 288.665 87.367, 288.776 90.755, 290.397 95.500 C 292.476 101.584, 296.321 103.694, 306.767 104.482 C 331.481 106.344, 351.054 112.870, 371 125.898 C 377.431 130.099, 378.023 130.560, 387.383 138.655 C 414.844 162.404, 439.418 204.470, 451.555 248.500 C 456.265 265.590, 456.016 264.978, 457.102 262.157 C 459.031 257.148, 452.126 217.055, 445.365 194 C 441.788 181.806, 435.448 164.967, 430.379 154.201 C 427.970 149.086, 426 144.694, 426 144.440 C 426 144.186, 422.988 139.145, 419.307 133.239 C 397.065 97.554, 374.233 80.632, 335.500 71.125 C 319.747 67.259, 311.808 66, 303.174 66 C 297.175 66, 295.765 66.336, 294.051 68.175 M 105.250 71.689 C 106.213 71.941, 107.787 71.941, 108.750 71.689 C 109.713 71.438, 108.925 71.232, 107 71.232 C 105.075 71.232, 104.287 71.438, 105.250 71.689 M 144.250 71.689 C 145.213 71.941, 146.787 71.941, 147.750 71.689 C 148.713 71.438, 147.925 71.232, 146 71.232 C 144.075 71.232, 143.287 71.438, 144.250 71.689 M 102.762 79.707 C 104.006 79.946, 105.806 79.937, 106.762 79.687 C 107.718 79.437, 106.700 79.241, 104.500 79.252 C 102.300 79.263, 101.518 79.468, 102.762 79.707 M 199.252 98.500 C 199.263 100.700, 199.468 101.482, 199.707 100.238 C 199.946 98.994, 199.937 97.194, 199.687 96.238 C 199.437 95.282, 199.241 96.300, 199.252 98.500 M 212.250 245.689 C 213.213 245.941, 214.787 245.941, 215.750 245.689 C 216.713 245.438, 215.925 245.232, 214 245.232 C 212.075 245.232, 211.287 245.438, 212.250 245.689 M 465.286 259.500 C 465.294 262.250, 465.488 263.256, 465.718 261.736 C 465.947 260.216, 465.941 257.966, 465.704 256.736 C 465.467 255.506, 465.279 256.750, 465.286 259.500 M 263.789 256.741 C 267.248 256.937, 272.648 256.936, 275.789 256.738 C 278.930 256.540, 276.100 256.380, 269.500 256.382 C 262.900 256.384, 260.330 256.546, 263.789 256.741 M 238.300 262 C 238.300 265.025, 238.487 266.262, 238.716 264.750 C 238.945 263.238, 238.945 260.762, 238.716 259.250 C 238.487 257.738, 238.300 258.975, 238.300 262 M 290.286 276.500 C 290.294 279.250, 290.488 280.256, 290.718 278.736 C 290.947 277.216, 290.941 274.966, 290.704 273.736 C 290.467 272.506, 290.279 273.750, 290.286 276.500 M 374.286 280.500 C 374.294 283.250, 374.488 284.256, 374.718 282.736 C 374.947 281.216, 374.941 278.966, 374.704 277.736 C 374.467 276.506, 374.279 277.750, 374.286 280.500 M 94.750 286.706 C 95.987 286.944, 98.013 286.944, 99.250 286.706 C 100.487 286.467, 99.475 286.272, 97 286.272 C 94.525 286.272, 93.513 286.467, 94.750 286.706 M 153.750 286.723 C 155.537 286.945, 158.463 286.945, 160.250 286.723 C 162.037 286.502, 160.575 286.320, 157 286.320 C 153.425 286.320, 151.963 286.502, 153.750 286.723 M 171.750 286.706 C 172.988 286.944, 175.012 286.944, 176.250 286.706 C 177.488 286.467, 176.475 286.272, 174 286.272 C 171.525 286.272, 170.512 286.467, 171.750 286.706 M 457.320 312 C 457.320 315.575, 457.502 317.038, 457.723 315.250 C 457.945 313.462, 457.945 310.538, 457.723 308.750 C 457.502 306.962, 457.320 308.425, 457.320 312 M 464.252 330.500 C 464.263 332.700, 464.468 333.482, 464.707 332.238 C 464.946 330.994, 464.937 329.194, 464.687 328.238 C 464.437 327.282, 464.241 328.300, 464.252 330.500 M 381.252 393.500 C 381.263 395.700, 381.468 396.482, 381.707 395.238 C 381.946 393.994, 381.937 392.194, 381.687 391.238 C 381.437 390.282, 381.241 391.300, 381.252 393.500 M 300.272 403 C 300.272 405.475, 300.467 406.488, 300.706 405.250 C 300.944 404.012, 300.944 401.988, 300.706 400.750 C 300.467 399.512, 300.272 400.525, 300.272 403 M 357.762 436.707 C 359.006 436.946, 360.806 436.937, 361.762 436.687 C 362.718 436.437, 361.700 436.241, 359.500 436.252 C 357.300 436.263, 356.518 436.468, 357.762 436.707 M 365.776 465.733 C 368.128 465.945, 371.728 465.942, 373.776 465.727 C 375.824 465.512, 373.900 465.339, 369.500 465.343 C 365.100 465.346, 363.424 465.522, 365.776 465.733" stroke="none" fill="#cdf9a4" fill-rule="evenodd"/><path d="M 262.500 60.111 C 251.797 61.879, 249.978 62.289, 239.500 65.296 C 228.021 68.590, 210.664 75.971, 202.365 81.088 L 199.230 83.021 198.536 78.260 C 197.636 72.087, 194.258 65.320, 190.873 62.910 C 188.048 60.898, 183.055 60.370, 181.450 61.914 C 179.979 63.329, 168.573 66.914, 157.160 69.549 C 139.307 73.670, 116.758 73.777, 95.672 69.842 C 89.114 68.617, 88.542 68.676, 81.172 71.321 C 66.343 76.643, 51.303 86.918, 34.144 103.450 C 19.693 117.372, 10.173 130.084, 6.389 140.509 C 3.350 148.882, 3.387 151.827, 6.614 158.650 C 11.159 168.258, 20.764 176.164, 37.713 184.250 C 42.546 186.555, 46.725 188.495, 47 188.561 C 47.441 188.667, 51.174 190.227, 57.500 192.951 C 60.542 194.260, 74.299 199.135, 76 199.506 C 76.825 199.686, 79.525 200.350, 82 200.982 C 89.616 202.928, 94.409 204.063, 96.543 204.429 C 97.667 204.621, 101.267 205.462, 104.543 206.297 C 107.820 207.133, 112.750 208.139, 115.500 208.533 C 120.303 209.221, 124.964 210.904, 122.250 210.970 C 121.563 210.986, 121 211.419, 121 211.930 C 121 212.442, 119.556 215.929, 117.792 219.680 C 116.028 223.431, 114.528 226.725, 114.458 227 C 114.389 227.275, 113.861 228.625, 113.285 230 C 112.709 231.375, 111.022 235.425, 109.536 239 C 108.051 242.575, 105.522 248.314, 103.917 251.753 C 102.313 255.192, 101 258.254, 101 258.558 C 101 259.056, 98.344 265.357, 95.966 270.500 C 95.146 272.275, 92.947 277.665, 92.500 279 C 92.408 279.275, 91.808 280.767, 91.166 282.315 C 89.588 286.125, 89.694 286.882, 91.750 286.488 C 92.713 286.304, 95.300 286.108, 97.500 286.054 L 101.500 285.955 105.837 275.477 L 110.173 265 125.947 265 L 141.722 265 145.420 273.091 C 147.454 277.541, 149.531 282.266, 150.035 283.591 C 150.863 285.769, 151.529 286, 156.984 286 C 162.409 286, 162.925 285.824, 162.109 284.250 C 161.609 283.288, 158.855 277.100, 155.988 270.500 C 149.745 256.130, 147.490 251.049, 142.677 240.500 C 140.669 236.100, 137.192 228.225, 134.951 223 C 132.710 217.775, 130.611 212.886, 130.287 212.135 C 129.865 211.158, 130.239 210.939, 131.599 211.365 C 133.612 211.996, 155.077 214.998, 161 215.477 C 162.925 215.633, 165.625 216.059, 167 216.425 L 169.500 217.090 169.225 251.545 L 168.949 286 172.893 286 C 175.062 286, 177.548 286.273, 178.418 286.607 C 179.842 287.153, 180 283.753, 180 252.607 L 180 218 182.750 218.011 C 184.262 218.017, 187.181 218.300, 189.237 218.640 L 192.973 219.257 193.237 251.879 L 193.500 284.500 200 286.152 C 211.735 289.135, 221.203 287.903, 229.213 282.353 C 239.957 274.907, 241.339 252.576, 231.701 242.142 C 226.611 236.631, 215.898 234.474, 208.654 237.500 C 206.680 238.325, 204.837 239, 204.560 239 C 204.283 239, 203.931 232.812, 203.778 225.250 L 203.500 211.500 189.588 210.364 C 181.937 209.739, 172.487 208.749, 168.588 208.165 C 164.690 207.580, 157.450 206.581, 152.500 205.945 C 128.534 202.863, 116.655 200.714, 94 195.361 C 79.224 191.870, 76.881 191.155, 64.500 186.363 C 31.718 173.673, 19.815 166.216, 13.829 154.620 C 11.579 150.260, 11.949 145.117, 14.676 142.854 C 15.568 142.113, 20.394 140.767, 25.399 139.862 C 36.853 137.791, 45.985 135.123, 48.250 133.186 C 49.212 132.363, 50 131.991, 50 132.359 C 50 132.727, 51.808 131.832, 54.017 130.370 C 58.139 127.642, 58.479 126.910, 59.417 118.742 C 60.603 108.422, 68.515 101.712, 80.788 100.620 C 92.829 99.549, 102.312 106.660, 104.430 118.349 C 105.121 122.162, 105.163 122.192, 108.814 121.510 C 110.841 121.131, 112.675 120.649, 112.889 120.438 C 113.750 119.591, 109.639 107.412, 107.299 103.876 C 100.833 94.104, 86.915 89.857, 73.024 93.415 C 60.750 96.560, 52.997 104.961, 51.265 116.991 C 50.522 122.159, 50.220 122.616, 46.022 124.931 C 39.823 128.351, 20 133.889, 20 132.202 C 20 131.938, 22.422 128.724, 25.382 125.060 C 30.002 119.342, 34.668 114.575, 47.766 102.192 C 51.964 98.222, 62.894 90, 63.971 90 C 64.537 90, 65 89.657, 65 89.237 C 65 88.818, 65.839 88.030, 66.864 87.487 C 67.889 86.944, 71.601 84.953, 75.114 83.061 C 82.205 79.243, 81.919 79.354, 87.500 78.237 C 91.849 77.367, 91.618 77.353, 104 79.204 C 118.965 81.440, 145.550 80.765, 158 77.833 C 160.475 77.250, 163.468 76.643, 164.650 76.485 C 167.276 76.134, 170.824 75.155, 173.500 74.043 C 179.633 71.494, 185.223 69.872, 186.365 70.310 C 187.081 70.584, 188.455 73.318, 189.420 76.384 C 191.826 84.036, 191.390 103.814, 188.750 106.727 C 186.557 109.146, 186.338 116, 188.453 116 C 194.211 116, 197.586 110.649, 199.035 99.221 C 199.562 95.070, 200.106 91.622, 200.246 91.557 C 200.386 91.493, 202.300 90.466, 204.500 89.274 C 223.823 78.811, 246.132 70.740, 262 68.472 C 280.920 65.768, 304.231 65.172, 316.500 67.078 C 327.413 68.774, 346.693 73.759, 355.500 77.162 C 382.435 87.570, 401.026 103.909, 419.307 133.239 C 422.988 139.145, 426 144.186, 426 144.440 C 426 144.694, 427.970 149.086, 430.379 154.201 C 443.104 181.228, 452.121 213.882, 456.417 248.500 C 458.142 262.396, 458.530 311.696, 456.996 322 C 456.382 326.125, 455.733 331.300, 455.553 333.500 C 455.281 336.842, 453.716 348.602, 452.493 356.500 C 449.540 375.569, 439.065 405.738, 430.965 418.500 C 429.918 420.150, 428.309 422.850, 427.391 424.500 C 426.472 426.150, 425.431 427.725, 425.077 428 C 424.722 428.275, 422.719 430.621, 420.626 433.213 C 416.184 438.713, 404.521 447.769, 397.844 450.902 C 388.840 455.128, 380.086 457, 369.334 457 C 350.968 457, 336.785 451.507, 325.420 439.991 C 313.798 428.215, 309.576 418.650, 309.530 404 C 309.481 388.419, 313.757 378.137, 324.944 366.936 C 332.192 359.679, 338.157 356.329, 346.054 355.080 C 364.873 352.106, 383.749 361.942, 391.151 378.580 C 392.896 382.502, 393.333 385.353, 393.307 392.639 C 393.278 400.814, 392.943 402.459, 390.133 408.227 C 383.088 422.687, 370.475 429.539, 354.559 427.551 C 344.528 426.297, 335.788 418.280, 332.534 407.346 C 330.590 400.814, 330.602 397.524, 332.593 391.681 C 334.351 386.523, 341.464 379.400, 345.917 378.339 C 347.338 378.001, 348.950 377.416, 349.500 377.038 C 352.050 375.289, 358.956 375.944, 363.790 378.393 C 370.116 381.599, 373 386.919, 373 395.381 C 373 401.760, 372.040 404.175, 368.137 407.613 C 365.274 410.136, 357.553 410.902, 354.024 409.013 C 351.606 407.719, 347.694 401.344, 348.338 399.748 C 348.651 398.975, 348.872 399.136, 348.921 400.173 C 348.964 401.094, 350.165 403.231, 351.589 404.923 C 353.767 407.512, 354.885 408, 358.637 408 C 362.174 408, 363.602 407.453, 365.548 405.354 C 368.170 402.524, 368.380 401.704, 368.072 395.500 C 367.682 387.664, 361.841 383.376, 352.746 384.250 C 347.153 384.788, 343.636 387.543, 341.924 392.730 C 339.019 401.533, 341.352 409.731, 348.382 415.422 C 351.896 418.267, 352.771 418.500, 359.924 418.500 C 366.765 418.500, 368.131 418.176, 371.695 415.708 C 373.964 414.138, 376.921 410.723, 378.457 407.901 C 380.837 403.529, 381.176 401.826, 381.098 394.640 C 380.969 382.660, 377.133 375.716, 368 370.928 C 361.952 367.757, 348.812 367.665, 342 370.746 C 335.596 373.643, 329.901 378.933, 326.503 385.141 C 323.866 389.961, 323.573 391.406, 323.595 399.500 C 323.617 407.679, 323.940 409.187, 327.142 416.029 C 331.013 424.300, 336.290 429.730, 344 433.373 C 347.780 435.159, 350.339 435.498, 360 435.491 C 370.842 435.483, 371.872 435.303, 378 432.338 C 388.966 427.032, 396.385 418.139, 400.016 405.947 C 406.007 385.828, 398.101 364.888, 380.287 353.691 C 370.843 347.757, 355.472 344.898, 344.132 346.968 C 340.629 347.608, 337.029 348.530, 336.132 349.017 C 335.234 349.504, 332.700 350.702, 330.500 351.677 C 328.300 352.653, 323.088 356.837, 318.917 360.976 C 312.947 366.900, 310.468 370.308, 307.257 377.006 C 302.292 387.363, 301.036 393.606, 301.423 406 C 301.896 421.124, 307.615 434.487, 318.188 445.170 C 325.231 452.286, 339.660 461.279, 345.992 462.498 C 347.184 462.728, 349.136 463.239, 350.330 463.635 C 353.761 464.771, 355.747 464.926, 368.500 465.055 C 380.849 465.180, 385.900 464.659, 389.138 462.926 C 390.162 462.378, 391 462.139, 391 462.395 C 391 463.562, 404.201 457.339, 410.500 453.201 C 421.827 445.762, 431.466 435.056, 438.590 422 C 439.641 420.075, 440.837 418.350, 441.250 418.167 C 441.663 417.983, 442 417.452, 442 416.986 C 442 416.521, 443.306 413.296, 444.903 409.820 C 447.350 404.492, 453.238 388.133, 454.557 383 C 454.769 382.175, 455.429 379.700, 456.024 377.500 C 459.528 364.538, 461.572 353.193, 463.591 335.500 C 463.843 333.300, 464.257 329.700, 464.512 327.500 C 467.564 301.172, 466.832 258.434, 462.963 237 C 460.144 221.387, 456.834 205.794, 455.109 200 C 454.044 196.425, 451.764 188.671, 450.041 182.770 C 445.335 166.644, 430.582 133.819, 425.390 127.921 C 424.625 127.053, 424 126.045, 424 125.682 C 424 123.250, 410.819 106.679, 401.564 97.476 C 385.013 81.018, 368.775 71.951, 342.500 64.497 C 339.200 63.561, 335.375 62.419, 334 61.960 C 323.096 58.317, 280.088 57.205, 262.500 60.111 M 69.571 111.571 C 67.422 113.721, 67.569 119.300, 69.829 121.345 C 72.834 124.065, 76.756 123.450, 78.901 119.923 C 81.059 116.375, 80.644 113.564, 77.653 111.469 C 74.923 109.557, 71.543 109.600, 69.571 111.571 M 72.543 115.931 C 71.803 117.128, 73.684 118.313, 75.016 117.490 C 76.135 116.799, 75.400 115, 74 115 C 73.515 115, 72.859 115.419, 72.543 115.931 M 346 236.500 C 340.797 241.725, 336.981 246.044, 337.520 246.097 C 338.059 246.150, 340.188 246.116, 342.250 246.020 L 346 245.847 346.006 259.674 C 346.013 279.200, 347.374 283.082, 355.372 286.396 C 360.228 288.408, 362.867 288.411, 368.971 286.415 C 373.812 284.831, 373.819 284.823, 374.159 279.914 C 374.536 274.476, 374.538 274.478, 371 276.500 C 367.605 278.441, 360.543 278.400, 358.571 276.429 C 357.288 275.145, 357 272.212, 357 260.429 L 357 246 364.500 246 L 372 246 372 241.500 L 372 237 364.500 237 L 357 237 357 232 C 357 229.250, 356.654 227, 356.230 227 C 355.807 227, 351.203 231.275, 346 236.500 M 125.062 229 C 125.025 229.275, 122.784 234.900, 120.081 241.500 L 115.165 253.500 120.583 253.800 C 123.562 253.965, 128.416 253.965, 131.368 253.800 L 136.736 253.500 132.363 244 C 126.229 230.674, 125.137 228.430, 125.062 229 M 259 238.440 C 253.882 241.109, 252.147 242.842, 248.926 248.500 C 247.060 251.779, 246.644 254.033, 246.618 261 C 246.589 268.546, 246.914 270.102, 249.517 274.870 C 255.444 285.727, 266.026 290.039, 278.736 286.777 C 281.356 286.105, 284.850 284.831, 286.500 283.947 C 289.153 282.525, 289.535 281.746, 289.801 277.209 L 290.102 272.079 283.385 275.125 C 276.795 278.113, 272.876 278.477, 265.569 276.778 C 263.178 276.223, 258.419 270.640, 257.093 266.837 L 256.104 264 273.552 264 L 291 264 290.988 260.750 C 290.969 255.405, 288.331 247.123, 285.442 243.335 C 279.875 236.037, 267.870 233.814, 259 238.440 M 320.196 238.149 C 318.379 239.313, 315.792 241.885, 314.446 243.864 L 312 247.464 312 242.232 L 312 237 307 237 L 302 237 301.999 261.750 L 301.999 286.500 305.749 286.322 C 307.812 286.225, 310.063 286.112, 310.750 286.072 C 311.689 286.018, 312 282.408, 312 271.565 C 312 263.626, 312.430 255.999, 312.956 254.616 C 314.417 250.773, 319.928 245.999, 322.898 246.004 C 324.329 246.006, 326.973 246.906, 328.774 248.004 C 330.575 249.102, 332.405 250, 332.840 250 C 334.110 250, 338.186 242.109, 337.494 240.990 C 336.387 239.200, 329.177 235.999, 326.290 236.017 C 324.755 236.026, 322.013 236.986, 320.196 238.149 M 207.898 247.288 L 204.500 249.576 204.222 263.223 L 203.944 276.869 208.466 277.547 C 215.210 278.559, 219.976 277.306, 223.462 273.605 C 227.756 269.046, 229.193 263.013, 227.413 257.018 C 224.279 246.466, 215.568 242.123, 207.898 247.288 M 262.903 246.606 C 259.868 248.560, 256.477 254.345, 257.447 255.915 C 257.867 256.594, 262.447 257, 269.684 257 L 281.250 257 280.601 253.750 C 279.599 248.737, 276.010 245.791, 270.339 245.329 C 266.971 245.055, 264.710 245.443, 262.903 246.606" stroke="none" fill="#0d1cbd" fill-rule="evenodd"/></svg>