<svg xmlns="http://www.w3.org/2000/svg" width="500" height="500" style="shape-rendering:geometricPrecision;text-rendering:geometricPrecision;image-rendering:optimizeQuality;fill-rule:evenodd;clip-rule:evenodd"><path fill="#e696ae" d="M212.5-.5h2q-1 2-2 0" style="opacity:1"/><path fill="#f9f9f9" d="M227.5-.5h54a249.7 249.7 0 0 1 43 10q115.191 38.424 160.5 152a1027 1027 0 0 0 10.5 34.5 42 42 0 0 1 0 6.5q.533 1.533 2 2v4q-2 .5 0 1v2q-.426 2.872 1 5-.356 1.937 1 3v7q-2 .5 0 1v54a817 817 0 0 0-4 23q-1.952 2.076 0 4.5-.852 2.477-4 5 2 1.5 0 3 3.827 2.274-1 2.5a171.3 171.3 0 0 1-9 28q-1.258.512-1 2-1.401 1.602-1 4-1 0-1 1-4.239 6.476-7 14-5.57 7.153-8.5 16l-5.5 5.5q.686.621 1 1.5a67.3 67.3 0 0 0-10 12 262.4 262.4 0 0 1-43 43 803 803 0 0 1-5 4q-58.186 41.861-128 49h-46q-44.213-4.681-85-23Q34.064 422.8 5 305.5a447 447 0 0 1-5.5-33v-45q2-.5 0-1v-2a100 100 0 0 0 2-8v-6a357.3 357.3 0 0 1 17-60q3.677-4.86 5-11 1.258-.513 1-2 24.637-47.296 65-82 7.89-5.967 16-12a211 211 0 0 0 12-8.5 58 58 0 0 1 8-3 214 214 0 0 1 16-9.5q41.363-18.09 86-23" style="opacity:1"/><path fill="#c75175" d="M183.5 5.5q2 1 0 0" style="opacity:1"/><path fill="#d996ae" d="M180.5 6.5q2 1 0 0M177.5 7.5q2 1 0 0" style="opacity:1"/><path fill="#e09cb4" d="M324.5 9.5q.209-2.755 2-1-.686 1.196-2 1" style="opacity:1"/><path fill="#e09cae" d="M163.5 11.5q2 1 0 0" style="opacity:1"/><path fill="#e0a2b4" d="M333.5 11.5q2 1 0 0" style="opacity:1"/><path fill="#d996ae" d="M160.5 12.5q2 1 0 0" style="opacity:1"/><path fill="#e096ae" d="M145.5 17.5q2.755.21 1 2-1.197-.686-1-2" style="opacity:1"/><path fill="#e68fae" d="M143.5 18.5q1.91.866 0 2-1.445-.705 0-2" style="opacity:1"/><path fill="#cd7695" d="M141.5 22.5q-1-2 0 0" style="opacity:1"/><path fill="#cd6488" d="M120.5 30.5q2 1 0 0" style="opacity:1"/><path fill="#d983a1" d="M115.5 33.5q2 1 0 0" style="opacity:1"/><path fill="#d98fa7" d="M105.5 43.5a2.43 2.43 0 0 1-2-.5q1.405-1.038 2 .5" style="opacity:1"/><path fill="#e0a2ba" d="M89.5 55.5q-1-2 0 0" style="opacity:1"/><path fill="#e096ae" d="M37.5 109.5q2 1 0 0" style="opacity:1"/><path fill="#f996ba" d="M32.5 116.5q2 1 0 0" style="opacity:1"/><path fill="#f98fb4" d="M28.5 124.5q2 1 0 0" style="opacity:1"/><path fill="#d99cae" d="M25.5 130.5q2 1 0 0" style="opacity:1"/><path fill="#b45d6f" d="M24.5 137.5q-1-2 0 0" style="opacity:1"/><path fill="#d091a6" d="M23.5 139.5a2.43 2.43 0 0 1-2-.5q1.405-1.038 2 .5" style="opacity:1"/><path fill="#ecced9" d="M18.5 150.5q-1-2 0 0" style="opacity:1"/><path fill="#e096ae" d="M13.5 158.5q2 1 0 0" style="opacity:1"/><path fill="#e09cae" d="M11.5 164.5q2 1 0 0" style="opacity:1"/><path fill="#d37695" d="M6.5 178.5q1.538.595.5 2a2.43 2.43 0 0 1-.5-2" style="opacity:1"/><path fill="#4a4a4a" d="M137.5 184.5q-12-2-24 0 5.41-1.986 12-2 6.59.014 12 2" style="opacity:1"/><path fill="#040404" d="M137.5 184.5a5766 5766 0 0 1 48 125q-12.403 2.955-26 2-3.498-10-7-20-26.955-2.98-55-2v4q-5.205 8.074-7 18h-27v-3q25.028-62.045 50-124 12-2 24 0" style="opacity:1"/><path fill="#d996ae" d="M3.5 187.5q.866-1.91 2 0-.705 1.445-2 0" style="opacity:1"/><path fill="#e696ae" d="M2.5 193.5q1.538.595.5 2a2.43 2.43 0 0 1-.5-2" style="opacity:1"/><path fill="#e09cae" d="M2.5 196.5q2 1 0 0" style="opacity:1"/><path fill="#e096ae" d="M1.5 199.5q1.538.595.5 2a2.43 2.43 0 0 1-.5-2" style="opacity:1"/><path fill="#f296ae" d="M.5 203.5q2 1 0 0" style="opacity:1"/><path fill="#f996b4" d="M-.5 205.5q2 1 0 0" style="opacity:1"/><path fill="#f29cb4" d="M-.5 208.5q2 1 0 0" style="opacity:1"/><path fill="#ef96b0" d="M499.5 204.5v4q-2 .5 0 1v1h-2v-3q2-1 0-2v-1q.656-1.509 2 0" style="opacity:1"/><path fill="#e289a6" d="M-.5 210.5h2v6h-2z" style="opacity:1"/><path fill="#e38ca9" d="M497.5 211.5h2v5h-1q-1.426-2.128-1-5" style="opacity:1"/><path fill="#787879" d="M264.5 217.5q-13.274-.49-26 1-.814-.09-1-1 13.737-1.983 27 0" style="opacity:1"/><path fill="#79797a" d="M309.5 217.5q13.227-1.49 27-1 .356 1.937-1 3-12.403-2.954-26-2" style="opacity:1"/><path fill="#737373" d="M370.5 217.5q-14.272-.49-28 1-.814-.09-1-1 14.738-1.985 29 0M433.5 219.5q-6.171-1.99-13.5-2-7.37.039-14.5 1 13.913-2.96 29-2 .356 1.937-1 3" style="opacity:1"/><path fill="#040404" d="M264.5 217.5a980 980 0 0 0 22 56q11.53-28.05 23-56 13.597-.954 26 2a1376 1376 0 0 0-19 45q-3.126 3.83-4 9a5760 5760 0 0 1-32 76q-13.597.955-26-2a2520 2520 0 0 1 18-41q1.245-4.32-2-8a109 109 0 0 0-5-13q-.653-3.986-3-7a146 146 0 0 0-6-15 163 163 0 0 0-8-19l-10-26q12.726-1.49 26-1M342.5 218.5q13.728-1.49 28-1a540 540 0 0 0 18 25 6940 6940 0 0 1 17-24q7.13-.961 14.5-1 7.329.01 13.5 2a759 759 0 0 0-29 44 1743 1743 0 0 1 30 47q-13.728 1.49-28 1a258.5 258.5 0 0 0-18.5-28 556 556 0 0 0-17.5 26q-1.184.425-2 1.5l-14 .5q-7.576-.01-14-2a59726 59726 0 0 0 32-46 1530 1530 0 0 0-30-45" style="opacity:1"/><path fill="#afafaf" d="M200.5 311.5a4900 4900 0 0 1-1-140h27v141q-13.274.49-26-1" style="opacity:1"/><path fill="#050505" d="M200.5 311.5v-139h25v139z" style="opacity:1"/><path fill="#eee" d="M138.5 253.5q-.233 4.824 3 8v4h-33v-3a399 399 0 0 1 17-43 524 524 0 0 1 13 34" style="opacity:1"/><path fill="#c6c6c6" d="M248.5 244.5a163 163 0 0 1 8 19q-7.815-7.594-8-19" style="opacity:1"/><path fill="#8e8e8e" d="M138.5 253.5q2.057 3.654 3 8-3.233-3.176-3-8" style="opacity:1"/><path fill="#656565" d="M108.5 262.5v3h33v-3q1.401 1.602 1 4h-35q-.401-2.398 1-4" style="opacity:1"/><path fill="#9a9a9a" d="M316.5 264.5a8.4 8.4 0 0 1-.5 4q-1.353 2.896-3.5 5 .874-5.17 4-9" style="opacity:1"/><path fill="#959595" d="M262.5 278.5q2.347 3.014 3 7-3.501-2.514-3-7" style="opacity:1"/><path fill="#c2c2c2" d="M152.5 291.5a744 744 0 0 0-54-1q.356 1.937-1 3v-4q28.045-.98 55 2" style="opacity:1"/><path fill="#9b9b9b" d="M270.5 298.5q3.245 3.68 2 8a19 19 0 0 1-2-8" style="opacity:1"/><path fill="#d32b5c" d="M2.5 303.5q2 1 0 0" style="opacity:1"/><path fill="#d3839b" d="M495.5 304.5q2 1 0 0" style="opacity:1"/><path fill="#7a7a7a" d="M63.5 308.5v3h27q-13.728 1.49-28 1-.401-2.398 1-4" style="opacity:1"/><path fill="#777" d="M185.5 309.5q1.356 1.063 1 3-13.773.49-27-1 13.597.955 26-2" style="opacity:1"/><path fill="#7c7c7c" d="M340.5 309.5q6.424 1.99 14 2l14-.5q.816-1.075 2-1.5.129 1.494-1 2.5a160.7 160.7 0 0 1-31-.5q.533-1.533 2-2" style="opacity:1"/><path fill="#7d7d7d" d="M434.5 310.5q.814.09 1 1-14.738 1.984-29 0 14.272.49 28-1" style="opacity:1"/><path fill="#f1a2bb" d="M481.5 347.5q2 1 0 2z" style="opacity:1"/><path fill="#606160" d="M254.5 347.5q12.403 2.955 26 2-13.227 1.49-27 1-.356-1.937 1-3" style="opacity:1"/><path fill="#de9fb6" d="M480.5 349.5h1q-.5 6-1 0" style="opacity:1"/><path fill="#c1768f" d="M479.5 353.5q.814.09 1 1-1.135 1.91-2 0 1 0 1-1" style="opacity:1"/><path fill="#e09cae" d="M473.5 365.5q2 1 0 0" style="opacity:1"/><path fill="#da84a0" d="M471.5 368.5q1.538.595.5 2a2.43 2.43 0 0 1-.5-2" style="opacity:1"/><path fill="#d996a7" d="M460.5 388.5q2 1 0 0" style="opacity:1"/><path fill="#e69cb4" d="M448.5 403.5q2 1 0 0" style="opacity:1"/><path fill="#ba7088" d="M405.5 446.5q2 1 0 0" style="opacity:1"/><path fill="#d47f97" d="M400.5 450.5a2.43 2.43 0 0 1 2 .5q-1.405 1.038-2-.5" style="opacity:1"/><path fill="#cd839b" d="M377.5 467.5q2 1 0 0" style="opacity:1"/><path fill="#e07095" d="M141.5 476.5q-1 1 0 0" style="opacity:1"/><path fill="#a10631" d="M325.5 489.5q2 1 0 0" style="opacity:1"/></svg>