<?xml version="1.0" standalone="no"?>
<!DOCTYPE svg PUBLIC "-//W3C//DTD SVG 20010904//EN"
 "http://www.w3.org/TR/2001/REC-SVG-20010904/DTD/svg10.dtd">
<svg version="1.0" xmlns="http://www.w3.org/2000/svg"
 width="1300.000000pt" height="1300.000000pt" viewBox="0 0 1300.000000 1300.000000"
 preserveAspectRatio="xMidYMid meet">

<g transform="translate(0.000000,1300.000000) scale(0.100000,-0.100000)"
fill="#000000" stroke="none">
<path d="M4827 11060 c-117 -20 -242 -114 -295 -222 -83 -169 -54 -357 76
-487 29 -29 52 -54 50 -56 -2 -1 -71 -36 -155 -78 -297 -147 -537 -302 -813
-526 -58 -47 -126 -105 -153 -131 l-47 -46 44 -43 45 -44 98 84 c319 275 651
490 1020 658 62 28 115 51 118 51 3 0 5 -112 5 -248 l0 -248 -157 -121 c-350
-269 -479 -410 -599 -655 -50 -103 -61 -164 -41 -229 13 -43 12 -55 -14 -169
-40 -176 -53 -324 -46 -535 3 -99 9 -189 12 -200 4 -14 -7 -36 -34 -72 -35
-46 -81 -155 -81 -190 0 -7 -18 -30 -41 -50 -47 -43 -86 -113 -95 -175 l-6
-43 63 60 64 60 -67 -70 -68 -71 0 -104 0 -105 -21 43 c-12 24 -33 51 -46 59
-24 16 -26 15 -116 -73 l-92 -89 88 91 c48 49 84 93 81 97 -14 14 -70 7 -102
-13 -96 -59 -96 -290 0 -366 21 -16 29 -40 51 -152 30 -145 83 -320 128 -421
61 -135 184 -291 318 -403 89 -75 254 -186 344 -234 31 -16 65 -44 82 -68 80
-111 247 -280 360 -365 212 -158 396 -245 647 -306 79 -18 299 -45 381 -45 4
0 7 -91 7 -203 l0 -203 -132 -12 c-427 -38 -787 -202 -1087 -495 -164 -160
-271 -308 -370 -512 -67 -138 -122 -293 -147 -415 -9 -47 -22 -90 -28 -96 -6
-5 -78 -42 -161 -81 -82 -39 -265 -126 -405 -193 -140 -67 -266 -126 -279
-131 -24 -10 -24 -10 25 -62 l49 -52 -50 47 c-28 27 -53 48 -57 48 -5 0 -227
-105 -463 -219 -55 -26 -101 -45 -103 -42 -1 4 25 83 59 177 34 93 65 180 69
194 4 14 24 69 44 123 20 54 30 95 24 91 -7 -4 -5 1 4 12 15 17 40 82 193 509
25 72 62 172 81 223 19 51 34 97 34 103 0 6 -27 44 -61 85 -452 554 -704 1154
-801 1910 l-22 175 -58 -58 -59 -59 21 -149 c66 -470 194 -876 400 -1272 109
-209 262 -443 386 -589 l52 -61 -28 -79 c-66 -186 -170 -474 -195 -538 l-26
-69 48 -51 48 -51 -47 44 c-26 25 -49 43 -51 40 -2 -2 -63 -169 -135 -370 -81
-223 -132 -380 -132 -403 0 -28 7 -45 29 -67 53 -53 65 -49 531 174 521 249
995 474 1046 497 l60 27 160 -111 c87 -62 186 -128 219 -148 33 -19 90 -54
126 -76 91 -56 368 -185 524 -244 71 -27 150 -57 175 -68 122 -50 496 -123
803 -156 182 -19 574 -22 757 -5 441 41 915 171 1310 359 113 53 422 221 500
270 71 46 275 181 310 207 97 70 192 145 282 223 117 101 348 324 348 338 0 4
-17 26 -37 49 l-38 40 42 -39 c51 -47 40 -53 167 98 179 214 341 446 468 671
293 519 476 1091 545 1701 20 185 23 659 5 849 -88 903 -440 1732 -1025 2420
-130 152 -280 306 -294 301 -8 -3 -11 -1 -8 4 11 17 -203 207 -405 360 -203
153 -399 277 -618 391 -64 33 -119 62 -120 64 -2 2 15 13 39 25 60 31 140 115
172 180 153 313 -119 666 -459 596 -133 -27 -231 -102 -291 -223 -32 -65 -37
-86 -41 -163 -3 -61 0 -103 11 -141 9 -29 15 -55 13 -56 -2 -2 -23 4 -47 12
-74 27 -346 93 -489 119 -274 50 -400 60 -765 61 -187 0 -380 -4 -428 -8 l-88
-9 18 -21 18 -22 -23 20 c-15 13 -35 19 -55 17 -78 -8 -344 -55 -460 -83 -71
-17 -130 -30 -131 -28 -2 2 0 28 3 57 27 197 -90 391 -274 455 -54 19 -159 27
-218 17z m188 -195 c55 -27 101 -78 121 -134 30 -83 8 -194 -49 -249 -34 -33
-152 -82 -196 -82 -82 0 -186 74 -216 155 -26 67 -17 160 20 220 36 58 66 82
136 106 64 22 112 18 184 -16z m3245 3 c60 -25 88 -53 116 -113 57 -121 9
-271 -107 -330 -44 -23 -130 -30 -183 -15 -169 47 -231 275 -110 403 79 83
175 102 284 55z m-1250 -281 c0 -2 -10 -12 -22 -23 l-23 -19 19 23 c18 21 26
27 26 19z m-975 -27 c10 -11 16 -20 13 -20 -3 0 -13 9 -23 20 -10 11 -16 20
-13 20 3 0 13 -9 23 -20z m917 -44 c344 -43 648 -118 976 -238 l142 -52 0
-213 c0 -117 -3 -213 -7 -213 -5 0 -44 21 -88 46 -328 189 -607 274 -1075 328
-199 23 -277 22 -309 -6 l-26 -23 19 23 c23 26 43 24 -199 23 -336 -2 -762
-69 -1000 -158 -97 -36 -340 -157 -370 -184 -5 -5 -13 -9 -17 -9 -4 0 -8 88
-8 195 l0 195 28 10 c70 26 111 48 161 89 50 40 65 46 225 86 179 45 411 87
581 106 258 28 720 26 967 -5z m-506 -368 l29 -33 -32 29 c-31 28 -38 36 -30
36 2 0 16 -15 33 -32z m1918 -62 c351 -183 673 -407 940 -657 l77 -72 27 24
27 24 -24 -27 -23 -27 100 -103 c92 -95 132 -140 221 -244 62 -73 229 -300
294 -400 296 -456 504 -977 602 -1502 14 -75 28 -148 31 -161 5 -24 6 -23 52
20 l47 44 -47 -50 -47 -50 16 -130 c12 -96 16 -223 17 -481 1 -336 2 -353 21
-375 l20 -24 -26 23 -25 22 -12 -112 c-15 -145 -60 -385 -106 -563 -233 -917
-781 -1746 -1527 -2311 -55 -41 -103 -73 -108 -70 -5 3 -11 25 -15 48 -12 74
-66 249 -108 348 -274 647 -856 1068 -1540 1116 l-98 7 0 201 0 202 188 12
c334 21 584 102 842 275 121 80 145 100 259 211 191 185 345 417 437 658 25
66 34 79 59 88 46 16 150 114 184 175 17 31 37 78 43 105 8 37 23 62 58 99 29
29 57 72 71 107 23 57 24 71 27 382 2 181 -1 350 -6 385 -13 83 -43 145 -98
200 -24 25 -44 49 -44 54 0 34 -37 123 -75 177 l-43 64 9 68 c24 194 1 548
-49 740 -16 62 -17 73 -4 104 23 55 10 132 -36 230 -49 102 -134 231 -211 319
-78 90 -274 252 -458 380 l-63 44 0 228 c0 143 4 229 10 229 5 0 56 -24 114
-54z m-1843 10 c-21 -25 11 -33 187 -45 329 -23 646 -81 850 -157 171 -64 428
-206 647 -357 348 -240 512 -404 627 -630 53 -101 58 -136 28 -184 -16 -27
-26 -33 -53 -33 -43 0 -61 20 -122 136 -99 187 -264 357 -495 509 -445 292
-741 420 -1135 489 -77 13 -171 27 -210 31 -38 3 -81 8 -95 11 -24 5 -24 4 10
-33 l35 -38 -40 38 -41 37 -209 0 c-202 0 -210 -1 -234 -22 l-26 -23 20 23 20
24 -75 -7 c-138 -12 -385 -54 -511 -85 -243 -62 -428 -148 -714 -335 -361
-236 -537 -408 -656 -647 -42 -85 -65 -108 -106 -108 -27 0 -37 6 -53 33 -11
17 -20 44 -20 58 0 40 90 215 157 304 195 261 742 662 1100 808 189 77 585
146 925 163 137 6 149 8 169 30 24 26 39 33 20 10z m-311 -310 c0 -2 -8 -10
-17 -17 -16 -13 -17 -12 -4 4 13 16 21 21 21 13z m626 -28 l29 -33 -32 29
c-31 28 -38 36 -30 36 2 0 16 -15 33 -32z m29 -42 c17 -3 84 -14 150 -26 385
-65 676 -191 1105 -477 149 -99 238 -174 317 -268 60 -72 137 -187 153 -230
29 -77 109 -155 160 -155 11 0 20 -3 20 -7 0 -5 9 -53 20 -107 28 -138 43
-324 35 -433 l-7 -93 -26 7 c-15 4 -53 7 -84 7 -47 1 -64 -4 -100 -30 -24 -16
-54 -50 -68 -74 l-25 -45 -3 -790 c-2 -434 0 -809 3 -831 13 -88 101 -174 178
-174 38 0 39 -1 32 -27 -26 -106 -195 -369 -326 -507 -239 -252 -504 -403
-839 -478 -105 -23 -106 -23 -980 -26 -603 -2 -901 0 -960 8 -244 32 -475 119
-681 256 -65 43 -220 173 -249 209 -14 17 -13 18 5 11 73 -28 218 -74 320
-101 113 -30 120 -33 127 -61 4 -16 16 -35 27 -41 17 -11 227 -53 411 -83 84
-14 117 18 126 121 9 89 -1 96 -164 125 -70 12 -171 30 -225 40 l-97 18 -30
-22 -29 -22 -183 64 c-156 54 -263 95 -448 173 -27 11 -46 33 -87 101 -50 83
-113 212 -113 230 0 5 16 12 35 15 50 8 105 54 131 112 l24 50 0 806 0 805
-27 54 c-50 97 -130 132 -245 107 l-38 -8 0 167 c0 161 15 309 43 418 10 42
17 51 45 60 55 19 97 61 137 138 103 199 222 336 416 481 64 48 120 87 123 87
4 0 15 8 26 18 60 56 369 228 510 285 150 61 396 118 630 146 77 10 671 7 725
-3z m-2498 -1946 c16 -32 19 -1580 3 -1610 -20 -37 -46 -43 -108 -25 -166 49
-253 143 -269 295 -6 57 -8 61 -34 67 -33 6 -63 32 -86 76 -16 28 -18 69 -21
364 -2 210 1 346 7 371 18 63 51 105 94 115 35 8 37 11 37 47 0 72 37 167 85
215 93 94 263 144 292 85z m4409 16 c160 -43 264 -165 264 -312 0 -39 2 -42
33 -48 19 -3 44 -17 56 -30 45 -48 51 -97 51 -430 0 -174 -5 -330 -11 -355
-14 -63 -43 -99 -90 -111 -36 -10 -39 -14 -39 -45 0 -100 -48 -197 -126 -255
-35 -25 -174 -80 -204 -80 -6 0 -22 11 -35 25 l-25 24 0 789 c0 783 0 790 21
816 23 30 34 31 105 12z m325 -273 c13 -16 12 -17 -3 -4 -10 7 -18 15 -18 17
0 8 8 3 21 -13z m69 -68 c13 -14 21 -25 18 -25 -2 0 -15 11 -28 25 -13 14 -21
25 -18 25 2 0 15 -11 28 -25z m85 -85 c21 -22 37 -40 34 -40 -3 0 -23 18 -44
40 -21 22 -37 40 -34 40 3 0 23 -18 44 -40z m-5515 -824 c14 -36 40 -77 70
-108 33 -35 52 -64 59 -95 33 -130 136 -249 255 -295 30 -11 43 -24 52 -49 6
-19 28 -71 48 -117 l36 -84 -38 23 c-113 69 -262 201 -327 290 -105 142 -188
363 -235 627 -11 61 -10 64 14 93 15 17 27 36 28 42 1 7 4 -51 8 -128 5 -110
12 -153 30 -199z m7021 -683 c13 -16 12 -17 -3 -4 -10 7 -18 15 -18 17 0 8 8
3 21 -13z m-3741 -1248 l0 -205 -535 0 -535 0 0 205 0 205 535 0 535 0 0 -205z
m443 -373 c511 -111 931 -445 1160 -922 70 -147 112 -274 152 -466 4 -16 -6
-31 -38 -56 -54 -44 -214 -149 -340 -223 -296 -173 -712 -321 -1132 -405 -62
-12 -89 -21 -87 -30 2 -10 0 -11 -11 -2 -11 9 -45 8 -148 -7 -168 -25 -398
-41 -583 -41 -622 0 -1277 188 -1846 530 -135 80 -370 247 -377 267 -9 24 14
122 57 248 92 268 236 494 441 690 193 185 481 344 724 400 181 42 205 43
1085 41 821 -2 848 -3 943 -24z m-4673 -1475 c0 -2 -15 -16 -32 -33 l-33 -29
29 33 c28 30 36 37 36 29z m-70 -70 c0 -2 -17 -19 -37 -38 l-38 -34 34 38 c33
34 41 42 41 34z m4515 -617 c10 -11 16 -20 13 -20 -3 0 -13 9 -23 20 -10 11
-16 20 -13 20 3 0 13 -9 23 -20z m-1405 6 c0 -2 -8 -10 -17 -17 -16 -13 -17
-12 -4 4 13 16 21 21 21 13z"/>
<path d="M6495 10070 c-3 -5 1 -10 10 -10 9 0 13 5 10 10 -3 6 -8 10 -10 10
-2 0 -7 -4 -10 -10z"/>
<path d="M5150 7844 c-181 -48 -321 -184 -374 -363 -14 -47 -16 -121 -16 -500
0 -445 1 -446 24 -514 57 -161 170 -272 333 -326 62 -21 72 -21 1415 -21
l1353 0 68 24 c160 57 267 165 330 336 19 51 21 81 25 442 4 416 -3 523 -39
610 -55 132 -156 233 -291 291 l-73 32 -1350 2 c-1155 2 -1358 0 -1405 -13z
m350 -319 c13 -14 21 -25 18 -25 -2 0 -15 11 -28 25 -13 14 -21 25 -18 25 2 0
15 -11 28 -25z m80 -80 c13 -14 21 -25 18 -25 -2 0 -15 11 -28 25 -13 14 -21
25 -18 25 2 0 15 -11 28 -25z m1900 21 c0 -2 -8 -10 -17 -17 -16 -13 -17 -12
-4 4 13 16 21 21 21 13z m-1695 -99 c97 -49 160 -141 172 -250 3 -28 13 -61
22 -72 9 -12 10 -15 1 -7 -19 16 -30 15 -30 -4 0 -30 -50 -121 -84 -152 -149
-135 -385 -93 -476 85 -34 66 -36 198 -3 258 84 156 253 216 398 142z m1665
-3 c130 -71 191 -224 145 -365 -37 -110 -162 -199 -279 -199 -110 0 -223 68
-266 158 l-24 51 -31 -27 -30 -27 25 28 c21 25 25 39 26 100 0 40 7 92 14 116
25 79 124 168 215 192 58 15 149 3 205 -27z m-1395 -394 c10 -11 16 -20 13
-20 -3 0 -13 9 -23 20 -10 11 -16 20 -13 20 3 0 13 -9 23 -20z m80 -80 c10
-11 16 -20 13 -20 -3 0 -13 9 -23 20 -10 11 -16 20 -13 20 3 0 13 -9 23 -20z
m785 16 c0 -2 -8 -10 -17 -17 -16 -13 -17 -12 -4 4 13 16 21 21 21 13z m-705
-96 c10 -11 16 -20 13 -20 -3 0 -13 9 -23 20 -10 11 -16 20 -13 20 3 0 13 -9
23 -20z m625 16 c0 -2 -8 -10 -17 -17 -16 -13 -17 -12 -4 4 13 16 21 21 21 13z
m-70 -69 c0 -2 -12 -14 -27 -28 l-28 -24 24 28 c23 25 31 32 31 24z m-475 -27
c10 -11 16 -20 13 -20 -3 0 -13 9 -23 20 -10 11 -16 20 -13 20 3 0 13 -9 23
-20z m395 -53 c0 -2 -12 -14 -27 -28 l-28 -24 24 28 c23 25 31 32 31 24z
m-315 -27 c10 -11 16 -20 13 -20 -3 0 -13 9 -23 20 -10 11 -16 20 -13 20 3 0
13 -9 23 -20z m192 -98 l-47 -48 23 -24 22 -24 -25 22 c-25 21 -27 21 -45 4
-19 -17 -19 -16 -2 4 16 19 16 21 -1 39 -16 19 -16 19 4 2 19 -16 22 -15 64
28 24 25 46 45 49 45 3 0 -16 -22 -42 -48z m-112 18 c10 -11 16 -20 13 -20 -3
0 -13 9 -23 20 -10 11 -16 20 -13 20 3 0 13 -9 23 -20z m161 -162 l29 -33 -32
29 c-31 28 -38 36 -30 36 2 0 16 -15 33 -32z m-176 18 c0 -2 -8 -10 -17 -17
-16 -13 -17 -12 -4 4 13 16 21 21 21 13z m-80 -80 c0 -2 -8 -10 -17 -17 -16
-13 -17 -12 -4 4 13 16 21 21 21 13z m335 -16 c10 -11 16 -20 13 -20 -3 0 -13
9 -23 20 -10 11 -16 20 -13 20 3 0 13 -9 23 -20z m-415 -64 c0 -2 -8 -10 -17
-17 -16 -13 -17 -12 -4 4 13 16 21 21 21 13z m495 -16 c10 -11 16 -20 13 -20
-3 0 -13 9 -23 20 -10 11 -16 20 -13 20 3 0 13 -9 23 -20z m-575 -64 c0 -2 -8
-10 -17 -17 -16 -13 -17 -12 -4 4 13 16 21 21 21 13z m655 -16 c10 -11 16 -20
13 -20 -3 0 -13 9 -23 20 -10 11 -16 20 -13 20 3 0 13 -9 23 -20z"/>
<path d="M5620 7301 c-78 -16 -130 -60 -155 -130 -29 -83 -13 -156 49 -217 48
-49 108 -69 176 -60 165 22 232 243 108 356 -30 28 -42 34 -51 28 -2 -2 -10 2
-18 8 -20 17 -68 23 -109 15z m195 -91 c10 -11 16 -20 13 -20 -3 0 -13 9 -23
20 -10 11 -16 20 -13 20 3 0 13 -9 23 -20z"/>
<path d="M7266 7298 c-52 -11 -88 -34 -115 -74 -96 -139 -21 -313 143 -331
150 -17 269 145 211 285 -39 92 -138 142 -239 120z m34 -11 c0 -2 -10 -12 -22
-23 l-23 -19 19 23 c18 21 26 27 26 19z m-60 -61 c0 -2 -8 -10 -17 -17 -16
-13 -17 -12 -4 4 13 16 21 21 21 13z m-80 -80 c0 -2 -8 -10 -17 -17 -16 -13
-17 -12 -4 4 13 16 21 21 21 13z"/>
<path d="M5814 5790 c15 -198 108 -355 277 -468 218 -146 547 -149 774 -7 84
53 127 92 182 165 69 92 113 224 113 343 l0 37 -676 0 -675 -1 5 -69z m1236
-49 c0 -36 -47 -146 -84 -197 -55 -76 -100 -114 -196 -163 -291 -152 -672 -42
-803 230 -20 41 -39 89 -42 107 l-7 32 566 0 c326 0 566 -4 566 -9z"/>
<path d="M3342 9374 c-581 -594 -971 -1307 -1147 -2094 l-34 -155 51 -52 c28
-29 55 -50 59 -48 3 3 10 26 14 52 11 77 70 329 104 443 205 691 608 1350
1126 1843 l60 56 -48 48 -47 48 -138 -141z"/>
<path d="M2157 7094 c-10 -34 -47 -306 -57 -424 -19 -224 -6 -895 19 -962 5
-15 16 -9 62 39 l56 58 -8 90 c-11 133 -10 643 1 775 6 63 17 164 26 224 l16
109 -55 55 c-47 47 -56 52 -60 36z"/>
</g>
</svg>
