<?xml version="1.0" encoding="UTF-8"?>
<svg id="Layer_1" data-name="Layer 1" xmlns="http://www.w3.org/2000/svg" viewBox="0 0 750 752.63">
  <defs>
    <style>
      .cls-1 {
        fill: #0c6dc7;
      }
    </style>
  </defs>
  <path class="cls-1" d="m91.31,421.24c0-28.2,22.84-51.08,51.03-51.08s51.03,22.88,51.03,51.08c0,6.94-1.41,13.54-3.9,19.58l52.58,47.44c7.24-3.99,15.47-6.43,24.29-6.43,7.16,0,13.93,1.5,20.14,4.16l124.39-238.33c-5.23-8.01-8.31-17.57-8.31-27.85,0-28.2,22.84-51.08,51.04-51.08s51.08,22.88,51.08,51.08c0,8.74-2.4,16.8-6.26,23.99l72.5,108.93c4.71-1.41,9.6-2.4,14.74-2.4,4.76,0,9.3.9,13.67,2.1l79.74-146.16c-1.9-3.6-3.68-7.25-5.72-10.78-30.14-52.23-71.33-92.62-123.57-121.16-52.25-28.52-110.51-42.8-174.8-42.8s-122.56,14.28-174.8,42.8c-52.25,28.54-93.43,68.92-123.57,121.16-30.14,52.25-45.21,112.52-45.21,180.83,0,44.31,6.27,85.17,18.61,122.71l45.04-58.55c-2.4-5.96-3.77-12.43-3.77-19.24Z"/>
  <path class="cls-1" d="m629.85,376.25c4.24,7.41,6.86,15.94,6.86,25.11,0,28.24-22.84,51.08-51.08,51.08s-50.99-22.84-50.99-51.08c0-8.96,2.49-17.23,6.51-24.55l-72.29-108.54c-4.8,1.54-9.9,2.57-15.26,2.57-3.81,0-7.54-.51-11.1-1.29l-128.38,245.87c2.01,5.49,3.26,11.27,3.26,17.44,0,28.2-22.88,51.03-51.04,51.03s-51.08-22.84-51.08-51.03c0-5.31,1.03-10.33,2.53-15.13l-55.11-49.7c-6.26,2.7-13.11,4.29-20.35,4.29s-14.1-1.59-20.31-4.29l-55.42,72.04c2.8,5.77,5.68,11.49,8.82,17.07,29.33,52.25,69.71,92.63,121.16,121.16,51.42,28.54,109.28,42.79,173.59,42.79s123.96-14.25,176.6-42.79c52.63-28.52,94.43-68.91,125.38-121.16,30.93-52.23,46.41-112.51,46.41-180.83,0-45.52-6.85-87.38-20.23-125.76l-68.49,125.7Z"/>
</svg>