<?xml version="1.0" standalone="no"?>
<!DOCTYPE svg PUBLIC "-//W3C//DTD SVG 20010904//EN"
 "http://www.w3.org/TR/2001/REC-SVG-20010904/DTD/svg10.dtd">
<svg version="1.0" xmlns="http://www.w3.org/2000/svg"
 width="1200.000000pt" height="1200.000000pt" viewBox="0 0 1200.000000 1200.000000"
 preserveAspectRatio="xMidYMid meet">
<metadata>
Created by potrace 1.16, written by Peter Selinger 2001-2019
</metadata>
<g transform="translate(0.000000,1200.000000) scale(0.100000,-0.100000)"
fill="#000000" stroke="none">
<path d="M5655 11454 c-22 -2 -96 -8 -165 -14 -420 -36 -913 -144 -1334 -295
-599 -213 -1168 -540 -1667 -956 -160 -134 -469 -438 -611 -600 -743 -856
-1185 -1873 -1315 -3029 -25 -222 -25 -898 0 -1120 130 -1156 572 -2173 1315
-3029 142 -162 451 -466 612 -601 842 -703 1831 -1121 2950 -1247 222 -25 898
-25 1120 0 1119 126 2101 541 2950 1247 161 134 546 519 680 680 639 768 1045
1659 1204 2640 53 321 60 436 60 870 0 434 -7 549 -60 870 -159 981 -568 1878
-1204 2640 -135 161 -439 470 -601 612 -853 740 -1877 1186 -3019 1314 -136
15 -806 28 -915 18z m-377 -1809 c467 -90 842 -442 970 -913 26 -97 26 -98 30
-534 l3 -438 297 0 297 0 250 296 c138 163 258 307 268 320 18 23 18 25 -12
103 -44 114 -57 233 -38 341 29 165 87 272 207 383 120 111 265 167 435 167
187 0 322 -56 456 -189 70 -70 94 -102 127 -171 76 -156 90 -317 42 -475 -35
-113 -78 -183 -165 -271 -94 -94 -197 -152 -321 -180 -96 -21 -240 -15 -332
14 l-63 20 -271 -321 c-150 -177 -299 -355 -332 -394 l-61 -72 -392 -1 -393 0
0 -155 0 -155 651 2 652 3 296 437 296 437 182 0 182 1 36 74 c112 228 332
366 585 366 189 0 331 -60 465 -194 129 -130 187 -273 186 -456 0 -115 -18
-188 -72 -298 -47 -96 -149 -206 -241 -260 -138 -82 -320 -111 -472 -78 -188
42 -363 178 -442 343 l-39 82 -71 0 -70 1 -299 -440 -299 -440 -763 0 -764 0
3 -157 3 -158 1201 -3 1201 -2 41 83 c174 351 615 470 941 253 196 -130 301
-343 288 -580 -9 -171 -67 -298 -191 -422 -63 -63 -99 -90 -166 -123 -189 -93
-390 -93 -580 0 -116 57 -238 178 -293 292 l-38 77 -1204 0 -1205 0 0 -155 0
-155 773 0 772 0 289 -440 290 -440 70 0 71 1 38 78 c122 253 421 401 698 347
135 -27 237 -82 340 -185 135 -135 190 -267 190 -456 0 -179 -55 -317 -176
-444 -132 -138 -280 -203 -465 -204 -119 -1 -194 15 -293 64 -131 64 -238 171
-300 301 l-32 67 -184 3 -183 3 -292 442 -291 443 -655 -3 -655 -2 0 -155 0
-155 400 -3 400 -3 355 -525 c336 -499 355 -525 380 -519 14 3 75 9 135 12
131 6 212 -10 325 -64 109 -52 232 -177 288 -293 96 -198 92 -407 -11 -605
-50 -95 -174 -213 -277 -264 -407 -200 -874 46 -940 497 -20 133 10 285 80
409 l31 54 -297 439 -297 440 -288 0 -288 0 -3 -478 -4 -477 -27 -97 c-142
-514 -558 -886 -1100 -985 -127 -23 -381 -23 -502 0 -286 56 -530 178 -726
364 -93 89 -190 209 -240 299 l-29 51 -78 7 c-139 12 -315 63 -447 128 -183
91 -406 290 -524 467 -204 308 -303 706 -262 1059 l12 102 -36 59 c-100 165
-194 411 -234 611 -59 295 -55 624 11 905 50 217 153 456 272 630 73 108 241
284 335 351 l68 49 7 105 c15 231 63 423 152 609 73 154 148 264 257 377 189
198 387 314 641 374 43 11 79 20 81 22 1 2 22 41 46 88 81 158 226 323 380
433 147 104 376 193 564 217 93 12 281 5 383 -15z"/>
<path d="M4947 9240 c-339 -41 -617 -289 -697 -623 -24 -101 -26 -273 -5 -367
81 -349 369 -602 726 -638 l74 -7 3 -207 2 -208 -63 0 c-139 0 -354 55 -497
127 -65 33 -123 69 -205 128 -19 13 -27 11 -89 -20 -142 -71 -233 -168 -258
-272 l-13 -53 -207 0 -208 0 0 38 c1 72 30 178 75 269 58 118 172 241 302 327
l89 58 -37 72 c-72 137 -121 318 -135 494 -3 50 -8 92 -11 92 -11 0 -115 -58
-167 -93 -211 -143 -375 -421 -417 -707 -11 -81 -7 -349 7 -428 l6 -32 -96
-45 c-126 -58 -205 -112 -291 -199 -249 -251 -390 -665 -372 -1086 15 -344
111 -626 295 -868 l48 -64 -22 -98 c-104 -465 75 -952 441 -1195 77 -51 196
-106 260 -119 l30 -6 1 152 c0 187 28 325 98 489 6 13 -11 26 -78 62 -230 122
-393 313 -446 523 -11 43 -20 97 -20 121 l0 43 209 0 208 0 7 -41 c14 -87 74
-166 181 -237 40 -28 99 -60 131 -71 l56 -22 54 48 c213 188 435 302 684 353
l84 17 18 74 c50 208 222 426 446 566 84 53 214 100 287 105 l50 3 3 -208 c2
-191 1 -208 -15 -213 -114 -33 -272 -167 -331 -280 l-32 -62 0 -196 0 -196
-137 0 c-272 -1 -448 -47 -632 -167 -187 -121 -313 -289 -378 -500 -23 -78
-26 -104 -26 -228 0 -126 3 -149 28 -225 71 -220 191 -378 377 -501 236 -155
538 -203 821 -130 287 74 535 289 641 554 48 119 56 193 56 489 l0 270 -42 -7
c-123 -18 -223 -54 -304 -109 -97 -65 -201 -192 -250 -302 l-24 -54 -97 36
c-54 20 -142 52 -195 71 -55 20 -98 41 -98 48 0 28 105 220 160 293 69 92 174
193 260 252 145 98 344 170 514 186 l76 7 0 809 c0 900 6 820 -70 923 -54 73
-114 123 -189 159 -62 29 -73 31 -176 30 -95 0 -120 -4 -185 -28 -158 -59
-251 -128 -433 -320 -153 -162 -252 -239 -401 -311 -205 -99 -373 -122 -583
-79 -24 5 -33 3 -33 -6 0 -8 -20 -46 -45 -86 -116 -186 -328 -314 -557 -338
l-58 -6 0 214 0 213 49 6 c98 12 184 78 228 174 82 178 -37 397 -228 420 l-49
6 0 213 0 214 58 -6 c166 -17 318 -85 435 -194 103 -96 165 -196 206 -330 16
-52 20 -56 67 -73 38 -15 67 -18 134 -14 171 9 285 78 513 313 213 218 349
314 554 387 191 69 421 76 593 18 52 -18 110 -41 128 -52 18 -10 35 -19 38
-19 2 0 4 225 4 500 l0 500 -39 0 c-56 0 -196 26 -271 50 -219 71 -438 236
-569 429 -42 61 -131 235 -131 256 0 6 66 35 148 64 81 30 168 62 193 72 l47
18 35 -73 c110 -221 303 -362 536 -391 l53 -7 -4 203 c-4 198 -5 207 -36 298
-43 123 -99 217 -185 307 -181 191 -435 285 -690 254z"/>
<path d="M7879 8922 c-141 -73 -162 -269 -40 -373 112 -97 276 -68 344 60 32
61 39 101 26 161 -32 148 -194 223 -330 152z"/>
<path d="M9059 7893 c-138 -71 -168 -252 -59 -361 146 -146 391 -45 390 160
-1 173 -175 279 -331 201z"/>
<path d="M9215 6281 c-118 -53 -167 -193 -109 -310 64 -127 218 -165 337 -84
74 51 112 159 88 249 -14 52 -74 122 -125 145 -53 24 -139 24 -191 0z"/>
<path d="M9120 4681 c-187 -38 -250 -273 -106 -398 46 -42 96 -56 172 -51 82
5 136 41 176 117 89 170 -56 369 -242 332z"/>
<path d="M7879 3332 c-142 -74 -162 -269 -39 -374 164 -141 415 9 369 222 -32
148 -194 223 -330 152z"/>
</g>
</svg>
