<?xml version="1.0" encoding="utf-8"?>
<!-- Generator: Adobe Illustrator 27.6.1, SVG Export Plug-In . SVG Version: 6.00 Build 0)  -->
<svg version="1.1" id="Layer_1" xmlns="http://www.w3.org/2000/svg" xmlns:xlink="http://www.w3.org/1999/xlink" x="0px" y="0px"
	 viewBox="0 0 798.29 801.09" style="enable-background:new 0 0 798.29 801.09;" xml:space="preserve">
<style type="text/css">
	.st0{fill:#0C6DC7;}
</style>
<g>
	<path class="st0" d="M337.85,422.64l-138.03,25.1c-2.57,12.31-8.74,23.3-17.37,31.83l90.76,111.99c5.03-2.04,10.52-3.17,16.27-3.17
		c0.65,0,1.29,0.02,1.93,0.05l68.13-145.32C351.13,437.66,343.77,430.71,337.85,422.64z"/>
	
		<ellipse transform="matrix(0.9239 -0.3827 0.3827 0.9239 -155.8976 86.022)" class="st0" cx="138.28" cy="434.89" rx="31.06" ry="31.06"/>
	<path class="st0" d="M403.94,292.41c24.35,0,46.23,10.69,61.25,27.61l88.38-60.58c-3.05-7.53-4.74-15.75-4.74-24.35
		c0-4.33,0.43-8.56,1.24-12.65l-250.22-49.65c-1.67,3.05-3.7,5.87-6.04,8.42l76.09,118.65
		C380.29,295.08,391.81,292.41,403.94,292.41z"/>
	<path class="st0" d="M353.84,374.33c0,27.63,22.48,50.1,50.11,50.1c27.63,0,50.1-22.48,50.1-50.1c0-27.63-22.48-50.11-50.1-50.11
		C376.32,324.22,353.84,346.7,353.84,374.33z"/>
	<path class="st0" d="M324.16,392.8c-1.38-5.94-2.13-12.12-2.13-18.48c0-21.56,8.39-41.19,22.06-55.84L264.9,195.02
		c-0.88,0.05-1.76,0.09-2.66,0.09c-3.68,0-7.25-0.47-10.65-1.34l-80.91,187.27c12.9,7.79,22.78,20.08,27.47,34.68L324.16,392.8z"/>
	<path class="st0" d="M768.15,257.03l-21.98-50.54c-2.16-4.11-4.21-8.28-6.53-12.3c-34.39-59.61-81.4-105.7-141.01-138.26
		C539,23.38,472.52,7.09,399.15,7.09c-73.38,0-139.87,16.29-199.48,48.84C140.04,88.49,93.05,134.58,58.65,194.19
		C24.26,253.81,7.06,322.6,7.06,400.55c0,50.56,7.16,97.2,21.24,140.04l18.91,46.84c3.2,6.58,6.49,13.11,10.07,19.48
		c33.47,59.62,79.55,105.71,138.26,138.26C254.23,777.74,320.26,794,393.65,794c74.29,0,141.46-16.27,201.54-48.83
		c60.06-32.55,107.77-78.64,143.08-138.26c35.3-59.61,52.96-128.39,52.96-206.36C791.23,348.61,783.42,300.83,768.15,257.03z
		 M595.82,649.46c-29.29,0-55.26-14.44-71.18-36.58l-193.86,32.2c-5.62,17.44-21.98,30.05-41.28,30.05
		c-23.96,0-43.38-19.42-43.38-43.38c0-6.5,1.44-12.66,4-18.2l-95.59-117.95c-5.18,1.39-10.63,2.14-16.24,2.14
		c-34.67,0-62.87-28.2-62.87-62.87c0-34.67,28.2-62.87,62.87-62.87c0.54,0,1.08,0.03,1.62,0.04l85.51-197.92
		c-3.83-6.41-6.03-13.9-6.03-21.89c0-23.63,19.23-42.86,42.86-42.86c19.77,0,36.45,13.46,41.38,31.7l260.82,51.76
		c11.96-14,29.72-22.91,49.53-22.91c35.92,0,65.14,29.22,65.14,65.14c0,33.71-25.74,61.51-58.59,64.81l2.37,178.62
		c35.1,11.43,60.55,44.46,60.55,83.33C683.44,610.16,644.13,649.46,595.82,649.46z"/>
	
		<ellipse transform="matrix(0.3827 -0.9239 0.9239 0.3827 -151.2658 897.3)" class="st0" cx="595.82" cy="561.84" rx="55.81" ry="55.81"/>
	<path class="st0" d="M591.02,474.36l-2.38-179.27c-5.93-2.51-11.41-5.89-16.3-9.95l-91.02,62.39c2.92,8.4,4.53,17.42,4.53,26.8
		c0,21.34-8.21,40.8-21.64,55.4l76.6,63.97C554.71,482.46,572.07,475.38,591.02,474.36z"/>
	<path class="st0" d="M437.63,448.96c-10.28,4.66-21.68,7.28-33.68,7.28c-5.05,0-9.98-0.48-14.78-1.36l-68.7,146.53
		c3.36,3.42,6.15,7.4,8.23,11.78l182.07-30.25c-1.68-6.76-2.57-13.82-2.57-21.1c0-16.04,4.34-31.08,11.89-44.02L437.63,448.96z"/>
</g>
</svg>
