<svg width="32" height="32" viewBox="0 0 32 32" fill="none" xmlns="http://www.w3.org/2000/svg">
<g clip-path="url(#clip0_387_321)">
<path d="M16 32C24.8366 32 32 24.8366 32 16C32 7.16344 24.8366 0 16 0C7.16344 0 0 7.16344 0 16C0 24.8366 7.16344 32 16 32Z" fill="#C12026"/>
<g style="mix-blend-mode:screen" opacity="0.59">
<path d="M21.5508 20.6292L21.5845 20.8614L21.9028 20.8464C21.9028 20.8464 21.7006 20.6479 21.6669 20.633C21.6482 20.6255 21.6182 20.633 21.607 20.633C21.5882 20.633 21.5508 20.633 21.5508 20.633V20.6292Z" fill="url(#paint0_linear_387_321)"/>
<path style="mix-blend-mode:screen" opacity="0.5" d="M21.5957 20.6369C21.6182 20.6369 21.6332 20.6332 21.6556 20.6444C21.6631 20.6482 21.6706 20.6557 21.6931 20.6744C21.7081 20.6856 21.7193 20.6894 21.738 20.7006C21.798 20.7381 21.8467 20.8167 21.8766 20.8467H21.9028C21.9028 20.8467 21.7006 20.6444 21.6669 20.6332C21.6482 20.6257 21.6182 20.6332 21.607 20.6332C21.5882 20.6332 21.5508 20.6332 21.5508 20.6332C21.5508 20.6332 21.5807 20.6407 21.592 20.6407L21.5957 20.6369Z" fill="url(#paint1_linear_387_321)"/>
<mask id="mask0_387_321" style="mask-type:luminance" maskUnits="userSpaceOnUse" x="21" y="20" width="1" height="1">
<path d="M21.5508 20.6292L21.5845 20.8614L21.9028 20.8464C21.9028 20.8464 21.7006 20.6479 21.6669 20.633C21.6482 20.6255 21.6182 20.633 21.607 20.633C21.5882 20.633 21.5508 20.633 21.5508 20.633V20.6292Z" fill="white"/>
</mask>
<g mask="url(#mask0_387_321)">
<path style="mix-blend-mode:screen" d="M21.9331 20.7403C22.0111 20.6308 21.965 20.4642 21.8302 20.3682C21.6954 20.2722 21.5229 20.2832 21.4449 20.3927C21.3669 20.5023 21.413 20.6689 21.5478 20.7648C21.6826 20.8608 21.8551 20.8498 21.9331 20.7403Z" fill="url(#paint2_radial_387_321)"/>
</g>
<path d="M21.4912 20.6105H21.5324L21.5511 20.6217L21.6935 20.7491C21.6935 20.7491 21.7084 20.7491 21.7159 20.7491C21.7234 20.7491 21.7309 20.7491 21.7384 20.7565C21.7459 20.7603 21.8021 20.8052 21.8021 20.8052C21.8021 20.8052 21.8171 20.809 21.8283 20.8127C21.8395 20.8165 21.847 20.8202 21.8583 20.8277C21.8657 20.8352 21.8732 20.8389 21.8807 20.8389C21.8882 20.8389 21.892 20.8389 21.9032 20.8389C21.9069 20.8389 21.9144 20.8352 21.9219 20.8315C21.9294 20.8315 21.9369 20.824 21.9406 20.8202C21.9444 20.8202 21.9519 20.8165 21.9594 20.8127C21.9669 20.8127 21.9706 20.8127 21.9744 20.8127C21.9744 20.8127 21.9781 20.8127 21.9818 20.8165C21.9818 20.8165 21.9818 20.8165 21.9893 20.8165C21.9893 20.8165 21.9893 20.8165 21.9931 20.8165C21.9931 20.8165 21.9931 20.8165 21.9968 20.8165C22.0006 20.8165 22.0043 20.8165 22.0081 20.8165C22.0118 20.8165 22.0156 20.8165 22.0193 20.8202C22.0343 20.8315 22.0568 20.8464 22.0792 20.8652C22.1017 20.8801 22.1204 20.8951 22.1242 20.8951C22.1279 20.8951 22.1354 20.8951 22.1392 20.8951C22.1429 20.8951 22.1466 20.8989 22.1541 20.9026L22.3976 21.0936L22.641 21.2846H21.4912V20.5992V20.6105Z" fill="url(#paint3_linear_387_321)"/>
<g style="mix-blend-mode:multiply">
<path d="M22.3938 21.1049L22.1504 20.9139C22.1504 20.9139 22.1429 20.9064 22.1354 20.9064C22.1317 20.9064 22.1242 20.9064 22.1204 20.9064L22.2215 20.9888L22.244 21.0375L22.4425 21.3072L21.9631 20.9064L21.9069 20.8765H21.877L21.8957 20.8802H21.8695C21.847 20.8727 21.7908 20.8278 21.7571 20.8053C21.7496 20.7978 21.7384 20.7941 21.7309 20.7866C21.7234 20.7828 21.7009 20.7753 21.7009 20.7753L21.6785 20.7604L21.6935 20.7753H21.6897L21.5624 20.6667L21.5699 20.6742L21.5024 20.618H21.5099L21.495 20.6143H21.4912V21.2997H22.641L22.3976 21.1087L22.3938 21.1049Z" fill="#A0BCC3"/>
</g>
<g style="mix-blend-mode:screen">
<path d="M22.1316 20.9251L22.1167 20.9101V20.9026C22.1167 20.9026 22.0979 20.8876 22.0792 20.8726C22.0567 20.8577 22.0305 20.8389 22.0193 20.8277C22.0193 20.8277 22.0118 20.824 22.0081 20.824C22.0043 20.824 22.0006 20.824 21.9968 20.824C21.9968 20.824 21.9968 20.824 21.9931 20.824C21.9931 20.824 21.9931 20.824 21.9893 20.824C21.9893 20.824 21.9856 20.824 21.9818 20.824C21.9818 20.824 21.9818 20.824 21.9743 20.8202C21.9743 20.8202 21.9669 20.8202 21.9594 20.8202C21.9519 20.8202 21.9481 20.824 21.9406 20.8277C21.9369 20.8277 21.9294 20.8352 21.9219 20.8389C21.9144 20.8389 21.9069 20.8464 21.9032 20.8464C21.8957 20.8464 21.8882 20.8464 21.8807 20.8464C21.8732 20.8464 21.8695 20.8389 21.8582 20.8352C21.8508 20.8277 21.8395 20.824 21.8283 20.8202C21.817 20.8165 21.8021 20.8127 21.8021 20.8127C21.8021 20.8127 21.7459 20.7678 21.7384 20.764C21.7309 20.7603 21.7234 20.7603 21.7159 20.7565C21.7084 20.7565 21.6934 20.7565 21.6934 20.7565L21.5511 20.6292L21.5324 20.6217H21.5137L21.5361 20.6329H21.5324H21.5399H21.5474L21.7009 20.7715L21.6934 20.7603C21.6934 20.7603 21.7197 20.7603 21.7309 20.7678C21.7421 20.7753 21.8096 20.8277 21.8096 20.8277C21.8096 20.8277 21.8096 20.824 21.8058 20.824C21.8545 20.8427 21.8657 20.8689 21.8882 20.8651C21.9107 20.8651 21.9369 20.8314 21.9706 20.8464C22.0006 20.8614 22.0118 20.8764 22.0268 20.8726C22.0418 20.8726 22.0493 20.8801 22.0605 20.8876C22.0755 20.8989 22.1279 20.9363 22.1242 20.9363L22.1316 20.9251Z" fill="#324940"/>
</g>
<mask id="mask1_387_321" style="mask-type:luminance" maskUnits="userSpaceOnUse" x="21" y="20" width="2" height="2">
<path d="M21.4912 20.6105H21.5324L21.5511 20.6217L21.6935 20.7491C21.6935 20.7491 21.7084 20.7491 21.7159 20.7491C21.7234 20.7491 21.7309 20.7491 21.7384 20.7565C21.7459 20.7603 21.8021 20.8052 21.8021 20.8052C21.8021 20.8052 21.8171 20.809 21.8283 20.8127C21.8395 20.8165 21.847 20.8202 21.8583 20.8277C21.8657 20.8352 21.8732 20.8389 21.8807 20.8389C21.8882 20.8389 21.892 20.8389 21.9032 20.8389C21.9069 20.8389 21.9144 20.8352 21.9219 20.8315C21.9294 20.8315 21.9369 20.824 21.9406 20.8202C21.9444 20.8202 21.9519 20.8165 21.9594 20.8127C21.9669 20.8127 21.9706 20.8127 21.9744 20.8127C21.9744 20.8127 21.9781 20.8127 21.9818 20.8165C21.9818 20.8165 21.9818 20.8165 21.9893 20.8165C21.9893 20.8165 21.9893 20.8165 21.9931 20.8165C21.9931 20.8165 21.9931 20.8165 21.9968 20.8165C22.0006 20.8165 22.0043 20.8165 22.0081 20.8165C22.0118 20.8165 22.0156 20.8165 22.0193 20.8202C22.0343 20.8315 22.0568 20.8464 22.0792 20.8652C22.1017 20.8801 22.1204 20.8951 22.1242 20.8951C22.1279 20.8951 22.1354 20.8951 22.1392 20.8951C22.1429 20.8951 22.1466 20.8989 22.1541 20.9026L22.3976 21.0936L22.641 21.2846H21.4912V20.5992V20.6105Z" fill="white"/>
</mask>
<g mask="url(#mask1_387_321)">
<path style="mix-blend-mode:screen" d="M22.4019 20.9932C22.5183 20.8298 22.4487 20.5806 22.2465 20.4366C22.0443 20.2927 21.7861 20.3085 21.6697 20.4719C21.5533 20.6354 21.6229 20.8846 21.8251 21.0285C22.0273 21.1725 22.2856 21.1567 22.4019 20.9932Z" fill="url(#paint4_radial_387_321)"/>
</g>
<path d="M20.3076 20.8651C20.3076 20.8651 20.3713 20.8202 20.39 20.8127C20.3975 20.809 20.4087 20.8052 20.4125 20.8052H20.42H20.4275C20.4574 20.7865 20.5511 20.7341 20.581 20.7153C20.6035 20.7041 20.6222 20.7041 20.6522 20.6966C20.7196 20.6816 20.7983 20.6741 20.8132 20.6854L20.5998 21.0562H20.3076V20.8651Z" fill="#2E4F65"/>
<g style="mix-blend-mode:multiply">
<path d="M20.3073 20.8914C20.3073 20.8914 20.371 20.8464 20.3897 20.8389C20.3972 20.8352 20.4084 20.8314 20.4122 20.8314H20.4197H20.4271C20.4384 20.8239 20.4946 20.7902 20.4946 20.7902L20.5095 20.779L20.5021 20.7902H20.5395L20.6144 20.7191L20.6594 20.7078C20.6594 20.7078 20.7942 20.7003 20.8054 20.7153L20.5919 21.0861H20.2998V20.8951L20.3073 20.8914Z" fill="#A0BCC3"/>
</g>
<path d="M20.3975 21.0936L20.5173 20.8689L20.5623 20.8202L20.5735 20.8052L20.6035 20.779L20.6147 20.7603L20.6746 20.7378L20.8656 20.573L20.8694 20.5618L21.0042 20.5206L21.0941 20.4532L21.1353 20.4344L21.1653 20.4307V21.0936H20.3975Z" fill="url(#paint5_linear_387_321)"/>
<g style="mix-blend-mode:multiply">
<path d="M20.4873 21.0936L20.6671 20.809L20.7345 20.7341L20.8768 20.5955H20.8993L20.9929 20.5655L21.1352 20.4344L21.1652 20.4307V21.0936H20.4873Z" fill="#A0BCC3"/>
</g>
<path style="mix-blend-mode:screen" opacity="0.5" d="M21.0045 20.5206L20.8734 20.5618V20.5693L20.6749 20.7378L20.615 20.7603L20.6075 20.7715L20.5813 20.8052L20.5701 20.8202L20.5214 20.8651L20.4053 21.0899H20.4615L20.5776 20.8988V20.8876L20.585 20.8689L20.5326 20.9326H20.5214L20.6075 20.7865C20.6075 20.7865 20.6262 20.7678 20.6375 20.7603L20.6787 20.7528L20.6712 20.7678L20.8622 20.5842H20.8734L20.8622 20.603L20.8847 20.5693L20.9671 20.5393L21.0083 20.5281L20.9933 20.5505L21.0195 20.5243L21.0982 20.4532L21.0083 20.5206H21.0045Z" fill="url(#paint6_linear_387_321)"/>
<path d="M21.2511 20.3895L21.1987 20.397L21.1837 20.4045H21.18L21.1687 20.412L21.1613 20.4195L21.135 20.4494L20.9965 20.573L20.9103 20.5992L20.8953 20.6142L20.738 20.7565L20.7043 20.8015C20.6893 20.824 20.6744 20.8464 20.6594 20.8726C20.6444 20.8989 20.6332 20.9288 20.6219 20.9588L20.5732 21.0936H21.2511V20.3895Z" fill="url(#paint7_linear_387_321)"/>
<g style="mix-blend-mode:multiply">
<path d="M21.2508 20.3895L21.1984 20.397V20.4232L21.1759 20.4457L21.1197 20.5131V20.5206L21.1384 20.5655L21.1422 20.5768L21.1047 20.6479L20.865 20.8427L20.7714 20.8914L20.7527 20.8652L20.659 20.97L20.6328 21.0936H21.2508V20.3895Z" fill="#A0BCC3"/>
</g>
<g style="mix-blend-mode:screen" opacity="0.5">
<path d="M21.1611 20.4195L21.1348 20.4497L21.1912 20.4233V20.4045L21.1837 20.4082H21.1799L21.1686 20.412L21.1611 20.4195Z" fill="#324940"/>
<path d="M20.7451 20.749H20.7564L20.835 20.6816L20.9099 20.6105H20.9211L20.9062 20.6254C20.9137 20.6179 20.9249 20.6142 20.9324 20.6142C20.9399 20.6142 20.9436 20.6142 20.9511 20.6142L20.9773 20.6217L21.0298 20.588L21.041 20.5805H21.026L21.0073 20.5768L21.0485 20.5468C21.0485 20.5468 21.0635 20.5356 21.071 20.5318C21.0822 20.5281 21.0897 20.5206 21.1009 20.5206H21.1084L21.1271 20.5018H21.1047L21.1384 20.4681H21.1496L21.1608 20.4532L21.1459 20.4606H21.1384L21.0035 20.5768L20.9174 20.603L20.9024 20.6179L20.7526 20.7528L20.7451 20.749Z" fill="#324940"/>
<path d="M20.7788 20.7565L20.7564 20.8015L20.7451 20.8389L20.805 20.8052L20.7976 20.8202L20.8313 20.809L20.9661 20.7078L20.9961 20.6479H20.9698C20.9698 20.6479 20.9361 20.6479 20.9174 20.6554C20.9024 20.6592 20.865 20.6779 20.865 20.6779L20.8725 20.6891L20.8462 20.6966L20.7751 20.7528L20.7788 20.7565Z" fill="#324940"/>
</g>
<path d="M20.7909 21.1498C20.7909 21.1498 20.8021 21.1273 20.8208 21.0899C20.8395 21.0524 20.8733 21.0075 20.9107 20.9588C20.9519 20.9101 20.9931 20.8577 21.0306 20.809C21.068 20.7603 21.098 20.7153 21.1092 20.6891C21.1167 20.6704 21.1429 20.5917 21.1429 20.5917V20.5768L21.1167 20.5318V20.5206C21.1167 20.5206 21.1504 20.4906 21.1804 20.4569C21.2103 20.4232 21.244 20.3932 21.2478 20.3857C21.2515 20.382 21.2553 20.3783 21.259 20.3745H21.2665C21.2665 20.3745 21.2965 20.3745 21.3227 20.3745C21.3489 20.3745 21.3751 20.3783 21.3789 20.382C21.3789 20.382 21.3901 20.4007 21.4051 20.4157C21.4163 20.4344 21.4313 20.4532 21.4463 20.4719C21.4613 20.4906 21.48 20.5168 21.4987 20.5393C21.5174 20.5618 21.5324 20.5805 21.5362 20.5805C21.5362 20.5805 21.5437 20.5805 21.5512 20.5842C21.5586 20.5842 21.5661 20.5917 21.5736 20.5992C21.5811 20.6067 21.6972 20.7453 21.8133 20.8801C21.9257 21.015 22.038 21.146 22.038 21.146H21.4126H20.7871L20.7909 21.1498Z" fill="url(#paint8_linear_387_321)"/>
<mask id="mask2_387_321" style="mask-type:luminance" maskUnits="userSpaceOnUse" x="20" y="20" width="3" height="2">
<path d="M20.7909 21.1498C20.7909 21.1498 20.8021 21.1273 20.8208 21.0899C20.8395 21.0524 20.8733 21.0075 20.9107 20.9588C20.9519 20.9101 20.9931 20.8577 21.0306 20.809C21.068 20.7603 21.098 20.7153 21.1092 20.6891C21.1167 20.6704 21.1429 20.5917 21.1429 20.5917V20.5768L21.1167 20.5318V20.5206C21.1167 20.5206 21.1504 20.4906 21.1804 20.4569C21.2103 20.4232 21.244 20.3932 21.2478 20.3857C21.2515 20.382 21.2553 20.3783 21.259 20.3745H21.2665C21.2665 20.3745 21.2965 20.3745 21.3227 20.3745C21.3489 20.3745 21.3751 20.3783 21.3789 20.382C21.3789 20.382 21.3901 20.4007 21.4051 20.4157C21.4163 20.4344 21.4313 20.4532 21.4463 20.4719C21.4613 20.4906 21.48 20.5168 21.4987 20.5393C21.5174 20.5618 21.5324 20.5805 21.5362 20.5805C21.5362 20.5805 21.5437 20.5805 21.5512 20.5842C21.5586 20.5842 21.5661 20.5917 21.5736 20.5992C21.5811 20.6067 21.6972 20.7453 21.8133 20.8801C21.9257 21.015 22.038 21.146 22.038 21.146H21.4126H20.7871L20.7909 21.1498Z" fill="white"/>
</mask>
<g mask="url(#mask2_387_321)">
<path style="mix-blend-mode:screen" d="M22.0348 20.794C22.0648 21.1797 21.8251 21.2659 21.4993 20.9887C21.1734 20.7116 20.885 20.176 20.8551 19.7902C20.8251 19.4045 21.0648 19.3183 21.3906 19.5955C21.7165 19.8726 22.0049 20.4082 22.0348 20.794Z" fill="url(#paint9_radial_387_321)"/>
<path style="mix-blend-mode:screen" d="M22.1733 20.8502C22.2295 21.3033 21.9523 21.4232 21.5516 21.1123C21.1508 20.8052 20.78 20.1872 20.7201 19.7303C20.6639 19.2771 20.9411 19.1573 21.3418 19.4681C21.7426 19.779 22.1134 20.3932 22.1733 20.8502Z" fill="url(#paint10_radial_387_321)"/>
</g>
<g style="mix-blend-mode:screen" opacity="0.5">
<path d="M21.413 20.4195C21.413 20.4195 21.3906 20.3895 21.3868 20.3858C21.3868 20.3858 21.3568 20.3783 21.3306 20.3783C21.3044 20.3783 21.2782 20.3783 21.2744 20.3783H21.267C21.267 20.3783 21.2595 20.382 21.2557 20.3895C21.2557 20.3895 21.2332 20.412 21.207 20.4382L21.4392 20.4569C21.4392 20.4569 21.4205 20.4307 21.413 20.4195Z" fill="#98A17B"/>
<path opacity="0.5" d="M21.8209 20.8839C21.7085 20.7491 21.5924 20.6105 21.5812 20.603C21.5737 20.5955 21.5624 20.588 21.5587 20.588C21.5512 20.588 21.5475 20.588 21.5437 20.5843C21.5437 20.5843 21.525 20.5655 21.5063 20.5431C21.4875 20.5206 21.4688 20.4944 21.4538 20.4756L21.334 20.4607L21.3827 20.5281L21.4688 20.5843L21.4875 20.6292L21.5213 20.6105V20.6292L21.6224 20.7603V20.779C21.6224 20.779 21.6299 20.7715 21.6374 20.764C21.6374 20.7828 21.6374 20.8052 21.6411 20.824C21.6411 20.809 21.6523 20.7977 21.6598 20.7865C21.6598 20.8015 21.6598 20.8165 21.6598 20.8352C21.6598 20.824 21.6636 20.8165 21.6673 20.8052C21.6673 20.8165 21.6711 20.8314 21.6748 20.8427C21.6935 20.8502 21.7272 20.8652 21.7272 20.8652L21.9183 21.1498H22.0493C22.0493 21.1498 21.937 21.0187 21.8246 20.8839H21.8209Z" fill="#98A17B"/>
<path opacity="0.3" d="M21.4053 20.7079C21.4053 20.7079 21.454 20.8352 21.454 20.8389L21.4764 20.8652L21.4615 20.8389H21.4727L21.5813 20.985L21.6824 21.03L21.5963 20.8764V20.8689L21.6113 20.8876L21.5888 20.8202L21.5214 20.7041L21.4427 20.6517L21.4128 20.6592L21.4053 20.7153V20.7079Z" fill="#98A17B"/>
</g>
<g style="mix-blend-mode:screen" opacity="0.8">
<path d="M21.4132 20.4195C21.4132 20.4195 21.3907 20.3895 21.3869 20.3858C21.3869 20.3858 21.357 20.3783 21.3308 20.3783C21.3045 20.3783 21.2783 20.3783 21.2746 20.3783H21.2671C21.2671 20.3783 21.2596 20.382 21.2559 20.3895H21.3233L21.2971 20.4007L21.3982 20.4082L21.4132 20.4195Z" fill="#98A17B"/>
<path d="M21.5588 20.588C21.5588 20.588 21.5476 20.588 21.5438 20.5843C21.5438 20.5843 21.5251 20.5655 21.5064 20.5431C21.4876 20.5206 21.4689 20.4944 21.4539 20.4756H21.4502L21.5438 20.5918L21.5775 20.6292L21.5663 20.603L21.5888 20.618L21.6862 20.7228C21.63 20.6554 21.5888 20.6067 21.585 20.603C21.5775 20.5955 21.5663 20.588 21.5626 20.588H21.5588Z" fill="#98A17B"/>
</g>
<path d="M19.1502 20.8352C19.1502 20.8352 19.2439 20.7603 19.2663 20.7416C19.2776 20.7341 19.2926 20.7303 19.3 20.7303C19.3038 20.7303 19.3075 20.7303 19.3113 20.7303C19.315 20.7303 19.3188 20.7303 19.3225 20.7229C19.3637 20.6929 19.4985 20.5955 19.5397 20.5693C19.5697 20.5506 19.5997 20.5506 19.6409 20.5393C19.7382 20.5131 19.8506 20.4981 19.8693 20.5243L19.566 21.1723H19.1465V20.839L19.1502 20.8352Z" fill="#2E4F65"/>
<g style="mix-blend-mode:multiply">
<path d="M19.1504 20.8764C19.1504 20.8764 19.244 20.8015 19.2665 20.7828C19.2777 20.7753 19.2927 20.7715 19.3002 20.7715C19.3039 20.7715 19.3077 20.7715 19.3114 20.7715C19.3152 20.7715 19.3189 20.7715 19.3227 20.7641C19.3377 20.7528 19.4201 20.6929 19.4201 20.6929L19.4425 20.6704L19.4313 20.6929L19.4837 20.6854L19.5923 20.5693L19.6598 20.5506C19.6598 20.5506 19.8545 20.5393 19.8732 20.5618L19.5699 21.2097H19.1504V20.8764Z" fill="#A0BCC3"/>
</g>
<path d="M19.2812 21.2322L19.4498 20.8389L19.5172 20.7566L19.5322 20.7303L19.5734 20.6779L19.5884 20.6479L19.6745 20.6105L19.9517 20.3146L19.9592 20.2996L20.1464 20.2247L20.2775 20.1086L20.3374 20.0749L20.3786 20.0674V21.2322H19.2812Z" fill="url(#paint11_linear_387_321)"/>
<g style="mix-blend-mode:multiply">
<path d="M19.4082 21.2322L19.6629 20.7303L19.7603 20.5992L19.9663 20.3558H20L20.131 20.3034L20.337 20.0749L20.3782 20.0674V21.2322H19.4082Z" fill="#A0BCC3"/>
</g>
<path style="mix-blend-mode:screen" opacity="0.5" d="M20.1463 20.2247L19.9552 20.2996L19.9478 20.3146L19.6706 20.6067L19.5845 20.6442L19.5732 20.6666V20.6741L19.5283 20.7228L19.5133 20.749L19.4459 20.8314L19.2773 21.2247H19.356L19.5208 20.8876V20.8726L19.532 20.8352L19.4571 20.9475H19.4421L19.5695 20.6891C19.5695 20.6891 19.5957 20.6592 19.6144 20.6404L19.6743 20.6254L19.6631 20.6517L19.9365 20.3296H19.9515L19.9365 20.3595L19.9702 20.3034L20.0901 20.2509L20.1463 20.2359L20.1275 20.2734L20.165 20.2284L20.2773 20.1011L20.1463 20.2172V20.2247Z" fill="url(#paint12_linear_387_321)"/>
<path d="M20.5057 19.9962L20.427 20.0112L20.4046 20.0262H20.3971L20.3821 20.0374L20.3709 20.0487L20.3297 20.1011L20.1274 20.3146L20.0038 20.3633L19.9813 20.3895L19.7566 20.6367L19.7117 20.7153C19.6892 20.7528 19.6667 20.794 19.648 20.8389C19.6255 20.8876 19.6106 20.9363 19.5956 20.9887L19.5244 21.2284H20.4982V19.9925L20.5057 19.9962Z" fill="url(#paint13_linear_387_321)"/>
<g style="mix-blend-mode:multiply">
<path d="M20.5058 19.9962L20.4272 20.0112V20.0562L20.3972 20.0974L20.3185 20.2135L20.3148 20.2285L20.341 20.3071L20.3448 20.3258L20.2961 20.4532L19.9515 20.794L19.8167 20.8801L19.7904 20.8315L19.6556 21.0112L19.6182 21.2322H20.5058V19.9962Z" fill="#A0BCC3"/>
</g>
<g style="mix-blend-mode:screen" opacity="0.5">
<path d="M20.3742 20.0487L20.333 20.1011L20.4154 20.0599V20.0225L20.4079 20.0262L20.4004 20.03L20.3854 20.0374L20.3742 20.0487Z" fill="#324940"/>
<path d="M19.7752 20.6292H19.7902L19.9026 20.5094L20.0074 20.3858H20.0224L19.9999 20.4157C20.0112 20.4045 20.0262 20.397 20.0411 20.3932C20.0486 20.3932 20.0561 20.3932 20.0674 20.3932L20.1048 20.4045L20.1797 20.3446L20.1947 20.3296L20.176 20.3371L20.1498 20.3221L20.2059 20.2697C20.2059 20.2697 20.2247 20.2509 20.2359 20.2434C20.2509 20.2359 20.2621 20.2247 20.2771 20.221H20.2846L20.3108 20.1873L20.3258 20.1648L20.3071 20.1835H20.2996L20.2734 20.176L20.3183 20.1273L20.337 20.1198L20.352 20.1049L20.3333 20.1161H20.322L20.131 20.3221L20.0074 20.3708L19.985 20.397L19.7715 20.6329L19.7752 20.6292Z" fill="#324940"/>
<path d="M19.8278 20.6367L19.7941 20.7154L19.7754 20.7828L19.8615 20.7266L19.854 20.7528L19.9027 20.7341L20.0975 20.5543L20.1387 20.4494H20.0975C20.0713 20.4494 20.0488 20.4532 20.0226 20.4644C20.0039 20.4719 19.9477 20.5019 19.9477 20.5019L19.9589 20.5206L19.9215 20.5356L19.8166 20.6367H19.8278Z" fill="#324940"/>
</g>
<path d="M19.8467 21.3858C19.8467 21.3858 19.8617 21.3408 19.8916 21.2771C19.9216 21.2097 19.9665 21.1236 20.0227 21.0374C20.0789 20.9513 20.1426 20.8502 20.195 20.764C20.2474 20.6742 20.2886 20.5955 20.3074 20.5468C20.3186 20.5131 20.356 20.3708 20.356 20.3708V20.3446L20.3186 20.2584V20.2397C20.3186 20.2397 20.3635 20.1835 20.4085 20.1236C20.4534 20.0637 20.5021 20.0037 20.5059 19.9962C20.5133 19.9888 20.5171 19.9813 20.5208 19.9775C20.5246 19.9738 20.5283 19.97 20.5358 19.97C20.5396 19.97 20.5808 19.97 20.6182 19.97C20.6557 19.97 20.6969 19.9775 20.7006 19.985C20.7044 19.9925 20.7193 20.015 20.7343 20.0487C20.753 20.0786 20.7718 20.1198 20.7942 20.1498C20.8167 20.1835 20.8467 20.2285 20.8729 20.2697C20.8991 20.3109 20.9216 20.3408 20.9253 20.3446C20.9291 20.3446 20.9366 20.3483 20.9478 20.3521C20.959 20.3558 20.9703 20.3633 20.9815 20.382C20.9927 20.4007 21.1613 20.6479 21.3223 20.8951C21.4871 21.1423 21.6444 21.382 21.6444 21.382H20.7456H19.8467V21.3858Z" fill="url(#paint14_linear_387_321)"/>
<mask id="mask3_387_321" style="mask-type:luminance" maskUnits="userSpaceOnUse" x="19" y="19" width="3" height="3">
<path d="M19.8467 21.3858C19.8467 21.3858 19.8617 21.3408 19.8916 21.2771C19.9216 21.2097 19.9665 21.1236 20.0227 21.0374C20.0789 20.9513 20.1426 20.8502 20.195 20.764C20.2474 20.6742 20.2886 20.5955 20.3074 20.5468C20.3186 20.5131 20.356 20.3708 20.356 20.3708V20.3446L20.3186 20.2584V20.2397C20.3186 20.2397 20.3635 20.1835 20.4085 20.1236C20.4534 20.0637 20.5021 20.0037 20.5059 19.9962C20.5133 19.9888 20.5171 19.9813 20.5208 19.9775C20.5246 19.9738 20.5283 19.97 20.5358 19.97C20.5396 19.97 20.5808 19.97 20.6182 19.97C20.6557 19.97 20.6969 19.9775 20.7006 19.985C20.7044 19.9925 20.7193 20.015 20.7343 20.0487C20.753 20.0786 20.7718 20.1198 20.7942 20.1498C20.8167 20.1835 20.8467 20.2285 20.8729 20.2697C20.8991 20.3109 20.9216 20.3408 20.9253 20.3446C20.9291 20.3446 20.9366 20.3483 20.9478 20.3521C20.959 20.3558 20.9703 20.3633 20.9815 20.382C20.9927 20.4007 21.1613 20.6479 21.3223 20.8951C21.4871 21.1423 21.6444 21.382 21.6444 21.382H20.7456H19.8467V21.3858Z" fill="white"/>
</mask>
<g mask="url(#mask3_387_321)">
<path style="mix-blend-mode:screen" d="M21.8059 20.8801C21.54 21.6742 20.8659 21.8951 20.3003 21.3708C19.7348 20.8464 19.4876 19.779 19.7535 18.985C20.0194 18.191 20.6936 17.97 21.2591 18.4944C21.8247 19.0187 22.0719 20.0861 21.8059 20.8801Z" fill="url(#paint15_radial_387_321)"/>
<path style="mix-blend-mode:multiply" d="M19.9707 22.4757C20.674 22.4757 21.2441 22.0145 21.2441 21.4457C21.2441 20.8769 20.674 20.4157 19.9707 20.4157C19.2674 20.4157 18.6973 20.8769 18.6973 21.4457C18.6973 22.0145 19.2674 22.4757 19.9707 22.4757Z" fill="url(#paint16_radial_387_321)"/>
</g>
<g style="mix-blend-mode:screen" opacity="0.5">
<path d="M20.7344 20.0524C20.7156 20.0225 20.7044 19.9963 20.7006 19.9888C20.6969 19.9813 20.6595 19.9775 20.6183 19.9738C20.5808 19.9738 20.5396 19.9738 20.5359 19.9738C20.5321 19.9738 20.5284 19.9738 20.5209 19.9813C20.5171 19.985 20.5134 19.9925 20.5059 20C20.5021 20.0075 20.4722 20.0449 20.4385 20.0899L20.7718 20.1199C20.7568 20.0974 20.7456 20.0749 20.7344 20.0562V20.0524Z" fill="#98A17B"/>
<path d="M21.3185 20.8989C21.1537 20.6517 20.989 20.4045 20.9777 20.3858C20.9665 20.367 20.9515 20.3633 20.944 20.3558C20.9328 20.3521 20.9253 20.3521 20.9215 20.3483C20.9178 20.3483 20.8953 20.3109 20.8691 20.2734C20.8429 20.2322 20.8129 20.1873 20.7904 20.1536C20.7904 20.1536 20.7904 20.1536 20.7904 20.1498L20.6182 20.1236L20.6893 20.2434L20.8129 20.3446L20.8429 20.427L20.8916 20.3895V20.4232L21.0376 20.6629L21.0301 20.6966C21.0301 20.6966 21.0451 20.6816 21.0564 20.6704C21.0564 20.7079 21.0601 20.7453 21.0639 20.7828C21.0676 20.7566 21.0788 20.7341 21.0901 20.7154C21.0901 20.7453 21.0863 20.7715 21.0901 20.8015C21.0901 20.7828 21.0938 20.764 21.1013 20.7491C21.1013 20.7715 21.1088 20.7978 21.1125 20.8202C21.1388 20.8352 21.1912 20.8614 21.1912 20.8614L21.4646 21.382H21.6481C21.6481 21.382 21.4871 21.1423 21.326 20.8951L21.3185 20.8989Z" fill="#98A17B"/>
<path d="M20.4531 20.3184C20.4531 20.3184 20.4793 20.6142 20.4793 20.618C20.4793 20.6217 20.5056 20.6816 20.5056 20.6816L20.4943 20.618H20.5168L20.6366 20.9925L20.7865 21.1423L20.7078 20.7715V20.7491L20.7265 20.7978L20.7153 20.6405L20.6554 20.3558L20.5468 20.206H20.4906L20.4569 20.3184H20.4531Z" fill="#98A17B"/>
<path d="M20.6777 20.367L20.8313 21.0262L21.0897 20.9738L20.9811 20.7228L20.9998 20.6629L20.8837 20.4682L20.8238 20.4607L20.7339 20.412L20.6777 20.367Z" fill="#98A17B"/>
<path d="M20.4534 20.4457V20.7079L20.3223 20.8614L20.3972 20.5581L20.4196 20.3745L20.4271 20.4195L20.4384 20.4757L20.4534 20.4457Z" fill="#98A17B"/>
<path d="M20.1199 20.9438L20.3259 20.5768L20.3371 20.5393L20.3671 20.5206L20.3371 20.6816L20.3858 20.5019L20.412 20.3521L20.3858 20.2809L20.4008 20.2434L20.4232 20.191L20.4719 20.176L20.442 20.161H20.5618L20.4195 20.1198C20.4195 20.1198 20.4158 20.1236 20.412 20.1273C20.3671 20.1873 20.3221 20.2434 20.3221 20.2434V20.2622L20.3521 20.3483V20.3745C20.3521 20.3745 20.3221 20.5131 20.3071 20.5506C20.2884 20.5992 20.2472 20.6779 20.1948 20.7678C20.1423 20.8577 20.0824 20.955 20.0225 21.0412C19.9963 21.0786 19.9738 21.1198 19.9551 21.1573L20.1236 20.9513L20.1199 20.9438Z" fill="#98A17B"/>
</g>
<g style="mix-blend-mode:screen" opacity="0.8">
<path d="M20.7343 20.0524C20.7343 20.0524 20.7044 19.9963 20.7006 19.9888C20.6969 19.9813 20.6594 19.9775 20.6182 19.9738C20.5808 19.9738 20.5396 19.9738 20.5358 19.9738C20.5321 19.9738 20.5283 19.9738 20.5208 19.9813C20.5171 19.985 20.5134 19.9925 20.5059 20L20.6032 20.0112L20.562 20.0225L20.7081 20.0337L20.7306 20.0562L20.7343 20.0524Z" fill="#98A17B"/>
<path d="M20.9443 20.3596C20.9443 20.3596 20.9255 20.3558 20.9218 20.3521C20.918 20.3521 20.8956 20.3146 20.8693 20.2772C20.8431 20.236 20.8132 20.191 20.7907 20.1573C20.7907 20.1573 20.7907 20.1573 20.7907 20.1536H20.7832L20.918 20.367L20.9667 20.4345L20.948 20.3858L20.9817 20.412L21.124 20.6067C21.0454 20.4869 20.9854 20.397 20.978 20.3895C20.9667 20.3708 20.9517 20.367 20.9443 20.3596Z" fill="#98A17B"/>
</g>
</g>
<path d="M24.6968 29.427C22.5994 27.2921 21.6368 22.8577 21.6368 22.8577L11.7305 30.1198C11.7305 30.1198 11.9964 30.6816 12.4833 31.6067C13.6144 31.8614 14.7904 32 16.0001 32C19.2099 32 22.1949 31.0524 24.6968 29.427Z" fill="white"/>
<path d="M7.12346 5.46066C7.37065 4.80523 7.79762 4.11234 8.4905 3.99998C9.11971 3.89886 9.72646 4.34081 10.0748 4.87264C10.7714 5.93257 10.7414 7.28837 10.7714 8.55429C10.8014 9.82021 10.9699 11.2172 11.9137 12.0637L10.91 15.4532C9.18713 14.5468 7.81634 12.9925 7.12721 11.1723C6.43807 9.35204 6.43807 7.28088 7.12721 5.46066H7.12346Z" fill="white"/>
<path d="M23.0183 26.8802C20.8722 22.5281 21.6288 20.7116 21.4452 16.4944C21.3891 15.1386 20.816 13.2659 19.4153 12.0974C18.5651 11.3858 17.1831 10.6068 16.082 10.7154C15.228 10.7978 14.3179 11.1049 13.4602 11.3895C13.213 11.4494 12.9733 11.5281 12.7374 11.6255C12.7374 11.6255 12.7299 11.6255 12.7261 11.6255H12.7336C11.0745 12.3146 9.78607 13.8802 9.17933 15.6105C8.42652 17.7528 8.39656 20.1274 8.86847 22.3483C9.35162 24.6142 9.75237 26.8202 12.4827 31.6105C13.273 31.7865 14.082 31.9064 14.9097 31.9626L23.0108 26.8839L23.0183 26.8802Z" fill="white"/>
<path d="M19.427 4.69288C19.4756 4.54681 19.5281 4.3895 19.6479 4.28838C19.8989 4.07864 20.2846 4.22846 20.5505 4.42321C21.3258 4.98876 21.8502 5.88014 21.9738 6.83145C22.1311 8.05617 21.6255 9.29587 20.8389 10.2434C20.0524 11.1947 19.0075 11.8914 17.9363 12.5056L17.3633 11.0899C18.0524 8.95505 18.7416 6.82396 19.427 4.68913V4.69288Z" fill="white"/>
<path d="M17.0826 9.07116C16.899 8.85019 16.4983 8.9588 16.1874 9.13108C15.5695 9.47191 15.0151 10.0187 14.6481 10.6442C14.738 10.3933 14.8279 10.1273 14.8054 9.88764C14.7867 9.64794 14.6219 9.4382 14.3784 9.46816C14.1575 9.49438 13.9552 9.69663 13.7979 9.89138C13.12 10.7228 12.7043 11.7528 12.6631 12.7041L16.356 12.6891C16.6668 12.236 16.9814 11.7828 17.2361 11.3034C17.356 11.0824 17.4646 10.809 17.3597 10.6367C17.2736 10.4944 17.0601 10.4794 16.8728 10.5581C16.6856 10.633 16.5208 10.779 16.3635 10.9213C16.4459 10.588 16.7118 10.2996 16.9178 9.99625C17.12 9.69288 17.2698 9.28839 17.0863 9.06741L17.0826 9.07116Z" fill="white"/>
<path d="M14.2021 20.2472C14.2471 20.9326 14.2995 21.6405 14.6179 22.2509C14.9325 22.8614 15.5842 23.3558 16.2658 23.2659C17.0149 23.1685 17.5317 22.4045 17.6066 21.6517C17.6815 20.8989 17.4194 20.1611 17.161 19.4532L14.2059 20.2434L14.2021 20.2472Z" fill="#F4D9DB"/>
<path d="M14.543 19.5431C14.6291 20.0749 14.7527 20.955 14.9662 21.573C15.1497 22.1123 15.5654 22.4007 16.0598 22.382C16.6029 22.3633 16.9212 21.8127 16.9175 21.2397C16.9175 20.6666 16.955 20 16.7115 19.4307L14.543 19.5393V19.5431Z" fill="#263238"/>
<path d="M16.8057 20.6067C16.4911 20.794 16.2289 21.0712 16.0641 21.4007C15.7757 21.0187 15.2439 20.8464 14.7832 20.9625C14.8356 21.1873 14.8918 21.4082 14.9592 21.603C15.1465 22.1535 15.5735 22.4494 16.0791 22.4307C16.6334 22.412 16.9592 21.8502 16.9592 21.2622C16.9592 21.0337 16.9592 20.7903 16.9555 20.5431C16.9068 20.558 16.8544 20.5805 16.8094 20.6067H16.8057Z" fill="#FF725E"/>
<path d="M16.0489 21.3071C16.0676 21.2959 16.18 21.4607 16.2249 21.6966C16.2736 21.9326 16.2287 22.1273 16.2062 22.1236C16.18 22.1236 16.1837 21.9326 16.1388 21.7116C16.0976 21.4869 16.0227 21.3146 16.0451 21.3034L16.0489 21.3071Z" fill="#263238"/>
<g opacity="0.2">
<path d="M14.041 20.5768C14.2245 20.8802 14.5654 21.0861 14.9212 21.1049C15.277 21.1236 15.6365 20.9551 15.85 20.6704C15.9661 20.7715 16.1197 20.8165 16.2732 20.8202C16.4268 20.824 16.5766 20.7903 16.7264 20.7528C16.865 20.7154 17.0822 20.5618 17.1983 20.4794C17.3144 20.397 17.7039 19.8614 17.7077 19.7191C17.7077 19.6704 17.6852 19.7079 17.6552 19.6742C17.5841 19.5843 17.0822 20.0524 16.9736 20.0861C16.5579 20.2097 16.3257 19.3558 15.9174 19.2135C15.8388 19.1873 15.5354 19.9925 15.453 20C15.3781 20.0075 15.3069 20.0449 15.2395 20.0787C14.9174 20.2547 14.5991 20.4307 14.277 20.6067" fill="black"/>
</g>
<path d="M15.6512 15.1648C15.1718 15.2097 14.7411 15.4644 14.3404 15.7378C13.7486 16.1423 13.1756 16.9213 13.1306 17.633L13.1381 17.618C13.0632 17.9663 13.0707 18.3371 13.1494 18.6854C13.2917 19.3109 13.2729 19.7378 13.6774 20.2322C13.8273 20.412 14.228 20.6742 14.4452 20.7565C14.7374 20.8652 15.2093 20.8315 15.4415 20.6255C15.6737 20.4195 15.7411 19.8315 15.7786 19.5243C15.9284 19.9401 16.3254 20.4644 16.7523 20.3595C17.1793 20.2547 17.6887 19.8652 17.8535 19.4569C18.0183 19.0487 18.0407 18.5955 18.0183 18.1573C17.9846 17.4457 17.846 16.7154 17.449 16.1198C17.052 15.5281 16.3591 15.0936 15.6512 15.161V15.1648Z" fill="#F4D9DB"/>
<path d="M12.0636 17.1086C12.1236 17.5056 11.8501 17.8764 11.4531 17.9363C11.0561 17.9962 10.6854 17.7228 10.6254 17.3258C10.5655 16.9288 10.8389 16.558 11.2359 16.4981C11.6329 16.4382 12.0037 16.7116 12.0636 17.1086Z" fill="#263238"/>
<path d="M20.0978 16.382C20.1577 16.779 19.8843 17.1498 19.4873 17.2097C19.0903 17.2697 18.7195 16.9963 18.6596 16.5993C18.5997 16.2023 18.8731 15.8315 19.2701 15.7715C19.6671 15.7116 20.0379 15.985 20.0978 16.382Z" fill="#263238"/>
<path d="M15.7004 18.8352C15.5094 18.4981 15.0974 17.9663 14.7453 17.8052C14.6292 17.7528 14.4794 17.7191 14.3933 17.809C14.3146 17.8914 14.3333 18.0262 14.382 18.1273C14.5094 18.3933 14.7715 18.5618 15.0225 18.7116C15.1273 18.7715 15.2322 18.8315 15.3483 18.8614C15.4644 18.8914 15.5918 18.8914 15.7004 18.8352Z" fill="#263238"/>
<path d="M15.6445 18.8464C15.7269 18.4682 15.9629 17.8389 16.255 17.5805C16.3487 17.4981 16.4835 17.4232 16.5921 17.4831C16.6932 17.5356 16.7119 17.6742 16.697 17.7865C16.6558 18.0786 16.4535 18.3183 16.255 18.5318C16.1726 18.618 16.0902 18.7079 15.9854 18.7715C15.8842 18.8352 15.7606 18.8727 15.6445 18.8502" fill="#263238"/>
<path d="M15.5697 18.6929C15.5697 18.6929 15.6109 18.7491 15.6446 18.8539C15.6783 18.9588 15.727 19.1123 15.7607 19.3146C15.7981 19.5168 15.8056 19.7753 15.727 20.0487C15.6895 20.1835 15.6408 20.3146 15.5772 20.4494C15.5472 20.5168 15.5097 20.588 15.4648 20.6592C15.4423 20.6929 15.4161 20.7303 15.3712 20.7715C15.3225 20.8127 15.2775 20.8314 15.2288 20.8464C15.0378 20.9026 14.8805 20.8689 14.7494 20.8689H14.7008H14.6408C14.5996 20.8689 14.5622 20.8689 14.5247 20.8577C14.4461 20.8464 14.3749 20.824 14.3075 20.8015C14.0378 20.7004 13.8431 20.5356 13.697 20.3895C13.5547 20.2359 13.4648 20.0899 13.4236 19.9813C13.3824 19.8689 13.3899 19.7977 13.4086 19.7977C13.4274 19.7977 13.4498 19.8502 13.5135 19.9326C13.5772 20.0187 13.6783 20.1348 13.8206 20.2547C13.9667 20.3745 14.1539 20.5019 14.3824 20.573C14.4386 20.588 14.4985 20.603 14.5584 20.6105C14.5884 20.6142 14.6184 20.618 14.6483 20.618H14.6933H14.7532C14.9068 20.618 15.0491 20.6367 15.1502 20.603C15.2026 20.5843 15.2139 20.573 15.2551 20.5168C15.2888 20.4644 15.3225 20.4045 15.3524 20.3446C15.4124 20.2247 15.4648 20.0974 15.5023 19.9813C15.5809 19.7491 15.5921 19.5281 15.5809 19.3371C15.5697 19.1461 15.5472 18.985 15.5472 18.8726C15.5472 18.7603 15.5547 18.6966 15.5697 18.6929Z" fill="#263238"/>
<path d="M15.6781 18.6779C15.7156 18.6704 15.7755 18.8689 15.8654 19.1798C15.9141 19.3333 15.9665 19.5169 16.0489 19.7079C16.1313 19.8914 16.2362 20.1311 16.386 20.1835C16.4084 20.1948 16.4534 20.191 16.5058 20.1835C16.5583 20.176 16.6107 20.1648 16.6669 20.1498C16.7755 20.1199 16.8766 20.0861 16.974 20.0487C17.0714 20.0112 17.15 19.97 17.2362 19.9214C17.3186 19.8764 17.3935 19.8315 17.4609 19.7903C17.7231 19.6292 17.8167 19.442 17.8541 19.4607C17.8691 19.4682 17.8654 19.5206 17.8242 19.6105C17.7867 19.7004 17.7006 19.824 17.5695 19.9326C17.5058 19.9888 17.4309 20.0449 17.3485 20.1011C17.2736 20.1573 17.1687 20.2172 17.0676 20.2659C16.9628 20.3146 16.8541 20.3558 16.7343 20.3933C16.6744 20.412 16.6107 20.427 16.5433 20.4382C16.4759 20.4457 16.3935 20.4607 16.2961 20.427C16.1275 20.3633 16.0377 20.2322 15.9702 20.1236C15.9066 20.0112 15.8616 19.9026 15.8242 19.794C15.7493 19.5805 15.7081 19.382 15.6856 19.2172C15.6407 18.8876 15.6444 18.6817 15.6781 18.6779Z" fill="#263238"/>
<path d="M26.1613 28.221C25.5359 27.809 24.843 27.4981 24.1201 27.2959C24.1351 27.2959 24.1501 27.2959 24.1613 27.2921C24.8804 27.1948 25.0415 26.2097 24.3898 25.8914C23.3074 25.3595 22.3898 24.4944 21.8168 23.4345C22.0303 23.6367 22.3299 23.7453 22.6258 23.7378C22.8729 23.7378 23.0115 23.4457 22.8505 23.2547C22.0228 22.2659 21.3861 20.7528 21.4685 19.382C20.622 20.1873 20.0864 22.0487 20.2999 23.1948C20.7793 25.7378 22.1726 28.0899 24.1314 29.779C24.8804 29.3371 25.5883 28.8389 26.2512 28.2846C26.2213 28.2622 26.1913 28.2434 26.1613 28.2247V28.221Z" fill="white"/>
</g>
<defs>
<linearGradient id="paint0_linear_387_321" x1="21.7509" y1="20.9074" x2="21.5823" y2="20.6794" gradientUnits="userSpaceOnUse">
<stop stop-color="#29495A"/>
<stop offset="0.21" stop-color="#2B4C5F"/>
<stop offset="0.49" stop-color="#335570"/>
<stop offset="0.81" stop-color="#41658B"/>
<stop offset="1" stop-color="#4B71A0"/>
</linearGradient>
<linearGradient id="paint1_linear_387_321" x1="21.6182" y1="20.6479" x2="22.0761" y2="21.1917" gradientUnits="userSpaceOnUse">
<stop stop-color="#83827C"/>
<stop offset="0.4" stop-color="#515454"/>
<stop offset="0.8" stop-color="#262D31"/>
<stop offset="1" stop-color="#161E24"/>
</linearGradient>
<radialGradient id="paint2_radial_387_321" cx="0" cy="0" r="1" gradientUnits="userSpaceOnUse" gradientTransform="translate(20.5405 19.5941) rotate(35.45) scale(0.297303 0.240413)">
<stop stop-color="#65B3D7"/>
<stop offset="0.04" stop-color="#5AA1C1"/>
<stop offset="0.12" stop-color="#457B94"/>
<stop offset="0.21" stop-color="#325A6C"/>
<stop offset="0.31" stop-color="#233E4A"/>
<stop offset="0.41" stop-color="#16272F"/>
<stop offset="0.52" stop-color="#0C151A"/>
<stop offset="0.64" stop-color="#05090B"/>
<stop offset="0.78" stop-color="#010202"/>
<stop offset="1"/>
</radialGradient>
<linearGradient id="paint3_linear_387_321" x1="22.062" y1="21.3572" x2="22.0258" y2="20.6165" gradientUnits="userSpaceOnUse">
<stop stop-color="#24352D"/>
<stop offset="1" stop-color="#385047"/>
</linearGradient>
<radialGradient id="paint4_radial_387_321" cx="0" cy="0" r="1" gradientUnits="userSpaceOnUse" gradientTransform="translate(20.8854 19.7633) rotate(35.45) scale(0.448989 0.363072)">
<stop stop-color="#65B3D7"/>
<stop offset="0.04" stop-color="#5AA1C1"/>
<stop offset="0.12" stop-color="#457B94"/>
<stop offset="0.21" stop-color="#325A6C"/>
<stop offset="0.31" stop-color="#233E4A"/>
<stop offset="0.41" stop-color="#16272F"/>
<stop offset="0.52" stop-color="#0C151A"/>
<stop offset="0.64" stop-color="#05090B"/>
<stop offset="0.78" stop-color="#010202"/>
<stop offset="1"/>
</radialGradient>
<linearGradient id="paint5_linear_387_321" x1="20.5623" y1="21.2547" x2="21.2739" y2="20.5393" gradientUnits="userSpaceOnUse">
<stop stop-color="#29495A"/>
<stop offset="0.21" stop-color="#2B4C5F"/>
<stop offset="0.49" stop-color="#335570"/>
<stop offset="0.81" stop-color="#41658B"/>
<stop offset="1" stop-color="#4B71A0"/>
</linearGradient>
<linearGradient id="paint6_linear_387_321" x1="20.3978" y1="20.7753" x2="21.0944" y2="20.7753" gradientUnits="userSpaceOnUse">
<stop stop-color="#161E24"/>
<stop offset="0.2" stop-color="#262D31"/>
<stop offset="0.6" stop-color="#515454"/>
<stop offset="1" stop-color="#83827C"/>
</linearGradient>
<linearGradient id="paint7_linear_387_321" x1="20.6669" y1="21.2022" x2="21.401" y2="20.5693" gradientUnits="userSpaceOnUse">
<stop stop-color="#24352D"/>
<stop offset="1" stop-color="#385047"/>
</linearGradient>
<linearGradient id="paint8_linear_387_321" x1="21.6448" y1="20.7715" x2="20.9257" y2="21.2959" gradientUnits="userSpaceOnUse">
<stop stop-color="#60936A"/>
<stop offset="0.17" stop-color="#5C8E66"/>
<stop offset="0.36" stop-color="#54815C"/>
<stop offset="0.55" stop-color="#456B4B"/>
<stop offset="0.68" stop-color="#39593E"/>
</linearGradient>
<radialGradient id="paint9_radial_387_321" cx="0" cy="0" r="1" gradientUnits="userSpaceOnUse" gradientTransform="translate(-66.3049 -54.2583) rotate(40.38) scale(0.769438 0.49618)">
<stop stop-color="#C1DB34"/>
<stop offset="0.04" stop-color="#AAC12D"/>
<stop offset="0.13" stop-color="#829423"/>
<stop offset="0.22" stop-color="#5F6C19"/>
<stop offset="0.31" stop-color="#414A11"/>
<stop offset="0.41" stop-color="#292F0B"/>
<stop offset="0.52" stop-color="#171A06"/>
<stop offset="0.64" stop-color="#0A0B02"/>
<stop offset="0.78" stop-color="#020200"/>
<stop offset="1"/>
</radialGradient>
<radialGradient id="paint10_radial_387_321" cx="0" cy="0" r="1" gradientUnits="userSpaceOnUse" gradientTransform="translate(-61.717 -43.5867) rotate(37.53) scale(0.913708 0.589213)">
<stop stop-color="#D0DB82"/>
<stop offset="0.04" stop-color="#B7C172"/>
<stop offset="0.13" stop-color="#8D9458"/>
<stop offset="0.22" stop-color="#676C40"/>
<stop offset="0.31" stop-color="#474A2C"/>
<stop offset="0.41" stop-color="#2D2F1C"/>
<stop offset="0.52" stop-color="#191A0F"/>
<stop offset="0.64" stop-color="#0A0B06"/>
<stop offset="0.78" stop-color="#020201"/>
<stop offset="1"/>
</radialGradient>
<linearGradient id="paint11_linear_387_321" x1="19.4872" y1="21.4382" x2="20.6183" y2="20.3071" gradientUnits="userSpaceOnUse">
<stop stop-color="#29495A"/>
<stop offset="0.21" stop-color="#2B4C5F"/>
<stop offset="0.49" stop-color="#335570"/>
<stop offset="0.81" stop-color="#41658B"/>
<stop offset="1" stop-color="#4B71A0"/>
</linearGradient>
<linearGradient id="paint12_linear_387_321" x1="19.2811" y1="20.6704" x2="20.2773" y2="20.6704" gradientUnits="userSpaceOnUse">
<stop stop-color="#161E24"/>
<stop offset="0.2" stop-color="#262D31"/>
<stop offset="0.6" stop-color="#515454"/>
<stop offset="1" stop-color="#83827C"/>
</linearGradient>
<linearGradient id="paint13_linear_387_321" x1="19.6255" y1="21.3408" x2="20.7903" y2="20.3371" gradientUnits="userSpaceOnUse">
<stop stop-color="#24352D"/>
<stop offset="1" stop-color="#385047"/>
</linearGradient>
<linearGradient id="paint14_linear_387_321" x1="20.7418" y1="21.3858" x2="20.7418" y2="19.9738" gradientUnits="userSpaceOnUse">
<stop stop-color="#40643D"/>
<stop offset="0.16" stop-color="#426740"/>
<stop offset="0.29" stop-color="#497149"/>
<stop offset="0.41" stop-color="#54825A"/>
<stop offset="0.5" stop-color="#60936A"/>
<stop offset="1" stop-color="#A5BCA1"/>
</linearGradient>
<radialGradient id="paint15_radial_387_321" cx="0" cy="0" r="1" gradientUnits="userSpaceOnUse" gradientTransform="translate(2.46529 3.04945) rotate(42.69) scale(1.3982 1.37992)">
<stop stop-color="#C1DB34"/>
<stop offset="0.04" stop-color="#AAC12D"/>
<stop offset="0.13" stop-color="#829423"/>
<stop offset="0.22" stop-color="#5F6C19"/>
<stop offset="0.31" stop-color="#414A11"/>
<stop offset="0.41" stop-color="#292F0B"/>
<stop offset="0.52" stop-color="#171A06"/>
<stop offset="0.64" stop-color="#0A0B02"/>
<stop offset="0.78" stop-color="#020200"/>
<stop offset="1"/>
</radialGradient>
<radialGradient id="paint16_radial_387_321" cx="0" cy="0" r="1" gradientUnits="userSpaceOnUse" gradientTransform="translate(23.8412 21.5266) scale(1.27214 1.03146)">
<stop stop-color="#6FBABD"/>
<stop offset="0.16" stop-color="#8EC8CB"/>
<stop offset="0.43" stop-color="#BEE0E1"/>
<stop offset="0.67" stop-color="#E1F0F1"/>
<stop offset="0.87" stop-color="#F7FBFB"/>
<stop offset="1" stop-color="white"/>
</radialGradient>
<clipPath id="clip0_387_321">
<rect width="32" height="32" fill="white"/>
</clipPath>
</defs>
</svg>
