<svg version="1.0" xmlns="http://www.w3.org/2000/svg"
 width="237.000000pt" height="196.000000pt" viewBox="0 0 237.000000 196.000000"
 preserveAspectRatio="xMidYMid meet">

<g transform="translate(0.000000,196.000000) scale(0.100000,-0.100000)"
fill="#000000" stroke="none">
<path d="M1045 1333 c-76 -16 -191 -66 -243 -106 l-32 -24 76 -12 c143 -21
258 -101 318 -219 l22 -44 20 43 c27 61 118 150 186 182 31 15 91 32 133 38
l75 12 -32 24 c-54 42 -168 90 -250 107 -94 19 -180 19 -273 -1z"/>
<path d="M604 1245 c-5 -22 -7 -65 -5 -95 6 -90 5 -247 -4 -375 -5 -89 -3
-161 9 -277 9 -87 19 -165 23 -174 5 -13 16 -15 57 -10 212 26 578 32 864 15
102 -6 188 -7 192 -3 5 5 16 81 26 169 16 156 16 199 -2 463 -4 57 -2 116 5
153 9 46 9 73 0 117 l-11 57 -17 -25 c-49 -75 -62 -82 -157 -91 -104 -9 -135
-18 -205 -55 -98 -54 -174 -168 -187 -281 l-6 -58 -7 56 c-12 109 -84 222
-177 276 -67 39 -118 54 -216 63 -95 8 -108 15 -157 90 l-17 25 -8 -40z m361
-224 c79 -35 121 -112 113 -207 -15 -185 -264 -244 -367 -87 -53 79 -39 195
31 260 56 53 151 67 223 34z m603 4 c79 -34 122 -101 122 -193 0 -49 -5 -66
-31 -105 -103 -157 -352 -98 -367 87 -2 30 1 70 8 90 35 108 161 165 268 121z"/>
<path d="M813 950 c-62 -37 -82 -123 -43 -185 18 -29 36 -41 92 -58 30 -10 86
13 117 49 96 108 -42 270 -166 194z m97 -80 c11 -11 20 -25 20 -32 0 -17 -31
-48 -48 -48 -20 0 -52 29 -52 47 0 15 35 53 50 53 6 0 19 -9 30 -20z"/>
<path d="M1433 955 c-43 -18 -73 -69 -73 -122 0 -52 44 -108 97 -122 34 -10
42 -9 95 11 62 23 87 122 48 185 -35 58 -101 77 -167 48z m87 -85 c11 -11 20
-25 20 -32 0 -18 -31 -48 -51 -48 -17 0 -49 35 -49 52 0 11 38 48 50 48 6 0
19 -9 30 -20z"/>
</g>
</svg>
