<svg width="27" height="23" viewBox="0 0 27 23" fill="none" xmlns="http://www.w3.org/2000/svg">
<g id="Isolation_Mode" clip-path="url(#clip0_663_1660)">
<path id="Vector" d="M6.68227 10.729C5.81596 10.729 5.10306 11.5335 5.10306 12.5232C5.10242 12.9051 5.21307 13.2788 5.42116 13.5974L4.70374 14.4522C4.44829 14.2469 4.1267 14.1451 3.80134 14.1665C3.55579 14.186 3.32091 14.2764 3.12453 14.4271L2.26499 13.3551C2.38891 13.0929 2.45324 12.8059 2.45324 12.5152C2.45324 12.2244 2.38891 11.9374 2.26499 11.6752L3.11325 10.6215C3.30416 10.7647 3.53077 10.851 3.7675 10.8707C4.55485 10.9324 5.2497 10.2467 5.31738 9.34389C5.38506 8.44108 4.7985 7.6594 4.00889 7.59998C3.77454 7.58434 3.54044 7.63415 3.33209 7.74397L2.83125 6.87773C2.8766 6.82231 2.91878 6.76431 2.95759 6.70402C3.36819 6.05948 3.35691 5.35552 2.93277 5.13381C2.84202 5.087 2.74132 5.06346 2.63949 5.06525C2.23792 5.06525 1.73708 5.38523 1.41899 5.89491C1.00839 6.53945 1.01967 7.24342 1.4438 7.46513C1.71678 7.60912 2.09353 7.51769 2.43645 7.26627L2.90344 8.07081C2.64395 8.36162 2.487 8.73142 2.4572 9.12228C2.4274 9.51314 2.52642 9.90297 2.73876 10.2307L1.93336 11.2272C1.74419 11.0437 1.49363 10.9392 1.23174 10.9347C0.554931 10.9347 0.0112305 11.6455 0.0112305 12.5232C0.0112305 13.4008 0.557187 14.1231 1.23174 14.1231C1.50006 14.1176 1.75607 14.008 1.94689 13.8168L2.78839 14.8316C2.58248 15.1542 2.48732 15.5366 2.51766 15.9196C2.58535 16.8224 3.27794 17.5058 4.06755 17.4463C4.85716 17.3869 5.44146 16.6075 5.37604 15.7024C5.35291 15.4019 5.25597 15.112 5.09403 14.859L5.80694 14.0088C6.05903 14.2123 6.37124 14.3242 6.69355 14.3265C7.55986 14.3265 8.26148 13.5243 8.26148 12.5323C8.26148 11.5403 7.54858 10.729 6.68227 10.729ZM5.38732 3.9133C5.56501 3.76436 5.70911 3.57856 5.80991 3.36841C5.91071 3.15826 5.96585 2.92865 5.97162 2.69507L6.98232 1.95911C7.34238 2.06387 7.72839 2.0246 8.0607 1.84941C8.7375 1.53628 9.17066 0.910022 9.03981 0.448331C8.95634 0.15806 8.67208 -0.00878906 8.30435 -0.00878906C8.05505 -0.00299962 7.80978 0.0561991 7.58468 0.164915C6.90787 0.473471 6.48149 1.09516 6.60557 1.55685L5.73249 2.21282C5.37378 1.9294 4.70826 2.06654 4.18035 2.55566C3.60958 3.08591 3.42007 3.81959 3.75396 4.19671C4.08785 4.57384 4.8188 4.44128 5.38732 3.9133ZM11.3883 7.89939L12.4757 6.90972C12.7831 7.10237 13.1374 7.20442 13.4988 7.20442C13.8603 7.20442 14.2146 7.10237 14.5219 6.90972L15.6138 7.90168C15.4019 8.24649 15.3112 8.65377 15.3565 9.05739C15.4018 9.46101 15.5805 9.83726 15.8635 10.125C16.1465 10.4128 16.5172 10.5952 16.9154 10.6426C17.3136 10.69 17.716 10.5996 18.0571 10.3861L19.0159 11.4809C18.8216 11.7928 18.7191 12.1544 18.7204 12.5232C18.7204 13.5151 19.422 14.3174 20.2883 14.3174C21.1546 14.3174 21.854 13.5151 21.854 12.5232C21.854 11.5312 21.1524 10.729 20.2883 10.729C19.9523 10.7321 19.6277 10.8532 19.3701 11.0718L18.4519 10.0227C18.7269 9.67951 18.8667 9.24522 18.8441 8.80374C18.8215 8.36226 18.6383 7.94493 18.3297 7.63234C18.0212 7.31975 17.6092 7.13409 17.1735 7.11123C16.7377 7.08836 16.3091 7.22992 15.9703 7.50855L14.9258 6.55546C15.145 6.29527 15.2664 5.965 15.2687 5.62293C15.2687 4.74526 14.4768 4.03444 13.4977 4.03444C12.5186 4.03444 11.7403 4.74069 11.7403 5.61836C11.7425 5.96043 11.864 6.2907 12.0832 6.55089L11.0341 7.50398C10.7362 7.25067 10.3644 7.10361 9.97592 7.08544C9.58742 7.06727 9.2038 7.17899 8.88414 7.40341L8.20734 6.69031C8.39132 6.45958 8.50838 6.18158 8.54543 5.88735C8.58248 5.59312 8.53807 5.29424 8.41715 5.0241L9.31956 4.25614C9.61643 4.46421 9.97471 4.56295 10.3347 4.53592C10.6947 4.50889 11.0347 4.35772 11.2981 4.10758C11.9749 3.51104 12.099 2.53966 11.5801 1.93397C11.4502 1.78673 11.2904 1.66965 11.1116 1.59075C10.9329 1.51186 10.7395 1.47301 10.5446 1.47685C10.1288 1.48146 9.72851 1.63719 9.41656 1.91569C9.13775 2.13916 8.94153 2.45141 8.85965 2.8019C8.77776 3.1524 8.81501 3.52063 8.96536 3.84702L8.081 4.60584C7.50572 4.13272 6.60782 4.22186 6.01449 4.8344C5.42116 5.44694 5.33768 6.46403 5.91522 7.024C6.1786 7.25801 6.51489 7.39062 6.86511 7.39856C7.21534 7.4065 7.55714 7.28927 7.83058 7.06743L8.50739 7.77597C8.30355 8.0384 8.17525 8.35278 8.13662 8.68442C8.098 9.01606 8.15057 9.35206 8.28852 9.65535C8.42647 9.95864 8.64444 10.2174 8.91838 10.4031C9.19232 10.5888 9.51158 10.6943 9.84093 10.7078C10.1703 10.7213 10.4969 10.6424 10.7848 10.4797C11.0726 10.317 11.3106 10.077 11.4723 9.78597C11.634 9.49498 11.7132 9.16439 11.7011 8.83067C11.6891 8.49695 11.5863 8.17309 11.4041 7.89482L11.3883 7.89939ZM25.326 17.5263C25.0665 17.4052 24.7236 17.4898 24.4055 17.7183L24.0513 17.0326C24.3455 16.7344 24.5227 16.338 24.5499 15.9173C24.6153 15.003 24.0288 14.2328 23.2414 14.1711H23.1444C22.3954 14.1711 21.7547 14.8362 21.6915 15.7024C21.6671 16.0521 21.7456 16.4013 21.9171 16.7058L20.8749 17.8189C20.5619 17.6472 20.2009 17.5877 19.8504 17.6499C19.4999 17.7122 19.1804 17.8925 18.9437 18.1617C18.3211 18.8108 18.2669 19.7914 18.8445 20.3491C19.0898 20.569 19.4005 20.6997 19.7275 20.7204C20.0544 20.7411 20.3788 20.6506 20.6493 20.4633L21.4208 21.4507C20.9832 21.9558 20.8207 22.5432 21.0689 22.8358C21.1197 22.8908 21.1817 22.9339 21.2507 22.9619C21.3197 22.99 21.394 23.0023 21.4682 22.9981H21.4817C21.9025 22.9545 22.2942 22.7609 22.5872 22.4518C23.1489 21.9147 23.379 21.2176 23.1016 20.893C22.8624 20.6119 22.321 20.7033 21.8134 21.0827L21.0576 20.1159C21.2974 19.8635 21.4478 19.5378 21.4854 19.1896C21.5229 18.8413 21.4455 18.4903 21.2652 18.1915L22.2623 17.1286C22.4729 17.3115 22.7349 17.4227 23.0113 17.4463C23.2185 17.4609 23.426 17.424 23.6159 17.3389L24.0152 18.1137C23.9551 18.1859 23.9001 18.2623 23.8506 18.3423C23.4603 18.9983 23.4918 19.6954 23.9205 19.9011C24.3491 20.1068 25.0169 19.7388 25.4072 19.0828C25.7975 18.4269 25.7546 17.7412 25.326 17.5263ZM25.8201 10.9255C25.686 10.9289 25.554 10.9596 25.4319 11.0158C25.3099 11.0719 25.2002 11.1524 25.1094 11.2524L24.2273 10.2124C24.4241 9.89599 24.5171 9.52455 24.4927 9.15134C24.4684 8.77812 24.3281 8.42228 24.0919 8.13481L24.5116 7.48341C24.8725 7.78282 25.2809 7.88568 25.5696 7.71197C25.9825 7.44684 25.9847 6.69488 25.5696 6.03434C25.2561 5.52694 24.7913 5.21838 24.4055 5.21838C24.2885 5.21742 24.1736 5.2499 24.0739 5.31209C23.6588 5.57493 23.6588 6.3269 24.0739 6.98972C24.0942 7.024 24.119 7.05143 24.1393 7.08343L23.6881 7.79426C23.4644 7.66192 23.2066 7.60061 22.9481 7.61826C22.1585 7.67769 21.5742 8.45708 21.6397 9.36217C21.7051 10.2673 22.4022 10.9484 23.1895 10.889C23.4356 10.8668 23.6704 10.7741 23.8663 10.6215L24.8071 11.7392C24.6985 11.9883 24.6424 12.2577 24.6424 12.53C24.6424 13.4077 25.1703 14.1299 25.8246 14.1299C26.4788 14.1299 27.0045 13.4168 27.0045 12.53C27.0045 11.6432 26.4698 10.9347 25.8201 10.9347V10.9255ZM18.3436 14.8865C18.0441 14.5829 17.6473 14.3978 17.2249 14.3647C16.8025 14.3316 16.3823 14.4526 16.0402 14.7059L15.0137 13.6682C15.3091 13.2742 15.4459 12.7813 15.3965 12.289C15.3471 11.7967 15.1153 11.3418 14.7478 11.0159C14.3802 10.6901 13.9044 10.5176 13.4162 10.5333C12.9281 10.549 12.464 10.7518 12.1176 11.1006C11.7713 11.4494 11.5684 11.9184 11.55 12.4128C11.5315 12.9072 11.6989 13.3904 12.0184 13.7647C12.3378 14.1389 12.7855 14.3765 13.2711 14.4295C13.7567 14.4824 14.244 14.3468 14.6347 14.0499L15.6635 15.0899C15.4442 15.3919 15.3243 15.7562 15.3207 16.1311C15.317 16.506 15.4299 16.8726 15.6432 17.1789L14.6167 18.1663C14.2888 17.9257 13.8935 17.7976 13.4887 17.8006C12.5118 17.8006 11.72 18.5114 11.72 19.3868C11.72 20.2622 12.5118 20.9753 13.4887 20.9753C14.4655 20.9753 15.2596 20.2645 15.2596 19.3868C15.2576 19.0851 15.1621 18.7917 14.9867 18.548L16.0041 17.5675C16.3593 17.8469 16.8062 17.9785 17.2538 17.9357C17.7014 17.8928 18.1161 17.6786 18.4132 17.3368C18.7104 16.9949 18.8677 16.5511 18.8531 16.0958C18.8385 15.6406 18.653 15.208 18.3346 14.8865H18.3436Z" fill="url(#paint0_linear_663_1660)"/>
</g>
<defs>
<linearGradient id="paint0_linear_663_1660" x1="-4.96127e-05" y1="11.5015" x2="27" y2="11.5015" gradientUnits="userSpaceOnUse">
<stop stop-color="#4EC3E0"/>
<stop offset="1" stop-color="#10069F"/>
</linearGradient>
<clipPath id="clip0_663_1660">
<rect width="27" height="23" fill="white"/>
</clipPath>
</defs>
</svg>
