<?xml version="1.0" standalone="no"?>
<!DOCTYPE svg PUBLIC "-//W3C//DTD SVG 20010904//EN"
 "http://www.w3.org/TR/2001/REC-SVG-20010904/DTD/svg10.dtd">
<svg version="1.0" xmlns="http://www.w3.org/2000/svg"
 width="768.000000pt" height="768.000000pt" viewBox="0 0 768.000000 768.000000"
 preserveAspectRatio="xMidYMid meet">

<g transform="translate(0.000000,768.000000) scale(0.100000,-0.100000)"
fill="#000000" stroke="none">
<path d="M4062 5795 c-14 -16 -37 -21 -27 -5 8 12 -64 3 -81 -11 -7 -6 -33
-11 -58 -12 -24 -1 -39 -5 -33 -9 18 -12 -21 -10 -43 2 -13 7 -21 6 -30 -5 -7
-8 -16 -13 -20 -10 -5 3 -21 0 -37 -7 -15 -6 -39 -12 -53 -13 -14 -1 -36 -6
-50 -12 -16 -7 -29 -7 -37 -1 -14 11 -60 -11 -116 -55 -40 -31 -61 -33 -27 -2
11 10 20 23 20 28 0 6 -10 2 -22 -9 -12 -10 -18 -14 -15 -7 11 18 -35 12 -51
-7 -11 -13 -11 -13 -6 2 9 27 -29 11 -50 -20 -10 -15 -15 -19 -12 -9 8 26 -11
21 -57 -15 -23 -18 -47 -32 -53 -30 -7 1 -15 -2 -19 -8 -3 -5 -15 -10 -25 -10
-10 0 -22 -5 -26 -12 -5 -7 -3 -8 7 -3 12 8 12 6 0 -8 -7 -9 -19 -17 -25 -17
-6 0 -22 -10 -36 -21 -14 -11 -19 -17 -11 -13 9 5 12 3 7 -5 -4 -6 -11 -9 -16
-6 -5 3 -20 0 -32 -7 -13 -7 -26 -12 -30 -13 -4 0 -16 -10 -28 -22 -24 -27
-35 -29 -26 -8 3 8 2 15 -2 15 -14 0 -61 -36 -82 -63 -12 -15 -31 -27 -44 -27
-12 0 -37 -16 -56 -35 -39 -40 -55 -38 -19 3 l24 27 -28 -25 c-15 -13 -25 -30
-22 -38 6 -16 -31 -82 -46 -82 -14 0 -11 11 8 32 9 10 17 29 19 42 2 19 -1 23
-17 19 -11 -3 -22 -9 -25 -14 -3 -5 3 -6 13 -3 13 5 11 0 -8 -20 -14 -15 -34
-29 -44 -30 -11 -2 -21 -9 -23 -17 -3 -11 -1 -11 7 1 6 8 11 10 11 5 0 -11
-41 -50 -50 -48 -7 1 -36 -41 -30 -45 3 -1 -10 -11 -27 -22 -31 -19 -47 -38
-20 -25 6 4 2 -2 -10 -13 -12 -11 -19 -23 -15 -27 4 -5 0 -6 -9 -3 -9 4 -20
-2 -27 -13 -7 -10 -18 -19 -25 -19 -6 0 -28 -14 -47 -30 -27 -23 -31 -30 -17
-30 17 0 17 -1 3 -16 -9 -8 -20 -13 -25 -10 -5 3 -15 -2 -22 -11 -12 -14 -12
-16 1 -8 13 8 13 6 1 -8 -7 -9 -18 -14 -25 -10 -6 3 -8 3 -5 -1 4 -4 -12 -25
-35 -48 -22 -22 -36 -37 -30 -34 6 3 11 -1 11 -9 0 -8 -3 -13 -6 -12 -3 1 -26
-17 -51 -42 -25 -24 -38 -40 -30 -36 8 3 6 -1 -4 -9 -11 -9 -24 -16 -29 -16
-4 0 -6 -4 -3 -8 3 -5 -5 -20 -17 -32 -35 -38 -28 -52 11 -23 21 15 6 -3 -33
-39 -65 -64 -81 -93 -36 -69 14 8 22 8 27 -1 4 -6 3 -8 -3 -5 -6 4 -18 -2 -28
-13 -10 -11 -22 -17 -27 -14 -4 3 -8 2 -7 -3 4 -15 -18 -58 -40 -77 -11 -10
-18 -23 -15 -28 3 -5 -7 -20 -23 -34 -31 -27 -20 -33 15 -8 12 8 22 14 23 12
8 -33 7 -38 -7 -27 -8 6 -15 9 -15 5 -1 -3 -2 -12 -3 -18 -1 -7 -7 -12 -14
-10 -7 1 -11 -1 -10 -5 2 -11 -34 -83 -43 -83 -4 0 -9 -9 -12 -20 -4 -17 -2
-18 13 -10 11 6 22 15 25 20 3 6 20 17 38 26 23 12 16 3 -29 -39 -37 -34 -63
-68 -70 -90 -10 -33 -9 -35 7 -26 21 11 38 12 24 1 -5 -4 -17 -16 -25 -26 -13
-18 -13 -19 0 -11 8 5 2 -8 -13 -28 l-28 -37 23 0 c22 0 22 -1 -7 -26 -16 -14
-23 -22 -15 -18 8 4 4 -5 -9 -19 -14 -15 -20 -27 -15 -27 5 0 3 -4 -5 -9 -11
-7 -9 -10 8 -16 17 -5 20 -10 11 -20 -6 -8 -13 -28 -15 -46 -3 -17 -11 -42
-20 -55 -14 -21 -14 -23 2 -17 12 5 15 2 10 -10 -3 -9 -2 -17 4 -17 6 0 6 -7
-1 -19 -6 -13 -7 -28 -1 -44 6 -14 7 -28 3 -33 -4 -4 -1 -4 6 0 7 4 10 12 7
17 -4 5 -1 9 4 9 6 0 11 9 11 20 0 11 7 23 15 26 8 4 13 10 10 14 -3 4 3 25
12 46 9 22 18 42 19 47 1 4 3 10 4 15 1 4 2 11 1 15 -1 5 3 6 9 2 5 -3 10 -1
10 4 0 6 -5 11 -11 11 -6 0 -9 5 -7 11 2 6 8 10 13 10 14 -1 15 -34 1 -51 -8
-8 -12 -23 -11 -32 2 -10 -1 -18 -6 -18 -6 0 -7 -5 -4 -10 4 -6 12 -7 18 -4 7
4 8 3 4 -2 -5 -5 -14 -9 -20 -9 -7 0 -13 -9 -13 -20 -1 -11 -2 -26 -3 -34 -1
-8 -7 -11 -18 -7 -10 4 -14 4 -11 0 4 -4 3 -16 -3 -28 -10 -20 -10 -20 5 -2
21 26 20 7 -1 -23 -9 -14 -11 -21 -5 -17 7 4 12 2 12 -3 0 -6 -6 -11 -13 -11
-10 0 -13 -14 -11 -52 1 -29 3 -53 4 -53 1 0 4 -16 6 -35 3 -30 7 -58 13 -93
0 -5 6 -5 13 -1 7 4 8 3 4 -5 -12 -19 2 -63 17 -54 8 5 8 2 -1 -9 -11 -14 -10
-18 5 -27 10 -6 12 -11 6 -11 -7 0 -13 -4 -13 -10 0 -5 6 -9 13 -7 6 1 10 -5
9 -13 -10 -41 -10 -50 -3 -45 5 2 16 -6 25 -20 15 -23 15 -24 -1 -19 -17 5
-17 5 -1 -8 9 -8 16 -23 15 -34 -1 -10 3 -18 9 -17 7 1 10 -6 7 -20 -3 -14 -2
-18 4 -10 6 9 12 7 22 -8 8 -15 9 -19 1 -14 -9 6 -9 2 -1 -12 5 -11 35 -35 65
-54 38 -22 52 -36 43 -41 -8 -6 -2 -17 23 -38 21 -18 29 -30 20 -30 -11 0 -9
-4 5 -12 11 -6 29 -20 39 -30 11 -10 24 -18 30 -18 5 0 7 -3 4 -6 -7 -7 -50
14 -60 30 -5 7 -8 4 -8 -7 0 -10 7 -20 15 -23 8 -4 13 -9 10 -14 -2 -4 7 -12
20 -18 14 -7 25 -17 25 -23 0 -8 -6 -7 -17 2 -10 8 -3 -5 14 -27 18 -23 49
-54 70 -70 21 -15 44 -34 51 -41 17 -17 25 -17 16 0 -4 6 2 4 14 -7 12 -10 19
-23 16 -28 -3 -4 -2 -7 3 -6 14 4 63 -33 63 -48 0 -8 9 -14 20 -14 12 0 17 -5
14 -13 -6 -16 60 -42 78 -31 10 6 10 5 1 -8 -20 -23 -4 -29 35 -12 36 15 36
15 17 -4 -11 -11 -24 -17 -29 -14 -5 3 -6 0 -2 -6 3 -6 18 -8 33 -6 22 4 24 3
14 -10 -10 -12 -9 -14 10 -9 17 5 20 3 14 -7 -6 -9 -4 -11 5 -5 7 4 16 2 21
-6 4 -8 13 -15 19 -15 5 -1 11 -2 13 -3 3 -3 58 -12 79 -14 9 -1 14 -5 11 -10
-3 -5 4 -11 16 -14 11 -3 18 -9 15 -14 -3 -5 11 1 32 13 l37 22 -18 -27 -17
-27 33 12 c19 6 39 14 44 17 6 3 2 -3 -10 -13 -20 -19 -20 -19 7 -13 14 4 34
10 44 14 12 4 15 3 10 -5 -4 -7 -2 -12 3 -12 6 0 11 4 11 10 0 5 14 8 30 6 17
-2 30 1 30 5 0 5 4 9 9 9 8 0 8 -8 2 -39 -1 -2 -8 2 -16 9 -16 13 -20 5 -16
-28 1 -8 -6 -24 -16 -35 -9 -12 -11 -16 -3 -9 17 14 34 16 25 2 -12 -19 47 10
66 33 17 20 18 21 19 3 0 -19 0 -19 21 0 22 19 22 19 10 -4 -12 -22 -11 -23 9
-12 12 6 18 16 14 23 -4 7 -4 9 1 5 4 -4 17 -1 29 7 27 20 35 19 31 -3 -2 -9
-4 -21 -4 -25 -1 -5 -5 -6 -10 -3 -5 3 -11 -2 -13 -12 -3 -11 0 -19 8 -19 7 0
11 4 9 8 -3 3 2 12 10 19 12 10 15 10 15 -1 0 -8 9 -4 21 11 17 22 19 23 17 5
-2 -14 2 -19 15 -17 9 2 17 -2 17 -9 0 -8 5 -8 18 2 14 11 15 11 5 0 -6 -7 -9
-21 -6 -30 4 -13 3 -13 -5 -2 -8 11 -12 10 -21 -5 -10 -18 -10 -18 -11 4 0 20
-29 34 -31 15 0 -5 -3 -19 -5 -33 -2 -13 -2 -31 1 -40 5 -12 9 -10 20 10 13
23 14 23 16 5 1 -11 1 -23 1 -26 -3 -17 48 19 50 36 2 11 9 19 16 18 6 -2 12
4 12 13 0 9 -5 12 -11 8 -7 -4 -10 -1 -7 7 3 8 12 13 22 11 10 -2 16 4 16 18
0 24 9 26 25 3 12 -16 9 -57 -4 -49 -5 3 -6 -43 -1 -64 0 -3 10 6 21 19 l20
25 -5 -30 c-4 -16 -3 -23 0 -16 3 6 12 12 20 12 8 0 14 6 14 14 0 7 8 20 18
27 14 11 15 11 5 -1 -15 -17 -17 -34 -3 -25 7 4 7 -3 0 -19 -5 -14 -6 -26 -1
-26 5 0 14 15 21 32 10 28 13 30 19 14 7 -18 8 -18 25 -1 9 10 15 23 13 29 -3
7 5 13 16 14 12 0 17 -2 12 -6 -6 -4 -10 -14 -11 -22 -1 -8 -4 -31 -8 -50 -5
-22 -4 -30 2 -22 5 8 13 13 18 12 5 0 11 7 13 17 1 10 10 26 19 36 16 17 15
20 -1 32 -16 11 -16 13 -2 19 9 3 14 2 11 -3 -3 -4 3 -16 14 -26 19 -17 19
-19 2 -31 -9 -7 -12 -14 -6 -14 12 0 32 19 33 33 1 4 1 15 1 25 0 14 2 14 9 3
7 -11 10 -10 14 5 4 17 5 17 6 1 0 -10 -10 -38 -23 -62 l-25 -43 27 3 c30 3
53 30 45 53 -4 10 -2 13 5 8 7 -4 12 -16 12 -26 0 -31 19 -33 30 -4 6 15 8 29
5 32 -2 3 0 11 6 19 9 10 15 11 26 2 11 -10 12 -8 4 15 -7 16 -7 26 -1 26 5 0
7 7 4 15 -4 8 -1 15 5 15 6 0 11 -6 11 -12 0 -9 4 -8 10 2 8 12 10 11 10 -7 0
-12 -6 -23 -12 -25 -10 -4 -10 -10 -1 -29 6 -13 12 -18 12 -11 1 15 31 16 31
1 0 -5 -4 -7 -10 -4 -5 3 -7 0 -4 -9 3 -8 -2 -29 -11 -48 -10 -18 -12 -28 -5
-21 7 6 19 9 26 6 8 -3 15 0 15 6 1 6 3 16 4 21 1 6 3 13 4 18 1 4 8 -6 16
-23 l13 -30 2 30 c1 17 2 33 1 38 0 4 4 7 9 7 5 0 9 3 8 8 0 4 1 14 5 22 3 8
8 22 10 30 3 9 6 4 6 -10 l1 -25 19 29 c11 16 18 34 17 40 -2 6 -1 8 1 3 3 -4
9 -5 14 -1 5 3 9 -3 9 -13 0 -15 2 -16 11 -3 9 13 10 13 6 0 -2 -8 -10 -15
-18 -15 -22 -1 -43 -16 -31 -24 7 -4 8 -26 3 -64 -4 -32 -5 -60 -1 -62 3 -2 7
10 8 28 4 43 11 46 34 14 19 -26 22 -27 38 -12 16 15 18 14 23 -5 3 -11 10
-20 17 -20 6 0 8 5 4 12 -5 9 -2 9 9 -1 14 -11 17 -11 18 0 1 8 1 18 -1 24 -1
9 37 -20 53 -40 4 -5 5 13 1 40 -6 47 -19 69 -34 60 -4 -2 -6 9 -5 25 1 16 -2
27 -7 24 -4 -3 -8 0 -8 5 0 15 27 14 37 -1 4 -7 8 -21 8 -31 0 -10 6 -22 14
-26 7 -5 10 -15 7 -22 -4 -8 -1 -5 8 5 8 10 13 24 9 30 -3 6 -2 8 2 3 11 -10
14 -48 3 -41 -11 7 -10 -18 2 -36 7 -11 10 -11 10 -2 0 8 5 10 13 5 6 -4 23
-9 36 -11 22 -3 22 -2 7 13 -9 9 -14 21 -10 26 3 6 1 15 -4 22 -5 7 -13 31
-17 54 -8 49 -8 54 3 51 4 -2 6 -6 5 -10 -2 -4 6 -10 17 -13 12 -4 24 -24 34
-59 9 -29 26 -61 38 -71 13 -11 17 -13 11 -5 -7 8 -13 21 -13 30 0 13 1 13 10
0 7 -12 10 -8 10 15 1 28 2 29 10 8 11 -28 20 -30 13 -4 -6 22 12 37 23 20 4
-8 3 -9 -4 -5 -15 9 -15 1 -1 -26 9 -16 13 -18 19 -8 5 9 -1 33 -17 64 l-25
51 24 -25 c13 -14 19 -20 15 -13 -5 6 -6 21 -2 32 6 19 -27 89 -48 103 -6 4
-8 10 -3 15 4 4 11 1 16 -7 5 -8 16 -24 24 -35 15 -20 15 -20 16 4 0 14 -8 33
-17 43 -13 15 -14 21 -4 31 10 9 11 8 6 -8 -5 -15 -4 -17 3 -6 6 8 8 21 5 28
-5 12 -7 12 -14 1 -8 -12 -13 -4 -10 15 0 4 -4 7 -10 7 -7 0 -9 -9 -6 -21 5
-20 5 -20 -14 -3 -21 19 -24 13 -10 -15 7 -13 6 -18 -4 -18 -7 0 -11 5 -9 11
3 7 -3 20 -12 31 -8 11 -12 14 -9 7 5 -9 1 -12 -11 -10 -18 3 -32 -28 -36 -83
-1 -18 -7 -25 -15 -22 -10 4 -11 9 -3 18 8 9 8 15 0 20 -5 3 -10 1 -10 -4 0
-6 -4 -11 -9 -11 -5 0 -8 8 -6 18 1 9 9 16 17 14 8 -1 15 4 15 13 0 8 -4 12
-9 9 -4 -3 -8 1 -8 8 -1 9 -5 7 -14 -4 -18 -24 -29 -23 -21 2 13 40 -30 9 -62
-45 -7 -11 -12 -14 -13 -7 0 6 -7 12 -15 12 -7 0 -19 8 -25 18 -10 15 -11 15
-5 -3 4 -11 10 -28 12 -37 3 -10 10 -15 16 -11 6 3 7 1 3 -6 -9 -14 -26 -5
-26 15 0 8 -4 14 -10 14 -5 0 -10 7 -10 16 0 14 -2 13 -17 -1 -13 -14 -14 -21
-5 -36 7 -10 8 -19 3 -19 -5 0 -12 6 -14 13 -4 9 -8 8 -17 -3 -9 -13 -10 -12
-8 4 2 12 -5 24 -18 31 -11 5 -19 16 -16 23 6 20 -16 14 -31 -8 -14 -20 -15
-20 -22 -3 -7 17 -8 17 -15 -2 -8 -19 -9 -19 -9 -1 -1 15 -4 16 -16 6 -8 -7
-21 -10 -29 -7 -11 4 -13 1 -9 -10 4 -11 2 -14 -8 -11 -8 3 -13 13 -11 23 2
11 -1 14 -8 10 -6 -4 -9 -13 -6 -21 3 -7 1 -16 -4 -19 -6 -4 -10 0 -10 8 0 8
-7 17 -15 21 -19 7 -19 2 0 -34 9 -18 11 -31 5 -35 -6 -3 -10 3 -10 14 0 12
-4 21 -10 21 -5 0 -9 3 -9 8 5 30 -16 41 -34 17 -4 -5 -6 0 -4 12 3 25 17 44
17 24 0 -7 5 -9 11 -6 6 4 8 14 5 22 -3 8 -1 11 4 8 6 -3 10 1 10 11 0 14 2
15 17 3 15 -12 16 -12 10 3 -5 13 0 19 18 24 14 3 25 13 25 21 0 9 6 13 15 9
8 -3 15 -1 15 5 0 6 5 7 11 4 6 -4 9 0 7 11 -2 14 3 19 19 18 14 -1 25 6 28
17 4 11 10 17 15 14 5 -3 13 3 19 12 8 14 11 15 11 3 1 -12 3 -12 14 2 7 10
16 15 19 11 4 -3 9 2 13 11 3 9 10 13 15 10 12 -7 51 15 44 26 -3 5 4 7 15 5
11 -2 27 4 36 13 9 9 24 17 32 18 9 2 19 9 24 17 5 9 16 13 28 10 15 -4 20 0
20 13 0 16 2 17 10 4 6 -10 10 -11 10 -2 0 6 9 21 21 33 12 12 18 27 15 37 -5
15 -4 15 6 2 13 -15 48 -23 46 -11 0 3 0 17 1 31 1 20 3 22 11 10 9 -14 14 -7
11 15 -1 6 6 1 14 -10 14 -17 17 -18 25 -5 5 8 10 11 10 5 0 -5 12 4 26 20 14
17 28 29 32 27 3 -2 9 4 12 13 3 9 10 16 15 14 6 -1 15 9 22 22 13 25 33 32
45 14 5 -6 8 -3 8 8 0 9 4 17 9 17 8 0 24 36 23 51 -1 3 5 6 13 6 8 0 11 -7 8
-16 -4 -12 -3 -13 5 -6 7 6 13 25 15 43 2 18 7 35 11 40 4 4 6 2 4 -3 -1 -6 2
-11 7 -13 6 -2 12 5 13 15 7 33 22 38 23 7 l1 -29 12 29 c9 20 15 25 19 15 4
-10 6 -9 6 4 1 10 4 16 9 14 4 -3 13 1 20 9 7 8 10 14 6 14 -3 0 0 7 7 16 12
14 14 14 20 -3 6 -15 8 -13 10 10 3 49 4 52 22 51 9 -1 17 2 17 7 0 5 5 8 12
7 7 -2 17 13 24 32 6 19 16 33 20 30 5 -3 10 10 12 28 3 32 15 41 27 22 10
-15 25 -2 25 22 0 11 14 35 32 51 19 18 27 32 20 35 -15 5 -16 22 -2 22 6 0
15 -10 20 -22 5 -14 9 -17 10 -8 1 8 12 38 25 65 21 43 24 46 25 23 0 -15 5
-30 10 -33 6 -4 10 7 10 26 0 22 8 39 28 57 15 13 20 21 12 18 -8 -4 -5 1 8
10 12 9 22 26 23 38 0 20 1 21 9 1 7 -16 9 -13 9 18 1 25 6 37 16 37 9 0 12 6
9 15 -4 8 -2 21 4 28 6 6 10 14 10 17 0 19 15 59 21 56 4 -3 13 4 20 16 7 11
8 18 3 14 -5 -3 -9 1 -9 8 0 8 6 12 14 9 16 -6 17 19 1 35 -9 9 -6 11 10 7 23
-4 27 6 23 51 -1 12 3 32 8 45 5 13 10 18 10 12 1 -7 5 -13 10 -13 13 0 19 43
10 68 -6 15 -4 21 3 19 6 -1 15 18 19 42 5 24 10 46 13 48 2 3 0 17 -4 33 -4
16 -5 31 -2 35 4 4 7 12 8 18 0 7 2 21 3 32 1 17 3 18 12 5 8 -12 10 -9 6 13
-3 22 -2 25 10 16 11 -10 12 -8 3 16 -8 21 -8 30 1 36 10 6 10 12 -1 26 -13
16 -12 16 8 -1 19 -16 22 -17 22 -3 0 9 -4 18 -8 21 -5 3 -8 15 -7 28 1 13 -3
29 -9 37 -9 12 -7 13 8 7 19 -7 19 -6 2 13 -18 20 -7 39 15 25 8 -4 8 0 0 15
-7 11 -9 21 -6 21 4 0 -1 8 -11 17 -27 27 3 29 33 2 l27 -24 -25 34 c-13 18
-31 43 -39 55 -14 21 -14 21 6 4 11 -10 24 -18 27 -18 8 0 -12 38 -30 58 -19
20 -16 27 4 11 11 -10 14 -10 9 -2 -4 7 -9 22 -11 33 -2 11 -11 27 -19 36 -9
8 -16 18 -16 21 0 6 15 -5 60 -41 14 -12 5 1 -20 27 -24 26 -41 47 -37 47 4 0
2 10 -4 23 -12 21 -11 21 7 7 10 -8 30 -23 44 -35 24 -19 24 -19 10 0 -8 11
-25 32 -38 47 -25 27 -25 27 -2 21 21 -5 21 -4 8 18 -7 13 -19 29 -25 37 -16
16 -17 26 -3 17 23 -14 7 10 -42 63 -29 31 -38 44 -19 27 29 -26 32 -27 22 -7
-6 12 -8 22 -4 22 4 0 1 6 -8 13 -16 12 -19 18 -19 38 0 6 -7 8 -16 5 -8 -3
-13 -2 -10 3 3 5 -4 20 -15 35 -11 14 -18 30 -15 35 4 5 -5 23 -20 40 -14 17
-22 36 -18 42 4 8 3 9 -4 5 -6 -4 -18 6 -26 22 -9 17 -30 42 -48 57 -30 25
-31 27 -8 20 22 -7 23 -6 11 9 -7 9 -23 16 -35 16 -14 0 -17 3 -9 8 9 6 3 13
-18 26 -17 10 -28 20 -25 23 3 3 12 0 21 -7 8 -7 15 -8 15 -3 0 17 -110 93
-110 76 0 -4 -4 -3 -8 3 -4 6 -41 21 -82 34 -41 13 -82 31 -90 39 -13 13 -13
14 5 7 28 -12 87 -26 105 -25 10 0 11 2 2 6 -6 2 -10 8 -7 13 3 4 -5 6 -17 2
-14 -3 -19 -2 -14 6 5 8 0 12 -12 12 -11 0 -25 6 -32 14 -6 8 -18 12 -25 10
-13 -5 -72 21 -85 37 -3 4 -18 7 -35 6 -16 0 -24 -2 -17 -4 6 -3 12 -9 12 -15
0 -7 -5 -6 -14 2 -25 20 -8 39 32 35 36 -4 36 -4 -5 7 -24 6 -43 16 -43 22 0
7 -3 6 -8 -2 -6 -9 -15 -10 -33 -3 -20 8 -21 10 -5 10 52 2 -38 24 -96 24 -19
0 -25 4 -21 14 5 12 -2 13 -33 8 -29 -5 -35 -4 -24 4 13 9 12 11 -5 12 -11 1
-32 0 -47 -1 -15 -1 -42 5 -60 13 -23 11 -55 14 -103 11 -107 -6 -167 -6 -173
0 -3 3 7 6 23 6 37 0 26 11 -17 16 -21 2 -38 -2 -46 -11z m23 -25 c-3 -5 -12
-10 -18 -10 -7 0 -6 4 3 10 19 12 23 12 15 0z m-55 -4 c0 -2 -9 -6 -20 -9 -11
-3 -20 -1 -20 4 0 5 9 9 20 9 11 0 20 -2 20 -4z m-460 -80 c0 -3 -4 -8 -10
-11 -5 -3 -10 -1 -10 4 0 6 5 11 10 11 6 0 10 -2 10 -4z m1200 -72 c0 -8 5
-12 10 -9 6 3 10 4 10 1 0 -16 -21 -13 -30 4 -7 13 -7 20 0 20 5 0 10 -7 10
-16z m56 -36 c3 -4 -1 -5 -10 -4 -8 1 -18 5 -22 8 -3 4 1 5 10 4 8 -1 18 -5
22 -8z m-516 -131 c8 -3 35 -8 60 -10 25 -3 54 -8 65 -10 57 -13 111 -30 120
-36 6 -4 61 -29 123 -56 61 -26 112 -50 112 -54 0 -4 15 -15 34 -25 18 -10 49
-38 67 -62 18 -24 36 -44 41 -44 4 0 8 -6 8 -14 0 -8 10 -22 22 -30 12 -9 18
-16 13 -16 -5 0 3 -12 17 -27 22 -26 57 -89 62 -117 2 -6 10 -36 19 -66 9 -30
18 -68 19 -85 1 -16 6 -36 12 -44 8 -11 8 -13 0 -8 -15 9 -24 -69 -10 -83 7
-7 3 -15 -10 -25 -10 -8 -14 -15 -9 -14 19 3 26 -1 20 -11 -4 -6 -17 -4 -36 5
-34 18 -37 10 -7 -22 31 -33 9 -28 -30 6 -18 17 -46 33 -63 36 -16 4 -27 10
-24 15 3 4 -4 10 -16 13 -16 4 -18 3 -9 -8 8 -9 8 -15 0 -20 -13 -8 -32 3 -25
15 3 5 -7 7 -22 4 -21 -3 -24 -2 -13 6 13 9 13 10 0 11 -8 1 -19 1 -23 0 -5
-1 -6 3 -3 8 4 5 -3 13 -15 16 -11 4 -18 9 -16 12 3 2 24 -5 47 -17 23 -12 45
-19 48 -16 3 3 3 7 1 9 -2 1 -17 11 -34 23 -31 21 -60 35 -84 40 -7 1 -19 8
-25 15 -8 9 -7 10 7 6 9 -4 17 -4 17 -2 0 6 -107 55 -130 60 -8 2 -31 10 -50
18 -36 15 -140 33 -140 24 0 -3 33 -15 73 -27 39 -12 78 -27 85 -32 6 -6 27
-14 45 -18 24 -6 26 -8 9 -9 -20 -1 -21 -4 -12 -21 6 -11 17 -20 26 -20 8 0
14 -7 12 -16 -2 -9 4 -18 12 -19 22 -4 134 -65 119 -65 -12 0 9 -20 48 -48 10
-7 11 -10 3 -7 -8 4 -6 -1 4 -9 11 -9 15 -16 8 -16 -6 0 -9 -6 -6 -14 3 -8 11
-13 18 -10 6 2 25 -10 41 -28 l30 -33 -32 29 c-19 17 -36 25 -44 20 -9 -5 -1
-17 27 -42 37 -32 38 -33 7 -16 -18 10 -33 22 -33 27 0 4 -4 5 -10 2 -5 -3
-10 -1 -10 4 0 6 -6 11 -12 11 -7 -1 -3 -9 10 -20 13 -10 23 -23 22 -27 0 -4
6 -8 13 -8 6 0 13 -10 13 -23 1 -13 11 -34 24 -47 13 -14 20 -31 17 -39 -4 -9
-1 -16 6 -16 13 0 68 -64 71 -83 1 -7 5 -17 8 -23 4 -6 6 -21 3 -33 -2 -13 0
-19 7 -15 7 4 8 -1 2 -17 -4 -13 -7 -33 -6 -44 1 -11 -8 -35 -19 -53 -11 -19
-21 -41 -22 -50 -1 -10 -7 -24 -12 -32 -6 -8 -14 -22 -20 -31 -5 -10 -26 -41
-46 -70 -20 -30 -47 -72 -60 -94 -13 -22 -27 -41 -31 -43 -4 -2 -8 -12 -8 -23
0 -10 -4 -19 -10 -19 -5 0 -10 -5 -10 -12 0 -6 -7 -18 -15 -27 -29 -31 -65
-79 -65 -87 0 -4 12 3 26 17 22 20 25 21 16 4 -13 -24 -222 -243 -222 -232 0
4 -17 -10 -37 -31 -21 -22 -74 -66 -118 -98 -43 -33 -93 -73 -110 -90 -27 -27
-63 -48 -74 -44 -2 1 -7 -2 -10 -7 -13 -18 -132 -92 -168 -104 -21 -6 -44 -16
-50 -22 -7 -5 -13 -6 -13 -3 0 6 -12 -2 -45 -32 -8 -7 -15 -11 -15 -7 0 3 -10
0 -22 -7 -13 -7 -26 -13 -30 -14 -5 -1 -10 -3 -13 -4 -3 -1 -9 -4 -15 -5 -5
-1 -11 -3 -12 -5 -3 -2 -25 -7 -53 -12 -28 -5 -45 -17 -45 -31 0 -7 4 -6 10 3
8 13 10 13 10 1 0 -12 3 -12 12 -3 7 7 19 12 27 12 22 0 5 -13 -44 -31 -42
-16 -46 -16 -54 -1 -9 15 -13 15 -32 4 -12 -8 -30 -15 -41 -17 -12 -3 -23 -7
-27 -11 -3 -4 2 -4 12 -1 9 4 17 2 17 -3 0 -14 -24 -12 -38 2 -9 9 -13 8 -17
-5 -4 -9 -13 -13 -21 -10 -8 3 -21 0 -29 -7 -8 -7 -15 -9 -15 -4 0 5 -5 2 -10
-6 -7 -11 -10 -11 -10 -2 0 7 -5 10 -11 6 -6 -3 -25 -8 -42 -10 -18 -2 -41 -6
-52 -8 -11 -3 -29 -5 -40 -6 -19 -1 -19 -1 -3 -14 16 -12 15 -13 -10 -14 -15
0 -63 -7 -107 -15 -109 -20 -176 -26 -170 -16 3 4 26 11 50 15 25 3 45 9 45
13 0 9 -283 7 -297 -2 -9 -6 -11 -3 -6 9 4 12 2 15 -8 12 -8 -3 -26 -1 -41 3
-16 4 -30 3 -33 -2 -4 -5 -12 -9 -18 -8 -9 0 -8 2 1 6 6 2 10 9 7 13 -3 5 -26
2 -51 -7 -25 -8 -48 -12 -51 -9 -4 3 1 6 9 6 9 0 18 6 21 14 4 11 -2 12 -29 6
-19 -4 -34 -5 -34 -1 0 4 -9 7 -20 8 -11 1 -30 9 -42 19 -14 10 -16 14 -6 11
9 -3 19 1 22 9 3 9 1 12 -4 9 -6 -3 -13 1 -16 9 -3 9 -10 13 -15 10 -14 -8
-61 25 -53 37 4 7 -1 7 -15 0 -17 -10 -21 -9 -21 4 0 8 -5 15 -11 15 -5 0 -7
5 -4 10 3 6 1 10 -4 10 -6 0 -11 -5 -11 -10 0 -6 -21 10 -47 35 -26 25 -51 45
-56 45 -4 0 -5 5 -2 10 3 6 2 10 -4 10 -6 0 -8 7 -5 15 4 8 -1 17 -10 21 -9 3
-14 10 -11 14 3 4 -2 10 -9 13 -8 3 -17 1 -20 -6 -2 -7 -6 2 -7 18 -4 45 -6
69 -8 79 0 5 -7 3 -14 -3 -11 -8 -18 -6 -31 8 -10 11 -18 25 -19 33 -2 7 -10
24 -20 38 -23 33 -22 39 8 34 23 -4 24 -3 19 38 -3 24 -7 63 -10 88 -3 25 -9
49 -14 54 -14 14 -12 28 3 20 9 -6 9 -4 1 7 -17 21 -25 77 -13 85 8 4 7 9 -2
15 -19 12 -31 11 -23 -2 3 -6 -4 -31 -17 -55 -26 -52 -45 -40 -22 14 8 19 17
55 20 81 5 39 3 44 -8 34 -13 -10 -13 -4 -5 42 6 29 13 52 17 49 4 -2 10 4 12
13 3 10 4 4 3 -12 -1 -17 -6 -37 -11 -44 -6 -10 -4 -12 6 -6 12 8 12 6 1 -8
-17 -20 -6 -45 12 -27 6 6 12 15 12 21 1 5 2 10 4 12 6 8 5 45 -2 41 -11 -7
-10 -1 7 33 8 16 24 38 35 48 11 10 20 24 20 31 0 7 4 14 9 16 5 2 11 10 13
18 2 8 18 36 36 63 17 26 32 50 32 53 0 4 -18 -10 -40 -30 -23 -20 -45 -34
-50 -31 -5 3 -12 1 -15 -5 -4 -6 -3 -9 2 -8 4 2 8 0 8 -3 0 -3 7 -14 15 -24
14 -17 13 -18 -3 -12 -11 4 -16 3 -12 -3 3 -6 1 -10 -5 -10 -6 0 -9 -4 -6 -9
3 -5 -1 -14 -9 -21 -19 -16 -19 0 0 36 9 17 11 32 5 38 -10 10 22 80 42 92 10
6 11 4 1 -7 -28 -30 -10 -28 27 3 38 32 54 56 28 43 -7 -4 -2 3 12 15 14 12
25 30 25 39 1 9 6 15 13 13 7 -1 11 1 11 5 -3 18 2 33 10 33 4 0 7 -12 5 -27
l-3 -28 35 38 c19 20 39 37 44 37 6 0 10 4 10 10 0 5 15 26 33 47 17 20 25 33
17 29 -8 -4 -6 0 4 8 14 11 22 13 27 5 5 -8 8 -8 13 0 4 6 5 15 2 19 -2 4 5 9
16 9 12 1 26 7 32 14 8 9 8 10 -1 5 -7 -4 -13 -2 -13 3 0 6 5 11 10 11 6 0 9
6 8 12 -2 7 4 13 12 13 8 0 21 8 29 18 7 10 19 16 26 13 7 -2 18 1 24 7 10 9
10 5 1 -18 -11 -29 -11 -29 9 -10 20 17 30 10 14 -10 -5 -6 9 9 30 33 34 37
69 59 52 32 -3 -5 1 -10 9 -10 8 0 18 5 21 10 3 6 10 10 16 10 5 0 1 -8 -8
-18 -12 -13 -23 -16 -34 -11 -20 10 -40 -8 -32 -28 4 -11 8 -12 13 -3 4 7 17
13 29 14 27 1 98 61 117 98 11 21 19 27 27 19 8 -6 18 -6 26 -1 8 4 20 6 28 3
11 -5 11 -9 -2 -29 -18 -28 -3 -32 23 -6 23 23 69 52 81 52 6 0 7 -8 4 -17 -5
-13 4 -10 32 11 21 16 35 23 30 15 -4 -8 2 -4 14 8 23 25 28 38 9 27 -7 -4 -9
-3 -5 1 12 14 37 14 37 1 0 -7 -5 -17 -10 -22 -7 -7 -6 -11 5 -11 8 0 17 8 20
18 3 9 13 20 22 24 15 5 15 4 0 -13 -23 -25 -22 -29 9 -28 31 2 54 30 48 59
-2 11 1 26 6 32 15 18 53 11 56 -9 3 -21 14 -34 14 -17 0 7 4 9 10 6 16 -10
-1 27 -23 52 -11 12 -24 20 -28 17 -5 -3 -9 2 -9 10 0 9 -4 16 -10 16 -5 0
-10 5 -10 12 0 6 7 4 18 -5 22 -20 36 -22 26 -4 -11 18 28 -14 46 -38 8 -11
15 -23 16 -27 1 -5 2 -12 3 -16 0 -5 8 -9 16 -9 8 0 12 4 9 9 -11 17 12 7 29
-12 10 -12 22 -18 27 -15 13 8 13 25 -1 25 -5 0 -7 -5 -3 -12 4 -7 3 -8 -4 -4
-8 5 -9 13 -2 25 6 12 5 22 -2 29 -13 13 9 11 32 -3 12 -7 13 -6 3 7 -7 8 -9
19 -5 23 4 5 2 5 -4 2 -6 -4 -19 2 -29 13 -10 11 -21 17 -26 15 -4 -3 -10 -1
-14 5 -11 18 20 11 42 -9 12 -11 23 -18 26 -15 7 7 57 -18 52 -26 -3 -4 3 -14
12 -21 15 -12 16 -12 10 4 -7 19 2 16 35 -12 21 -18 48 -23 48 -9 0 6 10 3 22
-8 21 -19 21 -19 16 2 -5 21 9 25 43 10 9 -4 32 -8 50 -9 19 -1 41 -8 49 -16
13 -13 15 -12 18 3 2 9 -2 23 -8 31 -8 9 -8 15 -2 15 5 0 12 -7 16 -15 3 -10
18 -15 43 -14 36 0 37 1 13 11 -14 6 -28 10 -33 10 -4 -1 -6 4 -5 11 2 7 -6
11 -19 9 -21 -3 -30 7 -18 20 8 8 84 -20 117 -44 16 -11 38 -18 48 -15 11 3
19 2 18 -2 -2 -18 4 -21 21 -11 13 6 28 7 45 0 30 -11 44 3 26 25 -9 11 -9 15
-1 15 6 0 11 5 11 10 0 6 -9 10 -19 10 -11 0 -48 13 -84 29 -36 16 -68 27 -70
24 -3 -3 -14 0 -24 6 -16 9 -16 10 -1 11 9 0 24 3 34 7 13 5 15 3 9 -7 -6 -10
-4 -12 8 -7 9 3 19 2 22 -2 4 -8 62 -24 95 -26 8 0 33 -6 55 -12 22 -7 60 -15
85 -18 25 -4 50 -11 55 -15 6 -5 28 -11 48 -13 20 -2 40 -7 44 -10 3 -4 15 -7
25 -7 11 0 17 -4 13 -9 -3 -6 3 -10 12 -9 29 0 155 -69 137 -76 -11 -4 -12
-10 -5 -25 12 -22 48 -34 54 -17 6 16 -4 37 -14 30 -5 -3 -9 0 -9 6 0 10 40 7
60 -5 5 -3 10 -1 10 5 0 6 -6 13 -14 16 -8 3 -17 13 -20 21 -5 13 -4 14 8 4 8
-7 20 -10 26 -6 17 11 11 25 -11 25 -11 0 -17 4 -14 10 3 6 -1 7 -9 4 -9 -3
-16 -1 -16 5 0 6 -6 11 -12 11 -7 0 -25 7 -40 14 -16 8 -28 11 -28 5 0 -5 -5
-9 -11 -9 -5 0 -7 4 -4 10 3 6 -1 7 -10 4 -8 -4 -21 -1 -29 5 -7 6 -16 8 -19
4 -4 -3 -7 -1 -7 5 0 7 5 12 10 12 6 0 5 6 -2 14 -7 8 -15 12 -17 10 -2 -1
-10 4 -18 12 -9 8 -22 13 -30 10 -8 -3 -12 -2 -9 3 3 5 -8 14 -24 21 -17 7
-30 15 -30 19 0 11 39 11 45 0 4 -5 14 -9 23 -8 14 0 13 2 -3 9 -13 5 -14 9
-5 9 8 0 24 -4 35 -9 17 -7 17 -9 3 -9 -24 -1 -23 -18 2 -31 12 -6 20 -7 20
-1 0 5 -6 12 -12 15 -7 2 -2 3 12 2 14 -2 25 -9 25 -17 0 -8 8 -13 18 -13 9 1
14 -2 11 -7 -3 -5 2 -9 10 -9 9 0 16 -4 16 -9 0 -11 39 -21 98 -27 24 -2 52
-9 62 -14 16 -9 20 -7 20 5 0 8 -6 15 -13 15 -7 0 -23 9 -35 21 -12 11 -27 17
-34 13 -6 -4 -8 -3 -5 2 3 6 -9 16 -26 23 -18 7 -41 16 -52 21 -11 4 -28 11
-37 14 -10 3 -15 11 -12 20 5 14 -28 41 -38 30 -7 -6 -58 17 -58 26 0 4 -9 10
-21 13 -12 3 -18 10 -14 16 3 6 0 9 -8 5 -8 -3 -18 -1 -22 5 -3 6 -14 11 -23
11 -11 0 -8 -5 10 -14 42 -22 74 -46 61 -46 -7 0 -15 4 -18 10 -10 17 -160 44
-228 42 -9 -1 -15 3 -13 7 3 4 -12 8 -32 8 -20 1 -30 -1 -22 -4 8 -3 27 -15
43 -25 15 -11 43 -21 63 -23 55 -5 168 -28 174 -36 3 -3 12 -9 20 -12 14 -7
-52 -1 -113 9 -16 2 -26 1 -23 -4 2 -4 -13 -8 -35 -7 -21 0 -39 3 -39 6 0 4
-15 5 -32 3 -21 -2 -28 -1 -20 5 9 5 -3 10 -35 15 -26 3 -59 8 -73 10 -13 2
-34 0 -46 -4 -12 -5 -24 -6 -27 -3 -3 3 -25 7 -49 9 -59 5 -77 9 -118 28 -19
9 -24 13 -10 9 14 -4 40 -7 58 -7 17 0 32 -2 32 -5 0 -7 11 -8 137 -15 51 -3
109 -10 130 -15 20 -6 39 -9 41 -7 7 8 -38 27 -71 31 -17 2 -50 8 -72 14 -22
5 -61 11 -87 13 -27 2 -48 7 -48 12 0 4 -18 6 -40 4 -22 -2 -40 0 -40 4 0 5
-8 8 -18 8 -10 0 -22 3 -25 7 -10 9 -177 11 -171 1 3 -4 14 -8 25 -8 10 0 19
-5 19 -11 0 -8 6 -7 17 2 9 8 14 9 10 2 -8 -13 46 -29 63 -18 5 3 10 3 10 -2
0 -4 -16 -13 -35 -19 -28 -9 -37 -8 -46 2 -14 17 -33 18 -23 2 6 -10 5 -10 -8
-1 -8 7 -19 9 -23 5 -5 -4 -5 -1 0 7 11 19 -15 32 -38 19 -13 -7 -17 -7 -13 0
9 15 -21 21 -92 18 -72 -4 -85 -11 -57 -33 18 -14 16 -14 -30 -7 -49 9 -174 8
-183 0 -2 -3 -1 -10 3 -16 5 -8 11 -8 21 1 12 10 13 9 8 -6 -5 -13 -4 -16 4
-11 7 4 15 1 18 -8 3 -9 10 -14 14 -11 5 3 11 1 14 -4 8 -12 -13 -8 -41 7 -26
14 -46 16 -38 2 3 -5 -7 -7 -27 -3 -68 12 -127 10 -133 -5 -3 -7 -3 -18 0 -23
4 -5 -7 -6 -23 -3 -16 3 -40 1 -52 -6 -17 -9 -25 -9 -34 1 -8 9 -8 10 3 4 9
-5 12 -4 7 3 -4 6 -13 9 -21 6 -8 -4 -13 -10 -10 -14 3 -5 -4 -6 -15 -3 -11 3
-20 12 -20 20 0 21 -41 -4 -48 -29 -2 -11 -10 -17 -18 -14 -8 3 -14 1 -14 -5
0 -6 -5 -7 -10 -4 -6 4 -7 11 -4 17 5 7 2 9 -8 5 -14 -5 -14 -2 -1 24 8 16 11
34 8 40 -7 10 5 25 53 71 12 12 22 29 22 37 0 12 2 13 8 3 6 -9 12 -5 20 13 7
14 17 23 22 20 6 -3 14 5 20 19 5 14 12 26 15 26 4 0 3 -6 -1 -12 -5 -9 -2 -8
9 1 11 9 15 21 11 34 -4 13 -2 17 5 13 7 -5 11 3 11 21 0 15 4 24 8 18 4 -5
18 -12 31 -13 18 -3 22 0 18 12 -3 8 -1 18 5 22 6 4 8 3 5 -2 -3 -6 3 -15 14
-22 16 -10 19 -9 19 4 0 10 5 14 15 10 10 -4 19 2 25 17 5 12 9 18 9 13 1 -5
8 -3 16 4 12 10 15 10 15 0 0 -7 10 -1 21 14 12 15 27 25 33 23 15 -6 50 19
43 30 -3 5 2 9 11 10 40 3 60 8 58 13 -1 3 8 16 21 29 13 13 23 19 23 14 0 -6
11 -10 25 -9 14 0 25 5 25 9 0 4 6 7 13 6 23 -4 97 33 90 45 -3 6 -2 8 2 3 5
-4 19 0 32 8 13 9 23 12 23 8 0 -4 14 6 32 23 17 16 27 22 23 15 -5 -9 3 -7
21 6 19 14 36 18 49 13 11 -4 26 -3 33 2 6 6 12 7 12 3 0 -4 7 -2 15 5 8 6 38
14 67 16 29 2 85 7 123 10 39 3 114 7 168 9 53 1 99 4 101 6 6 5 78 2 96 -4z
m765 3 c3 -6 -1 -7 -9 -4 -18 7 -21 14 -7 14 6 0 13 -4 16 -10z m-2300 -169
c-3 -6 -11 -11 -17 -11 -6 0 -6 6 2 15 14 17 26 13 15 -4z m66 -304 c-10 -9
-11 -8 -5 6 3 10 9 15 12 12 3 -3 0 -11 -7 -18z m2488 -21 c-2 -2 -13 8 -23
22 l-19 27 24 -22 c12 -12 21 -24 18 -27z m-2939 20 c0 -2 -7 -7 -16 -10 -8
-3 -12 -2 -9 4 6 10 25 14 25 6z m2964 -78 c14 -33 14 -36 -2 -34 -12 2 -18
14 -20 41 -3 45 1 43 22 -7z m-3024 -22 c0 -2 -12 -11 -27 -20 l-28 -17 24 20
c23 21 31 25 31 17z m1114 -24 c3 -5 -1 -9 -9 -9 -8 0 -12 4 -9 9 3 4 7 8 9 8
2 0 6 -4 9 -8z m321 -12 c3 -6 -1 -7 -9 -4 -18 7 -21 14 -7 14 6 0 13 -4 16
-10z m-210 -20 c3 -5 1 -10 -6 -10 -8 0 -8 -4 1 -15 9 -10 9 -15 1 -15 -6 0
-11 3 -12 8 0 4 -2 15 -4 25 -3 18 10 23 20 7z m-484 -28 c-7 -2 -18 1 -23 6
-8 8 -4 9 13 5 13 -4 18 -8 10 -11z m164 7 c11 -17 -1 -21 -15 -4 -8 9 -8 15
-2 15 6 0 14 -5 17 -11z m1188 4 c-7 -2 -19 -2 -25 0 -7 3 -2 5 12 5 14 0 19
-2 13 -5z m-1306 -30 c-8 -8 -21 -11 -31 -7 -21 8 -3 23 26 21 15 -1 16 -4 5
-14z m207 -5 c10 -10 13 -18 8 -18 -5 0 -12 3 -16 8 -4 4 -17 7 -28 7 -12 0
-23 5 -25 10 -6 18 42 11 61 -7z m1016 -3 c-8 -10 -18 -12 -29 -6 -9 5 -23 6
-31 4 -13 -4 -13 -3 0 6 8 6 28 11 44 11 24 0 27 -2 16 -15z m390 6 c0 -5 -9
-7 -20 -4 -11 3 -20 7 -20 9 0 2 9 4 20 4 11 0 20 -4 20 -9z m-1851 -4 c-2 -1
-13 -9 -24 -17 -19 -14 -19 -14 -6 3 7 9 18 17 24 17 6 0 8 -1 6 -3z m301 -17
c6 0 8 5 5 10 -9 15 1 12 15 -5 10 -13 9 -15 -12 -15 -13 0 -33 7 -44 16 -18
15 -18 15 3 5 12 -6 27 -11 33 -11z m482 9 c14 5 29 7 32 3 8 -7 30 -12 69
-14 16 0 23 -4 17 -8 -12 -7 -65 -4 -108 5 -15 4 -21 2 -17 -5 3 -5 -1 -10 -9
-10 -9 0 -16 2 -16 4 0 2 -3 13 -6 23 -4 13 -3 14 3 5 7 -9 17 -10 35 -3z
m-427 -8 c3 -5 2 -12 -3 -15 -5 -3 -9 1 -9 9 0 17 3 19 12 6z m677 -6 c-3 -11
-78 -8 -100 4 -8 5 10 8 44 7 34 -1 58 -5 56 -11z m-568 -21 c5 -14 4 -15 -9
-4 -17 14 -19 20 -6 20 5 0 12 -7 15 -16z m1024 -1 c-10 -2 -26 -2 -35 0 -10
3 -2 5 17 5 19 0 27 -2 18 -5z m-428 -29 c0 -2 -7 -4 -15 -4 -8 0 -15 4 -15
10 0 5 7 7 15 4 8 -4 15 -8 15 -10z m-105 -26 c-4 -10 -15 -13 -35 -10 -40 6
-39 22 1 17 26 -4 30 -1 24 13 -4 12 -3 14 5 6 6 -6 8 -17 5 -26z m619 16 c8
-3 12 -12 10 -19 -3 -8 -12 -11 -20 -8 -8 3 -12 9 -9 13 3 5 -4 6 -15 3 -11
-3 -20 0 -20 6 0 12 29 15 54 5z m-347 -30 c-3 -3 -12 -4 -19 -1 -8 3 -5 6 6
6 11 1 17 -2 13 -5z m883 -61 c52 -35 80 -62 71 -67 -5 -4 -23 5 -39 19 -22
18 -33 22 -38 14 -4 -7 -3 -10 2 -7 5 3 17 -5 27 -18 17 -23 17 -24 0 -21 -10
1 -31 16 -48 32 -16 15 -23 24 -15 20 8 -5 3 6 -13 24 -31 37 -27 61 6 37 12
-9 33 -24 47 -33z m-407 20 c-7 -2 -19 -2 -25 0 -7 3 -2 5 12 5 14 0 19 -2 13
-5z m-1289 -22 c3 -5 -1 -14 -8 -20 -12 -10 -14 -9 -11 6 2 10 4 19 4 21 2 5
10 2 15 -7z m-429 -10 c3 -5 1 -12 -5 -16 -5 -3 -10 1 -10 9 0 18 6 21 15 7z
m-255 -65 c0 -2 -8 -10 -17 -17 -16 -13 -17 -12 -4 4 13 16 21 21 21 13z m255
-15 c3 -5 2 -12 -3 -15 -5 -3 -9 1 -9 9 0 17 3 19 12 6z m2162 -7 c-3 -3 -12
-4 -19 -1 -8 3 -5 6 6 6 11 1 17 -2 13 -5z m-2218 -31 c-6 -7 -18 -13 -26 -13
-12 0 -13 3 -4 13 6 8 17 14 26 14 11 0 12 -4 4 -14z m2232 0 c13 -17 13 -17
-6 -3 -11 8 -22 16 -24 17 -2 2 0 3 6 3 6 0 17 -8 24 -17z m-2455 -5 c4 -7 3
-10 -1 -5 -5 4 -18 -1 -29 -10 -21 -18 -21 -18 -2 5 22 26 23 26 32 10z m266
-10 c-14 -14 -44 -20 -36 -7 3 5 9 7 14 4 5 -3 11 -1 15 5 3 5 9 10 13 10 3 0
1 -5 -6 -12z m2159 -25 c13 -16 12 -17 -3 -5 -9 8 -23 10 -30 6 -7 -4 -10 -4
-6 1 4 4 2 15 -5 23 -10 13 -9 14 9 4 11 -6 27 -19 35 -29z m-2502 -48 c-18
-25 -34 -43 -37 -40 -5 4 56 85 64 85 3 0 -9 -20 -27 -45z m81 32 c0 -2 -10
-12 -22 -23 l-23 -19 19 23 c18 21 26 27 26 19z m-60 -70 c0 -2 -11 -18 -25
-37 -14 -19 -25 -31 -25 -27 0 5 10 21 22 37 20 27 28 35 28 27z m-131 -58
c-13 -26 -18 -24 -11 4 5 20 4 21 -14 7 -17 -14 -18 -14 -6 2 19 23 45 13 31
-13z m64 16 c-3 -9 -8 -14 -10 -11 -3 3 -2 9 2 15 9 16 15 13 8 -4z m-28 -25
c-7 -22 10 -28 19 -7 2 6 4 2 2 -9 -1 -12 -14 -37 -29 -55 -53 -65 -79 -94
-72 -81 4 7 8 24 10 37 1 14 16 39 33 56 26 26 29 35 21 52 -8 14 -8 18 0 13
6 -4 11 -2 11 3 0 6 3 11 6 11 3 0 2 -9 -1 -20z m-450 1 c-9 -8 -36 -10 -30
-2 2 4 11 8 20 8 8 0 13 -3 10 -6z m343 -23 c-7 -13 -11 -26 -10 -30 1 -5 -2
-8 -8 -8 -14 0 -12 12 6 38 20 29 28 28 12 0z m19 -13 c-4 -8 -2 -17 3 -20 16
-10 12 -32 -6 -39 -14 -5 -15 -4 -4 9 7 9 10 18 6 22 -3 3 -6 2 -6 -4 0 -6 -7
-13 -15 -16 -12 -5 -12 0 2 28 16 34 30 49 20 20z m33 5 c0 -5 -4 -10 -10 -10
-5 0 -10 5 -10 10 0 6 5 10 10 10 6 0 10 -4 10 -10z m-82 -62 c-2 -7 3 -12 10
-10 6 1 12 -2 12 -8 0 -5 -5 -10 -11 -10 -5 0 -7 -6 -3 -12 4 -7 3 -10 -1 -5
-11 9 -45 -21 -41 -36 2 -7 1 -8 -2 -3 -2 4 -8 2 -13 -5 -7 -10 -8 -8 -6 8 4
26 26 55 37 48 5 -3 11 -1 14 4 4 5 2 12 -4 16 -6 4 -8 11 -5 16 9 13 15 11
13 -3z m2763 -111 c-10 -9 -11 -8 -5 6 3 10 9 15 12 12 3 -3 0 -11 -7 -18z
m-2831 3 c0 -4 -10 -15 -22 -26 -13 -10 -17 -12 -10 -4 18 21 15 34 -5 19 -16
-12 -17 -12 -6 2 13 16 43 22 43 9z m-60 -70 c-6 -11 -12 -20 -14 -20 -3 0 -1
23 3 38 1 1 6 2 11 2 7 0 7 -6 0 -20z m-16 -115 c-4 -8 -11 -12 -16 -9 -6 4
-5 10 3 15 19 12 19 11 13 -6z m2836 12 c0 -2 -10 -12 -22 -23 l-23 -19 19 23
c18 21 26 27 26 19z m-46 -82 c-4 -8 -11 -12 -16 -9 -6 4 -5 10 3 15 19 12 19
11 13 -6z m-18 -27 c4 -6 3 -8 -4 -4 -9 5 -25 -22 -27 -46 0 -3 -3 -10 -7 -14
-10 -10 -2 31 12 55 12 24 16 25 26 9z m-116 -148 c-6 -11 -13 -20 -16 -20 -2
0 0 9 6 20 6 11 13 20 16 20 2 0 0 -9 -6 -20z m267 -152 c-3 -8 -6 -5 -6 6 -1
11 2 17 5 13 3 -3 4 -12 1 -19z m-2964 -11 c2 -6 -2 -18 -9 -25 -12 -11 -14
-8 -14 13 0 26 14 34 23 12z m-17 -93 c-10 -9 -15 -22 -13 -29 3 -6 0 -12 -7
-12 -17 0 -13 57 5 68 22 13 34 -8 15 -27z m-34 -94 l-9 -24 -5 22 c-4 12 -2
20 3 16 5 -3 9 0 9 7 0 7 2 10 5 7 3 -3 2 -16 -3 -28z m-25 -62 c-3 -7 -5 -2
-5 12 0 14 2 19 5 13 2 -7 2 -19 0 -25z m2856 -35 c-7 -18 -22 -7 -18 15 2 9
4 19 4 22 1 3 5 -1 10 -9 5 -8 7 -20 4 -28z m-2939 -9 c3 -8 2 -12 -4 -9 -6 3
-10 10 -10 16 0 14 7 11 14 -7z m90 1 c3 -8 1 -15 -4 -15 -6 0 -10 7 -10 15 0
8 2 15 4 15 2 0 6 -7 10 -15z m96 -40 c0 -8 -7 -15 -15 -15 -13 0 -14 3 -3 15
16 18 18 18 18 0z m21 -42 c12 -16 12 -17 -2 -6 -9 7 -20 9 -24 5 -5 -4 -5 -1
-1 6 9 16 11 15 27 -5z m2609 -13 c0 -5 -4 -10 -10 -10 -5 0 -10 5 -10 10 0 6
5 10 10 10 6 0 10 -4 10 -10z m-86 -19 c3 -5 -2 -15 -12 -22 -15 -12 -16 -12
-5 2 7 9 10 19 6 22 -3 4 -4 7 0 7 3 0 8 -4 11 -9z m-2489 -38 c12 -44 16 -67
9 -61 -3 3 -6 12 -8 20 -1 7 -6 20 -11 28 -13 20 -15 40 -5 40 4 0 11 -12 15
-27z m-34 -10 c13 -16 12 -17 -3 -4 -10 7 -18 15 -18 17 0 8 8 3 21 -13z m109
-13 c-12 -23 -16 -24 -26 -8 -4 6 -3 8 3 5 6 -4 13 0 17 8 3 8 8 15 11 15 3 0
1 -9 -5 -20z m2327 -77 c-3 -10 -5 -2 -5 17 0 19 2 27 5 18 2 -10 2 -26 0 -35z
m-2337 1 c0 -8 -19 -13 -24 -6 -3 5 1 9 9 9 8 0 15 -2 15 -3z m1575 -64 c-3
-5 -13 -10 -21 -10 -8 0 -12 5 -9 10 3 6 13 10 21 10 8 0 12 -4 9 -10z m-175
-60 c-8 -6 -22 -10 -30 -9 -9 0 -5 6 10 14 27 14 44 10 20 -5z m-1446 -79 c-2
-3 -12 3 -22 13 -16 17 -16 18 5 5 12 -7 20 -15 17 -18z m1261 9 c-3 -5 -12
-10 -18 -10 -7 0 -6 4 3 10 19 12 23 12 15 0z m-60 -10 c-3 -5 -12 -10 -18
-10 -7 0 -6 4 3 10 19 12 23 12 15 0z m-1144 -17 c12 -16 12 -17 -1 -7 -8 6
-22 14 -30 17 -13 5 -12 6 1 6 9 1 23 -7 30 -16z m666 -19 c-3 -3 -12 -4 -19
-1 -8 3 -5 6 6 6 11 1 17 -2 13 -5z m-751 -16 c3 -4 -1 -5 -10 -4 -8 1 -18 5
-22 8 -3 4 1 5 10 4 8 -1 18 -5 22 -8z m859 -18 c-3 -5 -12 -10 -18 -10 -7 0
-6 4 3 10 19 12 23 12 15 0z m-132 -7 c-7 -2 -19 -2 -25 0 -7 3 -2 5 12 5 14
0 19 -2 13 -5z m67 -346 c0 -2 -10 -12 -22 -23 l-23 -19 19 23 c18 21 26 27
26 19z m1017 -39 c-3 -8 -6 -5 -6 6 -1 11 2 17 5 13 3 -3 4 -12 1 -19z m-871
-7 c-3 -5 -16 -11 -28 -14 -22 -6 -22 -5 -4 8 22 17 40 20 32 6z m254 -1 c0
-5 -5 -10 -11 -10 -5 0 -7 5 -4 10 3 6 8 10 11 10 2 0 4 -4 4 -10z m47 -12
c-3 -8 -6 -5 -6 6 -1 11 2 17 5 13 3 -3 4 -12 1 -19z m409 -13 c-17 -17 -21
-9 -10 20 5 11 10 13 17 6 6 -6 4 -15 -7 -26z m-346 10 c0 -12 -19 -12 -23 0
-4 9 -1 12 9 8 7 -3 14 -7 14 -8z m-420 -5 c0 -5 -5 -10 -11 -10 -5 0 -7 5 -4
10 3 6 8 10 11 10 2 0 4 -4 4 -10z m1055 -20 c9 8 15 8 20 0 4 -6 2 -9 -4 -8
-5 2 -16 -6 -24 -16 -11 -15 -16 -16 -22 -6 -5 9 -4 11 3 6 7 -4 12 -3 12 3 0
5 -4 13 -10 16 -5 3 -10 12 -10 18 0 7 5 4 11 -6 8 -14 14 -15 24 -7z m-258
-42 c-15 -9 -19 -4 -11 16 5 14 9 15 15 5 5 -8 3 -17 -4 -21z m-224 -13 c-7
-21 -13 -19 -13 6 0 11 4 18 10 14 5 -3 7 -12 3 -20z m440 0 c-3 -9 -8 -14
-10 -11 -3 3 -2 9 2 15 9 16 15 13 8 -4z m-76 -17 c-3 -8 -6 -5 -6 6 -1 11 2
17 5 13 3 -3 4 -12 1 -19z m113 -23 c0 -5 -5 -3 -10 5 -5 8 -10 20 -10 25 0 6
5 3 10 -5 5 -8 10 -19 10 -25z m140 -41 c0 -8 -4 -12 -10 -9 -5 3 -10 13 -10
21 0 8 5 12 10 9 6 -3 10 -13 10 -21z"/>
<path d="M3360 4890 c0 -5 5 -10 10 -10 6 0 10 5 10 10 0 6 -4 10 -10 10 -5 0
-10 -4 -10 -10z"/>
<path d="M4217 4809 c7 -7 15 -10 18 -7 3 3 -2 9 -12 12 -14 6 -15 5 -6 -5z"/>
<path d="M4526 4772 c-2 -4 16 -14 42 -21 26 -8 59 -20 75 -28 34 -17 34 -5 0
27 -15 14 -23 19 -18 11 6 -11 2 -10 -16 2 -24 18 -74 23 -83 9z"/>
<path d="M4145 4650 c-3 -5 -3 -14 0 -20 7 -12 36 -14 33 -2 -2 4 2 8 7 9 6 1
8 -6 7 -15 -2 -9 -1 -14 3 -10 4 4 19 2 34 -4 14 -5 38 -11 53 -13 15 -2 38
-11 52 -21 14 -9 33 -14 41 -10 9 3 13 2 10 -4 -3 -6 -3 -10 2 -11 33 -3 76
-13 88 -21 6 -3 18 -3 28 1 16 6 15 9 -10 27 -45 33 -57 39 -48 24 6 -10 2
-12 -16 -6 -13 4 -34 8 -47 10 -12 2 -26 7 -30 11 -4 5 1 5 10 2 11 -4 15 -2
12 6 -2 7 -17 13 -32 14 -62 3 -90 8 -85 16 3 5 -5 4 -17 -3 -20 -10 -22 -10
-17 3 4 11 -3 17 -25 21 -41 8 -46 8 -53 -4z m330 -90 c3 -5 2 -10 -4 -10 -5
0 -13 5 -16 10 -3 6 -2 10 4 10 5 0 13 -4 16 -10z"/>
<path d="M3539 4644 c0 -5 -2 -17 -4 -26 -2 -10 1 -21 6 -24 5 -3 8 0 7 8 -2
7 3 12 11 10 12 -3 12 -1 1 15 -8 10 -16 20 -17 22 -2 2 -3 0 -4 -5z"/>
<path d="M4277 4639 c7 -7 15 -10 18 -7 3 3 -2 9 -12 12 -14 6 -15 5 -6 -5z"/>
<path d="M4622 4635 c3 -3 21 -10 39 -15 31 -9 32 -8 15 5 -18 14 -66 22 -54
10z"/>
<path d="M3317 4589 c3 -11 10 -22 16 -26 6 -3 7 -1 3 5 -4 7 -1 12 8 12 16 0
23 19 9 21 -5 0 -15 2 -24 4 -12 2 -15 -2 -12 -16z"/>
<path d="M3882 4604 c4 -3 21 -8 40 -10 25 -4 29 -2 18 5 -16 11 -68 15 -58 5z"/>
<path d="M4692 4558 c4 -12 75 -57 92 -58 5 0 -12 16 -37 35 -49 37 -61 42
-55 23z"/>
<path d="M4856 4532 c-3 -5 1 -9 9 -9 8 0 12 4 9 9 -3 4 -7 8 -9 8 -2 0 -6 -4
-9 -8z"/>
<path d="M4657 4498 c-3 -9 3 -14 14 -14 11 0 18 5 16 10 -5 16 -24 18 -30 4z"/>
<path d="M4745 4487 c11 -9 26 -17 33 -17 6 0 12 -5 12 -12 0 -14 13 -2 16 15
1 7 -8 12 -20 13 -11 0 -30 4 -41 9 l-20 8 20 -16z"/>
<path d="M2927 4481 c1 -2 -3 -13 -9 -25 -10 -20 -10 -20 7 -6 10 8 20 14 22
12 3 -2 7 -1 9 2 2 3 1 4 -3 1 -3 -3 -11 1 -17 8 -6 7 -10 10 -9 8z"/>
<path d="M4728 4458 c13 -22 27 -34 45 -36 15 -2 27 -7 27 -12 0 -4 8 -11 17
-14 16 -6 16 -6 0 12 -9 10 -37 33 -62 51 l-45 33 18 -34z"/>
<path d="M4816 4452 c-3 -5 8 -21 23 -36 16 -15 31 -23 35 -18 3 5 -8 21 -23
36 -16 15 -31 23 -35 18z m34 -27 c13 -14 21 -25 18 -25 -2 0 -15 11 -28 25
-13 14 -21 25 -18 25 2 0 15 -11 28 -25z"/>
<path d="M4880 4386 c0 -2 8 -10 18 -17 15 -13 16 -12 3 4 -13 16 -21 21 -21
13z"/>
<path d="M2220 3965 c-7 -9 -11 -18 -8 -20 3 -3 11 1 18 10 7 9 11 18 8 20 -3
3 -11 -1 -18 -10z"/>
<path d="M2127 3633 c-5 -7 -5 -18 -1 -25 4 -7 3 -8 -4 -4 -7 4 -12 3 -12 -3
0 -17 20 -23 26 -7 8 22 1 54 -9 39z"/>
<path d="M2173 3230 c-1 -11 2 -22 8 -25 5 -4 8 3 6 14 -4 28 -12 34 -14 11z"/>
<path d="M2555 2790 c-4 -6 7 -10 27 -10 25 0 29 3 18 10 -19 13 -37 13 -45 0z"/>
<path d="M2399 4193 c-13 -16 -12 -17 4 -4 9 7 17 15 17 17 0 8 -8 3 -21 -13z"/>
<path d="M2259 4123 c-13 -16 -12 -17 4 -4 9 7 17 15 17 17 0 8 -8 3 -21 -13z"/>
<path d="M4405 5790 c-3 -6 1 -7 9 -4 18 7 21 14 7 14 -6 0 -13 -4 -16 -10z"/>
<path d="M4568 5753 c7 -3 16 -2 19 1 4 3 -2 6 -13 5 -11 0 -14 -3 -6 -6z"/>
<path d="M4800 5656 c0 -2 7 -7 16 -10 8 -3 12 -2 9 4 -6 10 -25 14 -25 6z"/>
<path d="M3229 5623 c-13 -16 -12 -17 4 -4 9 7 17 15 17 17 0 8 -8 3 -21 -13z"/>
<path d="M3060 5556 c0 -2 8 -10 18 -17 15 -13 16 -12 3 4 -13 16 -21 21 -21
13z"/>
<path d="M5220 5316 c0 -2 8 -10 18 -17 15 -13 16 -12 3 4 -13 16 -21 21 -21
13z"/>
<path d="M2159 4763 c-13 -16 -12 -17 4 -4 9 7 17 15 17 17 0 8 -8 3 -21 -13z"/>
<path d="M5460 4770 c0 -5 5 -10 11 -10 5 0 7 5 4 10 -3 6 -8 10 -11 10 -2 0
-4 -4 -4 -10z"/>
<path d="M5710 3950 c6 -11 13 -20 16 -20 2 0 0 9 -6 20 -6 11 -13 20 -16 20
-2 0 0 -9 6 -20z"/>
<path d="M5690 3921 c0 -5 11 -23 25 -39 14 -17 24 -36 22 -44 -2 -7 -2 -10 0
-5 3 4 9 5 14 1 16 -10 10 12 -11 36 -11 12 -17 26 -15 31 3 4 -4 13 -15 19
-12 6 -20 7 -20 1z"/>
<path d="M5663 3846 c15 -15 15 -21 5 -34 -11 -13 -10 -15 4 -9 17 6 54 -36
44 -51 -10 -16 9 -30 22 -16 10 11 7 19 -15 46 -16 18 -33 42 -39 52 -6 11
-17 22 -25 25 -9 3 -8 -2 4 -13z"/>
<path d="M5701 3843 c7 -12 15 -20 18 -17 3 2 -3 12 -13 22 -17 16 -18 16 -5
-5z"/>
<path d="M5779 3803 c12 -23 44 -61 39 -48 -12 31 -33 65 -40 65 -5 0 -4 -8 1
-17z"/>
<path d="M5636 3773 c-3 -7 0 -12 6 -10 7 1 15 -11 19 -28 6 -27 7 -27 8 -6 1
24 1 24 16 5 15 -19 15 -19 8 1 -3 11 -10 25 -14 31 -5 6 -6 14 -3 17 4 3 -3
5 -15 4 -11 -1 -23 -7 -25 -14z"/>
<path d="M5760 3752 c0 -5 8 -20 19 -33 10 -13 22 -34 26 -47 4 -13 9 -21 12
-19 7 7 -32 93 -46 101 -6 4 -11 3 -11 -2z"/>
<path d="M5610 3726 c0 -8 7 -16 15 -20 8 -3 15 -10 15 -16 0 -6 -4 -9 -8 -6
-17 10 -8 -24 10 -41 22 -20 36 -10 17 13 -7 9 -14 28 -15 43 -2 40 -3 41 -19
41 -8 0 -15 -6 -15 -14z"/>
<path d="M5731 3693 c6 -7 15 -13 20 -13 5 0 6 6 3 13 -3 8 -11 14 -19 14 -11
0 -12 -4 -4 -14z"/>
<path d="M5700 3633 c25 -45 84 -109 62 -68 -6 11 -19 29 -30 40 -10 12 -18
29 -16 39 1 10 0 15 -3 12 -4 -3 -13 0 -21 7 -10 7 -7 -5 8 -30z"/>
<path d="M5845 3640 c4 -19 12 -39 17 -45 7 -7 8 -2 3 14 -4 13 -8 30 -9 37
-1 7 -6 17 -10 21 -5 4 -5 -8 -1 -27z"/>
<path d="M5749 3645 c17 -32 40 -59 46 -53 3 3 -9 20 -26 39 -17 19 -26 25
-20 14z"/>
<path d="M5616 3628 c1 -13 3 -24 4 -25 2 -2 3 -7 4 -12 2 -13 14 -25 30 -27
11 -1 9 9 -7 42 -24 48 -35 55 -31 22z"/>
<path d="M5606 3592 c-8 -13 -2 -36 22 -75 12 -21 22 -41 22 -45 0 -4 11 -20
25 -37 l25 -30 -11 35 c-6 19 -20 43 -31 53 -11 9 -15 17 -8 17 7 0 1 15 -14
35 -15 19 -24 40 -21 45 3 6 4 10 1 10 -3 0 -7 -4 -10 -8z"/>
<path d="M5860 3568 c0 -7 5 -20 10 -28 8 -12 10 -9 10 13 0 15 -4 27 -10 27
-5 0 -10 -6 -10 -12z"/>
<path d="M5672 3543 c2 -5 19 -38 37 -75 38 -79 57 -98 35 -36 -15 43 -59 118
-70 118 -3 0 -4 -3 -2 -7z"/>
<path d="M5856 3513 c-11 -12 -6 -63 9 -93 9 -17 17 -30 19 -30 7 0 -6 85 -15
95 -5 5 -9 14 -9 20 0 5 5 3 10 -5 6 -9 10 -10 10 -3 0 15 -15 25 -24 16z"/>
<path d="M5557 3498 c-5 -14 17 -40 27 -31 3 3 11 1 19 -5 10 -8 13 -6 13 8 0
10 -4 16 -9 13 -4 -3 -16 2 -26 11 -14 13 -20 14 -24 4z"/>
<path d="M5655 3411 c4 -14 3 -21 -2 -18 -5 4 -10 0 -10 -8 0 -8 3 -13 5 -10
3 3 11 0 18 -6 11 -9 11 -4 4 22 -5 17 -12 34 -16 38 -4 3 -3 -5 1 -18z"/>
<path d="M5729 3388 c7 -10 11 -18 7 -18 -3 0 1 -18 10 -40 9 -23 14 -43 11
-46 -5 -5 -47 62 -47 75 0 5 -7 15 -16 22 -13 11 -12 5 4 -27 12 -23 18 -45
14 -49 -4 -5 -2 -5 4 -2 13 7 39 -36 31 -50 -10 -16 24 -56 36 -44 7 7 6 15
-3 27 -19 22 -21 44 -4 44 18 0 17 20 -1 44 -8 10 -12 22 -10 26 2 4 -8 18
-23 31 -14 13 -20 16 -13 7z"/>
<path d="M5597 3383 c-4 -3 1 -15 10 -26 14 -16 15 -19 3 -15 -19 7 -19 -26 0
-62 12 -22 12 -24 -3 -12 -14 12 -15 7 -13 -46 2 -33 7 -65 11 -72 5 -9 4 -11
-3 -6 -7 4 -12 13 -12 21 0 12 -34 14 -60 5 -3 -2 -8 -2 -12 -1 -4 0 -5 -6 -2
-14 7 -18 -12 -20 -22 -3 -4 7 -3 8 5 4 7 -5 10 -2 9 5 -2 7 2 13 9 14 18 0
26 13 19 31 -6 15 -8 16 -25 0 -9 -9 -21 -13 -25 -9 -4 4 -4 0 0 -10 3 -9 1
-24 -6 -32 -7 -8 -9 -15 -5 -15 4 0 2 -7 -5 -15 -11 -13 -10 -14 5 -8 15 5 17
3 10 -13 -17 -40 -17 -81 0 -97 22 -22 27 -21 44 6 13 21 13 22 -6 4 -11 -9
-22 -14 -26 -11 -5 5 10 41 23 54 9 9 11 31 1 26 -11 -7 -20 14 -14 32 4 10 8
10 19 1 10 -8 14 -8 14 0 0 6 -5 11 -10 11 -7 0 -7 8 1 22 11 21 12 21 26 2 8
-10 17 -18 21 -17 4 1 5 -9 4 -24 -3 -17 0 -23 8 -18 6 4 17 1 25 -5 11 -9 15
-9 15 -1 0 6 -4 11 -10 11 -5 0 -10 8 -10 17 0 38 23 -7 26 -52 3 -46 28 -100
43 -91 10 6 5 109 -6 132 -5 11 -8 29 -7 42 1 14 -3 21 -11 18 -8 -3 -10 4 -7
20 2 13 0 24 -6 24 -5 0 -12 9 -15 20 -3 11 -2 18 2 16 4 -3 13 -1 21 5 12 7
11 9 -5 9 -17 0 -17 2 -5 10 13 8 13 10 -1 10 -9 0 -22 7 -29 15 -15 18 0 20
20 3 12 -11 12 -10 2 3 -7 10 -11 28 -8 42 4 25 -15 53 -27 40z m63 -348 c0
-5 -5 -3 -10 5 -5 8 -10 20 -10 25 0 6 5 3 10 -5 5 -8 10 -19 10 -25z"/>
<path d="M5666 3337 c3 -10 9 -15 12 -12 3 3 0 11 -7 18 -10 9 -11 8 -5 -6z"/>
<path d="M5542 3308 c-2 -10 -9 -15 -16 -12 -6 3 0 -4 14 -15 14 -12 18 -19
10 -16 -18 6 -20 -25 -3 -64 15 -36 27 -9 29 65 1 48 -2 61 -14 61 -8 0 -17
-9 -20 -19z m19 -95 c13 -16 12 -17 -3 -4 -10 7 -18 15 -18 17 0 8 8 3 21 -13z"/>
<path d="M5495 3244 c-10 -8 -17 -14 -14 -15 2 0 12 -2 21 -4 9 -2 19 3 22 11
8 20 -7 24 -29 8z"/>
<path d="M5750 3197 c0 -7 7 -37 15 -65 18 -58 40 -62 29 -5 -5 28 -4 34 6 28
9 -5 11 -4 6 4 -4 6 -12 9 -17 6 -5 -4 -13 5 -19 19 -10 28 -20 34 -20 13z"/>
<path d="M5432 3045 c0 -16 2 -22 5 -12 2 9 2 23 0 30 -3 6 -5 -1 -5 -18z"/>
<path d="M5606 3032 c-3 -5 1 -9 9 -9 8 0 12 4 9 9 -3 4 -7 8 -9 8 -2 0 -6 -4
-9 -8z"/>
<path d="M5440 3000 c0 -5 6 -10 13 -10 7 0 18 -9 25 -21 11 -17 11 -25 -3
-46 -11 -16 -13 -28 -7 -36 11 -13 12 -17 12 -47 0 -11 5 -20 11 -20 6 0 9 7
5 15 -4 10 0 14 14 12 28 -5 35 -14 20 -32 -11 -13 -10 -14 2 -10 13 5 14 0 8
-32 -3 -22 -3 -48 2 -59 7 -19 8 -18 7 1 -1 11 0 25 1 30 10 34 3 91 -12 102
-10 8 -14 21 -11 33 3 11 0 26 -6 33 -6 8 -7 18 -3 22 4 5 1 5 -5 1 -16 -9
-16 -1 -3 25 6 11 7 18 3 17 -4 -1 -23 6 -40 15 -18 10 -33 13 -33 7z m60 -90
c5 9 9 9 14 1 4 -6 2 -11 -3 -11 -6 0 -11 -5 -11 -11 0 -5 5 -7 10 -4 6 3 10
1 10 -4 0 -16 -20 -13 -26 4 -4 8 -10 12 -15 9 -11 -6 -12 10 -2 20 4 4 9 2
12 -5 2 -8 5 -8 11 1z"/>
<path d="M5636 2964 c9 -80 10 -83 16 -90 4 -3 4 -12 2 -19 -3 -7 2 -15 10
-18 9 -4 16 -2 16 3 0 6 -4 10 -8 10 -10 0 -10 55 0 65 8 8 -6 48 -27 78 -13
19 -14 16 -9 -29z"/>
<path d="M5595 2989 c-4 -6 -5 -12 -2 -15 2 -3 7 2 10 11 7 17 1 20 -8 4z"/>
<path d="M5437 2961 c-6 -23 0 -31 18 -25 7 3 11 14 8 25 -7 24 -19 24 -26 0z"/>
<path d="M5535 2960 c3 -5 11 -10 16 -10 6 0 7 5 4 10 -3 6 -11 10 -16 10 -6
0 -7 -4 -4 -10z"/>
<path d="M5316 2903 c-9 -10 -7 -43 3 -43 5 0 7 10 4 23 -4 21 -3 21 11 -3
l16 -25 6 23 c3 12 10 22 15 22 5 0 6 -6 3 -13 -3 -8 2 -14 11 -14 18 0 20 11
3 24 -15 11 -62 15 -72 6z"/>
<path d="M5550 2894 c-11 -13 -10 -19 9 -37 l22 -22 -9 25 c-5 14 -7 31 -5 38
6 17 -2 15 -17 -4z"/>
<path d="M5440 2865 c3 -45 1 -50 -12 -32 -11 15 -13 11 -14 -25 0 -24 4 -46
9 -49 5 -4 6 -12 2 -18 -5 -9 -11 -9 -23 1 -14 11 -14 11 -5 -7 7 -12 8 -26 2
-37 -6 -11 -5 -19 3 -24 7 -4 8 -3 4 4 -4 7 -1 12 7 12 11 0 13 7 9 23 -5 20
-4 21 11 8 9 -7 17 -19 17 -27 0 -27 16 -22 18 6 1 16 -2 31 -8 35 -6 4 -7 -1
-3 -12 6 -16 5 -16 -10 -4 -12 10 -14 17 -7 26 8 9 6 14 -5 19 -10 4 -13 11
-8 18 4 7 8 18 8 23 1 6 6 9 12 8 7 -1 9 11 7 34 -4 43 -17 60 -14 18z"/>
<path d="M5275 2870 c-3 -5 -3 -10 2 -10 4 0 1 -4 -7 -10 -8 -5 -12 -12 -8
-15 7 -7 38 22 38 36 0 12 -17 12 -25 -1z"/>
<path d="M5393 2819 c-2 -23 3 -25 10 -4 4 8 3 16 -1 19 -4 3 -9 -4 -9 -15z"/>
<path d="M5235 2819 c-10 -15 3 -25 16 -12 7 7 7 13 1 17 -6 3 -14 1 -17 -5z"/>
<path d="M5340 2803 c-18 -37 -23 -66 -10 -58 5 3 10 -1 10 -11 0 -13 -3 -14
-13 -5 -8 6 -17 8 -20 5 -4 -4 -4 3 -2 15 2 12 0 19 -5 16 -5 -3 -7 -14 -5
-25 2 -10 0 -31 -5 -47 -5 -16 -9 -20 -9 -10 -1 23 -23 22 -39 -3 -9 -15 -10
-26 -2 -40 5 -10 10 -28 10 -39 0 -11 9 -26 21 -35 17 -11 19 -18 10 -33 -6
-11 -11 -13 -11 -4 0 8 -6 11 -16 7 -8 -3 -13 -2 -11 2 7 10 -14 27 -35 28
-25 2 -23 -17 2 -23 11 -3 20 -12 20 -20 0 -8 5 -11 11 -7 8 5 8 1 0 -14 -13
-25 -14 -43 -1 -22 8 12 10 12 16 -3 3 -9 11 -17 16 -17 6 0 7 7 4 16 -4 10
-2 13 6 8 8 -5 9 -2 5 10 -5 13 -3 15 12 7 13 -8 18 -6 18 5 0 7 -4 14 -9 14
-4 0 -8 4 -8 10 0 5 7 7 15 4 8 -4 15 -1 15 5 0 6 -4 11 -10 11 -10 0 -7 74 5
103 4 9 4 24 1 33 -3 8 -2 12 4 9 6 -3 10 -1 10 4 0 6 5 10 12 9 7 -2 12 2 13
7 0 6 6 19 12 31 9 16 9 24 0 34 -10 10 -9 11 3 6 12 -6 12 -5 -1 6 -9 7 -14
19 -12 26 9 24 -14 12 -27 -15z"/>
<path d="M5272 2803 c-7 -2 -17 -13 -22 -23 -7 -14 -6 -18 5 -16 18 3 28 13
31 31 1 8 2 15 1 14 -1 0 -8 -3 -15 -6z"/>
<path d="M5475 2792 c-12 -8 -13 -28 -2 -36 4 -3 5 -3 2 0 -2 4 0 15 6 25 11
21 9 23 -6 11z"/>
<path d="M5194 2778 c-4 -7 -9 -22 -10 -34 l-2 -23 24 22 c13 11 24 28 23 36
0 11 -2 12 -6 4 -2 -7 -9 -13 -14 -13 -6 0 -7 5 -4 10 3 6 4 10 1 10 -3 0 -8
-5 -12 -12z"/>
<path d="M5150 2715 c-7 -9 -10 -18 -7 -21 3 -3 10 4 17 15 13 25 8 27 -10 6z"/>
<path d="M5109 2683 c-13 -16 -12 -17 4 -4 9 7 17 15 17 17 0 8 -8 3 -21 -13z"/>
<path d="M5188 2669 c-19 -10 -15 -31 11 -64 15 -18 15 -19 -2 -6 -9 8 -21 11
-24 7 -11 -10 18 -26 47 -25 14 0 19 3 13 6 -7 2 -13 12 -13 21 0 15 2 15 10
2 11 -17 13 -1 4 24 -5 12 -10 14 -19 6 -10 -8 -15 -8 -21 1 -4 7 -3 9 2 6 5
-3 10 3 10 14 0 10 0 19 -1 19 0 0 -8 -5 -17 -11z"/>
<path d="M5015 2640 c-15 -10 -32 -26 -37 -35 -5 -8 -14 -13 -20 -9 -6 4 -8
-1 -6 -10 3 -18 23 -23 23 -6 0 12 24 30 39 30 6 0 1 -6 -10 -14 -10 -8 -16
-18 -11 -22 4 -4 7 -2 7 4 0 6 6 9 13 7 7 -3 17 9 24 32 6 21 11 39 9 40 -1 1
-15 -6 -31 -17z"/>
<path d="M5074 2649 c-4 -7 -3 -9 4 -5 5 3 13 0 15 -6 4 -9 6 -10 6 -1 1 17
-16 25 -25 12z"/>
<path d="M5111 2636 c-12 -15 -10 -96 2 -96 6 0 7 3 4 7 -11 10 23 42 39 36 8
-3 11 -10 6 -17 -11 -17 -9 -77 3 -72 6 2 9 11 8 20 0 11 4 15 14 12 8 -4 11
-1 8 5 -4 6 -13 8 -21 5 -8 -3 -14 -1 -14 4 0 6 4 10 9 10 8 0 8 23 0 40 -1 3
-2 16 -3 29 -1 18 -7 25 -24 26 -12 1 -26 -3 -31 -9z m27 -27 c-3 -8 -7 -3
-11 10 -4 17 -3 21 5 13 5 -5 8 -16 6 -23z"/>
<path d="M5325 2641 c-3 -5 -1 -12 5 -16 6 -4 7 -11 4 -17 -4 -7 -2 -8 4 -4
14 9 16 46 3 46 -6 0 -12 -4 -16 -9z"/>
<path d="M5050 2621 c0 -5 -3 -16 -6 -24 -3 -10 2 -18 14 -21 15 -5 19 -15 18
-41 0 -19 -2 -35 -3 -35 -1 0 -10 12 -18 28 -14 24 -13 12 2 -25 3 -7 -5 -17
-18 -21 l-23 -9 23 -12 c12 -7 20 -18 18 -25 -3 -7 -1 -19 4 -27 7 -12 9 -12
10 1 1 8 0 20 -1 25 -12 56 -13 54 29 46 2 -1 -2 -7 -8 -15 -10 -12 -7 -18 18
-30 44 -23 44 -21 6 30 -27 35 -34 52 -30 74 3 16 1 32 -5 35 -16 10 -12 28 4
22 10 -4 13 -1 9 9 -3 8 -12 13 -20 10 -8 -3 -11 -1 -8 4 3 6 1 10 -4 10 -6 0
-11 -4 -11 -9z"/>
<path d="M4974 2532 c5 -9 1 -15 -13 -19 -26 -7 -26 -7 4 -37 14 -14 25 -20
25 -13 0 7 4 6 10 -3 14 -22 12 -33 -5 -26 -10 3 -15 -1 -16 -12 0 -10 -3 -12
-6 -4 -2 6 -9 12 -14 12 -6 0 -7 -4 -4 -10 10 -17 -12 -11 -26 7 -12 14 -12
16 2 11 31 -12 41 7 19 35 -26 33 -54 26 -45 -10 4 -18 2 -24 -7 -20 -7 2 -12
13 -11 23 1 10 0 14 -3 8 -8 -19 -46 -4 -40 15 5 13 3 13 -8 -2 -8 -10 -20
-15 -30 -11 -15 6 -15 9 5 27 14 13 18 22 11 25 -22 7 -72 -54 -72 -89 0 -37
-9 -35 -12 3 l-2 26 -28 -21 c-28 -21 -28 -43 -1 -33 9 4 21 2 28 -4 9 -8 17
-6 28 4 13 13 17 13 27 2 6 -8 12 -23 13 -35 0 -11 5 -17 9 -15 4 3 8 -1 8 -9
0 -8 7 -17 15 -21 8 -3 15 0 15 7 0 7 9 -3 20 -20 11 -18 21 -33 23 -33 2 0 3
23 1 50 -2 54 2 59 22 33 16 -21 18 -37 4 -28 -6 4 -7 -1 -3 -11 4 -11 8 -13
11 -6 2 7 8 9 13 6 6 -4 6 -10 0 -18 -7 -8 -5 -12 8 -13 15 -1 16 2 7 32 -6
18 -13 32 -17 30 -3 -2 -16 9 -28 25 -12 17 -29 30 -38 30 -12 0 -13 -3 -3
-15 14 -17 20 -76 7 -68 -5 3 -7 14 -4 24 3 10 -4 28 -14 40 -15 17 -16 25 -7
36 8 10 14 11 22 3 5 -5 18 -10 29 -10 11 0 15 -4 11 -12 -4 -7 -3 -8 4 -4 7
4 12 1 12 -7 0 -13 33 -17 46 -5 3 4 13 4 22 1 15 -4 15 -3 2 6 -11 8 -11 11
-2 11 7 0 16 -8 19 -17 6 -15 7 -14 14 3 4 12 1 26 -8 36 -9 9 -16 33 -16 52
-1 19 -3 33 -6 31 -2 -3 -11 1 -19 8 -13 10 -14 9 -8 -1z m-175 -64 c14 5 14
4 2 -11 -8 -10 -14 -16 -15 -15 -1 2 -8 12 -16 23 -10 14 -10 17 -1 8 7 -6 21
-9 30 -5z"/>
<path d="M5120 2480 c6 -11 13 -20 16 -20 2 0 0 9 -6 20 -6 11 -13 20 -16 20
-2 0 0 -9 6 -20z"/>
<path d="M4596 2452 c-3 -5 -19 -7 -36 -6 -37 2 -48 -16 -31 -52 6 -14 7 -23
2 -20 -5 4 -11 3 -14 -1 -2 -5 -2 -2 0 5 1 7 -6 23 -17 34 -22 24 -26 18 -10
-13 8 -13 7 -19 0 -19 -7 0 -5 -9 4 -22 11 -15 12 -25 5 -34 -7 -8 -6 -15 2
-20 7 -4 10 -3 6 2 -3 5 2 18 10 29 9 11 13 14 10 5 -2 -8 0 -23 4 -32 16 -31
-11 -30 -40 0 -34 37 -48 30 -47 -25 1 -22 3 -40 5 -38 2 2 13 -6 25 -18 26
-28 41 -30 56 -11 10 12 9 18 -5 34 -10 11 -15 23 -12 27 4 3 7 0 7 -8 0 -8 9
0 20 16 l20 30 0 -28 c0 -15 9 -35 20 -44 11 -10 20 -21 20 -26 0 -5 -7 -4
-15 3 -13 11 -14 10 -9 -4 3 -9 15 -16 25 -16 11 0 22 -7 25 -15 7 -16 30 -20
38 -6 3 5 -1 29 -8 55 -8 25 -12 46 -9 46 3 0 0 6 -6 14 -13 15 -25 63 -13 52
4 -4 7 -13 7 -19 0 -7 7 -12 15 -12 8 0 14 -7 12 -16 -1 -8 10 -26 25 -40 15
-13 22 -17 15 -7 -9 11 -10 18 -2 23 5 3 10 3 11 -2 0 -4 5 3 10 16 7 17 6 27
-2 32 -8 5 -8 8 1 11 8 2 -1 18 -23 42 -20 21 -39 47 -42 58 -6 16 -9 17 -23
6 -13 -11 -14 -11 -7 1 5 10 4 12 -3 7 -7 -4 -10 -19 -7 -34 5 -27 5 -27 -5
-3 -6 14 -8 31 -6 38 6 14 0 18 -8 5z m69 -70 c-2 -3 1 -14 7 -26 9 -18 8 -19
-3 -6 -8 8 -20 19 -27 25 -11 8 -9 11 7 11 11 0 18 -2 16 -4z m33 -99 c-6 -7
-13 -11 -17 -8 -3 3 1 10 9 15 10 7 11 10 3 10 -7 0 -13 8 -13 18 1 15 2 15
15 -2 11 -15 12 -23 3 -33z m-218 7 c6 -11 8 -20 6 -20 -3 0 -10 9 -16 20 -6
11 -8 20 -6 20 3 0 10 -9 16 -20z m113 -15 c-7 -21 -13 -19 -13 6 0 11 4 18
10 14 5 -3 7 -12 3 -20z m-73 -59 c0 -12 -5 -7 -19 24 -11 24 -11 24 3 6 9
-11 16 -24 16 -30z m120 -16 c11 -11 16 -20 12 -20 -5 0 -17 9 -27 20 -10 11
-15 20 -12 20 4 0 16 -9 27 -20z"/>
<path d="M5104 2408 c3 -7 9 -21 12 -30 8 -22 24 -24 24 -2 0 8 4 13 9 9 5 -3
12 -1 16 4 3 6 -3 8 -14 6 -11 -2 -22 3 -25 11 -3 8 -10 14 -17 14 -6 0 -8 -6
-5 -12z"/>
<path d="M3821 2394 c0 -11 3 -14 6 -6 3 7 2 16 -1 19 -3 4 -6 -2 -5 -13z"/>
<path d="M4707 2403 c-3 -5 7 -25 23 -44 16 -19 29 -28 30 -21 0 6 -4 12 -10
12 -5 0 -10 7 -10 16 0 8 5 12 10 9 6 -3 10 -1 10 5 0 7 -7 10 -15 6 -8 -3
-18 2 -23 11 -5 9 -12 11 -15 6z"/>
<path d="M4445 2381 c-3 -5 1 -12 7 -14 9 -4 8 -6 -2 -6 -8 -1 -2 -8 14 -16
37 -20 40 -16 11 17 -13 16 -26 24 -30 19z"/>
<path d="M4992 2355 c6 -14 15 -25 19 -25 5 0 6 -6 3 -14 -3 -8 -1 -17 5 -21
14 -8 14 11 -1 52 -7 18 -18 33 -25 33 -10 0 -10 -5 -1 -25z"/>
<path d="M4131 2351 c-8 -6 -9 -11 -3 -15 6 -3 14 -1 17 5 9 14 2 20 -14 10z"/>
<path d="M4015 2340 c-3 -5 -1 -10 5 -10 6 0 8 -4 5 -10 -3 -5 -2 -10 3 -10
12 0 23 26 15 34 -9 9 -21 7 -28 -4z"/>
<path d="M4736 2317 c3 -10 9 -15 12 -12 3 3 0 11 -7 18 -10 9 -11 8 -5 -6z"/>
<path d="M4750 2275 c0 -28 31 -66 45 -55 6 5 16 6 20 2 5 -4 5 -1 1 6 -4 7
-11 10 -16 7 -5 -3 -16 8 -25 25 -17 33 -25 38 -25 15z"/>
<path d="M4436 2202 c-3 -5 1 -15 9 -22 11 -9 12 -17 5 -30 -7 -13 -6 -21 2
-26 7 -4 10 -4 6 1 -4 4 -4 15 1 24 9 18 -13 69 -23 53z"/>
<path d="M4500 2186 c0 -22 30 -73 43 -73 12 0 9 9 -11 36 -14 20 -27 38 -29
40 -2 2 -3 1 -3 -3z"/>
<path d="M3103 2154 l-28 -25 33 22 c17 13 32 24 32 26 0 8 -11 1 -37 -23z"/>
<path d="M3179 2113 c-13 -16 -12 -17 4 -4 9 7 17 15 17 17 0 8 -8 3 -21 -13z"/>
<path d="M3695 2040 c3 -5 8 -10 11 -10 2 0 4 5 4 10 0 6 -5 10 -11 10 -5 0
-7 -4 -4 -10z"/>
</g>
</svg>
