<svg width="12" height="12" viewBox="0 0 12 12" fill="none" xmlns="http://www.w3.org/2000/svg">
<path fill-rule="evenodd" clip-rule="evenodd" d="M3.95258 0.545107C4.06058 0.587607 4.15808 0.657607 4.24658 0.750107C4.39408 0.903107 4.51858 1.12211 4.61358 1.38161C4.70908 1.64261 4.77108 1.93161 4.79458 2.22161C5.10938 2.04351 5.45876 1.93507 5.81908 1.90361L5.84458 1.90161C6.27958 1.86661 6.70958 1.94511 7.08458 2.13861C7.13508 2.16511 7.18458 2.19361 7.23308 2.22361C7.25808 1.93911 7.31908 1.65661 7.41308 1.40161C7.50808 1.14161 7.63258 0.923107 7.77958 0.769607C7.86173 0.680739 7.96222 0.610791 8.07408 0.564607C8.20258 0.514607 8.33908 0.505607 8.47208 0.543607C8.67258 0.600607 8.84458 0.727607 8.98008 0.912107C9.10408 1.08061 9.19708 1.29661 9.26058 1.55561C9.37558 2.02261 9.39558 2.63711 9.31808 3.37811L9.34458 3.39811L9.35758 3.40761C9.73608 3.69561 9.99958 4.10611 10.1391 4.58261C10.3566 5.32611 10.2471 6.16011 9.87208 6.62661L9.86308 6.63711L9.86408 6.63861C10.0726 7.01961 10.1991 7.42211 10.2261 7.83861L10.2271 7.85361C10.2591 8.38611 10.1271 8.92211 9.82008 9.44861L9.81658 9.45361L9.82158 9.46561C10.0576 10.0441 10.1316 10.6266 10.0406 11.2086L10.0376 11.2281C10.0235 11.3131 9.97624 11.3891 9.90623 11.4393C9.83621 11.4896 9.74913 11.51 9.66408 11.4961C9.62196 11.4895 9.58156 11.4747 9.54518 11.4525C9.50881 11.4303 9.47717 11.4011 9.45209 11.3666C9.42701 11.3322 9.40897 11.2931 9.39902 11.2517C9.38906 11.2102 9.38738 11.1672 9.39408 11.1251C9.47758 10.6086 9.39908 10.0906 9.15408 9.56361C9.13122 9.51465 9.12107 9.46072 9.12456 9.4068C9.12806 9.35288 9.14509 9.30071 9.17408 9.25511L9.17608 9.25211C9.47808 8.79011 9.60308 8.33711 9.57608 7.89211C9.55308 7.50261 9.41358 7.12011 9.17608 6.75561C9.12989 6.68475 9.11343 6.59855 9.13027 6.51566C9.14711 6.43276 9.1959 6.35983 9.26608 6.31261L9.27058 6.30961C9.39208 6.23011 9.50408 6.02711 9.56058 5.74961C9.62292 5.42147 9.60664 5.08324 9.51308 4.76261C9.41058 4.41261 9.22308 4.12061 8.96058 3.92111C8.66308 3.69411 8.26908 3.58461 7.77058 3.61611C7.70539 3.62035 7.64044 3.60493 7.5841 3.57187C7.52777 3.5388 7.48265 3.48959 7.45458 3.43061C7.29758 3.09811 7.06858 2.86011 6.78308 2.71261C6.50898 2.57581 6.20211 2.51831 5.89708 2.54661C5.27458 2.59611 4.72558 2.94711 4.56208 3.38961C4.53895 3.45189 4.49734 3.50561 4.44283 3.54359C4.38832 3.58157 4.32351 3.60198 4.25708 3.60211C3.72358 3.60311 3.31058 3.72811 3.00858 3.95361C2.74758 4.14861 2.56958 4.42111 2.47558 4.74761C2.39052 5.05493 2.37887 5.37795 2.44158 5.69061C2.49758 5.96961 2.60708 6.20061 2.73258 6.32511L2.73658 6.32861C2.84258 6.43211 2.86508 6.59361 2.79108 6.72111C2.61108 7.03211 2.47658 7.49561 2.45458 7.94111C2.42958 8.45011 2.54758 8.89211 2.81408 9.20911L2.82208 9.21861C2.8623 9.26548 2.88816 9.32294 2.89659 9.38412C2.90501 9.4453 2.89563 9.50761 2.86958 9.56361C2.58158 10.1816 2.49308 10.6896 2.58858 11.0896C2.60574 11.1728 2.58977 11.2594 2.54406 11.331C2.49835 11.4025 2.42651 11.4534 2.34383 11.4729C2.26115 11.4923 2.17416 11.4787 2.10137 11.4349C2.02857 11.3912 1.97573 11.3207 1.95408 11.2386C1.83258 10.7296 1.91508 10.1466 2.19058 9.48961L2.19758 9.47211L2.19358 9.46611C2.05817 9.2661 1.95712 9.0449 1.89458 8.81161L1.89208 8.80211C1.81618 8.51105 1.78632 8.2099 1.80358 7.90961C1.82558 7.45461 1.94258 6.98861 2.11458 6.61461L2.12058 6.60161L2.11958 6.60061C1.97308 6.39161 1.86458 6.12411 1.80458 5.82811L1.80208 5.81611C1.71941 5.40323 1.73534 4.97667 1.84858 4.57111C1.97958 4.11361 2.23708 3.72061 2.61658 3.43661C2.64658 3.41411 2.67808 3.39161 2.70958 3.37061C2.63008 2.62411 2.65008 2.00561 2.76558 1.53561C2.82908 1.27661 2.92258 1.06061 3.04658 0.892107C3.18158 0.708107 3.35358 0.581107 3.55408 0.523607C3.68708 0.485607 3.82408 0.494607 3.95258 0.545107ZM6.01058 5.09011C6.47858 5.09011 6.91058 5.24661 7.23358 5.51761C7.54858 5.78111 7.73608 6.13511 7.73608 6.48761C7.73608 6.93161 7.53308 7.27761 7.16958 7.49861C6.85958 7.68611 6.44408 7.77711 5.96808 7.77711C5.46358 7.77711 5.03258 7.64761 4.72158 7.41011C4.41308 7.17511 4.24008 6.84511 4.24008 6.48761C4.24008 6.13411 4.43908 5.77911 4.76808 5.51461C5.10208 5.24611 5.54308 5.09011 6.01058 5.09011ZM6.01058 5.53811C5.6637 5.53508 5.32601 5.64964 5.05258 5.86311C4.82208 6.04811 4.69158 6.28061 4.69158 6.48811C4.69158 6.70211 4.79658 6.90261 4.99658 7.05511C5.22408 7.22861 5.55858 7.32911 5.96808 7.32911C6.36758 7.32911 6.70458 7.25561 6.93408 7.11611C7.16558 6.97611 7.28408 6.77311 7.28408 6.48761C7.28408 6.27611 7.16108 6.04261 6.94258 5.85961C6.70058 5.65711 6.37258 5.53811 6.01058 5.53811ZM6.34158 6.14311L6.34358 6.14511C6.40358 6.22061 6.39108 6.33011 6.31558 6.39011L6.16958 6.50511V6.72811C6.16931 6.77775 6.14937 6.82526 6.11413 6.86022C6.07889 6.89518 6.03122 6.91474 5.98158 6.91461C5.93194 6.91474 5.88427 6.89518 5.84903 6.86022C5.81378 6.82526 5.79384 6.77775 5.79358 6.72811V6.49811L5.65808 6.38911C5.6402 6.37478 5.62534 6.35706 5.61435 6.33697C5.60336 6.31687 5.59646 6.2948 5.59404 6.27202C5.59162 6.24925 5.59374 6.22622 5.60027 6.20426C5.6068 6.18231 5.61761 6.16186 5.63208 6.14411C5.66159 6.10818 5.70409 6.08535 5.75034 6.08058C5.79658 6.0758 5.84285 6.08947 5.87908 6.11861L5.98658 6.20461L6.09658 6.11761C6.13268 6.08908 6.1785 6.07579 6.22426 6.08055C6.27003 6.08531 6.31212 6.10776 6.34158 6.14311ZM3.82158 5.18361C4.06058 5.18361 4.25508 5.37861 4.25508 5.61911C4.25521 5.73439 4.20958 5.84501 4.1282 5.92667C4.04682 6.00833 3.93636 6.05434 3.82108 6.05461C3.70597 6.05421 3.59571 6.0082 3.51446 5.92667C3.4332 5.84513 3.38758 5.73472 3.38758 5.61961C3.38731 5.50432 3.43282 5.39365 3.5141 5.3119C3.59539 5.23015 3.7063 5.184 3.82158 5.18361ZM8.17458 5.18361C8.41458 5.18361 8.60858 5.37861 8.60858 5.61911C8.60871 5.73439 8.56308 5.84501 8.4817 5.92667C8.40032 6.00833 8.28986 6.05434 8.17458 6.05461C8.05947 6.05421 7.94921 6.0082 7.86796 5.92667C7.7867 5.84513 7.74108 5.73472 7.74108 5.61961C7.74081 5.50432 7.78632 5.39365 7.8676 5.3119C7.94889 5.23015 8.0593 5.184 8.17458 5.18361ZM3.72008 1.15011L3.71858 1.15111C3.66065 1.1763 3.61119 1.2176 3.57608 1.27011L3.57358 1.27311C3.50458 1.36761 3.44458 1.50661 3.39958 1.68911C3.31458 2.03511 3.29158 2.50461 3.33758 3.08011C3.55258 3.01611 3.78708 2.97611 4.03958 2.96161L4.04458 2.96111L4.05408 2.94411C4.07708 2.90311 4.10158 2.86361 4.12808 2.82461C4.18958 2.43911 4.13908 1.97861 4.00158 1.60261C3.93458 1.42061 3.85308 1.27761 3.77508 1.19611C3.75898 1.17916 3.74103 1.16407 3.72158 1.15111L3.72008 1.15011ZM8.30708 1.17011L8.30608 1.17061C8.28663 1.18357 8.26868 1.19866 8.25258 1.21561C8.17458 1.29711 8.09258 1.44061 8.02608 1.62261C7.88108 2.01961 7.83258 2.51061 7.91108 2.90861L7.94008 2.95711L7.94408 2.96411H7.95908C8.20723 2.96417 8.45408 2.99987 8.69208 3.07011C8.73508 2.50811 8.71108 2.04861 8.62808 1.70911C8.58308 1.52661 8.52308 1.38761 8.45358 1.29311L8.45158 1.29011C8.41654 1.23742 8.36707 1.19593 8.30908 1.17061L8.30708 1.17011Z" fill="black"/>
</svg>
