<svg width="128" height="24" viewBox="0 0 128 24" fill="none" xmlns="http://www.w3.org/2000/svg">
<path d="M4.00251 1.35706C3.96085 4.21359 4.16918 7.1098 3.58586 9.92666C3.83585 10.006 4.00251 10.006 4.16918 9.76797C5.00249 8.14133 6.0858 6.67339 7.29411 5.32447C8.41908 4.0549 9.54406 2.825 10.669 1.55543C10.7524 1.43641 10.919 1.35706 11.044 1.35706C12.3773 1.35706 13.7106 1.35706 15.0439 1.35706C15.0856 1.35706 15.1273 1.35706 15.2106 1.39673C15.0856 1.51575 15.0439 1.5951 14.9606 1.67445C13.044 3.69783 11.1274 5.72121 9.21073 7.70491C9.0024 7.90328 9.0024 8.0223 9.16906 8.26035C11.294 11.3153 13.419 14.3702 15.5023 17.4251C15.5856 17.5044 15.6272 17.6234 15.7522 17.7821C15.5856 17.7821 15.5023 17.7821 15.3773 17.7821C14.0856 17.7821 12.7523 17.7821 11.4607 17.7821C11.2107 17.7821 11.0857 17.7028 10.919 17.5044C9.50239 15.3223 8.04409 13.1799 6.62745 10.9979C6.58579 10.9185 6.50246 10.7995 6.41913 10.7201C6.33579 10.7995 6.25246 10.8392 6.2108 10.9185C5.50248 11.6326 4.83583 12.3468 4.16918 13.1006C4.04418 13.2196 4.00251 13.418 4.00251 13.5767C4.00251 14.8462 4.00251 16.1555 4.00251 17.4251C4.00251 17.5441 4.00251 17.6631 4.00251 17.8218C3.87752 17.8218 3.75252 17.8615 3.66919 17.8615C2.54421 17.8615 1.4609 17.8615 0.33593 17.8615C0.0859356 17.8615 0.00260411 17.8218 0.00260411 17.5838C0.00260411 12.1881 0.00260411 6.91143 0.00260411 1.5951C0.00260411 1.43641 -0.0390616 1.31738 0.210933 1.31738C1.41924 1.31738 2.62754 1.31738 3.83585 1.31738C3.87752 1.31738 3.91918 1.31738 4.00251 1.35706Z" fill="#467234"/>
<path d="M103.667 11.9501C103.959 12.0294 104.125 11.9897 104.25 11.712C104.834 10.2837 105.667 9.01417 106.875 7.94297C107.667 7.22883 108.459 6.47502 109.209 5.76089C109.292 5.68154 109.417 5.60219 109.542 5.60219C110.792 5.60219 112.083 5.60219 113.333 5.60219C113.375 5.60219 113.375 5.60219 113.5 5.64187C111.667 7.26851 109.875 8.85547 108.042 10.4821C110.042 12.9022 112 15.3223 114.042 17.7821C113.875 17.7821 113.75 17.7821 113.667 17.7821C112.333 17.7821 111.042 17.7821 109.709 17.7821C109.5 17.7821 109.375 17.7028 109.25 17.5441C108.084 16.0365 106.959 14.4892 105.792 12.9816C105.709 12.9022 105.625 12.7832 105.542 12.6642C105.084 13.0609 104.667 13.418 104.25 13.8147C104.167 13.8941 104.167 14.0131 104.167 14.1321C104.167 15.243 104.167 16.3539 104.167 17.4647C104.167 17.6631 104.125 17.7821 103.875 17.7821C102.792 17.7821 101.709 17.7821 100.625 17.7821C100.375 17.7821 100.334 17.7028 100.334 17.5044C100.334 12.1087 100.334 6.6734 100.334 1.27772C100.334 1.03967 100.417 1 100.625 1C101.709 1 102.792 1 103.875 1C104.042 1 104.167 1.03967 104.167 1.23804C104.125 3.57882 104.167 5.91959 104.084 8.26036C104.042 9.41091 103.834 10.5615 103.667 11.712C103.709 11.7517 103.709 11.831 103.667 11.9501Z" fill="#467234"/>
<path d="M114.459 21.3137C114.959 20.4806 115.5 19.6474 116 18.8143C117.084 19.5284 118.25 19.7664 119.458 19.211C120.083 18.9333 120.542 18.4572 120.75 17.7431C120.5 17.7431 120.333 17.7431 120.125 17.7431C119.667 17.7431 119.208 17.7431 118.792 17.7431C118.542 17.7431 118.417 17.6637 118.333 17.4257C117.75 15.8387 117.125 14.2914 116.5 12.7044C115.625 10.443 114.75 8.14193 113.875 5.8805C113.834 5.80116 113.792 5.68213 113.75 5.56311C113.875 5.56311 113.959 5.52344 114.042 5.52344C115.25 5.52344 116.459 5.52344 117.667 5.52344C117.875 5.52344 117.958 5.56311 118.042 5.80116C118.667 7.90388 119.333 10.0066 119.958 12.1093C120.25 13.1409 120.417 14.1724 120.625 15.2039C120.667 15.3626 120.708 15.442 120.917 15.442C121.083 15.442 121.167 15.4023 121.208 15.2039C121.5 13.0615 122.125 10.9985 122.792 8.97508C123.125 7.94356 123.458 6.91203 123.75 5.8805C123.833 5.64246 123.917 5.56311 124.208 5.56311C125.333 5.56311 126.5 5.56311 127.625 5.56311C127.708 5.56311 127.833 5.56311 128 5.56311C127.875 5.92018 127.75 6.23757 127.625 6.55496C126.167 10.324 124.667 14.1327 123.208 17.9018C122.833 18.8539 122.333 19.7664 121.708 20.5996C120.333 22.3849 118.333 22.7817 116.292 22.2262C115.792 22.1072 115.334 21.8295 114.834 21.5914C114.667 21.5121 114.584 21.4328 114.459 21.3137Z" fill="#467234"/>
<path d="M84.7924 11.5935C84.8341 12.7043 84.6258 13.7755 84.1674 14.8071C83.4591 16.3147 82.2508 17.3065 80.5842 17.743C78.7509 18.2587 76.8759 18.219 75.0426 17.6239C73.251 17.0288 72.0427 15.8386 71.501 14.0929C71.0011 12.4663 71.0011 10.8397 71.5427 9.2527C72.3344 6.87225 74.1676 5.68203 76.6676 5.32496C78.2509 5.12659 79.7925 5.24562 81.2508 5.84073C83.2924 6.67388 84.3758 8.22117 84.7507 10.2842C84.7924 10.4429 84.7924 10.6413 84.8341 10.8C84.8341 11.0777 84.7924 11.3158 84.7924 11.5935ZM80.9175 11.6331C80.9592 11.6331 80.9592 11.6331 81.0008 11.6331C80.8758 10.9587 80.7925 10.2842 80.6258 9.64944C80.2508 8.45922 79.3759 7.86411 78.1259 7.82443C76.8343 7.78476 75.9176 8.34019 75.4593 9.49074C74.9176 10.919 74.9176 12.387 75.501 13.8549C75.9176 14.9261 76.8343 15.4815 78.0009 15.4815C79.2092 15.4815 80.0842 14.9261 80.5425 13.8549C80.8342 13.1011 80.9592 12.387 80.9175 11.6331Z" fill="#467234"/>
<path d="M29.2937 11.3159C29.252 12.8236 29.0437 14.0535 28.4187 15.204C27.6687 16.4736 26.5438 17.3067 25.1271 17.7431C23.3355 18.2589 21.5022 18.2589 19.7106 17.7431C17.5023 17.0687 16.2107 15.6007 15.7523 13.4583C15.4607 12.0301 15.5023 10.5621 16.044 9.17355C16.8773 6.87245 18.6689 5.7219 21.1272 5.36483C22.7105 5.12679 24.2938 5.28549 25.7938 5.92027C27.6687 6.71375 28.7104 8.10235 29.127 9.96703C29.2104 10.4431 29.252 10.9986 29.2937 11.3159ZM25.4188 11.3159C25.3771 10.9986 25.2938 10.3241 25.1271 9.72898C24.7938 8.53876 23.8772 7.8643 22.6688 7.78495C21.3355 7.70561 20.3772 8.26104 19.9189 9.37192C19.3356 10.8399 19.3356 12.3078 19.9189 13.7757C20.3356 14.8469 21.2522 15.4024 22.4605 15.4024C23.6272 15.4024 24.5438 14.8073 25.0021 13.7361C25.2938 13.1013 25.3771 12.3475 25.4188 11.3159Z" fill="#467234"/>
<path d="M46.0017 12.585C45.96 13.8943 46.7933 15.1242 48.0016 15.3622C49.4599 15.6796 50.7099 15.1638 51.3766 13.8546C51.5016 13.6166 51.6266 13.5769 51.8765 13.6166C52.7932 13.8149 53.6682 13.9736 54.5848 14.1323C54.4182 14.8861 54.1265 15.5606 53.6265 16.116C52.9599 16.9492 52.0432 17.4649 51.0016 17.7427C49.3766 18.1791 47.7516 18.1791 46.1267 17.7427C44.3767 17.2666 43.1267 16.2747 42.5434 14.6481C41.7934 12.6247 41.8351 10.6013 42.7101 8.6573C43.5851 6.63392 45.2934 5.6024 47.5016 5.285C48.6266 5.12631 49.7516 5.16598 50.8349 5.48337C52.7099 6.03881 53.8765 7.26871 54.4598 9.01437C54.7931 10.0062 54.8765 11.0377 54.7931 12.0693C54.7515 12.585 54.8765 12.5454 54.2515 12.5454C51.6682 12.5454 49.0433 12.5454 46.46 12.5454C46.2517 12.585 46.1267 12.585 46.0017 12.585ZM51.2516 10.8394C51.1682 10.403 51.1682 10.0062 51.0849 9.64915C50.8766 8.85567 50.4599 8.18121 49.5433 7.90349C48.335 7.50675 47.085 7.98284 46.46 9.05404C46.1683 9.60948 46.0017 10.2046 45.96 10.8394C47.71 10.8394 49.4599 10.8394 51.2516 10.8394Z" fill="#467234"/>
<path d="M69.2928 17.7422C68.0012 17.7422 66.7929 17.7422 65.5429 17.7422C65.5429 17.6232 65.5013 17.4645 65.5013 17.3455C65.5013 15.084 65.5013 12.8623 65.5013 10.6009C65.5013 10.2835 65.5013 9.96609 65.4179 9.68837C65.1263 8.37912 64.043 8.02206 62.918 8.2601C62.168 8.37912 61.668 8.85521 61.3347 9.45032C60.8347 10.3628 60.6264 11.315 60.5847 12.3069C60.543 14.0128 60.543 15.6792 60.543 17.3851C60.543 17.6629 60.4597 17.7819 60.168 17.7422C59.1264 17.7422 58.1264 17.7422 57.0848 17.7422C57.0015 17.7422 56.8765 17.7422 56.7515 17.7422C56.7515 13.6955 56.7515 9.6487 56.7515 5.56226C57.7514 5.56226 58.7931 5.56226 59.8347 5.56226C59.9597 6.55412 60.0431 7.58564 60.168 8.57749C60.5014 8.65684 60.668 8.61717 60.7514 8.29978C61.293 6.83183 62.2097 5.76063 63.8763 5.36389C64.9179 5.08617 65.9596 5.12585 67.0012 5.48292C68.3345 5.959 69.0012 6.95086 69.2095 8.2601C69.2512 8.61717 69.2928 8.93456 69.2928 9.29163C69.2928 11.9895 69.2928 14.6873 69.2928 17.3851C69.2928 17.5438 69.2928 17.6232 69.2928 17.7422Z" fill="#467234"/>
<path d="M99.0837 5.5625C98.6671 6.67337 98.2504 7.66523 97.8754 8.69675C96.7505 11.593 95.6255 14.4495 94.5422 17.3457C94.4172 17.7028 94.2505 17.7821 93.8755 17.7821C92.6256 17.7424 91.3756 17.7821 90.1256 17.7821C89.8756 17.7821 89.7923 17.7028 89.709 17.5044C88.209 13.6163 86.709 9.76795 85.2091 5.87989C85.1674 5.80054 85.1674 5.7212 85.1257 5.60217C85.2507 5.60217 85.3341 5.5625 85.4174 5.5625C86.584 5.5625 87.7923 5.5625 88.959 5.5625C89.1673 5.5625 89.2506 5.60217 89.2923 5.80054C90.0006 8.26034 90.7506 10.7598 91.4589 13.2196C91.6256 13.8147 91.7089 14.4495 91.8339 15.0843C91.8756 15.243 91.9589 15.3223 92.1256 15.3223C92.2922 15.3223 92.4172 15.362 92.4589 15.124C92.7922 12.7435 93.6255 10.4424 94.2922 8.14132C94.5005 7.38751 94.7505 6.67337 94.9588 5.91957C95.0422 5.64185 95.1672 5.5625 95.4588 5.5625C96.5421 5.5625 97.6254 5.5625 98.7088 5.5625C98.7921 5.5625 98.9171 5.5625 99.0837 5.5625Z" fill="#467234"/>
<path d="M40.7102 9.52986C39.7935 8.81573 38.8352 8.53801 37.7102 8.89508C36.8769 9.13312 36.3353 9.72823 35.9603 10.4027C35.4603 11.3152 35.2519 12.307 35.2519 13.3386C35.2103 14.6875 35.2519 16.0364 35.2519 17.3457C35.2519 17.4647 35.2519 17.5837 35.2519 17.7027C35.1269 17.7027 35.0436 17.7424 34.9603 17.7424C33.877 17.7424 32.7937 17.7424 31.7104 17.7424C31.4604 17.7424 31.4187 17.6631 31.4187 17.4647C31.4187 13.5766 31.4187 9.72823 31.4187 5.84017C31.4187 5.6418 31.4604 5.56245 31.7104 5.56245C32.5437 5.56245 33.4187 5.56245 34.252 5.56245C34.502 5.56245 34.5436 5.6418 34.5853 5.84017C34.6686 6.83202 34.752 7.86355 34.877 8.8554C34.877 9.0141 34.9186 9.13312 34.9186 9.29182C35.3353 9.41084 35.3769 9.37117 35.4603 9.0141C35.6686 8.02225 36.0019 7.10974 36.7519 6.35593C37.8769 5.16571 39.9185 4.92767 41.3351 5.76082C41.4601 5.84017 41.5851 5.87985 41.5435 6.07822C41.2935 7.14942 41.0851 8.26029 40.8352 9.33149C40.7518 9.37117 40.7518 9.45051 40.7102 9.52986Z" fill="#467234"/>
<path d="M38.0436 23.6939C37.8769 23.6939 37.7936 23.6939 37.6686 23.6939C36.8353 23.6939 36.0436 23.6939 35.2103 23.6939C34.9186 23.6939 34.7936 23.6145 34.6686 23.3765C34.252 22.583 33.7937 21.8292 33.3353 21.0357C33.252 21.1547 33.2103 21.2341 33.127 21.3531C32.7104 22.0672 32.3354 22.7813 31.9187 23.4955C31.8354 23.6939 31.7104 23.7335 31.5021 23.7335C30.6271 23.7335 29.7938 23.7335 28.9188 23.7335C28.8354 23.7335 28.7521 23.7335 28.5854 23.7335C28.6271 23.6145 28.6688 23.5352 28.7521 23.4955C29.6271 22.2656 30.5021 21.0754 31.3771 19.8455C31.5021 19.6868 31.6271 19.6074 31.8354 19.6074C32.8354 19.6074 33.8353 19.6074 34.8353 19.6074C34.9603 19.6074 35.127 19.6868 35.2103 19.7661C36.127 21.0357 37.0436 22.3053 37.9602 23.5748C37.9602 23.5748 38.0019 23.6145 38.0436 23.6939Z" fill="#467234"/>
</svg>
