<svg xmlns="http://www.w3.org/2000/svg" viewBox="0 0 24 24" width="24" height="24"><path d="M17.738 8.6c1.92 0 3.345 1.095 3.345 2.82 0 .975-.42 1.8-1.2 2.34 1.065.54 1.65 1.485 1.65 2.64 0 1.995-1.635 3.3-3.825 3.3-1.98 0-3.255-.87-4.11-2.37l1.77-1.095c.585 1.155 1.29 1.665 2.325 1.665 1.02 0 1.785-.615 1.785-1.59 0-.96-.75-1.56-1.86-1.56h-1.725v-1.8h1.59c.885 0 1.53-.495 1.53-1.305 0-.795-.6-1.245-1.425-1.245-.84 0-1.41.45-1.845 1.2l-1.65-1.02c.765-1.245 1.95-1.98 3.645-1.98ZM15.276 4v1.892h-5.104V19.4H8.104V5.892H3V4h12.276Z"/></svg>