<svg xmlns="http://www.w3.org/2000/svg" viewBox="0 0 24 24" width="24" height="24"><path d="M18.308 8.6c1.755 0 2.85.795 3.54 1.71l-1.56 1.29c-.54-.72-1.155-1.17-1.98-1.17-1.515 0-2.325 1.095-2.46 3.15.675-.585 1.53-.915 2.565-.915 2.085 0 3.405 1.485 3.405 3.405 0 1.98-1.425 3.63-3.825 3.63-2.73 0-4.245-1.995-4.245-5.505 0-3.27 1.35-5.595 4.56-5.595ZM15.276 4v1.892h-5.104V19.4H8.104V5.892H3V4h12.276Zm2.762 10.465c-.855 0-1.59.33-2.13 1.035.24 1.71.975 2.37 2.04 2.37 1.11 0 1.785-.735 1.785-1.725 0-.975-.69-1.68-1.695-1.68Z"/></svg>