<svg xmlns="http://www.w3.org/2000/svg" viewBox="0 0 24 24" width="24" height="24"><path d="M20.418 12.357c-.156-1.272-.527-3.188-.94-4.974a54.674 54.674 0 0 0-.707-2.756c-.229-.789-.467-1.505-.692-1.955-.249-.497-.663-.881-1.188-1.042a1.81 1.81 0 0 0-1.543.23c-.603.402-.918 1.068-.975 1.849-.656-.649-1.312-1.208-1.866-1.484-.94-.471-2.09-.292-2.7.625-.593.891-.408 2.06.281 3.099.252.38.661.87 1.092 1.372a4.584 4.584 0 0 0-.829-.079c-.669 0-1.434.286-2.1.62-.702.352-1.437.83-2.082 1.355-.635.517-1.239 1.125-1.624 1.752-.352.574-.72 1.517-.145 2.382l.062.089-.024.019c-.698.558-1.193 1.584-.67 2.631.312.625.843 1.304 1.445 1.987.614.696 1.36 1.459 2.15 2.256.8.805 1.947 1.634 3.413 2.01 1.49.382 3.231.275 5.145-.682 1.887-.944 3.07-2.173 3.746-3.735.656-1.514.797-3.253.797-5.13 0-.145-.018-.293-.048-.441l.002.002Zm-4.042-8.599c.127.306.29.791.474 1.425.171.591.35 1.274.525 1.996l-.077-.101a68.003 68.003 0 0 0-.329-.422l-.075-.296c-.09-.355-.233-.923-.446-1.776-.1-.401-.099-.663-.07-.826h-.002Zm1.458 13.374c-.464 1.071-1.277 1.977-2.806 2.741-1.502.751-2.75.79-3.754.533-1.025-.263-1.87-.856-2.49-1.482-.79-.797-1.499-1.523-2.07-2.17-.582-.66-.966-1.177-1.157-1.558a.123.123 0 0 1-.004-.007l.002-.005a.377.377 0 0 1 .132-.162l3.384-.616a8.39 8.39 0 0 0-.605-.656 4.603 4.603 0 0 0-.216-.193c.152-.088.293-.171.426-.251.294-.175.552-.328.827-.462.435-.212.612-.212.647-.205.545.111 1.086.427 1.487.835.14.142.24.277.323.406l2.032-.37a4.2 4.2 0 0 0-.93-1.438c-.642-.653-1.527-1.191-2.513-1.392-.73-.149-1.434.128-1.924.367-.346.169-.732.398-1.07.598-.147.087-.285.169-.406.238-.477.271-.782.398-.976.422a.274.274 0 0 1-.059.003l-.004-.004c.014-.05.05-.141.138-.285.22-.358.634-.801 1.182-1.248a9.691 9.691 0 0 1 1.716-1.118c.6-.301 1.018-.408 1.204-.408.604 0 1.31.254 2.112.67.392.203.777.428 1.166.655l.013.007c.375.219.764.446 1.13.629l.894-1.789a11.78 11.78 0 0 1-.557-.301c-.395-.719-1.076-1.539-1.668-2.232a69.626 69.626 0 0 0-.487-.565c-.527-.61-.964-1.115-1.2-1.473-.216-.324-.285-.563-.3-.707a.432.432 0 0 1 .01-.165c.022 0 .071.004.148.042.323.161.927.664 1.717 1.487a35.196 35.196 0 0 1 2.383 2.798c.786 1.02 1.501 2.049 2.014 2.915.257.434.59 1.183.718 1.485l.021.196c-.005 1.775-.155 3.138-.63 4.237v-.002Z"/><path d="M7.09 15.2c.192.182.378.402.615.683l.068.08.006.007c.485.574 1.195 1.414 2.264 1.763 1.21.395 2.291-.086 2.995-.746.677-.635 1.167-1.58 1.167-2.482 0-.345-.088-.676-.209-.996l-2.032.37c.168.26.242.486.242.626 0 .236-.17.68-.536 1.024-.34.319-.685.407-1.005.303-.457-.149-.833-.532-1.363-1.16l-.074-.088-.153-.178-2.54.463c.106.033.354.138.557.331H7.09Z"/></svg>