<svg xmlns="http://www.w3.org/2000/svg" viewBox="0 0 24 24" width="24" height="24"><path d="M20.8 1.2v4.5c1.1.6 1.9 2.2 2 4.2 0 2-.8 3.6-2 4.2v.3c-.4 5.5-3.4 8.4-9.3 8.4H6.6c-2.075-.083-3.805-1.82-4.505-2.522-.144-.144-.244-.244-.295-.278l-.6-.8L2.8 18l.6.8c.5.6 1.9 2.1 3.2 2.1h4.1V18H10c-1.8 0-3.5-1.1-4.1-2.8l-.3-.7 1.5-.6.3.7c.4 1.1 1.5 1.8 2.7 1.8h.7v-2.2h2.5c.3 0 .6-.2.8-.5.2-.3.2-.7.1-1l-3.4-7.4V1.2h10Zm-7.5 16.7c1.8 0 3.4-1.1 4.1-2.7l.3-.7-1.3-.5-.3.6c-.5 1.2-1.6 1.9-2.8 1.9h-.7v1.4h.7Zm4.3-9.8H19v-.7C19 6.1 17.9 5 16.6 5c-1.3 0-2.4 1.1-2.4 2.4v.7h1.4v-.7c0-.6.4-1 1-1s1 .5 1 1v.7Z"/><path d="M7.3 6.451c-.5 0-.9.388-.9.873V8.1H4.8v-.776c0-1.357 1-2.424 2.4-2.424s2.5 1.067 2.5 2.424V8.1H8.1v-.776c0-.485-.3-.873-.8-.873Z"/></svg>