<svg xmlns="http://www.w3.org/2000/svg" viewBox="0 0 24 24" width="24" height="24"><path d="M13.5 21.2c-.6 0-1.1-.7-1.1-.7l-1.9-3.6-1.1-1c-1.7-.9-2.8-2.7-2.8-4.7 0-3 2.4-5.4 5.4-5.4 3 0 5.4 2.4 5.4 5.4 0 .3 0 .7-.1 1l1.9.4c.1-.4.1-.9.1-1.4 0-4-3.3-7.3-7.3-7.3-1.7 0-3.3.6-4.6 1.6L2.9 1 1.5 2.4 6 6.9c-.9 1.2-1.4 2.7-1.4 4.2 0 2.5 1.2 4.6 3.1 5.9l1.1 1 1.8 3.3c.4.6 1.4 1.7 2.8 1.7h.2c1.7-.1 2.6-1.2 2.7-1.3l-1.6-1.2c0 .2-.4.7-1.2.7Z"/><path d="m14.7 12.8-1.4 1.4 7.8 7.9.1-.1 1.3-1.4-7.8-7.8ZM12 8.8c.6 0 1.2.3 1.7.7L15 8.1c-.8-.8-1.8-1.2-3-1.2-2.4 0-4.3 1.9-4.3 4.3s1.9 4.3 4.3 4.3v-2c-1.3 0-2.4-1.1-2.4-2.4 0-1.2 1-2.3 2.4-2.3Z"/></svg>