<svg xmlns="http://www.w3.org/2000/svg" viewBox="0 0 24 24" width="24" height="24"><path d="M12 2C6.477 2 2 6.477 2 12s4.477 10 10 10 10-4.477 10-10S17.523 2 12 2ZM4 12a8 8 0 1 1 16 0 8 8 0 0 1-16 0Z"/><path d="M6.553 10.79 7 9.897l.447-.895h-.002l.008.003.05.024c.048.021.125.055.228.096.206.082.517.196.919.31.804.23 1.96.462 3.35.462 1.39 0 2.546-.232 3.35-.462.402-.114.713-.228.92-.31a5.647 5.647 0 0 0 .277-.12l.007-.003.446.895.447.895h-.002l-.004.002-.008.005-.026.012-.087.04a7.784 7.784 0 0 1-.308.13c-.263.106-.639.242-1.112.377-.946.27-2.29.539-3.9.539-1.61 0-2.954-.268-3.9-.539a11.56 11.56 0 0 1-1.112-.376 7.8 7.8 0 0 1-.395-.17l-.026-.014-.009-.004-.003-.001-.002-.001Z"/><path d="m12 11.056 3.857 6.43-1.714 1.029L12 14.944l-2.143 3.57-1.714-1.029L12 11.056Z"/><path d="M10.5 14v-3h3v3h-3ZM14 7a2 2 0 1 1-4 0 2 2 0 0 1 4 0Z"/></svg>