<svg xmlns="http://www.w3.org/2000/svg" viewBox="0 0 24 24" width="24" height="24"><path d="M7.64 20.377c-1.747-1.76-3.214-3.293-3.77-4.404a1.118 1.118 0 0 1 .008-1.025c.353-.71 1.39-1.212 2.504-.863.417.13.774.421 1.115.778.193.202.38.426.572.653.585.693 1.202 1.425 2.089 1.715 1.692.552 3.151-1.259 3.151-2.517s-1.46-2.8-3.151-3.146c-.706-.144-1.589.38-2.469.902l-.01.006c-.324.192-.648.384-.963.542-.875.44-1.678.615-2.216-.192a.913.913 0 0 1-.132-.658c.248-1.705 4.137-4.376 5.79-4.376.209 0 .439.03.684.084 1.088.238 2.478.948 3.726 1.647-.383-.84-1.41-2.027-2.33-3.093l-.28-.323c-.484-.562-.914-1.074-1.171-1.46-1.253-1.888 0-3.147 1.258-2.518.432.216 1.013.691 1.667 1.328.273.266.558.56.85.874 1.814 1.953 2.083 2.985 1.259-.314-.136-.543-.155-.999-.094-1.366.221-1.335 1.488-1.508 1.982-.522.37.741.884 2.542 1.354 4.52.503 2.113.955 4.43 1.129 5.872.025.113.039.216.039.305 0 4.09-.635 6.922-4.41 8.81-3.776 1.887-6.612.322-8.18-1.259Z"/></svg>