<svg xmlns="http://www.w3.org/2000/svg" id="Camada_2" viewBox="0 0 560 324.69"><defs><style>.cls-1{fill:#0e1273;}.cls-2{fill:#8c0a46;}.cls-3{fill:#08103f;}</style></defs><g id="Camada_1-2"><g><g><path class="cls-1" d="M175.26,227.97H61.99v-73.14h101.6c4.05,0,7.33-3.28,7.33-7.33v-29.69c0-4.05-3.28-7.33-7.33-7.33H61.99v-36.51c0-4.05-3.28-7.33-7.33-7.33H22.63c-4.05,0-7.33,3.28-7.33,7.33v191.02c0,4.05,3.28,7.33,7.33,7.33H175.26c4.05,0,7.33-3.28,7.33-7.33v-29.69c0-4.05-3.28-7.33-7.33-7.33Z"></path><path class="cls-2" d="M391.09,100.66c1.44,2.29,3.82,3.43,6.21,3.43s4.78-1.15,6.21-3.44l17.76-28.43c1.45-2.32,1.49-5.26,.09-7.61L383.2,0H11.13C2.86,0-2.52,8.72,1.2,16.11c1.89,3.75,5.73,6.12,9.93,6.12,2.31,0,4.18,1.87,4.18,4.18v10.67c0,4.05,3.28,7.33,7.33,7.33h0l206.62-.06v220.64c0,4.05,3.28,7.33,7.33,7.33h32.03c4.05,0,7.33-3.28,7.33-7.33V44.35h79.84l35.32,56.31Z"></path><path class="cls-1" d="M554.63,251.15h0c-1.77-1.07-3.75-1.6-5.74-1.6s-4.11,.57-5.92,1.71c-.69,.44-1.47,.65-2.23,.65-1.39,0-2.76-.69-3.56-1.96l-74.61-118.46L537.99,11.22c3.06-4.88-.45-11.22-6.21-11.22h-37.62c-2.54,0-4.91,1.32-6.24,3.49l-158.54,257.66c-3,4.88,.51,11.17,6.24,11.17h35.18c2.61,0,5.03-1.39,6.34-3.65l57.4-99.05,58.95,99.12c1.32,2.22,3.71,3.58,6.3,3.58h51.46s0,0,0,0h0s0,0,0,0h0s0,0,0,0h0s3.55-2.24,3.55-2.24c7-4.41,6.9-14.65-.18-18.92Z"></path></g><g><path class="cls-3" d="M21.37,292.1h4.1v-6.42h3.82v6.42h6.55v3.46h-6.55v11.33c0,2.05,1,3.23,3.05,3.23,1.18,0,2.41-.87,2.41-.87l1.41,3.14c-1.82,1-3.14,1.27-4.37,1.27-3,0-6.33-1.96-6.33-6.6v-11.52h-4.1v-3.46Z"></path><path class="cls-3" d="M61.07,302.75c0,.41,0,.73-.05,1.23h-16.98c.23,3.19,3.28,6.15,7.24,6.15s6.33-3.09,6.33-3.09l2.41,2.5s-3.19,4.14-8.74,4.14c-6.37,0-10.97-4.82-10.97-11.06s4.19-11.06,10.51-11.06c5.87,0,10.24,4.42,10.24,11.2Zm-3.73-1.96c-.14-2.37-2.28-5.69-6.51-5.69-4.55,0-6.42,3.5-6.69,5.69h13.2Z"></path><path class="cls-3" d="M84.87,309.62s-3.05,4.05-8.6,4.05c-6.19,0-10.83-4.87-10.83-11.06s4.64-11.06,10.83-11.06c5.37,0,8.38,3.78,8.38,3.78l-2.59,2.32s-2.05-2.55-5.78-2.55c-4.23,0-7.01,3.37-7.01,7.51s2.78,7.51,7.01,7.51,6.14-3,6.14-3l2.46,2.5Z"></path><path class="cls-3" d="M108,299.61v13.52h-3.82v-12.88c0-3.6-2.23-5.14-5.05-5.14-3.41,0-5.23,3.55-5.23,3.55v14.48h-3.82v-21.03h3.55v2.96s1.91-3.5,6.46-3.5c4.19,0,7.92,2.87,7.92,8.06Z"></path><path class="cls-3" d="M135.49,302.61c0,6.19-4.64,11.06-10.83,11.06s-10.83-4.87-10.83-11.06,4.64-11.06,10.83-11.06,10.83,4.87,10.83,11.06Zm-3.82,0c0-4.14-2.78-7.51-7.01-7.51s-7.01,3.37-7.01,7.51,2.78,7.51,7.01,7.51,7.01-3.37,7.01-7.51Z"></path><path class="cls-3" d="M142.14,278.72h3.82v34.41h-3.82v-34.41Z"></path><path class="cls-3" d="M174.27,302.61c0,6.19-4.64,11.06-10.83,11.06s-10.83-4.87-10.83-11.06,4.64-11.06,10.83-11.06,10.83,4.87,10.83,11.06Zm-3.82,0c0-4.14-2.78-7.51-7.01-7.51s-7.01,3.37-7.01,7.51,2.78,7.51,7.01,7.51,7.01-3.37,7.01-7.51Z"></path><path class="cls-3" d="M195.62,310.49c-.73,.96-2.91,3.19-6.78,3.19-5.69,0-10.2-4.87-10.2-11.06s4.51-11.06,10.2-11.06c5.05,0,7.1,3.6,7.1,3.6v-3.05h3.5v21.12c0,7.28-4.96,10.92-11.06,10.92-5.78,0-9.19-4.01-9.19-4.01l2.32-2.87s2.55,3.32,6.87,3.32,7.24-2.46,7.24-7.19v-2.91Zm0-11.83s-2.05-3.55-6.19-3.55-6.96,3.37-6.96,7.51,2.69,7.51,6.96,7.51,6.19-3.55,6.19-3.55v-7.92Z"></path><path class="cls-3" d="M209.32,282.77c1.41,0,2.59,1.18,2.59,2.59s-1.18,2.6-2.59,2.6-2.59-1.18-2.59-2.6,1.18-2.59,2.59-2.59Zm-1.91,9.33h3.82v21.03h-3.82v-21.03Z"></path><path class="cls-3" d="M236.68,299.29v13.84h-3.5v-3.05s-2.37,3.6-7.15,3.6c-3.78,0-7.83-2.64-7.83-7.19,0-4.1,3.6-7.01,8.33-7.01,3.87,0,6.33,1.73,6.33,1.73v-1.14c0-4.37-3.64-4.96-5.33-4.96-3.19,0-6.28,1.78-6.28,1.78l-1.59-3.19s3.28-2.14,7.87-2.14c6.19,0,9.15,3.82,9.15,7.74Zm-3.82,7.83v-2.96s-2.09-1.5-5.51-1.5-5.33,1.64-5.33,3.82c0,2.73,2.46,3.82,4.82,3.82,3.73,0,6.01-3.19,6.01-3.19Z"></path><path class="cls-3" d="M273.69,294.69v-15.98h3.82v34.41h-3.51v-3.05s-2.05,3.6-7.1,3.6c-5.69,0-10.2-4.87-10.2-11.06s4.51-11.06,10.2-11.06c4.64,0,6.78,3.14,6.78,3.14Zm0,4.05s-2-3.64-6.19-3.64-6.96,3.37-6.96,7.51,2.69,7.51,6.96,7.51,6.19-3.64,6.19-3.64v-7.74Z"></path><path class="cls-3" d="M303.09,299.29v13.84h-3.5v-3.05s-2.37,3.6-7.15,3.6c-3.78,0-7.83-2.64-7.83-7.19,0-4.1,3.6-7.01,8.33-7.01,3.87,0,6.33,1.73,6.33,1.73v-1.14c0-4.37-3.64-4.96-5.33-4.96-3.19,0-6.28,1.78-6.28,1.78l-1.59-3.19s3.28-2.14,7.87-2.14c6.19,0,9.15,3.82,9.15,7.74Zm-3.82,7.83v-2.96s-2.09-1.5-5.51-1.5-5.33,1.64-5.33,3.82c0,2.73,2.46,3.82,4.82,3.82,3.73,0,6.01-3.19,6.01-3.19Z"></path><path class="cls-3" d="M327.17,282.77c1.41,0,2.6,1.18,2.6,2.59s-1.18,2.6-2.6,2.6-2.59-1.18-2.59-2.6,1.18-2.59,2.59-2.59Zm-1.91,9.33h3.82v21.03h-3.82v-21.03Z"></path><path class="cls-3" d="M354.99,299.61v13.52h-3.82v-12.88c0-3.6-2.23-5.14-5.05-5.14-3.41,0-5.23,3.55-5.23,3.55v14.48h-3.82v-21.03h3.55v2.96s1.91-3.5,6.46-3.5c4.19,0,7.92,2.87,7.92,8.06Z"></path><path class="cls-3" d="M360.27,292.1h4.37v-7.24c0-4.46,3.46-6.69,6.46-6.69,1.23,0,2.6,.23,4.42,1.23l-1.41,3.14s-1.27-.82-2.46-.82c-2.05,0-3.19,1.32-3.19,3.37v7.01h5.46v3.46h-5.46v17.57h-3.82v-17.57h-4.37v-3.46Z"></path><path class="cls-3" d="M399,302.61c0,6.19-4.64,11.06-10.83,11.06s-10.83-4.87-10.83-11.06,4.64-11.06,10.83-11.06,10.83,4.87,10.83,11.06Zm-3.82,0c0-4.14-2.78-7.51-7.01-7.51s-7.01,3.37-7.01,7.51,2.78,7.51,7.01,7.51,7.01-3.37,7.01-7.51Z"></path><path class="cls-3" d="M417.3,292.1l-1.41,3.46s-.82-.46-2.41-.46c-3.32,0-4.82,3.55-4.82,3.55v14.48h-3.82v-21.03h3.55v3.23s1.87-3.78,5.87-3.78c1.73,0,3.05,.55,3.05,.55Z"></path><path class="cls-3" d="M451.26,299.61v13.52h-3.82v-12.93c0-3.41-1.78-5.1-4.51-5.1-3.14,0-4.51,3.37-4.51,3.37v14.66h-3.82v-12.93c0-3.41-1.78-5.1-4.51-5.1-3.09,0-4.51,3.37-4.51,3.37v14.66h-3.82v-21.03h3.55v3.09s1.55-3.64,5.83-3.64c5.23,0,6.55,3.91,6.55,3.91,0,0,1.68-3.91,6.28-3.91s7.28,2.87,7.28,8.06Z"></path><path class="cls-3" d="M476.02,299.29v13.84h-3.5v-3.05s-2.37,3.6-7.15,3.6c-3.78,0-7.83-2.64-7.83-7.19,0-4.1,3.6-7.01,8.33-7.01,3.87,0,6.33,1.73,6.33,1.73v-1.14c0-4.37-3.64-4.96-5.33-4.96-3.19,0-6.28,1.78-6.28,1.78l-1.59-3.19s3.28-2.14,7.87-2.14c6.19,0,9.15,3.82,9.15,7.74Zm-3.82,7.83v-2.96s-2.09-1.5-5.51-1.5-5.33,1.64-5.33,3.82c0,2.73,2.46,3.82,4.82,3.82,3.73,0,6.01-3.19,6.01-3.19Z"></path><path class="cls-3" d="M501.29,309.62s-3.05,4.05-8.6,4.05c-6.19,0-10.83-4.87-10.83-11.06s4.64-11.06,10.83-11.06c5.37,0,8.38,3.78,8.38,3.78l-2.59,2.32s-2.05-2.55-5.78-2.55c-4.23,0-7.01,3.37-7.01,7.51s2.78,7.51,7.01,7.51,6.15-3,6.15-3l2.46,2.5Zm-9.92,15.07l-3.64-1.09,2.82-8.33,3.5,.41-2.68,9.01Z"></path><path class="cls-3" d="M523.96,299.29v13.84h-3.5v-3.05s-2.37,3.6-7.15,3.6c-3.78,0-7.83-2.64-7.83-7.19,0-4.1,3.6-7.01,8.33-7.01,3.87,0,6.33,1.73,6.33,1.73v-1.14c0-4.37-3.64-4.96-5.33-4.96-3.19,0-6.28,1.78-6.28,1.78l-1.59-3.19s3.28-2.14,7.87-2.14c6.19,0,9.15,3.82,9.15,7.74Zm-16.3-12.97s1.27-3.82,5.23-3.82c2.32,0,3.73,2.05,5.1,2.05,1.91,0,2.59-2.28,2.59-2.28l2.64,1.68s-1.14,3.82-5.1,3.82c-2.46,0-3.82-2.05-5.19-2.05-1.96,0-2.59,2.28-2.59,2.28l-2.69-1.68Zm12.47,20.8v-2.96s-2.09-1.5-5.51-1.5-5.33,1.64-5.33,3.82c0,2.73,2.46,3.82,4.82,3.82,3.73,0,6.01-3.19,6.01-3.19Z"></path><path class="cls-3" d="M551.45,302.61c0,6.19-4.64,11.06-10.83,11.06s-10.83-4.87-10.83-11.06,4.64-11.06,10.83-11.06,10.83,4.87,10.83,11.06Zm-3.82,0c0-4.14-2.78-7.51-7.01-7.51s-7.01,3.37-7.01,7.51,2.78,7.51,7.01,7.51,7.01-3.37,7.01-7.51Z"></path></g></g></g></svg>